<svg xmlns="http://www.w3.org/2000/svg" width="105" height="90" viewBox="0 0 105 90">
  <g id="Group_1111617" data-name="Group 1111617" transform="translate(-229.051 -4099)">
    <g id="Group_1111616" data-name="Group 1111616" transform="translate(180.296 4103)">
      <path id="Path_900483" data-name="Path 900483" d="M97.838,27.347H80.519a1.264,1.264,0,0,1-1.264-1.264V8.764A1.264,1.264,0,0,1,80.519,7.5H97.838A1.264,1.264,0,0,1,99.1,8.764V26.083A1.264,1.264,0,0,1,97.838,27.347Z" transform="translate(-6.305 -6.305)" fill="#b3e59f"/>
      <path id="Path_900484" data-name="Path 900484" d="M178.8,7.5h-3.242a1.264,1.264,0,0,1,1.264,1.264V26.083a1.264,1.264,0,0,1-1.264,1.264H178.8a1.264,1.264,0,0,0,1.264-1.264V8.764A1.264,1.264,0,0,0,178.8,7.5Z" transform="translate(-87.27 -6.305)" fill="#95d6a4"/>
      <path id="Path_900485" data-name="Path 900485" d="M326.735,27.347H309.416a1.264,1.264,0,0,1-1.264-1.264V8.764A1.264,1.264,0,0,1,309.416,7.5h17.319A1.264,1.264,0,0,1,328,8.764V26.083A1.264,1.264,0,0,1,326.735,27.347Z" transform="translate(-198.74 -6.305)" fill="#dd636e"/>
      <path id="Path_900486" data-name="Path 900486" d="M407.7,7.5h-3.242a1.264,1.264,0,0,1,1.264,1.264V26.083a1.264,1.264,0,0,1-1.264,1.264H407.7a1.264,1.264,0,0,0,1.264-1.264V8.764A1.264,1.264,0,0,0,407.7,7.5Z" transform="translate(-279.704 -6.305)" fill="#da4a54"/>
      <g id="Group_1111614" data-name="Group 1111614" transform="translate(73.247 16.588)">
        <g id="Group_1111611" data-name="Group 1111611" transform="translate(0 17.672)">
          <path id="Path_900487" data-name="Path 900487" d="M107.726,237.984v-3.62a5.2,5.2,0,0,1,.778-2.752l2.223-3.551a6.621,6.621,0,0,0,.619-5.618l-1.053-3.062-2.036-4.312H93.212l-3.456,4.312-5.174-2.519a2.3,2.3,0,0,0-2.756.582,2.916,2.916,0,0,0,.031,3.84l6.707,7.262a4.619,4.619,0,0,1,1.191,3.129v6.31h17.97Z" transform="translate(-81.12 -215.068)" fill="#ffddce"/>
        </g>
        <g id="Group_1111612" data-name="Group 1111612" transform="translate(23.808 17.589)">
          <path id="Path_900488" data-name="Path 900488" d="M236.994,222l-1.053-3.062-2.036-4.312-2.367-.083,1.836,4.395L234.2,222a6.621,6.621,0,0,1-.619,5.618l-2.223,3.551a5.2,5.2,0,0,0-.778,2.752v3.62h2.8v-3.62a5.2,5.2,0,0,1,.778-2.752l2.223-3.551A6.622,6.622,0,0,0,236.994,222Z" transform="translate(-230.576 -214.546)" fill="#ffcbbe"/>
        </g>
        <g id="Group_1111613" data-name="Group 1111613" transform="translate(8.636)">
          <path id="Path_900489" data-name="Path 900489" d="M140.465,126.114V106.959a2.579,2.579,0,1,0-5.134,0v19.155h5.134Z" transform="translate(-135.331 -104.131)" fill="#ffddce"/>
          <path id="Path_900490" data-name="Path 900490" d="M172.694,189.377V181.1a1.829,1.829,0,0,0-1.924-1.716h-1.286a1.829,1.829,0,0,0-1.924,1.716v8.28Z" transform="translate(-162.426 -167.394)" fill="#ffddce"/>
          <path id="Path_900491" data-name="Path 900491" d="M204.925,189.377V181.1A1.829,1.829,0,0,0,203,179.381h-1.286a1.829,1.829,0,0,0-1.924,1.716v8.28Z" transform="translate(-189.523 -167.394)" fill="#ffddce"/>
          <path id="Path_900492" data-name="Path 900492" d="M237.155,189.377V181.1a1.829,1.829,0,0,0-1.924-1.716h-1.286a1.829,1.829,0,0,0-1.924,1.716v8.28Z" transform="translate(-216.619 -167.394)" fill="#ffddce"/>
        </g>
        <path id="Path_900493" data-name="Path 900493" d="M242.006,179.38h-1.286a2.126,2.126,0,0,0-.64.1,1.741,1.741,0,0,1,1.283,1.617v8.28h2.567V181.1a1.829,1.829,0,0,0-1.924-1.716Z" transform="translate(-214.757 -167.393)" fill="#ffcbbe"/>
      </g>
      <path id="Path_900494" data-name="Path 900494" d="M138.982,382.111H116.629a1.05,1.05,0,0,1-1.05-1.05v-21.09a1.05,1.05,0,0,1,1.05-1.05h22.353a1.05,1.05,0,0,1,1.05,1.05v21.09A1.05,1.05,0,0,1,138.982,382.111Z" transform="translate(-36.843 -301.746)" fill="#365e7d"/>
      <path id="Path_900495" data-name="Path 900495" d="M244.4,358.922h-3.427a1.05,1.05,0,0,1,1.05,1.05v21.09a1.05,1.05,0,0,1-1.05,1.05H244.4a1.05,1.05,0,0,0,1.05-1.05v-21.09A1.05,1.05,0,0,0,244.4,358.922Z" transform="translate(-142.265 -301.747)" fill="#2b4d66"/>
      <g id="Group_1111615" data-name="Group 1111615" transform="translate(71.755 0)">
        <path id="Path_900496" data-name="Path 900496" d="M105.73,46.84a1.2,1.2,0,0,0,0,1.69l3.275,3.275a1.2,1.2,0,0,0,1.69,0l5.86-5.86a1.195,1.195,0,0,0-1.69-1.69L109.85,49.27l-2.43-2.43a1.2,1.2,0,0,0-1.69,0Z" transform="translate(-100.024 -36.911)"/>
        <path id="Path_900497" data-name="Path 900497" d="M349.608,40.075a1.2,1.2,0,0,0-1.69,0l-2.751,2.751-2.751-2.751a1.195,1.195,0,0,0-1.69,1.69l2.751,2.751-2.751,2.751a1.195,1.195,0,0,0,1.69,1.69l2.751-2.751,2.751,2.751a1.195,1.195,0,0,0,1.69-1.69l-2.751-2.751,2.751-2.751A1.2,1.2,0,0,0,349.608,40.075Z" transform="translate(-297.587 -33.397)"/>
        <path id="Path_900498" data-name="Path 900498" d="M103.614,38.371V30.291A3.023,3.023,0,0,0,100.5,27.38H99.209A3.242,3.242,0,0,0,97.285,28a3.242,3.242,0,0,0-1.924-.624H94.075A3.243,3.243,0,0,0,92.151,28a3.242,3.242,0,0,0-1.924-.625H88.941a3.314,3.314,0,0,0-.729.084V22.237h3.321a2.462,2.462,0,0,0,2.459-2.459V2.459A2.462,2.462,0,0,0,91.533,0h-8.1a1.195,1.195,0,1,0,0,2.389h8.1a.07.07,0,0,1,.07.07V19.778a.07.07,0,0,1-.07.07H88.211v-.431a3.77,3.77,0,1,0-7.524,0v.431H74.214a.07.07,0,0,1-.07-.07V2.459a.07.07,0,0,1,.07-.07h4.443a1.195,1.195,0,0,0,0-2.389H74.214a2.462,2.462,0,0,0-2.459,2.459V19.778a2.462,2.462,0,0,0,2.459,2.459h6.474V36.661l-3.456-1.682a3.5,3.5,0,0,0-4.171.861,4.088,4.088,0,0,0,.046,5.446l6.707,7.262a3.44,3.44,0,0,1,.874,2.318v5.116h-.9a2.247,2.247,0,0,0-2.245,2.245v21.09a2.247,2.247,0,0,0,2.245,2.245h22.353a2.247,2.247,0,0,0,2.245-2.245V58.225a2.247,2.247,0,0,0-2.245-2.245h-1.092V53.555a3.983,3.983,0,0,1,.6-2.118l1.373-2.193a1.195,1.195,0,1,0-2.025-1.268l-1.373,2.193a6.37,6.37,0,0,0-.96,3.386V55.98H83.077V50.865a5.775,5.775,0,0,0-1.508-3.94l-6.707-7.262a1.721,1.721,0,0,1-.017-2.235,1.116,1.116,0,0,1,1.341-.3l5.174,2.519a1.2,1.2,0,0,0,1.718-1.074V19.416a1.393,1.393,0,1,1,2.745,0V38.571a1.195,1.195,0,1,0,2.389,0v-8.28c0-.247.3-.521.729-.521h1.286c.43,0,.729.275.729.521v8.28a1.195,1.195,0,1,0,2.389,0v-8.28c0-.247.3-.521.729-.521h1.286c.43,0,.729.275.729.521v8.28a1.195,1.195,0,1,0,2.389,0v-8.28c0-.247.3-.521.729-.521H100.5c.43,0,.729.275.729.521v8.28a1.313,1.313,0,0,0,.065.389l1.053,3.062a5.5,5.5,0,0,1,.275,2.228,1.195,1.195,0,0,0,2.381.2,7.91,7.91,0,0,0-.4-3.2Zm-1.62,40.8H79.931V58.37h22.064Z" transform="translate(-71.755 0)"/>
        <path id="Path_900499" data-name="Path 900499" d="M142.565,398.245a1.2,1.2,0,0,0-1.195,1.195v1.874a1.195,1.195,0,0,0,2.389,0V399.44A1.2,1.2,0,0,0,142.565,398.245Z" transform="translate(-130.281 -334.806)"/>
        <path id="Path_900500" data-name="Path 900500" d="M321.694,9.925a1.2,1.2,0,0,0,1.195-1.195V2.459A2.462,2.462,0,0,0,320.43,0H303.111a2.462,2.462,0,0,0-2.459,2.459V19.778a2.462,2.462,0,0,0,2.459,2.459H320.43a2.462,2.462,0,0,0,2.459-2.459V13.507a1.195,1.195,0,1,0-2.389,0v6.271a.07.07,0,0,1-.07.07H303.111a.07.07,0,0,1-.07-.07V2.459a.07.07,0,0,1,.07-.07H320.43a.07.07,0,0,1,.07.07V8.73a1.2,1.2,0,0,0,1.195,1.195Z" transform="translate(-264.189 0)"/>
      </g>
    </g>
    <rect id="Rectangle_404641" data-name="Rectangle 404641" width="105" height="90" transform="translate(229.051 4099)" fill="none"/>
  </g>
</svg>
