<svg id="Group_1111435" data-name="Group 1111435" xmlns="http://www.w3.org/2000/svg" width="402.707" height="428.192" viewBox="0 0 402.707 428.192">
  <rect id="Rectangle_404548" data-name="Rectangle 404548" width="400" height="382" rx="15" transform="translate(2.656 27.644)" fill="#e2dacc"/>
  <g id="Group_1111430" data-name="Group 1111430" transform="translate(0)">
    <g id="Group_59377" data-name="Group 59377" transform="translate(0)">
      <g id="freepik--background-complete--inject-46" transform="translate(0)">
        <path id="Path_103149" data-name="Path 103149" d="M2304.521,5713.414c-1.342-1.278-4.339-5.319-2.029-10.018.849-1.729,2.649-2.584,4.246-3.336a16.749,16.749,0,0,0,4.7-2.7c2.548-2.387,3.244-6.371,4.933-9.567,1.936-3.665,5.553-6.409,9.341-6.22,4.373.225,8.025,4.181,9.68,8.692s1.7,9.52,1.749,14.387c0,2.7-.093,5.732-1.876,7.518-1.647,1.683-4.127,1.7-6.36,1.626l-23.92-.817" transform="translate(-2130.022 -5294.758)" fill="#aed3f2"/>
        <path id="Path_103150" data-name="Path 103150" d="M2347.737,5638h-62.905l11.336,74.775a8.1,8.1,0,0,0,5.367,6.652l.221.065a5.123,5.123,0,0,0,.561.16,6.942,6.942,0,0,0,1.274.169v.065l.306-.056h28.022a6.965,6.965,0,0,0,1.537-.169,8.034,8.034,0,0,0,6.36-7.3l5.469-51.517.246-2.049h0l2.165-20.411Zm-11.888,47.7H2329.4l.654-21.709h7.481Zm2.3-21.709h6.182l-2.284,21.756h-5.553Zm-18.435,45.757-.4-18.852h9.3l-.569,18.852Zm-10.054-18.852h9.035l.391,18.852h-8.1Zm.7,18.852h-7.575c-.713-5.084-1.7-11.7-2.666-18.852h8.916Zm-1.044-24-1.52-21.708h10.36l.45,21.708Zm9.918,0-.459-21.708h10.666l-.645,21.708Zm-.561-26.905-.425-20.1h11.973l-.6,20.1Zm-.628,0h-10.614l-1.418-20.1h11.616Zm-11.243,0h-11.234c-.4-2.819-.781-5.4-1.121-7.771-1.172-8.119-1.614-11.184-1.852-12.329h12.8Zm.365,5.2,1.52,21.708h-9.29c-.314-2.208-.628-4.437-.942-6.663-.73-5.121-1.46-10.243-2.148-15.036Zm-8.364,21.708h-6.071l-3.286-21.708h6.267C2296.635,5670.708,2297.7,5678.159,2298.8,5685.743Zm.739,5.2c.925,6.522,1.834,12.959,2.666,18.852h-5.867l-2.853-18.852Zm29.185,18.852.569-18.852h6.208l-1.452,18.852Zm1.528-50.953.6-20.1h8.678l-1.554,20.1Zm-38.211-20.1c.246,1.456,1.392,9.4,2.929,20.1h-6.36l-3.048-20.1Zm47.5,71.054h-4.908l1.46-18.852h5.4Zm5.4-50.953h-6.326l1.545-20.1h6.912Z" transform="translate(-2127.487 -5292.132)" fill="#e0e0e0"/>
        <rect id="Rectangle_5512" data-name="Rectangle 5512" width="32.777" height="71.909" transform="translate(242.193 66.449)" fill="#aed3f2"/>
        <rect id="Rectangle_5513" data-name="Rectangle 5513" width="35.418" height="71.909" transform="translate(276.236 66.449)" fill="#aed3f2"/>
        <rect id="Rectangle_5514" data-name="Rectangle 5514" width="35.418" height="69.484" transform="translate(276.236 143.386)" fill="#aed3f2"/>
        <path id="Path_103151" data-name="Path 103151" d="M2471.9,5335.164H2509.2v-63.79h1.265v63.79h30.349v-65.209H2471.9Z" transform="translate(-2155.706 -5269.955)" fill="#aed3f2"/>
        <rect id="Rectangle_5515" data-name="Rectangle 5515" width="30.357" height="71.909" transform="translate(354.756 66.449)" fill="#aed3f2"/>
        <rect id="Rectangle_5516" data-name="Rectangle 5516" width="30.357" height="69.484" transform="translate(354.756 143.386)" fill="#aed3f2"/>
        <rect id="Rectangle_5517" data-name="Rectangle 5517" width="32.777" height="69.484" transform="translate(242.193 143.386)" fill="#aed3f2"/>
        <rect id="Rectangle_5518" data-name="Rectangle 5518" width="37.303" height="69.484" transform="translate(316.197 143.386)" fill="#aed3f2"/>
        <rect id="Rectangle_5519" data-name="Rectangle 5519" width="32.777" height="62.615" transform="translate(242.193 214.111)" fill="#aed3f2"/>
        <rect id="Rectangle_5520" data-name="Rectangle 5520" width="30.357" height="62.615" transform="translate(354.756 214.111)" fill="#aed3f2"/>
        <path id="Path_103152" data-name="Path 103152" d="M2417.53,5335.164v-63.79h1.266v63.79h35.418v-65.209h-69.46v65.209Z" transform="translate(-2142.56 -5269.955)" fill="#aed3f2"/>
        <rect id="Rectangle_5521" data-name="Rectangle 5521" width="37.303" height="62.615" transform="translate(316.197 214.111)" fill="#aed3f2"/>
        <rect id="Rectangle_5522" data-name="Rectangle 5522" width="35.418" height="62.615" transform="translate(276.236 214.111)" fill="#aed3f2"/>
        <rect id="Rectangle_5523" data-name="Rectangle 5523" width="37.303" height="71.909" transform="translate(316.197 66.449)" fill="#aed3f2"/>
        <path id="Path_103153" data-name="Path 103153" d="M2112.382,5454.3a3.312,3.312,0,0,1-4.084-2.565l-7.5-31.012a3.09,3.09,0,0,1,2.055-3.665l2.632-.779a3.044,3.044,0,0,0,2.1-2.4l.255-1.437a3.052,3.052,0,0,1,2.1-2.4l12.491-3.692a2.7,2.7,0,0,1,2.709.705l.849.892a2.7,2.7,0,0,0,2.709.7l15.913-4.7a2.728,2.728,0,0,1,3.4,2.039l7.642,31.651a3.738,3.738,0,0,1-2.352,4.51Z" transform="translate(-2099.715 -5278.022)" fill="#e0e0e0"/>
        <path id="Path_103154" data-name="Path 103154" d="M2126.96,5409.1l-10.13,2.989-1.376-1.606a3.376,3.376,0,0,0-3.558-1.043l-9.893,2.941a3.573,3.573,0,0,0-2.386,4.247l.306,1.278,8.152,33.605a3.587,3.587,0,0,0,4.534,2.679h0l40.208-11.954a4.045,4.045,0,0,0,2.712-4.816l0-.014-7.71-31.725a2.382,2.382,0,0,0-2.928-1.883l-.01,0Z" transform="translate(-2099.535 -5278.014)" fill="#ebebeb"/>
        <path id="Path_103155" data-name="Path 103155" d="M2273.784,5402.055a4.507,4.507,0,0,1-2.972-5.385l8.22-37.655a3.313,3.313,0,0,1,4.1-2.575l3.2.855a3.265,3.265,0,0,0,3.481-1.212l1.028-1.353a3.267,3.267,0,0,1,3.473-1.2l15.191,4.06a3.628,3.628,0,0,1,2.547,2.472l.458,1.513a3.645,3.645,0,0,0,2.547,2.472l19.361,5.178a3.7,3.7,0,0,1,2.59,4.36l-8.406,38.53a4.023,4.023,0,0,1-4.854,3.29h0Z" transform="translate(-2125.354 -5274.983)" fill="#e0e0e0"/>
        <path id="Path_103156" data-name="Path 103156" d="M2313.1,5363.368l-12.313-3.327-.6-2.575a4.6,4.6,0,0,0-3.244-3.411l-12.041-3.26a3.843,3.843,0,0,0-4.755,2.988l-.34,1.551-8.925,40.9a4.883,4.883,0,0,0,3.4,5.751l48.911,13.072a4.365,4.365,0,0,0,5.4-3.392l8.432-38.634a3.235,3.235,0,0,0-2.131-3.869l-.009,0Z" transform="translate(-2125.367 -5274.816)" fill="#ebebeb"/>
        <path id="Path_103157" data-name="Path 103157" d="M2161.009,5348.325a4.659,4.659,0,0,1-4.993-4.426l-4.246-43.228a4.037,4.037,0,0,1,3.443-4.455h.005l3.668-.451a3.947,3.947,0,0,0,3.26-2.735l.612-1.879a3.976,3.976,0,0,1,3.26-2.734l17.442-2.123a3.728,3.728,0,0,1,3.5,1.55l1.011,1.4a3.756,3.756,0,0,0,3.5,1.561l22.231-2.707a3.824,3.824,0,0,1,4.245,3.5v.01l4.39,44.215a4.908,4.908,0,0,1-3.987,5.525h-.013Z" transform="translate(-2107.412 -5270.937)" fill="#e0e0e0"/>
        <path id="Path_103158" data-name="Path 103158" d="M2189.125,5291.188l-14.1,1.682-1.52-2.452a4.725,4.725,0,0,0-4.6-2.246l-13.858,1.682a4.685,4.685,0,0,0-4,5.16l.178,1.785,4.662,46.987a5.036,5.036,0,0,0,5.553,4.585l56.146-6.831a5.314,5.314,0,0,0,4.543-5.86v0l-4.407-44.346a3.348,3.348,0,0,0-3.587-3.187h-.005Z" transform="translate(-2107.302 -5271.049)" fill="#f2e9e4"/>
        <path id="Path_103159" data-name="Path 103159" d="M2197.02,5320.2a6.286,6.286,0,0,0,2.692-5.976,5.181,5.181,0,1,0-10.309-.049,6.436,6.436,0,0,0,.119,1.242,5.965,5.965,0,0,0,3.813,5.234c-7.727,2.265-6.437,11.681-6.437,11.681l18.6-2.162S2204.942,5320.561,2197.02,5320.2Z" transform="translate(-2112.701 -5272.277)" fill="#e0e0e0"/>
        <path id="Path_103160" data-name="Path 103160" d="M2117.891,5345.033a9.106,9.106,0,0,1,2.446-.818l.747-2.49,3.906.432.288,2.6a9.224,9.224,0,0,1,2.25,1.344l2.123-1.174,2.479,3.355-1.452,2.067a11.654,11.654,0,0,1,.739,2.707l2.241.836-.39,4.313-2.352.329a11,11,0,0,1-1.206,2.491l1.062,2.386-3.031,2.753-1.868-1.616a9.023,9.023,0,0,1-2.454.817l-.747,2.491-3.932-.48-.3-2.6a9.689,9.689,0,0,1-2.25-1.363l-2.123,1.166-2.479-3.354,1.46-2.067a11.323,11.323,0,0,1-.739-2.707l-2.25-.836.391-4.313,2.352-.319a10.935,10.935,0,0,1,1.206-2.5l-1.053-2.34,3.031-2.753Zm1.46,6a5.047,5.047,0,0,0-.627,6.608,3.973,3.973,0,0,0,5.971.7,5.048,5.048,0,0,0,.628-6.608l-.028-.038A3.972,3.972,0,0,0,2119.352,5351.038Z" transform="translate(-2101.123 -5274.279)" fill="#6595bf"/>
        <path id="Path_103161" data-name="Path 103161" d="M2137.616,5530.177a2.616,2.616,0,0,0,1.019-.188,2.133,2.133,0,0,0,.951-.855,2.28,2.28,0,0,0,.3-.8c.051-.31.076-.658.119-1.014.331-2.914.8-7.077,1.384-12.217l.467-4.041c.077-.7.161-1.419.247-2.152l.127-1.1a6.04,6.04,0,0,0,.077-1.081,2.155,2.155,0,0,0-1.036-1.682,2.379,2.379,0,0,0-.977-.273l-1.087-.159-4.492-.639-20.015-2.885a1.883,1.883,0,0,0-1.953,1.184,2.654,2.654,0,0,0-.169.629l-.085.724c-.059.479-.11.939-.17,1.438q-.338,2.875-.671,5.638c-.45,3.7-.849,7.274-1.282,10.686-.1.845-.2,1.682-.3,2.509a2.184,2.184,0,0,0,.849,1.879,1.823,1.823,0,0,0,.942.367l1.062.159,2.089.31,7.642,1.137,11.039,1.683,2.989.478.773.141a.794.794,0,0,1,.263.066h-.263l-.781-.084-3.006-.395-11.039-1.523-7.642-1.081-2.089-.3-1.062-.15a2.5,2.5,0,0,1-2.114-2.753c.094-.836.187-1.682.289-2.538.4-3.4.849-6.973,1.257-10.675q.331-2.819.671-5.639c.051-.479.11-.939.169-1.438l.085-.723a3.092,3.092,0,0,1,.2-.771,2.306,2.306,0,0,1,2.42-1.457l20.006,2.923,4.492.667,1.087.16a2.86,2.86,0,0,1,1.1.319,2.574,2.574,0,0,1,1.231,2.011,5.615,5.615,0,0,1-.085,1.175,8.064,8.064,0,0,1-.136,1.109c-.085.733-.17,1.447-.263,2.152-.17,1.4-.331,2.745-.492,4.032-.637,5.121-1.155,9.275-1.52,12.217-.051.357-.077.686-.136,1.014a2.542,2.542,0,0,1-.34.846,2.188,2.188,0,0,1-1.027.874,1.669,1.669,0,0,1-.781.132A1.3,1.3,0,0,1,2137.616,5530.177Z" transform="translate(-2101.07 -5283.852)" fill="#e0e0e0"/>
        <path id="Path_103162" data-name="Path 103162" d="M2138.584,5527.131a2.093,2.093,0,0,1-.255-.356l-.654-1.081c-.586-1.015-1.375-2.369-2.335-4l-1.6-2.819-.433-.751a.61.61,0,0,0-.561-.3c-.229,0-.382.169-.62.4l-.679.648-1.4,1.325a3.1,3.1,0,0,1-.416.348.948.948,0,0,1-1.138-.141,1.084,1.084,0,0,1-.2-.245l-.136-.225c-.722-1.212-1.46-2.471-2.225-3.759l-1.129-1.879-.552-.94a.592.592,0,0,0-.628-.319.554.554,0,0,0-.314.178l-.34.376-.679.743-1.316,1.438-4.552,4.962-3.108,3.345-.849.884a1.71,1.71,0,0,1-.323.281,1.918,1.918,0,0,1,.255-.357l.849-.94,3-3.421c1.291-1.447,2.811-3.148,4.484-5.036l1.307-1.447.671-.752.348-.375a.968.968,0,0,1,.535-.31,1.008,1.008,0,0,1,1.07.526l.552.939,1.13,1.879,2.225,3.76a.685.685,0,0,0,.875.5.706.706,0,0,0,.381-.331l1.41-1.316.688-.629a3.733,3.733,0,0,1,.357-.32.914.914,0,0,1,.5-.178.97.97,0,0,1,.849.5c.153.263.3.516.433.77l1.554,2.82,2.217,4.088.586,1.127C2138.525,5526.981,2138.584,5527.122,2138.584,5527.131Z" transform="translate(-2101.436 -5284.574)" fill="#e0e0e0"/>
        <path id="Path_103163" data-name="Path 103163" d="M2135.351,5511.318a3.8,3.8,0,0,0-.085-.676,2.906,2.906,0,0,0-.756-1.542,2.219,2.219,0,0,0-2.157-.639,2.585,2.585,0,0,0-1.738,3.076,2.55,2.55,0,0,0,1.169,1.688,2.169,2.169,0,0,0,2.242,0,2.655,2.655,0,0,0,1.087-1.27c.162-.394.2-.639.238-.629a1.4,1.4,0,0,1-.085.7,2.692,2.692,0,0,1-1.086,1.5,2.441,2.441,0,0,1-2.548.113,3.147,3.147,0,0,1-1.249-4.007,2.765,2.765,0,0,1,1.92-1.631,2.491,2.491,0,0,1,2.463.837,2.909,2.909,0,0,1,.671,1.795A1.386,1.386,0,0,1,2135.351,5511.318Z" transform="translate(-2104.146 -5284.295)" fill="#e0e0e0"/>
        <path id="Path_103164" data-name="Path 103164" d="M2294.117,5331.923a2.545,2.545,0,0,0,1,.3,1.95,1.95,0,0,0,1.18-.357,1.983,1.983,0,0,0,.569-.592c.161-.254.314-.563.484-.865l5.783-10.506,1.919-3.477c.339-.6.679-1.222,1.027-1.879l.526-.94a5.137,5.137,0,0,0,.467-.939,2.321,2.321,0,0,0-.323-2.011,2.715,2.715,0,0,0-.79-.686l-.934-.63-3.855-2.631-17.2-11.709a1.785,1.785,0,0,0-2.589.7h0l-.348.62-.7,1.26c-.917,1.635-1.826,3.251-2.709,4.839-1.784,3.176-3.5,6.24-5.095,9.162l-1.2,2.152a2.267,2.267,0,0,0,.756,2.9l.917.63,1.783,1.222,6.479,4.464,9.426,6.578,2.547,1.794.654.47.212.179-.238-.131-.679-.432-2.59-1.72-9.494-6.456-6.513-4.436-1.8-1.211-.917-.63a2.525,2.525,0,0,1-.849-.939,2.765,2.765,0,0,1-.06-2.575c.391-.724.79-1.447,1.2-2.18l5.095-9.172,2.709-4.859.688-1.231.34-.62a2.946,2.946,0,0,1,.476-.611,2.182,2.182,0,0,1,2.751-.235l17.161,11.747,3.847,2.65.934.639a2.9,2.9,0,0,1,.849.79,2.743,2.743,0,0,1,.374,2.387,4.823,4.823,0,0,1-.509,1.034l-.535.94c-.348.629-.7,1.241-1.036,1.879-.671,1.2-1.325,2.359-1.945,3.458l-5.842,10.412c-.187.311-.331.6-.51.874a2.086,2.086,0,0,1-.628.611,1.956,1.956,0,0,1-1.257.329,1.777,1.777,0,0,1-.764-.235A1.043,1.043,0,0,1,2294.117,5331.923Z" transform="translate(-2125.35 -5271.413)" fill="#6595bf"/>
        <path id="Path_103165" data-name="Path 103165" d="M2294.27,5312.807l1.571,3.477a1,1,0,0,1-.283,1.293.785.785,0,0,1-.566.126l-3.575-.121-3.473-.114a.957.957,0,0,1-.829-1.05,1.066,1.066,0,0,1,.142-.472l1.962-3.317,1.979-3.346a.808.808,0,0,1,1.151-.378.909.909,0,0,1,.385.481Z" transform="translate(-2127.83 -5272.295)" fill="#6595bf"/>
      </g>
      <g id="freepik--Floor--inject-46" transform="translate(15.92 427.751)">
        <path id="Path_103166" data-name="Path 103166" d="M2485.115,5725.406c0,.127-82.113.221-183.417.221s-183.417-.093-183.417-.221,82.1-.221,183.417-.221S2485.115,5725.287,2485.115,5725.406Z" transform="translate(-2118.282 -5725.185)" fill="#263238"/>
      </g>
      <g id="freepik--filing-cabinet--inject-46" transform="translate(34.686 126.379)">
        <rect id="Rectangle_5525" data-name="Rectangle 5525" width="129.054" height="301.593" transform="translate(0)" fill="#455a64"/>
        <g id="Group_59358" data-name="Group 59358" transform="translate(0)" opacity="0.3">
          <rect id="Rectangle_5526" data-name="Rectangle 5526" width="35.282" height="301.593" fill="#344154"/>
        </g>
        <path id="Path_103177" data-name="Path 103177" d="M2223.1,5384.465v-2.42l-1.172,1.97h-.569l-1.172-1.9v2.353H2219V5379.9h1.087l1.6,2.632,1.554-2.632h1.061v4.561Z" transform="translate(-2152.242 -5371.728)" fill="#fff"/>
        <path id="Path_103178" data-name="Path 103178" d="M2228.641,5382.827v1.639h-1.291v-1.656l-1.7-2.9h1.358l1.079,1.809,1.078-1.809h1.248Z" transform="translate(-2153.245 -5371.728)" fill="#fff"/>
        <path id="Path_103179" data-name="Path 103179" d="M2235.123,5380.907v1h2.013v.994h-2.013v1.563h-1.291V5379.9h3.575v1Z" transform="translate(-2154.479 -5371.728)" fill="#fff"/>
        <path id="Path_103180" data-name="Path 103180" d="M2238.752,5379.9h1.3v4.561h-1.291Z" transform="translate(-2155.221 -5371.728)" fill="#fff"/>
        <path id="Path_103181" data-name="Path 103181" d="M2241.352,5379.9h1.282v3.533h2.174v1.027h-3.456Z" transform="translate(-2155.613 -5371.728)" fill="#fff"/>
        <path id="Path_103182" data-name="Path 103182" d="M2249.633,5383.463v1h-3.652V5379.9h3.566v1h-2.292v.764h2.021v.96h-2.021v.849Z" transform="translate(-2156.312 -5371.728)" fill="#fff"/>
        <path id="Path_103183" data-name="Path 103183" d="M2250.792,5384.054l.425-.943a2.889,2.889,0,0,0,1.5.441c.527,0,.739-.144.739-.365,0-.722-2.59-.2-2.59-1.885,0-.849.662-1.478,2.021-1.478a3.474,3.474,0,0,1,1.647.391l-.4.96a2.6,2.6,0,0,0-1.257-.349c-.543,0-.739.178-.739.408,0,.7,2.548.178,2.548,1.851,0,.8-.663,1.469-2.013,1.469A3.522,3.522,0,0,1,2250.792,5384.054Z" transform="translate(-2157.038 -5371.715)" fill="#fff"/>
        <path id="Path_103184" data-name="Path 103184" d="M2271.93,5454.137v-16.347c0-10.411-.06-25.339-.094-43.485l.178.178-84.185.042h0l.221-.221v59.832l-.2-.2,60.689.1,17.306.051h.085l-17.255.059-60.825.1h-.2v-60.162h.229l84.185.042h.178v.179c-.042,18.189-.076,33.117-.093,43.6,0,5.188,0,9.247-.051,12.023v3.143A2.581,2.581,0,0,1,2271.93,5454.137Z" transform="translate(-2147.513 -5373.867)" fill="#263238"/>
        <g id="Group_59359" data-name="Group 59359" transform="translate(65.97 57.25)" opacity="0.3">
          <rect id="Rectangle_5527" data-name="Rectangle 5527" width="34.272" height="5.8" fill="#344154"/>
        </g>
        <g id="Group_59360" data-name="Group 59360" transform="translate(39.239 84.804)" opacity="0.4">
          <rect id="Rectangle_5528" data-name="Rectangle 5528" width="73.392" height="57.02" fill="#344154"/>
        </g>
        <path id="Path_103185" data-name="Path 103185" d="M2230.649,5472.178h-13.985l-.849-1.4a3.064,3.064,0,0,0-2.641-1.511h-10.266a3.066,3.066,0,0,0-3.065,2.912h-3.66a2.871,2.871,0,0,0-2.87,2.87h0v7.116h40.165v-7.116A2.87,2.87,0,0,0,2230.649,5472.178Z" transform="translate(-2148.367 -5385.208)" fill="#e0e0e0"/>
        <path id="Path_103186" data-name="Path 103186" d="M2239.279,5472.178h-13.943l-.849-1.4a3.054,3.054,0,0,0-2.641-1.511h-10.266a3.057,3.057,0,0,0-3.057,2.912h-3.668a2.871,2.871,0,0,0-2.862,2.87v7.116h40.156v-7.116a2.87,2.87,0,0,0-2.87-2.87Z" transform="translate(-2149.677 -5385.208)" fill="#ebebeb"/>
        <path id="Path_103187" data-name="Path 103187" d="M2250.557,5472.178h-13.952l-.849-1.4a3.08,3.08,0,0,0-2.649-1.511h-10.258a3.057,3.057,0,0,0-3.057,2.912h-3.66a2.871,2.871,0,0,0-2.87,2.87h0v7.116h40.156v-7.116A2.87,2.87,0,0,0,2250.557,5472.178Z" transform="translate(-2151.376 -5385.208)" fill="#aed3f2"/>
        <path id="Path_103188" data-name="Path 103188" d="M2219.073,5509v-34.2a2.954,2.954,0,0,1,3.082-2.819h2.947a3.108,3.108,0,0,0,2.793-1.647l.637-1.256a3.116,3.116,0,0,1,2.794-1.639h13.985a3.142,3.142,0,0,1,2.658,1.393l.688,1.062a3.149,3.149,0,0,0,2.649,1.393h17.832a2.954,2.954,0,0,1,3.082,2.819V5509Z" transform="translate(-2152.253 -5384.934)" fill="#ef9548"/>
        <g id="Group_59361" data-name="Group 59361" transform="translate(66.819 82.511)" opacity="0.3">
          <path id="Path_103189" data-name="Path 103189" d="M2219.073,5509v-34.2a2.954,2.954,0,0,1,3.082-2.819h2.947a3.108,3.108,0,0,0,2.793-1.647l.637-1.256a3.116,3.116,0,0,1,2.794-1.639h13.985a3.142,3.142,0,0,1,2.658,1.393l.688,1.062a3.149,3.149,0,0,0,2.649,1.393h17.832a2.954,2.954,0,0,1,3.082,2.819V5509Z" transform="translate(-2219.073 -5467.445)" fill="#344154"/>
        </g>
        <path id="Path_103190" data-name="Path 103190" d="M2232.222,5478.075v-26.985a4.026,4.026,0,0,1,4.016-4.034h43.027a4.033,4.033,0,0,1,4.033,4.034h0v26.238Z" transform="translate(-2154.236 -5381.858)" fill="#fff"/>
        <path id="Path_103191" data-name="Path 103191" d="M2234.2,5485.483V5451.3a2.965,2.965,0,0,1,3.083-2.828h2.929a3.115,3.115,0,0,0,2.8-1.639l.628-1.256a3.125,3.125,0,0,1,2.8-1.648h13.986a3.149,3.149,0,0,1,2.649,1.392l.688,1.062a3.134,3.134,0,0,0,2.658,1.392h17.832a2.955,2.955,0,0,1,3.082,2.819v34.893Z" transform="translate(-2154.535 -5381.386)" fill="#ef9548"/>
        <path id="Path_103192" data-name="Path 103192" d="M2234.2,5485.452h3.932l10.928-.052,38.288-.1-.2.2v-34.067a9.474,9.474,0,0,0,0-1.224,2.59,2.59,0,0,0-1.333-1.825,3.067,3.067,0,0,0-1.028-.348,8.191,8.191,0,0,0-1.138,0h-17.11a3.4,3.4,0,0,1-1.155-.178,3.248,3.248,0,0,1-1.8-1.41l-.586-.917a2.834,2.834,0,0,0-.679-.739,3.05,3.05,0,0,0-1.877-.6H2246.1a2.988,2.988,0,0,0-1.639.747c-.9.773-.993,2.336-2.165,3.108a3.389,3.389,0,0,1-1.834.637h-1.843a15.447,15.447,0,0,0-1.766,0,2.931,2.931,0,0,0-1.5.671,2.6,2.6,0,0,0-.849,1.35,8.862,8.862,0,0,0-.076,1.656v6.436c0,8.212-.059,14.86-.085,19.479v.1c0-4.627-.051-11.294-.085-19.53v-6.48a8.837,8.837,0,0,1,.077-1.749,2.932,2.932,0,0,1,.789-1.562,3.394,3.394,0,0,1,1.7-.756,16.875,16.875,0,0,1,1.826-.051h1.826a3.007,3.007,0,0,0,1.63-.569c1.036-.653,1.079-2.1,2.123-3.09a3.411,3.411,0,0,1,1.851-.85c.7-.06,1.325,0,2,0h12.4a3.405,3.405,0,0,1,2.132.68,3.087,3.087,0,0,1,.781.849l.594.917a2.849,2.849,0,0,0,1.571,1.232,2.9,2.9,0,0,0,1.019.152h17.1a7.21,7.21,0,0,1,1.206.043,3.482,3.482,0,0,1,1.18.4,3.052,3.052,0,0,1,1.546,2.14,9.542,9.542,0,0,1,.042,1.292v34.212h-.2l-38.416-.1-10.886-.051h-3.609Z" transform="translate(-2154.535 -5381.354)" fill="#263238"/>
        <path id="Path_103193" data-name="Path 103193" d="M2260.816,5447.521a72.191,72.191,0,0,1-11.294,0,72.35,72.35,0,0,1,11.294,0Z" transform="translate(-2156.846 -5381.891)" fill="#fff"/>
        <path id="Path_103194" data-name="Path 103194" d="M2253.682,5502.424v-34.212c0-1.554,1.562-2.82,3.49-2.82h3.329a3.618,3.618,0,0,0,3.159-1.639l.722-1.24a3.617,3.617,0,0,1,3.159-1.639h15.8a3.69,3.69,0,0,1,3.006,1.393l.773,1.062a3.719,3.719,0,0,0,3,1.392h20.116c1.928,0,3.482,1.266,3.482,2.82v34.883Z" transform="translate(-2157.474 -5383.942)" fill="#ef9548"/>
        <path id="Path_103195" data-name="Path 103195" d="M2253.664,5502.386h4.467l12.4-.06,43.2-.093-.2.2v-35.2a2.547,2.547,0,0,0-1.265-1.817,3.984,3.984,0,0,0-2.3-.544h-19.531a4.376,4.376,0,0,1-2.369-.535,3.258,3.258,0,0,1-.959-.781c-.263-.332-.467-.628-.705-.951a3.228,3.228,0,0,0-1.7-1.342,5.818,5.818,0,0,0-2.182-.238h-15.225a3.77,3.77,0,0,0-1.843.586,2.905,2.905,0,0,0-.713.646,7.807,7.807,0,0,0-.51.849c-.17.3-.323.577-.509.849a3.081,3.081,0,0,1-.722.764,3.979,3.979,0,0,1-1.885.764c-1.35.085-2.547,0-3.855,0a3.515,3.515,0,0,0-3.048,1.444,2.549,2.549,0,0,0-.365,1.622v5.146c0,8.823-.068,15.956-.085,20.915,0,2.463,0,4.39-.042,5.707v.068c0-1.316,0-3.227-.042-5.681,0-4.967-.051-12.125-.085-20.965v-5.163a2.966,2.966,0,0,1,.407-1.809,3.882,3.882,0,0,1,3.337-1.614c1.24,0,2.548,0,3.8-.051a3.59,3.59,0,0,0,1.7-.7,4.236,4.236,0,0,0,1.13-1.537,9.369,9.369,0,0,1,.543-.849,3.083,3.083,0,0,1,.8-.722,4.115,4.115,0,0,1,2.029-.663h15.251a5.941,5.941,0,0,1,2.327.264,3.631,3.631,0,0,1,1.868,1.486c.229.3.458.636.679.925a3.12,3.12,0,0,0,.849.68,4.017,4.017,0,0,0,2.165.475H2310a4.429,4.429,0,0,1,2.547.6,2.959,2.959,0,0,1,1.46,2.156v35.376h-.2l-43.307-.1-12.448-.119h-4.382Z" transform="translate(-2157.456 -5383.904)" fill="#263238"/>
        <path id="Path_103196" data-name="Path 103196" d="M2285.154,5464.98a126.038,126.038,0,0,1-14.911,0,126.038,126.038,0,0,1,14.911,0Z" transform="translate(-2159.972 -5384.524)" fill="#fff"/>
        <rect id="Rectangle_5529" data-name="Rectangle 5529" width="53.412" height="46.041" transform="translate(39.239 96.2)" fill="#455a64"/>
        <g id="Group_59362" data-name="Group 59362" transform="translate(39.239 96.2)" opacity="0.3">
          <rect id="Rectangle_5530" data-name="Rectangle 5530" width="53.412" height="46.041" fill="#344154"/>
        </g>
        <rect id="Rectangle_5531" data-name="Rectangle 5531" width="84.193" height="59.831" transform="translate(92.651 84.057)" fill="#455a64"/>
        <path id="Path_103197" data-name="Path 103197" d="M2333.654,5529.032v-4.271c0-2.786,0-6.861-.042-12.066,0-10.411-.059-25.347-.094-43.485l.178.178-84.185.042h0l.221-.22v59.822l-.2-.2,60.689.094,17.306.059h.085l-17.255.051-60.824.1h-.246V5468.9h84.592v.187c-.042,18.189-.076,33.117-.093,43.6,0,5.188,0,9.248-.051,12.024v3.142A8.123,8.123,0,0,1,2333.654,5529.032Z" transform="translate(-2156.81 -5385.152)" fill="#263238"/>
        <g id="Group_59363" data-name="Group 59363" transform="translate(119.764 123.466)" opacity="0.3">
          <rect id="Rectangle_5532" data-name="Rectangle 5532" width="39.061" height="5.8" transform="translate(0)" fill="#344154"/>
        </g>
        <path id="Path_103198" data-name="Path 103198" d="M2271.93,5607.51v-16.346c0-10.411-.06-25.347-.094-43.485l.178.179-84.185.042h0l.221-.221v59.832l-.2-.2,60.689.1,17.306.051h.085l-17.255.051-60.825.1h-.2v-60.247h.229l84.185.042h.178v.179c-.042,18.188-.076,33.159-.093,43.6,0,5.2,0,9.256-.051,12.032v3.142A3.443,3.443,0,0,1,2271.93,5607.51Z" transform="translate(-2147.513 -5396.989)" fill="#263238"/>
        <g id="Group_59364" data-name="Group 59364" transform="translate(65.97 187.467)" opacity="0.3">
          <rect id="Rectangle_5533" data-name="Rectangle 5533" width="35.613" height="5.8" transform="translate(0)" fill="#344154"/>
        </g>
        <path id="Path_103199" data-name="Path 103199" d="M2271.926,5684.189v-16.346c0-10.411-.059-25.339-.094-43.486l.178.179-84.185.042h0l.221-.221v59.832l-.2-.2,60.689.1,17.306.051h.059l-17.255.051-60.824.1h-.2v-60.255h84.592v.178c-.042,18.189-.076,33.159-.093,43.6,0,5.188,0,9.247-.051,12.023v3.143A4.631,4.631,0,0,1,2271.926,5684.189Z" transform="translate(-2147.509 -5408.555)" fill="#263238"/>
        <g id="Group_59365" data-name="Group 59365" transform="translate(65.97 252.579)" opacity="0.3">
          <rect id="Rectangle_5534" data-name="Rectangle 5534" width="35.613" height="5.8" transform="translate(0)" fill="#344154"/>
        </g>
        <g id="Group_59370" data-name="Group 59370" transform="translate(56.46 31.444)">
          <rect id="Rectangle_5535" data-name="Rectangle 5535" width="55.866" height="16.779" rx="2.49" transform="translate(0.722)" fill="#fff"/>
          <rect id="Rectangle_5536" data-name="Rectangle 5536" width="55.866" height="16.779" rx="2.49" transform="translate(51.28 69.579)" fill="#fff"/>
          <rect id="Rectangle_5537" data-name="Rectangle 5537" width="55.866" height="16.779" rx="2.49" transform="translate(0 133.478)" fill="#fff"/>
          <rect id="Rectangle_5538" data-name="Rectangle 5538" width="55.866" height="16.779" rx="2.49" transform="translate(0 198.379)" fill="#fff"/>
          <g id="Group_59366" data-name="Group 59366" transform="translate(12.706 3.193)">
            <path id="Path_103200" data-name="Path 103200" d="M2229.5,5422.081h-7.448V5420.6l3.515-3.746a8.714,8.714,0,0,0,1.072-1.381,2.223,2.223,0,0,0,.346-1.12,1.659,1.659,0,0,0-.365-1.138,1.321,1.321,0,0,0-1.045-.415,1.426,1.426,0,0,0-1.154.5,2,2,0,0,0-.421,1.324h-2.164a3.557,3.557,0,0,1,.474-1.812,3.33,3.33,0,0,1,1.34-1.288,4.068,4.068,0,0,1,1.962-.467,3.861,3.861,0,0,1,2.609.806,2.855,2.855,0,0,1,.929,2.277,3.658,3.658,0,0,1-.418,1.642,9.121,9.121,0,0,1-1.434,1.948l-2.47,2.6h4.672Z" transform="translate(-2221.835 -5411.065)" fill="#344154"/>
            <path id="Path_103201" data-name="Path 103201" d="M2239.726,5417.589a5.5,5.5,0,0,1-.933,3.447,3.727,3.727,0,0,1-5.448.023,5.342,5.342,0,0,1-.962-3.358v-2a5.435,5.435,0,0,1,.943-3.455,3.734,3.734,0,0,1,5.438-.011,5.321,5.321,0,0,1,.963,3.354Zm-2.157-2.2a3.988,3.988,0,0,0-.37-1.969,1.249,1.249,0,0,0-1.153-.616,1.225,1.225,0,0,0-1.124.587,3.719,3.719,0,0,0-.384,1.834v2.644a4.186,4.186,0,0,0,.361,1.976,1.234,1.234,0,0,0,1.161.646,1.21,1.21,0,0,0,1.141-.62,4.074,4.074,0,0,0,.366-1.9Z" transform="translate(-2223.427 -5411.065)" fill="#344154"/>
            <path id="Path_103202" data-name="Path 103202" d="M2250.154,5422.081h-7.448V5420.6l3.516-3.746a8.747,8.747,0,0,0,1.071-1.381,2.227,2.227,0,0,0,.347-1.12,1.658,1.658,0,0,0-.366-1.138,1.318,1.318,0,0,0-1.045-.415,1.427,1.427,0,0,0-1.153.5,2,2,0,0,0-.421,1.324h-2.165a3.562,3.562,0,0,1,.474-1.812,3.329,3.329,0,0,1,1.34-1.288,4.07,4.07,0,0,1,1.962-.467,3.858,3.858,0,0,1,2.608.806,2.852,2.852,0,0,1,.929,2.277,3.655,3.655,0,0,1-.418,1.642,9.1,9.1,0,0,1-1.432,1.948l-2.471,2.6h4.672Z" transform="translate(-2224.951 -5411.065)" fill="#344154"/>
            <path id="Path_103203" data-name="Path 103203" d="M2258.4,5422.1h-2.157v-8.314l-2.574.8v-1.753l4.5-1.612h.231Z" transform="translate(-2226.637 -5411.089)" fill="#344154"/>
          </g>
          <g id="Group_59367" data-name="Group 59367" transform="translate(63.556 73.26)">
            <path id="Path_103204" data-name="Path 103204" d="M2289.385,5504.6h-7.449v-1.477l3.515-3.747a8.757,8.757,0,0,0,1.071-1.38,2.227,2.227,0,0,0,.347-1.121,1.66,1.66,0,0,0-.366-1.137,1.32,1.32,0,0,0-1.044-.415,1.425,1.425,0,0,0-1.154.5,2,2,0,0,0-.422,1.324h-2.165a3.557,3.557,0,0,1,.474-1.812,3.335,3.335,0,0,1,1.34-1.288,4.072,4.072,0,0,1,1.963-.467,3.86,3.86,0,0,1,2.608.806,2.852,2.852,0,0,1,.93,2.277,3.662,3.662,0,0,1-.419,1.643,9.137,9.137,0,0,1-1.432,1.948l-2.47,2.6h4.672Z" transform="translate(-2281.719 -5493.58)" fill="#344154"/>
            <path id="Path_103205" data-name="Path 103205" d="M2299.611,5500.1a5.5,5.5,0,0,1-.934,3.447,3.727,3.727,0,0,1-5.448.024,5.35,5.35,0,0,1-.963-3.358v-2a5.435,5.435,0,0,1,.944-3.456,3.735,3.735,0,0,1,5.437-.011,5.332,5.332,0,0,1,.963,3.354Zm-2.157-2.2a3.981,3.981,0,0,0-.37-1.968,1.248,1.248,0,0,0-1.152-.616,1.225,1.225,0,0,0-1.124.586,3.732,3.732,0,0,0-.385,1.834v2.644a4.18,4.18,0,0,0,.362,1.976,1.234,1.234,0,0,0,1.161.647,1.212,1.212,0,0,0,1.142-.62,4.086,4.086,0,0,0,.366-1.9Z" transform="translate(-2283.31 -5493.58)" fill="#344154"/>
            <path id="Path_103206" data-name="Path 103206" d="M2310.039,5504.6h-7.449v-1.477l3.515-3.747a8.75,8.75,0,0,0,1.071-1.38,2.222,2.222,0,0,0,.347-1.121,1.661,1.661,0,0,0-.366-1.137,1.32,1.32,0,0,0-1.044-.415,1.426,1.426,0,0,0-1.154.5,2,2,0,0,0-.421,1.324h-2.164a3.564,3.564,0,0,1,.474-1.812,3.34,3.34,0,0,1,1.339-1.288,4.072,4.072,0,0,1,1.963-.467,3.863,3.863,0,0,1,2.608.806,2.854,2.854,0,0,1,.929,2.277,3.664,3.664,0,0,1-.418,1.643,9.124,9.124,0,0,1-1.434,1.948l-2.47,2.6h4.672Z" transform="translate(-2284.835 -5493.58)" fill="#344154"/>
            <path id="Path_103207" data-name="Path 103207" d="M2320.264,5500.1a5.5,5.5,0,0,1-.934,3.447,3.727,3.727,0,0,1-5.448.024,5.35,5.35,0,0,1-.963-3.358v-2a5.435,5.435,0,0,1,.944-3.456,3.735,3.735,0,0,1,5.437-.011,5.331,5.331,0,0,1,.963,3.354Zm-2.157-2.2a3.979,3.979,0,0,0-.37-1.968,1.249,1.249,0,0,0-1.153-.616,1.225,1.225,0,0,0-1.124.586,3.729,3.729,0,0,0-.385,1.834v2.644a4.179,4.179,0,0,0,.363,1.976,1.232,1.232,0,0,0,1.16.647,1.21,1.21,0,0,0,1.142-.62,4.073,4.073,0,0,0,.366-1.9Z" transform="translate(-2286.426 -5493.58)" fill="#344154"/>
          </g>
          <g id="Group_59368" data-name="Group 59368" transform="translate(12.374 136.951)">
            <path id="Path_103208" data-name="Path 103208" d="M2229.109,5579.6h-7.448v-1.478l3.514-3.747a8.587,8.587,0,0,0,1.071-1.381,2.216,2.216,0,0,0,.347-1.12,1.657,1.657,0,0,0-.366-1.138,1.321,1.321,0,0,0-1.044-.415,1.426,1.426,0,0,0-1.153.5,2,2,0,0,0-.421,1.326h-2.164a3.561,3.561,0,0,1,.474-1.814,3.343,3.343,0,0,1,1.339-1.288,4.068,4.068,0,0,1,1.963-.467,3.856,3.856,0,0,1,2.608.807,2.852,2.852,0,0,1,.929,2.276,3.649,3.649,0,0,1-.418,1.642,9.122,9.122,0,0,1-1.433,1.948l-2.47,2.6h4.672Z" transform="translate(-2221.444 -5568.585)" fill="#344154"/>
            <path id="Path_103209" data-name="Path 103209" d="M2239.334,5575.108a5.5,5.5,0,0,1-.933,3.448,3.728,3.728,0,0,1-5.448.022,5.341,5.341,0,0,1-.962-3.358v-2a5.431,5.431,0,0,1,.944-3.455,3.734,3.734,0,0,1,5.437-.011,5.328,5.328,0,0,1,.963,3.355Zm-2.156-2.2a3.978,3.978,0,0,0-.37-1.968,1.25,1.25,0,0,0-1.153-.617,1.226,1.226,0,0,0-1.124.587,3.727,3.727,0,0,0-.384,1.834v2.645a4.179,4.179,0,0,0,.362,1.976,1.231,1.231,0,0,0,1.16.646,1.21,1.21,0,0,0,1.141-.62,4.075,4.075,0,0,0,.366-1.9Z" transform="translate(-2223.035 -5568.585)" fill="#344154"/>
            <path id="Path_103210" data-name="Path 103210" d="M2247.683,5579.625h-2.157v-8.314l-2.574.8v-1.753l4.5-1.611h.232Z" transform="translate(-2224.689 -5568.609)" fill="#344154"/>
            <path id="Path_103211" data-name="Path 103211" d="M2257.708,5575.257a2.722,2.722,0,0,1-1.97.828,2.914,2.914,0,0,1-2.306-.988,3.912,3.912,0,0,1-.865-2.668,4.163,4.163,0,0,1,.466-1.958,3.42,3.42,0,0,1,1.3-1.389,3.605,3.605,0,0,1,1.881-.5,3.457,3.457,0,0,1,1.91.538,3.534,3.534,0,0,1,1.3,1.545,5.554,5.554,0,0,1,.47,2.306v.8a6.288,6.288,0,0,1-1.351,4.269,5.11,5.11,0,0,1-3.829,1.656l-.53.008v-1.8l.477-.007Q2257.476,5577.773,2257.708,5575.257Zm-1.44-.821a1.508,1.508,0,0,0,.9-.269,1.8,1.8,0,0,0,.572-.649v-.888a2.962,2.962,0,0,0-.419-1.7,1.3,1.3,0,0,0-1.119-.6,1.259,1.259,0,0,0-1.067.594,2.524,2.524,0,0,0-.418,1.489,2.462,2.462,0,0,0,.407,1.46A1.326,1.326,0,0,0,2256.268,5574.437Z" transform="translate(-2226.139 -5568.585)" fill="#344154"/>
          </g>
          <g id="Group_59369" data-name="Group 59369" transform="translate(12.36 201.186)">
            <path id="Path_103212" data-name="Path 103212" d="M2229.093,5655.247h-7.449v-1.478l3.515-3.747a8.582,8.582,0,0,0,1.071-1.38,2.215,2.215,0,0,0,.347-1.119,1.661,1.661,0,0,0-.366-1.138,1.315,1.315,0,0,0-1.044-.415,1.427,1.427,0,0,0-1.154.5,2,2,0,0,0-.422,1.324h-2.164a3.566,3.566,0,0,1,.474-1.813,3.347,3.347,0,0,1,1.339-1.288,4.082,4.082,0,0,1,1.963-.466,3.856,3.856,0,0,1,2.609.806,2.855,2.855,0,0,1,.929,2.277,3.651,3.651,0,0,1-.418,1.641,9.1,9.1,0,0,1-1.433,1.948l-2.47,2.6h4.672Z" transform="translate(-2221.428 -5644.23)" fill="#344154"/>
            <path id="Path_103213" data-name="Path 103213" d="M2239.319,5650.754a5.494,5.494,0,0,1-.934,3.447,3.729,3.729,0,0,1-5.448.023,5.347,5.347,0,0,1-.963-3.359v-2a5.427,5.427,0,0,1,.944-3.454,3.734,3.734,0,0,1,5.437-.013,5.332,5.332,0,0,1,.963,3.355Zm-2.157-2.2a3.978,3.978,0,0,0-.37-1.969,1.249,1.249,0,0,0-1.153-.616,1.225,1.225,0,0,0-1.123.586,3.734,3.734,0,0,0-.385,1.834v2.645a4.184,4.184,0,0,0,.363,1.977,1.232,1.232,0,0,0,1.16.646,1.212,1.212,0,0,0,1.142-.621,4.066,4.066,0,0,0,.366-1.9Z" transform="translate(-2223.019 -5644.23)" fill="#344154"/>
            <path id="Path_103214" data-name="Path 103214" d="M2247.667,5655.271h-2.157v-8.313l-2.575.8V5646l4.5-1.612h.232Z" transform="translate(-2224.672 -5644.255)" fill="#344154"/>
            <path id="Path_103215" data-name="Path 103215" d="M2259.742,5647.269a2.53,2.53,0,0,1-.4,1.4,2.848,2.848,0,0,1-1.089.978,3.15,3.15,0,0,1,1.253,1.048,2.687,2.687,0,0,1,.463,1.572,2.85,2.85,0,0,1-.986,2.287,4.7,4.7,0,0,1-5.365,0,2.838,2.838,0,0,1-.993-2.283,2.7,2.7,0,0,1,.463-1.576,3.088,3.088,0,0,1,1.246-1.044,2.813,2.813,0,0,1-1.085-.978,2.54,2.54,0,0,1-.392-1.4,2.816,2.816,0,0,1,.926-2.213,4.255,4.255,0,0,1,5.026-.007A2.805,2.805,0,0,1,2259.742,5647.269Zm-1.934,4.843a1.568,1.568,0,0,0-.41-1.134,1.643,1.643,0,0,0-2.2,0,1.771,1.771,0,0,0-.008,2.258,1.683,1.683,0,0,0,2.22.015A1.557,1.557,0,0,0,2257.808,5652.112Zm-.223-4.738a1.5,1.5,0,0,0-.336-1.02,1.367,1.367,0,0,0-1.888-.011,1.484,1.484,0,0,0-.336,1.031,1.562,1.562,0,0,0,.336,1.045,1.332,1.332,0,0,0,1.892,0A1.578,1.578,0,0,0,2257.585,5647.374Z" transform="translate(-2226.135 -5644.23)" fill="#344154"/>
          </g>
        </g>
      </g>
      <g id="freepik--speech-bubble--inject-46" transform="translate(276.888 73.805)">
        <path id="Path_103216" data-name="Path 103216" d="M2431.5,5358.423a2.819,2.819,0,1,1-2.819-2.819,2.819,2.819,0,0,1,2.819,2.819Z" transform="translate(-2425.648 -5315.486)" fill="#fff"/>
        <path id="Path_103217" data-name="Path 103217" d="M2431.463,5358.4a6.073,6.073,0,0,0-.17-.662,2.838,2.838,0,0,0-1.036-1.452,2.673,2.673,0,0,0-2.5-.34,2.625,2.625,0,0,0,0,4.917,2.674,2.674,0,0,0,2.5-.34,2.831,2.831,0,0,0,1.036-1.452c.127-.416.136-.671.17-.671a1.3,1.3,0,0,1,0,.714,2.8,2.8,0,0,1-1.019,1.7,2.945,2.945,0,0,1-2.828.475,3.014,3.014,0,0,1,0-5.681,2.922,2.922,0,0,1,2.828.475,2.805,2.805,0,0,1,1.019,1.7A1.014,1.014,0,0,1,2431.463,5358.4Z" transform="translate(-2425.611 -5315.461)" fill="#263238"/>
        <ellipse id="Ellipse_4026" data-name="Ellipse 4026" cx="23.326" cy="23.326" rx="23.326" ry="23.326" transform="translate(6.973 0.165)" fill="#fff"/>
        <path id="Path_103218" data-name="Path 103218" d="M2480.436,5331.852a1.907,1.907,0,0,1-.042-.374l-.085-1.112a8.244,8.244,0,0,0-.051-.849,7.455,7.455,0,0,0-.144-.968,17.569,17.569,0,0,0-.493-2.4,22.449,22.449,0,0,0-2.547-6.173,23.166,23.166,0,0,0-27.81-9.876,25.036,25.036,0,0,0-3.015,1.325c-.484.272-.951.578-1.435.849a11.714,11.714,0,0,0-1.4.96,25.977,25.977,0,0,0-2.658,2.3,25.525,25.525,0,0,0-2.267,2.675,22.476,22.476,0,0,0-3.3,6.369,22.969,22.969,0,0,0,0,14.588,22.269,22.269,0,0,0,3.3,6.369,25.431,25.431,0,0,0,2.267,2.675,25.852,25.852,0,0,0,2.615,2.233,11.724,11.724,0,0,0,1.4.959c.484.289.951.6,1.435.849a24.764,24.764,0,0,0,3.015,1.325,23.112,23.112,0,0,0,27.776-9.867,22.557,22.557,0,0,0,2.547-6.182,17.539,17.539,0,0,0,.493-2.4c.051-.349.119-.671.144-.968s.042-.569.051-.85l.085-1.1a1.957,1.957,0,0,1,.042-.382v2.344a8.471,8.471,0,0,1-.127.985,16.179,16.179,0,0,1-.459,2.42,21.95,21.95,0,0,1-2.548,6.258,23.4,23.4,0,0,1-28.157,10.131,24.618,24.618,0,0,1-3.074-1.342c-.5-.272-.977-.586-1.469-.849a12.464,12.464,0,0,1-1.418-.977,26.038,26.038,0,0,1-2.675-2.268,25.5,25.5,0,0,1-2.31-2.726,22.57,22.57,0,0,1-3.4-6.487,23.347,23.347,0,0,1,0-14.86,22.8,22.8,0,0,1,3.4-6.488,27.669,27.669,0,0,1,2.31-2.726,26.1,26.1,0,0,1,2.692-2.25,12.577,12.577,0,0,1,1.418-.977c.492-.289.977-.6,1.469-.849a25.736,25.736,0,0,1,3.074-1.341,23.193,23.193,0,0,1,28.157,10.045,21.994,21.994,0,0,1,2.548,6.259,16.139,16.139,0,0,1,.458,2.428c.042.348.1.68.127.977s0,.577,0,.85v1.112A.8.8,0,0,0,2480.436,5331.852Z" transform="translate(-2426.802 -5308.36)" fill="#263238"/>
        <path id="Path_103219" data-name="Path 103219" d="M2458.557,5339.2a7.065,7.065,0,1,1,7.065-7.064,7.065,7.065,0,0,1-7.065,7.064Zm0-13.272a6.216,6.216,0,1,0,6.216,6.216v-.008A6.215,6.215,0,0,0,2458.557,5325.933Z" transform="translate(-2429.515 -5310.882)" fill="#6595bf"/>
        <rect id="Rectangle_5539" data-name="Rectangle 5539" width="0.849" height="6.887" transform="translate(32.379 27.052) rotate(-35.98)" fill="#6595bf"/>
        <path id="Path_103220" data-name="Path 103220" d="M2455.7,5330.325a4.068,4.068,0,0,0,.7,5.709,3.934,3.934,0,0,0,.517.345" transform="translate(-2430.018 -5311.674)" fill="#fff"/>
        <path id="Path_103221" data-name="Path 103221" d="M2456.873,5336.375a2.245,2.245,0,0,1-.926-.5,3.942,3.942,0,0,1-.977-4.73,1.945,1.945,0,0,1,.663-.849c.042,0-.17.374-.374.951a4.384,4.384,0,0,0-.178,2.318,4.44,4.44,0,0,0,1.078,2.064C2456.6,5336.095,2456.932,5336.307,2456.873,5336.375Z" transform="translate(-2429.979 -5311.67)" fill="#263238"/>
      </g>
      <g id="freepik--Character--inject-46" transform="translate(145.466 93.331)">
        <path id="Path_103222" data-name="Path 103222" d="M2421.149,5412.168c-1.265-22.74-11.429-33.312-14.436-51.084-1.495-8.925-1.112-18.062-7.438-24.524-2.276-2.327-6.521-4.721-9.757-5.095a12.963,12.963,0,0,0-6.122.6c-3-.441-4.339-.586-6.454,0a17.4,17.4,0,0,0-7.6,4.628c-4.509,5.5-5.435,13.068-5.511,20.185a118.545,118.545,0,0,0,4.747,34.017,4.771,4.771,0,0,0,1.588,2.794,4.671,4.671,0,0,0,3.4.348,67.812,67.812,0,0,0,12.839-3.346,4.292,4.292,0,0,0,1.63-.849c1.146-1.172.662-3.107.136-4.662l11.523-9.859c-.764,6.861-2.972,13.476-3.948,20.3a57.489,57.489,0,0,0,1.868,24.422,37.148,37.148,0,0,1,13.586-.306c1.079.17,2.836,8.721,3.8,8.186C2416.657,5426.986,2421.26,5414.1,2421.149,5412.168Z" transform="translate(-2284.869 -5331.355)" fill="#263238"/>
        <path id="Path_103223" data-name="Path 103223" d="M2380.941,5337.849l3.269-.365,12.482,5.027a3.49,3.49,0,0,1,3.295,3.4l-.11,40.683a11.4,11.4,0,0,1-2.2,7.345l-1.758,2.318a9.21,9.21,0,0,1-15.387-.977,4.6,4.6,0,0,1-.441-1.053,7.024,7.024,0,0,1-.187-.909,28.954,28.954,0,0,1-.391-6.1c-.221-3.6-.3-5.1-.3-5.036s-7.642-.849-9.714-10.7c-1.028-4.883-1.189-12.967-1.1-19.582C2368.475,5345.925,2373.587,5337.841,2380.941,5337.849Z" transform="translate(-2285.556 -5332.28)" fill="#ffbe9d"/>
        <path id="Path_103224" data-name="Path 103224" d="M2371.192,5363.33a1.291,1.291,0,0,0,1.291,1.223,1.214,1.214,0,0,0,1.248-1.179v-.035a1.272,1.272,0,0,0-1.282-1.222,1.222,1.222,0,0,0-1.256,1.188Z" transform="translate(-2285.98 -5335.996)" fill="#263238"/>
        <path id="Path_103225" data-name="Path 103225" d="M2386.152,5362.391a1.266,1.266,0,0,0,1.291,1.223,1.215,1.215,0,0,0,1.248-1.18v-.025a1.265,1.265,0,0,0-1.282-1.223,1.214,1.214,0,0,0-1.256,1.171Z" transform="translate(-2288.237 -5335.855)" fill="#263238"/>
        <path id="Path_103226" data-name="Path 103226" d="M2370.638,5358.984c.161.162,1.087-.6,2.454-.663s2.4.561,2.548.391-.1-.373-.552-.662a3.52,3.52,0,0,0-2.047-.526,3.409,3.409,0,0,0-1.945.739C2370.68,5358.611,2370.553,5358.917,2370.638,5358.984Z" transform="translate(-2285.892 -5335.302)" fill="#263238"/>
        <path id="Path_103227" data-name="Path 103227" d="M2385.9,5358.14c.17.153,1.07-.628,2.437-.739s2.411.5,2.547.323-.11-.365-.577-.645a3.455,3.455,0,0,0-3.983.331C2385.932,5357.767,2385.813,5358.072,2385.9,5358.14Z" transform="translate(-2288.194 -5335.163)" fill="#263238"/>
        <path id="Path_103228" data-name="Path 103228" d="M2380.714,5368.929a9.43,9.43,0,0,0-2.242-.288c-.348,0-.679-.068-.748-.306a1.707,1.707,0,0,1,.178-1.045c.289-.849.586-1.757.9-2.708,1.24-3.846,2.123-7.005,1.961-7.056s-1.282,3.031-2.547,6.886l-.85,2.718a2,2,0,0,0-.119,1.384.85.85,0,0,0,.6.475,2.137,2.137,0,0,0,.595.051A8.227,8.227,0,0,0,2380.714,5368.929Z" transform="translate(-2286.883 -5335.303)" fill="#263238"/>
        <path id="Path_103229" data-name="Path 103229" d="M2381.182,5389.3a25.247,25.247,0,0,0,13.077-4.2s-2.989,7.015-12.941,6.582Z" transform="translate(-2287.487 -5339.463)" fill="#eb996e"/>
        <path id="Path_103230" data-name="Path 103230" d="M2382.194,5374.622a2.463,2.463,0,0,1,2.166-1.027,2.221,2.221,0,0,1,1.588.755,1.41,1.41,0,0,1,.2,1.622,1.7,1.7,0,0,1-1.767.544,5.117,5.117,0,0,1-1.8-.96,1.352,1.352,0,0,1-.408-.382.45.45,0,0,1,0-.509" transform="translate(-2287.624 -5337.727)" fill="#eb996e"/>
        <path id="Path_103231" data-name="Path 103231" d="M2385.392,5371.806c-.221,0-.153,1.477-1.367,2.6s-2.8,1.027-2.8,1.24.365.272,1.036.255a3.71,3.71,0,0,0,2.344-.951,3.212,3.212,0,0,0,1.044-2.174C2385.672,5372.179,2385.519,5371.806,2385.392,5371.806Z" transform="translate(-2287.493 -5337.458)" fill="#263238"/>
        <path id="Path_103232" data-name="Path 103232" d="M2385.9,5352.284c.2.332,1.342-.127,2.769-.28s2.657,0,2.76-.374c.042-.169-.229-.467-.773-.7a4.246,4.246,0,0,0-2.182-.3,4.142,4.142,0,0,0-2.03.79C2385.991,5351.775,2385.8,5352.123,2385.9,5352.284Z" transform="translate(-2288.195 -5334.257)" fill="#263238"/>
        <path id="Path_103233" data-name="Path 103233" d="M2370.276,5352.872c.255.306,1.18-.067,2.309-.136s2.1.1,2.31-.237c.085-.162-.084-.459-.518-.739a3.381,3.381,0,0,0-3.719.306C2370.276,5352.405,2370.174,5352.728,2370.276,5352.872Z" transform="translate(-2285.836 -5334.369)" fill="#263238"/>
        <path id="Path_103234" data-name="Path 103234" d="M2403.282,5366.523c0-.73.73-2.547,1.452-2.667,1.928-.4,5.443-.416,5.723,4.518.382,6.742-6.47,5.732-6.5,5.544S2403.435,5369.07,2403.282,5366.523Z" transform="translate(-2290.821 -5336.234)" fill="#ffbe9d"/>
        <path id="Path_103235" data-name="Path 103235" d="M2406.381,5371.622a1.844,1.844,0,0,0,.323.153,1.14,1.14,0,0,0,.849,0,2.932,2.932,0,0,0,1.2-2.692,3.809,3.809,0,0,0-.424-1.7,1.376,1.376,0,0,0-.935-.849.613.613,0,0,0-.679.365c-.077.2,0,.323-.06.34s-.153-.11-.119-.391a.763.763,0,0,1,.247-.433.852.852,0,0,1,.637-.212,1.7,1.7,0,0,1,1.291.977,3.988,3.988,0,0,1,.509,1.86c0,1.359-.585,2.674-1.545,3.006a1.238,1.238,0,0,1-1.087-.119C2406.4,5371.809,2406.355,5371.64,2406.381,5371.622Z" transform="translate(-2291.287 -5336.612)" fill="#eb996e"/>
        <path id="Path_103236" data-name="Path 103236" d="M2401.3,5352.02c.476-2.691-.535-6.462-1.231-9.086a9.868,9.868,0,0,0-4.042-5.307,16.448,16.448,0,0,0-10.19-3.073l-1.35.441c-2-.162-4.126.263-5.222,1.876h0v-1.809a13.348,13.348,0,0,0-8.907,5.842,31.554,31.554,0,0,0-4.246,10.054,110.927,110.927,0,0,0,13.009-13.1c3.9,5.094,9.672,8.373,14.937,12.185a19.619,19.619,0,0,1,1.163,7.745c0,6.623,1.4,12.61,1.919,19.225.3,3.812.271,7.073,4.169,6.742C2401.811,5371.542,2399.2,5364.018,2401.3,5352.02Z" transform="translate(-2285.214 -5331.835)" fill="#263238"/>
        <path id="Path_103237" data-name="Path 103237" d="M2410.54,5354.164a6.347,6.347,0,0,1-1.876.34,18.168,18.168,0,0,1-4.586-.178,21.7,21.7,0,0,1-4.407-1.274,6.81,6.81,0,0,1-1.7-.849c.059-.144,2.7,1.086,6.182,1.7A36.044,36.044,0,0,0,2410.54,5354.164Z" transform="translate(-2290.02 -5334.499)" fill="#455a64"/>
        <path id="Path_103238" data-name="Path 103238" d="M2407.1,5348.447a5.914,5.914,0,0,1-1.079-.068c-.7-.067-1.7-.211-2.912-.441a49.749,49.749,0,0,1-17.909-7.26c-1.027-.687-1.851-1.282-2.395-1.7a4.634,4.634,0,0,1-.849-.706,5.474,5.474,0,0,1,.917.569c.577.391,1.418.934,2.463,1.588a56.988,56.988,0,0,0,17.8,7.218c1.206.263,2.191.458,2.879.578A4.511,4.511,0,0,1,2407.1,5348.447Z" transform="translate(-2287.604 -5332.398)" fill="#455a64"/>
        <path id="Path_103239" data-name="Path 103239" d="M2367.745,5351.174a6.558,6.558,0,0,1-1.554,1.809,6.668,6.668,0,0,1-1.86,1.5c-.085-.094.611-.9,1.554-1.817A6.588,6.588,0,0,1,2367.745,5351.174Z" transform="translate(-2284.944 -5334.345)" fill="#455a64"/>
        <path id="Path_103240" data-name="Path 103240" d="M2368.658,5402.725c.756-1.316.187-6.7.187-6.7l-1.75,3.15c-3.693,1.435-8.771,3.482-10.189,4.484-2.131,1.495-5.019,7.795-5.019,7.795l-17.832,22.57-33.329-5.842-3.133,16.737,11.259,2.335,19.8,2.547c5.562,1.2,10.971,1.639,15.285-2.012l.3-.577c-1.571,22.5.594,47.314,1.333,69.851a12.207,12.207,0,0,0,.942,5.163c1.138,2.225,5.35,3.4,7.821,3.065s1.7-1.911,2.216-4.348c.289-1.333-.959-3.184-1.121-4.534q-3.642-29.38-7.277-58.752c-.076-1.206-.161-2.327-.246-3.32-.849-10.351-.977-13.145-.518-17.883C2348.1,5429.142,2363.563,5411.615,2368.658,5402.725Z" transform="translate(-2274.878 -5341.111)" fill="#ef9548"/>
        <path id="Path_103241" data-name="Path 103241" d="M2358.069,5421.135a5.123,5.123,0,0,1-.51,1.019c-.356.629-.849,1.563-1.4,2.735a46.18,46.18,0,0,0-4.594,19.607c0,1.3,0,2.352.042,3.074a4.9,4.9,0,0,1,0,1.138,6.462,6.462,0,0,1-.17-1.121,30.79,30.79,0,0,1-.187-3.091,41.961,41.961,0,0,1,1.1-10.19,42.39,42.39,0,0,1,3.532-9.586,30.209,30.209,0,0,1,1.537-2.692A5.892,5.892,0,0,1,2358.069,5421.135Z" transform="translate(-2282.971 -5344.898)" fill="#263238"/>
        <g id="Group_59371" data-name="Group 59371" transform="translate(65.966 80.134)" opacity="0.3">
          <path id="Path_103242" data-name="Path 103242" d="M2355.333,5425.725a39.308,39.308,0,0,0-6.148,12.253c-1.146,4.45-.424,6.973-.527,11.642l2.675.6C2350.739,5441.851,2351.019,5436.323,2355.333,5425.725Z" transform="translate(-2348.527 -5425.725)" fill="#344154"/>
        </g>
        <path id="Path_103243" data-name="Path 103243" d="M2355.39,5434.059a1.738,1.738,0,0,1,0-.442c.051-.279.076-.713.2-1.248a35.882,35.882,0,0,1,1.367-4.441A130.609,130.609,0,0,1,2363.3,5414c.781-1.512,1.554-2.972,2.318-4.365l.059-.11h.128l2.81-.052-.187.289a2.8,2.8,0,0,0-1.1-1.231l-.195-.128.153-.17a64.332,64.332,0,0,1,6.029-6.334c.781-.714,1.418-1.257,1.859-1.623a4.3,4.3,0,0,1,.7-.535,4.26,4.26,0,0,1-.62.628l-1.783,1.7a76.969,76.969,0,0,0-5.885,6.4l-.051-.289a3.159,3.159,0,0,1,1.257,1.4l.136.28h-.314l-2.81.076.178-.11c-.748,1.384-1.52,2.845-2.3,4.356-2.726,5.308-5.027,10.19-6.437,13.833a42.077,42.077,0,0,0-1.486,4.374A14.461,14.461,0,0,1,2355.39,5434.059Z" transform="translate(-2283.594 -5341.672)" fill="#263238"/>
        <path id="Path_103244" data-name="Path 103244" d="M2394.977,5676.443l10.946,17.62s-14.232,17.051-12.525,20.5l34.934-20-15.972-28.158Z" transform="translate(-2289.308 -5381.898)" fill="#ef9548"/>
        <path id="Path_103245" data-name="Path 103245" d="M2419.626,5689.907a1.639,1.639,0,0,1,1.919,1.062,1.579,1.579,0,0,1-1.036,1.91,1.7,1.7,0,0,1-2.021-1.138,1.631,1.631,0,0,1,1.3-1.868" transform="translate(-2293.111 -5385.437)" fill="#e0e0e0"/>
        <g id="Group_59372" data-name="Group 59372" transform="translate(103.772 309.888)" opacity="0.6">
          <path id="Path_103246" data-name="Path 103246" d="M2428.265,5699.072l-1.7-2.777-32.87,20.218s-1.172,1.563-.365,2.547Z" transform="translate(-2393.048 -5696.295)" fill="#fff"/>
        </g>
        <path id="Path_103247" data-name="Path 103247" d="M2407.35,5698.992c.1.17,1-.237,2.148-.169s2.012.526,2.132.365-.7-.994-2.1-1.053S2407.223,5698.856,2407.35,5698.992Z" transform="translate(-2291.433 -5386.684)" fill="#263238"/>
        <path id="Path_103248" data-name="Path 103248" d="M2404.051,5703.336c.06.187.959.051,1.953.441s1.6,1.062,1.766.952-.28-1.13-1.52-1.588S2403.966,5703.167,2404.051,5703.336Z" transform="translate(-2290.935 -5387.41)" fill="#263238"/>
        <path id="Path_103249" data-name="Path 103249" d="M2404.025,5709.578c.178-.06-.076-1.044-1.044-1.7s-1.987-.6-1.979-.416.79.4,1.579.968S2403.847,5709.654,2404.025,5709.578Z" transform="translate(-2290.477 -5388.073)" fill="#263238"/>
        <path id="Path_103250" data-name="Path 103250" d="M2404.927,5693.721c.162.11.849-.569,1.809-1.054s1.927-.62,1.936-.849-1.062-.391-2.234.195S2404.766,5693.635,2404.927,5693.721Z" transform="translate(-2291.065 -5385.7)" fill="#263238"/>
        <path id="Path_103251" data-name="Path 103251" d="M2393.544,5686.659l1.181,20.719s-20.66,8.152-20.813,12l40.241-.849-.51-32.353Z" transform="translate(-2286.39 -5384.88)" fill="#ef9548"/>
        <path id="Path_103252" data-name="Path 103252" d="M2412.693,5708.8a1.7,1.7,0,0,1,1.18,1.86,1.587,1.587,0,0,1-1.826,1.18,1.748,1.748,0,0,1-1.24-1.97,1.648,1.648,0,0,1,2.038-1.019" transform="translate(-2291.953 -5388.29)" fill="#e0e0e0"/>
        <g id="Group_59373" data-name="Group 59373" transform="translate(87.501 330.395)" opacity="0.6">
          <path id="Path_103253" data-name="Path 103253" d="M2414.133,5723.706l-.178-3.261-38.5,2s-1.774.849-1.545,2.071Z" transform="translate(-2373.888 -5720.445)" fill="#fff"/>
        </g>
        <path id="Path_103254" data-name="Path 103254" d="M2397.652,5710.878c0,.2.994.263,1.97.849s1.511,1.427,1.7,1.35-.136-1.214-1.333-1.936S2397.6,5710.7,2397.652,5710.878Z" transform="translate(-2289.971 -5388.575)" fill="#263238"/>
        <path id="Path_103255" data-name="Path 103255" d="M2392.722,5713.062c-.042.2.849.509,1.5,1.325s.892,1.7,1.087,1.7.3-1.129-.569-2.123S2392.722,5712.875,2392.722,5713.062Z" transform="translate(-2289.227 -5388.924)" fill="#263238"/>
        <path id="Path_103256" data-name="Path 103256" d="M2389.731,5718.489c.178.042.433-.951-.093-2.012s-1.461-1.478-1.537-1.308.5.722.917,1.6S2389.536,5718.472,2389.731,5718.489Z" transform="translate(-2288.529 -5389.249)" fill="#263238"/>
        <path id="Path_103257" data-name="Path 103257" d="M2397.95,5705.192c.085.178.977-.119,2.089-.06s1.987.382,2.089.212-.748-.849-2.064-.9S2397.849,5705.04,2397.95,5705.192Z" transform="translate(-2290.015 -5387.636)" fill="#263238"/>
        <path id="Path_103258" data-name="Path 103258" d="M2361.536,5504.515s-1.851,88.15-.187,94.256,35.732,68.492,35.732,68.492l20.558-10.1-27.258-65.877,6.012-84.7Z" transform="translate(-2284.391 -5357.477)" fill="#263238"/>
        <path id="Path_103259" data-name="Path 103259" d="M2406.8,5498.715s11.82,19.3,9.731,30.875c-.849,4.747-7.328,15.285-7.328,15.285v56.494l4.993,75.438h-23.955l-10.3-66.522a54.333,54.333,0,0,1-4.993-11.37c-1.384-5.265-5.893-67.559-5.893-67.559l-7.167-25.33Z" transform="translate(-2284.577 -5356.602)" fill="#263238"/>
        <path id="Path_103260" data-name="Path 103260" d="M2420.717,5661.525a10.384,10.384,0,0,0,0,1.588c0,1.02.1,2.5.2,4.322.2,3.643.569,8.67.994,14.223s.781,10.581,1.019,14.224c.11,1.757.212,3.209.28,4.313a10.6,10.6,0,0,0,.161,1.579,8.839,8.839,0,0,0,0-1.587c0-1.019-.051-2.5-.127-4.323-.144-3.651-.45-8.687-.849-14.24s-.849-10.5-1.129-14.214c-.153-1.758-.272-3.21-.374-4.314A9.708,9.708,0,0,0,2420.717,5661.525Z" transform="translate(-2293.447 -5381.161)" fill="#455a64"/>
        <path id="Path_103261" data-name="Path 103261" d="M2407.8,5510.334a3.265,3.265,0,0,1-.645.73,14.386,14.386,0,0,1-2.055,1.7,16.383,16.383,0,0,1-16.7.984,14.405,14.405,0,0,1-2.242-1.417,3.6,3.6,0,0,1-.722-.646,33.578,33.578,0,0,0,3.1,1.775,16.889,16.889,0,0,0,16.4-1.027A33.277,33.277,0,0,0,2407.8,5510.334Z" transform="translate(-2288.128 -5358.354)" fill="#455a64"/>
        <path id="Path_103262" data-name="Path 103262" d="M2370.572,5531.225a1.328,1.328,0,0,1,0,.314c0,.229.042.526.076.909.059.849.153,2.012.263,3.523.2,3.082.51,7.5.849,12.941.765,10.921,1.7,26.026,3.184,42.662.2,2.267.433,4.509.688,6.691.144,1.1.263,2.191.5,3.218a25.427,25.427,0,0,0,1,3.041c1.478,3.982,3.057,7.744,4.568,11.259v.051c1.6,10.24,2.947,18.91,3.906,25.041l1.155,7.108c.145.806.255,1.426.34,1.876s.144.637.136.645a4.323,4.323,0,0,1-.2-.628c-.093-.425-.238-1.044-.4-1.868-.323-1.639-.747-4.042-1.274-7.091-1.044-6.1-2.446-14.758-4.059-25.023v.05c-1.528-3.515-3.116-7.277-4.611-11.268a25.678,25.678,0,0,1-1.01-3.074c-.255-1.1-.374-2.183-.518-3.278-.263-2.2-.492-4.441-.687-6.708-1.461-16.652-2.369-31.758-3.057-42.686l-.646-12.967c-.077-1.512-.136-2.692-.17-3.525v-.916A1.5,1.5,0,0,1,2370.572,5531.225Z" transform="translate(-2285.886 -5361.505)" fill="#455a64"/>
        <path id="Path_103263" data-name="Path 103263" d="M2377.224,5399.653s-.255,3.864,2.887,3.864c4.416,0,13.671-8.492,13.671-8.492l-17.832,42.56v51.51l-15.123,1.545s-1.775-.254-2.132-2.8c-.7-4.984-.6-14.07-1.18-17.832-1.8-11.633-5.333-17.968-4.832-27.172.739-13.7,20.015-37.363,20.015-37.363Z" transform="translate(-2283.181 -5340.96)" fill="#fff"/>
        <path id="Path_103264" data-name="Path 103264" d="M2397.185,5388.715a116.23,116.23,0,0,1-7.456,12.066c-3.855,5.358-28.277,42.771-28.277,42.771l9.757,75.9,1.087,6.429a3.21,3.21,0,0,0,3.69,2.643c.049-.008.1-.017.148-.027l43.137-7.583a3.913,3.913,0,0,0,3.066-5l-19.259-54.09,12.44-48.037s-.458-7-8.033-14.1c-1.444-1.35-7.4-6.284-8.381-7.642Z" transform="translate(-2284.511 -5340.009)" fill="#ef9548"/>
        <g id="Group_59374" data-name="Group 59374" transform="translate(79.311 121.785)" opacity="0.3">
          <path id="Path_103265" data-name="Path 103265" d="M2364.938,5480.388s19.861,15.752,29.525,15.9,14.69-8.042,14.69-8.042l-19.437.536-25.474-14Z" transform="translate(-2364.242 -5474.775)" fill="#344154"/>
        </g>
        <path id="Path_103266" data-name="Path 103266" d="M2347.7,5454.97s17.917,11.837,21.229,14.087,18.945,11.319,20.982,11.973,14.682.739,16.983-3.558,3.889-13.468,3.889-13.468l3.048-42.924a17.278,17.278,0,0,0-3.091-11.226c-1.851-2.615-4.3-4.976-6.946-4.577-5.647.849-17.79,14.5-17.2,21.509s.6,26.544.6,26.544l-31.988-10.589Z" transform="translate(-2282.437 -5342.5)" fill="#ef9548"/>
        <path id="Path_103267" data-name="Path 103267" d="M2410.72,5410.675a9.434,9.434,0,0,1,.586.849,15.54,15.54,0,0,1,1.359,2.607,16.963,16.963,0,0,1,1.172,4.585,35.036,35.036,0,0,1-.145,6.394c-.663,9.561-1.613,23.173-2.743,39.46h0q-.484,2.751-1.172,5.562a48.164,48.164,0,0,1-1.7,5.648,11.627,11.627,0,0,1-1.359,2.75,6.711,6.711,0,0,1-2.445,1.945,19.056,19.056,0,0,1-6.055,1.8,26.182,26.182,0,0,1-6.479.169,8.83,8.83,0,0,1-3.218-.849c-.994-.493-1.962-1.036-2.929-1.571q-5.834-3.26-11.769-6.792c-4.747-2.752-9.154-5.86-13.535-8.721l-12.738-8.492-.17-.11.11-.17,7.532-12.432.085-.136.153.051,31.945,10.818-.187.126c.654-7.973,1.172-14.325,1.529-18.681.187-2.165.331-3.838.433-4.985.051-.551.085-.984.119-1.282s.051-.441.051-.441v.441c0,.29-.051.731-.085,1.291-.085,1.147-.2,2.829-.356,4.994-.323,4.373-.8,10.716-1.4,18.682v.187l-.178-.06-32-10.742.238-.085-7.523,12.44-.059-.28,12.737,8.449c4.4,2.87,8.78,5.944,13.51,8.7q5.945,3.541,11.761,6.793c.968.535,1.936,1.07,2.913,1.562a8.476,8.476,0,0,0,3.074.849,25.746,25.746,0,0,0,6.369-.16,18.774,18.774,0,0,0,5.944-1.741,6.468,6.468,0,0,0,2.31-1.825,11.135,11.135,0,0,0,1.308-2.649,47.461,47.461,0,0,0,1.7-5.6c.467-1.86.849-3.711,1.18-5.52h0c1.2-16.278,2.191-29.89,2.9-39.452a35.1,35.1,0,0,0,.2-6.359,16.817,16.817,0,0,0-1.1-4.561,17.143,17.143,0,0,0-1.3-2.616c-.169-.288-.314-.493-.4-.636Z" transform="translate(-2282.388 -5343.321)" fill="#263238"/>
        <path id="Path_103268" data-name="Path 103268" d="M2367.862,5435.725a3.26,3.26,0,0,1,.39-.45c.289-.323.679-.739,1.155-1.257l4.246-4.611,6.377-6.793c2.438-2.547,5.044-5.383,8.126-8.083v.323l-.255-.29-2.156-2.386-.357-.4h.535l3.991.2-.2.11,8.033-13.985,2.378-4.059.654-1.078c.153-.247.238-.375.255-.366a2.653,2.653,0,0,1-.187.4c-.153.289-.348.663-.594,1.112l-2.267,4.127-7.906,14.062-.068.11h-.136l-3.991-.2.178-.365,2.149,2.386.263.288.144.162-.17.153c-3.032,2.658-5.664,5.51-8.118,8.024l-6.437,6.742c-1.834,1.92-3.329,3.465-4.373,4.518-.518.527-.926.934-1.214,1.2A2.486,2.486,0,0,1,2367.862,5435.725Z" transform="translate(-2285.478 -5340.594)" fill="#263238"/>
        <g id="Group_59375" data-name="Group 59375" transform="translate(80.95 69.214)" opacity="0.3">
          <path id="Path_103269" data-name="Path 103269" d="M2366.172,5441.159l24.294-22.9-2.072-2.267h2.072l.543-3.125-1.367,2.411-4-.2,2.361,2.157-20.184,21.339Z" transform="translate(-2366.172 -5412.865)" fill="#344154"/>
        </g>
        <path id="Path_103270" data-name="Path 103270" d="M2384.282,5515.633l.408-.1,1.24-.263,4.688-.985,16.372-3.329h.144l.077.127,4.509,7.345.17.272-.314.06-.535.1-23.878,4.483h-.119l-.042-.119-2.038-5.613c-.212-.611-.391-1.1-.518-1.469a3.618,3.618,0,0,1-.161-.5,5.059,5.059,0,0,1,.238.535c.144.374.348.85.594,1.486l2.157,5.46-.162-.094,23.844-4.627.535-.1-.144.332-4.5-7.354.221.1-16.253,3.091-4.764.849-1.291.221A3.017,3.017,0,0,1,2384.282,5515.633Z" transform="translate(-2287.955 -5358.448)" fill="#263238"/>
        <g id="Group_59376" data-name="Group 59376" transform="translate(96.557 157.908)" opacity="0.3">
          <path id="Path_103271" data-name="Path 103271" d="M2384.552,5517.316l1.724,8.907,24.727-4.458-.687-2.063-23.182,4.424Z" transform="translate(-2384.552 -5517.316)" fill="#344154"/>
        </g>
        <path id="Path_103272" data-name="Path 103272" d="M2400.411,5469.384c-.128.059-1.155-1.979-3-4.059s-3.728-3.4-3.651-3.49A14.925,14.925,0,0,1,2400.411,5469.384Z" transform="translate(-2289.385 -5351.038)" fill="#263238"/>
        <path id="Path_103273" data-name="Path 103273" d="M2292.835,5437.053s-6.2-3.71-8.678-6.088c0,0-3.609-1.138-5.265,1.138,0,0-3.821,1.054-4.331,1.767s-3.719,5.663-3.719,5.663,1.7,5.9,1.86,6.2c.306.646,1,1.325,1.588.611a1.239,1.239,0,0,0,.271-.849v-.39l.926-.654s.416,2.293,1.656,1.937a21.583,21.583,0,0,0,4.025-2.419s3.923,2.233,5.987,2.461a65.076,65.076,0,0,1,6.793,1.52l2.089-11.216Z" transform="translate(-2270.842 -5346.339)" fill="#ffbe9d"/>
        <path id="Path_103274" data-name="Path 103274" d="M2274.753,5446.269a.511.511,0,0,1-.484.094,1.266,1.266,0,0,1-.849-1.02,18.313,18.313,0,0,1,0-4.313,39.5,39.5,0,0,1,.679-4.246,7.313,7.313,0,0,1,.458-1.7c.153,0-.331,2.691-.7,5.944a25.283,25.283,0,0,0-.153,4.246,1.073,1.073,0,0,0,.628.908C2274.574,5446.3,2274.744,5446.234,2274.753,5446.269Z" transform="translate(-2271.212 -5347.003)" fill="#eb996e"/>
        <path id="Path_103275" data-name="Path 103275" d="M2282.893,5436.854a4.948,4.948,0,0,1-2.929,1.359l.178-.161-.051.22a13.909,13.909,0,0,1-1.019,3.277,13.532,13.532,0,0,1,.585-3.4l.06-.213v-.145h.145A21.352,21.352,0,0,0,2282.893,5436.854Z" transform="translate(-2272.084 -5347.27)" fill="#eb996e"/>
        <path id="Path_103276" data-name="Path 103276" d="M2287.464,5437.638a3.048,3.048,0,0,0-3.4-.7l-.645.849-4.891,4.076a7.519,7.519,0,0,0-2.191,2.471,2.547,2.547,0,0,0,.509,3.04c1,.764,2.488.332,3.465-.458s1.7-1.894,2.7-2.632c1.579-1.163,3.872-1.477,4.84-3.176A3.046,3.046,0,0,0,2287.464,5437.638Z" transform="translate(-2271.628 -5347.247)" fill="#ffbe9d"/>
        <path id="Path_103277" data-name="Path 103277" d="M2283.692,5435.956a2.7,2.7,0,0,1-.433,1.774,6.586,6.586,0,0,1-1.231,1.588,16.076,16.076,0,0,1-1.911,1.486,11.9,11.9,0,0,0-3.235,2.777,10.573,10.573,0,0,0-.849,1.562,2.868,2.868,0,0,1,.569-1.74,7.331,7.331,0,0,1,1.308-1.512,20.638,20.638,0,0,1,1.936-1.452,17.014,17.014,0,0,0,1.885-1.426,6.8,6.8,0,0,0,1.24-1.435A8.71,8.71,0,0,0,2283.692,5435.956Z" transform="translate(-2271.625 -5347.135)" fill="#eb996e"/>
        <path id="Path_103278" data-name="Path 103278" d="M2314.022,5456.924s.178-6.08,1.7-7.889,10.546-4.11,10.546-4.11l22.622,5.248-5.256,8.491-1.588-1.494s-7.116,2.14-10.631,1.367a39.94,39.94,0,0,1-6.131-1.826l-3.685.254s-2.658,2.752-3.515,2.752-1.8-.773-1.376-1.631l-.764-1.291S2314.37,5457.7,2314.022,5456.924Z" transform="translate(-2277.356 -5348.487)" fill="#ffbe9d"/>
        <path id="Path_103279" data-name="Path 103279" d="M2326.369,5454.063a3.78,3.78,0,0,1-1.613.551,27.767,27.767,0,0,0-3.948.773,5.513,5.513,0,0,0-2.836,2.6,9.452,9.452,0,0,1-.849,1.452,4.729,4.729,0,0,1,.577-1.6,6.793,6.793,0,0,1,1.027-1.57,4.732,4.732,0,0,1,1.928-1.3,18.887,18.887,0,0,1,4.05-.67C2325.75,5454.19,2326.344,5454,2326.369,5454.063Z" transform="translate(-2277.823 -5349.865)" fill="#eb996e"/>
        <path id="Path_103280" data-name="Path 103280" d="M2324.411,5448.8c0,.059-.722.178-1.843.577a18.573,18.573,0,0,0-1.919.773,9.345,9.345,0,0,0-2.14,1.274,4.939,4.939,0,0,0-.73,1.027c-.212.365-.407.722-.577,1.07a10.366,10.366,0,0,0-.739,1.919c-.3,1.138-.246,1.876-.323,1.885a3.9,3.9,0,0,1,0-1.954,9,9,0,0,1,.671-2.029c.17-.365.365-.738.577-1.112a4.963,4.963,0,0,1,.807-1.138,9.105,9.105,0,0,1,2.293-1.358,16.025,16.025,0,0,1,2-.7A4.639,4.639,0,0,1,2324.411,5448.8Z" transform="translate(-2277.657 -5349.069)" fill="#eb996e"/>
      </g>
      <text id="Enero" transform="translate(118.984 193.258)" fill="#fff" font-size="12" font-family="Roboto-Regular, Roboto"><tspan x="0" y="11">Enero</tspan></text>
      <g id="Group_76107" data-name="Group 76107" transform="translate(187.193 48.06)">
        <g id="Group_74537" data-name="Group 74537" transform="translate(0)">
          <g id="Group_74529" data-name="Group 74529">
            <g id="Group_74528" data-name="Group 74528">
              <g id="Group_74527" data-name="Group 74527">
                <path id="Path_110714" data-name="Path 110714" d="M352.981,60.842A24.318,24.318,0,1,1,325.426,40.33,24.291,24.291,0,0,1,352.981,60.842Z" transform="translate(-304.596 -40.073)" fill="#f5f5f5"/>
              </g>
            </g>
          </g>
          <g id="Group_74532" data-name="Group 74532" transform="translate(5.787 5.774)">
            <g id="Group_74531" data-name="Group 74531">
              <g id="Group_74530" data-name="Group 74530">
                <path id="Path_110715" data-name="Path 110715" d="M351.918,66.327a18.532,18.532,0,1,1-21-15.632A18.511,18.511,0,0,1,351.918,66.327Z" transform="translate(-315.046 -50.5)" fill="#ebebeb"/>
              </g>
            </g>
          </g>
          <g id="Group_74536" data-name="Group 74536" transform="translate(5.45 5.07)">
            <g id="Group_74535" data-name="Group 74535">
              <g id="Group_74534" data-name="Group 74534">
                <g id="Group_74533" data-name="Group 74533">
                  <path id="Path_110716" data-name="Path 110716" d="M351.559,65.186a10.975,10.975,0,0,1-.805-2.135,19.666,19.666,0,0,0-2.932-5.314,18.985,18.985,0,0,0-2.912-2.98,18.565,18.565,0,0,0-4.049-2.5,18.177,18.177,0,0,0-5.038-1.45,17.971,17.971,0,0,0-2.772-.162,18.125,18.125,0,0,0-5.615,1,18.035,18.035,0,0,0-2.547,1.106,18.159,18.159,0,0,0-4.231,3.1,18.534,18.534,0,0,0-2.939,3.745,18.992,18.992,0,0,0-1.709,3.8,19.679,19.679,0,0,0-.922,6,10.867,10.867,0,0,1-.021,2.281,5.443,5.443,0,0,1-.532-2.252,17.141,17.141,0,0,1,.511-6.308,18.568,18.568,0,0,1,4.684-8.184,17.97,17.97,0,0,1,2.073-1.831,18.151,18.151,0,0,1,2.428-1.568,18.85,18.85,0,0,1,2.74-1.214,19,19,0,0,1,6.056-1.075,18.957,18.957,0,0,1,2.99.2,18.887,18.887,0,0,1,5.4,1.641,18.569,18.569,0,0,1,7.216,6.071,17.156,17.156,0,0,1,2.652,5.746A5.435,5.435,0,0,1,351.559,65.186Z" transform="translate(-314.439 -49.23)" fill="#e0e0e0"/>
                </g>
              </g>
            </g>
          </g>
        </g>
        <g id="Group_74542" data-name="Group 74542" transform="translate(16.086 11.338)">
          <g id="Group_74541" data-name="Group 74541">
            <g id="Group_74540" data-name="Group 74540">
              <g id="Group_74539" data-name="Group 74539">
                <g id="Group_74538" data-name="Group 74538">
                  <path id="Path_110717" data-name="Path 110717" d="M345.544,84.113l.511,3.188-2.846.455-.5-3.1a13.658,13.658,0,0,1-7.451-1.142l1.009-3.723a11.65,11.65,0,0,0,5.845,1.137l-.761-4.753c-3.282-.262-6.979-.75-7.631-4.82-.483-3.016,1.294-5.957,5.708-7.189l-.506-3.159,2.846-.456.5,3.1a13.041,13.041,0,0,1,6.055.811l-.862,3.729a11.827,11.827,0,0,0-4.592-.784l.775,4.839c3.277.234,6.918.732,7.56,4.744C351.678,79.95,349.925,82.858,345.544,84.113ZM340.685,71.99l-.648-4.041c-1.454.583-1.919,1.5-1.769,2.444C338.428,71.388,339.368,71.793,340.685,71.99Zm5.993,6.075c-.16-1-1.071-1.4-2.364-1.636l.628,3.928C346.316,79.816,346.823,78.976,346.678,78.066Z" transform="translate(-333.646 -60.549)" fill="#e0e0e0"/>
                </g>
              </g>
            </g>
          </g>
        </g>
      </g>
      <g id="Group_76108" data-name="Group 76108" transform="translate(258.869 41.192)">
        <g id="Group_74554" data-name="Group 74554" transform="translate(0)">
          <g id="Group_74546" data-name="Group 74546">
            <g id="Group_74545" data-name="Group 74545">
              <g id="Group_74544" data-name="Group 74544">
                <path id="Path_110718" data-name="Path 110718" d="M465.825,44.662a15.915,15.915,0,1,1-14.766-16.951A15.9,15.9,0,0,1,465.825,44.662Z" transform="translate(-434.034 -27.671)" fill="#f5f5f5"/>
              </g>
            </g>
          </g>
          <g id="Group_74549" data-name="Group 74549" transform="translate(3.787 3.778)">
            <g id="Group_74548" data-name="Group 74548">
              <g id="Group_74547" data-name="Group 74547">
                <path id="Path_110719" data-name="Path 110719" d="M465.1,47.442a12.128,12.128,0,1,1-11.252-12.918A12.114,12.114,0,0,1,465.1,47.442Z" transform="translate(-440.873 -34.493)" fill="#ebebeb"/>
              </g>
            </g>
          </g>
          <g id="Group_74553" data-name="Group 74553" transform="translate(3.725 3.317)">
            <g id="Group_74552" data-name="Group 74552">
              <g id="Group_74551" data-name="Group 74551">
                <g id="Group_74550" data-name="Group 74550">
                  <path id="Path_110720" data-name="Path 110720" d="M465.073,46.692a7.145,7.145,0,0,1-.218-1.477,12.872,12.872,0,0,0-1.136-3.806,12.452,12.452,0,0,0-1.447-2.311,12.144,12.144,0,0,0-2.242-2.164,11.889,11.889,0,0,0-3.02-1.629,11.717,11.717,0,0,0-1.75-.489,11.864,11.864,0,0,0-3.729-.145,11.84,11.84,0,0,0-1.783.353,11.9,11.9,0,0,0-3.136,1.391,12.128,12.128,0,0,0-2.4,1.986,12.44,12.44,0,0,0-1.621,2.192,12.884,12.884,0,0,0-1.424,3.707,7.12,7.12,0,0,1-.331,1.455,3.563,3.563,0,0,1-.027-1.513,11.214,11.214,0,0,1,1.2-3.963,12.149,12.149,0,0,1,4.134-4.582,11.736,11.736,0,0,1,1.581-.883,11.882,11.882,0,0,1,1.77-.664,12.373,12.373,0,0,1,1.922-.395,12.408,12.408,0,0,1,4.022.156,12.469,12.469,0,0,1,1.885.542,12.383,12.383,0,0,1,3.222,1.8,12.152,12.152,0,0,1,3.77,4.887,11.227,11.227,0,0,1,.9,4.044A3.558,3.558,0,0,1,465.073,46.692Z" transform="translate(-440.76 -33.662)" fill="#e0e0e0"/>
                </g>
              </g>
            </g>
          </g>
        </g>
        <g id="Group_74559" data-name="Group 74559" transform="translate(10.286 7.492)">
          <g id="Group_74558" data-name="Group 74558">
            <g id="Group_74557" data-name="Group 74557">
              <g id="Group_74556" data-name="Group 74556">
                <g id="Group_74555" data-name="Group 74555">
                  <path id="Path_110721" data-name="Path 110721" d="M459.1,56.9l-.117,2.11L457.1,58.9l.114-2.053a8.941,8.941,0,0,1-4.605-1.767l1.163-2.24a7.624,7.624,0,0,0,3.579,1.541l.174-3.146c-2.062-.624-4.359-1.451-4.209-4.144.111-2,1.656-3.629,4.651-3.8l.116-2.091,1.883.1-.114,2.053a8.526,8.526,0,0,1,3.759,1.361l-1.07,2.264a7.743,7.743,0,0,0-2.827-1.14l-.178,3.2c2.063.605,4.322,1.431,4.175,4.086C463.6,55.091,462.078,56.706,459.1,56.9Zm-1.42-8.429.148-2.674c-1.011.171-1.436.695-1.471,1.316C456.322,47.772,456.867,48.162,457.682,48.471Zm2.987,4.719c.037-.66-.49-1.047-1.284-1.375l-.145,2.6C460.193,54.259,460.635,53.793,460.669,53.19Z" transform="translate(-452.61 -41.201)" fill="#e0e0e0"/>
                </g>
              </g>
            </g>
          </g>
        </g>
      </g>
      <g id="Group_76109" data-name="Group 76109" transform="translate(362.798 144.318)">
        <g id="Group_74608" data-name="Group 74608" transform="translate(0)">
          <g id="Group_74599" data-name="Group 74599">
            <g id="Group_74598" data-name="Group 74598">
              <g id="Group_74597" data-name="Group 74597">
                <g id="Group_74596" data-name="Group 74596">
                  <g id="Group_74595" data-name="Group 74595">
                    <g id="Group_74594" data-name="Group 74594">
                      <g id="Group_74593" data-name="Group 74593">
                        <g id="Group_74592" data-name="Group 74592">
                          <path id="Path_110727" data-name="Path 110727" d="M636.638,113.417,613.871,102.33a3.169,3.169,0,0,1-1.462-4.236l15.346-31.513a3.169,3.169,0,0,1,4.236-1.462l14.439,7.031L652,89.114l-11.123,22.842A3.169,3.169,0,0,1,636.638,113.417Z" transform="translate(-612.088 -64.798)" fill="#ebebeb"/>
                        </g>
                      </g>
                    </g>
                  </g>
                </g>
              </g>
            </g>
          </g>
          <g id="Group_74607" data-name="Group 74607" transform="translate(29.725 7.352)">
            <g id="Group_74606" data-name="Group 74606" transform="translate(0)">
              <g id="Group_74605" data-name="Group 74605">
                <g id="Group_74604" data-name="Group 74604">
                  <g id="Group_74603" data-name="Group 74603">
                    <g id="Group_74602" data-name="Group 74602">
                      <g id="Group_74601" data-name="Group 74601">
                        <g id="Group_74600" data-name="Group 74600">
                          <path id="Path_110728" data-name="Path 110728" d="M670.386,78.075l-4.319,8.869a2.947,2.947,0,0,0,1.359,3.94l8.527,4.154Z" transform="translate(-665.769 -78.075)" fill="#e0e0e0"/>
                        </g>
                      </g>
                    </g>
                  </g>
                </g>
              </g>
            </g>
          </g>
        </g>
        <g id="Group_74615" data-name="Group 74615" transform="translate(17.756 9.792)">
          <g id="Group_74614" data-name="Group 74614" transform="translate(0)">
            <g id="Group_74613" data-name="Group 74613">
              <g id="Group_74612" data-name="Group 74612">
                <g id="Group_74611" data-name="Group 74611">
                  <g id="Group_74610" data-name="Group 74610">
                    <g id="Group_74609" data-name="Group 74609">
                      <path id="Path_110729" data-name="Path 110729" d="M654.688,87.619a37.507,37.507,0,0,1-5.367-2.358,37.657,37.657,0,0,1-5.166-2.771,37.5,37.5,0,0,1,5.367,2.358A37.565,37.565,0,0,1,654.688,87.619Z" transform="translate(-644.153 -82.482)" fill="#fff"/>
                    </g>
                  </g>
                </g>
              </g>
            </g>
          </g>
        </g>
        <g id="Group_74622" data-name="Group 74622" transform="translate(15.314 14.809)">
          <g id="Group_74621" data-name="Group 74621">
            <g id="Group_74620" data-name="Group 74620">
              <g id="Group_74619" data-name="Group 74619">
                <g id="Group_74618" data-name="Group 74618">
                  <g id="Group_74617" data-name="Group 74617">
                    <g id="Group_74616" data-name="Group 74616">
                      <path id="Path_110730" data-name="Path 110730" d="M657.081,99.99c-.056.114-3.982-1.683-8.768-4.015s-8.623-4.314-8.568-4.428,3.981,1.683,8.769,4.015S657.137,99.876,657.081,99.99Z" transform="translate(-639.744 -91.543)" fill="#fff"/>
                    </g>
                  </g>
                </g>
              </g>
            </g>
          </g>
        </g>
        <g id="Group_74629" data-name="Group 74629" transform="translate(13.275 18.997)">
          <g id="Group_74628" data-name="Group 74628">
            <g id="Group_74627" data-name="Group 74627">
              <g id="Group_74626" data-name="Group 74626">
                <g id="Group_74625" data-name="Group 74625">
                  <g id="Group_74624" data-name="Group 74624">
                    <g id="Group_74623" data-name="Group 74623">
                      <path id="Path_110731" data-name="Path 110731" d="M654.96,108.313c-.056.114-4.331-1.854-9.549-4.394s-9.4-4.694-9.349-4.808,4.33,1.854,9.55,4.4S655.016,108.2,654.96,108.313Z" transform="translate(-636.062 -99.106)" fill="#fff"/>
                    </g>
                  </g>
                </g>
              </g>
            </g>
          </g>
        </g>
        <g id="Group_74636" data-name="Group 74636" transform="translate(11.352 22.948)">
          <g id="Group_74635" data-name="Group 74635">
            <g id="Group_74634" data-name="Group 74634">
              <g id="Group_74633" data-name="Group 74633">
                <g id="Group_74632" data-name="Group 74632">
                  <g id="Group_74631" data-name="Group 74631">
                    <g id="Group_74630" data-name="Group 74630">
                      <path id="Path_110732" data-name="Path 110732" d="M651.486,115.448c-.055.114-4.331-1.854-9.549-4.394s-9.4-4.694-9.348-4.808,4.33,1.853,9.549,4.4S651.542,115.334,651.486,115.448Z" transform="translate(-632.588 -106.24)" fill="#fff"/>
                    </g>
                  </g>
                </g>
              </g>
            </g>
          </g>
        </g>
        <g id="Group_74643" data-name="Group 74643" transform="translate(9.427 26.899)">
          <g id="Group_74642" data-name="Group 74642">
            <g id="Group_74641" data-name="Group 74641">
              <g id="Group_74640" data-name="Group 74640">
                <g id="Group_74639" data-name="Group 74639">
                  <g id="Group_74638" data-name="Group 74638">
                    <g id="Group_74637" data-name="Group 74637">
                      <path id="Path_110733" data-name="Path 110733" d="M648.011,122.582c-.055.114-4.331-1.854-9.549-4.394s-9.4-4.694-9.349-4.808,4.33,1.853,9.55,4.4S648.066,122.469,648.011,122.582Z" transform="translate(-629.113 -113.375)" fill="#fff"/>
                    </g>
                  </g>
                </g>
              </g>
            </g>
          </g>
        </g>
        <g id="Group_74650" data-name="Group 74650" transform="translate(7.504 30.85)">
          <g id="Group_74649" data-name="Group 74649">
            <g id="Group_74648" data-name="Group 74648">
              <g id="Group_74647" data-name="Group 74647">
                <g id="Group_74646" data-name="Group 74646">
                  <g id="Group_74645" data-name="Group 74645">
                    <g id="Group_74644" data-name="Group 74644">
                      <path id="Path_110734" data-name="Path 110734" d="M644.537,129.717c-.055.114-4.331-1.854-9.549-4.394s-9.4-4.694-9.349-4.808,4.33,1.853,9.55,4.4S644.593,129.6,644.537,129.717Z" transform="translate(-625.639 -120.509)" fill="#fff"/>
                    </g>
                  </g>
                </g>
              </g>
            </g>
          </g>
        </g>
      </g>
      <g id="Group_76110" data-name="Group 76110" transform="translate(284.488 277.176)">
        <g id="Group_74667" data-name="Group 74667" transform="translate(0)">
          <g id="Group_74660" data-name="Group 74660" transform="translate(0.022 1.375)">
            <g id="Group_74659" data-name="Group 74659">
              <g id="Group_74658" data-name="Group 74658">
                <g id="Group_74657" data-name="Group 74657">
                  <g id="Group_74656" data-name="Group 74656">
                    <g id="Group_74655" data-name="Group 74655">
                      <g id="Group_74654" data-name="Group 74654">
                        <g id="Group_74653" data-name="Group 74653">
                          <g id="Group_74652" data-name="Group 74652">
                            <path id="Path_110735" data-name="Path 110735" d="M146.487,175.509a2.534,2.534,0,0,1-1.9-3.039L149.531,151a2.1,2.1,0,0,1,2.568-1.492l2.02.465a2.181,2.181,0,0,0,2.182-.707l.637-.781a2.182,2.182,0,0,1,2.183-.708l9.584,2.208a2.2,2.2,0,0,1,1.595,1.39l.3.854a2.2,2.2,0,0,0,1.595,1.391l12.218,2.814a2.1,2.1,0,0,1,1.657,2.465l-5.058,21.961a2.535,2.535,0,0,1-3.039,1.9Z" transform="translate(-144.521 -147.716)" fill="#e0e0e0"/>
                          </g>
                        </g>
                      </g>
                    </g>
                  </g>
                </g>
              </g>
            </g>
          </g>
          <g id="Group_74666" data-name="Group 74666" transform="translate(0)">
            <g id="Group_74665" data-name="Group 74665">
              <g id="Group_74664" data-name="Group 74664">
                <g id="Group_74663" data-name="Group 74663">
                  <g id="Group_74662" data-name="Group 74662">
                    <g id="Group_74661" data-name="Group 74661">
                      <path id="Path_110736" data-name="Path 110736" d="M170.917,152.238l-7.768-1.807-.4-1.459a2.753,2.753,0,0,0-2.059-1.921l-7.6-1.749a2.437,2.437,0,0,0-2.977,1.729l-.2.886-5.37,23.316a2.768,2.768,0,0,0,2.182,3.246l30.861,7.108a2.769,2.769,0,0,0,3.382-1.965l5.072-22.026a1.826,1.826,0,0,0-1.369-2.189Z" transform="translate(-144.481 -145.232)" fill="#ebebeb"/>
                    </g>
                  </g>
                </g>
              </g>
            </g>
          </g>
        </g>
        <g id="Group_74669" data-name="Group 74669" transform="translate(11.31 13.059)">
          <g id="Group_74668" data-name="Group 74668">
            <rect id="Rectangle_8319" data-name="Rectangle 8319" width="18.848" height="7.93" transform="translate(1.78 0) rotate(12.969)" fill="#fff"/>
          </g>
        </g>
        <g id="Group_74672" data-name="Group 74672" transform="translate(15.223 17.132)">
          <g id="Group_74671" data-name="Group 74671">
            <g id="Group_74670" data-name="Group 74670">
              <path id="Path_110737" data-name="Path 110737" d="M184.593,179.083c-.016.069-2.853-.527-6.338-1.33s-6.3-1.508-6.282-1.577,2.853.527,6.339,1.33S184.609,179.015,184.593,179.083Z" transform="translate(-171.973 -176.171)" fill="#e0e0e0"/>
            </g>
          </g>
        </g>
        <g id="Group_74675" data-name="Group 74675" transform="translate(14.844 18.779)">
          <g id="Group_74674" data-name="Group 74674">
            <g id="Group_74673" data-name="Group 74673">
              <path id="Path_110738" data-name="Path 110738" d="M183.908,182.056c-.016.068-2.854-.527-6.339-1.33s-6.3-1.508-6.282-1.577,2.853.527,6.339,1.33S183.924,181.988,183.908,182.056Z" transform="translate(-171.288 -179.144)" fill="#e0e0e0"/>
            </g>
          </g>
        </g>
      </g>
    </g>
    <g id="Group_76106" data-name="Group 76106" transform="translate(310.038 360.115)">
      <g id="Group_75759" data-name="Group 75759" transform="translate(0 22.084)">
        <g id="Group_75738" data-name="Group 75738">
          <path id="Rectangle_8338" data-name="Rectangle 8338" d="M3.755,0H84.319a3.756,3.756,0,0,1,3.756,3.756V19.18a3.756,3.756,0,0,1-3.756,3.756H3.755A3.755,3.755,0,0,1,0,19.18V3.755A3.755,3.755,0,0,1,3.755,0Z" fill="#263238"/>
        </g>
        <g id="Group_75739" data-name="Group 75739" transform="translate(39.641 5.474)">
          <rect id="Rectangle_8339" data-name="Rectangle 8339" width="39.053" height="12.95" rx="0.708" fill="#fff"/>
        </g>
        <g id="Group_75740" data-name="Group 75740" transform="translate(14.606 6.474)">
          <ellipse id="Ellipse_4159" data-name="Ellipse 4159" cx="4.688" cy="4.688" rx="4.688" ry="4.688" transform="translate(0.787 0.787)" fill="#263238"/>
          <path id="Path_110898" data-name="Path 110898" d="M133.166,434.653a5.475,5.475,0,1,1,5.475-5.475A5.482,5.482,0,0,1,133.166,434.653Zm0-9.377a3.9,3.9,0,1,0,3.9,3.9A3.907,3.907,0,0,0,133.166,425.276Z" transform="translate(-127.691 -423.702)" fill="#e0e0e0"/>
        </g>
        <g id="Group_75742" data-name="Group 75742" transform="translate(43.523 7.688)">
          <g id="Group_75741" data-name="Group 75741" transform="translate(0)">
            <path id="Path_110899" data-name="Path 110899" d="M164.648,425.245a45.982,45.982,0,0,1,0,8.682,46.152,46.152,0,0,1,0-8.682Z" transform="translate(-164.443 -425.245)" fill="#e0e0e0"/>
          </g>
        </g>
        <g id="Group_75744" data-name="Group 75744" transform="translate(47.323 7.688)">
          <g id="Group_75743" data-name="Group 75743" transform="translate(0)">
            <path id="Path_110900" data-name="Path 110900" d="M169.477,425.245a45.985,45.985,0,0,1,0,8.682,46.152,46.152,0,0,1,0-8.682Z" transform="translate(-169.272 -425.245)" fill="#e0e0e0"/>
          </g>
        </g>
        <g id="Group_75746" data-name="Group 75746" transform="translate(51.121 7.688)">
          <g id="Group_75745" data-name="Group 75745" transform="translate(0)">
            <path id="Path_110901" data-name="Path 110901" d="M174.305,425.245a46.159,46.159,0,0,1,0,8.682,45.978,45.978,0,0,1,0-8.682Z" transform="translate(-174.1 -425.245)" fill="#e0e0e0"/>
          </g>
        </g>
        <g id="Group_75748" data-name="Group 75748" transform="translate(54.921 7.688)">
          <g id="Group_75747" data-name="Group 75747" transform="translate(0)">
            <path id="Path_110902" data-name="Path 110902" d="M179.134,425.245a46.166,46.166,0,0,1,0,8.682,45.978,45.978,0,0,1,0-8.682Z" transform="translate(-178.929 -425.245)" fill="#e0e0e0"/>
          </g>
        </g>
        <g id="Group_75750" data-name="Group 75750" transform="translate(58.72 7.688)">
          <g id="Group_75749" data-name="Group 75749" transform="translate(0)">
            <path id="Path_110903" data-name="Path 110903" d="M183.963,425.245a45.978,45.978,0,0,1,0,8.682,46.156,46.156,0,0,1,0-8.682Z" transform="translate(-183.758 -425.245)" fill="#e0e0e0"/>
          </g>
        </g>
        <g id="Group_75752" data-name="Group 75752" transform="translate(62.52 7.688)">
          <g id="Group_75751" data-name="Group 75751" transform="translate(0)">
            <path id="Path_110904" data-name="Path 110904" d="M188.792,425.245a46.163,46.163,0,0,1,0,8.682,46.156,46.156,0,0,1,0-8.682Z" transform="translate(-188.587 -425.245)" fill="#e0e0e0"/>
          </g>
        </g>
        <g id="Group_75754" data-name="Group 75754" transform="translate(66.319 7.688)">
          <g id="Group_75753" data-name="Group 75753" transform="translate(0)">
            <path id="Path_110905" data-name="Path 110905" d="M193.62,425.245a46.163,46.163,0,0,1,0,8.682,45.978,45.978,0,0,1,0-8.682Z" transform="translate(-193.415 -425.245)" fill="#e0e0e0"/>
          </g>
        </g>
        <g id="Group_75756" data-name="Group 75756" transform="translate(70.118 7.688)">
          <g id="Group_75755" data-name="Group 75755" transform="translate(0)">
            <path id="Path_110906" data-name="Path 110906" d="M198.449,425.245a46.166,46.166,0,0,1,0,8.682,45.978,45.978,0,0,1,0-8.682Z" transform="translate(-198.244 -425.245)" fill="#e0e0e0"/>
          </g>
        </g>
        <g id="Group_75758" data-name="Group 75758" transform="translate(73.918 7.688)">
          <g id="Group_75757" data-name="Group 75757" transform="translate(0)">
            <path id="Path_110907" data-name="Path 110907" d="M203.278,425.245a45.982,45.982,0,0,1,0,8.682,46.152,46.152,0,0,1,0-8.682Z" transform="translate(-203.073 -425.245)" fill="#e0e0e0"/>
          </g>
        </g>
      </g>
      <g id="Group_75781" data-name="Group 75781">
        <g id="Group_75760" data-name="Group 75760">
          <path id="Rectangle_8340" data-name="Rectangle 8340" d="M3.755,0H84.319a3.756,3.756,0,0,1,3.756,3.756V19.18a3.756,3.756,0,0,1-3.756,3.756H3.755A3.755,3.755,0,0,1,0,19.18V3.755A3.755,3.755,0,0,1,3.755,0Z" fill="#455a64"/>
        </g>
        <g id="Group_75761" data-name="Group 75761" transform="translate(39.641 5.474)">
          <rect id="Rectangle_8341" data-name="Rectangle 8341" width="39.053" height="12.95" rx="0.708" fill="#fff"/>
        </g>
        <g id="Group_75762" data-name="Group 75762" transform="translate(14.606 6.475)">
          <ellipse id="Ellipse_4160" data-name="Ellipse 4160" cx="4.688" cy="4.688" rx="4.688" ry="4.688" transform="translate(0.787 0.787)" fill="#263238"/>
          <path id="Path_110908" data-name="Path 110908" d="M133.166,406.585a5.475,5.475,0,1,1,5.475-5.475A5.482,5.482,0,0,1,133.166,406.585Zm0-9.376a3.9,3.9,0,1,0,3.9,3.9A3.906,3.906,0,0,0,133.166,397.209Z" transform="translate(-127.691 -395.635)" fill="#e0e0e0"/>
        </g>
        <g id="Group_75764" data-name="Group 75764" transform="translate(43.523 7.688)">
          <g id="Group_75763" data-name="Group 75763" transform="translate(0)">
            <path id="Path_110909" data-name="Path 110909" d="M164.648,397.177a45.982,45.982,0,0,1,0,8.682,46.152,46.152,0,0,1,0-8.682Z" transform="translate(-164.443 -397.177)" fill="#e0e0e0"/>
          </g>
        </g>
        <g id="Group_75766" data-name="Group 75766" transform="translate(47.323 7.688)">
          <g id="Group_75765" data-name="Group 75765" transform="translate(0)">
            <path id="Path_110910" data-name="Path 110910" d="M169.477,397.177a45.985,45.985,0,0,1,0,8.682,46.152,46.152,0,0,1,0-8.682Z" transform="translate(-169.272 -397.177)" fill="#e0e0e0"/>
          </g>
        </g>
        <g id="Group_75768" data-name="Group 75768" transform="translate(51.121 7.688)">
          <g id="Group_75767" data-name="Group 75767" transform="translate(0)">
            <path id="Path_110911" data-name="Path 110911" d="M174.305,397.177a46.159,46.159,0,0,1,0,8.682,45.978,45.978,0,0,1,0-8.682Z" transform="translate(-174.1 -397.177)" fill="#e0e0e0"/>
          </g>
        </g>
        <g id="Group_75770" data-name="Group 75770" transform="translate(54.921 7.688)">
          <g id="Group_75769" data-name="Group 75769" transform="translate(0)">
            <path id="Path_110912" data-name="Path 110912" d="M179.134,397.177a46.166,46.166,0,0,1,0,8.682,45.978,45.978,0,0,1,0-8.682Z" transform="translate(-178.929 -397.177)" fill="#e0e0e0"/>
          </g>
        </g>
        <g id="Group_75772" data-name="Group 75772" transform="translate(58.72 7.688)">
          <g id="Group_75771" data-name="Group 75771" transform="translate(0)">
            <path id="Path_110913" data-name="Path 110913" d="M183.963,397.177a45.978,45.978,0,0,1,0,8.682,46.156,46.156,0,0,1,0-8.682Z" transform="translate(-183.758 -397.177)" fill="#e0e0e0"/>
          </g>
        </g>
        <g id="Group_75774" data-name="Group 75774" transform="translate(62.52 7.688)">
          <g id="Group_75773" data-name="Group 75773" transform="translate(0)">
            <path id="Path_110914" data-name="Path 110914" d="M188.792,397.177a46.163,46.163,0,0,1,0,8.682,46.156,46.156,0,0,1,0-8.682Z" transform="translate(-188.587 -397.177)" fill="#e0e0e0"/>
          </g>
        </g>
        <g id="Group_75776" data-name="Group 75776" transform="translate(66.319 7.688)">
          <g id="Group_75775" data-name="Group 75775" transform="translate(0)">
            <path id="Path_110915" data-name="Path 110915" d="M193.62,397.177a46.163,46.163,0,0,1,0,8.682,45.978,45.978,0,0,1,0-8.682Z" transform="translate(-193.415 -397.177)" fill="#e0e0e0"/>
          </g>
        </g>
        <g id="Group_75778" data-name="Group 75778" transform="translate(70.118 7.688)">
          <g id="Group_75777" data-name="Group 75777" transform="translate(0)">
            <path id="Path_110916" data-name="Path 110916" d="M198.449,397.177a46.166,46.166,0,0,1,0,8.682,45.978,45.978,0,0,1,0-8.682Z" transform="translate(-198.244 -397.177)" fill="#e0e0e0"/>
          </g>
        </g>
        <g id="Group_75780" data-name="Group 75780" transform="translate(73.918 7.688)">
          <g id="Group_75779" data-name="Group 75779" transform="translate(0)">
            <path id="Path_110917" data-name="Path 110917" d="M203.278,397.177a45.982,45.982,0,0,1,0,8.682,46.152,46.152,0,0,1,0-8.682Z" transform="translate(-203.073 -397.177)" fill="#e0e0e0"/>
          </g>
        </g>
      </g>
      <g id="Group_75803" data-name="Group 75803" transform="translate(0 45.142)">
        <g id="Group_75782" data-name="Group 75782">
          <path id="Rectangle_8342" data-name="Rectangle 8342" d="M3.755,0H84.319a3.756,3.756,0,0,1,3.756,3.756V19.18a3.756,3.756,0,0,1-3.756,3.756H3.755A3.755,3.755,0,0,1,0,19.18V3.755A3.755,3.755,0,0,1,3.755,0Z" fill="#aed3f2"/>
        </g>
        <g id="Group_75783" data-name="Group 75783" transform="translate(39.641 5.474)">
          <rect id="Rectangle_8343" data-name="Rectangle 8343" width="39.053" height="12.95" rx="0.708" fill="#fff"/>
        </g>
        <g id="Group_75784" data-name="Group 75784" transform="translate(14.606 6.474)">
          <path id="Path_110918" data-name="Path 110918" d="M138.067,458.7a4.688,4.688,0,1,0-4.688,4.688A4.688,4.688,0,0,0,138.067,458.7Z" transform="translate(-127.904 -453.221)" fill="#263238"/>
          <path id="Path_110919" data-name="Path 110919" d="M133.166,463.958a5.475,5.475,0,1,1,5.475-5.475A5.481,5.481,0,0,1,133.166,463.958Zm0-9.376a3.9,3.9,0,1,0,3.9,3.9A3.907,3.907,0,0,0,133.166,454.582Z" transform="translate(-127.691 -453.008)" fill="#f5f5f5"/>
        </g>
        <g id="Group_75786" data-name="Group 75786" transform="translate(43.523 7.688)">
          <g id="Group_75785" data-name="Group 75785" transform="translate(0)">
            <path id="Path_110920" data-name="Path 110920" d="M164.648,454.55a45.99,45.99,0,0,1,0,8.682,46.161,46.161,0,0,1,0-8.682Z" transform="translate(-164.443 -454.55)" fill="#e0e0e0"/>
          </g>
        </g>
        <g id="Group_75788" data-name="Group 75788" transform="translate(47.323 7.688)">
          <g id="Group_75787" data-name="Group 75787" transform="translate(0)">
            <path id="Path_110921" data-name="Path 110921" d="M169.477,454.55a45.993,45.993,0,0,1,0,8.682,46.161,46.161,0,0,1,0-8.682Z" transform="translate(-169.272 -454.55)" fill="#e0e0e0"/>
          </g>
        </g>
        <g id="Group_75790" data-name="Group 75790" transform="translate(51.121 7.688)">
          <g id="Group_75789" data-name="Group 75789" transform="translate(0)">
            <path id="Path_110922" data-name="Path 110922" d="M174.305,454.55a46.168,46.168,0,0,1,0,8.682,45.987,45.987,0,0,1,0-8.682Z" transform="translate(-174.1 -454.55)" fill="#e0e0e0"/>
          </g>
        </g>
        <g id="Group_75792" data-name="Group 75792" transform="translate(54.921 7.688)">
          <g id="Group_75791" data-name="Group 75791" transform="translate(0)">
            <path id="Path_110923" data-name="Path 110923" d="M179.134,454.55a46.174,46.174,0,0,1,0,8.682,45.987,45.987,0,0,1,0-8.682Z" transform="translate(-178.929 -454.55)" fill="#e0e0e0"/>
          </g>
        </g>
        <g id="Group_75794" data-name="Group 75794" transform="translate(58.72 7.688)">
          <g id="Group_75793" data-name="Group 75793" transform="translate(0)">
            <path id="Path_110924" data-name="Path 110924" d="M183.963,454.55a45.987,45.987,0,0,1,0,8.682,46.164,46.164,0,0,1,0-8.682Z" transform="translate(-183.758 -454.55)" fill="#e0e0e0"/>
          </g>
        </g>
        <g id="Group_75796" data-name="Group 75796" transform="translate(62.52 7.688)">
          <g id="Group_75795" data-name="Group 75795" transform="translate(0)">
            <path id="Path_110925" data-name="Path 110925" d="M188.792,454.55a46.171,46.171,0,0,1,0,8.682,46.164,46.164,0,0,1,0-8.682Z" transform="translate(-188.587 -454.55)" fill="#e0e0e0"/>
          </g>
        </g>
        <g id="Group_75798" data-name="Group 75798" transform="translate(66.319 7.688)">
          <g id="Group_75797" data-name="Group 75797" transform="translate(0)">
            <path id="Path_110926" data-name="Path 110926" d="M193.62,454.55a46.171,46.171,0,0,1,0,8.682,45.987,45.987,0,0,1,0-8.682Z" transform="translate(-193.415 -454.55)" fill="#e0e0e0"/>
          </g>
        </g>
        <g id="Group_75800" data-name="Group 75800" transform="translate(70.118 7.688)">
          <g id="Group_75799" data-name="Group 75799" transform="translate(0)">
            <path id="Path_110927" data-name="Path 110927" d="M198.449,454.55a46.174,46.174,0,0,1,0,8.682,45.987,45.987,0,0,1,0-8.682Z" transform="translate(-198.244 -454.55)" fill="#e0e0e0"/>
          </g>
        </g>
        <g id="Group_75802" data-name="Group 75802" transform="translate(73.918 7.688)">
          <g id="Group_75801" data-name="Group 75801" transform="translate(0)">
            <path id="Path_110928" data-name="Path 110928" d="M203.278,454.55a45.99,45.99,0,0,1,0,8.682,46.161,46.161,0,0,1,0-8.682Z" transform="translate(-203.073 -454.55)" fill="#e0e0e0"/>
          </g>
        </g>
      </g>
    </g>
  </g>
</svg>
