<svg xmlns="http://www.w3.org/2000/svg" width="505" height="175" viewBox="0 0 505 175">
  <g id="Group_1111609" data-name="Group 1111609" transform="translate(-180.051 -927)">
    <rect id="Rectangle_404528" data-name="Rectangle 404528" width="505" height="175" rx="14" transform="translate(180.051 927)" fill="#fff5ea"/>
    <g id="Group_63680" data-name="Group 63680" transform="translate(-6029.895 -5077.258)">
      <g id="freepik--background-complete--inject-63" transform="translate(6470.182 6020.258)">
        <path id="Path_138026" data-name="Path 138026" d="M2189.994,6015.3a8.891,8.891,0,0,1-1.774,1.183,9.239,9.239,0,0,1-1.864,1.032,5.58,5.58,0,0,1,1.693-1.313A5.961,5.961,0,0,1,2189.994,6015.3Z" transform="translate(-2186.353 -6002.363)" fill="#fafafa"/>
        <path id="Path_138027" data-name="Path 138027" d="M2196.57,6042.317a26.667,26.667,0,0,1-5.889,0,13.272,13.272,0,0,1,2.945-.167A13,13,0,0,1,2196.57,6042.317Z" transform="translate(-2188.916 -6018.265)" fill="#fafafa"/>
        <path id="Path_138028" data-name="Path 138028" d="M2190.161,6067.081a20.156,20.156,0,0,1-3.667-3.667,10.418,10.418,0,0,1,1.954,1.717A10.079,10.079,0,0,1,2190.161,6067.081Z" transform="translate(-2186.435 -6030.854)" fill="#fafafa"/>
        <path id="Path_138029" data-name="Path 138029" d="M2529.334,6243.984s-6.02,4.585-.253,10.646a.5.5,0,0,0,.379.159l52.614-.3s4.486-5.037.763-10.841Z" transform="translate(-2387.817 -6137.582)" fill="#6595bf"/>
        <path id="Path_138030" data-name="Path 138030" d="M2591.622,6256.076c0,.057-6.55.106-14.626.106s-14.626-.049-14.626-.106,6.526-.106,14.626-.106S2591.622,6256.007,2591.622,6256.076Z" transform="translate(-2409.009 -6144.877)" fill="#e0e0e0"/>
        <path id="Path_138031" data-name="Path 138031" d="M2594.033,6260.716c0,.057-3.075.106-6.876.106s-6.876-.049-6.876-.106,3.079-.106,6.876-.106S2594.033,6260.659,2594.033,6260.716Z" transform="translate(-2419.614 -6147.625)" fill="#e0e0e0"/>
        <path id="Path_138032" data-name="Path 138032" d="M2647.116,6254.09c-.032,0,.118-.6.282-1.579a21.888,21.888,0,0,0-.074-7.667c-.179-.97-.343-1.562-.31-1.574a1.639,1.639,0,0,1,.155.408c.085.261.192.653.3,1.138a18.676,18.676,0,0,1,.073,7.725c-.1.485-.2.877-.281,1.142A1.732,1.732,0,0,1,2647.116,6254.09Z" transform="translate(-2459.127 -6137.357)" fill="#e0e0e0"/>
        <path id="Path_138033" data-name="Path 138033" d="M2656.9,6243.47a2.045,2.045,0,0,1,.233.383,4.213,4.213,0,0,1,.237.469c.082.188.184.408.265.645a10.822,10.822,0,0,1,.5,1.746,12.222,12.222,0,0,1,.229,2.211,12.63,12.63,0,0,1-.192,2.218,11.37,11.37,0,0,1-.473,1.754c-.078.245-.18.457-.257.645a5.091,5.091,0,0,1-.228.478,1.61,1.61,0,0,1-.229.383c-.037,0,.257-.583.571-1.554a13.26,13.26,0,0,0,.408-1.738,12.6,12.6,0,0,0-.485-6.093C2657.161,6244.049,2656.859,6243.486,2656.9,6243.47Z" transform="translate(-2464.979 -6137.475)" fill="#e0e0e0"/>
        <path id="Path_138034" data-name="Path 138034" d="M2551.467,6255.061a1.588,1.588,0,0,1-.245-.351,2.851,2.851,0,0,1-.245-.44,5.376,5.376,0,0,1-.281-.6,9.069,9.069,0,0,1-.514-1.66,9.734,9.734,0,0,1,.057-4.229,9.287,9.287,0,0,1,.559-1.632,4.893,4.893,0,0,1,.3-.6,3.115,3.115,0,0,1,.257-.433,1.719,1.719,0,0,1,.253-.342c.037,0-.3.53-.669,1.431a10.223,10.223,0,0,0-.1,7.411A14.456,14.456,0,0,1,2551.467,6255.061Z" transform="translate(-2401.671 -6138.245)" fill="#e0e0e0"/>
        <path id="Path_138035" data-name="Path 138035" d="M2537.19,6256.161a2.051,2.051,0,0,1-.269-.408,4.487,4.487,0,0,1-.277-.494c-.094-.2-.216-.408-.318-.677a11.339,11.339,0,0,1-.6-1.859,12.491,12.491,0,0,1-.3-2.37,12.625,12.625,0,0,1,.192-2.386,11.12,11.12,0,0,1,.518-1.88c.09-.266.2-.49.29-.694a4.934,4.934,0,0,1,.253-.506,1.842,1.842,0,0,1,.253-.408c.037,0-.3.616-.653,1.656a12.241,12.241,0,0,0-.469,1.864,13.255,13.255,0,0,0-.171,2.345,13.656,13.656,0,0,0,.277,2.337,12.605,12.605,0,0,0,.547,1.843C2536.884,6255.557,2537.227,6256.14,2537.19,6256.161Z" transform="translate(-2393.054 -6138.073)" fill="#e0e0e0"/>
        <path id="Path_138036" data-name="Path 138036" d="M2629.585,6309.48v10.066H2610.11V6309.48Z" transform="translate(-2437.278 -6176.563)" fill="#6595bf"/>
        <path id="Path_138037" data-name="Path 138037" d="M2503.606,6313.056v.265a5.763,5.763,0,0,0,5.792,5.4h57.985V6318h-13.745a5.028,5.028,0,0,1-5.033-5.033h0a5.033,5.033,0,0,1,5.033-5.033H2567.4v-1.068l-58.014.2a5.8,5.8,0,0,0-5.8,5.808A1.526,1.526,0,0,1,2503.606,6313.056Z" transform="translate(-2374.203 -6175.011)" fill="#e0e0e0"/>
        <path id="Path_138038" data-name="Path 138038" d="M2631.895,6322c0,.057-4.005.106-8.944.106s-8.94-.049-8.94-.106,4-.106,8.94-.106S2631.895,6321.935,2631.895,6322Z" transform="translate(-2439.587 -6183.911)" fill="#e0e0e0"/>
        <path id="Path_138039" data-name="Path 138039" d="M2632.6,6327.556c0,.057-3.789.106-8.463.106s-8.463-.049-8.463-.106,3.789-.106,8.463-.106S2632.6,6327.5,2632.6,6327.556Z" transform="translate(-2440.57 -6187.204)" fill="#e0e0e0"/>
        <path id="Path_138040" data-name="Path 138040" d="M2635.768,6332.64c0,.058-3.406.106-7.607.106s-7.611-.049-7.611-.106,3.406-.11,7.611-.11S2635.768,6332.579,2635.768,6332.64Z" transform="translate(-2443.46 -6190.211)" fill="#e0e0e0"/>
        <path id="Path_138041" data-name="Path 138041" d="M2632.422,6317c0,.061-3.924.106-8.761.106s-8.761-.045-8.761-.106,3.924-.106,8.761-.106S2632.422,6316.935,2632.422,6317Z" transform="translate(-2440.114 -6180.95)" fill="#e0e0e0"/>
        <path id="Path_138042" data-name="Path 138042" d="M2634.526,6312.006c0,.057-3.491.106-7.8.106s-7.8-.049-7.8-.106,3.491-.106,7.8-.106S2634.526,6311.941,2634.526,6312.006Z" transform="translate(-2442.5 -6177.996)" fill="#e0e0e0"/>
        <path id="Path_138043" data-name="Path 138043" d="M2516.886,6307.76a12.7,12.7,0,0,0-1.223,1.464,7.431,7.431,0,0,0,.1,8.622,13.23,13.23,0,0,0,1.265,1.436,1.865,1.865,0,0,1-.408-.306,6.719,6.719,0,0,1-.971-1.04,7.342,7.342,0,0,1-.1-8.8,6.462,6.462,0,0,1,.942-1.061,1.764,1.764,0,0,1,.4-.318Z" transform="translate(-2380.447 -6175.543)" fill="#f5f5f5"/>
        <path id="Path_138044" data-name="Path 138044" d="M2512.082,6307.23a12.7,12.7,0,0,0-1.224,1.464,7.468,7.468,0,0,0,.1,8.626,12.878,12.878,0,0,0,1.269,1.436,2.162,2.162,0,0,1-.408-.31,6.729,6.729,0,0,1-.971-1.04,7.342,7.342,0,0,1-.1-8.8,6.86,6.86,0,0,1,.942-1.061A1.98,1.98,0,0,1,2512.082,6307.23Z" transform="translate(-2377.604 -6175.23)" fill="#f5f5f5"/>
        <path id="Path_138045" data-name="Path 138045" d="M2608.7,6307.76a12.7,12.7,0,0,0-1.224,1.464,7.451,7.451,0,0,0,.1,8.622,12.834,12.834,0,0,0,1.269,1.436,1.648,1.648,0,0,1-.408-.306,6.472,6.472,0,0,1-.967-1.04,7.341,7.341,0,0,1-.106-8.8,6.3,6.3,0,0,1,.946-1.061,1.936,1.936,0,0,1,.387-.318Z" transform="translate(-2434.82 -6175.543)" fill="#f5f5f5"/>
        <path id="Path_138046" data-name="Path 138046" d="M2603.9,6307.23a12.679,12.679,0,0,0-1.224,1.464,7.468,7.468,0,0,0,.1,8.626,13.261,13.261,0,0,0,1.269,1.436,2.162,2.162,0,0,1-.408-.31,6.324,6.324,0,0,1-.967-1.04,7.342,7.342,0,0,1-.106-8.8,6.493,6.493,0,0,1,.946-1.06,1.921,1.921,0,0,1,.387-.318Z" transform="translate(-2431.978 -6175.23)" fill="#f5f5f5"/>
        <path id="Path_138047" data-name="Path 138047" d="M2532.618,6317.023l-.053-4.078a2.992,2.992,0,0,0-.143-1.057,1.012,1.012,0,0,0-.779-.656,1.554,1.554,0,0,0-1.668.791,3.841,3.841,0,0,0-.408,2.006,28.437,28.437,0,0,0,.159,3.23,3.67,3.67,0,0,0,.379,1.48,1.375,1.375,0,0,0,1.248.75,1.4,1.4,0,0,0,1.089-.955,4.132,4.132,0,0,0,.175-1.513Z" transform="translate(-2389.579 -6177.564)" fill="#f5f5f5"/>
        <path id="Path_138048" data-name="Path 138048" d="M2565.052,6322.476c0,.061-4.193.106-9.381.106s-9.381-.045-9.381-.106,4.193-.106,9.381-.106S2565.052,6322.419,2565.052,6322.476Z" transform="translate(-2399.487 -6184.195)" fill="#f5f5f5"/>
        <path id="Path_138049" data-name="Path 138049" d="M2898.38,6505.58l-.11-9.54h5.2l.179,9.54Z" transform="translate(-2759.225 -6373.768)" fill="#f5f5f5"/>
        <path id="Path_138050" data-name="Path 138050" d="M2532.245,6287.385a27.22,27.22,0,0,1-4.825,0A27.22,27.22,0,0,1,2532.245,6287.385Z" transform="translate(-2388.313 -6163.416)" fill="#e0e0e0"/>
        <path id="Path_138051" data-name="Path 138051" d="M2532.245,6290.994a27.267,27.267,0,0,1-4.825,0A27.267,27.267,0,0,1,2532.245,6290.994Z" transform="translate(-2388.313 -6165.553)" fill="#e0e0e0"/>
        <path id="Path_138052" data-name="Path 138052" d="M2532.245,6294.6a27.267,27.267,0,0,1-4.825,0A27.267,27.267,0,0,1,2532.245,6294.6Z" transform="translate(-2388.313 -6167.691)" fill="#e0e0e0"/>
        <path id="Path_138053" data-name="Path 138053" d="M2532.245,6298.215a27.267,27.267,0,0,1-4.825,0A27.267,27.267,0,0,1,2532.245,6298.215Z" transform="translate(-2388.313 -6169.829)" fill="#e0e0e0"/>
        <path id="Path_138054" data-name="Path 138054" d="M2532.245,6301.844a27.22,27.22,0,0,1-4.825,0,27.22,27.22,0,0,1,4.825,0Z" transform="translate(-2388.313 -6171.978)" fill="#e0e0e0"/>
        <path id="Path_138055" data-name="Path 138055" d="M2526.63,6282.76h57.541a27.025,27.025,0,0,1,0,10.311h-57.308v-.7h3.5a1.631,1.631,0,0,0,1.652-1.611v-5.73a1.657,1.657,0,0,0-1.632-1.656h-3.74Z" transform="translate(-2387.845 -6160.74)" fill="#6595bf"/>
        <path id="Path_138056" data-name="Path 138056" d="M2558.008,6292.5h.958a.235.235,0,0,1,.106.024.2.2,0,0,1,.1.179v.062a.981.981,0,0,1-.065.249,2.757,2.757,0,0,1-.6,1.085,1.142,1.142,0,0,1-.816.407h-.114a.925.925,0,0,1-.653-.473,2.13,2.13,0,0,1-.29-1.154,2.893,2.893,0,0,1,.114-.815,2.758,2.758,0,0,1,.571-1.114,1.162,1.162,0,0,1,.865-.46.856.856,0,0,1,.363.082,1.191,1.191,0,0,1,.563.7.408.408,0,0,1,0,.1.174.174,0,0,1-.029.1.193.193,0,0,1-.175.1h-.086a.177.177,0,0,1-.131-.131h0a1.189,1.189,0,0,0-.114-.229.514.514,0,0,0-.779-.158,1.712,1.712,0,0,0-.522.754,2.682,2.682,0,0,0-.229,1.081,1.912,1.912,0,0,0,.163.852.555.555,0,0,0,.5.375.687.687,0,0,0,.465-.278,2.6,2.6,0,0,0,.493-.893h-.665c-.151-.024-.229-.1-.229-.232a.1.1,0,0,1,0-.069A.216.216,0,0,1,2558.008,6292.5Z" transform="translate(-2405.614 -6165.317)" fill="#fafafa"/>
        <path id="Path_138057" data-name="Path 138057" d="M2565.011,6290.616l.024.069c.041.143.269,1.33.681,3.569v.049a.2.2,0,0,1-.029.106.191.191,0,0,1-.171.106h-.033a.184.184,0,0,1-.159-.143l-.228-1.183h-1.183l-.571,1.191v.037a.229.229,0,0,1-.179.1.211.211,0,0,1-.208-.208.154.154,0,0,1,0-.062c.032-.082.094-.212.175-.408q1.224-2.708,1.484-3.2a.216.216,0,0,1,.257-.163.232.232,0,0,1,.151.122Zm-.257.816-.64,1.342h.9Z" transform="translate(-2409.354 -6165.31)" fill="#fafafa"/>
        <path id="Path_138058" data-name="Path 138058" d="M2573.039,6294.559h-1.717a.206.206,0,0,1-.11-.032.291.291,0,0,1-.1-.221h0c0-.069.163-1.256.481-3.552a.233.233,0,0,1,0-.074.2.2,0,0,1,.188-.13.222.222,0,0,1,.1.025.2.2,0,0,1,.106.184c0,.159-.053.481-.118.975-.2,1.513-.3,2.317-.31,2.4h1.477a.459.459,0,0,1,.11,0,.2.2,0,0,1,.131.2v.065a.241.241,0,0,1-.233.167Z" transform="translate(-2414.184 -6165.353)" fill="#fafafa"/>
        <path id="Path_138059" data-name="Path 138059" d="M2578.67,6290.648l.025.069c.041.143.265,1.33.677,3.569a.1.1,0,0,1,0,.049.2.2,0,0,1-.029.106.193.193,0,0,1-.172.105h-.032a.184.184,0,0,1-.159-.143l-.228-1.183h-1.183l-.53,1.187a.172.172,0,0,1-.02.037.208.208,0,0,1-.29.069.206.206,0,0,1-.094-.176.163.163,0,0,1,0-.062l.176-.407c.816-1.807,1.325-2.855,1.485-3.2a.227.227,0,0,1,.2-.143.232.232,0,0,1,.175.119Zm-.261.816-.636,1.342h.9Z" transform="translate(-2417.454 -6165.341)" fill="#fafafa"/>
        <path id="Path_138060" data-name="Path 138060" d="M2586.014,6292.719l.314.869q.27.738.269.783a.2.2,0,0,1-.208.2h0a.186.186,0,0,1-.171-.138l-.033-.09q-.147-.325-.465-1.223l-.979,1.342a.254.254,0,0,1-.184.11.206.206,0,0,1-.11-.028.186.186,0,0,1-.1-.175v-.041a.479.479,0,0,1,.1-.168c.326-.428.693-.937,1.093-1.521-.045-.114-.082-.224-.123-.326-.367-.991-.551-1.5-.551-1.534a.234.234,0,0,1,.025-.105.175.175,0,0,1,.167-.1.209.209,0,0,1,.2.114l.579,1.563,1.154-1.579a.246.246,0,0,1,.183-.1.192.192,0,0,1,.2.188v.021a.2.2,0,0,1,0,.1Z" transform="translate(-2422.024 -6165.365)" fill="#fafafa"/>
        <path id="Path_138061" data-name="Path 138061" d="M2594.677,6290.6a.181.181,0,0,1,.094.024.2.2,0,0,1,.11.175c-.281,2.243-.44,3.455-.469,3.638a2.22,2.22,0,0,1-.371.946,1.342,1.342,0,0,1-1.7.408,1.192,1.192,0,0,1-.612-.535.222.222,0,0,1-.024-.1.182.182,0,0,1,.029-.1.2.2,0,0,1,.176-.106.224.224,0,0,1,.159.085,1.1,1.1,0,0,0,.889.506.881.881,0,0,0,.689-.347,1.957,1.957,0,0,0,.383-1.093,1.015,1.015,0,0,1-.257.273,1.05,1.05,0,0,1-.624.2h-.114a.942.942,0,0,1-.661-.474,2.136,2.136,0,0,1-.285-1.158,5.142,5.142,0,0,1,.029-.648c.032-.351.11-.848.233-1.5a.125.125,0,0,1,0-.057.188.188,0,0,1,.232-.135l.053.021a.183.183,0,0,1,.1.163c0,.106-.033.371-.094.791a10.3,10.3,0,0,0-.139,1.224,2.4,2.4,0,0,0,.155.942.55.55,0,0,0,.514.407.184.184,0,0,0,.069,0,.92.92,0,0,0,.518-.408,2.727,2.727,0,0,0,.432-.958l.261-1.978a.323.323,0,0,1,.025-.086A.187.187,0,0,1,2594.677,6290.6Z" transform="translate(-2426.376 -6165.38)" fill="#fafafa"/>
        <path id="Path_138062" data-name="Path 138062" d="M2662.256,6292.975c-.057,0-.106-2.37-.106-5.3s.049-5.3.106-5.3.106,2.37.106,5.3S2662.313,6292.975,2662.256,6292.975Z" transform="translate(-2468.093 -6160.51)" fill="#f5f5f5"/>
        <path id="Path_138063" data-name="Path 138063" d="M2546.786,6292.975c-.061,0-.106-2.37-.106-5.3s.045-5.3.106-5.3.106,2.37.106,5.3S2546.843,6292.975,2546.786,6292.975Z" transform="translate(-2399.718 -6160.51)" fill="#e0e0e0"/>
        <path id="Path_138064" data-name="Path 138064" d="M2664.726,6292.975c-.057,0-.106-2.37-.106-5.3s.049-5.3.106-5.3.11,2.37.11,5.3S2664.775,6292.975,2664.726,6292.975Z" transform="translate(-2469.555 -6160.51)" fill="#f5f5f5"/>
        <path id="Path_138065" data-name="Path 138065" d="M2544.476,6292.975c-.057,0-.106-2.37-.106-5.3s.049-5.3.106-5.3.106,2.37.106,5.3S2544.533,6292.975,2544.476,6292.975Z" transform="translate(-2398.35 -6160.51)" fill="#e0e0e0"/>
        <path id="Path_138066" data-name="Path 138066" d="M2619.018,6286.7h0l6.085,4.895.053.045h-.069l-.816.212-5.135,1.35h-.02l-4.662-1.974-1.317-.563-.347-.151-.09-.041h0l.09.037.351.143,1.325.546,4.666,1.95h0l5.135-1.337.816-.212v.061l-6.073-4.927h0" transform="translate(-2438.811 -6163.074)" fill="#e0e0e0"/>
        <path id="Path_138067" data-name="Path 138067" d="M3012.089,6509.48l.33.31.444-.094-.2.412.232.392-.453-.057-.3.339-.085-.445-.42-.184.4-.22Z" transform="translate(-2826.356 -6381.726)" fill="#e0e0e0"/>
        <path id="Path_138068" data-name="Path 138068" d="M2998.051,6514.22l.228.188.282-.078-.11.273.163.244-.293-.02-.18.232-.073-.286-.277-.1.249-.159Z" transform="translate(-2818.155 -6384.533)" fill="#e0e0e0"/>
        <path id="Path_138069" data-name="Path 138069" d="M2982.63,6507.355l.359.02.224-.285.09.351.343.126-.306.192-.016.363-.277-.229-.347.1.13-.338Z" transform="translate(-2809.177 -6380.311)" fill="#e0e0e0"/>
        <path id="Path_138070" data-name="Path 138070" d="M3019.42,6499.171l.363.024.224-.285.09.351.338.126-.306.192-.012.363-.277-.232-.351.1.135-.339Z" transform="translate(-2830.962 -6375.467)" fill="#e0e0e0"/>
        <path id="Path_138071" data-name="Path 138071" d="M2998.47,6498.728l.233.016.138-.183.061.224.216.082-.2.122-.008.229-.179-.147-.22.065.086-.216Z" transform="translate(-2818.557 -6375.26)" fill="#e0e0e0"/>
        <path id="Path_138072" data-name="Path 138072" d="M2636.875,6286.957c0,.025-1.97-.041-4.4-.143s-4.393-.208-4.389-.232,1.966.041,4.393.147S2636.875,6286.937,2636.875,6286.957Z" transform="translate(-2447.924 -6163)" fill="#e0e0e0"/>
        <path id="Path_138073" data-name="Path 138073" d="M2569.425,6275.487h-58.36c-.763-1.733-.95-3.381,0-4.857h58.373A5.66,5.66,0,0,1,2569.425,6275.487Z" transform="translate(-2378.247 -6153.558)" fill="#e0e0e0"/>
        <rect id="Rectangle_14672" data-name="Rectangle 14672" width="31.621" height="1.77" transform="translate(144.894 118.459)" fill="#6595bf"/>
        <path id="Path_138074" data-name="Path 138074" d="M2516,6275.693a1.754,1.754,0,0,1-.461-.591,4.288,4.288,0,0,1-.306-3.512,1.63,1.63,0,0,1,.351-.661,6.953,6.953,0,0,1-.208.706,4.833,4.833,0,0,0-.155,1.725,4.967,4.967,0,0,0,.453,1.672,5.507,5.507,0,0,1,.326.662Z" transform="translate(-2380.953 -6153.735)" fill="#e0e0e0"/>
        <path id="Path_138075" data-name="Path 138075" d="M2519.091,6275.693a1.761,1.761,0,0,1-.461-.591,4.27,4.27,0,0,1-.31-3.512,1.776,1.776,0,0,1,.351-.661,5.218,5.218,0,0,1-.208.706,5.017,5.017,0,0,0-.155,1.725,4.785,4.785,0,0,0,.457,1.672,5.507,5.507,0,0,1,.326.662Z" transform="translate(-2382.782 -6153.735)" fill="#e0e0e0"/>
        <path id="Path_138076" data-name="Path 138076" d="M2649.3,6275.425a7.341,7.341,0,0,0,.024-4.756,4.213,4.213,0,0,1,.6,2.382,4.3,4.3,0,0,1-.62,2.374Z" transform="translate(-2460.484 -6153.581)" fill="#f5f5f5"/>
        <path id="Path_138077" data-name="Path 138077" d="M2646.607,6275.543c-.061,0,.184-1.04.175-2.329s-.245-2.309-.179-2.325a7.165,7.165,0,0,1,0,4.654Z" transform="translate(-2458.88 -6153.711)" fill="#f5f5f5"/>
        <rect id="Rectangle_14673" data-name="Rectangle 14673" width="4.658" height="23.166" transform="matrix(1, -0.005, 0.005, 1, 158.49, 9.809)" fill="#e0e0e0"/>
        <rect id="Rectangle_14674" data-name="Rectangle 14674" width="12.056" height="12.79" transform="translate(118.393 9.065) rotate(-0.573)" fill="#6595bf"/>
        <rect id="Rectangle_14675" data-name="Rectangle 14675" width="12.056" height="12.79" transform="matrix(1, -0.005, 0.005, 1, 130.161, 9.848)" fill="#f5f5f5"/>
        <path id="Path_138078" data-name="Path 138078" d="M2475.93,6016c8.01.065,16.045,0,24.063-.11a.13.13,0,0,0,.106-.151.134.134,0,0,0-.106-.105q-12.028-.066-24.064.146a.11.11,0,1,0,0,.22Z" transform="translate(-2357.759 -6002.557)" fill="#e0e0e0"/>
        <rect id="Rectangle_14676" data-name="Rectangle 14676" width="21.906" height="10.425" transform="matrix(1, -0.005, 0.005, 1, 110.64, 22.549)" fill="#6595bf"/>
        <rect id="Rectangle_14677" data-name="Rectangle 14677" width="21.906" height="10.421" transform="matrix(1, -0.005, 0.005, 1, 132.443, 22.427)" fill="#f5f5f5"/>
        <path id="Path_138079" data-name="Path 138079" d="M2457.47,6045.254c14.552.163,29.154,0,43.706-.216a.13.13,0,0,0,.106-.151.135.135,0,0,0-.106-.106c-14.552-.077-29.158-.069-43.706.253a.11.11,0,0,0,0,.221Z" transform="translate(-2346.828 -6019.799)" fill="#e0e0e0"/>
        <rect id="Rectangle_14678" data-name="Rectangle 14678" width="84.867" height="3.736" transform="translate(102.457 32.968)" fill="#e0e0e0"/>
        <rect id="Rectangle_14679" data-name="Rectangle 14679" width="3.446" height="12.741" transform="translate(116.352 34.762)" fill="#e0e0e0"/>
        <rect id="Rectangle_14680" data-name="Rectangle 14680" width="3.446" height="12.741" transform="translate(167.783 34.762)" fill="#e0e0e0"/>
        <rect id="Rectangle_14681" data-name="Rectangle 14681" width="4.658" height="31.862" transform="matrix(1, -0.01, 0.01, 1, 163.059, 0.046)" fill="#6595bf"/>
        <rect id="Rectangle_14682" data-name="Rectangle 14682" width="7.235" height="25.821" transform="matrix(1, -0.005, 0.005, 1, 167.734, 7.116)" fill="#f5f5f5"/>
        <path id="Path_138080" data-name="Path 138080" d="M2604.705,6012.966a53.454,53.454,0,0,1-7.235,0,26.216,26.216,0,0,1,3.618-.126A27.878,27.878,0,0,1,2604.705,6012.966Z" transform="translate(-2429.793 -6000.909)" fill="#e0e0e0"/>
        <path id="Path_138081" data-name="Path 138081" d="M2604.705,6010.307a51.807,51.807,0,1,1-3.618-.126A26.216,26.216,0,0,1,2604.705,6010.307Z" transform="translate(-2429.793 -5999.334)" fill="#e0e0e0"/>
        <path id="Path_138082" data-name="Path 138082" d="M2604.705,6054.553a52.007,52.007,0,0,1-7.235,0,53.454,53.454,0,0,1,7.235,0Z" transform="translate(-2429.793 -6025.537)" fill="#e0e0e0"/>
        <path id="Path_138083" data-name="Path 138083" d="M2604.705,6051.893a52.007,52.007,0,0,1-7.235,0A53.561,53.561,0,0,1,2604.705,6051.893Z" transform="translate(-2429.793 -6023.962)" fill="#e0e0e0"/>
        <path id="Path_138084" data-name="Path 138084" d="M2606.446,6029.336c-.069,0-.126-2.606-.126-5.815s.057-5.82.126-5.82.122,2.606.122,5.82S2606.516,6029.336,2606.446,6029.336Z" transform="translate(-2435.033 -6003.787)" fill="#e0e0e0"/>
        <rect id="Rectangle_14683" data-name="Rectangle 14683" width="7.876" height="19.492" transform="translate(174.99 13.423)" fill="#6595bf"/>
        <path id="Path_138085" data-name="Path 138085" d="M2591.015,5997.808a1.338,1.338,0,1,1-1.338-1.337h0A1.338,1.338,0,0,1,2591.015,5997.808Z" transform="translate(-2424.386 -5991.216)" fill="#e0e0e0"/>
        <rect id="Rectangle_14684" data-name="Rectangle 14684" width="0.828" height="18.953" transform="translate(164.875 10.271)" fill="#e0e0e0"/>
      </g>
      <g id="freepik--Character--inject-63" transform="translate(6474.125 6041.819)">
        <path id="Path_138086" data-name="Path 138086" d="M2597.234,6559.24h0l-30.214,6.705,33.546,2.093,25.165-7.444h-2.5Z" transform="translate(-2567.02 -6432.752)" fill="#e0e0e0"/>
        <path id="Path_138087" data-name="Path 138087" d="M2600.177,6555.14l-27.547,6.62v1.358l33.045.958,20.434-5.429.065-2.153Z" transform="translate(-2570.342 -6430.325)" fill="#fafafa"/>
        <path id="Path_138088" data-name="Path 138088" d="M2572.63,6572.729v-1.358l32.71.677.334,1.64Z" transform="translate(-2570.342 -6439.935)" fill="#6595bf"/>
        <path id="Path_138089" data-name="Path 138089" d="M2652.83,6564.4l20.833-5.942-.065,2.153-20.434,5.429Z" transform="translate(-2617.832 -6432.291)" fill="#e0e0e0"/>
        <path id="Path_138090" data-name="Path 138090" d="M2229.046,6342.48h.473l1.379.057,5.269.249,18.892.946h.09v.09c-.02.661-.041,1.4-.065,2.154v.073l-.069.021-20.429,5.44h-.049l-6.705-.2-26.331-.779h-.09v-1.509h.073l19.985-4.76,5.6-1.322,1.48-.338.379-.085.126-.024-.126.041-.379.1-1.472.367-5.592,1.354-19.985,4.833.073-.09v1.342l-.09-.094,26.34.75,6.7.2h0l20.438-5.417-.069.085c.024-.75.049-1.488.069-2.153l.085.094-18.892-1.016-5.261-.3-1.383-.085C2229.209,6342.5,2229.046,6342.48,2229.046,6342.48Z" transform="translate(-2199.211 -6217.665)" fill="#344154"/>
        <path id="Path_138091" data-name="Path 138091" d="M2246.947,6356.58a1.115,1.115,0,0,1-.228,0h-.657l-2.423-.037-7.986-.134c-3.12-.053-5.943-.119-7.986-.192-1.024-.037-1.852-.073-2.423-.106l-.657-.041a.858.858,0,0,1-.228-.028,1.088,1.088,0,0,1,.232,0h.657l2.423.037,7.986.131c3.12.053,5.943.122,7.986.2,1.024.037,1.847.069,2.418.1l.657.045a.694.694,0,0,1,.228.028Z" transform="translate(-2212.801 -6225.691)" fill="#344154"/>
        <path id="Path_138092" data-name="Path 138092" d="M2257.943,6354.5a.747.747,0,0,1-.229,0h-3.075l-7.986-.131c-3.12-.053-5.947-.122-7.99-.2-1.02-.037-1.848-.069-2.419-.1l-.657-.041a1.383,1.383,0,0,1-.228-.029,1.115,1.115,0,0,1,.228,0h.661l2.419.037,7.99.13c3.116.053,5.943.118,7.986.192,1.02.036,1.848.073,2.419.105l.657.041A1.045,1.045,0,0,1,2257.943,6354.5Z" transform="translate(-2219.315 -6224.483)" fill="#344154"/>
        <path id="Path_138093" data-name="Path 138093" d="M2265.937,6352.136a1.117,1.117,0,0,1-.229,0h-.661l-2.418-.037-7.986-.13c-3.12-.053-5.947-.118-7.99-.192-1.02-.036-1.848-.073-2.419-.105l-.656-.041a.858.858,0,0,1-.229-.028,1.081,1.081,0,0,1,.228,0h.661l2.418.036,7.99.131c3.116.053,5.943.118,7.986.2,1.02.037,1.847.069,2.418.1l.657.041A1.444,1.444,0,0,1,2265.937,6352.136Z" transform="translate(-2224.046 -6223.062)" fill="#344154"/>
        <path id="Path_138094" data-name="Path 138094" d="M2274.207,6350.286a.742.742,0,0,1-.232,0h-.657l-2.423-.037-7.986-.13c-3.12-.053-5.942-.123-7.986-.2-1.024-.037-1.848-.069-2.418-.1l-.657-.041a1.383,1.383,0,0,1-.229-.029,1.083,1.083,0,0,1,.229,0h.657l2.423.033,7.986.135c3.12.053,5.943.118,7.986.191,1.024.037,1.852.074,2.423.106l.657.041A.879.879,0,0,1,2274.207,6350.286Z" transform="translate(-2228.943 -6221.967)" fill="#344154"/>
        <path id="Path_138095" data-name="Path 138095" d="M2319.3,6167.8s15.935-3.9,23.436,1.884c5.983,4.613,10.311,12.187,10.311,12.187l-13.031,16.62,7.268,36.838h-56.321l-9.16-24.639-14.348-16.555s13.2-15.091,17.13-16.938S2319.3,6167.8,2319.3,6167.8Z" transform="translate(-2238.317 -6113.467)" fill="#5ab4f9"/>
        <path id="Path_138096" data-name="Path 138096" d="M2419.8,6261.856l.065.053.184.159.7.6,2.57,2.21h.024v.033c-.147,1.289-.326,2.855-.53,4.6l-.126-.085,3.98-2.37.045-.024h.045l4.209,1.941-.147.118-1.011-4.519c0-.045-.029.094.024-.1h0l.025-.028.049-.053.1-.11.2-.216.408-.433.8-.856,1.554-1.672.065.171-4.613-.44h-.049l-.024-.045-2.248-4.054h.155l-1.86,4.246v.029h-.024l-3.332.616-.9.163-.237.041h0l.22-.049.873-.187,3.369-.706-.045.037,1.819-4.258.069-.159.086.151c.693,1.224,1.452,2.594,2.268,4.042l-.078-.053,4.613.432h.212l-.147.155-1.55,1.676-.816.856-.408.432-.2.216-.1.11-.053.053-.025.029h0c.053-.187,0-.049.025-.094l1.011,4.522.045.2-.192-.085-4.2-1.958h.09l-3.993,2.349-.151.09.024-.171c.216-1.754.408-3.312.575-4.6v.057l-2.553-2.3-.665-.6-.167-.155Z" transform="translate(-2328.53 -6166.757)" fill="#fafafa"/>
        <path id="Path_138097" data-name="Path 138097" d="M2229.91,6229.38s-17.13,19.7-23.925,25.332-5.531,16.612-1.77,18.068c1.468.567,23.007-.241,23.007-.241l15.311-24.626Z" transform="translate(-2199.052 -6150.693)" fill="#5ab4f9"/>
        <g id="Group_63192" data-name="Group 63192" transform="translate(91.849 82.455)" opacity="0.2">
          <path id="Path_138098" data-name="Path 138098" d="M2421.223,6265.9c-.2-3.854,5.486-6.575,8.284-5.877-.534-5.824-1.224-15.784.408-21.4,1.79,8.316,2.671,17.13,5.792,25.039" transform="translate(-2421.218 -6238.62)"/>
        </g>
        <path id="Path_138099" data-name="Path 138099" d="M2430.276,6221.078l5.4,22.718s-9.022-5.575-14.34,1.835l4.079,12.089,36.507.126s2.79-10.935-.518-19.708c-1.391-3.67-17.228-33.979-17.228-33.979l-11.392,3.957Z" transform="translate(-2329.442 -6135.76)" fill="#5ab4f9"/>
        <path id="Path_138100" data-name="Path 138100" d="M2425.2,6312.187a1.969,1.969,0,0,1-.1-.232l-.245-.678-.885-2.541c-.746-2.186-1.786-5.232-2.981-8.74v-.045l.029-.041a7.98,7.98,0,0,1,1.375-1.692,7.142,7.142,0,0,1,1.941-1.224,10.179,10.179,0,0,1,3.442-.815,16.192,16.192,0,0,1,1.672-.024,8.426,8.426,0,0,1,1.6.188,9.108,9.108,0,0,1,4.825,2.59,11.26,11.26,0,0,1,2.358,2.854,3.871,3.871,0,0,1,.408,1.3,6.928,6.928,0,0,0-.5-1.256,11.484,11.484,0,0,0-2.39-2.8,9.021,9.021,0,0,0-4.76-2.508,8.041,8.041,0,0,0-1.562-.175,14.914,14.914,0,0,0-1.632.028,10.094,10.094,0,0,0-3.352.775,6.944,6.944,0,0,0-1.884,1.2,7.68,7.68,0,0,0-1.358,1.632v-.086c1.167,3.516,2.182,6.571,2.908,8.765.351,1.077.628,1.941.816,2.561l.216.686A1.7,1.7,0,0,1,2425.2,6312.187Z" transform="translate(-2329.234 -6190.227)" fill="#344154"/>
        <path id="Path_138101" data-name="Path 138101" d="M2462.348,6300.309c-.029.028-.33-.318-.918-.746a6.174,6.174,0,0,0-2.582-1.085,5.959,5.959,0,0,0-1.546-.033,5.24,5.24,0,0,0-1.224.31c-.677.265-1.04.546-1.064.51s.077-.086.241-.212a4.058,4.058,0,0,1,.767-.436,4.981,4.981,0,0,1,1.256-.363,5.5,5.5,0,0,1,4.241,1.191,4.431,4.431,0,0,1,.636.6C2462.3,6300.207,2462.368,6300.3,2462.348,6300.309Z" transform="translate(-2349.38 -6191.444)" fill="#344154"/>
        <path id="Path_138102" data-name="Path 138102" d="M2447.764,6262.985a1.932,1.932,0,0,1-.094-.253c-.057-.187-.134-.428-.232-.726-.2-.636-.469-1.554-.816-2.7-.653-2.284-1.509-5.449-2.357-8.973s-1.53-6.734-1.982-9.067c-.229-1.163-.408-2.109-.518-2.761-.049-.31-.09-.562-.122-.755a1.442,1.442,0,0,1-.032-.265,1.324,1.324,0,0,1,.073.257c.041.191.1.44.163.746.143.673.343,1.607.583,2.749.493,2.321,1.2,5.522,2.039,9.047s1.676,6.688,2.3,8.973c.306,1.125.555,2.039.734,2.712.078.306.143.551.192.742A1.022,1.022,0,0,1,2447.764,6262.985Z" transform="translate(-2341.444 -6155.496)" fill="#344154"/>
        <path id="Path_138103" data-name="Path 138103" d="M2442.739,6230.39a7.511,7.511,0,0,1-.591,1.717,7.718,7.718,0,0,1-.787,1.631,7.8,7.8,0,0,1,.591-1.721A7.585,7.585,0,0,1,2442.739,6230.39Z" transform="translate(-2341.296 -6151.292)" fill="#344154"/>
        <g id="Group_63193" data-name="Group 63193" transform="translate(37.164 85.319)" opacity="0.2">
          <path id="Path_138104" data-name="Path 138104" d="M2289.5,6245.64c-.783,6.934-1.57,15.14-2.357,22.077l6.334-10.2" transform="translate(-2287.14 -6245.64)"/>
        </g>
        <path id="Path_138105" data-name="Path 138105" d="M2292.128,6244c.057,0,1.856,4.915,4.017,11.012s3.875,11.073,3.818,11.094-1.852-4.894-4.017-11.012S2292.075,6244,2292.128,6244Z" transform="translate(-2252.929 -6159.35)" fill="#344154"/>
        <path id="Path_138106" data-name="Path 138106" d="M2297.3,6212.229v1.244c0,.815-.033,1.949-.057,3.39v.032h-.029c-1.085.714-2.4,1.57-3.879,2.537v-.151l4.368,1.545h.049v.049l1.2,4.486-.184-.037,2.826-3.671.09-.045h.591l.592.033,1.167.065,2.276.122-.09.163-2.61-3.83-.029-.041v-.049c.6-1.546,1.167-2.993,1.68-4.315l.1.11-4.449,1.285h-.057l-2.606-2.088-.7-.587-.183-.155-.065-.057.057.041.179.138.7.555,2.7,2.137h-.057l4.442-1.325.163-.049-.061.163c-.506,1.326-1.065,2.773-1.656,4.328v-.094l2.622,3.821.118.176h-.208l-2.28-.123-1.167-.061-.591-.033h-.591l.09-.041-2.83,3.67-.126.167-.057-.2c-.408-1.57-.816-3.079-1.183-4.486l.061.069-4.36-1.57-.163-.058.143-.094,3.9-2.5-.029.053c.057-1.46.106-2.623.139-3.438,0-.379.029-.677.041-.893v-.229a.528.528,0,0,1,0-.159Z" transform="translate(-2253.505 -6140.538)" fill="#fafafa"/>
        <path id="Path_138107" data-name="Path 138107" d="M2271.7,6253.53a.434.434,0,0,1-.053.069l-.163.179-.612.682-2.276,2.508-.025.024h-.033l-4.588-.648.09-.126,2.263,4.042.025.044v.045c-.645,1.3-1.334,2.7-2.039,4.156l-.114-.15,4.548-.894.094.028h0l.029.024.053.053.106.106.212.2.408.408.816.816,1.631,1.595-.175.061c.2-1.6.383-3.141.563-4.6v-.053h.045l4.111-2.141v.15l-4.2-1.97h-.028v-.033c-.229-1.427-.408-2.557-.53-3.348-.057-.408-.106-.686-.139-.906a1.4,1.4,0,0,0-.037-.237v-.021a2.176,2.176,0,0,0,.045.225c.037.212.094.506.163.881.147.816.355,1.941.616,3.385l-.033-.049,4.209,1.93.159.073-.155.082-4.1,2.161.053-.073c-.176,1.456-.359,2.993-.547,4.6l-.029.208-.151-.147-1.631-1.595-.816-.816-.408-.408-.212-.208-.11-.106-.053-.049-.025-.028h0l.094.028-4.548.893-.208.041.094-.191,2.064-4.148v.049l-2.243-4.055-.082-.15.167.024,4.584.7h-.057l2.37-2.492.62-.648.159-.159C2271.681,6253.546,2271.7,6253.53,2271.7,6253.53Z" transform="translate(-2236.173 -6164.993)" fill="#fafafa"/>
        <path id="Path_138108" data-name="Path 138108" d="M2346.06,6248.021l.069.058.184.155.7.6,2.57,2.211.024.021v.024c-.151,1.289-.33,2.854-.534,4.6l-.126-.086c1.224-.713,2.549-1.517,3.981-2.369l.045-.024h.049l4.2,1.953-.147.118-.991-4.486c0-.045-.024.094.024-.1h0l.029-.028.049-.053.1-.11.2-.221.408-.432.8-.857,1.55-1.672.069.171-4.617-.473h-.053l-.025-.045c-.816-1.452-1.558-2.811-2.243-4.054h.151c-.714,1.631-1.334,3.051-1.86,4.246v.029h-.032l-3.349.64-.9.163-.237.041h0l.22-.049.877-.187,3.369-.706-.045.041c.51-1.224,1.122-2.631,1.819-4.262l.065-.159.085.151,2.268,4.042-.077-.049,4.633.408h.208l-.143.155-1.55,1.677q-.408.407-.8.856l-.408.432-.2.216-.1.11-.049.053-.025.028h0l.025-.1c.347,1.55.681,3.063,1.007,4.523l.049.2-.191-.086-4.2-1.953h.09l-4,2.349-.147.09.021-.171c.22-1.754.408-3.312.575-4.6l.02.053-2.553-2.3-.685-.563-.167-.154Z" transform="translate(-2284.865 -6158.592)" fill="#fafafa"/>
        <path id="Path_138109" data-name="Path 138109" d="M2385.63,6210.5l.065.053.184.159.689.6,2.57,2.211.024.021v.032c-.147,1.289-.326,2.855-.53,4.6l-.126-.085,3.98-2.37.045-.024.045.021,4.209,1.941-.147.118-1.011-4.52c0-.044-.029.094.024-.1h0l.025-.028.049-.058.1-.105.2-.221.408-.432.816-.852,1.554-1.673.065.172-4.613-.441h-.065l-.025-.044c-.816-1.452-1.558-2.814-2.247-4.055h.151l-1.856,4.246v.028h-.032l-3.332.587-.9.164-.237.041h0l.22-.049.873-.187,3.369-.705-.045.036,1.819-4.258.069-.159.086.151,2.264,4.042-.073-.053,4.613.433h.212l-.147.155-1.55,1.676-.816.856-.408.433-.2.216-.1.11-.053.053-.024.029h0c.053-.188,0-.049.024-.094l1.011,4.523.045.2-.192-.086-4.2-1.958h.049l-3.977,2.386-.151.085.025-.167c.216-1.753.408-3.312.571-4.6l.024.058-2.553-2.309-.665-.6-.167-.155Z" transform="translate(-2308.296 -6136.357)" fill="#fafafa"/>
        <path id="Path_138110" data-name="Path 138110" d="M2385.63,6302.646l.065.053.184.155.7.6,2.569,2.21h.025v.037c-.147,1.289-.326,2.854-.53,4.6l-.126-.082,3.969-2.329.045-.029.045.024,4.221,1.95-.139.1-1.02-4.527c0-.041-.029.094.024-.094h0l.024-.029.049-.053.1-.11.2-.216.408-.433.816-.856,1.554-1.672.065.175-4.613-.445h-.061l-.024-.045-2.247-4.05h.151l-1.848,4.2v.032h-.033l-3.34.624-.9.163-.236.045h0l.22-.045.873-.187,3.369-.706-.045.037c.514-1.2,1.122-2.631,1.819-4.262l.069-.159.086.151,2.264,4.042-.073-.049,4.613.428.212.021-.147.155-1.55,1.672c-.265.286-.526.571-.816.856l-.408.433-.2.22-.1.106-.053.057-.024.037h0c.053-.191,0-.053.024-.094l1.012,4.519.045.208-.192-.09-4.2-1.954h.049l-3.993,2.349-.151.085.025-.171c.216-1.754.408-3.308.571-4.6l.024.053-2.553-2.3-.665-.6-.167-.151Z" transform="translate(-2308.296 -6190.923)" fill="#fafafa"/>
        <path id="Path_138111" data-name="Path 138111" d="M2317.39,6298.367l.069.053.183.155.7.6,2.57,2.21.024.024v.033c-.151,1.289-.33,2.855-.534,4.6l-.126-.082,3.98-2.37.045-.025.045.021,4.209,1.941-.147.118-1.012-4.523c0-.041-.024.1.025-.094h0l.024-.024.053-.057.1-.106.2-.22.408-.433.816-.856c.526-.567,1.048-1.122,1.554-1.672l.069.175-4.613-.44h-.053l-.025-.041-2.243-4.054h.151c-.714,1.631-1.338,3.047-1.86,4.242v.033h-.032l-3.336.612-.9.163-.237.044h0l.22-.049.877-.187,3.369-.706-.049.037c.514-1.2,1.125-2.626,1.823-4.262l.065-.155.086.151,2.268,4.038-.077-.049,4.613.428h.212l-.143.155-1.554,1.676-.791.857-.408.432-.2.217-.1.11-.049.053-.029.028h0c.053-.187,0-.053.029-.094.343,1.55.681,3.063,1.007,4.523l.045.2-.192-.09-4.2-1.953h.094l-4.03,2.329-.147.085.021-.171c.22-1.75.408-3.308.575-4.6l.02.057-2.553-2.3-.665-.6-.163-.155Z" transform="translate(-2267.888 -6188.406)" fill="#fafafa"/>
        <path id="Path_138112" data-name="Path 138112" d="M2447.583,6178.29a.9.9,0,0,1,0,.208l-.082.607v-.024l3.263,3.288.106.106-.151.021-4.6.563.069-.049c-.657,1.256-1.387,2.643-2.149,4.107l-.1.184-.086-.192c-.616-1.329-1.273-2.745-1.946-4.205l.078.062-.216-.037-4.348-.754-.208-.033.155-.143,3.41-3.141-.033.082c-.237-1.693-.453-3.238-.645-4.588l-.02-.151.135.074,4.021,2.3h-.037l.816-.465a3.17,3.17,0,0,1,.281-.147,1.708,1.708,0,0,1-.265.18l-.816.494h0l-4.079-2.227.11-.078c.2,1.346.428,2.888.681,4.585v.049l-.037.032-3.4,3.153-.053-.18,4.348.746.22.041h.057v.049c.673,1.46,1.325,2.875,1.937,4.209h-.183l2.17-4.078.021-.045h.049l4.617-.522-.045.123-3.2-3.349h0c.049-.253.085-.453.11-.6A1.307,1.307,0,0,1,2447.583,6178.29Z" transform="translate(-2338.844 -6118.018)" fill="#fafafa"/>
        <path id="Path_138113" data-name="Path 138113" d="M2456.454,6230a.3.3,0,0,1,0,.086,1.829,1.829,0,0,0,.041.24c.032.216.081.518.143.905.126.792.3,1.921.526,3.345v.033l-.024.024-3.385,3.161-.045-.143,4.568.771h.049l.025.049,1.945,4.205h-.187l2.157-4.1.082-.057h.294l.3-.037.583-.069,1.163-.135,2.264-.269-.061.175-3.226-3.324-.037-.036v-.049c.326-1.632.632-3.153.914-4.544l.123.094-4.168,2.039h-.057l-2.941-1.692-.791-.461-.208-.118-.073-.049.065.032.2.106.787.408,3.022,1.631h-.057l4.144-2.063.155-.078-.033.167c-.273,1.395-.571,2.92-.893,4.547l-.025-.085c1.028,1.048,2.109,2.161,3.239,3.315l.147.151-.212.024-2.264.269-1.163.139-.583.069-.294.037h-.3l.082-.053c-.738,1.4-1.46,2.773-2.162,4.078l-.1.188-.085-.191-1.937-4.209.073.053-4.531-.75-.171-.033.126-.114,3.418-3.132v.057c-.192-1.452-.343-2.6-.449-3.409-.049-.379-.09-.673-.118-.89a.619.619,0,0,0-.024-.224A.48.48,0,0,1,2456.454,6230Z" transform="translate(-2348.503 -6151.06)" fill="#fafafa"/>
        <path id="Path_138114" data-name="Path 138114" d="M2479.1,6285.652l-.045.073-.126.208-.481.779-1.794,2.855v.029h-.033l-4.633.175.065-.138,2.949,3.573.029.041v.049c-.408,1.395-.816,2.9-1.281,4.454l-.135-.126,4.311-1.688h.1l.029.024.065.041.122.082.245.167.49.33.967.656,1.888,1.281-.163.094c-.094-1.632-.179-3.161-.265-4.629v-.061l.041-.033,3.671-2.834.029.147-4.487-1.191h-.032v-.033c-.477-1.362-.853-2.447-1.118-3.2-.126-.367-.224-.656-.3-.864l-.077-.229-.024-.082.029.065a.758.758,0,0,0,.082.208l.314.84c.29.758.7,1.848,1.224,3.222h-.045l4.486,1.15.167.045-.139.106-3.646,2.855.037-.082c.086,1.464.179,3.01.277,4.625v.208l-.176-.118-1.888-1.277-.971-.657-.485-.33-.249-.167-.122-.082-.061-.041-.029-.021h.1l-4.315,1.689-.2.074.057-.2,1.293-4.45v.085c-1.056-1.289-2.039-2.5-2.928-3.589l-.11-.135h.171l4.633-.13-.053.028c.816-1.223,1.444-2.194,1.888-2.875l.5-.746.126-.187C2479.078,6285.669,2479.1,6285.648,2479.1,6285.652Z" transform="translate(-2359.327 -6183.983)" fill="#fafafa"/>
        <path id="Path_138115" data-name="Path 138115" d="M2208.115,6295.878v.085a.73.73,0,0,1-.032.241l-.135.906c-.122.795-.294,1.925-.51,3.353v.041h-.033l-4.185,1.99v-.151l4.119,2.117.049.024v.053c.184,1.436.384,2.985.587,4.592l-.175-.061,3.292-3.263.1-.028h.143l.147.028.29.057.583.11,1.146.221,2.239.407-.11.151-2.072-4.144-.024-.049.024-.045c.816-1.452,1.558-2.81,2.243-4.054l.09.127-4.584.677h-.033l-.024-.024-2.292-2.447-.616-.677-.159-.18-.057-.065.053.049.155.163.624.641,2.386,2.483h-.057l4.568-.75.171-.028-.082.154-2.223,4.079v-.09l2.088,4.14.094.188-.208-.041-2.243-.408-1.146-.22-.579-.11-.294-.057-.143-.024h-.143l.094-.029-3.3,3.263-.151.146-.029-.208-.571-4.638.053.078-4.111-2.142-.155-.077.159-.074,4.2-1.954-.037.049c.257-1.444.457-2.586.6-3.389q.106-.563.159-.881l.041-.224A.233.233,0,0,1,2208.115,6295.878Z" transform="translate(-2200.141 -6190.065)" fill="#fafafa"/>
        <path id="Path_138116" data-name="Path 138116" d="M2395.615,6095.107a7.482,7.482,0,0,0,3.716-8.439c-.408-1.443-1.26-2.752-1.513-4.233-.408-2.3.7-4.547,1.415-6.771s.914-4.988-.816-6.558c-1.122-1.016-2.757-1.224-4.021-2.04a10.772,10.772,0,0,1-2.855-3.349,6.669,6.669,0,0,0-3.263-2.9c-1.424-.452-3.263.29-3.487,1.754" transform="translate(-2307.799 -6050.803)" fill="#344154"/>
        <path id="Path_138117" data-name="Path 138117" d="M2300.928,6046.75c1.933-1.909,1.766-5.331.041-7.431a8.954,8.954,0,0,0-7.342-2.855,12.5,12.5,0,0,0-9.789,5.763c-1.125,1.8-1.88,4-3.7,5.106-1.595.971-3.622.84-5.384,1.469a8.333,8.333,0,0,0-4.862,5.392,18.278,18.278,0,0,0-.538,7.439c.216,2.288.571,4.776-.624,6.738s-3.483,2.765-5.114,4.3a8.083,8.083,0,0,0-.021,11.3c.975.921,2.255,1.688,2.626,2.981.339,1.179-.208,2.414-.322,3.634a5.456,5.456,0,0,0,5.991,5.641c1.578-.245,3.116-1.224,4.662-.815s2.41,1.953,3.573,3.034a6.828,6.828,0,0,0,8.585.347c1.028-.815,1.909-1.97,3.2-2.161s2.524.681,3.83.656c1.7-.037,3-1.578,3.671-3.141s1.015-3.308,2.039-4.682c1.317-1.8,3.532-2.655,5.445-3.809a17.277,17.277,0,0,0,5.82-23.729,17.764,17.764,0,0,0-1.387-1.966" transform="translate(-2234.679 -6036.453)" fill="#344154"/>
        <path id="Path_138118" data-name="Path 138118" d="M2331.4,6065.224a3.67,3.67,0,0,1,3.985,2.953h0l8.3,48.895c1.146,5.738-6.526,10.755-12.676,11.934h0c-6.216,1.187-7.068-1.8-8.32-7.228-2.088-9.062-2.814-12.48-2.806-12.427s-8.1.371-11.893-9.487c-1.884-4.895-3.406-13.271-4.425-20.16-.922-6.2,1.533-14.577,7.749-15.234Z" transform="translate(-2259.593 -6053.042)" fill="#b78876"/>
        <path id="Path_138119" data-name="Path 138119" d="M2312.813,6114.649a1.338,1.338,0,0,0,1.542,1.052,1.277,1.277,0,0,0,1.1-1.428v-.041a1.338,1.338,0,0,0-1.542-1.052,1.28,1.28,0,0,0-1.1,1.439.065.065,0,0,0,0,.028Z" transform="translate(-2265.172 -6081.875)" fill="#344154"/>
        <path id="Path_138120" data-name="Path 138120" d="M2310.468,6110.7c.2.139,1.036-.816,2.447-1.105s2.59.188,2.708,0c.057-.094-.176-.363-.693-.6a3.709,3.709,0,0,0-2.21-.2,3.54,3.54,0,0,0-1.9,1.089C2310.456,6110.306,2310.374,6110.645,2310.468,6110.7Z" transform="translate(-2263.768 -6079.245)" fill="#344154"/>
        <path id="Path_138121" data-name="Path 138121" d="M2347.2,6107.251a1.338,1.338,0,0,0,1.542,1.061,1.277,1.277,0,0,0,1.1-1.436v-.033a1.338,1.338,0,0,0-1.542-1.052,1.277,1.277,0,0,0-1.105,1.431A.112.112,0,0,0,2347.2,6107.251Z" transform="translate(-2285.531 -6077.499)" fill="#344154"/>
        <path id="Path_138122" data-name="Path 138122" d="M2344.561,6102.979c.2.139,1.036-.815,2.447-1.1s2.59.188,2.7,0c.061-.09-.171-.363-.689-.6a3.67,3.67,0,0,0-2.215-.2,3.531,3.531,0,0,0-1.9,1.093C2344.528,6102.583,2344.447,6102.922,2344.561,6102.979Z" transform="translate(-2283.949 -6074.67)" fill="#344154"/>
        <path id="Path_138123" data-name="Path 138123" d="M2331.96,6115.929a9.58,9.58,0,0,0-2.374.073c-.367.041-.722.041-.815-.191a1.865,1.865,0,0,1,0-1.118c.155-.937.314-1.929.481-2.961.645-4.213,1.028-7.647.861-7.672s-.816,3.373-1.477,7.582c-.151,1.04-.294,2.04-.432,2.974a2.123,2.123,0,0,0,.114,1.448.932.932,0,0,0,.706.408,2.155,2.155,0,0,0,.628-.045A9.4,9.4,0,0,0,2331.96,6115.929Z" transform="translate(-2274.249 -6076.486)" fill="#344154"/>
        <path id="Path_138124" data-name="Path 138124" d="M2343.85,6164.988a26.544,26.544,0,0,0,12.884-6.559s-1.913,7.937-12.325,9.161Z" transform="translate(-2283.556 -6108.681)" fill="#aa6550"/>
        <path id="Path_138125" data-name="Path 138125" d="M2340.615,6139.073a2.582,2.582,0,0,1,2.072-1.428,2.385,2.385,0,0,1,1.782.514,1.513,1.513,0,0,1,.469,1.656,1.735,1.735,0,0,1-1.745.86,5.493,5.493,0,0,1-2.04-.689,1.617,1.617,0,0,1-.493-.33.486.486,0,0,1-.11-.526" transform="translate(-2281.582 -6096.363)" fill="#aa6550"/>
        <path id="Path_138126" data-name="Path 138126" d="M2342.831,6133.376c-.233.037.09,1.562-.987,2.929s-2.737,1.542-2.7,1.758c0,.1.408.22,1.117.09a3.863,3.863,0,0,0,2.276-1.378,3.4,3.4,0,0,0,.73-2.447C2343.185,6133.687,2342.932,6133.344,2342.831,6133.376Z" transform="translate(-2280.767 -6093.844)" fill="#344154"/>
        <path id="Path_138127" data-name="Path 138127" d="M2341.719,6096.666c.22.351,1.587-.13,3.263-.281s3.128,0,3.263-.379c.061-.184-.249-.494-.865-.75a5.712,5.712,0,0,0-4.992.5C2341.862,6096.111,2341.621,6096.474,2341.719,6096.666Z" transform="translate(-2282.282 -6071.061)" fill="#344154"/>
        <path id="Path_138128" data-name="Path 138128" d="M2309.539,6104.374c.318.27,1.224-.269,2.378-.534s2.2-.245,2.357-.628c.065-.184-.159-.474-.657-.681a3.528,3.528,0,0,0-3.813.938C2309.473,6103.885,2309.408,6104.228,2309.539,6104.374Z" transform="translate(-2263.202 -6075.454)" fill="#344154"/>
        <path id="Path_138129" data-name="Path 138129" d="M2351.84,6056.958a10.176,10.176,0,0,1,7.749-3.263,7.028,7.028,0,0,1,6.358,4.895c.449,1.79.086,3.87,1.224,5.3s3.1,1.607,4.674,2.447a6.232,6.232,0,0,1,2.994,7.056c-.673,2.284-2.692,4.287-2.39,6.636.285,2.21,2.508,3.646,3.414,5.685,1,2.252.22,4.968-1.309,6.934a21.426,21.426,0,0,1-5.836,4.662c-1.66,1.036-3.446,2.113-5.4,2.088a5.862,5.862,0,0,1-5.225-3.875,7.919,7.919,0,0,1,.816-6.616c1-1.721,2.573-3.344,2.476-5.3-.147-3.071-4.205-4.747-4.633-7.79-.224-1.57.591-3.083,1.224-4.548s1.081-3.234.212-4.563c-1.13-1.729-3.715-1.688-5.51-2.749a4.686,4.686,0,0,1-2.251-4.364,4.833,4.833,0,0,1,3.018-3.952" transform="translate(-2287.44 -6046.653)" fill="#344154"/>
        <path id="Path_138130" data-name="Path 138130" d="M2314.977,6052.884a7.146,7.146,0,0,1-5.453,8.5,7.289,7.289,0,0,1-1.293.159c-1.631.049-3.5-.371-4.666.75s-.816,3.328-1.852,4.69c-1.46,1.949-4.633,1.1-6.771,2.271-1.631.9-2.386,2.822-3.263,4.486s-2.329,3.4-4.205,3.263a21.274,21.274,0,0,1-.314-4.854,7.113,7.113,0,0,1,1.844-4.4,25.762,25.762,0,0,0,1.974-1.8c1.224-1.5,1.1-3.626,1.652-5.469a7.818,7.818,0,0,1,4.988-5.119c1.962-.636,4.16-.481,6.008-1.395,1.366-.678,2.427-1.885,3.83-2.48,2.737-1.159,5.828.318,8.337,1.909" transform="translate(-2249.973 -6045.111)" fill="#344154"/>
        <path id="Path_138131" data-name="Path 138131" d="M2353.626,6136.091c-.041.041-.163,0-.273-.122s-.163-.229-.122-.273.163,0,.273.123S2353.667,6136.05,2353.626,6136.091Z" transform="translate(-2289.103 -6095.208)" fill="#344154"/>
        <path id="Path_138132" data-name="Path 138132" d="M2270.08,6103.247h.167l.5.032a12.883,12.883,0,0,0,1.9-.077,11.748,11.748,0,0,0,2.9-.746,11.356,11.356,0,0,0,3.373-2.064,11.165,11.165,0,0,0,2.806-3.862,11.639,11.639,0,0,0,.967-5.376,24.518,24.518,0,0,0-1.521-5.91,18.738,18.738,0,0,1-.816-3.161,9.549,9.549,0,0,1,.09-3.369,5.662,5.662,0,0,1,1.595-2.957,5.009,5.009,0,0,1,1.4-.909,9.379,9.379,0,0,1,1.55-.5c1.04-.253,2.08-.408,3.039-.73a5.89,5.89,0,0,0,1.342-.649,4.435,4.435,0,0,0,1.04-1.011,8.222,8.222,0,0,0,1.158-2.562c.265-.885.477-1.766.763-2.594a8.2,8.2,0,0,1,2.778-3.94,7.955,7.955,0,0,1,3.671-1.578,8.268,8.268,0,0,1,3.018.114,7.808,7.808,0,0,1,1.8.648,4.973,4.973,0,0,1,.575.33s-.2-.11-.6-.293a8.457,8.457,0,0,0-1.795-.6,8.248,8.248,0,0,0-2.981-.078,7.778,7.778,0,0,0-3.589,1.582,8.03,8.03,0,0,0-2.708,3.875c-.277.815-.481,1.7-.747,2.59a8.385,8.385,0,0,1-1.183,2.627,4.67,4.67,0,0,1-1.081,1.056,6.12,6.12,0,0,1-1.391.678c-.983.334-2.039.489-3.055.742a8.909,8.909,0,0,0-1.513.489,4.778,4.778,0,0,0-1.338.873,5.443,5.443,0,0,0-1.529,2.854,9.272,9.272,0,0,0-.09,3.288,19.7,19.7,0,0,0,.816,3.128,24.439,24.439,0,0,1,1.521,5.963,11.743,11.743,0,0,1-1,5.461,11.317,11.317,0,0,1-11.135,6.722l-.493-.053A1.15,1.15,0,0,1,2270.08,6103.247Z" transform="translate(-2239.874 -6051.104)" fill="#455a64"/>
        <path id="Path_138133" data-name="Path 138133" d="M2318.85,6043.135a.754.754,0,0,1,.143-.135,4.555,4.555,0,0,1,.437-.35,8.342,8.342,0,0,1,1.807-1,9.214,9.214,0,0,1,11.722,4.254,8.462,8.462,0,0,1,.738,1.93,5.013,5.013,0,0,1,.114.546.642.642,0,0,1,0,.2,12.47,12.47,0,0,0-1.007-2.6,9.493,9.493,0,0,0-1.847-2.373,8.871,8.871,0,0,0-6.746-2.447,9.467,9.467,0,0,0-2.941.636A12.052,12.052,0,0,0,2318.85,6043.135Z" transform="translate(-2268.753 -6039.107)" fill="#455a64"/>
        <path id="Path_138134" data-name="Path 138134" d="M2371.108,6101.739l.122-.065.371-.176a12.324,12.324,0,0,0,1.346-.783,11.144,11.144,0,0,0,3.748-4.262,12.306,12.306,0,0,0,.689-1.758,11.229,11.229,0,0,0,.367-2.015,11.019,11.019,0,0,0-.559-4.458,10.7,10.7,0,0,0-2.627-4.193c-.616-.612-1.3-1.183-1.958-1.807a8.846,8.846,0,0,1-1.742-2.149,12.129,12.129,0,0,1-1.195-5.277c-.049-.877-.065-1.733-.122-2.569a16.785,16.785,0,0,0-.339-2.427,9.23,9.23,0,0,0-.779-2.183,5.608,5.608,0,0,0-1.346-1.7,8.411,8.411,0,0,0-3.577-1.542,17.147,17.147,0,0,1-3.157-.909,5.993,5.993,0,0,1-2.039-1.411,3.384,3.384,0,0,1-.771-1.362,2,2,0,0,1-.082-.408.4.4,0,0,1,0-.139,3.22,3.22,0,0,0,.135.526,3.5,3.5,0,0,0,.791,1.322,6.085,6.085,0,0,0,2.039,1.354,17.511,17.511,0,0,0,3.145.873,8.649,8.649,0,0,1,3.671,1.554,5.772,5.772,0,0,1,1.338,1.746,9.633,9.633,0,0,1,.816,2.223,17.089,17.089,0,0,1,.347,2.447c.061.844.082,1.7.131,2.574a11.979,11.979,0,0,0,1.171,5.188c.889,1.615,2.427,2.671,3.671,3.912a10.814,10.814,0,0,1,2.663,4.278,11.337,11.337,0,0,1,.542,4.552,11.6,11.6,0,0,1-.408,2.039,12.215,12.215,0,0,1-.714,1.783,11.08,11.08,0,0,1-3.818,4.262,10.576,10.576,0,0,1-1.375.754l-.375.155A.789.789,0,0,1,2371.108,6101.739Z" transform="translate(-2291.613 -6050.485)" fill="#455a64"/>
        <path id="Path_138135" data-name="Path 138135" d="M2382.165,6076.863a.156.156,0,0,0-.077.037.842.842,0,0,1-.237.077,3.171,3.171,0,0,1-.954.09,4.518,4.518,0,0,1-3.051-1.631,7.632,7.632,0,0,1-1.223-2.1,22.936,22.936,0,0,1-.84-2.651,18.352,18.352,0,0,0-.987-2.88,6.485,6.485,0,0,0-2.007-2.5,9.1,9.1,0,0,0-2.924-1.383,19.739,19.739,0,0,0-2.994-.571,49.668,49.668,0,0,1-5.151-.661,10.055,10.055,0,0,1-3.263-1.224,5.572,5.572,0,0,1-1.015-.787,12.049,12.049,0,0,0,1.06.714,10.34,10.34,0,0,0,3.263,1.166c1.44.306,3.194.408,5.143.612a19.656,19.656,0,0,1,3.026.566,9.216,9.216,0,0,1,2.994,1.412,6.686,6.686,0,0,1,2.068,2.582,17.94,17.94,0,0,1,.987,2.916,24.063,24.063,0,0,0,.816,2.639,7.655,7.655,0,0,0,1.178,2.068,4.489,4.489,0,0,0,2.945,1.631A3.789,3.789,0,0,0,2382.165,6076.863Z" transform="translate(-2291.604 -6050.798)" fill="#455a64"/>
        <path id="Path_138136" data-name="Path 138136" d="M2373.112,6305.51l-9.25,3.418a44.687,44.687,0,0,0-4.221-1.477c-.922-.122-7.835,2.19-12.819,3.915-3.263,1.13-5.8,3.206-6.852,6.493h0l37.254-.126Z" transform="translate(-2281.259 -6195.773)" fill="#b78876"/>
        <path id="Path_138137" data-name="Path 138137" d="M2595.17,6484.784l2.961-2.064L2613.785,6510l1.044,4.6-4.543-2.28Z" transform="translate(-2583.689 -6387.441)" fill="#455a64"/>
        <path id="Path_138138" data-name="Path 138138" d="M2639.78,6557.837l1.105-.857.359,1.59Z" transform="translate(-2610.104 -6431.414)" fill="#344154"/>
        <path id="Path_138139" data-name="Path 138139" d="M2264.731,6336.683c0,.028-.163-.036-.408-.041a.472.472,0,0,0-.375.159.862.862,0,0,0-.151.522v.13l-.126-.033a.94.94,0,0,0-.787.1,1.186,1.186,0,0,0-.408.665l-.021.086h-.082a1.221,1.221,0,0,0-.579.077.769.769,0,0,0-.351.281c-.147.216-.167.408-.192.384s-.049-.18.09-.449a.878.878,0,0,1,.379-.371,1.382,1.382,0,0,1,.665-.118l-.106.082a1.3,1.3,0,0,1,.489-.816,1.1,1.1,0,0,1,.963-.114l-.122.094a.958.958,0,0,1,.224-.636.586.586,0,0,1,.5-.171A.679.679,0,0,1,2264.731,6336.683Z" transform="translate(-2234.636 -6214.127)" fill="#344154"/>
        <path id="Path_138140" data-name="Path 138140" d="M2223.951,6271.375a1.758,1.758,0,0,1,.6-2.149,1.7,1.7,0,0,1,2.365.085Z" transform="translate(-2212.47 -6174.033)" fill="#344154"/>
        <path id="Path_138141" data-name="Path 138141" d="M2225.7,6270.875l15.617,27.983a.9.9,0,0,1,1.33-.816l-16.159-27.942Z" transform="translate(-2213.595 -6174.805)" fill="#344154"/>
        <path id="Path_138142" data-name="Path 138142" d="M2253.556,6301.57a6,6,0,0,0-2.2-.706,2.04,2.04,0,0,0-1.958.983,1.966,1.966,0,0,0,0,1.513,4.9,4.9,0,0,0,.8,1.33,5.816,5.816,0,0,0,1.607,1.566,2.1,2.1,0,0,0,2.94-.461,2.128,2.128,0,0,0,.359-1.667,4.078,4.078,0,0,0-1.525-2.558" transform="translate(-2227.539 -6193.016)" fill="#b78876"/>
        <path id="Path_138143" data-name="Path 138143" d="M2221.962,6293.308s-2.447-.677-3.3,1.525c0,0-3.556,2.04-3.556,5.249a7.261,7.261,0,0,0-1.432,4.148v1.224a4.487,4.487,0,0,0,1.876,3.643,11.228,11.228,0,0,0,3.018,1.659,7.2,7.2,0,0,0,2.089.221,1,1,0,0,0,.816-1.53l-.334-.432a6.8,6.8,0,0,0,3.369,1.224s1.966-.065,2.529-1.269c.208-.449,3.9,1.016,4.315-.934,0,0,2.117.171,2.541-.844a3.686,3.686,0,0,0-.93-3.475C2232.113,6302.782,2221.962,6293.308,2221.962,6293.308Z" transform="translate(-2206.471 -6188.489)" fill="#b78876"/>
        <path id="Path_138144" data-name="Path 138144" d="M2231.52,6305.79a3.552,3.552,0,0,1,.408.375c.281.282.645.641,1.073,1.073.91.9,2.178,2.133,3.618,3.451s2.79,2.467,3.769,3.287l1.163.975a2.738,2.738,0,0,1,.408.375,2.552,2.552,0,0,1-.465-.31c-.29-.212-.7-.526-1.224-.922-1.007-.8-2.37-1.929-3.817-3.263s-2.7-2.569-3.581-3.5c-.44-.465-.791-.849-1.028-1.118A2.663,2.663,0,0,1,2231.52,6305.79Z" transform="translate(-2217.041 -6195.939)" fill="#aa6550"/>
        <path id="Path_138145" data-name="Path 138145" d="M2234.89,6322.833c-.033.045-1.835-1.276-4.022-2.948s-3.936-3.071-3.9-3.116,1.84,1.272,4.026,2.949S2234.926,6322.784,2234.89,6322.833Z" transform="translate(-2214.346 -6202.439)" fill="#aa6550"/>
        <path id="Path_138146" data-name="Path 138146" d="M2226.183,6326.923a4.633,4.633,0,0,1-.783-.506c-.473-.33-1.117-.795-1.807-1.337a18.322,18.322,0,0,1-1.7-1.485,3.389,3.389,0,0,1-.616-.706,5,5,0,0,1,.718.6c.408.38,1.036.89,1.725,1.428a25.778,25.778,0,0,1,2.459,2.011Z" transform="translate(-2210.978 -6206.064)" fill="#aa6550"/>
        <path id="Path_138147" data-name="Path 138147" d="M2335.939,6183.368c2.092,3.671,6.619,5.559,10.849,5.273a18.511,18.511,0,0,0,11.371-5.2c1.819-1.75,2.4-5.669,4.009-5.3,1.5.334,2.655,5.3,2.814,6.84a9.485,9.485,0,0,1-2.015,6.5,20.519,20.519,0,0,1-5.176,4.6c-3.671,2.427-7.774,4.376-12.154,4.58s-9.03-1.632-11.338-5.339-1.513-9.336,2.239-11.6" transform="translate(-2277.134 -6120.335)" fill="#5ab4f9"/>
        <path id="Path_138148" data-name="Path 138148" d="M2354.142,6212.665a1.722,1.722,0,0,1,.261-.188l.775-.5,2.855-1.8v.143l-4.335-1.632h-.049v-.049c-.334-1.395-.706-2.916-1.089-4.486l.184.041h0l-.025.028-.049.062-.094.118-.192.232-.379.469-.742.914-1.419,1.746-.032.041h-.073l-4.617-.384.073-.118,1.815,2.855.485.783a2.017,2.017,0,0,1,.159.286,1.518,1.518,0,0,1-.2-.257c-.131-.2-.306-.449-.522-.763l-1.856-2.855-.09-.134h.159l4.621.338-.086.037,1.411-1.75.742-.918.375-.465.192-.236.1-.118.045-.062.024-.028h0c-.041,0,.351.082.188.041.379,1.59.742,3.111,1.077,4.507l-.061-.069,4.319,1.68.151.057-.139.082-2.908,1.746-.8.465a1.733,1.733,0,0,1-.261.147Z" transform="translate(-2284.231 -6135.67)" fill="#fafafa"/>
        <path id="Path_138149" data-name="Path 138149" d="M2336.641,6206.492a5.137,5.137,0,0,0-.147-.787,4.256,4.256,0,0,0-1.248-1.786,14.343,14.343,0,0,0-2.79-1.742,9.064,9.064,0,0,1-1.631-1.109,5.992,5.992,0,0,1-1.885-5.686,9.783,9.783,0,0,1,1.3-3.066,6.855,6.855,0,0,1,1.444-1.7,3.4,3.4,0,0,1,.514-.339.761.761,0,0,1,.191-.085c0,.021-.253.147-.652.49a7.376,7.376,0,0,0-1.387,1.717,9.924,9.924,0,0,0-1.224,3.026,5.844,5.844,0,0,0,.567,3.871,5.91,5.91,0,0,0,1.26,1.631,9.452,9.452,0,0,0,1.595,1.093,13.835,13.835,0,0,1,2.8,1.8,4.076,4.076,0,0,1,1.224,1.872A2.038,2.038,0,0,1,2336.641,6206.492Z" transform="translate(-2274.654 -6127.487)" fill="#344154"/>
        <path id="Path_138150" data-name="Path 138150" d="M2375.932,6170.92a.451.451,0,0,1,.1.021l.294.09a6.243,6.243,0,0,1,1.093.457,7.28,7.28,0,0,1,1.505,1.11,7.837,7.837,0,0,1,1.513,1.962,9.611,9.611,0,0,1,1.093,6.276,11.311,11.311,0,0,1-1.326,3.573,14.393,14.393,0,0,1-2.529,3.214,18.374,18.374,0,0,1-3.263,2.476,21.952,21.952,0,0,1-3.43,1.655,22.542,22.542,0,0,1-6.272,1.4,21.413,21.413,0,0,1-4.336-.1c-.51-.061-.9-.13-1.167-.183l-.3-.062a.407.407,0,0,1-.1-.024h.106l.3.041c.265.041.661.094,1.167.143a23.463,23.463,0,0,0,4.315.033,22.919,22.919,0,0,0,6.216-1.436,19.727,19.727,0,0,0,6.607-4.1,14.531,14.531,0,0,0,2.5-3.165,11.1,11.1,0,0,0,1.309-3.5,9.537,9.537,0,0,0-1.028-6.159,7.9,7.9,0,0,0-1.456-1.962,7.7,7.7,0,0,0-1.464-1.125,6.88,6.88,0,0,0-1.065-.485l-.285-.11Z" transform="translate(-2292.415 -6116.077)" fill="#344154"/>
        <path id="Path_138151" data-name="Path 138151" d="M2368.822,6227.888a3.958,3.958,0,0,0,.151-1.113,3.9,3.9,0,0,0-.363-1.064.735.735,0,0,1,.273.236,1.693,1.693,0,0,1,.159,1.656C2368.949,6227.807,2368.847,6227.9,2368.822,6227.888Z" transform="translate(-2298.218 -6148.52)" fill="#344154"/>
        <path id="Path_138152" data-name="Path 138152" d="M2401.268,6218.766a1.183,1.183,0,0,1-.669-.11,2.508,2.508,0,0,1-1.632-2.631,1.225,1.225,0,0,1,.2-.644c.033,0-.045.257-.049.657a2.623,2.623,0,0,0,1.534,2.479A5.945,5.945,0,0,1,2401.268,6218.766Z" transform="translate(-2316.185 -6142.403)" fill="#344154"/>
        <path id="Path_138153" data-name="Path 138153" d="M2367.2,6182.77a1.711,1.711,0,0,1-.118.245c-.09.155-.2.408-.383.681a15.847,15.847,0,0,1-1.713,2.309,16.641,16.641,0,0,1-17.35,4.845,15.244,15.244,0,0,1-2.663-1.089c-.306-.151-.526-.3-.681-.383a1.232,1.232,0,0,1-.228-.151,1.505,1.505,0,0,1,.249.114c.163.074.387.208.7.347a17.3,17.3,0,0,0,2.667,1.015,17.032,17.032,0,0,0,18.953-7.052c.192-.277.314-.51.408-.657a1.094,1.094,0,0,1,.163-.224Z" transform="translate(-2283.681 -6123.093)" fill="#344154"/>
        <g id="Group_63194" data-name="Group 63194" transform="translate(68.871 61.12)" opacity="0.2">
          <path id="Path_138154" data-name="Path 138154" d="M2365.158,6202.408a.779.779,0,0,0-.094,1.1,2.084,2.084,0,0,0,1.048.62,17.465,17.465,0,0,0,20.548-7.651c1.57-2.655,2.415-5.971,1.277-8.838-.29-.738-.983-1.542-1.729-1.272s-.771,1.244-.779,2.015c-.032,4.442-3.059,8.467-6.889,10.723s-8.357,3-12.79,3.3" transform="translate(-2364.881 -6186.31)"/>
        </g>
      </g>
      <g id="freepik--Table--inject-63" transform="translate(6250.945 6163.8)">
        <path id="Path_138155" data-name="Path 138155" d="M2070.875,6335.673c0,.073-94.492.139-211.021.139s-211.034-.065-211.034-.139,94.464-.143,211.038-.143S2070.875,6335.6,2070.875,6335.673Z" transform="translate(-1648.82 -6335.53)" fill="#344154"/>
      </g>
      <g id="freepik--Plant--inject-63" transform="translate(6610.79 6067.672)">
        <path id="Path_138156" data-name="Path 138156" d="M2531.1,6354.689c.449,2.855,3.022,5.049,5.816,5.84a19.209,19.209,0,0,0,8.626-.077c1.632-.294,3.491-.841,4.079-2.382a3.393,3.393,0,0,0-.967-3.467,10.008,10.008,0,0,0-3.263-1.934" transform="translate(-2531.1 -6249.551)" fill="#f5f5f5"/>
        <path id="Path_138157" data-name="Path 138157" d="M2590.079,6182.97a1.117,1.117,0,0,1,.086-.208l.281-.6a14.721,14.721,0,0,0,.816-2.378,20.965,20.965,0,0,0-.073-9.188,49.5,49.5,0,0,0-1.7-6.159c-.722-2.19-1.562-4.515-2.248-7.027a27.217,27.217,0,0,1-1.1-8.08,31.835,31.835,0,0,1,1.88-8.565,41.768,41.768,0,0,0,2.178-8.418,12.838,12.838,0,0,0-1.55-7.782c-1.223-2.272-2.781-4.213-3.94-6.224a21.511,21.511,0,0,1-2.37-5.979,22.225,22.225,0,0,1-.151-9.263,17.119,17.119,0,0,1,.967-3.263,1.281,1.281,0,0,1-.057.22l-.2.624a22.869,22.869,0,0,0-.6,2.447,22.542,22.542,0,0,0,.228,9.185,21.439,21.439,0,0,0,2.374,5.906c1.158,1.987,2.716,3.919,3.973,6.216a13.126,13.126,0,0,1,1.59,7.937,41.414,41.414,0,0,1-2.182,8.483,31.749,31.749,0,0,0-1.872,8.471,26.95,26.95,0,0,0,1.081,8c.673,2.5,1.5,4.824,2.215,7.019a49.653,49.653,0,0,1,1.693,6.212,20.818,20.818,0,0,1-.024,9.258,13.957,13.957,0,0,1-.877,2.378c-.131.245-.232.436-.306.583a1.011,1.011,0,0,1-.114.191Z" transform="translate(-2561.105 -6099.84)" fill="#344154"/>
        <path id="Path_138158" data-name="Path 138158" d="M2591.891,6132.633s-2.354-7.534,1.868-11.942a.261.261,0,0,1,.367,0,.292.292,0,0,1,.082.146C2594.432,6122.064,2594.713,6125.854,2591.891,6132.633Z" transform="translate(-2566.709 -6112.142)" fill="#5ab4f9"/>
        <path id="Path_138159" data-name="Path 138159" d="M2594.124,6127a7.234,7.234,0,0,1-.159,1.391c-.155.959-.339,2.08-.539,3.32s-.375,2.365-.526,3.324a8.209,8.209,0,0,1-.249,1.374,5.544,5.544,0,0,1,.041-1.4c.078-.86.229-2.039.445-3.344s.437-2.472.624-3.312A6.213,6.213,0,0,1,2594.124,6127Z" transform="translate(-2567.532 -6115.923)" fill="#344154"/>
        <path id="Path_138160" data-name="Path 138160" d="M2599.63,6179.552s1.44-7.75,7.235-9.683a.265.265,0,0,1,.338.326C2606.816,6171.4,2605.295,6174.878,2599.63,6179.552Z" transform="translate(-2571.679 -6141.299)" fill="#5ab4f9"/>
        <path id="Path_138161" data-name="Path 138161" d="M2605.218,6174.8a6.551,6.551,0,0,1-.787,1.154l-2.011,2.692-2.039,2.688a7.453,7.453,0,0,1-.861,1.1,5.938,5.938,0,0,1,.689-1.223c.473-.726,1.158-1.7,1.958-2.75s1.542-1.978,2.1-2.635A6.28,6.28,0,0,1,2605.218,6174.8Z" transform="translate(-2571.615 -6144.227)" fill="#344154"/>
        <path id="Path_138162" data-name="Path 138162" d="M2595.695,6224.777s-.873-7.839,4.115-11.363a.262.262,0,0,1,.2-.04.261.261,0,0,1,.212.252C2600.206,6214.891,2599.761,6218.664,2595.695,6224.777Z" transform="translate(-2569.315 -6167.065)" fill="#5ab4f9"/>
        <path id="Path_138163" data-name="Path 138163" d="M2598.893,6219.31a7.159,7.159,0,0,1-.408,1.33c-.334.914-.73,1.978-1.162,3.161s-.816,2.247-1.15,3.161a7.408,7.408,0,0,1-.542,1.289,5.618,5.618,0,0,1,.31-1.366c.241-.815.616-1.962,1.073-3.2s.9-2.341,1.244-3.133A6.292,6.292,0,0,1,2598.893,6219.31Z" transform="translate(-2569.311 -6170.583)" fill="#344154"/>
        <path id="Path_138164" data-name="Path 138164" d="M2606.459,6273s-.6-7.868,4.515-11.208a.261.261,0,0,1,.363.069.3.3,0,0,1,.045.155C2611.321,6263.283,2610.746,6267.035,2606.459,6273Z" transform="translate(-2575.711 -6195.713)" fill="#5ab4f9"/>
        <path id="Path_138165" data-name="Path 138165" d="M2609.91,6267.6a6.847,6.847,0,0,1-.469,1.317c-.367.9-.816,1.95-1.272,3.112l-1.265,3.116a7.769,7.769,0,0,1-.555,1.285,5.774,5.774,0,0,1,.359-1.354c.269-.816.685-1.941,1.187-3.157s.983-2.309,1.354-3.087A6.391,6.391,0,0,1,2609.91,6267.6Z" transform="translate(-2575.658 -6199.178)" fill="#344154"/>
        <path id="Path_138166" data-name="Path 138166" d="M2574.189,6119.295s-6.995-3.671-7.129-9.756a.261.261,0,0,1,.408-.225C2568.516,6110.032,2571.371,6112.517,2574.189,6119.295Z" transform="translate(-2552.393 -6105.424)" fill="#5ab4f9"/>
        <path id="Path_138167" data-name="Path 138167" d="M2570.63,6115.07a7.27,7.27,0,0,1,.869,1.093l1.974,2.729,1.978,2.72a7.578,7.578,0,0,1,.816,1.146,5.681,5.681,0,0,1-.959-1.02c-.555-.661-1.285-1.607-2.039-2.676s-1.436-2.039-1.9-2.781A5.927,5.927,0,0,1,2570.63,6115.07Z" transform="translate(-2554.507 -6108.858)" fill="#344154"/>
        <path id="Path_138168" data-name="Path 138168" d="M2591.8,6159.568s-7.207-3.222-7.713-9.307a.262.262,0,0,1,.052-.194.259.259,0,0,1,.173-.1.266.266,0,0,1,.184.045C2585.53,6150.665,2588.569,6152.961,2591.8,6159.568Z" transform="translate(-2562.474 -6129.521)" fill="#5ab4f9"/>
        <path id="Path_138169" data-name="Path 138169" d="M2587.92,6155.609a7.276,7.276,0,0,1,.934,1.036l2.133,2.6,2.141,2.594a8.045,8.045,0,0,1,.865,1.1,5.689,5.689,0,0,1-1.02-.958c-.6-.628-1.383-1.525-2.215-2.545s-1.558-1.966-2.068-2.66a6.108,6.108,0,0,1-.771-1.166Z" transform="translate(-2564.745 -6132.864)" fill="#344154"/>
        <path id="Path_138170" data-name="Path 138170" d="M2588.08,6200.373s-4.943-6.146-2.626-11.8a.261.261,0,0,1,.334-.151.284.284,0,0,1,.13.106C2586.583,6189.609,2588.23,6193.031,2588.08,6200.373Z" transform="translate(-2562.919 -6152.286)" fill="#5ab4f9"/>
        <path id="Path_138171" data-name="Path 138171" d="M2587.56,6195a7.061,7.061,0,0,1,.359,1.354c.208.946.449,2.04.714,3.288s.518,2.337.726,3.263a7.835,7.835,0,0,1,.269,1.37,5.645,5.645,0,0,1-.473-1.317c-.241-.815-.534-1.986-.816-3.263s-.5-2.447-.632-3.312A6.042,6.042,0,0,1,2587.56,6195Z" transform="translate(-2564.532 -6156.188)" fill="#344154"/>
        <path id="Path_138172" data-name="Path 138172" d="M2593.837,6255.671s-7.146-3.34-7.549-9.434a.261.261,0,0,1,.408-.245C2587.751,6246.666,2590.741,6249.015,2593.837,6255.671Z" transform="translate(-2563.778 -6186.355)" fill="#5ab4f9"/>
        <path id="Path_138173" data-name="Path 138173" d="M2590.07,6251.64a7.062,7.062,0,0,1,.918,1.052l2.088,2.639c.787.983,1.493,1.872,2.1,2.63a7.8,7.8,0,0,1,.848,1.109,5.513,5.513,0,0,1-1-.975c-.583-.636-1.354-1.55-2.17-2.582s-1.53-1.991-2.04-2.7a6.078,6.078,0,0,1-.738-1.179Z" transform="translate(-2566.019 -6189.728)" fill="#344154"/>
        <path id="Path_138174" data-name="Path 138174" d="M2619.909,6193.73a.408.408,0,0,1,0,.175v.5c-.02.473-.049,1.113-.082,1.913-.094,1.684-.22,4.029-.375,6.831h0a26.519,26.519,0,0,1-3.916,9.1c-1.432,2.263-2.937,4.319-4.229,6.231a44.014,44.014,0,0,0-3.173,5.245,22.425,22.425,0,0,0-1.484,3.846c-.123.473-.22.84-.273,1.089a1.721,1.721,0,0,1-.106.379,2.049,2.049,0,0,1,.049-.387c.037-.257.11-.632.22-1.11a20.165,20.165,0,0,1,1.407-3.911,41.958,41.958,0,0,1,3.133-5.3c1.289-1.926,2.781-3.989,4.209-6.24a26.877,26.877,0,0,0,3.916-8.973h0c.2-2.806.363-5.147.481-6.828.061-.8.114-1.436.151-1.909a3.661,3.661,0,0,1,.053-.5A.611.611,0,0,1,2619.909,6193.73Z" transform="translate(-2575.611 -6155.437)" fill="#344154"/>
        <path id="Path_138175" data-name="Path 138175" d="M2626.977,6220.074s3.026-7.288-.783-12.06a.261.261,0,0,0-.367-.044.244.244,0,0,0-.09.13C2625.4,6209.319,2624.778,6213.067,2626.977,6220.074Z" transform="translate(-2586.934 -6163.835)" fill="#5ab4f9"/>
        <path id="Path_138176" data-name="Path 138176" d="M2627.9,6214.39a6.349,6.349,0,0,1,.236,1.379c.11.856.229,2.039.322,3.353s.139,2.508.139,3.373a5.7,5.7,0,0,1-.085,1.395,7.927,7.927,0,0,1-.123-1.391c-.065-.967-.143-2.1-.224-3.356s-.167-2.386-.237-3.357A6.646,6.646,0,0,1,2627.9,6214.39Z" transform="translate(-2588.403 -6167.67)" fill="#344154"/>
        <g id="Group_63195" data-name="Group 63195" transform="translate(38.457 44.078)" opacity="0.3">
          <path id="Path_138177" data-name="Path 138177" d="M2626.977,6220.074s3.026-7.288-.783-12.06a.261.261,0,0,0-.367-.044.244.244,0,0,0-.09.13C2625.4,6209.319,2624.778,6213.067,2626.977,6220.074Z" transform="translate(-2625.391 -6207.914)"/>
        </g>
        <path id="Path_138178" data-name="Path 138178" d="M2602.869,6263.308s2.447-7.508-1.758-11.958a.266.266,0,0,0-.371,0,.248.248,0,0,0-.077.143C2600.426,6252.716,2600.108,6256.5,2602.869,6263.308Z" transform="translate(-2572.203 -6189.511)" fill="#5ab4f9"/>
        <path id="Path_138179" data-name="Path 138179" d="M2603.05,6257.63a6.241,6.241,0,0,1,.351,1.354c.175.844.408,2.015.591,3.316s.343,2.488.408,3.349a5.916,5.916,0,0,1,.029,1.4,7.475,7.475,0,0,1-.237-1.375c-.143-.958-.31-2.083-.493-3.328s-.363-2.366-.506-3.324A6.62,6.62,0,0,1,2603.05,6257.63Z" transform="translate(-2573.705 -6193.274)" fill="#344154"/>
        <g id="Group_63196" data-name="Group 63196" transform="translate(28.311 61.763)" opacity="0.3">
          <path id="Path_138180" data-name="Path 138180" d="M2602.869,6263.308s2.447-7.508-1.758-11.958a.266.266,0,0,0-.371,0,.248.248,0,0,0-.077.143C2600.426,6252.716,2600.108,6256.5,2602.869,6263.308Z" transform="translate(-2600.513 -6251.274)"/>
        </g>
        <path id="Path_138181" data-name="Path 138181" d="M2638.73,6200.149s6.464-4.523,5.812-10.6a.266.266,0,0,0-.286-.237.281.281,0,0,0-.147.065C2643.176,6190.23,2640.635,6193.057,2638.73,6200.149Z" transform="translate(-2594.832 -6152.818)" fill="#5ab4f9"/>
        <g id="Group_63197" data-name="Group 63197" transform="translate(43.898 36.49)" opacity="0.3">
          <path id="Path_138182" data-name="Path 138182" d="M2638.73,6200.149s6.464-4.523,5.812-10.6a.266.266,0,0,0-.286-.237.281.281,0,0,0-.147.065C2643.176,6190.23,2640.635,6193.057,2638.73,6200.149Z" transform="translate(-2638.73 -6189.308)"/>
        </g>
        <path id="Path_138183" data-name="Path 138183" d="M2643.472,6195.47a6.4,6.4,0,0,1-.534,1.292c-.371.779-.906,1.844-1.53,3s-1.223,2.19-1.693,2.92a6.2,6.2,0,0,1-.816,1.134,7.263,7.263,0,0,1,.64-1.224c.465-.852,1.007-1.851,1.631-2.952l1.6-2.957A6.709,6.709,0,0,1,2643.472,6195.47Z" transform="translate(-2594.933 -6156.467)" fill="#344154"/>
        <path id="Path_138184" data-name="Path 138184" d="M2612.68,6251.928s7.794-1.223,9.882-6.954a.257.257,0,0,0-.143-.334.261.261,0,0,0-.167,0C2621.037,6244.979,2617.513,6246.41,2612.68,6251.928Z" transform="translate(-2579.407 -6185.574)" fill="#5ab4f9"/>
        <g id="Group_63198" data-name="Group 63198" transform="translate(33.273 59.052)" opacity="0.3">
          <path id="Path_138185" data-name="Path 138185" d="M2612.68,6251.928s7.794-1.223,9.882-6.954a.257.257,0,0,0-.143-.334.261.261,0,0,0-.167,0C2621.037,6244.979,2617.513,6246.41,2612.68,6251.928Z" transform="translate(-2612.68 -6244.626)"/>
        </g>
        <path id="Path_138186" data-name="Path 138186" d="M2620.6,6249.23a6.259,6.259,0,0,1-1.052.921c-.673.539-1.631,1.261-2.692,2.04s-2.068,1.427-2.806,1.876a5.809,5.809,0,0,1-1.223.656,7.359,7.359,0,0,1,1.121-.815l2.749-1.941,2.741-1.95a6.858,6.858,0,0,1,1.163-.787Z" transform="translate(-2579.496 -6188.3)" fill="#344154"/>
        <path id="Path_138187" data-name="Path 138187" d="M2962.142,6510.37l-2.272,15.307h14.173l-1.84-15.307Z" transform="translate(-2936.308 -6429.667)" fill="#455a64"/>
        <path id="Path_138188" data-name="Path 138188" d="M2603.92,6309.127a111.36,111.36,0,0,1-11.42,0,110.991,110.991,0,0,1,11.42,0Z" transform="translate(-2567.458 -6223.681)" fill="#344154"/>
        <path id="Path_138189" data-name="Path 138189" d="M2604.053,6312.106c0,.082-2.643.147-5.9.147s-5.9-.065-5.9-.147,2.639-.146,5.9-.146S2604.053,6312.025,2604.053,6312.106Z" transform="translate(-2567.31 -6225.445)" fill="#344154"/>
      </g>
      <g id="freepik--Drink--inject-63" transform="translate(6609.387 6146.741)">
        <path id="Path_138190" data-name="Path 138190" d="M2542.159,6356.848a34.76,34.76,0,0,1-7.284-.032,3.2,3.2,0,0,1-2.855-3.186h13.043a3.226,3.226,0,0,1-2.9,3.218Z" transform="translate(-2530.242 -6329.188)" fill="#e0e0e0"/>
        <path id="Path_138191" data-name="Path 138191" d="M2541.695,6321.4a26.868,26.868,0,0,1-11.514.028,3.222,3.222,0,0,1-2.521-3.148v-19.863a3.218,3.218,0,0,1,3.218-3.218h10.131a3.218,3.218,0,0,1,3.218,3.218h0v19.834A3.218,3.218,0,0,1,2541.695,6321.4Z" transform="translate(-2527.66 -6294.589)" fill="#5ab4f9"/>
        <path id="Path_138192" data-name="Path 138192" d="M2544.412,6295.737c.257.815-.367,1.876-1.75,2.761a12.236,12.236,0,0,1-11.861.074c-1.395-.869-2.039-1.909-1.782-2.741s1.281-1.358,2.659-1.672a24.716,24.716,0,0,1,5.025-.449,24.256,24.256,0,0,1,5.029.408C2543.1,6294.4,2544.151,6294.889,2544.412,6295.737Z" transform="translate(-2528.432 -6293.704)" fill="#5ab4f9"/>
        <g id="Group_63199" data-name="Group 63199" transform="translate(0.532 0)" opacity="0.5">
          <path id="Path_138193" data-name="Path 138193" d="M2544.412,6295.737c.257.815-.367,1.876-1.75,2.761a12.236,12.236,0,0,1-11.861.074c-1.395-.869-2.039-1.909-1.782-2.741s1.281-1.358,2.659-1.672a24.716,24.716,0,0,1,5.025-.449,24.256,24.256,0,0,1,5.029.408C2543.1,6294.4,2544.151,6294.889,2544.412,6295.737Z" transform="translate(-2528.964 -6293.704)"/>
        </g>
        <path id="Path_138194" data-name="Path 138194" d="M2555.078,6297.888a4.935,4.935,0,0,0-2.271.191c-.326.106-.7.331-.677.673s.31.478.575.588a4.614,4.614,0,0,0,3.691-.09c.265-.123.559-.367.477-.648a.607.607,0,0,0-.31-.326,3.34,3.34,0,0,0-1.632-.465" transform="translate(-2542.149 -6296.135)" fill="#344154"/>
        <path id="Path_138195" data-name="Path 138195" d="M2545.5,6318.661a1.867,1.867,0,0,1-.408.375,3.309,3.309,0,0,1-1.509.555,3.782,3.782,0,0,1-2.476-.567,3.106,3.106,0,0,1-1.085-1.2,1.4,1.4,0,0,1-.143-.909.917.917,0,0,1,.681-.71,1.225,1.225,0,0,1,.955.359,4.511,4.511,0,0,1,.7.75,4.722,4.722,0,0,1,.848,1.982,4.515,4.515,0,0,1-.163,2.3,4.168,4.168,0,0,1-1.476,1.958,4.431,4.431,0,0,1-2.447.877,3.752,3.752,0,0,1-2.562-.816,4.35,4.35,0,0,1-1.509-2.341,3.672,3.672,0,0,1-.069-1.448,1.631,1.631,0,0,1,.758-1.305.865.865,0,0,1,.922.134,1.889,1.889,0,0,1,.49.718,7.386,7.386,0,0,1,.367,1.574,8.947,8.947,0,0,1-.151,3.108,8.775,8.775,0,0,1-1.142,2.753,4.108,4.108,0,0,1-2.194,1.8,2.773,2.773,0,0,1-2.557-.677,4.365,4.365,0,0,1-1.309-2.092,5.3,5.3,0,0,1,.494-4.144l.106-.171.073.184a6.049,6.049,0,0,1,.444,2.631,6.32,6.32,0,0,1-.408,1.941,4.622,4.622,0,0,1-.84,1.427,8.553,8.553,0,0,0,.738-1.468,6.193,6.193,0,0,0,.367-1.9,6,6,0,0,0-.473-2.549h.179a5.069,5.069,0,0,0-.428,3.969,4.107,4.107,0,0,0,1.244,1.962,2.5,2.5,0,0,0,2.3.6,3.819,3.819,0,0,0,2.039-1.689,8.382,8.382,0,0,0,1.093-2.659,8.74,8.74,0,0,0,.139-3,7.192,7.192,0,0,0-.347-1.493,1.511,1.511,0,0,0-.408-.587.53.53,0,0,0-.583-.094,1.355,1.355,0,0,0-.587,1.081,3.384,3.384,0,0,0,.065,1.326,4,4,0,0,0,1.4,2.17,3.478,3.478,0,0,0,2.353.75,4.144,4.144,0,0,0,2.264-.816,3.894,3.894,0,0,0,1.387-1.815,4.2,4.2,0,0,0,.167-2.166,4.484,4.484,0,0,0-.787-1.884,4.308,4.308,0,0,0-.652-.714,1.012,1.012,0,0,0-.767-.318.706.706,0,0,0-.51.539,1.221,1.221,0,0,0,.118.775,2.933,2.933,0,0,0,1,1.134,3.676,3.676,0,0,0,2.362.6,3.3,3.3,0,0,0,1.489-.489C2545.349,6318.771,2545.483,6318.624,2545.5,6318.661Z" transform="translate(-2528.928 -6307.026)" fill="#fafafa"/>
        <path id="Path_138196" data-name="Path 138196" d="M2544.428,6295.887a1,1,0,0,1,.159.139,1.668,1.668,0,0,1,.457,1.46,2.547,2.547,0,0,1-.522,1.158,5.75,5.75,0,0,1-2.749,1.774,11.623,11.623,0,0,1-3.973.612,12.664,12.664,0,0,1-3.952-.71,7.868,7.868,0,0,1-1.607-.726,3.666,3.666,0,0,1-1.138-1.04,2.317,2.317,0,0,1-.286-2.157,1.605,1.605,0,0,1,.334-.506.554.554,0,0,1,.163-.13,2.172,2.172,0,0,0-.408.668,2.275,2.275,0,0,0,.33,2.039,5.192,5.192,0,0,0,2.684,1.668,13.056,13.056,0,0,0,3.9.681,11.73,11.73,0,0,0,3.9-.583,5.708,5.708,0,0,0,2.7-1.68,2.538,2.538,0,0,0,.53-1.089,1.716,1.716,0,0,0-.077-.906,3.073,3.073,0,0,0-.441-.672Z" transform="translate(-2529.443 -6294.921)" fill="#344154"/>
      </g>
      <g id="Group_63204" data-name="Group 63204" transform="translate(6392.822 6049.641)">
        <path id="Path_138213" data-name="Path 138213" d="M2367.68,6268.29h58.365v53.56a6.616,6.616,0,0,1-6.615,6.616H2367.68Z" transform="translate(-2367.68 -6268.29)" fill="#aed3f2"/>
        <g id="Group_63203" data-name="Group 63203" transform="translate(6.424 17.689)">
          <path id="Path_138214" data-name="Path 138214" d="M2059.59,6099.22c0,.123-10.547.22-23.558.22s-23.562-.1-23.562-.22,10.547-.22,23.562-.22S2059.59,6099.1,2059.59,6099.22Z" transform="translate(-2012.454 -6099)" fill="#5e6178"/>
          <path id="Path_138215" data-name="Path 138215" d="M2037.08,6109.215c0,.118-5.208.22-11.636.22s-11.644-.1-11.644-.22,5.212-.225,11.644-.225S2037.08,6109.092,2037.08,6109.215Z" transform="translate(-2013.241 -6104.916)" fill="#5e6178"/>
          <path id="Path_138216" data-name="Path 138216" d="M2084.767,6108.29a21.7,21.7,0,1,1-3.083-.22A10.978,10.978,0,0,1,2084.767,6108.29Z" transform="translate(-2051.612 -6104.371)" fill="#5e6178"/>
          <path id="Path_138217" data-name="Path 138217" d="M2113.286,6107.68a85.09,85.09,0,0,1-12.236,0,42.447,42.447,0,0,1,6.118-.22A41.778,41.778,0,0,1,2113.286,6107.68Z" transform="translate(-2064.906 -6104.01)" fill="#5e6178"/>
          <path id="Path_138218" data-name="Path 138218" d="M2034.328,6118.78c0,.122-4.894.22-10.947.22s-10.951-.1-10.951-.22,4.894-.22,10.951-.22S2034.328,6118.658,2034.328,6118.78Z" transform="translate(-2012.43 -6110.583)" fill="#5e6178"/>
          <path id="Path_138219" data-name="Path 138219" d="M2096.339,6118.5c0,.122-5.355.225-11.954.225s-11.954-.1-11.954-.225,5.351-.22,11.954-.22S2096.339,6118.382,2096.339,6118.5Z" transform="translate(-2047.959 -6110.417)" fill="#5e6178"/>
          <path id="Path_138220" data-name="Path 138220" d="M2115.6,6128.13a64.435,64.435,0,0,1-10.645,0,64.435,64.435,0,0,1,10.645,0Z" transform="translate(-2067.215 -6116.119)" fill="#5e6178"/>
        </g>
        <path id="Path_138221" data-name="Path 138221" d="M2039.6,6088.51c0,.123-5.775.22-12.9.22s-12.9-.1-12.9-.22,5.775-.22,12.9-.22S2039.6,6088.388,2039.6,6088.51Z" transform="translate(-2006.818 -6074.969)" fill="#5ab4f9"/>
      </g>
      <g id="Group_63207" data-name="Group 63207" transform="translate(6341.049 6083.346)">
        <g id="Group_63205" data-name="Group 63205" transform="translate(0 0)">
          <rect id="Rectangle_14685" data-name="Rectangle 14685" width="121.244" height="80.177" rx="14.57" transform="translate(4.902)" fill="#344154"/>
          <path id="Path_138222" data-name="Path 138222" d="M2240.74,6533h131.355a7.015,7.015,0,0,1-7.015,7.015H2247.755a7.015,7.015,0,0,1-7.015-7.015Z" transform="translate(-2240.74 -6458.741)" fill="#344154"/>
          <rect id="Rectangle_14686" data-name="Rectangle 14686" width="114.396" height="67.708" transform="translate(8.324 3.185)" fill="#5e6178"/>
          <path id="Path_138223" data-name="Path 138223" d="M2001.5,6320.221h2l5.543-.024,18.533-.037h.139l-.069.118c-.233.408-.485.815-.734,1.26l-.779,1.33-.025.041h-.045l-22.934-.045h0l-1.2-1.954c-.13-.212-.232-.375-.3-.493s-.1-.163-.1-.163.041.057.114.171.183.282.322.5l1.224,1.9h-.028l22.934-.044-.065.041c.249-.432.514-.881.775-1.333l.738-1.26.065.118-18.456-.041h-7.623Z" transform="translate(-1947.761 -6245.975)" fill="#5e6178"/>
        </g>
        <g id="Group_63206" data-name="Group 63206" transform="translate(4.894 74.173)">
          <line id="Line_1157" data-name="Line 1157" x2="121.24" transform="translate(0.008 0.073)" fill="#344154"/>
          <path id="Path_138224" data-name="Path 138224" d="M2002.98,6320.2c0,.041-27.143.074-60.62.074s-60.62-.033-60.62-.074,27.135-.073,60.62-.073S2002.98,6320.163,2002.98,6320.2Z" transform="translate(-1881.74 -6320.13)" fill="#5e6178"/>
        </g>
      </g>
      <g id="Group_63209" data-name="Group 63209" transform="translate(6372.05 6072.914)">
        <path id="Path_138225" data-name="Path 138225" d="M2089.482,6112.906h0a3.385,3.385,0,0,1,3.385,3.385v6.934H2082.74v-6.411a3.924,3.924,0,0,1,3.924-3.924Z" transform="translate(-2026.868 -6112.809)" fill="#344154"/>
        <path id="Path_138226" data-name="Path 138226" d="M2037.3,6112.789c0,.041-9.556.065-21.339.053s-21.343-.053-21.343-.094,9.552-.065,21.343-.053S2037.3,6112.749,2037.3,6112.789Z" transform="translate(-1974.688 -6112.692)" fill="#344154"/>
        <path id="Path_138227" data-name="Path 138227" d="M2008.535,6112.863l-4.226-.033-6.118.041h-45.068a6.934,6.934,0,0,0-6.934,6.934v74.462h58.369v-77.6C2004.718,6112.871,2008.535,6112.863,2008.535,6112.863Z" transform="translate(-1946.011 -6112.774)" fill="#fafafa"/>
        <path id="Path_138228" data-name="Path 138228" d="M2008.275,6112.8l-35.194.074h-19.793c-.371,0-.73,0-1.093.032a7.3,7.3,0,0,0-1.065.2,6.782,6.782,0,0,0-4.666,4.221,4.824,4.824,0,0,0-.176.514l-.135.526a6.854,6.854,0,0,0-.126,1.077c-.032,1.456,0,2.928,0,4.393l.049,70.388-.143-.143,58.369.037-.106.106.029-41.862.037-20.932v-14.389a4.381,4.381,0,0,1,.024-.653,3.8,3.8,0,0,1,.1-.645,3.489,3.489,0,0,1,1.415-2.133,4.11,4.11,0,0,1,1.175-.566,4.849,4.849,0,0,1,1.3-.24Zm0,0a4.733,4.733,0,0,0-1.285.229,4.135,4.135,0,0,0-1.171.567,3.46,3.46,0,0,0-1.4,2.129,3.411,3.411,0,0,0-.1.645,4.3,4.3,0,0,0-.025.652v14.39l.033,20.927.029,41.863v.1h-.1l-58.368.037h-.139v-.139l.049-70.389v-4.4a7.8,7.8,0,0,1,.13-1.105l.139-.538c.045-.184.122-.351.183-.526a6.9,6.9,0,0,1,1.105-1.925,7.008,7.008,0,0,1,3.671-2.362,7.617,7.617,0,0,1,1.093-.2c.371-.021.742-.041,1.109-.033h19.793Z" transform="translate(-1945.75 -6112.707)" fill="#344154"/>
        <path id="Path_138229" data-name="Path 138229" d="M2033.2,6147.34c0,.123-5.616.22-12.546.22s-12.55-.1-12.55-.22,5.616-.22,12.55-.22S2033.2,6147.218,2033.2,6147.34Z" transform="translate(-1982.67 -6133.079)" fill="#5ab4f9"/>
        <path id="Path_138230" data-name="Path 138230" d="M2019.037,6157.17a53.6,53.6,0,1,1-4.854-.22A26.841,26.841,0,0,1,2019.037,6157.17Z" transform="translate(-1983.399 -6138.899)" fill="#5e6178"/>
        <path id="Path_138231" data-name="Path 138231" d="M1976.387,6187.16c0,.122-4.127.22-9.213.22s-9.214-.1-9.214-.22,4.123-.22,9.214-.22S1976.387,6187.038,1976.387,6187.16Z" transform="translate(-1952.98 -6156.658)" fill="#5e6178"/>
        <path id="Path_138232" data-name="Path 138232" d="M2027.547,6187.16c0,.122-4.123.22-9.214.22s-9.214-.1-9.214-.22,4.124-.22,9.214-.22S2027.547,6187.038,2027.547,6187.16Z" transform="translate(-1983.274 -6156.658)" fill="#5ab4f9"/>
        <path id="Path_138233" data-name="Path 138233" d="M1976.387,6195.17c0,.123-4.127.22-9.213.22s-9.214-.1-9.214-.22,4.123-.22,9.214-.22S1976.387,6195.048,1976.387,6195.17Z" transform="translate(-1952.98 -6161.401)" fill="#5e6178"/>
        <path id="Path_138234" data-name="Path 138234" d="M1976.387,6203.174c0,.123-4.127.22-9.213.22s-9.214-.1-9.214-.22,4.123-.224,9.214-.224S1976.387,6203.052,1976.387,6203.174Z" transform="translate(-1952.98 -6166.138)" fill="#5ab4f9"/>
        <path id="Path_138235" data-name="Path 138235" d="M2019.037,6173.48a52.665,52.665,0,0,1-9.707,0,53.6,53.6,0,0,1,9.707,0Z" transform="translate(-1983.399 -6148.557)" fill="#5e6178"/>
        <path id="Path_138236" data-name="Path 138236" d="M2064.989,6187.16a23.861,23.861,0,1,1-3.234-.22A12.045,12.045,0,0,1,2064.989,6187.16Z" transform="translate(-2012.526 -6156.658)" fill="#5e6178"/>
        <path id="Path_138237" data-name="Path 138237" d="M2054.458,6157.17a157.442,157.442,0,0,1-16.649,0,157.442,157.442,0,0,1,16.649,0Z" transform="translate(-2000.263 -6138.899)" fill="#5e6178"/>
        <path id="Path_138238" data-name="Path 138238" d="M2036.844,6164.98c0,.123-6.159.22-13.757.22s-13.757-.1-13.757-.22,6.159-.22,13.757-.22S2036.844,6164.858,2036.844,6164.98Z" transform="translate(-1983.399 -6143.524)" fill="#5e6178"/>
        <path id="Path_138239" data-name="Path 138239" d="M2035.737,6195.17c0,.123-5.959.22-13.308.22s-13.308-.1-13.308-.22,5.959-.22,13.308-.22S2035.737,6195.048,2035.737,6195.17Z" transform="translate(-1983.274 -6161.401)" fill="#5e6178"/>
        <path id="Path_138240" data-name="Path 138240" d="M2038.117,6218.35c0,.123-5.592.22-12.484.22s-12.493-.1-12.493-.22,5.592-.22,12.493-.22S2038.117,6218.228,2038.117,6218.35Z" transform="translate(-1985.655 -6175.126)" fill="#5ab4f9"/>
        <path id="Path_138241" data-name="Path 138241" d="M2038.117,6226.15c0,.122-5.592.22-12.484.22s-12.493-.1-12.493-.22,5.592-.22,12.493-.22S2038.117,6226.028,2038.117,6226.15Z" transform="translate(-1985.655 -6179.745)" fill="#5e6178"/>
        <path id="Path_138242" data-name="Path 138242" d="M2038.117,6233.94c0,.123-5.592.22-12.484.22s-12.493-.1-12.493-.22,5.592-.22,12.493-.22S2038.117,6233.834,2038.117,6233.94Z" transform="translate(-1985.655 -6184.358)" fill="#5e6178"/>
        <path id="Path_138243" data-name="Path 138243" d="M2038.117,6241.734c0,.118-5.592.221-12.484.221s-12.493-.1-12.493-.221,5.592-.224,12.493-.224S2038.117,6241.612,2038.117,6241.734Z" transform="translate(-1985.655 -6188.971)" fill="#5e6178"/>
        <path id="Path_138244" data-name="Path 138244" d="M2027.521,6249.53a9.921,9.921,0,0,1-2.1.155c-1.289.037-3.1.065-5.086.065s-3.781-.024-5.082-.065a1.06,1.06,0,1,1,0-.31c1.293-.041,3.1-.065,5.082-.065s3.785.024,5.086.065A10.1,10.1,0,0,1,2027.521,6249.53Z" transform="translate(-1985.655 -6193.589)" fill="#5e6178"/>
        <path id="Path_138245" data-name="Path 138245" d="M2032.055,6203.595c0,.118-4.817.22-10.755.22s-10.759-.1-10.759-.22,4.817-.225,10.759-.225S2032.055,6203.472,2032.055,6203.595Z" transform="translate(-1984.115 -6166.387)" fill="#5e6178"/>
        <g id="Group_63208" data-name="Group 63208" transform="translate(26.417 73.76)">
          <path id="Path_138246" data-name="Path 138246" d="M2011.531,6294.046a.5.5,0,1,1-.147-.359A.506.506,0,0,1,2011.531,6294.046Z" transform="translate(-2010.52 -6293.54)" fill="#344154"/>
          <path id="Path_138247" data-name="Path 138247" d="M2018.873,6294.046a.5.5,0,1,1-.146-.357A.5.5,0,0,1,2018.873,6294.046Z" transform="translate(-2014.872 -6293.54)" fill="#344154"/>
          <path id="Path_138248" data-name="Path 138248" d="M2026.192,6294.045a.5.5,0,1,1-.145-.357.506.506,0,0,1,.145.357Z" transform="translate(-2019.201 -6293.54)" fill="#344154"/>
        </g>
        <path id="Path_138249" data-name="Path 138249" d="M2027.891,6265.77c0,.123-4.128.22-9.214.22s-9.218-.1-9.218-.22,4.127-.22,9.218-.22S2027.891,6265.647,2027.891,6265.77Z" transform="translate(-1983.475 -6203.206)" fill="#5ab4f9"/>
        <path id="Path_138250" data-name="Path 138250" d="M2036.081,6273.78c0,.122-5.959.221-13.308.221s-13.312-.1-13.312-.221,5.959-.22,13.313-.22S2036.081,6273.658,2036.081,6273.78Z" transform="translate(-1983.475 -6207.949)" fill="#5e6178"/>
      </g>
      <g id="Group_63235" data-name="Group 63235" transform="translate(6278.646 6110.542)">
        <g id="Group_63232" data-name="Group 63232" transform="translate(0 12.028)">
          <rect id="Rectangle_14697" data-name="Rectangle 14697" width="14.65" height="40.084" fill="#6595bf"/>
          <rect id="Rectangle_14698" data-name="Rectangle 14698" width="9.218" height="17.407" transform="translate(2.716 2.635)" fill="#aed3f2"/>
          <path id="Path_138300" data-name="Path 138300" d="M1733.063,6306.682a3.622,3.622,0,1,1-3.622-3.622,3.622,3.622,0,0,1,3.622,3.622Z" transform="translate(-1722.117 -6275.073)" fill="#aed3f2"/>
          <rect id="Rectangle_14699" data-name="Rectangle 14699" width="5.763" height="1.481" transform="translate(4.446 5.845)" fill="#6595bf"/>
          <rect id="Rectangle_14700" data-name="Rectangle 14700" width="5.763" height="1.481" transform="translate(4.446 8.973)" fill="#6595bf"/>
        </g>
        <g id="Group_63233" data-name="Group 63233" transform="translate(15.878 5.384)">
          <rect id="Rectangle_14701" data-name="Rectangle 14701" width="14.65" height="46.732" fill="#6595bf"/>
          <rect id="Rectangle_14702" data-name="Rectangle 14702" width="9.218" height="17.407" transform="translate(2.716 2.635)" fill="#aed3f2"/>
          <path id="Path_138301" data-name="Path 138301" d="M1772,6306.742a3.622,3.622,0,1,1-3.622-3.622A3.621,3.621,0,0,1,1772,6306.742Z" transform="translate(-1761.052 -6268.464)" fill="#aed3f2"/>
          <rect id="Rectangle_14703" data-name="Rectangle 14703" width="5.763" height="1.481" transform="translate(4.446 5.845)" fill="#6595bf"/>
          <rect id="Rectangle_14704" data-name="Rectangle 14704" width="5.763" height="1.481" transform="translate(4.446 8.973)" fill="#6595bf"/>
        </g>
        <g id="Group_63234" data-name="Group 63234" transform="translate(31.76 0)">
          <rect id="Rectangle_14705" data-name="Rectangle 14705" width="14.65" height="52.12" fill="#6595bf"/>
          <rect id="Rectangle_14706" data-name="Rectangle 14706" width="9.218" height="17.407" transform="translate(2.716 2.631)" fill="#aed3f2"/>
          <path id="Path_138302" data-name="Path 138302" d="M1810.934,6306.742a3.618,3.618,0,1,1-1.06-2.562A3.621,3.621,0,0,1,1810.934,6306.742Z" transform="translate(-1799.987 -6263.081)" fill="#aed3f2"/>
          <rect id="Rectangle_14707" data-name="Rectangle 14707" width="5.763" height="1.481" transform="translate(4.446 5.841)" fill="#6595bf"/>
          <rect id="Rectangle_14708" data-name="Rectangle 14708" width="5.763" height="1.481" transform="translate(4.446 8.969)" fill="#6595bf"/>
        </g>
      </g>
      <g id="Group_63236" data-name="Group 63236" transform="translate(6530.894 6128.321)">
        <path id="Path_138303" data-name="Path 138303" d="M2710.134,6506.941l-3.924-45.741h84.643l-5.608,46.308Z" transform="translate(-2706.21 -6461.2)" fill="#344154"/>
        <path id="Path_138304" data-name="Path 138304" d="M2436.534,6300.527a5.392,5.392,0,1,1-5.388-5.388A5.392,5.392,0,0,1,2436.534,6300.527Z" transform="translate(-2388.823 -6276.134)" fill="#fafafa"/>
      </g>
    </g>
  </g>
</svg>
