<svg xmlns="http://www.w3.org/2000/svg" width="400" height="276.889" viewBox="0 0 400 276.889">
  <g id="Group_1111820" data-name="Group 1111820" transform="translate(-180 -8356.145)">
    <path id="Path_900482" data-name="Path 900482" d="M11,0H335a11,11,0,0,1,11,11V226a11,11,0,0,1-11,11H11A11,11,0,0,1,0,226V11A11,11,0,0,1,11,0Z" transform="translate(208.051 8374.807)" fill="#fed6a8"/>
    <g id="Group_56943" data-name="Group 56943" transform="translate(180 8328.145)">
      <g id="Group_56942" data-name="Group 56942" transform="translate(4.007 28)">
        <rect id="Rectangle_5293" data-name="Rectangle 5293" width="182.695" height="257.219" transform="translate(213.299 13.621)" fill="#344154" opacity="0.15"/>
        <g id="Group_56682" data-name="Group 56682" transform="translate(299.952 210.592)">
          <g id="Group_56681" data-name="Group 56681">
            <path id="Path_101894" data-name="Path 101894" d="M940.144,4996.261a12.258,12.258,0,0,1,2.995-1.3l.617-2.964,5.009-.087.72,2.941a12.294,12.294,0,0,1,3.039,1.195l2.531-1.66,3.6,3.48-1.569,2.587a12.24,12.24,0,0,1,1.3,3l2.964.617.088,5.009-2.941.721a12.306,12.306,0,0,1-1.2,3.038l1.659,2.531-3.479,3.6L952.9,5017.4a12.313,12.313,0,0,1-3,1.3l-.617,2.964-5.008.087-.721-2.94a12.292,12.292,0,0,1-3.038-1.2l-2.531,1.659-3.6-3.479,1.57-2.588a12.25,12.25,0,0,1-1.3-3l-2.964-.618-.088-5.008,2.941-.72a12.294,12.294,0,0,1,1.2-3.039l-1.659-2.531,3.48-3.6,2.588,1.57Zm2.67,6.672a5.373,5.373,0,1,0,7.6-.134A5.373,5.373,0,0,0,942.814,5002.934Z" transform="translate(-931.599 -4991.907)" fill="#f5f5f5"/>
          </g>
        </g>
        <g id="Group_56703" data-name="Group 56703" transform="translate(197.14)">
          <g id="Group_56699" data-name="Group 56699" transform="translate(0 0)">
            <g id="Group_56685" data-name="Group 56685">
              <rect id="Rectangle_5298" data-name="Rectangle 5298" width="183.97" height="259.582" transform="translate(0.214 0.214)" fill="#fff"/>
              <g id="Group_56684" data-name="Group 56684">
                <path id="Path_101896" data-name="Path 101896" d="M1008.037,4981.243c0-1.728-.079-106.231-.194-259.581l.194.193-183.949.019h-.021l.214-.212c-.015,97.274-.03,187.225-.041,259.581l-.174-.174c111.743.1,182.548.172,183.971.174l-183.971.173h-.173v-.173c-.011-72.356-.025-162.307-.04-259.581v-.216h.234c65.831.009,128.316.015,183.949.02h.195v.2C1008.117,4875.013,1008.039,4979.518,1008.037,4981.243Z" transform="translate(-823.853 -4721.446)" fill="#1a2e35"/>
              </g>
            </g>
            <rect id="Rectangle_5299" data-name="Rectangle 5299" width="78.536" height="18.006" rx="6.688" transform="translate(12.606 172.561)" fill="#f5f5f5"/>
            <rect id="Rectangle_5300" data-name="Rectangle 5300" width="36.877" height="18.006" rx="6.688" transform="translate(51.098 172.561)" fill="#f5f5f5"/>
            <rect id="Rectangle_5301" data-name="Rectangle 5301" width="161.938" height="18.006" rx="6.688" transform="translate(12.235 209.47)" fill="#f5f5f5"/>
            <g id="Group_56686" data-name="Group 56686" transform="translate(14.759 165.102)">
              <path id="Path_101897" data-name="Path 101897" d="M872.294,4884.25c0,.12-7.592.214-16.952.214s-16.954-.095-16.954-.214,7.589-.212,16.954-.212S872.294,4884.133,872.294,4884.25Z" transform="translate(-838.388 -4884.038)" fill="#1a2e35"/>
            </g>
            <g id="Group_56687" data-name="Group 56687" transform="translate(15.186 201.825)">
              <path id="Path_101898" data-name="Path 101898" d="M893.8,4920.415c0,.118-12.312.214-27.5.214s-27.5-.1-27.5-.214,12.309-.213,27.5-.213S893.8,4920.3,893.8,4920.415Z" transform="translate(-838.808 -4920.202)" fill="#1a2e35"/>
            </g>
            <rect id="Rectangle_5302" data-name="Rectangle 5302" width="79.153" height="19.684" rx="6.508" transform="translate(9.344 131.682)" fill="#e1e1e1"/>
            <rect id="Rectangle_5303" data-name="Rectangle 5303" width="164.829" height="19.684" rx="6.508" transform="translate(9.344 12.001)" fill="#e1e1e1"/>
            <g id="Group_56688" data-name="Group 56688" transform="translate(61.543 21.63)">
              <path id="Path_101899" data-name="Path 101899" d="M949.783,4742.962c0,.117-14.624.213-32.66.213s-32.664-.1-32.664-.213,14.621-.214,32.664-.214S949.783,4742.843,949.783,4742.962Z" transform="translate(-884.46 -4742.748)" fill="#1a2e35"/>
            </g>
            <g id="Group_56689" data-name="Group 56689" transform="translate(0.049 36.238)">
              <path id="Path_101900" data-name="Path 101900" d="M1008.036,4757.348c0,.119-41.223.215-92.063.215-50.858,0-92.072-.1-92.072-.215s41.214-.213,92.072-.213C966.813,4757.134,1008.036,4757.23,1008.036,4757.348Z" transform="translate(-823.901 -4757.134)" fill="#ececec"/>
            </g>
            <g id="Group_56690" data-name="Group 56690" transform="translate(0.049 123.316)">
              <path id="Path_101901" data-name="Path 101901" d="M1008.036,4843.1c0,.118-41.223.214-92.063.214-50.858,0-92.072-.1-92.072-.214s41.214-.213,92.072-.213C966.813,4842.888,1008.036,4842.982,1008.036,4843.1Z" transform="translate(-823.901 -4842.888)" fill="#ececec"/>
            </g>
            <rect id="Rectangle_5304" data-name="Rectangle 5304" width="78.536" height="18.006" rx="6.688" transform="translate(12.606 56.186)" fill="#f5f5f5"/>
            <rect id="Rectangle_5305" data-name="Rectangle 5305" width="36.877" height="18.006" rx="6.688" transform="translate(51.098 56.186)" fill="#f5f5f5"/>
            <rect id="Rectangle_5306" data-name="Rectangle 5306" width="77.765" height="18.006" rx="6.688" transform="translate(10.732 93.095)" fill="#f5f5f5"/>
            <g id="Group_56691" data-name="Group 56691" transform="translate(14.759 48.728)">
              <path id="Path_101902" data-name="Path 101902" d="M872.294,4769.646c0,.117-7.592.215-16.952.215s-16.954-.1-16.954-.215,7.589-.213,16.954-.213S872.294,4769.528,872.294,4769.646Z" transform="translate(-838.388 -4769.434)" fill="#1a2e35"/>
            </g>
            <g id="Group_56692" data-name="Group 56692" transform="translate(102.173 48.728)">
              <path id="Path_101903" data-name="Path 101903" d="M951.169,4769.646c0,.117-5.977.215-13.347.215s-13.35-.1-13.35-.215,5.976-.213,13.35-.213S951.169,4769.528,951.169,4769.646Z" transform="translate(-924.472 -4769.434)" fill="#1a2e35"/>
            </g>
            <g id="Group_56693" data-name="Group 56693" transform="translate(15.186 85.449)">
              <path id="Path_101904" data-name="Path 101904" d="M893.8,4805.811c0,.117-12.312.213-27.5.213s-27.5-.1-27.5-.213,12.309-.214,27.5-.214S893.8,4805.692,893.8,4805.811Z" transform="translate(-838.808 -4805.597)" fill="#1a2e35"/>
            </g>
            <g id="Group_56694" data-name="Group 56694" transform="translate(114.848 238.206)">
              <path id="Path_101905" data-name="Path 101905" d="M990.6,4956.243c0,.119-12.009.214-26.82.214s-26.823-.1-26.823-.214,12.006-.214,26.823-.214S990.6,4956.125,990.6,4956.243Z" transform="translate(-936.954 -4956.029)" fill="#1a2e35"/>
            </g>
            <g id="Group_56695" data-name="Group 56695" transform="translate(95.767 54.672)">
              <path id="Path_101906" data-name="Path 101906" d="M924.064,4786.312a1.546,1.546,0,0,0-.385-1.1,3.472,3.472,0,0,0-1.306-.756,15.607,15.607,0,0,1-1.589-.689,5.153,5.153,0,0,1-1.145-.785,3.166,3.166,0,0,1-.744-1.045,3.513,3.513,0,0,1-.266-1.429,3.166,3.166,0,0,1,.913-2.341,3.843,3.843,0,0,1,2.427-1.066v-1.81h1.353v1.835a3.53,3.53,0,0,1,2.342,1.247,4.11,4.11,0,0,1,.845,2.684h-2.443a2.328,2.328,0,0,0-.418-1.517,1.378,1.378,0,0,0-1.12-.5,1.424,1.424,0,0,0-1.073.392,1.5,1.5,0,0,0-.381,1.087,1.433,1.433,0,0,0,.372,1.032,4.112,4.112,0,0,0,1.383.794,15.161,15.161,0,0,1,1.66.766,4.787,4.787,0,0,1,1.1.811,3.13,3.13,0,0,1,.685,1.032,3.558,3.558,0,0,1,.237,1.349,3.154,3.154,0,0,1-.9,2.332,3.927,3.927,0,0,1-2.468,1.057v1.683H921.8v-1.673a4.07,4.07,0,0,1-2.684-1.231,3.961,3.961,0,0,1-.952-2.776h2.443a2.248,2.248,0,0,0,.478,1.543,1.742,1.742,0,0,0,1.373.537,1.677,1.677,0,0,0,1.176-.394A1.367,1.367,0,0,0,924.064,4786.312Z" transform="translate(-918.163 -4775.287)" fill="#aed3f2"/>
              <path id="Path_101907" data-name="Path 101907" d="M938.175,4789.52h-2.443V4780.1l-2.917.9v-1.986l5.1-1.826h.263Z" transform="translate(-917.937 -4775.259)" fill="#aed3f2"/>
              <path id="Path_101908" data-name="Path 101908" d="M950.317,4784.433a6.231,6.231,0,0,1-1.057,3.9,4.221,4.221,0,0,1-6.171.025,6.057,6.057,0,0,1-1.091-3.8v-2.265a6.15,6.15,0,0,1,1.069-3.914,4.23,4.23,0,0,1,6.158-.013,6.035,6.035,0,0,1,1.091,3.8Zm-2.443-2.492a4.5,4.5,0,0,0-.418-2.229,1.415,1.415,0,0,0-1.306-.7,1.391,1.391,0,0,0-1.272.665,4.226,4.226,0,0,0-.436,2.079v2.994a4.726,4.726,0,0,0,.41,2.237,1.394,1.394,0,0,0,1.314.732,1.37,1.37,0,0,0,1.294-.7,4.61,4.61,0,0,0,.414-2.148Z" transform="translate(-917.795 -4775.26)" fill="#aed3f2"/>
              <path id="Path_101909" data-name="Path 101909" d="M960.1,4784.433a6.229,6.229,0,0,1-1.057,3.9,4.22,4.22,0,0,1-6.171.025,6.053,6.053,0,0,1-1.091-3.8v-2.265a6.15,6.15,0,0,1,1.069-3.914,4.23,4.23,0,0,1,6.158-.013,6.034,6.034,0,0,1,1.091,3.8Zm-2.443-2.492a4.5,4.5,0,0,0-.418-2.229,1.415,1.415,0,0,0-1.306-.7,1.392,1.392,0,0,0-1.272.665,4.227,4.227,0,0,0-.436,2.079v2.994a4.726,4.726,0,0,0,.41,2.237,1.4,1.4,0,0,0,1.314.732,1.371,1.371,0,0,0,1.294-.7,4.617,4.617,0,0,0,.414-2.148Z" transform="translate(-917.644 -4775.26)" fill="#aed3f2"/>
              <path id="Path_101910" data-name="Path 101910" d="M961.82,4788.169a1.229,1.229,0,0,1,.393-.946,1.53,1.53,0,0,1,1.978,0,1.229,1.229,0,0,1,.393.946,1.208,1.208,0,0,1-.389.934,1.55,1.55,0,0,1-1.986,0A1.211,1.211,0,0,1,961.82,4788.169Z" transform="translate(-917.489 -4775.109)" fill="#aed3f2"/>
              <path id="Path_101911" data-name="Path 101911" d="M974.833,4784.433a6.236,6.236,0,0,1-1.056,3.9,4.221,4.221,0,0,1-6.172.025,6.052,6.052,0,0,1-1.091-3.8v-2.265a6.145,6.145,0,0,1,1.07-3.914,4.23,4.23,0,0,1,6.158-.013,6.023,6.023,0,0,1,1.09,3.8Zm-2.443-2.492a4.5,4.5,0,0,0-.418-2.229,1.413,1.413,0,0,0-1.306-.7,1.392,1.392,0,0,0-1.272.665,4.223,4.223,0,0,0-.436,2.079v2.994a4.726,4.726,0,0,0,.41,2.237,1.4,1.4,0,0,0,1.315.732,1.369,1.369,0,0,0,1.293-.7,4.609,4.609,0,0,0,.414-2.148Z" transform="translate(-917.416 -4775.26)" fill="#aed3f2"/>
              <path id="Path_101912" data-name="Path 101912" d="M982.958,4777.085v2.013h-.236a4.143,4.143,0,0,0-2.667.862,3.5,3.5,0,0,0-1.214,2.324,3.327,3.327,0,0,1,2.478-1,3.135,3.135,0,0,1,2.553,1.15,4.61,4.61,0,0,1,.946,3.026,4.537,4.537,0,0,1-.52,2.173,3.728,3.728,0,0,1-1.47,1.512,4.285,4.285,0,0,1-2.152.541,3.988,3.988,0,0,1-3.141-1.352,5.252,5.252,0,0,1-1.2-3.61v-.878a7.9,7.9,0,0,1,.757-3.538,5.548,5.548,0,0,1,2.173-2.376,6.366,6.366,0,0,1,3.284-.849Zm-2.384,6.172a1.945,1.945,0,0,0-1.073.307,1.852,1.852,0,0,0-.711.814v.742a3.291,3.291,0,0,0,.482,1.911,1.554,1.554,0,0,0,1.353.688,1.537,1.537,0,0,0,1.272-.621,2.909,2.909,0,0,0,0-3.227A1.6,1.6,0,0,0,980.574,4783.258Z" transform="translate(-917.264 -4775.26)" fill="#aed3f2"/>
              <path id="Path_101913" data-name="Path 101913" d="M994.4,4784.433a6.236,6.236,0,0,1-1.056,3.9,4.222,4.222,0,0,1-6.172.025,6.055,6.055,0,0,1-1.09-3.8v-2.265a6.144,6.144,0,0,1,1.07-3.914,4.23,4.23,0,0,1,6.158-.013,6.024,6.024,0,0,1,1.09,3.8Zm-2.443-2.492a4.5,4.5,0,0,0-.418-2.229,1.413,1.413,0,0,0-1.306-.7,1.391,1.391,0,0,0-1.272.665,4.227,4.227,0,0,0-.436,2.079v2.994a4.721,4.721,0,0,0,.41,2.237,1.4,1.4,0,0,0,1.315.732,1.369,1.369,0,0,0,1.292-.7,4.612,4.612,0,0,0,.414-2.148Z" transform="translate(-917.114 -4775.26)" fill="#aed3f2"/>
            </g>
            <g id="Group_56696" data-name="Group 56696" transform="translate(95.767 77.089)">
              <path id="Path_101914" data-name="Path 101914" d="M924.064,4808.388a1.554,1.554,0,0,0-.385-1.105,3.5,3.5,0,0,0-1.306-.756,14.99,14.99,0,0,1-1.589-.688,5.088,5.088,0,0,1-1.145-.785,3.16,3.16,0,0,1-.744-1.046,3.509,3.509,0,0,1-.266-1.427,3.176,3.176,0,0,1,.913-2.343,3.856,3.856,0,0,1,2.427-1.064v-1.809h1.353v1.833a3.545,3.545,0,0,1,2.342,1.247,4.117,4.117,0,0,1,.845,2.686h-2.443a2.334,2.334,0,0,0-.418-1.518,1.38,1.38,0,0,0-1.12-.5,1.425,1.425,0,0,0-1.073.394,1.5,1.5,0,0,0-.381,1.086,1.426,1.426,0,0,0,.372,1.03,4.069,4.069,0,0,0,1.383.8,15.563,15.563,0,0,1,1.66.764,4.806,4.806,0,0,1,1.1.813,3.173,3.173,0,0,1,.685,1.03,3.567,3.567,0,0,1,.237,1.35,3.154,3.154,0,0,1-.9,2.333,3.934,3.934,0,0,1-2.468,1.056v1.682H921.8v-1.674a4.061,4.061,0,0,1-2.684-1.229,3.962,3.962,0,0,1-.952-2.777h2.443a2.246,2.246,0,0,0,.478,1.542,1.738,1.738,0,0,0,1.373.537,1.681,1.681,0,0,0,1.176-.393A1.364,1.364,0,0,0,924.064,4808.388Z" transform="translate(-918.163 -4797.363)" fill="#aed3f2"/>
              <path id="Path_101915" data-name="Path 101915" d="M940.273,4802.561a2.863,2.863,0,0,1-.448,1.589,3.227,3.227,0,0,1-1.235,1.107,3.57,3.57,0,0,1,1.421,1.187,3.052,3.052,0,0,1,.524,1.78,3.224,3.224,0,0,1-1.116,2.591,5.32,5.32,0,0,1-6.079,0,3.22,3.22,0,0,1-1.124-2.587,3.068,3.068,0,0,1,.524-1.784,3.506,3.506,0,0,1,1.411-1.183,3.188,3.188,0,0,1-1.23-1.107,2.884,2.884,0,0,1-.444-1.589,3.191,3.191,0,0,1,1.048-2.507,4.823,4.823,0,0,1,5.694-.009A3.181,3.181,0,0,1,940.273,4802.561Zm-2.189,5.487a1.779,1.779,0,0,0-.465-1.287,1.863,1.863,0,0,0-2.494,0,2,2,0,0,0-.008,2.557,1.907,1.907,0,0,0,2.514.017A1.763,1.763,0,0,0,938.083,4808.048Zm-.254-5.369a1.692,1.692,0,0,0-.381-1.155,1.547,1.547,0,0,0-2.139-.013,1.683,1.683,0,0,0-.381,1.167,1.765,1.765,0,0,0,.381,1.183,1.505,1.505,0,0,0,2.143,0A1.779,1.779,0,0,0,937.829,4802.679Z" transform="translate(-917.946 -4797.336)" fill="#aed3f2"/>
              <path id="Path_101916" data-name="Path 101916" d="M950.317,4806.508a6.239,6.239,0,0,1-1.057,3.907,4.223,4.223,0,0,1-6.171.025,6.064,6.064,0,0,1-1.091-3.8v-2.267a6.151,6.151,0,0,1,1.069-3.914,4.231,4.231,0,0,1,6.158-.014,6.041,6.041,0,0,1,1.091,3.8Zm-2.443-2.492a4.5,4.5,0,0,0-.418-2.229,1.416,1.416,0,0,0-1.306-.7,1.388,1.388,0,0,0-1.272.665,4.221,4.221,0,0,0-.436,2.077v2.995a4.728,4.728,0,0,0,.41,2.238,1.392,1.392,0,0,0,1.314.732,1.371,1.371,0,0,0,1.294-.7,4.6,4.6,0,0,0,.414-2.148Z" transform="translate(-917.795 -4797.336)" fill="#aed3f2"/>
              <path id="Path_101917" data-name="Path 101917" d="M960.1,4806.508a6.238,6.238,0,0,1-1.057,3.907,4.223,4.223,0,0,1-6.171.025,6.059,6.059,0,0,1-1.091-3.8v-2.267a6.151,6.151,0,0,1,1.069-3.914,4.231,4.231,0,0,1,6.158-.014,6.04,6.04,0,0,1,1.091,3.8Zm-2.443-2.492a4.5,4.5,0,0,0-.418-2.229,1.416,1.416,0,0,0-1.306-.7,1.389,1.389,0,0,0-1.272.665,4.222,4.222,0,0,0-.436,2.077v2.995a4.728,4.728,0,0,0,.41,2.238,1.392,1.392,0,0,0,1.314.732,1.372,1.372,0,0,0,1.294-.7,4.609,4.609,0,0,0,.414-2.148Z" transform="translate(-917.644 -4797.336)" fill="#aed3f2"/>
              <path id="Path_101918" data-name="Path 101918" d="M961.82,4810.245a1.229,1.229,0,0,1,.393-.947,1.53,1.53,0,0,1,1.978,0,1.228,1.228,0,0,1,.393.947,1.212,1.212,0,0,1-.389.934,1.55,1.55,0,0,1-1.986,0A1.214,1.214,0,0,1,961.82,4810.245Z" transform="translate(-917.489 -4797.184)" fill="#aed3f2"/>
              <path id="Path_101919" data-name="Path 101919" d="M974.833,4806.508a6.244,6.244,0,0,1-1.056,3.907,4.223,4.223,0,0,1-6.172.025,6.058,6.058,0,0,1-1.091-3.8v-2.267a6.146,6.146,0,0,1,1.07-3.914,4.23,4.23,0,0,1,6.158-.014,6.029,6.029,0,0,1,1.09,3.8Zm-2.443-2.492a4.5,4.5,0,0,0-.418-2.229,1.414,1.414,0,0,0-1.306-.7,1.389,1.389,0,0,0-1.272.665,4.218,4.218,0,0,0-.436,2.077v2.995a4.728,4.728,0,0,0,.41,2.238,1.394,1.394,0,0,0,1.315.732,1.37,1.37,0,0,0,1.293-.7,4.6,4.6,0,0,0,.414-2.148Z" transform="translate(-917.416 -4797.336)" fill="#aed3f2"/>
              <path id="Path_101920" data-name="Path 101920" d="M984.615,4806.508a6.245,6.245,0,0,1-1.056,3.907,4.224,4.224,0,0,1-6.172.025,6.061,6.061,0,0,1-1.091-3.8v-2.267a6.145,6.145,0,0,1,1.07-3.914,4.23,4.23,0,0,1,6.157-.014,6.028,6.028,0,0,1,1.091,3.8Zm-2.443-2.492a4.5,4.5,0,0,0-.418-2.229,1.414,1.414,0,0,0-1.306-.7,1.388,1.388,0,0,0-1.272.665,4.219,4.219,0,0,0-.436,2.077v2.995a4.728,4.728,0,0,0,.41,2.238,1.394,1.394,0,0,0,1.315.732,1.37,1.37,0,0,0,1.293-.7,4.609,4.609,0,0,0,.414-2.148Z" transform="translate(-917.265 -4797.336)" fill="#aed3f2"/>
              <path id="Path_101921" data-name="Path 101921" d="M994.4,4806.508a6.244,6.244,0,0,1-1.056,3.907,4.224,4.224,0,0,1-6.172.025,6.061,6.061,0,0,1-1.09-3.8v-2.267a6.145,6.145,0,0,1,1.07-3.914,4.23,4.23,0,0,1,6.158-.014,6.03,6.03,0,0,1,1.09,3.8Zm-2.443-2.492a4.5,4.5,0,0,0-.418-2.229,1.414,1.414,0,0,0-1.306-.7,1.389,1.389,0,0,0-1.272.665,4.222,4.222,0,0,0-.436,2.077v2.995a4.723,4.723,0,0,0,.41,2.238,1.393,1.393,0,0,0,1.315.732,1.37,1.37,0,0,0,1.292-.7,4.6,4.6,0,0,0,.414-2.148Z" transform="translate(-917.114 -4797.336)" fill="#aed3f2"/>
            </g>
            <g id="Group_56697" data-name="Group 56697" transform="translate(95.767 96.806)">
              <path id="Path_101922" data-name="Path 101922" d="M924.064,4827.8a1.544,1.544,0,0,0-.385-1.1,3.465,3.465,0,0,0-1.306-.757,15.31,15.31,0,0,1-1.589-.687,5.142,5.142,0,0,1-1.145-.787,3.169,3.169,0,0,1-.744-1.044,3.508,3.508,0,0,1-.266-1.428,3.169,3.169,0,0,1,.913-2.342,3.857,3.857,0,0,1,2.427-1.065v-1.811h1.353v1.835a3.519,3.519,0,0,1,2.342,1.248,4.107,4.107,0,0,1,.845,2.684h-2.443a2.33,2.33,0,0,0-.418-1.517,1.378,1.378,0,0,0-1.12-.5,1.427,1.427,0,0,0-1.073.393,1.5,1.5,0,0,0-.381,1.086,1.432,1.432,0,0,0,.372,1.033,4.128,4.128,0,0,0,1.383.794,15.161,15.161,0,0,1,1.66.766,4.732,4.732,0,0,1,1.1.811,3.123,3.123,0,0,1,.685,1.032,3.545,3.545,0,0,1,.237,1.347,3.157,3.157,0,0,1-.9,2.333,3.94,3.94,0,0,1-2.468,1.057v1.684H921.8v-1.675a4.067,4.067,0,0,1-2.684-1.23,3.962,3.962,0,0,1-.952-2.777h2.443a2.247,2.247,0,0,0,.478,1.543,1.739,1.739,0,0,0,1.373.536,1.678,1.678,0,0,0,1.176-.392A1.367,1.367,0,0,0,924.064,4827.8Z" transform="translate(-918.163 -4816.779)" fill="#344154"/>
              <path id="Path_101923" data-name="Path 101923" d="M938.175,4831.014h-2.443v-9.419l-2.917.905v-1.987l5.1-1.826h.263Z" transform="translate(-917.937 -4816.75)" fill="#344154"/>
              <path id="Path_101924" data-name="Path 101924" d="M950.317,4825.926a6.234,6.234,0,0,1-1.057,3.905,4.221,4.221,0,0,1-6.171.025,6.057,6.057,0,0,1-1.091-3.8v-2.266a6.154,6.154,0,0,1,1.069-3.914,4.231,4.231,0,0,1,6.158-.012,6.035,6.035,0,0,1,1.091,3.8Zm-2.443-2.492a4.5,4.5,0,0,0-.418-2.229,1.415,1.415,0,0,0-1.306-.7,1.389,1.389,0,0,0-1.272.664,4.217,4.217,0,0,0-.436,2.077v3a4.732,4.732,0,0,0,.41,2.238,1.392,1.392,0,0,0,1.314.731,1.37,1.37,0,0,0,1.294-.7,4.607,4.607,0,0,0,.414-2.148Z" transform="translate(-917.795 -4816.752)" fill="#344154"/>
              <path id="Path_101925" data-name="Path 101925" d="M960.1,4825.926a6.232,6.232,0,0,1-1.057,3.905,4.221,4.221,0,0,1-6.171.025,6.053,6.053,0,0,1-1.091-3.8v-2.266a6.154,6.154,0,0,1,1.069-3.914,4.231,4.231,0,0,1,6.158-.012,6.034,6.034,0,0,1,1.091,3.8Zm-2.443-2.492a4.5,4.5,0,0,0-.418-2.229,1.415,1.415,0,0,0-1.306-.7,1.389,1.389,0,0,0-1.272.664,4.218,4.218,0,0,0-.436,2.077v3a4.732,4.732,0,0,0,.41,2.238,1.393,1.393,0,0,0,1.314.731,1.371,1.371,0,0,0,1.294-.7,4.614,4.614,0,0,0,.414-2.148Z" transform="translate(-917.644 -4816.752)" fill="#344154"/>
              <path id="Path_101926" data-name="Path 101926" d="M961.82,4829.663a1.232,1.232,0,0,1,.393-.947,1.528,1.528,0,0,1,1.978,0,1.232,1.232,0,0,1,.393.947,1.21,1.21,0,0,1-.389.934,1.552,1.552,0,0,1-1.986,0A1.213,1.213,0,0,1,961.82,4829.663Z" transform="translate(-917.489 -4816.6)" fill="#344154"/>
              <path id="Path_101927" data-name="Path 101927" d="M974.833,4825.926a6.238,6.238,0,0,1-1.056,3.905,4.222,4.222,0,0,1-6.172.025,6.052,6.052,0,0,1-1.091-3.8v-2.266a6.149,6.149,0,0,1,1.07-3.914,4.23,4.23,0,0,1,6.158-.012,6.023,6.023,0,0,1,1.09,3.8Zm-2.443-2.492a4.5,4.5,0,0,0-.418-2.229,1.413,1.413,0,0,0-1.306-.7,1.389,1.389,0,0,0-1.272.664,4.214,4.214,0,0,0-.436,2.077v3a4.732,4.732,0,0,0,.41,2.238,1.394,1.394,0,0,0,1.315.731,1.369,1.369,0,0,0,1.293-.7,4.606,4.606,0,0,0,.414-2.148Z" transform="translate(-917.416 -4816.752)" fill="#344154"/>
              <path id="Path_101928" data-name="Path 101928" d="M984.615,4825.926a6.239,6.239,0,0,1-1.056,3.905,4.222,4.222,0,0,1-6.172.025,6.055,6.055,0,0,1-1.091-3.8v-2.266a6.148,6.148,0,0,1,1.07-3.914,4.23,4.23,0,0,1,6.157-.012,6.022,6.022,0,0,1,1.091,3.8Zm-2.443-2.492a4.5,4.5,0,0,0-.418-2.229,1.413,1.413,0,0,0-1.306-.7,1.389,1.389,0,0,0-1.272.664,4.215,4.215,0,0,0-.436,2.077v3a4.732,4.732,0,0,0,.41,2.238,1.394,1.394,0,0,0,1.315.731,1.369,1.369,0,0,0,1.293-.7,4.614,4.614,0,0,0,.414-2.148Z" transform="translate(-917.265 -4816.752)" fill="#344154"/>
              <path id="Path_101929" data-name="Path 101929" d="M994.4,4825.926a6.238,6.238,0,0,1-1.056,3.905,4.222,4.222,0,0,1-6.172.025,6.055,6.055,0,0,1-1.09-3.8v-2.266a6.148,6.148,0,0,1,1.07-3.914,4.23,4.23,0,0,1,6.158-.012,6.023,6.023,0,0,1,1.09,3.8Zm-2.443-2.492a4.5,4.5,0,0,0-.418-2.229,1.413,1.413,0,0,0-1.306-.7,1.389,1.389,0,0,0-1.272.664,4.218,4.218,0,0,0-.436,2.077v3a4.727,4.727,0,0,0,.41,2.238,1.394,1.394,0,0,0,1.315.731,1.369,1.369,0,0,0,1.292-.7,4.61,4.61,0,0,0,.414-2.148Z" transform="translate(-917.114 -4816.752)" fill="#344154"/>
            </g>
            <g id="Group_56698" data-name="Group 56698" transform="translate(95.767 115.362)">
              <path id="Path_101930" data-name="Path 101930" d="M924.064,4846.078a1.541,1.541,0,0,0-.385-1.1,3.446,3.446,0,0,0-1.306-.757,15.607,15.607,0,0,1-1.589-.689,5.126,5.126,0,0,1-1.145-.787,3.152,3.152,0,0,1-.744-1.044,3.515,3.515,0,0,1-.266-1.428,3.175,3.175,0,0,1,.913-2.343,3.856,3.856,0,0,1,2.427-1.064v-1.809h1.353v1.834a3.525,3.525,0,0,1,2.342,1.246,4.113,4.113,0,0,1,.845,2.685h-2.443a2.339,2.339,0,0,0-.418-1.519,1.383,1.383,0,0,0-1.12-.5,1.418,1.418,0,0,0-1.073.394,1.5,1.5,0,0,0-.381,1.087,1.426,1.426,0,0,0,.372,1.029,4.076,4.076,0,0,0,1.383.8,15.161,15.161,0,0,1,1.66.766,4.761,4.761,0,0,1,1.1.812,3.132,3.132,0,0,1,.685,1.03,3.563,3.563,0,0,1,.237,1.35,3.158,3.158,0,0,1-.9,2.333,3.931,3.931,0,0,1-2.468,1.056v1.683H921.8v-1.674a4.064,4.064,0,0,1-2.684-1.23,3.959,3.959,0,0,1-.952-2.775h2.443a2.243,2.243,0,0,0,.478,1.542,1.745,1.745,0,0,0,1.373.537,1.681,1.681,0,0,0,1.176-.393A1.37,1.37,0,0,0,924.064,4846.078Z" transform="translate(-918.163 -4835.055)" fill="#aed3f2"/>
              <path id="Path_101931" data-name="Path 101931" d="M939.483,4844.653h1.4v1.97h-1.4v2.663h-2.443v-2.663h-5.047l-.11-1.539,5.131-8.107h2.469Zm-5.165,0h2.721v-4.345l-.161.28Z" transform="translate(-917.951 -4835.024)" fill="#aed3f2"/>
              <path id="Path_101932" data-name="Path 101932" d="M950.317,4844.2a6.236,6.236,0,0,1-1.057,3.907,4.222,4.222,0,0,1-6.171.024,6.06,6.06,0,0,1-1.091-3.8v-2.266a6.15,6.15,0,0,1,1.069-3.913,4.231,4.231,0,0,1,6.158-.013,6.035,6.035,0,0,1,1.091,3.8Zm-2.443-2.491a4.5,4.5,0,0,0-.418-2.229,1.414,1.414,0,0,0-1.306-.7,1.388,1.388,0,0,0-1.272.665,4.22,4.22,0,0,0-.436,2.078v2.994a4.724,4.724,0,0,0,.41,2.238,1.392,1.392,0,0,0,1.314.733,1.371,1.371,0,0,0,1.294-.7,4.6,4.6,0,0,0,.414-2.148Z" transform="translate(-917.795 -4835.027)" fill="#aed3f2"/>
              <path id="Path_101933" data-name="Path 101933" d="M960.187,4838.341l-4.759,10.945h-2.578l4.768-10.339H951.5v-1.97h8.69Z" transform="translate(-917.648 -4835.024)" fill="#aed3f2"/>
              <path id="Path_101934" data-name="Path 101934" d="M961.82,4847.936a1.228,1.228,0,0,1,.393-.946,1.525,1.525,0,0,1,1.978,0,1.227,1.227,0,0,1,.393.946,1.213,1.213,0,0,1-.389.934,1.552,1.552,0,0,1-1.986,0A1.216,1.216,0,0,1,961.82,4847.936Z" transform="translate(-917.489 -4834.875)" fill="#aed3f2"/>
              <path id="Path_101935" data-name="Path 101935" d="M974.833,4844.2a6.241,6.241,0,0,1-1.056,3.907,4.222,4.222,0,0,1-6.172.024,6.054,6.054,0,0,1-1.091-3.8v-2.266a6.145,6.145,0,0,1,1.07-3.913,4.23,4.23,0,0,1,6.158-.013,6.023,6.023,0,0,1,1.09,3.8Zm-2.443-2.491a4.5,4.5,0,0,0-.418-2.229,1.412,1.412,0,0,0-1.306-.7,1.389,1.389,0,0,0-1.272.665,4.217,4.217,0,0,0-.436,2.078v2.994a4.724,4.724,0,0,0,.41,2.238,1.394,1.394,0,0,0,1.315.733,1.37,1.37,0,0,0,1.293-.7,4.6,4.6,0,0,0,.414-2.148Z" transform="translate(-917.416 -4835.027)" fill="#aed3f2"/>
              <path id="Path_101936" data-name="Path 101936" d="M984.615,4844.2a6.242,6.242,0,0,1-1.056,3.907,4.223,4.223,0,0,1-6.172.024,6.057,6.057,0,0,1-1.091-3.8v-2.266a6.144,6.144,0,0,1,1.07-3.913,4.23,4.23,0,0,1,6.157-.013,6.022,6.022,0,0,1,1.091,3.8Zm-2.443-2.491a4.5,4.5,0,0,0-.418-2.229,1.412,1.412,0,0,0-1.306-.7,1.388,1.388,0,0,0-1.272.665,4.218,4.218,0,0,0-.436,2.078v2.994a4.724,4.724,0,0,0,.41,2.238,1.394,1.394,0,0,0,1.315.733,1.37,1.37,0,0,0,1.293-.7,4.61,4.61,0,0,0,.414-2.148Z" transform="translate(-917.265 -4835.027)" fill="#aed3f2"/>
              <path id="Path_101937" data-name="Path 101937" d="M994.4,4844.2a6.241,6.241,0,0,1-1.056,3.907,4.223,4.223,0,0,1-6.172.024,6.057,6.057,0,0,1-1.09-3.8v-2.266a6.144,6.144,0,0,1,1.07-3.913,4.23,4.23,0,0,1,6.158-.013,6.023,6.023,0,0,1,1.09,3.8Zm-2.443-2.491a4.5,4.5,0,0,0-.418-2.229,1.412,1.412,0,0,0-1.306-.7,1.389,1.389,0,0,0-1.272.665,4.221,4.221,0,0,0-.436,2.078v2.994a4.72,4.72,0,0,0,.41,2.238,1.394,1.394,0,0,0,1.315.733,1.37,1.37,0,0,0,1.292-.7,4.605,4.605,0,0,0,.414-2.148Z" transform="translate(-917.114 -4835.027)" fill="#aed3f2"/>
            </g>
          </g>
          <g id="Group_56700" data-name="Group 56700" transform="translate(19.793 60.42)">
            <path id="Path_101938" data-name="Path 101938" d="M902.629,4787.609a9.436,9.436,0,0,1-1.271.318,15.04,15.04,0,0,1-9.477-1.357,5.436,5.436,0,0,1-1.457-1.1,3.473,3.473,0,0,1-.876-1.75,2.59,2.59,0,0,1,.422-2.036,1.974,1.974,0,0,1,2.075-.659,1.5,1.5,0,0,1,.912.769,1.924,1.924,0,0,1,.154,1.2,4.313,4.313,0,0,1-1.135,2.107,10.312,10.312,0,0,1-4.119,2.813,9.941,9.941,0,0,1-5.318.483,5.959,5.959,0,0,1-2.6-1.144,3.091,3.091,0,0,1-1.264-2.631,2.882,2.882,0,0,1,.565-1.431,2.247,2.247,0,0,1,1.294-.9,1.611,1.611,0,0,1,1.535.506,2.3,2.3,0,0,1,.55,1.518,3.107,3.107,0,0,1-.378,1.563,3.506,3.506,0,0,1-1.115,1.169,10.1,10.1,0,0,1-2.938,1.18c-1.993.566-4.172,1.176-6.388.679a6.027,6.027,0,0,1-2.939-1.594,4.221,4.221,0,0,1-1.274-3.141,2.779,2.779,0,0,1,.889-1.992,2.035,2.035,0,0,1,2.166-.23,1.673,1.673,0,0,1,.819.8,1.714,1.714,0,0,1,.1,1.133,3.224,3.224,0,0,1-1.281,1.691,16.611,16.611,0,0,1-7.388,2.809,7.476,7.476,0,0,1-3.848-.338,3.874,3.874,0,0,1-2.365-2.9,2.644,2.644,0,0,1,1.957-2.953,1.833,1.833,0,0,1,1.752.629,2.793,2.793,0,0,1,.615,1.706,3.4,3.4,0,0,1-.376,1.73,4.062,4.062,0,0,1-1.166,1.273,8.962,8.962,0,0,1-3.012,1.263c-2.012.535-4.133.909-6.009.217a5.16,5.16,0,0,1-2.283-1.663,3.7,3.7,0,0,1-.809-2.529,3.549,3.549,0,0,1,1.1-2.231,2.421,2.421,0,0,1,2.19-.655l.088.024,0,.087a6.349,6.349,0,0,1-1.609,4.365,6.646,6.646,0,0,1-2.876,1.961,5.487,5.487,0,0,1-2.156.276,6.388,6.388,0,0,1-.737-.14,5.706,5.706,0,0,0,2.85-.256,6.6,6.6,0,0,0,2.777-1.963,6.171,6.171,0,0,0,1.511-4.231l.091.11a2.162,2.162,0,0,0-1.956.612,3.29,3.29,0,0,0-1,2.062,4.133,4.133,0,0,0,2.923,3.875c1.764.641,3.814.286,5.81-.259a8.665,8.665,0,0,0,2.887-1.217,3.736,3.736,0,0,0,1.054-1.156,3.026,3.026,0,0,0,.326-1.538,2.431,2.431,0,0,0-.529-1.475,1.448,1.448,0,0,0-1.388-.5,2.257,2.257,0,0,0-1.637,2.518,3.48,3.48,0,0,0,2.129,2.579,7.111,7.111,0,0,0,3.638.3,16.232,16.232,0,0,0,7.183-2.736,2.84,2.84,0,0,0,1.124-1.453,1.219,1.219,0,0,0-.686-1.445,1.617,1.617,0,0,0-1.705.172,2.356,2.356,0,0,0-.739,1.689,3.79,3.79,0,0,0,1.152,2.819,5.609,5.609,0,0,0,2.73,1.479c2.068.471,4.189-.1,6.176-.668a9.774,9.774,0,0,0,2.821-1.118,3.134,3.134,0,0,0,.988-1.026,2.712,2.712,0,0,0,.33-1.354,1.9,1.9,0,0,0-.442-1.252,1.205,1.205,0,0,0-1.153-.388,2.3,2.3,0,0,0-1.553,1.983,2.715,2.715,0,0,0,1.117,2.291,5.58,5.58,0,0,0,2.429,1.074,9.582,9.582,0,0,0,5.123-.448,9.957,9.957,0,0,0,4-2.7,3.987,3.987,0,0,0,1.069-1.937,1.354,1.354,0,0,0-.844-1.625,1.684,1.684,0,0,0-1.76.547,2.323,2.323,0,0,0-.381,1.812,3.934,3.934,0,0,0,2.181,2.69,14.93,14.93,0,0,0,5.625,1.612,15.694,15.694,0,0,0,3.724-.132c.421-.069.743-.127.958-.176A2.014,2.014,0,0,1,902.629,4787.609Z" transform="translate(-843.345 -4780.947)" fill="#d9a171"/>
          </g>
          <g id="Group_56701" data-name="Group 56701" transform="translate(108.75 59.828)">
            <path id="Path_101939" data-name="Path 101939" d="M981.577,4786.64a5.483,5.483,0,0,1-1.032.514,9.469,9.469,0,0,1-3.231.678,9.918,9.918,0,0,1-5.072-1.187,6.309,6.309,0,0,1-2.47-2.168,2.935,2.935,0,0,1-.443-1.784,2.487,2.487,0,0,1,.952-1.691,1.6,1.6,0,0,1,1-.331,1.535,1.535,0,0,1,1,.423,2.439,2.439,0,0,1,.665,2.023,3.572,3.572,0,0,1-1.031,1.952,8.513,8.513,0,0,1-1.8,1.371,10.693,10.693,0,0,1-4.483,1.434,8.567,8.567,0,0,1-4.9-.914,4.8,4.8,0,0,1-1.9-1.839,3.578,3.578,0,0,1-.435-1.309,3.166,3.166,0,0,1,.2-1.389,3.219,3.219,0,0,1,1.955-1.973,1.88,1.88,0,0,1,1.475.148,2.284,2.284,0,0,1,.989,1.1,3.411,3.411,0,0,1-.109,2.875,5.963,5.963,0,0,1-1.955,2.15,10.724,10.724,0,0,1-5.509,1.9,10.936,10.936,0,0,1-5.7-1.225,8.605,8.605,0,0,1-2.318-1.728,3.926,3.926,0,0,1-1.151-2.636,2.6,2.6,0,0,1,1.581-2.341,1.6,1.6,0,0,1,1.473.176,2.16,2.16,0,0,1,.814,1.2,3.1,3.1,0,0,1-.553,2.656,8.228,8.228,0,0,1-1.89,1.82,11.552,11.552,0,0,1-9.272,1.983,6.257,6.257,0,0,1-3.761-2.252,3.477,3.477,0,0,1-.7-2,3.778,3.778,0,0,1,.494-1.963,2.5,2.5,0,0,1,1.516-1.209,2.148,2.148,0,0,1,1.794.4,3.3,3.3,0,0,1,1.211,3.008,4.05,4.05,0,0,1-1.45,2.457,5.462,5.462,0,0,1-2.144,1.088,10.558,10.558,0,0,1-3.3.206l-.855-.075a1.369,1.369,0,0,1-.29-.045,1.863,1.863,0,0,1,.293,0l.856.033a11.048,11.048,0,0,0,3.251-.281,5.307,5.307,0,0,0,2.055-1.081,3.853,3.853,0,0,0,1.345-2.335,3.052,3.052,0,0,0-1.137-2.758,1.872,1.872,0,0,0-1.564-.339,2.211,2.211,0,0,0-1.323,1.08,3.3,3.3,0,0,0,.209,3.617,5.943,5.943,0,0,0,3.571,2.1,11.215,11.215,0,0,0,8.961-1.955,7.905,7.905,0,0,0,1.792-1.733,2.687,2.687,0,0,0,.491-2.313,1.748,1.748,0,0,0-.654-.97,1.175,1.175,0,0,0-1.1-.128,2.2,2.2,0,0,0-1.3,1.956,3.513,3.513,0,0,0,1.044,2.345,8.2,8.2,0,0,0,2.206,1.638,10.544,10.544,0,0,0,5.476,1.174,10.306,10.306,0,0,0,5.286-1.823,5.525,5.525,0,0,0,1.822-1.991,2.988,2.988,0,0,0,.106-2.519,1.637,1.637,0,0,0-1.963-1.024,2.822,2.822,0,0,0-1.692,1.721,2.781,2.781,0,0,0-.181,1.2,3.206,3.206,0,0,0,.385,1.154,4.4,4.4,0,0,0,1.743,1.688,8.193,8.193,0,0,0,4.677.885,10.379,10.379,0,0,0,4.336-1.367,8.213,8.213,0,0,0,1.728-1.3,3.241,3.241,0,0,0,.949-1.756,2.119,2.119,0,0,0-.554-1.751,1.211,1.211,0,0,0-1.6-.08,2.214,2.214,0,0,0-.846,1.483,2.67,2.67,0,0,0,.392,1.611,6.1,6.1,0,0,0,2.35,2.1,9.907,9.907,0,0,0,8.158.637C981.222,4786.819,981.564,4786.612,981.577,4786.64Z" transform="translate(-930.949 -4780.364)" fill="#d9a171"/>
          </g>
          <g id="Group_56702" data-name="Group 56702" transform="translate(18.154 98.036)">
            <path id="Path_101940" data-name="Path 101940" d="M906.649,4822.314a2.2,2.2,0,0,1-.315.158l-.942.428c-.832.368-2.062.905-3.681,1.516a29.964,29.964,0,0,1-6.091,1.62,23.408,23.408,0,0,1-3.938.238,13.35,13.35,0,0,1-4.383-.662,5.218,5.218,0,0,1-3.33-3.467,3.386,3.386,0,0,1,.323-2.618,2.97,2.97,0,0,1,2.269-1.53,2.515,2.515,0,0,1,2.357,1.522,3.875,3.875,0,0,1,.207,2.92,5.705,5.705,0,0,1-1.719,2.465,11.162,11.162,0,0,1-2.578,1.662,8.832,8.832,0,0,1-6.232.729,6.319,6.319,0,0,1-4.33-4.772,5.2,5.2,0,0,1-.011-1.737,3.342,3.342,0,0,1,.706-1.627,2.209,2.209,0,0,1,1.581-.912,1.591,1.591,0,0,1,1.516,1.059,4.247,4.247,0,0,1-.6,3.489,10.538,10.538,0,0,1-2.3,2.725,9.707,9.707,0,0,1-12.863-.2,5.479,5.479,0,0,1-1.667-2.937,3.359,3.359,0,0,1,.109-1.708,3.454,3.454,0,0,1,.962-1.4,2.86,2.86,0,0,1,1.529-.72,2.029,2.029,0,0,1,1.616.506,3.122,3.122,0,0,1,.734,3.076,5.742,5.742,0,0,1-1.7,2.58,13.847,13.847,0,0,1-7.748,3.6,12.06,12.06,0,0,1-5.267-.473,5.872,5.872,0,0,1-2.167-1.3,4.055,4.055,0,0,1-1.175-2.12,3.7,3.7,0,0,1,.213-2.3,2.274,2.274,0,0,1,1.724-1.343,2.577,2.577,0,0,1,2,.548,1.9,1.9,0,0,1,.636,1.829,2.869,2.869,0,0,1-.947,1.55,5.987,5.987,0,0,1-1.39.923,16.033,16.033,0,0,1-2.7,1.03,15.315,15.315,0,0,1-3.939.585,10.041,10.041,0,0,1-1.387-.059,2.124,2.124,0,0,1,.352-.008c.232,0,.579,0,1.032-.019a16.185,16.185,0,0,0,6.547-1.711,5.858,5.858,0,0,0,1.331-.9,2.666,2.666,0,0,0,.863-1.431,1.645,1.645,0,0,0-.567-1.588,2.321,2.321,0,0,0-1.8-.477,1.992,1.992,0,0,0-1.5,1.2,3.4,3.4,0,0,0-.179,2.12,4.475,4.475,0,0,0,3.156,3.171,11.722,11.722,0,0,0,5.115.431,13.49,13.49,0,0,0,7.525-3.532,5.379,5.379,0,0,0,1.587-2.4,2.74,2.74,0,0,0-.622-2.675,1.941,1.941,0,0,0-2.608.224,3.035,3.035,0,0,0-.843,1.229,2.945,2.945,0,0,0-.09,1.5,5.077,5.077,0,0,0,1.551,2.706,9.293,9.293,0,0,0,12.3.173,10.133,10.133,0,0,0,2.208-2.615,4.878,4.878,0,0,0,.628-1.538,2.878,2.878,0,0,0-.051-1.581,1.163,1.163,0,0,0-1.108-.79,1.8,1.8,0,0,0-1.264.753,3.8,3.8,0,0,0-.611,3.023,5.911,5.911,0,0,0,4.033,4.457,8.456,8.456,0,0,0,5.948-.694c1.783-.857,3.5-2.1,4.109-3.892a3.5,3.5,0,0,0-.179-2.638,2.15,2.15,0,0,0-2.006-1.331,2.617,2.617,0,0,0-2,1.349,3.048,3.048,0,0,0-.3,2.363,4.9,4.9,0,0,0,3.118,3.266,13.113,13.113,0,0,0,4.282.673,23.45,23.45,0,0,0,3.9-.2,30.5,30.5,0,0,0,6.066-1.541c1.622-.582,2.861-1.1,3.7-1.437l.958-.388A2.215,2.215,0,0,1,906.649,4822.314Z" transform="translate(-841.731 -4817.991)" fill="#d9a171"/>
          </g>
        </g>
        <g id="Group_56941" data-name="Group 56941" transform="translate(-4.007 16.248)">
          <g id="Group_56895" data-name="Group 56895" transform="translate(42.987)">
            <g id="Group_56891" data-name="Group 56891" transform="translate(0 9.999)">
              <g id="Group_56761" data-name="Group 56761" transform="translate(10.272)">
                <g id="Group_56760" data-name="Group 56760">
                  <g id="Group_56759" data-name="Group 56759">
                    <g id="Group_56743" data-name="Group 56743">
                      <g id="Group_56742" data-name="Group 56742">
                        <g id="Group_56741" data-name="Group 56741">
                          <g id="Group_56740" data-name="Group 56740">
                            <g id="Group_56739" data-name="Group 56739">
                              <g id="Group_56738" data-name="Group 56738">
                                <g id="Group_56737" data-name="Group 56737">
                                  <g id="Group_56736" data-name="Group 56736">
                                    <g id="Group_56735" data-name="Group 56735">
                                      <g id="Group_56734" data-name="Group 56734">
                                        <g id="Group_56733" data-name="Group 56733">
                                          <g id="Group_56732" data-name="Group 56732">
                                            <g id="Group_56731" data-name="Group 56731">
                                              <g id="Group_56730" data-name="Group 56730">
                                                <g id="Group_56729" data-name="Group 56729">
                                                  <path id="Path_101953" data-name="Path 101953" d="M739.835,4784.67l-.812,65.35c-.138,11.113,1.93,27.465,19.509,26.882h0c15.215-1.656,19.251-16.059,19.37-26.429.056-4.92.113-9.021.152-9.527,0,0,16.655-1.359,18.062-17.81.679-7.949.745-24.437.632-39.354a30.753,30.753,0,0,0-28.523-30.421l-1.589-.116C749.433,4752.993,739.609,4767.466,739.835,4784.67Z" transform="translate(-739.017 -4753.242)" fill="#ffbf9d"/>
                                                </g>
                                              </g>
                                            </g>
                                          </g>
                                        </g>
                                      </g>
                                    </g>
                                  </g>
                                </g>
                              </g>
                            </g>
                          </g>
                        </g>
                      </g>
                    </g>
                    <g id="Group_56758" data-name="Group 56758" transform="translate(18.062 79.8)">
                      <g id="Group_56757" data-name="Group 56757">
                        <g id="Group_56756" data-name="Group 56756">
                          <g id="Group_56755" data-name="Group 56755">
                            <g id="Group_56754" data-name="Group 56754">
                              <g id="Group_56753" data-name="Group 56753">
                                <g id="Group_56752" data-name="Group 56752">
                                  <g id="Group_56751" data-name="Group 56751">
                                    <g id="Group_56750" data-name="Group 56750">
                                      <g id="Group_56749" data-name="Group 56749">
                                        <g id="Group_56748" data-name="Group 56748">
                                          <g id="Group_56747" data-name="Group 56747">
                                            <g id="Group_56746" data-name="Group 56746">
                                              <g id="Group_56745" data-name="Group 56745">
                                                <g id="Group_56744" data-name="Group 56744">
                                                  <path id="Path_101954" data-name="Path 101954" d="M780.349,4851.085a39.891,39.891,0,0,1-20.975-7.9s4.351,12.408,20.889,12.124Z" transform="translate(-759.374 -4843.182)" fill="#ff9a6c"/>
                                                </g>
                                              </g>
                                            </g>
                                          </g>
                                        </g>
                                      </g>
                                    </g>
                                  </g>
                                </g>
                              </g>
                            </g>
                          </g>
                        </g>
                      </g>
                    </g>
                  </g>
                </g>
              </g>
              <g id="Group_56845" data-name="Group 56845" transform="translate(28.445 24.851)">
                <g id="Group_56844" data-name="Group 56844">
                  <g id="Group_56813" data-name="Group 56813" transform="translate(1.315 9.52)">
                    <g id="Group_56812" data-name="Group 56812">
                      <g id="Group_56811" data-name="Group 56811">
                        <g id="Group_56778" data-name="Group 56778">
                          <g id="Group_56777" data-name="Group 56777">
                            <g id="Group_56776" data-name="Group 56776">
                              <g id="Group_56775" data-name="Group 56775">
                                <g id="Group_56774" data-name="Group 56774">
                                  <g id="Group_56773" data-name="Group 56773">
                                    <g id="Group_56772" data-name="Group 56772">
                                      <g id="Group_56771" data-name="Group 56771">
                                        <g id="Group_56770" data-name="Group 56770">
                                          <g id="Group_56769" data-name="Group 56769">
                                            <g id="Group_56768" data-name="Group 56768">
                                              <g id="Group_56767" data-name="Group 56767">
                                                <g id="Group_56766" data-name="Group 56766">
                                                  <g id="Group_56765" data-name="Group 56765">
                                                    <g id="Group_56764" data-name="Group 56764">
                                                      <g id="Group_56763" data-name="Group 56763">
                                                        <g id="Group_56762" data-name="Group 56762">
                                                          <path id="Path_101955" data-name="Path 101955" d="M771.1,4794.891c-.327.333-2.226-1.2-4.983-1.271-2.752-.114-4.815,1.279-5.1.924-.143-.157.2-.766,1.1-1.4a6.9,6.9,0,0,1,4.1-1.164,6.663,6.663,0,0,1,3.954,1.439C770.989,4794.114,771.259,4794.742,771.1,4794.891Z" transform="translate(-760.981 -4791.979)" fill="#1a2e35"/>
                                                        </g>
                                                      </g>
                                                    </g>
                                                  </g>
                                                </g>
                                              </g>
                                            </g>
                                          </g>
                                        </g>
                                      </g>
                                    </g>
                                  </g>
                                </g>
                              </g>
                            </g>
                          </g>
                        </g>
                        <g id="Group_56794" data-name="Group 56794" transform="translate(5.579 6.436)">
                          <g id="Group_56793" data-name="Group 56793">
                            <g id="Group_56792" data-name="Group 56792">
                              <g id="Group_56791" data-name="Group 56791">
                                <g id="Group_56790" data-name="Group 56790">
                                  <g id="Group_56789" data-name="Group 56789">
                                    <g id="Group_56788" data-name="Group 56788">
                                      <g id="Group_56787" data-name="Group 56787">
                                        <g id="Group_56786" data-name="Group 56786">
                                          <g id="Group_56785" data-name="Group 56785">
                                            <g id="Group_56784" data-name="Group 56784">
                                              <g id="Group_56783" data-name="Group 56783">
                                                <g id="Group_56782" data-name="Group 56782">
                                                  <g id="Group_56781" data-name="Group 56781">
                                                    <g id="Group_56780" data-name="Group 56780">
                                                      <g id="Group_56779" data-name="Group 56779">
                                                        <path id="Path_101956" data-name="Path 101956" d="M771.725,4801.41a2.229,2.229,0,0,1-2.309,2.087,2.133,2.133,0,0,1-2.146-2.174,2.232,2.232,0,0,1,2.307-2.088A2.136,2.136,0,0,1,771.725,4801.41Z" transform="translate(-767.268 -4799.234)" fill="#1a2e35"/>
                                                      </g>
                                                    </g>
                                                  </g>
                                                </g>
                                              </g>
                                            </g>
                                          </g>
                                        </g>
                                      </g>
                                    </g>
                                  </g>
                                </g>
                              </g>
                            </g>
                          </g>
                        </g>
                        <g id="Group_56810" data-name="Group 56810" transform="translate(17.022 0.915)">
                          <g id="Group_56809" data-name="Group 56809">
                            <g id="Group_56808" data-name="Group 56808">
                              <g id="Group_56807" data-name="Group 56807">
                                <g id="Group_56806" data-name="Group 56806">
                                  <g id="Group_56805" data-name="Group 56805">
                                    <g id="Group_56804" data-name="Group 56804">
                                      <g id="Group_56803" data-name="Group 56803">
                                        <g id="Group_56802" data-name="Group 56802">
                                          <g id="Group_56801" data-name="Group 56801">
                                            <g id="Group_56800" data-name="Group 56800">
                                              <g id="Group_56799" data-name="Group 56799">
                                                <g id="Group_56798" data-name="Group 56798">
                                                  <g id="Group_56797" data-name="Group 56797">
                                                    <g id="Group_56796" data-name="Group 56796">
                                                      <g id="Group_56795" data-name="Group 56795">
                                                        <path id="Path_101957" data-name="Path 101957" d="M780.165,4814.18c0-.145,1.592-.3,4.164-.442.651-.02,1.272-.1,1.413-.536a3.3,3.3,0,0,0-.291-1.947q-.74-2.41-1.552-5.06c-2.142-7.2-3.642-13.1-3.351-13.183s2.263,5.684,4.4,12.883q.769,2.66,1.469,5.083a3.754,3.754,0,0,1,.15,2.561,1.624,1.624,0,0,1-1.131.867,4.372,4.372,0,0,1-1.109.073C781.756,4814.428,780.164,4814.325,780.165,4814.18Z" transform="translate(-780.165 -4793.012)" fill="#1a2e35"/>
                                                      </g>
                                                    </g>
                                                  </g>
                                                </g>
                                              </g>
                                            </g>
                                          </g>
                                        </g>
                                      </g>
                                    </g>
                                  </g>
                                </g>
                              </g>
                            </g>
                          </g>
                        </g>
                      </g>
                    </g>
                  </g>
                  <g id="Group_56828" data-name="Group 56828">
                    <g id="Group_56827" data-name="Group 56827">
                      <g id="Group_56826" data-name="Group 56826">
                        <g id="Group_56825" data-name="Group 56825">
                          <g id="Group_56824" data-name="Group 56824">
                            <g id="Group_56823" data-name="Group 56823">
                              <g id="Group_56822" data-name="Group 56822">
                                <g id="Group_56821" data-name="Group 56821">
                                  <g id="Group_56820" data-name="Group 56820">
                                    <g id="Group_56819" data-name="Group 56819">
                                      <g id="Group_56818" data-name="Group 56818">
                                        <g id="Group_56817" data-name="Group 56817">
                                          <g id="Group_56816" data-name="Group 56816">
                                            <g id="Group_56815" data-name="Group 56815">
                                              <g id="Group_56814" data-name="Group 56814">
                                                <path id="Path_101958" data-name="Path 101958" d="M769.759,4783.319c-.267.61-2.473.151-5.115.287-2.645.08-4.814.717-5.12.13-.135-.281.276-.845,1.174-1.389a8.645,8.645,0,0,1,7.8-.318C769.428,4782.5,769.876,4783.028,769.759,4783.319Z" transform="translate(-759.499 -4781.25)" fill="#1a2e35"/>
                                              </g>
                                            </g>
                                          </g>
                                        </g>
                                      </g>
                                    </g>
                                  </g>
                                </g>
                              </g>
                            </g>
                          </g>
                        </g>
                      </g>
                    </g>
                  </g>
                  <g id="Group_56843" data-name="Group 56843" transform="translate(26.325 5.036)">
                    <g id="Group_56842" data-name="Group 56842">
                      <g id="Group_56841" data-name="Group 56841">
                        <g id="Group_56840" data-name="Group 56840">
                          <g id="Group_56839" data-name="Group 56839">
                            <g id="Group_56838" data-name="Group 56838">
                              <g id="Group_56837" data-name="Group 56837">
                                <g id="Group_56836" data-name="Group 56836">
                                  <g id="Group_56835" data-name="Group 56835">
                                    <g id="Group_56834" data-name="Group 56834">
                                      <g id="Group_56833" data-name="Group 56833">
                                        <g id="Group_56832" data-name="Group 56832">
                                          <g id="Group_56831" data-name="Group 56831">
                                            <g id="Group_56830" data-name="Group 56830">
                                              <g id="Group_56829" data-name="Group 56829">
                                                <path id="Path_101959" data-name="Path 101959" d="M799.279,4789.065c-.289.5-2.44-.055-5.046-.136-2.607-.127-4.77.255-5.045-.267-.121-.249.309-.7,1.217-1.091a9.1,9.1,0,0,1,3.855-.638,9.415,9.415,0,0,1,3.833.944C798.99,4788.347,799.407,4788.827,799.279,4789.065Z" transform="translate(-789.168 -4786.927)" fill="#1a2e35"/>
                                              </g>
                                            </g>
                                          </g>
                                        </g>
                                      </g>
                                    </g>
                                  </g>
                                </g>
                              </g>
                            </g>
                          </g>
                        </g>
                      </g>
                    </g>
                  </g>
                </g>
              </g>
              <g id="Group_56858" data-name="Group 56858" transform="translate(0 42.904)">
                <g id="Group_56857" data-name="Group 56857">
                  <g id="Group_56856" data-name="Group 56856">
                    <g id="Group_56855" data-name="Group 56855">
                      <g id="Group_56854" data-name="Group 56854">
                        <g id="Group_56853" data-name="Group 56853">
                          <g id="Group_56852" data-name="Group 56852">
                            <g id="Group_56851" data-name="Group 56851">
                              <g id="Group_56850" data-name="Group 56850">
                                <g id="Group_56849" data-name="Group 56849">
                                  <g id="Group_56848" data-name="Group 56848">
                                    <g id="Group_56847" data-name="Group 56847">
                                      <g id="Group_56846" data-name="Group 56846">
                                        <path id="Path_101960" data-name="Path 101960" d="M738.984,4802.412c-.272-.143-11.069-4.173-11.531,7.11s10.961,9.42,10.993,9.1S738.984,4802.412,738.984,4802.412Z" transform="translate(-727.439 -4801.597)" fill="#ffbf9d"/>
                                      </g>
                                    </g>
                                  </g>
                                </g>
                              </g>
                            </g>
                          </g>
                        </g>
                      </g>
                    </g>
                  </g>
                </g>
              </g>
              <g id="Group_56872" data-name="Group 56872" transform="translate(2.865 46.495)">
                <g id="Group_56871" data-name="Group 56871">
                  <g id="Group_56870" data-name="Group 56870">
                    <g id="Group_56869" data-name="Group 56869">
                      <g id="Group_56868" data-name="Group 56868">
                        <g id="Group_56867" data-name="Group 56867">
                          <g id="Group_56866" data-name="Group 56866">
                            <g id="Group_56865" data-name="Group 56865">
                              <g id="Group_56864" data-name="Group 56864">
                                <g id="Group_56863" data-name="Group 56863">
                                  <g id="Group_56862" data-name="Group 56862">
                                    <g id="Group_56861" data-name="Group 56861">
                                      <g id="Group_56860" data-name="Group 56860">
                                        <g id="Group_56859" data-name="Group 56859">
                                          <path id="Path_101961" data-name="Path 101961" d="M735.539,4814.66c-.049-.039-.2.129-.54.268a1.965,1.965,0,0,1-1.471-.029c-1.174-.487-2.1-2.42-2.072-4.457a6.5,6.5,0,0,1,.665-2.792,2.275,2.275,0,0,1,1.541-1.448,1,1,0,0,1,1.137.586c.138.322.058.543.116.566.031.029.25-.179.178-.649a1.258,1.258,0,0,0-.415-.725,1.49,1.49,0,0,0-1.074-.332,2.764,2.764,0,0,0-2.125,1.665,6.686,6.686,0,0,0-.811,3.118c-.02,2.277,1.056,4.452,2.668,4.99a2.112,2.112,0,0,0,1.809-.224C735.507,4814.931,735.577,4814.682,735.539,4814.66Z" transform="translate(-730.669 -4805.645)" fill="#ff9a6c"/>
                                        </g>
                                      </g>
                                    </g>
                                  </g>
                                </g>
                              </g>
                            </g>
                          </g>
                        </g>
                      </g>
                    </g>
                  </g>
                </g>
              </g>
              <g id="Group_56873" data-name="Group 56873" transform="translate(38.149 57.001)">
                <path id="Path_101962" data-name="Path 101962" d="M776.406,4824.749c.123-.284-2.088-.945-3.641-3.02a12.667,12.667,0,0,1-1.562-2.945c-.329-.82-.579-1.334-.7-1.3s-.087.591.094,1.482a8.332,8.332,0,0,0,1.453,3.3,6.739,6.739,0,0,0,2.882,2.206C775.793,4824.824,776.376,4824.847,776.406,4824.749Z" transform="translate(-770.435 -4817.485)" fill="#1a2e35"/>
              </g>
              <g id="Group_56882" data-name="Group 56882" transform="translate(54.887 35.409)">
                <g id="Group_56881" data-name="Group 56881">
                  <g id="Group_56880" data-name="Group 56880">
                    <g id="Group_56879" data-name="Group 56879">
                      <g id="Group_56878" data-name="Group 56878">
                        <g id="Group_56877" data-name="Group 56877">
                          <g id="Group_56876" data-name="Group 56876">
                            <g id="Group_56875" data-name="Group 56875">
                              <g id="Group_56874" data-name="Group 56874">
                                <path id="Path_101963" data-name="Path 101963" d="M799.417,4796.061c-.327.333-2.226-1.2-4.983-1.271-2.752-.115-4.814,1.279-5.1.925-.143-.159.2-.768,1.1-1.4a6.9,6.9,0,0,1,4.1-1.163,6.651,6.651,0,0,1,3.955,1.439C799.308,4795.284,799.578,4795.913,799.417,4796.061Z" transform="translate(-789.299 -4793.15)" fill="#1a2e35"/>
                              </g>
                            </g>
                          </g>
                        </g>
                      </g>
                    </g>
                  </g>
                </g>
              </g>
              <g id="Group_56890" data-name="Group 56890" transform="translate(60.097 41.608)">
                <g id="Group_56889" data-name="Group 56889">
                  <g id="Group_56888" data-name="Group 56888">
                    <g id="Group_56887" data-name="Group 56887">
                      <g id="Group_56886" data-name="Group 56886">
                        <g id="Group_56885" data-name="Group 56885">
                          <g id="Group_56884" data-name="Group 56884">
                            <g id="Group_56883" data-name="Group 56883">
                              <path id="Path_101964" data-name="Path 101964" d="M799.627,4802.311a2.231,2.231,0,0,1-2.309,2.088,2.134,2.134,0,0,1-2.145-2.173,2.233,2.233,0,0,1,2.307-2.089A2.135,2.135,0,0,1,799.627,4802.311Z" transform="translate(-795.171 -4800.136)" fill="#1a2e35"/>
                            </g>
                          </g>
                        </g>
                      </g>
                    </g>
                  </g>
                </g>
              </g>
            </g>
            <g id="Group_56892" data-name="Group 56892" transform="translate(0.918)">
              <path id="Path_101965" data-name="Path 101965" d="M807.035,4760.667a8.9,8.9,0,0,0-11.1-3.514,12.185,12.185,0,0,0-20.99-10.522,4.981,4.981,0,0,0-2.427-3.338,9.83,9.83,0,0,0-4.05-1.208,19.366,19.366,0,0,0-17.694,7.715,21.079,21.079,0,0,0-17.865,6.519c-5.3,5.87-6.3,19.478-.494,31.23l1.366,7.369c1.821,0,3.486.126,4.609,1.135,1.525,1.37,2.207,3.951,4.741,2.971,1.29-.5,2.467-3.2,2.9-4.518a64.2,64.2,0,0,0,2.78-27.178,20.64,20.64,0,0,1,6.372-4.6l-.194.174c4.6-1.6,9.8-3.167,14.16-1.008,3.384,1.674,5.372,5.185,7.9,7.988a25.837,25.837,0,0,0,18.409,8.5c.243,4.632-.146,11.18.1,15.812l3.9-7.42,0,.037c.319-.542.583-1.09.839-1.64l.087-.166v-.021l0-.005c.713-.579,1.254-1.64,2.458-3.019a9.716,9.716,0,0,0,1.6-9.944A8.9,8.9,0,0,0,807.035,4760.667Z" transform="translate(-728.474 -4741.973)" fill="#1a2e35"/>
              <path id="Path_101966" data-name="Path 101966" d="M811.029,4787.526l-.015-.013h0Z" transform="translate(-737.779 -4747.107)" fill="#1a2e35"/>
            </g>
            <g id="Group_56893" data-name="Group 56893" transform="translate(53.481 18.863)">
              <path id="Path_101967" data-name="Path 101967" d="M806.969,4763.232c.011,0,.04.08.083.243a3.317,3.317,0,0,1,.1.729,4.9,4.9,0,0,1-.657,2.645,5.042,5.042,0,0,1-1.261,1.46,4.514,4.514,0,0,1-2.056.877,5.093,5.093,0,0,1-4.7-1.771l.281-.241a3.107,3.107,0,0,1,.794,2.212,4.084,4.084,0,0,1-1.261,2.844,4.61,4.61,0,0,1-2.668,1.136,7.17,7.17,0,0,1-4.639-1.277,15.115,15.115,0,0,1-2.479-2.107,6.163,6.163,0,0,1-.79-.89,8.58,8.58,0,0,1,.891.787,17.493,17.493,0,0,0,2.521,1.988,7,7,0,0,0,4.46,1.157,4.3,4.3,0,0,0,2.454-1.059,3.75,3.75,0,0,0,1.138-2.586,2.75,2.75,0,0,0-.691-1.951l.279-.241a4.786,4.786,0,0,0,4.365,1.676,4.42,4.42,0,0,0,3.155-2.139,4.985,4.985,0,0,0,.735-2.517C807.028,4763.58,806.935,4763.239,806.969,4763.232Z" transform="translate(-787.715 -4763.232)" fill="#375a64"/>
            </g>
            <g id="Group_56894" data-name="Group 56894" transform="translate(47.625 6.496)">
              <path id="Path_101968" data-name="Path 101968" d="M792.107,4749.3c.006-.011.09.027.242.108a5.075,5.075,0,0,1,.629.424,5.5,5.5,0,0,1,1.7,2.211,4.325,4.325,0,0,1-.388,4.064,3.336,3.336,0,0,1-2.056,1.412,3.385,3.385,0,0,1-2.629-.51,2.916,2.916,0,0,1-.626-.623l.323-.183a3.159,3.159,0,0,1-.085,2.536,3.466,3.466,0,0,1-1.641,1.681,4.57,4.57,0,0,1-3.844-.008,6.13,6.13,0,0,1-2.071-1.562,2.969,2.969,0,0,1-.549-.769c.024-.017.226.249.651.673a6.537,6.537,0,0,0,2.07,1.422,4.351,4.351,0,0,0,3.592-.058,3.152,3.152,0,0,0,1.463-1.529,2.81,2.81,0,0,0,.071-2.239l-.6-1.383.919,1.2a2.592,2.592,0,0,0,.541.536,3.043,3.043,0,0,0,2.335.455,3,3,0,0,0,1.849-1.249,4.087,4.087,0,0,0,.424-3.772,5.705,5.705,0,0,0-1.549-2.195C792.4,4749.508,792.089,4749.326,792.107,4749.3Z" transform="translate(-781.115 -4749.294)" fill="#375a64"/>
            </g>
          </g>
          <g id="Group_56940" data-name="Group 56940" transform="translate(0 87.028)">
            <g id="Group_56910" data-name="Group 56910" transform="translate(168.463)">
              <g id="Group_56896" data-name="Group 56896" transform="translate(1.531)">
                <path id="Path_101969" data-name="Path 101969" d="M897.939,4841.789l-26.033,19.878a3.372,3.372,0,0,0-.5,4.891h0a3.371,3.371,0,0,0,4.614.452l25.818-20.063,3.493-6.888Z" transform="translate(-870.581 -4840.059)" fill="#d9a171"/>
                <path id="Path_101970" data-name="Path 101970" d="M905.435,4840.939l1.846,2.15-2,3.957a1.585,1.585,0,0,1-1.735-1.8,1.394,1.394,0,0,1-1.575-1.807s-1.354-.12-.59-1.55Z" transform="translate(-874.027 -4840.157)" fill="#fff" opacity="0.5"/>
                <path id="Path_101971" data-name="Path 101971" d="M872.075,4864.257l4.272,5.219,1.434-1.115-4.1-5.334Z" transform="translate(-870.75 -4842.646)" fill="#1a2e35"/>
              </g>
              <g id="Group_56897" data-name="Group 56897" transform="translate(0 3.368)">
                <path id="Path_101972" data-name="Path 101972" d="M869.792,4911.93l-.936-.168,19.18-33.526L885,4868.571s-3.515-13.766-.586-17.281c0,0,6.406-7.54,8.484-7.437s3.741.521,4.156,2.079c0,0,3.533-.415,4.468.728a17.951,17.951,0,0,1,1.663,2.493s3.845-.312,4.884,3.015c0,0,3.637,1.869,3.948,4.571s-.728,15.275-1.87,18.5-5.4,9.975-6.65,19.95-5.641,16.451-9.547,31.03l-10.611,4.2Z" transform="translate(-868.856 -4843.853)" fill="#ffbf9d"/>
              </g>
              <g id="Group_56899" data-name="Group 56899" transform="translate(24.374 5.225)">
                <g id="Group_56898" data-name="Group 56898">
                  <path id="Path_101973" data-name="Path 101973" d="M899.973,4845.955a19.756,19.756,0,0,0-2.238,2.593,19.466,19.466,0,0,0-1.365,3.143,6.51,6.51,0,0,1,3.6-5.735Z" transform="translate(-896.326 -4845.946)" fill="#ff9a6c"/>
                </g>
              </g>
              <g id="Group_56901" data-name="Group 56901" transform="translate(30.459 8.652)">
                <g id="Group_56900" data-name="Group 56900">
                  <path id="Path_101974" data-name="Path 101974" d="M906.852,4849.819a11.134,11.134,0,0,0-3.633,5.167,6.031,6.031,0,0,1,3.633-5.167Z" transform="translate(-903.185 -4849.808)" fill="#ff9a6c"/>
                </g>
              </g>
              <g id="Group_56903" data-name="Group 56903" transform="translate(35.776 11.568)">
                <g id="Group_56902" data-name="Group 56902">
                  <path id="Path_101975" data-name="Path 101975" d="M912.414,4853.1c.082.1-.874.936-1.75,2.2s-1.342,2.443-1.465,2.4a6.764,6.764,0,0,1,3.215-4.6Z" transform="translate(-909.177 -4853.096)" fill="#ff9a6c"/>
                </g>
              </g>
              <g id="Group_56905" data-name="Group 56905" transform="translate(16.807 11.873)">
                <g id="Group_56904" data-name="Group 56904">
                  <path id="Path_101976" data-name="Path 101976" d="M891.994,4854.246a4.588,4.588,0,0,0-4.19.286c-.038-.038.1-.272.451-.53a3.148,3.148,0,0,1,3.221-.218C891.856,4853.991,892.027,4854.2,891.994,4854.246Z" transform="translate(-887.798 -4853.44)" fill="#ff9a6c"/>
                </g>
              </g>
              <g id="Group_56907" data-name="Group 56907" transform="translate(24.821 14.458)">
                <g id="Group_56906" data-name="Group 56906">
                  <path id="Path_101977" data-name="Path 101977" d="M900.66,4859.355a5.579,5.579,0,0,0-3.83-2.92c0-.052.3-.122.778-.059a3.818,3.818,0,0,1,2.9,2.213C900.7,4859.04,900.711,4859.343,900.66,4859.355Z" transform="translate(-896.83 -4856.352)" fill="#ff9a6c"/>
                </g>
              </g>
              <g id="Group_56909" data-name="Group 56909" transform="translate(31.231 17.286)">
                <g id="Group_56908" data-name="Group 56908">
                  <path id="Path_101978" data-name="Path 101978" d="M909.069,4861.337a6.232,6.232,0,0,0-5.013-1.357c-.019-.05.254-.225.759-.344a4.281,4.281,0,0,1,3.772,1.021C908.963,4861.015,909.11,4861.3,909.069,4861.337Z" transform="translate(-904.055 -4859.54)" fill="#ff9a6c"/>
                </g>
              </g>
            </g>
            <g id="Group_56934" data-name="Group 56934" transform="translate(0 8.157)">
              <g id="Group_56911" data-name="Group 56911" transform="translate(0 47.495)">
                <path id="Path_101979" data-name="Path 101979" d="M690.2,4902.78s-11.754,66.761-11.187,73,3.694,16.173,10.785,17.875a31.205,31.205,0,0,0,13.617,0l-8.513-82Z" transform="translate(-678.992 -4902.78)" fill="#d9a171"/>
              </g>
              <g id="Group_56912" data-name="Group 56912" transform="translate(11.058)">
                <path id="Path_101980" data-name="Path 101980" d="M726.02,4862.31s-14.067,10-17.177,12.94c-13,12.3-15.726,17.333-17.24,21.5s9.029,100.819,9.029,100.819l2.136,16.888h0l98.735.254h0v-86.282L786.669,4867.7l-9.127-2.6-1.843-7.237s-11.341-8.374-30.047-8.615c-5.755-.075-13.895,2.186-18.442,5.715h0Z" transform="translate(-691.455 -4849.25)" fill="#d9a171"/>
              </g>
              <g id="Group_56913" data-name="Group 56913" transform="translate(87.07 18.399)">
                <path id="Path_101981" data-name="Path 101981" d="M785.282,4870.291s10.147-.457,11.043-.25c3.128.721,11.717,8.595,21.5,18.3,9.332,9.257,27.695,28.514,27.695,28.514s3.3-3.333,7.063,1.116l14.5-21.086s21.758,2.673,25.179,19.1c0,0-6.669,12.732-12.131,21.836,0,0-20.222,33.556-36.194,27.48-14.591-5.55-32.884-20.395-35.46-23.565l-21.48-15.328s-14.712-28.054-8.212-42.083Z" transform="translate(-777.123 -4869.987)" fill="#d9a171"/>
              </g>
              <g id="Group_56915" data-name="Group 56915" transform="translate(45.623 11.197)">
                <g id="Group_56914" data-name="Group 56914">
                  <path id="Path_101982" data-name="Path 101982" d="M781.933,4866.528a2.51,2.51,0,0,1-.521-.106c-.38-.1-.865-.227-1.465-.386-1.274-.323-3.125-.768-5.435-1.206a151.562,151.562,0,0,0-18.223-2.247,124.807,124.807,0,0,0-18.353.054c-2.341.2-4.222.493-5.514.728l-1.485.295a2.659,2.659,0,0,1-.526.073,2.309,2.309,0,0,1,.5-.16c.382-.1.87-.221,1.473-.373a48.056,48.056,0,0,1,5.517-.87,112.62,112.62,0,0,1,18.411-.182,134.684,134.684,0,0,1,18.256,2.378c2.31.478,4.156.969,5.419,1.344l1.446.465A2.489,2.489,0,0,1,781.933,4866.528Z" transform="translate(-730.411 -4861.87)" fill="#1a2e35"/>
                </g>
              </g>
              <g id="Group_56917" data-name="Group 56917" transform="translate(57.609 3.39)">
                <g id="Group_56916" data-name="Group 56916">
                  <path id="Path_101983" data-name="Path 101983" d="M745,4860.514a32.465,32.465,0,0,1-1.034-7.443,32.572,32.572,0,0,1,1.034,7.443Z" transform="translate(-743.92 -4853.071)" fill="#1a2e35"/>
                </g>
              </g>
              <g id="Group_56919" data-name="Group 56919" transform="translate(61.47 3.044)">
                <g id="Group_56918" data-name="Group 56918">
                  <path id="Path_101984" data-name="Path 101984" d="M749.174,4860.152a11.776,11.776,0,0,1-.518-7.471c.129.019-.066,1.692.084,3.748S749.3,4860.116,749.174,4860.152Z" transform="translate(-748.271 -4852.681)" fill="#1a2e35"/>
                </g>
              </g>
              <g id="Group_56921" data-name="Group 56921" transform="translate(45.949 11.477)" opacity="0.3">
                <g id="Group_56920" data-name="Group 56920">
                  <path id="Path_101985" data-name="Path 101985" d="M730.778,4863.683c15.452,2.737,31.115.026,47.468,1.96-15.79-3.267-32.233-4.817-47.468-1.96" transform="translate(-730.778 -4862.186)"/>
                </g>
              </g>
              <g id="Group_56923" data-name="Group 56923" transform="translate(11.574 73.034)" opacity="0.3">
                <g id="Group_56922" data-name="Group 56922">
                  <path id="Path_101986" data-name="Path 101986" d="M699.295,4997.028c-8.692-20.355-7.662-43.363-6.484-65.466Z" transform="translate(-692.036 -4931.563)"/>
                </g>
              </g>
              <g id="Group_56925" data-name="Group 56925" transform="translate(11.202 62.05)">
                <g id="Group_56924" data-name="Group 56924">
                  <path id="Path_101987" data-name="Path 101987" d="M691.621,4919.184a1.151,1.151,0,0,1,.046.255c.023.2.053.445.091.758.074.7.177,1.672.309,2.913.254,2.563.616,6.219,1.061,10.722.883,9.056,2.09,21.566,3.527,35.372s2.881,26.3,4.033,35.32c.567,4.512,1.055,8.161,1.4,10.681.164,1.238.292,2.211.384,2.9.036.313.066.563.089.756a1.093,1.093,0,0,1,.015.261,1.173,1.173,0,0,1-.06-.254l-.131-.75c-.111-.69-.267-1.659-.465-2.892-.394-2.514-.929-6.156-1.535-10.666-1.231-9.017-2.719-21.5-4.161-35.316s-2.6-26.325-3.4-35.387c-.388-4.511-.7-8.171-.924-10.736-.1-1.246-.173-2.222-.227-2.92-.02-.315-.036-.566-.048-.761A1.158,1.158,0,0,1,691.621,4919.184Z" transform="translate(-691.616 -4919.184)" fill="#1a2e35"/>
                </g>
              </g>
              <g id="Group_56927" data-name="Group 56927" transform="translate(16.121 50.938)">
                <g id="Group_56926" data-name="Group 56926">
                  <path id="Path_101988" data-name="Path 101988" d="M759.093,4906.849a3.382,3.382,0,0,1-.636.035l-1.823.012c-1.583-.006-3.874.016-6.7.083-5.656.127-13.468.542-22.041,1.557s-16.267,2.455-21.8,3.659c-2.765.6-5,1.115-6.533,1.493l-1.776.414a4.054,4.054,0,0,1-.626.118,3.328,3.328,0,0,1,.6-.2l1.755-.5c1.525-.427,3.749-.991,6.509-1.628a206.382,206.382,0,0,1,43.9-5.225c2.833-.025,5.126,0,6.709.057l1.823.069A3.488,3.488,0,0,1,759.093,4906.849Z" transform="translate(-697.161 -4906.659)" fill="#1a2e35"/>
                </g>
              </g>
              <g id="Group_56929" data-name="Group 56929" transform="translate(40.106 31.465)">
                <g id="Group_56928" data-name="Group 56928">
                  <path id="Path_101989" data-name="Path 101989" d="M724.225,4925.992c-.121,0,.106-9.25.506-20.647s.822-20.637.942-20.632-.106,9.247-.507,20.649S724.345,4926,724.225,4925.992Z" transform="translate(-724.192 -4884.712)" fill="#1a2e35"/>
                </g>
              </g>
              <g id="Group_56931" data-name="Group 56931" transform="translate(79.497 17.181)">
                <g id="Group_56930" data-name="Group 56930">
                  <path id="Path_101990" data-name="Path 101990" d="M779.689,4923.037a4.3,4.3,0,0,1-.371-.582c-.246-.424-.576-.989-.989-1.7l-3.643-6.257a54.332,54.332,0,0,1-4.57-9.737,31.912,31.912,0,0,1-1.363-6.226,37.511,37.511,0,0,1-.02-6.839,36.328,36.328,0,0,1,3.26-12.746,21,21,0,0,1,3.214-4.794,18.268,18.268,0,0,1,3.861-3.223,14.715,14.715,0,0,1,6.85-2.295,9.65,9.65,0,0,1,2.655.148,24.219,24.219,0,0,0-2.641.021,14.943,14.943,0,0,0-6.7,2.385,18.189,18.189,0,0,0-3.756,3.206,20.849,20.849,0,0,0-3.122,4.73,36.459,36.459,0,0,0-3.186,12.608,37.612,37.612,0,0,0,.01,6.753,31.968,31.968,0,0,0,1.32,6.147,55.952,55.952,0,0,0,4.456,9.709c1.471,2.642,2.669,4.794,3.523,6.326q.576,1.092.918,1.743A3.874,3.874,0,0,1,779.689,4923.037Z" transform="translate(-768.588 -4868.615)" fill="#1a2e35"/>
                </g>
              </g>
              <g id="Group_56933" data-name="Group 56933" transform="translate(17.349 51.322)" opacity="0.3">
                <g id="Group_56932" data-name="Group 56932">
                  <path id="Path_101991" data-name="Path 101991" d="M698.915,4914.217a117.6,117.6,0,0,0,18.554-2.447,28.287,28.287,0,0,0-1.039,8.3,19.039,19.039,0,0,0,4.125-7.592,11.489,11.489,0,0,0,4.68,7.681,25.09,25.09,0,0,0,.417-8.458q13.848-1.668,27.513-4.553a186.567,186.567,0,0,0-54.62,6.8" transform="translate(-698.545 -4907.093)"/>
                </g>
              </g>
            </g>
            <g id="Group_56935" data-name="Group 56935" transform="translate(97.417 83.538)">
              <path id="Path_101992" data-name="Path 101992" d="M827.785,4963.3a2.613,2.613,0,0,1-.425-.255l-1.18-.787c-1.021-.688-2.486-1.7-4.288-2.969-3.6-2.528-8.544-6.081-13.931-10.1s-10.2-7.741-13.652-10.476c-1.727-1.365-3.116-2.48-4.067-3.262l-1.091-.905a2.446,2.446,0,0,1-.365-.336,2.49,2.49,0,0,1,.412.276l1.134.852,4.14,3.168c3.493,2.679,8.329,6.367,13.714,10.383s10.3,7.6,13.861,10.182c1.755,1.274,3.187,2.313,4.218,3.064l1.139.844A2.309,2.309,0,0,1,827.785,4963.3Z" transform="translate(-788.784 -4934.209)" fill="#1a2e35"/>
            </g>
            <g id="Group_56936" data-name="Group 56936" transform="translate(154.898 72.545)">
              <path id="Path_101993" data-name="Path 101993" d="M859.187,4939.889c-.065,0-.023-1.085-.149-2.819a29.553,29.553,0,0,0-3.992-12.844c-.879-1.5-1.527-2.368-1.475-2.407a2.983,2.983,0,0,1,.506.571,18.965,18.965,0,0,1,1.194,1.7,26.262,26.262,0,0,1,4.03,12.967,18.775,18.775,0,0,1-.021,2.076A3,3,0,0,1,859.187,4939.889Z" transform="translate(-853.569 -4921.817)" fill="#1a2e35"/>
            </g>
            <g id="Group_56937" data-name="Group 56937" transform="translate(163.247 74.167)">
              <path id="Path_101994" data-name="Path 101994" d="M864.69,4938.472c-.059-.01.077-.848.181-2.208a27.6,27.6,0,0,0-1.209-10.507c-.41-1.3-.734-2.085-.678-2.11a1.885,1.885,0,0,1,.3.522,15.423,15.423,0,0,1,.63,1.5,23.107,23.107,0,0,1,1.222,10.618,15.483,15.483,0,0,1-.271,1.608A1.836,1.836,0,0,1,864.69,4938.472Z" transform="translate(-862.978 -4923.646)" fill="#1a2e35"/>
            </g>
            <g id="Group_56938" data-name="Group 56938" transform="translate(173.827 58.937)">
              <path id="Path_101995" data-name="Path 101995" d="M899.718,4927.3c-.021.005.01-.138-.167-.27a.856.856,0,0,1-.291-.316c-.084-.149-.138-.334-.241-.508-.192-.358-.668-.638-1.014-1.168a7.581,7.581,0,0,1-.865-1.893,12.613,12.613,0,0,0-2.461-4.644,20.459,20.459,0,0,0-2.218-2.211,23.42,23.42,0,0,0-2.675-2.043,21.909,21.909,0,0,0-2.862-1.775c-.983-.481-1.933-.947-2.839-1.39s-1.749-.872-2.574-1.227l-2.3-.978a10.393,10.393,0,0,1-1-.456c-.3-.183-.558-.379-.815-.521s-.512-.273-.745-.4-.423-.286-.594-.395c-.353-.22-.665-.342-.863-.45s-.3-.169-.294-.181a1.593,1.593,0,0,1,.324.113,6.913,6.913,0,0,1,.908.395,9.775,9.775,0,0,0,1.364.73c.277.143.543.336.833.5s.643.272.988.421l2.308.933c.828.34,1.69.78,2.608,1.2l2.85,1.371a21.489,21.489,0,0,1,2.906,1.792,22.741,22.741,0,0,1,2.711,2.08,20.165,20.165,0,0,1,2.241,2.265,12.563,12.563,0,0,1,2.448,4.781,7.691,7.691,0,0,0,.788,1.86c.3.5.763.8.967,1.213.1.2.146.386.214.528a.844.844,0,0,0,.242.31C899.786,4927.152,899.722,4927.316,899.718,4927.3Z" transform="translate(-874.901 -4906.482)" fill="#1a2e35"/>
            </g>
            <g id="Group_56939" data-name="Group 56939" transform="translate(106.447 90.885)">
              <path id="Path_101996" data-name="Path 101996" d="M799.149,5023.545c-.1,0-.187-18.146-.187-40.526s.084-40.53.187-40.53.186,18.143.186,40.53S799.252,5023.545,799.149,5023.545Z" transform="translate(-798.962 -4942.489)" fill="#1a2e35"/>
            </g>
          </g>
        </g>
      </g>
    </g>
  </g>
</svg>
