<svg xmlns="http://www.w3.org/2000/svg" xmlns:xlink="http://www.w3.org/1999/xlink" width="102.91" height="102.91" viewBox="0 0 102.91 102.91">
  <defs>
    <filter id="Path_896985" x="0" y="0" width="102.91" height="102.91" filterUnits="userSpaceOnUse">
      <feOffset dy="3" input="SourceAlpha"/>
      <feGaussianBlur stdDeviation="3" result="blur"/>
      <feFlood flood-opacity="0.161"/>
      <feComposite operator="in" in2="blur"/>
      <feComposite in="SourceGraphic"/>
    </filter>
  </defs>
  <g id="Group_1111672" data-name="Group 1111672" transform="translate(-610.051 -6850)">
    <g id="Group_1111450" data-name="Group 1111450" transform="translate(-136.725 3004)">
      <g id="Group_1109827" data-name="Group 1109827" transform="translate(755.775 3852)">
        <g id="Group_1098742" data-name="Group 1098742" transform="translate(0 0)">
          <g transform="matrix(1, 0, 0, 1, -9, -6)" filter="url(#Path_896985)">
            <g id="Path_896985-2" data-name="Path 896985" transform="translate(9 6)" fill="#8454ee" opacity="0.859">
              <path d="M 42.45493698120117 83.40999603271484 C 36.92539596557617 83.40999603271484 31.56205368041992 82.32736206054688 26.51388931274414 80.19217681884766 C 21.63718414306641 78.12950134277344 17.25713729858398 75.17629241943359 13.4954195022583 71.41457366943359 C 9.733701705932617 67.65285491943359 6.780501842498779 63.27282333374023 4.717819213867188 58.39611434936523 C 2.58263111114502 53.34794998168945 1.499995827674866 47.98459625244141 1.499995827674866 42.45505523681641 C 1.499995827674866 36.92539978027344 2.58263111114502 31.56205749511719 4.717819213867188 26.51389122009277 C 6.780501842498779 21.63718605041504 9.733701705932617 17.25713920593262 13.4954195022583 13.49542140960693 C 17.25713729858398 9.73370361328125 21.63718414306641 6.780503749847412 26.51388931274414 4.717821598052979 C 31.56205368041992 2.582633256912231 36.92539596557617 1.499997973442078 42.45493698120117 1.499997973442078 C 47.98447799682617 1.499997973442078 53.34782028198242 2.582633256912231 58.3959846496582 4.717821598052979 C 63.27268981933594 6.780503749847412 67.65274047851562 9.73370361328125 71.41445159912109 13.49542140960693 C 75.17617034912109 17.25713920593262 78.12937164306641 21.63718605041504 80.19205474853516 26.51389122009277 C 82.32723999023438 31.56205749511719 83.40988159179688 36.92539978027344 83.40988159179688 42.45494079589844 C 83.40988159179688 47.98459625244141 82.32723999023438 53.34794998168945 80.19205474853516 58.39611434936523 C 78.12937164306641 63.27282333374023 75.17617034912109 67.65285491943359 71.41445159912109 71.41457366943359 C 67.65274047851562 75.17629241943359 63.27268981933594 78.12950134277344 58.3959846496582 80.19217681884766 C 53.34782028198242 82.32736206054688 47.98447799682617 83.40999603271484 42.45493698120117 83.40999603271484 Z" stroke="none"/>
              <path d="M 42.45493698120117 3 C 37.12723159790039 3 31.96048355102539 4.042755126953125 27.09821701049805 6.099334716796875 C 22.40031051635742 8.086387634277344 18.18052673339844 10.931640625 14.55608367919922 14.55609130859375 C 10.931640625 18.18053436279297 8.086380004882812 22.40031814575195 6.099334716796875 27.09822463989258 C 4.042762756347656 31.96049118041992 3 37.12723922729492 3 42.45506286621094 C 3 47.78277206420898 4.042762756347656 52.94951629638672 6.099334716796875 57.81178283691406 C 8.086380004882812 62.50968933105469 10.931640625 66.72947692871094 14.55608367919922 70.35391998291016 C 18.18052673339844 73.97835540771484 22.40031051635742 76.82362365722656 27.09821701049805 78.81066131591797 C 31.96048355102539 80.86724090576172 37.12723159790039 81.90999603271484 42.45493698120117 81.90999603271484 C 47.78264236450195 81.90999603271484 52.94939041137695 80.86724090576172 57.8116569519043 78.81066131591797 C 62.50956344604492 76.82362365722656 66.72935485839844 73.97835540771484 70.35379028320312 70.35391998291016 C 73.97823333740234 66.72947692871094 76.82349395751953 62.50968933105469 78.81053924560547 57.81178283691406 C 80.86711120605469 52.94951629638672 81.90987396240234 47.78277206420898 81.90987396240234 42.4549446105957 C 81.90987396240234 37.12723922729492 80.86711120605469 31.96049118041992 78.81053924560547 27.09822463989258 C 76.82349395751953 22.40031814575195 73.97823333740234 18.18053436279297 70.35379028320312 14.55609130859375 C 66.72935485839844 10.931640625 62.50956344604492 8.086387634277344 57.8116569519043 6.099334716796875 C 52.94939041137695 4.042755126953125 47.78264236450195 3 42.45493698120117 3 M 42.45493698120117 0 C 65.90215301513672 0 84.90987396240234 19.00772857666016 84.90987396240234 42.4549446105957 L 84.90987396240234 42.45506286621094 C 84.90987396240234 65.90228271484375 65.90215301513672 84.90999603271484 42.45493698120117 84.90999603271484 C 19.00772094726562 84.90999603271484 0 65.90228271484375 0 42.45506286621094 L 0 42.4549446105957 C 0 19.00772857666016 19.00772094726562 0 42.45493698120117 0 Z" stroke="none" fill="#fff"/>
            </g>
          </g>
          <g id="Rectangle_400907" data-name="Rectangle 400907" transform="translate(0)" fill="none" stroke="#fff" stroke-width="3">
            <rect width="84.91" height="84.91" rx="42.455" stroke="none"/>
            <rect x="1.5" y="1.5" width="81.91" height="81.91" rx="40.955" fill="none"/>
          </g>
        </g>
      </g>
    </g>
    <g id="Group_1111671" data-name="Group 1111671" transform="translate(624.455 6868)">
      <g id="Group_1111670" data-name="Group 1111670" transform="translate(9.529 1.932)">
        <g id="Group_1111667" data-name="Group 1111667" transform="translate(0 35.997)">
          <path id="Path_900633" data-name="Path 900633" d="M48.08,323.987l3.668,13.687a22.872,22.872,0,0,1,2.417-1.794,7.56,7.56,0,0,1,2.685-1.169,6.944,6.944,0,0,1,3.111.08h0L67.41,336.5a6.362,6.362,0,0,0,4.794-.631L90.82,325.12a3.487,3.487,0,1,0-3.488-6.04l-12.964,7.484.028-.1a3.873,3.873,0,0,0-2.71-4.736l-13-3.539a6.106,6.106,0,0,0-4.672,1.247Z" transform="translate(-44.415 -318.131)" fill="#ffd6bd" fill-rule="evenodd"/>
          <path id="Path_900634" data-name="Path 900634" d="M171.235,382.584a3.875,3.875,0,0,0,4.411-1.9,3.777,3.777,0,0,1-.133.894,3.87,3.87,0,0,1-4.736,2.71c-2.529-.691-5.063-1.357-7.6-2.035a.887.887,0,1,1,.459-1.714C166.168,381.219,168.694,381.893,171.235,382.584Z" transform="translate(-145.531 -373.249)" fill="#f9c6aa" fill-rule="evenodd"/>
          <path id="Path_900635" data-name="Path 900635" d="M74.86,351.393l.55,2.052a22.875,22.875,0,0,1,2.417-1.794,7.56,7.56,0,0,1,2.685-1.169,6.943,6.943,0,0,1,3.111.08h0l7.444,1.707a6.362,6.362,0,0,0,4.794-.631l18.616-10.748a3.5,3.5,0,0,0,1.276-4.764c-.029-.05-.058-.1-.09-.147a3.493,3.493,0,0,1-1.736,2.859L95.316,349.587a6.364,6.364,0,0,1-4.794.631l-7.444-1.707h0a6.943,6.943,0,0,0-3.111-.08,7.531,7.531,0,0,0-2.685,1.169A22.757,22.757,0,0,0,74.86,351.393Z" transform="translate(-68.077 -333.902)" fill="#f9c6aa" fill-rule="evenodd"/>
          <path id="Path_900636" data-name="Path 900636" d="M21.208,339.2l4.483,16.731a.771.771,0,0,1-.543.941l-3.093.829a.771.771,0,0,1-.941-.543l-4.483-16.731a.77.77,0,0,1,.543-.941l3.093-.829A.77.77,0,0,1,21.208,339.2Z" transform="translate(-16.606 -336.247)" fill="#64b5f6" fill-rule="evenodd"/>
          <path id="Path_900637" data-name="Path 900637" d="M21.208,339.2l.052.194-2.9.776a.77.77,0,0,0-.543.941l4.431,16.536-.2.052a.771.771,0,0,1-.941-.543l-4.483-16.731a.77.77,0,0,1,.543-.941l3.093-.829A.772.772,0,0,1,21.208,339.2Z" transform="translate(-16.606 -336.242)" fill="#42a5f5" fill-rule="evenodd"/>
        </g>
        <g id="Group_1111668" data-name="Group 1111668" transform="translate(16.684 0)">
          <path id="Path_900638" data-name="Path 900638" d="M179.665,16.105v2.337c5.946,5.547,11.155,13.566,6.057,20.242a10.147,10.147,0,0,1-8.306,4.108h-7.157a10.148,10.148,0,0,1-8.306-4.109c-5.1-6.676.113-14.693,6.059-20.241V16.105a9.868,9.868,0,0,0-1.557-2.764c-1.75-2.5-1.4-3.345,2.881-1.764,1.794.663,1.039-2.577,4.5-2.577s2.709,3.24,4.5,2.576c4.276-1.58,4.631-.734,2.881,1.764a9.887,9.887,0,0,0-1.557,2.766Z" transform="translate(-159.886 -9)" fill="#72d561" fill-rule="evenodd"/>
          <path id="Path_900639" data-name="Path 900639" d="M223.272,16.105v2.337c5.946,5.547,11.155,13.566,6.057,20.242a10.147,10.147,0,0,1-8.306,4.108h-1.666a10.148,10.148,0,0,0,8.306-4.108c5.1-6.676-.112-14.694-6.057-20.242V16.105a9.868,9.868,0,0,1,1.557-2.764c.873-1.247,1.223-2.083.822-2.41,2.3-.551,2.26.39.844,2.41a9.868,9.868,0,0,0-1.557,2.764ZM209.24,10.931c.363-.3,1.341-.177,3.1.431a.865.865,0,0,1-1.067.214A18.667,18.667,0,0,0,209.24,10.931Zm7.372-1.857c2.515.476,2.035,3.107,3.669,2.5.21-.077.409-.149.6-.214-.639-.7-.955-2.362-3.436-2.362A4.483,4.483,0,0,0,216.612,9.073Z" transform="translate(-203.493 -9)" fill="#57ca5a" fill-rule="evenodd"/>
          <path id="Path_900640" data-name="Path 900640" d="M212.8,66.75h12.84a1.55,1.55,0,0,1,0,3.1H212.8a1.55,1.55,0,1,1,0-3.1Z" transform="translate(-205.269 -60.025)" fill="#ffda2d" fill-rule="evenodd"/>
          <path id="Path_900641" data-name="Path 900641" d="M212.8,66.75h12.84a1.554,1.554,0,0,1,1.456,1.021,1.534,1.534,0,0,0-.581-.114H213.676a1.555,1.555,0,0,0-1.55,1.55,1.535,1.535,0,0,0,.093.529,1.549,1.549,0,0,1,.581-2.986Z" transform="translate(-205.269 -60.025)" fill="#ffc700" fill-rule="evenodd"/>
        </g>
        <g id="Group_1111669" data-name="Group 1111669" transform="translate(5.52 6.264)">
          <path id="Path_900642" data-name="Path 900642" d="M70.968,69.426h2.1a.569.569,0,0,0,.451-.919l-4.242-5.49a.57.57,0,0,0-.9,0l-4.243,5.492a.57.57,0,0,0,.452.919h2.1V79.953a.748.748,0,0,0,.746.746h2.8a.748.748,0,0,0,.746-.746Zm40.6,0h2.1a.569.569,0,0,0,.451-.919l-4.243-5.49a.57.57,0,0,0-.9,0l-4.243,5.492a.57.57,0,0,0,.452.919h2.1V79.953a.748.748,0,0,0,.746.746h2.8a.748.748,0,0,0,.746-.746Z" transform="translate(-64.006 -62.795)" fill="#ffda2d" fill-rule="evenodd"/>
          <path id="Path_900643" data-name="Path 900643" d="M102.4,69.426h1.5a.569.569,0,0,0,.451-.919l-4.243-5.49a.57.57,0,0,0-.9,0l-.3.389,3.943,5.1A.569.569,0,0,1,102.4,69.426ZM99.56,80.7a.749.749,0,0,0,.745-.746V69.426h1.5V79.951a.748.748,0,0,1-.746.746ZM143,69.426h1.5a.569.569,0,0,0,.451-.919l-4.243-5.49a.57.57,0,0,0-.9,0l-.3.389,3.943,5.1a.568.568,0,0,1-.451.918ZM140.161,80.7a.749.749,0,0,0,.745-.746V69.426h1.5V79.951a.749.749,0,0,1-.746.746Z" transform="translate(-94.846 -62.795)" fill="#ffc700" fill-rule="evenodd"/>
        </g>
      </g>
      <path id="Path_900644" data-name="Path 900644" d="M19.865,9.357,23.372,13.9H22.011a.931.931,0,0,0-.932.932v10.34H18.651V14.827a.932.932,0,0,0-.932-.932H16.358Zm-4.244,6.4h1.167v9.593a1.681,1.681,0,0,0,1.678,1.679h2.8a1.68,1.68,0,0,0,1.678-1.679V15.758h1.166a1.5,1.5,0,0,0,1.188-2.42L21.052,7.847a1.5,1.5,0,0,0-2.375,0l-4.243,5.492a1.5,1.5,0,0,0,1.188,2.42ZM62.612,13.9a.93.93,0,0,0-.932.932v10.34H59.252V14.827a.932.932,0,0,0-.932-.932H56.959l3.507-4.538L63.973,13.9Zm3.286-.557L61.655,7.847a1.5,1.5,0,0,0-2.375,0l-4.243,5.492a1.5,1.5,0,0,0,1.188,2.42h1.167v9.593a1.681,1.681,0,0,0,1.678,1.679h2.8a1.68,1.68,0,0,0,1.678-1.679V15.758h1.166a1.5,1.5,0,0,0,1.188-2.42ZM36.645,21.22a3.266,3.266,0,0,1,2.589-3.191V16.9a.932.932,0,1,1,1.863,0v1.091a3.278,3.278,0,0,1,2.185,1.323.932.932,0,1,1-1.51,1.091,1.4,1.4,0,0,0-1.133-.583H39.9a1.4,1.4,0,0,0,0,2.795h.521a3.261,3.261,0,0,1,.672,6.451V30.2a.932.932,0,1,1-1.863,0V29.1a3.278,3.278,0,0,1-2.185-1.323.931.931,0,0,1,1.509-1.092,1.4,1.4,0,0,0,1.133.583h.734a1.4,1.4,0,0,0,0-2.795H39.9a3.26,3.26,0,0,1-3.259-3.258Zm-8.7.423c-1.347,3.543-.985,6.707,1.075,9.406a9.207,9.207,0,0,0,7.567,3.744h7.157A9.2,9.2,0,0,0,51.31,31.05c2.061-2.7,2.422-5.863,1.076-9.408a26.808,26.808,0,0,0-6.366-8.957H34.312A26.819,26.819,0,0,0,27.946,21.642ZM35.34,5.381a2.2,2.2,0,0,0,.771.15A2.245,2.245,0,0,0,37.929,4.2a2.54,2.54,0,0,1,4.473,0,2.024,2.024,0,0,0,2.59,1.181,12.989,12.989,0,0,1,2.459-.718,8.683,8.683,0,0,1-.665,1.075,15.418,15.418,0,0,0-1.253,1.987H34.8a15.207,15.207,0,0,0-1.253-1.987,8.683,8.683,0,0,1-.665-1.075,12.989,12.989,0,0,1,2.459.718Zm-1.594,5.443a.618.618,0,0,1,0-1.237H46.587a.618.618,0,0,1,0,1.237ZM27.54,32.179c-2.477-3.245-2.926-7.014-1.336-11.2a27.41,27.41,0,0,1,6.009-8.828,2.478,2.478,0,0,1,.56-4.23c-.178-.282-.415-.631-.753-1.117-.87-1.242-1.578-2.52-.866-3.442.758-.983,2.41-.625,4.832.27a.574.574,0,0,0,.065.021,4.193,4.193,0,0,0,.295-.437A4.024,4.024,0,0,1,40.165,1a4.024,4.024,0,0,1,3.819,2.217,4.071,4.071,0,0,0,.295.437.508.508,0,0,0,.065-.021c2.422-.9,4.074-1.253,4.832-.27.713.923,0,2.2-.865,3.442-.34.484-.576.834-.753,1.117a2.478,2.478,0,0,1,.56,4.23,27.4,27.4,0,0,1,6.009,8.828c1.591,4.186,1.141,7.954-1.337,11.2a11.15,11.15,0,0,1-9.047,4.474H36.587A11.143,11.143,0,0,1,27.54,32.179ZM55.468,44.153,36.852,54.9a5.453,5.453,0,0,1-4.121.53l-7.444-1.706a7.847,7.847,0,0,0-6.45,1.171l-3.16-11.8L19.7,40.02a4.41,4.41,0,0,1,3.861-1.089l13,3.536a2.927,2.927,0,0,1-1.537,5.648l-6.942-1.89a.932.932,0,0,0-.489,1.8l6.942,1.89a4.785,4.785,0,0,0,5.717-2.876l12.665-7.312a2.557,2.557,0,0,1,2.556,4.428ZM14.9,58.487l2.776-.744-4.4-16.415-2.776.744ZM55.332,37.676a4.384,4.384,0,0,0-3.352.438l-11.438,6.6a4.8,4.8,0,0,0-3.5-4.045l-13-3.538a6.234,6.234,0,0,0-5.483,1.407l-3.411,2.612-.125-.465a1.7,1.7,0,0,0-2.081-1.2l-3.093.829a1.7,1.7,0,0,0-1.2,2.081l4.483,16.731a1.7,1.7,0,0,0,1.642,1.26,1.728,1.728,0,0,0,.439-.057l3.093-.829a1.7,1.7,0,0,0,1.2-2.082l-.163-.609a6.213,6.213,0,0,1,5.521-1.269l7.444,1.706a8.464,8.464,0,0,0,1.9.224,7.036,7.036,0,0,0,3.573-.956L56.4,45.765a4.412,4.412,0,0,0-1.069-8.089Z" fill-rule="evenodd"/>
    </g>
  </g>
</svg>
