<svg xmlns="http://www.w3.org/2000/svg" xmlns:xlink="http://www.w3.org/1999/xlink" width="113" height="113" viewBox="0 0 113 113">
  <defs>
    <filter id="Path_896985" x="0" y="0" width="113" height="113" filterUnits="userSpaceOnUse">
      <feOffset dy="3" input="SourceAlpha"/>
      <feGaussianBlur stdDeviation="3" result="blur"/>
      <feFlood flood-opacity="0.161"/>
      <feComposite operator="in" in2="blur"/>
      <feComposite in="SourceGraphic"/>
    </filter>
  </defs>
  <g id="Group_1111749" data-name="Group 1111749" transform="translate(-428.051 -8162.415)">
    <g id="Group_1111318" data-name="Group 1111318" transform="translate(437.051 8168.415)">
      <g id="Group_1109826" data-name="Group 1109826" transform="translate(0)">
        <g id="Group_1098742" data-name="Group 1098742" transform="translate(0 0)">
          <g transform="matrix(1, 0, 0, 1, -9, -6)" filter="url(#Path_896985)">
            <g id="Path_896985-2" data-name="Path 896985" transform="translate(9 6)" fill="#fd9826" opacity="0.859">
              <path d="M 47.49993515014648 93.5 C 41.28932189941406 93.5 35.26528167724609 92.28397369384766 29.59514808654785 89.88571929931641 C 24.1176815032959 87.56894683837891 19.1981086730957 84.25197601318359 14.97306823730469 80.02693176269531 C 10.74802875518799 75.80189514160156 7.431055068969727 70.88231658935547 5.11428165435791 65.40485382080078 C 2.716028451919556 59.73471832275391 1.500001788139343 53.71067810058594 1.500001788139343 47.50006484985352 C 1.500001788139343 41.28932189941406 2.716028451919556 35.26528167724609 5.11428165435791 29.59514617919922 C 7.431055068969727 24.11767959594727 10.74802875518799 19.19810676574707 14.97306823730469 14.97306632995605 C 19.1981086730957 10.74802684783936 24.1176815032959 7.431053161621094 29.59514808654785 5.114280223846436 C 35.26528167724609 2.716026782989502 41.28932189941406 1.5 47.49993515014648 1.5 C 53.71054840087891 1.5 59.73458862304688 2.716026782989502 65.40472412109375 5.114280223846436 C 70.88218688964844 7.431053161621094 75.80176544189453 10.74802684783936 80.02680206298828 14.97306632995605 C 84.25183868408203 19.19810676574707 87.56881713867188 24.11767959594727 89.88558959960938 29.59514617919922 C 92.28384399414062 35.26528167724609 93.49987030029297 41.28932189941406 93.49987030029297 47.49993515014648 C 93.49987030029297 53.71067810058594 92.28384399414062 59.73471832275391 89.88558959960938 65.40485382080078 C 87.56881713867188 70.88231658935547 84.25183868408203 75.80189514160156 80.02680206298828 80.02693176269531 C 75.80176544189453 84.25197601318359 70.88218688964844 87.56894683837891 65.40472412109375 89.88571929931641 C 59.73458862304688 92.28397369384766 53.71054840087891 93.5 47.49993515014648 93.5 Z" stroke="none"/>
              <path d="M 47.49993515014648 3 C 41.49116516113281 3 35.66371917724609 4.176155090332031 30.17947387695312 6.495796203613281 C 24.88081359863281 8.7369384765625 20.12149047851562 11.94596862792969 16.03372192382812 16.03372192382812 C 11.94596862792969 20.12149047851562 8.7369384765625 24.88081359863281 6.495796203613281 30.17947387695312 C 4.1761474609375 35.66372299194336 3 41.49116897583008 3 47.50006103515625 C 3 53.50883102416992 4.1761474609375 59.33627700805664 6.495796203613281 64.82052612304688 C 8.7369384765625 70.11918640136719 11.94596862792969 74.87850952148438 16.03372192382812 78.96627807617188 C 20.12149047851562 83.05403137207031 24.88081359863281 86.2630615234375 30.17947387695312 88.50419616699219 C 35.66371917724609 90.82384490966797 41.49116516113281 92 47.49993515014648 92 C 53.50870513916016 92 59.33615112304688 90.82384490966797 64.82039642333984 88.50419616699219 C 70.11905670166016 86.2630615234375 74.87837982177734 83.05403137207031 78.96614837646484 78.96627807617188 C 83.05390167236328 74.87850952148438 86.26293182373047 70.11918640136719 88.50407409667969 64.82052612304688 C 90.82372283935547 59.33627700805664 91.99987030029297 53.50883102416992 91.99987030029297 47.49993896484375 C 91.99987030029297 41.49116897583008 90.82372283935547 35.66372299194336 88.50407409667969 30.17947387695312 C 86.26293182373047 24.88081359863281 83.05390167236328 20.12149047851562 78.96614837646484 16.03372192382812 C 74.87837982177734 11.94596862792969 70.11905670166016 8.7369384765625 64.82039642333984 6.495796203613281 C 59.33615112304688 4.176155090332031 53.50870513916016 3 47.49993515014648 3 M 47.49993515014648 0 C 73.73342895507812 0 94.99987030029297 21.26644897460938 94.99987030029297 47.49993896484375 L 94.99987030029297 47.50006103515625 C 94.99987030029297 73.73355102539062 73.73342895507812 95 47.49993515014648 95 C 21.26644134521484 95 0 73.73355102539062 0 47.50006103515625 L 0 47.49993896484375 C 0 21.26644897460938 21.26644134521484 0 47.49993515014648 0 Z" stroke="none" fill="#fff"/>
            </g>
          </g>
          <g id="Rectangle_400907" data-name="Rectangle 400907" transform="translate(0)" fill="none" stroke="#fff" stroke-width="3">
            <rect width="95" height="95" rx="47.5" stroke="none"/>
            <rect x="1.5" y="1.5" width="92" height="92" rx="46" fill="none"/>
          </g>
        </g>
      </g>
    </g>
    <g id="Group_1111748" data-name="Group 1111748" transform="translate(454.535 8185.916)">
      <path id="Path_900786" data-name="Path 900786" d="M43,3a2.006,2.006,0,0,0-2-2H8.83a2.006,2.006,0,0,0-1.42.59L1.59,7.41A2.006,2.006,0,0,0,1,8.83V55a2.006,2.006,0,0,0,2,2H43Z" fill="#d9dde3"/>
      <rect id="Rectangle_404659" data-name="Rectangle 404659" width="30" height="17" rx="1" transform="translate(7 13)" fill="#55cba9"/>
      <circle id="Ellipse_12807" data-name="Ellipse 12807" cx="13" cy="13" r="13" transform="translate(33 33)" fill="#55cba9"/>
      <path id="Path_900787" data-name="Path 900787" d="M8,1.18V6A2.006,2.006,0,0,1,6,8H1.18a2.017,2.017,0,0,1,.41-.59L7.41,1.59A2.017,2.017,0,0,1,8,1.18Z" fill="#f1f3f5"/>
      <path id="Path_900788" data-name="Path 900788" d="M12,18H37V29a1,1,0,0,1-1,1H12Z" fill="#fff"/>
      <g id="Group_1111747" data-name="Group 1111747">
        <path id="Path_900789" data-name="Path 900789" d="M38,29V14a2,2,0,0,0-2-2H8a2,2,0,0,0-2,2V29a2,2,0,0,0,2,2H36A2,2,0,0,0,38,29Zm-5,0V27h3v2ZM16,19v2H13V19Zm-3,4h3v2H13Zm5,0h3v2H18Zm5,0h3v2H23Zm5,0h3v2H28Zm5,0h3v2H33Zm0-2V19h3v2Zm-2,0H28V19h3Zm-5,0H23V19h3Zm-5,0H18V19h3Zm-8,6h3v2H13Zm5,0h3v2H18Zm5,0h3v2H23Zm5,0h3v2H28Zm8-13v3H8V14ZM8,19h3V29H8Z" fill="#373737"/>
        <path id="Path_900790" data-name="Path 900790" d="M3,58H38.826a14,14,0,1,0-1.458-23H19a1,1,0,0,0,0,2H35.292a14.072,14.072,0,0,0-1.4,2H24a1,1,0,1,0,0,2h8.939a13.886,13.886,0,0,0-.607,2H19a1,1,0,0,0,0,2H32.051c-.024.332-.051.662-.051,1s.027.668.051,1H19a1,1,0,0,0,0,2H32.332a13.979,13.979,0,0,0,3.889,7H3a1,1,0,0,1-1-1V9H6A3,3,0,0,0,9,6V2H41a1,1,0,0,1,1,1V30a1,1,0,0,0,2,0V3a3,3,0,0,0-3-3H8.83A2.985,2.985,0,0,0,6.7.883L.883,6.7A2.987,2.987,0,0,0,0,8.83V55a3,3,0,0,0,3,3ZM34,46A12,12,0,1,1,46,58,12,12,0,0,1,34,46ZM7,3.414V6A1,1,0,0,1,6,7H3.414Z" fill="#373737"/>
        <path id="Path_900791" data-name="Path 900791" d="M13,40a1,1,0,0,0,2,0,5.009,5.009,0,0,0-4-4.9V35a1,1,0,0,0-2,0v.1a5,5,0,0,0,0,9.8v5.917A3,3,0,0,1,7,48a1,1,0,0,0-2,0,5.009,5.009,0,0,0,4,4.9V53a1,1,0,0,0,2,0v-.1a5,5,0,0,0,0-9.8V37.184A3,3,0,0,1,13,40ZM7,40a3,3,0,0,1,2-2.816v5.632A3,3,0,0,1,7,40Zm6,8a3,3,0,0,1-2,2.816V45.184A3,3,0,0,1,13,48Z" fill="#373737"/>
        <path id="Path_900792" data-name="Path 900792" d="M19,41h1a1,1,0,0,0,0-2H19a1,1,0,0,0,0,2Z" fill="#373737"/>
        <path id="Path_900793" data-name="Path 900793" d="M28,53a1,1,0,0,0,0-2H19a1,1,0,0,0,0,2Z" fill="#373737"/>
        <path id="Path_900794" data-name="Path 900794" d="M43.293,53.707A1,1,0,0,0,44,54a1.086,1.086,0,0,0,.128-.008,1,1,0,0,0,.736-.488l7-12a1,1,0,1,0-1.728-1L43.79,51.376l-2.083-2.083a1,1,0,1,0-1.414,1.414Z" fill="#373737"/>
      </g>
    </g>
  </g>
</svg>
