<svg xmlns="http://www.w3.org/2000/svg" xmlns:xlink="http://www.w3.org/1999/xlink" width="403.6" height="421.916" viewBox="0 0 403.6 421.916">
  <defs>
    <clipPath id="clip-path">
      <path id="Path_113774" data-name="Path 113774" d="M12458.057,2379.784a2.345,2.345,0,0,1-.513.868c-3.7,3.5-19.51,7.4-33.087,10.2-11.245,2.333-20.921,3.912-20.921,3.912s-7.448-61.9-7.448-68.4-12.009-111.845-12.009-111.845l28.787-1.245,38.191-1.653s.229,2.814.616,7.73C12454.187,2250.722,12462.764,2367.431,12458.057,2379.784Z" transform="translate(-12384.079 -2211.62)" fill="none" opacity="0"/>
    </clipPath>
    <clipPath id="clip-path-2">
      <path id="Path_113809" data-name="Path 113809" d="M12439.4,2199l76.7,20.231s-26.957,81.812-32.429,91.959l-9.143,71.32s-49-2.155-71.529-8.965c0,0,14.247-74.27,15.011-84.177S12439.4,2199,12439.4,2199Z" transform="translate(-12403 -2199)" fill="none" opacity="0"/>
    </clipPath>
  </defs>
  <g id="Group_59297" data-name="Group 59297" transform="translate(-12552.192 -2358.746)">
    <path id="Path_900785" data-name="Path 900785" d="M192.642,0C299.036,0,385.285,86.249,385.285,192.642S299.036,385.285,192.642,385.285,0,299.036,0,192.642,86.249,0,192.642,0Z" transform="translate(12568.008 2370.051)" fill="#feead4" stroke="#aed3f2" stroke-width="5"/>
    <g id="freepik--hand-1--inject-2" transform="translate(12552.831 2359.35)">
      <path id="Path_113677" data-name="Path 113677" d="M12331.026,2310.994s-24-26.423-25.648-28.045-2.9-29.8-7.458-42.208-6.769-85.254-6.769-85.254-4.341-5.377-16.579-2.479-24.237-2.49-37.888,5.376,12.824,120.381,12.824,120.381l26.873,85.641Z" transform="translate(-12179.485 -2146.438)" fill="rgba(52,65,84,0.7)" opacity="0.2"/>
      <path id="Path_113678" data-name="Path 113678" d="M12349.8,2311.4s-10.754,68.695-21.968,77.8c-6.476,5.23-16.569,7.636-25.524,7.323-6.485-.23-12.385-1.862-15.858-4.823-8.274-7.04-19.875-10.764-25.648-15.314s-5.795-20.691-9.519-34.353-9.111-14.07-10.346-27.721-6.214-55.441-15.209-67.042-9.205-20.691-12.93-32.491-30.963-54.489-30.963-54.489l66.4-13.6s6.527,27.02,13.515,49.06c3.315,10.461,6.737,19.812,9.6,24.6a205.461,205.461,0,0,1,14.258,28.965c7.51,7.866,11.622,25.294,12.866,40.556h0l17.783,9.917C12329.921,2303.526,12349.8,2311.4,12349.8,2311.4Z" transform="translate(-12181.831 -2146.69)" fill="#ffbf9d"/>
      <path id="Path_113679" data-name="Path 113679" d="M12346.319,2309.241s-10.754,68.695-21.968,77.8c-6.476,5.23-16.569,7.636-25.524,7.323-21.234-5.23-26.945-17.072-29.822-19.938-3.829-3.818-8.86-27.082-6.1-40.619s.774-18.547-1.507-25.158c-5.053-14.645,10.356-22.532,11.946-28.076s1.046-36.549-5.89-46.633c-3.682-5.366-13.17-33.024-9.174-40.326,3.316,10.46,6.737,19.812,9.6,24.6a205.236,205.236,0,0,1,14.258,28.965c7.511,7.866,11.622,25.294,12.866,40.556h0l17.783,9.917C12326.444,2301.365,12346.319,2309.241,12346.319,2309.241Z" transform="translate(-12178.354 -2144.529)" fill="#5ab4f9" opacity="0.4"/>
      <path id="Path_113680" data-name="Path 113680" d="M12265.211,2299.53s-3.745,4.4-7.051,4.4" transform="translate(-12178.315 -2139.65)" fill="none" stroke="#263238" stroke-linecap="round" stroke-linejoin="round" stroke-width="1" opacity="0"/>
      <path id="Path_113681" data-name="Path 113681" d="M12273.16,2313.76s-4.026,8.557-10.46,10.46" transform="translate(-12178.106 -2138.994)" fill="none" stroke="#263238" stroke-linecap="round" stroke-linejoin="round" stroke-width="1" opacity="0"/>
      <path id="Path_113682" data-name="Path 113682" d="M12265.8,2362.165s9.111-3.933,10.555-10.555" transform="translate(-12177.964 -2137.251)" fill="none" stroke="#263238" stroke-linecap="round" stroke-linejoin="round" stroke-width="1" opacity="0"/>
      <path id="Path_113683" data-name="Path 113683" d="M12310.5,2293.06s-2.28,2.9-2.28,5.23" transform="translate(-12176.01 -2139.948)" fill="none" stroke="#263238" stroke-linecap="round" stroke-linejoin="round" stroke-width="1" opacity="0"/>
      <path id="Path_113684" data-name="Path 113684" d="M12248.326,2146.69s14.205,58.757,23.117,73.705a205.448,205.448,0,0,1,14.258,28.965c7.511,7.866,11.622,25.3,12.866,40.566h0l17.783,9.917c13.65,3.724,33.474,11.59,33.474,11.59s-10.754,68.695-21.967,77.8-33,9.477-41.372,2.448-19.875-10.764-25.648-15.314-5.795-20.691-9.519-34.353-9.111-14.07-10.346-27.721-6.214-55.441-15.21-67.042-9.205-20.691-12.93-32.491-30.952-54.468-30.952-54.468" transform="translate(-12181.829 -2146.69)" fill="none" stroke="#263238" stroke-linecap="round" stroke-linejoin="round" stroke-width="1" opacity="0"/>
      <path id="Path_113685" data-name="Path 113685" d="M12742.336,2512.706l-10.147,172.338-99.689-3.274,7.846-132.054,2.406-41.006,43.411,1.747Z" transform="translate(-12549.16 -2352.47)" fill="none" stroke="#263238" stroke-linecap="round" stroke-linejoin="round" stroke-width="1" opacity="0"/>
      <g id="Group_59292" data-name="Group 59292" transform="translate(67.103 144.168)">
        <g id="Group_59287" data-name="Group 59287">
          <path id="Path_113686" data-name="Path 113686" d="M12617,2515.311l24.9,258.774,192.685-18.149-27.825-258.586Z" transform="translate(-12616.978 -2497.162)" fill="#fff"/>
          <path id="Path_113687" data-name="Path 113687" d="M12246,2302.659l189.776-18.149h.188v.2c7.8,72.586,17.428,161.993,27.825,258.575v.241h-.241l-1.359.125-191.3,18h-.22v-.209c-14.645-153.216-24.509-256.912-24.687-258.795.188,1.883,10.251,105.558,25.105,258.753l-.229-.188,191.3-18.044,1.36-.126-.21.261c-10.366-96.583-19.959-186-27.741-258.586l.21.167Z" transform="translate(-12245.979 -2284.51)" fill="#344154"/>
        </g>
        <g id="Group_59288" data-name="Group 59288" transform="translate(147.83 186.073)">
          <path id="Path_113688" data-name="Path 113688" d="M12387.3,2490.728a28.4,28.4,0,1,1,28.328,28.463A28.4,28.4,0,0,1,12387.3,2490.728Zm56.268.136a27.894,27.894,0,1,1-.095,0Z" transform="translate(-12387.3 -2462.39)" fill="#839eb6"/>
          <path id="Path_113689" data-name="Path 113689" d="M12390.3,2490.578a24.771,24.771,0,1,1,24.709,24.823,24.772,24.772,0,0,1-24.709-24.823Zm45.881.1a8.737,8.737,0,1,0,.042,0Z" transform="translate(-12387.162 -2462.23)" fill="#839eb6"/>
          <path id="Path_113690" data-name="Path 113690" d="M12396.2,2490.192a18.124,18.124,0,0,1,1.959-8.211l3.262,1.653a14.659,14.659,0,0,0,20.744,19.122l1.9,3.138a18.328,18.328,0,0,1-27.867-15.691Z" transform="translate(-12386.889 -2461.488)" fill="#839eb6"/>
          <path id="Path_113691" data-name="Path 113691" d="M12405.6,2474.421a18.326,18.326,0,0,1,23.964,26.026l-3.137-1.956a14.645,14.645,0,0,0-19.185-20.827Z" transform="translate(-12386.457 -2461.931)" fill="#839eb6"/>
        </g>
        <path id="Path_113692" data-name="Path 113692" d="M12342.1,2346.39c0,.136-16.737,1.82-37.47,3.776s-37.5,3.441-37.522,3.305,16.736-1.82,37.48-3.776S12342.1,2346.265,12342.1,2346.39Z" transform="translate(-12245.006 -2281.66)" fill="#344154"/>
        <path id="Path_113693" data-name="Path 113693" d="M12344.794,2511.51c0,.136-13.169,1.36-29.446,2.741s-29.468,2.4-29.478,2.259,13.169-1.349,29.436-2.73S12344.689,2511.385,12344.794,2511.51Z" transform="translate(-12244.143 -2274.054)" fill="#5ab4f9"/>
        <path id="Path_113694" data-name="Path 113694" d="M12319.356,2521.141c0,.126-7.385.858-16.517,1.632s-16.55,1.308-16.56,1.172,7.385-.868,16.518-1.642S12319.356,2520.995,12319.356,2521.141Z" transform="translate(-12244.123 -2273.612)" fill="#5ab4f9"/>
        <path id="Path_113695" data-name="Path 113695" d="M12317.714,2450.2c0,.126-8.692,1.046-19.437,2.145s-19.467,1.82-19.478,1.684,8.683-1.046,19.436-2.155S12317.714,2450.065,12317.714,2450.2Z" transform="translate(-12244.468 -2276.879)" fill="#5ab4f9"/>
        <g id="Group_59289" data-name="Group 59289" transform="translate(20.315 214.809)" opacity="0.3">
          <path id="Path_113696" data-name="Path 113696" d="M12637.027,2720.847l17.679-3.421,9.938-14.906-28.244,9.258Z" transform="translate(-12636.399 -2702.52)" fill="#5ab4f9"/>
        </g>
        <path id="Path_113697" data-name="Path 113697" d="M12366.435,2490.7l.157.052a2.447,2.447,0,0,1,.461.219,6.277,6.277,0,0,1,1.518,1.287,21.33,21.33,0,0,1,3.829,6.6,27.556,27.556,0,0,1,1.988,11.873,18.177,18.177,0,0,1-.65,3.63,23.77,23.77,0,0,1-1.442,3.629,24.491,24.491,0,0,1-5.043,6.81,25.159,25.159,0,0,1-7.8,5.1,21.4,21.4,0,0,1-9.967,1.569,21.884,21.884,0,0,1-17.5-12.49,17.987,17.987,0,0,1-1.578-5.785,13.627,13.627,0,0,1,.639-6.109,9.809,9.809,0,0,1,3.64-5.094,7.023,7.023,0,0,1,3.021-1.13,7.332,7.332,0,0,1,3.245.377,9.561,9.561,0,0,1,4.988,4.184,15.381,15.381,0,0,1,1.977,6.277,27.547,27.547,0,0,1-1.935,13.253,26.074,26.074,0,0,1-8.014,10.722,24.058,24.058,0,0,1-12.041,4.843,22.673,22.673,0,0,1-12.375-2.008,21.1,21.1,0,0,1-8.787-8.18,20.436,20.436,0,0,1-2.979-11.036,14.936,14.936,0,0,1,1.046-5.429,10.761,10.761,0,0,1,3.14-4.372,6.464,6.464,0,0,1,4.936-1.455,7.419,7.419,0,0,1,4.352,2.417,9.3,9.3,0,0,1,2.187,4.279,12.146,12.146,0,0,1,0,4.592,23.713,23.713,0,0,1-3.242,7.835,38.039,38.039,0,0,1-4.54,6.046,38.79,38.79,0,0,1-9.414,7.521,36.223,36.223,0,0,1-7,3.086,25.8,25.8,0,0,1-2.563.711l.639-.209c.43-.136,1.046-.293,1.894-.6a37.257,37.257,0,0,0,6.935-3.138,42.91,42.91,0,0,0,4.562-3.086,42.107,42.107,0,0,0,4.781-4.457,38.313,38.313,0,0,0,4.486-6.025,23.786,23.786,0,0,0,3.14-7.741,11.832,11.832,0,0,0,0-4.456,8.861,8.861,0,0,0-2.092-4.1,7.021,7.021,0,0,0-4.185-2.291,6.058,6.058,0,0,0-4.645,1.392,10.461,10.461,0,0,0-2.982,4.184,14.662,14.662,0,0,0-1.044,5.283,20.089,20.089,0,0,0,2.927,10.806,20.681,20.681,0,0,0,8.621,7.992,22.123,22.123,0,0,0,12.124,1.956,23.583,23.583,0,0,0,11.81-4.759,25.7,25.7,0,0,0,7.854-10.524,27.281,27.281,0,0,0,1.916-13.023,15.122,15.122,0,0,0-1.914-6.12,9.137,9.137,0,0,0-4.75-3.944,6.824,6.824,0,0,0-3.034-.355,6.543,6.543,0,0,0-2.825,1.046,9.331,9.331,0,0,0-3.461,4.854,13.09,13.09,0,0,0-.628,5.91,17.551,17.551,0,0,0,1.538,5.649,21.478,21.478,0,0,0,17.135,12.291,21.163,21.163,0,0,0,9.8-1.516,24.759,24.759,0,0,0,7.7-5.011,23.931,23.931,0,0,0,5.012-6.7,23.01,23.01,0,0,0,1.443-3.578,18.076,18.076,0,0,0,.658-3.567,27.7,27.7,0,0,0-1.893-11.789,22.312,22.312,0,0,0-3.723-6.6,6.676,6.676,0,0,0-1.475-1.308C12366.645,2490.773,12366.435,2490.721,12366.435,2490.7Z" transform="translate(-12243.92 -2275.013)" fill="#5ab4f9"/>
        <g id="Group_59290" data-name="Group 59290" transform="translate(32.763 78.957)">
          <rect id="Rectangle_10071" data-name="Rectangle 10071" width="137.243" height="10.555" transform="translate(2.808 33.927) rotate(-5.51)" fill="#ffbf9d"/>
          <rect id="Rectangle_10072" data-name="Rectangle 10072" width="137.243" height="10.555" transform="translate(1.762 23.417) rotate(-5.51)" fill="#5ab4f9"/>
          <rect id="Rectangle_10073" data-name="Rectangle 10073" width="137.243" height="10.555" transform="translate(3.748 44.427) rotate(-5.51)" fill="#dbdbdb"/>
          <rect id="Rectangle_10074" data-name="Rectangle 10074" width="137.243" height="10.555" transform="translate(4.795 54.938) rotate(-5.51)" fill="#ffbf9d"/>
          <rect id="Rectangle_10075" data-name="Rectangle 10075" width="137.243" height="10.555" transform="translate(5.84 65.437) rotate(-5.51)" fill="#dbdbdb"/>
          <rect id="Rectangle_10076" data-name="Rectangle 10076" width="137.243" height="10.555" transform="translate(6.782 75.937) rotate(-5.51)" fill="#ffbf9d"/>
          <rect id="Rectangle_10077" data-name="Rectangle 10077" width="137.243" height="10.555" transform="translate(7.828 86.447) rotate(-5.51)" fill="#dbdbdb"/>
          <rect id="Rectangle_10078" data-name="Rectangle 10078" width="96.102" height="10.555" transform="translate(49.783 93.008) rotate(-5.51)" fill="#5ab4f9"/>
          <rect id="Rectangle_10079" data-name="Rectangle 10079" width="41.152" height="73.873" transform="translate(1.738 23.42) rotate(-5.51)" fill="#c7c7c7"/>
          <path id="Path_113698" data-name="Path 113698" d="M12651.9,2615.241l68.308-6.726,68.308-6.465-68.2,6.737Z" transform="translate(-12648.133 -2571.296)" fill="#344154"/>
          <path id="Path_113699" data-name="Path 113699" d="M12652.9,2625.28l68.308-6.716,68.307-6.465-68.307,6.726Z" transform="translate(-12648.088 -2570.833)" fill="#344154"/>
          <path id="Path_113700" data-name="Path 113700" d="M12653.9,2635.331l68.308-6.737,68.308-6.454-68.308,6.726Z" transform="translate(-12648.042 -2570.37)" fill="#344154"/>
          <path id="Path_113701" data-name="Path 113701" d="M12654.8,2645.36l68.308-6.716,68.309-6.465-68.2,6.726Z" transform="translate(-12648 -2569.908)" fill="#344154"/>
          <path id="Path_113702" data-name="Path 113702" d="M12655.8,2655.411l68.308-6.726,68.309-6.465-68.309,6.737Z" transform="translate(-12647.953 -2569.446)" fill="#344154"/>
          <path id="Path_113703" data-name="Path 113703" d="M12656.8,2665.45l68.307-6.726,68.309-6.454-68.309,6.716Z" transform="translate(-12647.908 -2568.983)" fill="#344154"/>
          <path id="Path_113704" data-name="Path 113704" d="M12286.5,2386.353c4.342-.628,8.7-1.046,13.055-1.527s8.725-.837,13.117-1.046c-4.34.638-8.7,1.046-13.064,1.527S12290.893,2386.176,12286.5,2386.353Z" transform="translate(-12276.876 -2358.894)" fill="#344154"/>
          <path id="Path_113705" data-name="Path 113705" d="M12287.5,2396.394c3.274-.544,6.58-.879,9.876-1.224s6.59-.638,9.927-.69c-3.284.544-6.579.868-9.885,1.224S12290.742,2396.3,12287.5,2396.394Z" transform="translate(-12276.829 -2358.401)" fill="#344154"/>
          <path id="Path_113706" data-name="Path 113706" d="M12288.4,2406.461c4.342-.638,8.7-1.046,13.056-1.527s8.724-.837,13.117-.994c-4.342.638-8.7,1.046-13.065,1.527S12292.793,2406.252,12288.4,2406.461Z" transform="translate(-12276.788 -2357.966)" fill="#344154"/>
          <path id="Path_113707" data-name="Path 113707" d="M12289.4,2416.481c3.567-.565,7.155-.931,10.742-1.308s7.177-.69,10.8-.774c-3.567.565-7.154.931-10.742,1.308S12292.956,2416.356,12289.4,2416.481Z" transform="translate(-12276.742 -2357.484)" fill="#344154"/>
          <path id="Path_113708" data-name="Path 113708" d="M12290.4,2426.541c4.33-.638,8.7-1.046,13.056-1.527s8.724-.837,13.117-.994c-4.352.638-8.7,1.046-13.065,1.527S12294.689,2426.342,12290.4,2426.541Z" transform="translate(-12276.696 -2357.041)" fill="#344154"/>
          <path id="Path_113709" data-name="Path 113709" d="M12291.3,2436.593c4.33-.649,8.7-1.046,13.055-1.527s8.725-.847,13.118-1.046c-4.352.649-8.7,1.046-13.065,1.527S12295.693,2436.384,12291.3,2436.593Z" transform="translate(-12276.655 -2356.58)" fill="#344154"/>
          <path id="Path_113710" data-name="Path 113710" d="M12292.3,2446.578c2.625-.45,5.282-.763,7.907-1.046s5.324-.45,7.972-.5c-2.626.46-5.23.764-7.919,1.046S12294.915,2446.536,12292.3,2446.578Z" transform="translate(-12276.609 -2356.073)" fill="#344154"/>
          <path id="Path_113711" data-name="Path 113711" d="M12327.8,2382.333c3.254-.523,6.538-.858,9.8-1.213s6.569-.628,9.864-.68c-3.254.544-6.527.868-9.812,1.213S12331.147,2382.26,12327.8,2382.333Z" transform="translate(-12274.974 -2359.048)" fill="#344154"/>
          <path id="Path_113712" data-name="Path 113712" d="M12328.8,2392.4c3.254-.544,6.538-.868,9.8-1.213s6.569-.638,9.864-.68c-3.254.534-6.527.858-9.812,1.213S12332.043,2392.309,12328.8,2392.4Z" transform="translate(-12274.927 -2358.584)" fill="#344154"/>
          <path id="Path_113713" data-name="Path 113713" d="M12329.7,2402.454c3.254-.544,6.538-.868,9.8-1.224s6.569-.628,9.863-.68c-3.253.544-6.527.868-9.812,1.213S12333.048,2402.339,12329.7,2402.454Z" transform="translate(-12274.887 -2358.122)" fill="#344154"/>
          <path id="Path_113714" data-name="Path 113714" d="M12330.7,2412.483c3.254-.523,6.538-.868,9.8-1.213s6.569-.638,9.864-.68c-3.254.533-6.528.858-9.812,1.213S12334.048,2412.389,12330.7,2412.483Z" transform="translate(-12274.84 -2357.659)" fill="#344154"/>
          <path id="Path_113715" data-name="Path 113715" d="M12331.7,2422.534c3.254-.544,6.527-.868,9.8-1.224s6.569-.628,9.864-.68c-3.254.544-6.538.868-9.812,1.213S12334.942,2422.429,12331.7,2422.534Z" transform="translate(-12274.794 -2357.197)" fill="#344154"/>
          <path id="Path_113716" data-name="Path 113716" d="M12332.6,2432.573c3.253-.533,6.527-.868,9.8-1.213s6.57-.638,9.864-.68c-3.253.533-6.538.858-9.812,1.213S12335.946,2432.469,12332.6,2432.573Z" transform="translate(-12274.753 -2356.734)" fill="#344154"/>
          <path id="Path_113717" data-name="Path 113717" d="M12333.6,2442.614c3.253-.533,6.527-.868,9.8-1.213s6.558-.638,9.863-.69c-3.253.544-6.537.868-9.812,1.213S12336.947,2442.52,12333.6,2442.614Z" transform="translate(-12274.707 -2356.272)" fill="#344154"/>
          <path id="Path_113718" data-name="Path 113718" d="M12355,2379.713c3.264-.523,6.538-.868,9.812-1.213s6.559-.628,9.854-.68c-3.254.533-6.528.868-9.8,1.213S12358.242,2379.64,12355,2379.713Z" transform="translate(-12273.721 -2359.169)" fill="#344154"/>
          <path id="Path_113719" data-name="Path 113719" d="M12367.2,2439.309a18.947,18.947,0,0,1,6.276-.606A18.661,18.661,0,0,1,12367.2,2439.309Z" transform="translate(-12273.158 -2356.366)" fill="#344154"/>
          <path id="Path_113720" data-name="Path 113720" d="M12366.3,2429.279a18.684,18.684,0,0,1,6.277-.607,18.947,18.947,0,0,1-6.277.607Z" transform="translate(-12273.2 -2356.829)" fill="#344154"/>
          <path id="Path_113721" data-name="Path 113721" d="M12365.3,2419.229a18.077,18.077,0,0,1,3.138-.575,15.975,15.975,0,0,1,3.139,0,18.956,18.956,0,0,1-6.277.606Z" transform="translate(-12273.246 -2357.292)" fill="#344154"/>
          <path id="Path_113722" data-name="Path 113722" d="M12364.3,2409.189a18.674,18.674,0,0,1,6.276-.607,18.934,18.934,0,0,1-6.277.607Z" transform="translate(-12273.293 -2357.754)" fill="#344154"/>
          <path id="Path_113723" data-name="Path 113723" d="M12363.3,2399.149a18.693,18.693,0,0,1,6.276-.607A18.672,18.672,0,0,1,12363.3,2399.149Z" transform="translate(-12273.339 -2358.217)" fill="#344154"/>
          <path id="Path_113724" data-name="Path 113724" d="M12362.4,2389.109a17.11,17.11,0,0,1,3.139-.575,16.86,16.86,0,0,1,3.138,0,16.757,16.757,0,0,1-3.138.575,18.333,18.333,0,0,1-3.139,0Z" transform="translate(-12273.38 -2358.678)" fill="#344154"/>
          <path id="Path_113725" data-name="Path 113725" d="M12369.9,2449.207a54.945,54.945,0,0,1,5.523-.805,52.289,52.289,0,0,1,5.585-.272,58.18,58.18,0,0,1-11.108,1.077Z" transform="translate(-12273.034 -2355.93)" fill="#344154"/>
          <path id="Path_113726" data-name="Path 113726" d="M12382.1,2377.083c3.264-.534,6.538-.868,9.813-1.213s6.558-.638,9.854-.68c-3.254.533-6.527.858-9.8,1.213S12385.447,2377.021,12382.1,2377.083Z" transform="translate(-12272.473 -2359.29)" fill="#344154"/>
          <path id="Path_113727" data-name="Path 113727" d="M12383.1,2387.164c3.265-.544,6.538-.868,9.813-1.224s6.559-.628,9.854-.68c-3.254.544-6.527.868-9.8,1.213S12386.446,2387.08,12383.1,2387.164Z" transform="translate(-12272.426 -2358.826)" fill="#344154"/>
          <path id="Path_113728" data-name="Path 113728" d="M12384.1,2397.2c3.264-.533,6.537-.868,9.812-1.213s6.559-.638,9.854-.68c-3.253.533-6.527.868-9.8,1.213S12387.343,2397.078,12384.1,2397.2Z" transform="translate(-12272.381 -2358.363)" fill="#344154"/>
          <path id="Path_113729" data-name="Path 113729" d="M12385,2407.244c3.264-.534,6.527-.868,9.812-1.224s6.559-.628,9.854-.68c-3.254.544-6.538.868-9.8,1.213S12388.348,2407.15,12385,2407.244Z" transform="translate(-12272.339 -2357.901)" fill="#344154"/>
          <path id="Path_113730" data-name="Path 113730" d="M12386,2417.283c3.264-.534,6.528-.868,9.813-1.213s6.558-.628,9.854-.68c-3.254.533-6.538.868-9.8,1.213S12389.348,2417.189,12386,2417.283Z" transform="translate(-12272.293 -2357.438)" fill="#344154"/>
          <path id="Path_113731" data-name="Path 113731" d="M12387,2427.334c3.265-.544,6.528-.868,9.813-1.213s6.558-.638,9.854-.69c-3.254.544-6.538.868-9.8,1.213S12390.242,2427.229,12387,2427.334Z" transform="translate(-12272.246 -2356.976)" fill="#344154"/>
          <path id="Path_113732" data-name="Path 113732" d="M12388,2437.363c3.264-.523,6.527-.868,9.812-1.213s6.548-.628,9.854-.68c-3.253.533-6.538.868-9.8,1.213S12391.242,2437.269,12388,2437.363Z" transform="translate(-12272.201 -2356.513)" fill="#344154"/>
          <path id="Path_113733" data-name="Path 113733" d="M12388.9,2447.414c3.254-.544,6.527-.868,9.812-1.213s6.549-.638,9.854-.69c-3.254.544-6.538.868-9.8,1.213S12392.247,2447.32,12388.9,2447.414Z" transform="translate(-12272.159 -2356.051)" fill="#344154"/>
          <path id="Path_113734" data-name="Path 113734" d="M12277.3,2364.4c3.756-.544,7.511-.973,11.277-1.4s7.542-.732,11.308-1.182,7.531-.722,11.318-1.046,7.542-.586,11.329-.785c-3.756.534-7.511.973-11.277,1.4s-7.542.732-11.3,1.172-7.542.732-11.318,1.046S12281.065,2364.185,12277.3,2364.4Z" transform="translate(-12277.299 -2359.99)" fill="#344154"/>
          <path id="Path_113735" data-name="Path 113735" d="M12277.7,2368.6c2.344-.387,4.7-.7,7.051-.994s4.728-.45,7.093-.764,4.728-.46,7.093-.607,4.738-.3,7.123-.377c-2.344.408-4.7.7-7.061.994s-4.729.523-7.082.785-4.728.45-7.1.586S12280.106,2368.538,12277.7,2368.6Z" transform="translate(-12277.281 -2359.719)" fill="#344154"/>
          <path id="Path_113736" data-name="Path 113736" d="M12278.1,2372.928c3.274-.481,6.548-.868,9.844-1.255s6.569-.7,9.854-1.046,6.59-.638,9.886-.858,6.6-.492,9.9-.649c-3.264.481-6.548.879-9.844,1.255s-6.569.7-9.854,1.046-6.58.638-9.886.858S12281.447,2372.781,12278.1,2372.928Z" transform="translate(-12277.263 -2359.569)" fill="#344154"/>
          <path id="Path_113737" data-name="Path 113737" d="M12287.5,2470.125c2.406-.408,4.812-.711,7.229-1.046s4.844-.533,7.249-.795,4.844-.471,7.322-.607,4.844-.335,7.322-.4c-2.405.4-4.822.711-7.228,1.046s-4.833.512-7.261.784-4.833.46-7.26.607S12289.905,2470.125,12287.5,2470.125Z" transform="translate(-12276.829 -2355.048)" fill="#344154"/>
          <path id="Path_113738" data-name="Path 113738" d="M12287.9,2474.413c2.783-.439,5.576-.785,8.369-1.119s5.584-.544,8.367-.91,5.6-.534,8.369-.711,5.6-.408,8.42-.5c-2.793.439-5.574.784-8.367,1.119s-5.586.586-8.369.889-5.6.544-8.369.732S12290.725,2474.319,12287.9,2474.413Z" transform="translate(-12276.812 -2354.869)" fill="#344154"/>
        </g>
        <g id="Group_59291" data-name="Group 59291" transform="translate(40.234 24.823)">
          <path id="Path_113739" data-name="Path 113739" d="M12296.846,2324.975a5.228,5.228,0,0,1-1.452,3.912,6.279,6.279,0,0,1-4.092,1.715,5.606,5.606,0,0,1-4.645-1.548,7.88,7.88,0,0,1-2.091-5.137l-.075-.91a8.88,8.88,0,0,1,.438-3.829,5.719,5.719,0,0,1,1.947-2.678,6.066,6.066,0,0,1,3.137-1.13,5.994,5.994,0,0,1,4.248,1.047,5.653,5.653,0,0,1,2.094,3.7l-3.056.251a3.137,3.137,0,0,0-.973-2.019,3.01,3.01,0,0,0-2.092-.471,2.618,2.618,0,0,0-2.2,1.287,6.275,6.275,0,0,0-.5,3.452l.093,1.119a6.67,6.67,0,0,0,1.046,3.462,2.6,2.6,0,0,0,2.395.921,3.016,3.016,0,0,0,2.093-.826,2.865,2.865,0,0,0,.639-2.092Z" transform="translate(-12284.442 -2307.914)" fill="#344154"/>
          <path id="Path_113740" data-name="Path 113740" d="M12297.5,2324.066a6.6,6.6,0,0,1,.4-2.981,4.593,4.593,0,0,1,1.653-2.092,5.279,5.279,0,0,1,2.688-.92,5.031,5.031,0,0,1,3.757,1.046,5.537,5.537,0,0,1,1.882,3.578l.084.753a5.8,5.8,0,0,1-1.046,4.184,5.5,5.5,0,0,1-7.595.628,5.855,5.855,0,0,1-1.766-4.038Zm2.961,0a4.055,4.055,0,0,0,.794,2.343,2.094,2.094,0,0,0,3.359-.261,4.553,4.553,0,0,0,.386-2.678,4.187,4.187,0,0,0-.8-2.333,1.954,1.954,0,0,0-1.757-.711,1.923,1.923,0,0,0-1.6.983,4.642,4.642,0,0,0-.409,2.625Z" transform="translate(-12283.843 -2307.789)" fill="#344154"/>
          <path id="Path_113741" data-name="Path 113741" d="M12311.523,2317.5l.2,1.224a3.854,3.854,0,0,1,3.045-1.695,2.951,2.951,0,0,1,3.064,1.433,3.774,3.774,0,0,1,3.138-1.946,3.275,3.275,0,0,1,2.75.826,4.789,4.789,0,0,1,1.133,3.065l.583,7.03-2.95.251-.585-7.03a2.094,2.094,0,0,0-.481-1.339,1.591,1.591,0,0,0-1.328-.325,1.841,1.841,0,0,0-1.727,1.413l.639,7.563-2.95.241-.575-7.009a2.1,2.1,0,0,0-.491-1.36,1.687,1.687,0,0,0-1.318-.324,1.933,1.933,0,0,0-1.726,1.192l.648,7.793-2.95.241-.9-11.015Z" transform="translate(-12283.323 -2307.861)" fill="#344154"/>
          <path id="Path_113742" data-name="Path 113742" d="M12336.457,2321.07a6.573,6.573,0,0,1-.816,4.184,3.752,3.752,0,0,1-2.991,1.789,3.41,3.41,0,0,1-2.793-.942l.418,5.23-2.938.251-1.256-15.251,2.73-.23.188,1.046a3.481,3.481,0,0,1,2.688-1.506,3.723,3.723,0,0,1,3.284,1.244,6.81,6.81,0,0,1,1.475,4.059Zm-2.961,0a4.356,4.356,0,0,0-.732-2.333,1.778,1.778,0,0,0-1.653-.7,1.936,1.936,0,0,0-1.819,1.213l.377,4.509a1.955,1.955,0,0,0,2.008.931c1.329-.084,1.957-1.287,1.747-3.588Z" transform="translate(-12282.524 -2307.9)" fill="#344154"/>
          <path id="Path_113743" data-name="Path 113743" d="M12343.682,2317.6a7.088,7.088,0,0,0-1.046,0,2.156,2.156,0,0,0-2.093,1.307l.586,7.207-2.939.241-.91-11.015,2.783-.23.188,1.308a2.745,2.745,0,0,1,2.335-1.715,2.974,2.974,0,0,1,.919.052Z" transform="translate(-12282.008 -2307.943)" fill="#344154"/>
          <path id="Path_113744" data-name="Path 113744" d="M12344.2,2320.266a6.738,6.738,0,0,1,.387-2.982,4.693,4.693,0,0,1,1.664-2.092,5.228,5.228,0,0,1,2.688-.921,5.056,5.056,0,0,1,3.756,1.046,5.535,5.535,0,0,1,1.884,3.578l.072.753a5.753,5.753,0,0,1-1.047,4.184,5.5,5.5,0,0,1-7.594.628,5.851,5.851,0,0,1-1.769-4.038Zm2.96,0a4.064,4.064,0,0,0,.785,2.343,2.091,2.091,0,0,0,3.367-.261,4.486,4.486,0,0,0,.376-2.678,4.06,4.06,0,0,0-.794-2.333,1.982,1.982,0,0,0-1.757-.711,1.924,1.924,0,0,0-1.6.983,4.643,4.643,0,0,0-.408,2.583Z" transform="translate(-12281.69 -2307.964)" fill="#344154"/>
          <path id="Path_113745" data-name="Path 113745" d="M12365.873,2318.839a6.754,6.754,0,0,1-.8,4.184,3.756,3.756,0,0,1-3.033,1.748,3.453,3.453,0,0,1-2.971-1.141v1.182l-2.646.22-1.287-15.691,2.938-.241.461,5.607a3.384,3.384,0,0,1,2.583-1.412,3.757,3.757,0,0,1,3.285,1.224,6.668,6.668,0,0,1,1.484,4.069Zm-2.961,0a4.366,4.366,0,0,0-.732-2.385,1.8,1.8,0,0,0-1.643-.649,1.967,1.967,0,0,0-1.841,1.318l.355,4.341a1.987,1.987,0,0,0,2.092,1.046,1.82,1.82,0,0,0,1.758-1.559,7.394,7.394,0,0,0,.04-2.092Z" transform="translate(-12281.187 -2308.2)" fill="#344154"/>
          <path id="Path_113746" data-name="Path 113746" d="M12374.018,2323.418a2.831,2.831,0,0,1-.378-.962,3.574,3.574,0,0,1-2.687,1.423,3.977,3.977,0,0,1-2.761-.722,3.037,3.037,0,0,1-1.257-2.269,3.136,3.136,0,0,1,1.048-2.793,6.361,6.361,0,0,1,3.67-1.255l1.36-.115v-.628a1.854,1.854,0,0,0-.491-1.192,1.581,1.581,0,0,0-1.277-.356,1.754,1.754,0,0,0-1.14.45,1.22,1.22,0,0,0-.346,1.046l-2.937.24a2.93,2.93,0,0,1,.449-1.82,3.881,3.881,0,0,1,1.558-1.413,6.393,6.393,0,0,1,2.386-.669,4.845,4.845,0,0,1,3.317.763,3.547,3.547,0,0,1,1.433,2.772l.4,4.781a5.339,5.339,0,0,0,.626,2.333v.178Zm-2.6-1.841a2.518,2.518,0,0,0,1.17-.4,1.863,1.863,0,0,0,.754-.836l-.157-1.894-1.1.084q-2.209.188-2.229,1.726v.167a1.189,1.189,0,0,0,.462.878,1.5,1.5,0,0,0,1.087.272Z" transform="translate(-12280.648 -2308.051)" fill="#344154"/>
          <path id="Path_113747" data-name="Path 113747" d="M12380.121,2311.833l.2,1.266a3.853,3.853,0,0,1,3.045-1.736,3.213,3.213,0,0,1,2.689.816,4.794,4.794,0,0,1,1.131,3l.584,7.113-2.939.241-.586-7.04a1.881,1.881,0,0,0-.512-1.328,1.833,1.833,0,0,0-1.393-.314,2.092,2.092,0,0,0-1.777,1.213l.639,7.772-2.939.241-.91-11.015Z" transform="translate(-12280.163 -2308.098)" fill="#344154"/>
          <path id="Path_113748" data-name="Path 113748" d="M12391.891,2308.24l.22,2.709,1.883-.157.178,2.155-1.883.157.461,5.5a1.332,1.332,0,0,0,.3.858,1.229,1.229,0,0,0,.921.188,4.65,4.65,0,0,0,.859-.146l.178,2.228a5.909,5.909,0,0,1-1.759.418,2.813,2.813,0,0,1-3.408-2.866l-.492-5.941-1.61.136-.178-2.155,1.61-.136-.219-2.709Z" transform="translate(-12279.692 -2308.24)" fill="#344154"/>
          <path id="Path_113749" data-name="Path 113749" d="M12401.262,2321.384a5.5,5.5,0,0,1-4.069-1.162,5.3,5.3,0,0,1-1.841-3.838v-.282a6.8,6.8,0,0,1,.4-3.023,4.711,4.711,0,0,1,1.653-2.166,5.141,5.141,0,0,1,2.625-.931,4.571,4.571,0,0,1,3.673,1.14,5.734,5.734,0,0,1,1.631,3.933l.1,1.2-7.02.575a2.719,2.719,0,0,0,1.047,1.652,2.6,2.6,0,0,0,1.872.5,3.137,3.137,0,0,0,2.553-1.443l1.579,1.5a4.358,4.358,0,0,1-1.674,1.611A5.886,5.886,0,0,1,12401.262,2321.384Zm-1.046-9.027a1.831,1.831,0,0,0-1.369.712,3.065,3.065,0,0,0-.566,1.757l4.1-.335v-.241a2.247,2.247,0,0,0-.658-1.475,1.911,1.911,0,0,0-1.507-.418Z" transform="translate(-12279.335 -2308.162)" fill="#344154"/>
          <path id="Path_113750" data-name="Path 113750" d="M12315.3,2346.917a6.69,6.69,0,0,1,.826-4.184,3.735,3.735,0,0,1,3.035-1.779,3.358,3.358,0,0,1,2.751.973l-.462-5.617,2.95-.24,1.287,15.638-2.657.22-.241-1.161a3.463,3.463,0,0,1-2.708,1.611,3.787,3.787,0,0,1-3.256-1.276,6.915,6.915,0,0,1-1.525-4.184Zm2.96,0a4.383,4.383,0,0,0,.742,2.323,1.756,1.756,0,0,0,1.631.7,1.977,1.977,0,0,0,1.831-1.308l-.354-4.351a1.947,1.947,0,0,0-2-1.046c-1.464.146-2.092,1.349-1.883,3.661Z" transform="translate(-12283.024 -2306.958)" fill="#344154"/>
          <path id="Path_113751" data-name="Path 113751" d="M12332.463,2351.124a5.491,5.491,0,0,1-4.068-1.161,5.3,5.3,0,0,1-1.852-3.839v-.282a6.641,6.641,0,0,1,.4-3.023,4.645,4.645,0,0,1,1.654-2.166,5.137,5.137,0,0,1,2.625-.931,4.568,4.568,0,0,1,3.67,1.13,5.856,5.856,0,0,1,1.633,3.943l.094,1.192-7.01.586a2.638,2.638,0,0,0,1.047,1.653,2.562,2.562,0,0,0,1.861.5,3.211,3.211,0,0,0,2.564-1.443l1.578,1.5a4.582,4.582,0,0,1-1.674,1.611,6.089,6.089,0,0,1-2.521.732Zm-1.047-9.027a1.847,1.847,0,0,0-1.369.711,3.153,3.153,0,0,0-.555,1.757l4.09-.345v-.23a2.2,2.2,0,0,0-.648-1.475,1.9,1.9,0,0,0-1.518-.408Z" transform="translate(-12282.505 -2306.792)" fill="#344154"/>
          <path id="Path_113752" data-name="Path 113752" d="M12347.536,2347.491a1.924,1.924,0,0,0,1.287-.554,1.567,1.567,0,0,0,.429-1.235l2.762-.23a3.836,3.836,0,0,1-.439,2.092,4.037,4.037,0,0,1-1.527,1.579,5.131,5.131,0,0,1-2.261.711,4.78,4.78,0,0,1-3.848-1.2,5.954,5.954,0,0,1-1.717-4.038v-.188a5.937,5.937,0,0,1,1.048-4.184,4.738,4.738,0,0,1,3.6-1.821,4.677,4.677,0,0,1,3.41.9,4.183,4.183,0,0,1,1.526,3.023l-2.761.23a2.024,2.024,0,0,0-.648-1.35,1.966,1.966,0,0,0-2.877.45,4.355,4.355,0,0,0-.324,2.469v.314a4.382,4.382,0,0,0,.723,2.4A1.789,1.789,0,0,0,12347.536,2347.491Z" transform="translate(-12281.784 -2306.852)" fill="#344154"/>
          <path id="Path_113753" data-name="Path 113753" d="M12359.919,2348.658a3.286,3.286,0,0,1-.377-.962,3.57,3.57,0,0,1-2.688,1.412,3.871,3.871,0,0,1-2.751-.711,3.037,3.037,0,0,1-1.267-2.27,3.137,3.137,0,0,1,1.048-2.8,6.517,6.517,0,0,1,3.681-1.255l1.35-.1-.053-.638a1.821,1.821,0,0,0-.49-1.182,1.527,1.527,0,0,0-1.276-.356,1.777,1.777,0,0,0-1.141.45,1.2,1.2,0,0,0-.335,1.046l-2.95.241a3,3,0,0,1,.449-1.82,3.852,3.852,0,0,1,1.569-1.412,5.92,5.92,0,0,1,2.385-.669,4.821,4.821,0,0,1,3.316.764,3.6,3.6,0,0,1,1.433,2.772l.388,4.781a5.248,5.248,0,0,0,.64,2.333v.167Zm-2.6-1.852a2.439,2.439,0,0,0,1.182-.387,1.864,1.864,0,0,0,.741-.847l-.156-1.893-1.046.094c-1.465.115-2.207.69-2.218,1.716v.178a1.223,1.223,0,0,0,.461.878,1.515,1.515,0,0,0,1.024.262Z" transform="translate(-12281.3 -2306.889)" fill="#344154"/>
          <path id="Path_113754" data-name="Path 113754" d="M12366.482,2337.188l.961,11.611a4,4,0,0,1-.732,2.919,3.7,3.7,0,0,1-2.709,1.234,5.752,5.752,0,0,1-1.475-.052l-.187-2.333a4.713,4.713,0,0,0,.93,0c.889-.073,1.3-.586,1.225-1.527l-.963-11.632Zm-3.42-2.594a1.489,1.489,0,0,1,.355-1.13,1.685,1.685,0,0,1,1.172-.523,1.723,1.723,0,0,1,1.244.325,1.5,1.5,0,0,1,.535,1.045,1.469,1.469,0,0,1-.367,1.141,1.915,1.915,0,0,1-2.4.2,1.479,1.479,0,0,1-.576-1.036Z" transform="translate(-12280.854 -2307.103)" fill="#344154"/>
          <path id="Path_113755" data-name="Path 113755" d="M12375.819,2347.347a3.29,3.29,0,0,1-.378-.962,3.563,3.563,0,0,1-2.678,1.423,3.963,3.963,0,0,1-2.76-.711,3.027,3.027,0,0,1-1.255-2.28,3.144,3.144,0,0,1,1.047-2.793,6.356,6.356,0,0,1,3.669-1.255l1.351-.115-.053-.628a1.792,1.792,0,0,0-.492-1.192,1.566,1.566,0,0,0-1.273-.356,1.747,1.747,0,0,0-1.131.45,1.244,1.244,0,0,0-.346,1.046l-2.938.241a2.978,2.978,0,0,1,.438-1.821,3.985,3.985,0,0,1,1.569-1.412,6.1,6.1,0,0,1,2.386-.659,4.8,4.8,0,0,1,3.316.753,3.585,3.585,0,0,1,1.432,2.783l.4,4.77a5.241,5.241,0,0,0,.627,2.333v.177Zm-2.595-1.841a2.635,2.635,0,0,0,1.173-.387,1.946,1.946,0,0,0,.752-.847l-.157-1.894-1.1.084q-2.208.188-2.228,1.726v.167a1.171,1.171,0,0,0,.471.878,1.508,1.508,0,0,0,1.067.272Z" transform="translate(-12280.567 -2306.948)" fill="#344154"/>
        </g>
      </g>
      <path id="Path_113756" data-name="Path 113756" d="M12309.877,2365.487a9.823,9.823,0,0,1-8.933.136,12.761,12.761,0,0,1-5.556-5.712c-4.183-7.448-15.312-24.415-17.374-29.289s-6.622-18.662-11.172-24.447-7.04-14.488-7.04-14.488l-1.653-84.417c2.479,12.208,9.311,26.068,9.311,26.068a39.118,39.118,0,0,1,14.645,13.243,24.529,24.529,0,0,1,2.856,3.692c6.758,10.46,10.031,29.29,10.387,43.935.419,16.559,5.8,24.059,14.488,38.484S12315.526,2362.275,12309.877,2365.487Z" transform="translate(-12178.315 -2143.899)" fill="#ffbf9d"/>
      <path id="Path_113757" data-name="Path 113757" d="M12308.694,2363.594a10.054,10.054,0,0,1-8.934.136c4.75-1.3,10.984-3.735,9.551-7.323-2.249-5.732-8.829,2.772-12.134,0s-15.313-18.672-7.688-25.67,5.23-18.735,0-22.041-1.83-11.182-.178-23.578c1.047-7.5-2.541-24.488-5.491-36.748,6.758,10.461,10.031,29.29,10.387,43.935.419,16.559,5.795,24.059,14.487,38.485S12314.344,2360.581,12308.694,2363.594Z" transform="translate(-12177.134 -2142.006)" fill="#5ab4f9" opacity="0.4"/>
      <path id="Path_113758" data-name="Path 113758" d="M12258.2,2207.22c2.479,12.207,9.311,26.068,9.311,26.068a39.114,39.114,0,0,1,14.646,13.244c8.692,9.1,12.834,31.036,13.243,47.585s5.795,24.059,14.487,38.485,6.276,29.467,0,32.888c-4.372,2.4-10.346,1.873-14.487-5.576s-15.314-24.415-17.376-29.29-6.621-18.662-11.171-24.447-7.041-14.488-7.041-14.488" transform="translate(-12178.313 -2143.902)" fill="none" stroke="#263238" stroke-linecap="round" stroke-linejoin="round" stroke-width="1" opacity="0"/>
      <path id="Path_113759" data-name="Path 113759" d="M12283.8,2323.858s6.758-.607,9.854-3.138" transform="translate(-12177.135 -2138.674)" fill="none" stroke="#263238" stroke-linecap="round" stroke-linejoin="round" stroke-width="1" opacity="0"/>
      <path id="Path_113760" data-name="Path 113760" d="M12257.4,2289.56s-1.318,3.138,5.586,6.276" transform="translate(-12178.354 -2140.109)" fill="none" stroke="#263238" stroke-linecap="round" stroke-linejoin="round" stroke-width="1" opacity="0"/>
    </g>
    <g id="freepik--hand-2--inject-2" transform="translate(12764.395 2414.069)">
      <path id="Path_113761" data-name="Path 113761" d="M12432.755,2354.818s-3.724,45.064,1.663,56,8.086,85.62,5.669,95.014c0,0,17.344,4.373,24.206-1.841s17.417-.23,34.8-6.276,4.843-140.245,4.843-140.245l.533-48.82L12475.8,2283.1Z" transform="translate(-12381.894 -2195.126)" fill="rgba(52,65,84,0.7)" opacity="0.2"/>
      <path id="Path_113762" data-name="Path 113762" d="M12458.057,2379.784a2.345,2.345,0,0,1-.513.868c-3.7,3.5-19.51,7.4-33.087,10.2-11.245,2.333-20.921,3.912-20.921,3.912s-7.448-61.9-7.448-68.4-12.009-111.845-12.009-111.845l28.787-1.245,38.191-1.653s.229,2.814.616,7.73C12454.187,2250.722,12462.764,2367.431,12458.057,2379.784Z" transform="translate(-12384.079 -2198.419)" fill="#5ab4f9"/>
      <g id="Group_59294" data-name="Group 59294" transform="translate(0 13.201)" clip-path="url(#clip-path)">
        <g id="Group_59293" data-name="Group 59293" transform="translate(4.477 -0.001)">
          <path id="Path_113763" data-name="Path 113763" d="M12457.859,2379.6l-33.6,6.873-12.688,2.6c-3.441-3.379-6.066-3.442-6.066-3.442l-1.047-9.467-1.643-15.492-14.457-136.3c3.139-2.165,4.688-6.9,4.688-6.9l19.352-.7,33.526-1.224,5.534,3.577C12453.989,2250.541,12462.566,2367.25,12457.859,2379.6Z" transform="translate(-12388.358 -2211.438)" fill="rgba(52,65,84,0.7)" opacity="0.2"/>
          <path id="Path_113764" data-name="Path 113764" d="M12457.859,2379.6l-33.6,6.873-12.688,2.6c-3.441-3.379-6.066-3.442-6.066-3.442l-1.047-9.467-1.643-15.492-14.457-136.3c3.139-2.165,4.688-6.9,4.688-6.9l19.352-.7,33.526-1.224,5.534,3.577C12453.989,2250.541,12462.566,2367.25,12457.859,2379.6Z" transform="translate(-12388.358 -2211.438)" fill="none" stroke="#263238" stroke-linecap="round" stroke-linejoin="round" stroke-width="1" opacity="0"/>
          <path id="Path_113765" data-name="Path 113765" d="M12777.4,2546.681l11.191-.021v3.5l-3.032,1.109-7.219.784Z" transform="translate(-12758.528 -2418.643)" fill="#5ab4f9" stroke="#263238" stroke-linecap="round" stroke-linejoin="round" stroke-width="1"/>
          <path id="Path_113766" data-name="Path 113766" d="M12778.1,2553.592l8.264-.282,2.093,1-.1,4.655-9.624.1Z" transform="translate(-12758.496 -2418.336)" fill="#5ab4f9" stroke="#263238" stroke-linecap="round" stroke-linejoin="round" stroke-width="1"/>
          <path id="Path_113767" data-name="Path 113767" d="M12779.3,2560.72l9.416-.68-.105,3.525-4.5,1.611-4.812-.272Z" transform="translate(-12758.44 -2418.026)" fill="#5ab4f9" stroke="#263238" stroke-linecap="round" stroke-linejoin="round" stroke-width="1"/>
          <path id="Path_113768" data-name="Path 113768" d="M12779.938,2566.37l7.53.387.732,1.946-1.15,2.144-6.8.439-1.151-3.316Z" transform="translate(-12758.45 -2417.735)" fill="#5ab4f9" stroke="#263238" stroke-linecap="round" stroke-linejoin="round" stroke-width="1"/>
          <path id="Path_113769" data-name="Path 113769" d="M12417.681,2360.22l1.047,3.044a2.3,2.3,0,0,1,0,2.092,1.7,1.7,0,0,1-1.59.565c-.586-.052-1.162-.251-1.748-.283-1.769-.073-3.39,1.381-5.126,1.046-.681-1.883-2.4-4.645-.073-5.492C12410.568,2361.036,12417.891,2360.91,12417.681,2360.22Z" transform="translate(-12387.408 -2204.775)" fill="#5ab4f9" stroke="#263238" stroke-linecap="round" stroke-linejoin="round" stroke-width="1"/>
          <path id="Path_113770" data-name="Path 113770" d="M12417.552,2368.41a17.4,17.4,0,0,1,.355,2.2,2.836,2.836,0,0,1-.775,2.626,3.131,3.131,0,0,1-1.452.387l-6.047.544a26.465,26.465,0,0,1,0-3.431c.355-1.36.1-1.245,1.391-1.8C12413.054,2368.065,12415.459,2369.446,12417.552,2368.41Z" transform="translate(-12387.382 -2204.398)" fill="#5ab4f9" stroke="#263238" stroke-linecap="round" stroke-linejoin="round" stroke-width="1"/>
          <path id="Path_113771" data-name="Path 113771" d="M12396.2,2227s2.281,22.041,2.387,26.4" transform="translate(-12387.997 -2210.911)" fill="none" stroke="#263238" stroke-linecap="round" stroke-linejoin="round" stroke-width="1" opacity="0"/>
          <line id="Line_426" data-name="Line 426" x2="1.046" y2="12.145" transform="translate(13.119 16.277)" fill="none" stroke="#263238" stroke-linecap="round" stroke-linejoin="round" stroke-width="1" opacity="0"/>
          <path id="Path_113772" data-name="Path 113772" d="M12788.2,2435.45l1.359,14.237,1.988.188-.628-14.289Z" transform="translate(-12758.031 -2423.765)" fill="#5ab4f9" stroke="#263238" stroke-linecap="round" stroke-linejoin="round" stroke-width="1"/>
          <path id="Path_113773" data-name="Path 113773" d="M12457.28,2379.784a2.345,2.345,0,0,1-.513.868c-3.7,3.5-19.51,7.4-33.087,10.2v-9.415l-19.76-5.063-2.98-.764,1.339-14.729,5.115-56.278,4.466-87.608.188-3.724,38.233-1.653s.229,2.814.616,7.73C12453.41,2250.722,12461.987,2367.431,12457.28,2379.784Z" transform="translate(-12387.78 -2211.62)" fill="rgba(52,65,84,0.7)" opacity="0.2"/>
        </g>
      </g>
      <path id="Path_113775" data-name="Path 113775" d="M12458.057,2379.784a2.345,2.345,0,0,1-.513.868c-3.7,3.5-19.51,7.4-33.087,10.2-11.245,2.333-20.921,3.912-20.921,3.912s-7.448-61.9-7.448-68.4-12.009-111.845-12.009-111.845l28.787-1.245,38.191-1.653s.229,2.814.616,7.73C12454.187,2250.722,12462.764,2367.431,12458.057,2379.784Z" transform="translate(-12384.079 -2198.419)" fill="none" stroke="#263238" stroke-linecap="round" stroke-linejoin="round" stroke-width="1" opacity="0"/>
      <path id="Path_113776" data-name="Path 113776" d="M12475.757,2517.191c.241-2.207-3.231-33.871-3.295-37.313-.168-9.415-2.835-21.769-2.835-21.769-3.724-9.519-6.622-31.455-16.56-45.525s-9.927-30.618-11.58-44.667-1.245-12.835-.826-25.3a183.327,183.327,0,0,0-1.243-28.045c-.828-8.285-2.481-22.857,0-29.646s8.965-8.368,16.067-1.569,10,34.677,10,38.118,0,14.2,2.489,18.337c0,0,14.07-7.2,14.07-9.184s-.419-19.551,1.652-20.492l-8.274-26.779,15.691-5.576a41.337,41.337,0,0,1,7.572,9.1,49.432,49.432,0,0,1,4.429,8.88c6.619,17.564,17.258,29.813,19.454,34.866s0,45.179,0,52.638-4.812,41.843-4.687,47.627c.094,4.184,2.918,19.75,5.732,31.685,1.046,4.6,7.4,37.951,8.369,40.6Z" transform="translate(-12381.591 -2195.371)" fill="#ffbf9d"/>
      <path id="Path_113777" data-name="Path 113777" d="M12488.2,2308.344c-.1,2.249,2.583,20.179,2.583,20.179,1.862,4.467-8.306,19.7-8.306,19.7-2.2,1.234-3.139,8.892-3.139,8.892-6.883-1.527-22.647-17.375-22.647-17.375s-1.862,6.5-3.954,22.574,11.171,54.27,16.82,80.641,2.951,36.947,2.951,36.947c-.167-9.415-2.835-21.769-2.835-21.769-3.723-9.519-6.621-31.455-16.559-45.525s-9.928-30.587-11.58-44.635-1.245-12.835-.827-25.3a183.327,183.327,0,0,0-1.243-28.045c-.828-8.285-2.481-22.856,0-29.645s8.965-8.369,16.068-1.569,10,34.677,10,38.118,0,14.2,2.489,18.338c0,0,14.069-7.2,14.069-9.185s-.419-19.551,1.653-20.492l-8.274-26.779,15.69-5.575a41.34,41.34,0,0,1,7.573,9.1C12493.644,2297.025,12488.308,2306.963,12488.2,2308.344Z" transform="translate(-12381.588 -2195.369)" fill="#5ab4f9" opacity="0.4"/>
      <path id="Path_113778" data-name="Path 113778" d="M12511.205,2431.339c.69-6.276,2.751-21.193,4.059-30.5-1.6,7.322-4.184,10.952-4.184,10.952s4.456-53.349,4.895-56.6,4.938-17.877,3.284-26.936c2.2,5.042,0,45.179,0,52.638s-4.812,41.842-4.687,47.627c.094,4.184,4.582,30.848,7.4,42.784C12515.913,2462.512,12510.473,2437.647,12511.205,2431.339Z" transform="translate(-12378.229 -2193.047)" fill="#5ab4f9" opacity="0.4"/>
      <path id="Path_113779" data-name="Path 113779" d="M12532.031,2503.125c-3.306-9.519-13.923-66.53-14.048-72.283s4.687-40.179,4.687-47.627,2.2-47.6,0-52.638-12.835-17.3-19.456-34.865a45.714,45.714,0,0,0-12-17.982l-15.691,5.576,8.274,26.779c-2.092.941-1.652,18.5-1.652,20.492s-14.07,9.185-14.07,9.185c-2.489-4.184-2.489-14.9-2.489-18.338s-2.9-31.329-10-38.118-13.6-5.23-16.067,1.569-.827,21.36,0,29.645a183.737,183.737,0,0,1,1.245,28.076c-.419,12.469-.837,11.235.826,25.3s1.653,30.618,11.58,44.688,12.835,36.005,16.56,45.525c0,0,7.029,50.807,6.13,59.081" transform="translate(-12381.585 -2195.374)" fill="none" stroke="#263238" stroke-linecap="round" stroke-linejoin="round" stroke-width="1" opacity="0"/>
      <path id="Path_113780" data-name="Path 113780" d="M12466.7,2337s2.479,11.58,8.065,17.375" transform="translate(-12380.272 -2192.644)" fill="none" stroke="#263238" stroke-linecap="round" stroke-linejoin="round" stroke-width="1" opacity="0"/>
      <path id="Path_113781" data-name="Path 113781" d="M12468.1,2342.08s10.461,3.2,14.833,3.4" transform="translate(-12380.208 -2192.409)" fill="none" stroke="#263238" stroke-linecap="round" stroke-linejoin="round" stroke-width="1" opacity="0"/>
      <path id="Path_113782" data-name="Path 113782" d="M12480.1,2328.339s7.448-3.441,12.208-1.37" transform="translate(-12379.655 -2193.136)" fill="none" stroke="#263238" stroke-linecap="round" stroke-linejoin="round" stroke-width="1" opacity="0"/>
      <path id="Path_113783" data-name="Path 113783" d="M12481.7,2308.811s5.795-.533,7.029-3.431" transform="translate(-12379.583 -2194.1)" fill="none" stroke="#263238" stroke-linecap="round" stroke-linejoin="round" stroke-width="1" opacity="0"/>
      <path id="Path_113784" data-name="Path 113784" d="M12454.3,2409.47s11.129,13.819,14.435,20.848" transform="translate(-12380.845 -2189.305)" fill="none" stroke="#263238" stroke-linecap="round" stroke-linejoin="round" stroke-width="1" opacity="0"/>
      <path id="Path_113785" data-name="Path 113785" d="M12516.327,2351.66c-1.862,10.973-4.352,40.974-5.178,46.351" transform="translate(-12378.227 -2191.969)" fill="none" stroke="#263238" stroke-linecap="round" stroke-linejoin="round" stroke-width="1" opacity="0"/>
      <path id="Path_113786" data-name="Path 113786" d="M12519.592,2331.88c.313,9.938-2.093,15.1-2.093,15.1" transform="translate(-12377.933 -2192.879)" fill="none" stroke="#263238" stroke-linecap="round" stroke-linejoin="round" stroke-width="1" opacity="0"/>
      <path id="Path_113787" data-name="Path 113787" d="M12439.4,2199l76.7,20.231s-26.957,81.812-32.429,91.959l-9.143,71.32s-49-2.155-71.529-8.965c0,0,14.247-74.27,15.011-84.177S12439.4,2199,12439.4,2199Z" transform="translate(-12383.208 -2199)" fill="#5ab4f9"/>
      <g id="Group_59296" data-name="Group 59296" transform="translate(19.792)" clip-path="url(#clip-path-2)">
        <g id="Group_59295" data-name="Group 59295" transform="translate(6.633 6.747)">
          <path id="Path_113788" data-name="Path 113788" d="M12422.583,2284.626l16.9-72.272s7.323-3.609,10.084-6.9l54.95,15.628s.167,5.387,3.315,8.839l-27.73,79.908-6.726,58.9s-8.944.711-9.8,7.322c0,0-29,1.569-48.443-3.556,0,0-2.291-7.145-5.795-11.664Z" transform="translate(-12409.341 -2205.45)" fill="rgba(52,65,84,0.7)" opacity="0.2"/>
          <path id="Path_113789" data-name="Path 113789" d="M12422.583,2284.626l16.9-72.272s7.323-3.609,10.084-6.9l54.95,15.628s.167,5.387,3.315,8.839l-27.73,79.908-6.726,58.9s-8.944.711-9.8,7.322c0,0-29,1.569-48.443-3.556,0,0-2.291-7.145-5.795-11.664Z" transform="translate(-12409.341 -2205.45)" fill="none" stroke="#263238" stroke-linecap="round" stroke-linejoin="round" stroke-width="1" opacity="0"/>
          <path id="Path_113790" data-name="Path 113790" d="M12435.429,2285.428s4.989-18.829,22.564-15.45,7.646,26.58,7.646,26.58.1,18.724-14.153,16.141C12439.194,2310.46,12432.6,2303.671,12435.429,2285.428Z" transform="translate(-12408.169 -2202.496)" fill="#5ab4f9" stroke="#263238" stroke-linecap="round" stroke-linejoin="round" stroke-width="1"/>
          <path id="Path_113791" data-name="Path 113791" d="M12444.794,2218.62s-5.313,21.518-6.684,25.66" transform="translate(-12408.016 -2204.843)" fill="none" stroke="#263238" stroke-linecap="round" stroke-linejoin="round" stroke-width="1" opacity="0"/>
          <line id="Line_427" data-name="Line 427" x1="3.138" y2="11.8" transform="translate(38.243 15.639)" fill="none" stroke="#263238" stroke-linecap="round" stroke-linejoin="round" stroke-width="1" opacity="0"/>
          <path id="Path_113792" data-name="Path 113792" d="M12857.041,2440.97l10.564,3.724-1.149,3.316h-3.348l-7.009-1.653Z" transform="translate(-12776.852 -2417.057)" fill="#5ab4f9" stroke="#263238" stroke-linecap="round" stroke-linejoin="round" stroke-width="1"/>
          <path id="Path_113793" data-name="Path 113793" d="M12855.355,2447.7l7.846,2.479,1.674,1.653-1.674,4.352-9.1-3.107Z" transform="translate(-12776.943 -2416.747)" fill="#5ab4f9" stroke="#263238" stroke-linecap="round" stroke-linejoin="round" stroke-width="1"/>
          <path id="Path_113794" data-name="Path 113794" d="M12854.164,2454.82l9.1,2.51-1.256,3.285h-4.812l-4.5-1.862Z" transform="translate(-12777.007 -2416.419)" fill="#5ab4f9" stroke="#263238" stroke-linecap="round" stroke-linejoin="round" stroke-width="1"/>
          <path id="Path_113795" data-name="Path 113795" d="M12852.755,2460.36l7.009,2.9v2.061l-1.674,1.663-6.59-1.862v-3.525Z" transform="translate(-12777.063 -2416.163)" fill="#5ab4f9" stroke="#263238" stroke-linecap="round" stroke-linejoin="round" stroke-width="1"/>
          <path id="Path_113796" data-name="Path 113796" d="M12487.9,2256.7v3.222a2.308,2.308,0,0,1-.638,1.967,1.75,1.75,0,0,1-1.7,0c-.532-.251-1.045-.627-1.548-.847-1.643-.659-3.661.167-5.229-.711,0-2-.7-5.167,1.768-5.23C12480.9,2255.131,12487.9,2257.433,12487.9,2256.7Z" transform="translate(-12406.146 -2203.163)" fill="#5ab4f9" stroke="#263238" stroke-linecap="round" stroke-linejoin="round" stroke-width="1"/>
          <path id="Path_113797" data-name="Path 113797" d="M12485.112,2264.417a15.217,15.217,0,0,1-.4,2.186c-.23.931-.681,1.967-1.611,2.218a3.043,3.043,0,0,1-1.5-.126l-5.878-1.548a27.767,27.767,0,0,1,1.047-3.243c.794-1.161.522-1.14,1.914-1.234C12480.929,2262.576,12482.812,2264.7,12485.112,2264.417Z" transform="translate(-12406.282 -2202.814)" fill="#5ab4f9" stroke="#263238" stroke-linecap="round" stroke-linejoin="round" stroke-width="1"/>
          <path id="Path_113798" data-name="Path 113798" d="M12836.857,2434.45l-3.558,13.86,1.778.826,4.289-13.662Z" transform="translate(-12777.901 -2417.357)" fill="#5ab4f9" stroke="#263238" stroke-linecap="round" stroke-linejoin="round" stroke-width="1"/>
          <path id="Path_113799" data-name="Path 113799" d="M12794.522,2523.43l10.774,2.814-.837,3.389-3.242.293-7.218-1.057Z" transform="translate(-12779.712 -2413.259)" fill="#5ab4f9" stroke="#263238" stroke-linecap="round" stroke-linejoin="round" stroke-width="1"/>
          <path id="Path_113800" data-name="Path 113800" d="M12793.437,2530.28l8.054,1.8,1.779,1.506-1.256,4.477-9.414-2.322Z" transform="translate(-12779.776 -2412.943)" fill="#5ab4f9" stroke="#263238" stroke-linecap="round" stroke-linejoin="round" stroke-width="1"/>
          <path id="Path_113801" data-name="Path 113801" d="M12792.851,2537.48l9.311,1.716-1.046,3.379-4.812.418-4.6-1.475Z" transform="translate(-12779.817 -2412.611)" fill="#5ab4f9" stroke="#263238" stroke-linecap="round" stroke-linejoin="round" stroke-width="1"/>
          <path id="Path_113802" data-name="Path 113802" d="M12791.951,2543.11l7.217,2.291.209,2.061-1.568,1.8-6.7-1.3-.313-3.5Z" transform="translate(-12779.859 -2412.352)" fill="#5ab4f9" stroke="#263238" stroke-linecap="round" stroke-linejoin="round" stroke-width="1"/>
          <path id="Path_113803" data-name="Path 113803" d="M12427.8,2338.9l.282,3.211a2.31,2.31,0,0,1-.473,2.018,1.725,1.725,0,0,1-1.684.136c-.555-.2-1.046-.533-1.621-.7-1.685-.523-3.629.471-5.23-.272-.187-1.987-1.14-5.084,1.308-5.324C12420.686,2338,12427.8,2339.633,12427.8,2338.9Z" transform="translate(-12408.908 -2199.346)" fill="#5ab4f9" stroke="#263238" stroke-linecap="round" stroke-linejoin="round" stroke-width="1"/>
          <path id="Path_113804" data-name="Path 113804" d="M12425.7,2346.832a16.083,16.083,0,0,1-.209,2.27c-.158.941-.514,2.019-1.412,2.343a3.069,3.069,0,0,1-1.508,0l-5.982-1.046a28.38,28.38,0,0,1,.8-3.326c.691-1.224.42-1.182,1.8-1.391C12421.412,2345.357,12423.4,2347.313,12425.7,2346.832Z" transform="translate(-12409.007 -2198.992)" fill="#5ab4f9" stroke="#263238" stroke-linecap="round" stroke-linejoin="round" stroke-width="1"/>
          <path id="Path_113805" data-name="Path 113805" d="M12466.7,2357.835s2.49-27.762,2.49-30.555" transform="translate(-12406.698 -2199.838)" fill="none" stroke="#263238" stroke-linecap="round" stroke-linejoin="round" stroke-width="1" opacity="0"/>
          <path id="Path_113806" data-name="Path 113806" d="M12461.9,2356.046s1.046-14.436,1.234-16.946" transform="translate(-12406.92 -2199.294)" fill="none" stroke="#263238" stroke-linecap="round" stroke-linejoin="round" stroke-width="1" opacity="0"/>
          <path id="Path_113807" data-name="Path 113807" d="M12814.548,2557.99l-3.348,16.434h3.348l2.405-16.434Z" transform="translate(-12778.92 -2411.667)" fill="#5ab4f9" stroke="#263238" stroke-linecap="round" stroke-linejoin="round" stroke-width="1"/>
          <path id="Path_113808" data-name="Path 113808" d="M12483.084,2308.62c-7.26-1.517-13.734-3.745-18.525-6.956,0,0,3.473,9.979,15.785,26.989l-6.622,51.7s-31.979-1.4-56.142-5.534c7.427-20.921,20.921-60.567,19.32-68.423-2.166-10.785,5.481-23.515,5.481-23.515,24.175-4.352,47.616-22.626,63.705-38.076C12497.938,2269.068,12486.745,2301.5,12483.084,2308.62Z" transform="translate(-12408.961 -2203.637)" fill="rgba(52,65,84,0.7)" opacity="0.2"/>
        </g>
      </g>
      <path id="Path_113810" data-name="Path 113810" d="M12439.4,2199l76.7,20.231s-26.957,81.812-32.429,91.959l-9.143,71.32s-49-2.155-71.529-8.965c0,0,14.247-74.27,15.011-84.177S12439.4,2199,12439.4,2199Z" transform="translate(-12383.208 -2199)" fill="none" stroke="#263238" stroke-linecap="round" stroke-linejoin="round" stroke-width="1" opacity="0"/>
      <path id="Path_113811" data-name="Path 113811" d="M12480.254,2358.126l-10.806,78.2c-2.405-5.115-8.965-13.839-12.354-18.2-1.256-1.632-2.092-2.647-2.092-2.647l-1.915-2.95c-9.927-14.069-9.927-30.618-11.58-44.687s-1.245-12.835-.826-25.3a184.3,184.3,0,0,0-1.233-28.024c-.827-8.285-2.479-22.857,0-29.646,1.214-3.326,3.4-5.4,6.141-5.837s6.276.816,9.928,4.268c7.1,6.789,10,34.677,10,38.118s0,14.2,2.489,18.337C12468.015,2339.674,12474.709,2352.331,12480.254,2358.126Z" transform="translate(-12381.589 -2195.317)" fill="#ffbf9d"/>
      <path id="Path_113812" data-name="Path 113812" d="M12452.322,2406.953c2.26,2.887,3.8,7.05,4.822,11.172-1.255-1.632-2.092-2.646-2.092-2.646l-1.914-2.95c-9.928-14.069-9.928-30.618-11.58-44.687s-1.246-12.835-.827-25.3a184.545,184.545,0,0,0-1.233-28.023c-.827-8.285-2.479-22.857,0-29.646,1.213-3.326,3.4-5.4,6.141-5.837,5.229,1.485,10.46,6.81,12.28,15.921,3.139,15.293-11.015,2.939-14.289,15.9s1.485,16.455,3.441,19.719-.543,10.46-3.441,20.126S12446.046,2399.013,12452.322,2406.953Z" transform="translate(-12381.587 -2195.314)" fill="#5ab4f9" opacity="0.4"/>
      <path id="Path_113813" data-name="Path 113813" d="M12480.254,2358.13c-5.586-5.8-12.249-18.421-12.249-18.421-2.489-4.184-2.489-14.9-2.489-18.338s-2.9-31.329-10-38.118-13.6-5.23-16.068,1.569-.826,21.36,0,29.645a183.865,183.865,0,0,1,1.246,28.076c-.419,12.469-.837,11.235.826,25.3s1.652,30.618,11.58,44.688l1.914,2.95s11.13,13.819,14.436,20.848" transform="translate(-12381.588 -2195.321)" fill="none" stroke="#263238" stroke-linecap="round" stroke-linejoin="round" stroke-width="1" opacity="0"/>
      <path id="Path_113814" data-name="Path 113814" d="M12443.4,2323.2s9.487-4.906,14.236-4.488" transform="translate(-12381.347 -2193.487)" fill="none" stroke="#263238" stroke-linecap="round" stroke-linejoin="round" stroke-width="1" opacity="0"/>
    </g>
  </g>
</svg>
