<svg xmlns="http://www.w3.org/2000/svg" xmlns:xlink="http://www.w3.org/1999/xlink" width="113" height="113" viewBox="0 0 113 113">
  <defs>
    <filter id="Path_896985" x="0" y="0" width="113" height="113" filterUnits="userSpaceOnUse">
      <feOffset dy="3" input="SourceAlpha"/>
      <feGaussianBlur stdDeviation="3" result="blur"/>
      <feFlood flood-opacity="0.161"/>
      <feComposite operator="in" in2="blur"/>
      <feComposite in="SourceGraphic"/>
    </filter>
  </defs>
  <g id="Group_1111752" data-name="Group 1111752" transform="translate(-743.051 -8162)">
    <g id="Group_1111319" data-name="Group 1111319" transform="translate(752.051 8168)">
      <g id="Group_1109827" data-name="Group 1109827">
        <g id="Group_1098742" data-name="Group 1098742">
          <g transform="matrix(1, 0, 0, 1, -9, -6)" filter="url(#Path_896985)">
            <g id="Path_896985-2" data-name="Path 896985" transform="translate(9 6)" fill="#fd9826" opacity="0.859">
              <path d="M 47.49993515014648 93.5 C 41.28932189941406 93.5 35.26528167724609 92.28396606445312 29.59514808654785 89.88571929931641 C 24.1176815032959 87.56893920898438 19.1981086730957 84.25196838378906 14.97306823730469 80.02693176269531 C 10.74802875518799 75.80188751220703 7.431055068969727 70.88231658935547 5.11428165435791 65.40484619140625 C 2.716028451919556 59.73471450805664 1.500001788139343 53.71067428588867 1.500001788139343 47.50006103515625 C 1.500001788139343 41.2893180847168 2.716028451919556 35.26527786254883 5.11428165435791 29.59514236450195 C 7.431055068969727 24.11768913269043 10.74802875518799 19.1981029510498 14.97306823730469 14.97306251525879 C 19.1981086730957 10.74802303314209 24.1176815032959 7.431049346923828 29.59514808654785 5.114289283752441 C 35.26528167724609 2.716022968292236 41.28932189941406 1.499996185302734 47.49993515014648 1.499996185302734 C 53.71054840087891 1.499996185302734 59.73458862304688 2.716022968292236 65.40472412109375 5.114289283752441 C 70.88218688964844 7.431049346923828 75.80176544189453 10.74802303314209 80.02680206298828 14.97306251525879 C 84.25183868408203 19.1981029510498 87.56881713867188 24.11768913269043 89.88558959960938 29.59514236450195 C 92.28384399414062 35.26527786254883 93.49987030029297 41.2893180847168 93.49987030029297 47.49993133544922 C 93.49987030029297 53.71067428588867 92.28384399414062 59.73471450805664 89.88558959960938 65.40484619140625 C 87.56881713867188 70.88231658935547 84.25183868408203 75.80188751220703 80.02680206298828 80.02693176269531 C 75.80176544189453 84.25196838378906 70.88218688964844 87.56893920898438 65.40472412109375 89.88571929931641 C 59.73458862304688 92.28396606445312 53.71054840087891 93.5 47.49993515014648 93.5 Z" stroke="none"/>
              <path d="M 47.49993515014648 2.999992370605469 C 41.49116516113281 2.999992370605469 35.66371917724609 4.1761474609375 30.17947387695312 6.495796203613281 C 24.88081359863281 8.736930847167969 20.12149047851562 11.94596862792969 16.03372192382812 16.03372192382812 C 11.94596862792969 20.12149047851562 8.7369384765625 24.88081359863281 6.495796203613281 30.17947387695312 C 4.1761474609375 35.66371917724609 3 41.49116516113281 3 47.50005722045898 C 3 53.50882720947266 4.1761474609375 59.33627319335938 6.495796203613281 64.82051849365234 C 8.7369384765625 70.11917877197266 11.94596862792969 74.87850189208984 16.03372192382812 78.96627044677734 C 20.12149047851562 83.05402374267578 24.88081359863281 86.2630615234375 30.17947387695312 88.50419616699219 C 35.66371917724609 90.82384490966797 41.49116516113281 92 47.49993515014648 92 C 53.50870513916016 92 59.33615112304688 90.82384490966797 64.82039642333984 88.50419616699219 C 70.11905670166016 86.2630615234375 74.87837982177734 83.05402374267578 78.96614837646484 78.96627044677734 C 83.05390167236328 74.87850189208984 86.26293182373047 70.11917877197266 88.50407409667969 64.82051849365234 C 90.82372283935547 59.33627319335938 91.99987030029297 53.50882720947266 91.99987030029297 47.49993515014648 C 91.99987030029297 41.49116516113281 90.82372283935547 35.66371917724609 88.50407409667969 30.17947387695312 C 86.26293182373047 24.88081359863281 83.05390167236328 20.12149047851562 78.96614837646484 16.03372192382812 C 74.87837982177734 11.94596862792969 70.11905670166016 8.736930847167969 64.82039642333984 6.495796203613281 C 59.33615112304688 4.1761474609375 53.50870513916016 2.999992370605469 47.49993515014648 2.999992370605469 M 47.49993515014648 -7.62939453125e-06 C 73.73342895507812 -7.62939453125e-06 94.99987030029297 21.26644134521484 94.99987030029297 47.49993515014648 L 94.99987030029297 47.50005722045898 C 94.99987030029297 73.73355102539062 73.73342895507812 95 47.49993515014648 95 C 21.26644134521484 95 0 73.73355102539062 0 47.50005722045898 L 0 47.49993515014648 C 0 21.26644134521484 21.26644134521484 -7.62939453125e-06 47.49993515014648 -7.62939453125e-06 Z" stroke="none" fill="#fff"/>
            </g>
          </g>
          <g id="Rectangle_400907" data-name="Rectangle 400907" transform="translate(0)" fill="none" stroke="#fff" stroke-width="3">
            <rect width="95" height="95" rx="47.5" stroke="none"/>
            <rect x="1.5" y="1.5" width="92" height="92" rx="46" fill="none"/>
          </g>
        </g>
      </g>
    </g>
    <g id="Group_1111751" data-name="Group 1111751" transform="translate(770.051 8186)">
      <path id="Path_900795" data-name="Path 900795" d="M51,4V46c0,6-5,13-13,13H12a3,3,0,0,1-3-3V4a3,3,0,0,1,3-3H48A3,3,0,0,1,51,4Z" fill="#dae0d2"/>
      <path id="Path_900796" data-name="Path 900796" d="M51,46c0,6-5,13-13,13a5,5,0,0,0,5-5V52a1,1,0,0,1,1-1h2A5,5,0,0,0,51,46Z" fill="#a8aaa2"/>
      <path id="Path_900797" data-name="Path 900797" d="M46,18V46a1,1,0,0,1-1,1H39a1,1,0,0,1-1-1V41H15a1,1,0,0,1-1-1V18a1,1,0,0,1,1-1H45A1,1,0,0,1,46,18Z" fill="#bfe76e"/>
      <g id="Group_1111750" data-name="Group 1111750">
        <path id="Path_900798" data-name="Path 900798" d="M9,13a1,1,0,0,0-1,1V56a4,4,0,0,0,4,4H38a6.013,6.013,0,0,0,.633-.034A14.2,14.2,0,0,0,51.968,46.617,6,6,0,0,0,52,46V4a4,4,0,0,0-4-4H12A4,4,0,0,0,8,4v6a1,1,0,0,0,2,0V4a2,2,0,0,1,2-2H48a2,2,0,0,1,2,2V46a4,4,0,0,1-4,4H44a2,2,0,0,0-2,2v2a4,4,0,0,1-4,4H12a2,2,0,0,1-2-2V14A1,1,0,0,0,9,13ZM44,54V52h2a5.964,5.964,0,0,0,2.648-.624,12.366,12.366,0,0,1-5.3,5.331A5.953,5.953,0,0,0,44,54Z" fill="#161616"/>
        <path id="Path_900799" data-name="Path 900799" d="M13,40a2,2,0,0,0,2,2H37v4a2,2,0,0,0,2,2h6a2,2,0,0,0,2-2V18a2,2,0,0,0-2-2H15a2,2,0,0,0-2,2Zm2-4h6v4H15Zm24,0h6v4H39Zm0-2V30h6v4ZM23,34V30h6v4Zm6,2v4H23V36Zm2-6h6v4H31Zm8-2V24h6v4Zm-2,0H31V24h6Zm-6-6V18h6v4Zm-2,0H23V18h6Zm0,2v4H23V24Zm-8,4H15V24h6Zm0,2v4H15V30ZM31,40V36h6v4Zm8,6V42h6v4Zm6-24H39V18h6ZM21,18v4H15V18h6Z" fill="#161616"/>
        <path id="Path_900800" data-name="Path 900800" d="M14,8h9a1,1,0,0,0,0-2H14a1,1,0,0,0,0,2Z" fill="#161616"/>
        <path id="Path_900801" data-name="Path 900801" d="M14,13H32a1,1,0,0,0,0-2H14a1,1,0,0,0,0,2Z" fill="#161616"/>
      </g>
    </g>
  </g>
</svg>
