<svg xmlns="http://www.w3.org/2000/svg" width="400" height="462.244" viewBox="0 0 400 462.244">
  <g id="Group_1111746" data-name="Group 1111746" transform="translate(-180 -6037)">
    <g id="Group_1111554" data-name="Group 1111554">
      <rect id="Rectangle_404610" data-name="Rectangle 404610" width="312" height="460" rx="29" transform="translate(239.051 6037)" fill="#fff5ea"/>
      <g id="Group_77832" data-name="Group 77832" transform="translate(448.058 6170.976)">
        <g id="Group_72297" data-name="Group 72297">
          <g id="Group_72291" data-name="Group 72291" transform="translate(43.101 42.402)">
            <g id="Group_72290" data-name="Group 72290">
              <g id="Group_72289" data-name="Group 72289">
                <g id="Group_72288" data-name="Group 72288">
                  <g id="Group_72287" data-name="Group 72287">
                    <path id="Path_109934" data-name="Path 109934" d="M173.62,376.228a17.54,17.54,0,0,1,5.507,1.722A23.179,23.179,0,0,1,190.1,389.06a23.461,23.461,0,0,1,2.241,10.728,23.85,23.85,0,0,1-3.692,12.031,23.866,23.866,0,0,1-10.537,9.054,23.764,23.764,0,0,1-27.626-6.2,23.866,23.866,0,0,1-5.662-12.689,23.848,23.848,0,0,1,1.8-12.456,23.472,23.472,0,0,1,6.61-8.744,23.184,23.184,0,0,1,14.667-5.356,17.585,17.585,0,0,1,5.716.795c-.025.163-2.036-.407-5.7-.275a23.225,23.225,0,0,0-14.074,5.561,22.746,22.746,0,0,0-7.8,20.319,22.741,22.741,0,0,0,5.427,11.986,22.564,22.564,0,0,0,26.111,5.856,22.735,22.735,0,0,0,10.025-8.519,22.758,22.758,0,0,0,1.631-21.7,23.215,23.215,0,0,0-10.35-11.04C175.636,376.731,173.573,376.386,173.62,376.228Z" transform="translate(-144.628 -375.433)" fill="#263238"/>
                  </g>
                </g>
              </g>
            </g>
          </g>
          <g id="Group_72296" data-name="Group 72296">
            <g id="Group_72295" data-name="Group 72295">
              <g id="Group_72294" data-name="Group 72294">
                <g id="Group_72293" data-name="Group 72293">
                  <g id="Group_72292" data-name="Group 72292">
                    <path id="Path_109935" data-name="Path 109935" d="M209.53,368.243a4.785,4.785,0,0,1-.05-.816c-.015-.61-.033-1.426-.058-2.484-.032-2.277-.077-5.559-.136-9.817l.167.207-21.214-4.63.38-.185c-1.691,3.6-3.568,7.595-5.579,11.873l-.1.213-.24.01a53.078,53.078,0,0,0-13.83,2.455l-.252.08-.19-.188-9.327-9.234.59.063q-8.651,5.51-18.313,11.663l.213-.62c1.371,3.825,2.88,8.038,4.426,12.356l.113.315-.228.247a52.756,52.756,0,0,0-8.046,11.463l-.16.31-.352,0-13.119.047.58-.465c-1.484,6.657-3.085,13.836-4.725,21.194l-.341-.7c3.693,1.749,7.748,3.67,11.855,5.618l.348.163.015.385a52.945,52.945,0,0,0,2.411,13.777l.118.373-.277.278-9.257,9.306.09-.811c3.682,5.806,7.628,12.028,11.628,18.337l-.783-.27,12.364-4.4.382-.135.3.275a52.607,52.607,0,0,0,11.416,8.043l.007,0,0,0c.162.265-.356-.59.363.593v.4l0,.413,0,.826,0,1.649.007,3.29q.007,3.283.013,6.54l-.521-.65q10.74,2.411,21.189,4.758l-.743.361,5.632-11.848.172-.36.4-.015a52.571,52.571,0,0,0,13.777-2.389l.375-.118.278.277q4.713,4.7,9.294,9.267l-.79-.086q9.4-5.942,18.352-11.6l-.252.724q-2.232-6.295-4.386-12.369l-.122-.343.247-.267a52.615,52.615,0,0,0,8.081-11.431l.163-.311h.348c4.5,0,8.859-.005,13.119-.007l-.541.435c1.688-7.45,3.282-14.483,4.8-21.179l.28.575-11.838-5.657-.263-.127-.01-.288a53.025,53.025,0,0,0-2.369-13.834l-.08-.257.188-.186c3.375-3.368,6.417-6.4,9.291-9.269l-.053.49-11.541-18.393.353.122L221.175,376.6l-.125.043-.1-.088a55.2,55.2,0,0,0-8.426-6.49l-2.256-1.359a5.365,5.365,0,0,1-.743-.46,6.934,6.934,0,0,1,.8.362c.518.266,1.3.67,2.316,1.269a51.466,51.466,0,0,1,8.6,6.364l-.218-.045,12.336-4.481.223-.081.13.2,11.7,18.292.17.266-.223.225c-2.854,2.886-5.874,5.94-9.229,9.331l.108-.441a53.75,53.75,0,0,1,2.491,14.06l-.275-.415,11.866,5.6.368.173-.088.4c-1.489,6.7-3.054,13.74-4.713,21.2l-.1.433h-.446c-4.258.018-8.619.035-13.117.052l.511-.312a53.773,53.773,0,0,1-8.228,11.713l.125-.607q2.169,6.07,4.416,12.359l.165.461-.415.265-18.328,11.638-.43.273-.361-.36-9.307-9.252.65.158a53.833,53.833,0,0,1-14.117,2.465l.566-.375q-2.781,5.87-5.621,11.854l-.227.478-.516-.117-21.19-4.746-.521-.117,0-.533q0-3.256-.013-6.54l-.007-3.29-.005-1.649,0-.827v-.62l0-.1v-.09c.72,1.181.2.326.358.59l0,0,0,0a53.849,53.849,0,0,1-11.706-8.251l.676.14c-4.246,1.509-8.461,3.009-12.368,4.4l-.5.177-.285-.448c-3.995-6.312-7.935-12.539-11.613-18.348l-.28-.441.37-.371,9.267-9.294-.157.65a54.072,54.072,0,0,1-2.447-14.115l.362.55L119.2,412.728l-.45-.215.11-.483c1.658-7.355,3.275-14.53,4.776-21.184l.1-.465.476,0,13.117-.007-.51.31A53.81,53.81,0,0,1,145.091,379l-.115.56c-1.529-4.325-3.024-8.543-4.378-12.373l-.142-.4.356-.223q9.666-6.095,18.367-11.578l.323-.205.268.268c3.255,3.26,6.384,6.394,9.276,9.287l-.441-.107a53.67,53.67,0,0,1,14.064-2.4l-.338.223,5.674-11.828.118-.247.263.062c8.618,1.984,15.741,3.627,21.159,4.874l.168.038,0,.17c-.038,4.221-.068,7.475-.09,9.731-.018,1.073-.035,1.9-.045,2.517A6.548,6.548,0,0,1,209.53,368.243Z" transform="translate(-118.755 -349.98)" fill="#263238"/>
                  </g>
                </g>
              </g>
            </g>
          </g>
        </g>
      </g>
      <g id="Group_77833" data-name="Group 77833" transform="translate(180 6042)">
        <g id="Group_72297-2" data-name="Group 72297">
          <g id="Group_72291-2" data-name="Group 72291" transform="translate(43.101 42.402)">
            <g id="Group_72290-2" data-name="Group 72290">
              <g id="Group_72289-2" data-name="Group 72289">
                <g id="Group_72288-2" data-name="Group 72288">
                  <g id="Group_72287-2" data-name="Group 72287">
                    <path id="Path_109934-2" data-name="Path 109934" d="M173.62,376.228a17.54,17.54,0,0,1,5.507,1.722A23.179,23.179,0,0,1,190.1,389.06a23.461,23.461,0,0,1,2.241,10.728,23.85,23.85,0,0,1-3.692,12.031,23.866,23.866,0,0,1-10.537,9.054,23.764,23.764,0,0,1-27.626-6.2,23.866,23.866,0,0,1-5.662-12.689,23.848,23.848,0,0,1,1.8-12.456,23.472,23.472,0,0,1,6.61-8.744,23.184,23.184,0,0,1,14.667-5.356,17.585,17.585,0,0,1,5.716.795c-.025.163-2.036-.407-5.7-.275a23.225,23.225,0,0,0-14.074,5.561,22.746,22.746,0,0,0-7.8,20.319,22.741,22.741,0,0,0,5.427,11.986,22.564,22.564,0,0,0,26.111,5.856,22.735,22.735,0,0,0,10.025-8.519,22.758,22.758,0,0,0,1.631-21.7,23.215,23.215,0,0,0-10.35-11.04C175.636,376.731,173.573,376.386,173.62,376.228Z" transform="translate(-144.628 -375.433)" fill="#263238"/>
                  </g>
                </g>
              </g>
            </g>
          </g>
          <g id="Group_72296-2" data-name="Group 72296">
            <g id="Group_72295-2" data-name="Group 72295">
              <g id="Group_72294-2" data-name="Group 72294">
                <g id="Group_72293-2" data-name="Group 72293">
                  <g id="Group_72292-2" data-name="Group 72292">
                    <path id="Path_109935-2" data-name="Path 109935" d="M209.53,368.243a4.785,4.785,0,0,1-.05-.816c-.015-.61-.033-1.426-.058-2.484-.032-2.277-.077-5.559-.136-9.817l.167.207-21.214-4.63.38-.185c-1.691,3.6-3.568,7.595-5.579,11.873l-.1.213-.24.01a53.078,53.078,0,0,0-13.83,2.455l-.252.08-.19-.188-9.327-9.234.59.063q-8.651,5.51-18.313,11.663l.213-.62c1.371,3.825,2.88,8.038,4.426,12.356l.113.315-.228.247a52.756,52.756,0,0,0-8.046,11.463l-.16.31-.352,0-13.119.047.58-.465c-1.484,6.657-3.085,13.836-4.725,21.194l-.341-.7c3.693,1.749,7.748,3.67,11.855,5.618l.348.163.015.385a52.945,52.945,0,0,0,2.411,13.777l.118.373-.277.278-9.257,9.306.09-.811c3.682,5.806,7.628,12.028,11.628,18.337l-.783-.27,12.364-4.4.382-.135.3.275a52.607,52.607,0,0,0,11.416,8.043l.007,0,0,0c.162.265-.356-.59.363.593v.4l0,.413,0,.826,0,1.649.007,3.29q.007,3.283.013,6.54l-.521-.65q10.74,2.411,21.189,4.758l-.743.361,5.632-11.848.172-.36.4-.015a52.571,52.571,0,0,0,13.777-2.389l.375-.118.278.277q4.713,4.7,9.294,9.267l-.79-.086q9.4-5.942,18.352-11.6l-.252.724q-2.232-6.295-4.386-12.369l-.122-.343.247-.267a52.615,52.615,0,0,0,8.081-11.431l.163-.311h.348c4.5,0,8.859-.005,13.119-.007l-.541.435c1.688-7.45,3.282-14.483,4.8-21.179l.28.575-11.838-5.657-.263-.127-.01-.288a53.025,53.025,0,0,0-2.369-13.834l-.08-.257.188-.186c3.375-3.368,6.417-6.4,9.291-9.269l-.053.49-11.541-18.393.353.122L221.175,376.6l-.125.043-.1-.088a55.2,55.2,0,0,0-8.426-6.49l-2.256-1.359a5.365,5.365,0,0,1-.743-.46,6.934,6.934,0,0,1,.8.362c.518.266,1.3.67,2.316,1.269a51.466,51.466,0,0,1,8.6,6.364l-.218-.045,12.336-4.481.223-.081.13.2,11.7,18.292.17.266-.223.225c-2.854,2.886-5.874,5.94-9.229,9.331l.108-.441a53.75,53.75,0,0,1,2.491,14.06l-.275-.415,11.866,5.6.368.173-.088.4c-1.489,6.7-3.054,13.74-4.713,21.2l-.1.433h-.446c-4.258.018-8.619.035-13.117.052l.511-.312a53.773,53.773,0,0,1-8.228,11.713l.125-.607q2.169,6.07,4.416,12.359l.165.461-.415.265-18.328,11.638-.43.273-.361-.36-9.307-9.252.65.158a53.833,53.833,0,0,1-14.117,2.465l.566-.375q-2.781,5.87-5.621,11.854l-.227.478-.516-.117-21.19-4.746-.521-.117,0-.533q0-3.256-.013-6.54l-.007-3.29-.005-1.649,0-.827v-.62l0-.1v-.09c.72,1.181.2.326.358.59l0,0,0,0a53.849,53.849,0,0,1-11.706-8.251l.676.14c-4.246,1.509-8.461,3.009-12.368,4.4l-.5.177-.285-.448c-3.995-6.312-7.935-12.539-11.613-18.348l-.28-.441.37-.371,9.267-9.294-.157.65a54.072,54.072,0,0,1-2.447-14.115l.362.55L119.2,412.728l-.45-.215.11-.483c1.658-7.355,3.275-14.53,4.776-21.184l.1-.465.476,0,13.117-.007-.51.31A53.81,53.81,0,0,1,145.091,379l-.115.56c-1.529-4.325-3.024-8.543-4.378-12.373l-.142-.4.356-.223q9.666-6.095,18.367-11.578l.323-.205.268.268c3.255,3.26,6.384,6.394,9.276,9.287l-.441-.107a53.67,53.67,0,0,1,14.064-2.4l-.338.223,5.674-11.828.118-.247.263.062c8.618,1.984,15.741,3.627,21.159,4.874l.168.038,0,.17c-.038,4.221-.068,7.475-.09,9.731-.018,1.073-.035,1.9-.045,2.517A6.548,6.548,0,0,1,209.53,368.243Z" transform="translate(-118.755 -349.98)" fill="#263238"/>
                  </g>
                </g>
              </g>
            </g>
          </g>
        </g>
      </g>
    </g>
    <g id="Group_1111745" data-name="Group 1111745" transform="translate(4730.157 11557.71)">
      <path id="Path_113372" data-name="Path 113372" d="M11830.52,4510.841h-183.044a12.822,12.822,0,0,1-12.959-14.03l22.433-294.1a15.436,15.436,0,0,1,15.112-14.03h183.158a12.834,12.834,0,0,1,13,12.677v1.354l-22.432,294.1A15.472,15.472,0,0,1,11830.52,4510.841Z" transform="translate(-16046.392 -9692.344)" fill="#5ab4f9"/>
      <path id="Path_113373" data-name="Path 113373" d="M11830.52,4510.841h-183.044a12.822,12.822,0,0,1-12.959-14.03l22.433-294.1a15.436,15.436,0,0,1,15.112-14.03h183.158a12.834,12.834,0,0,1,13,12.677v1.354l-22.432,294.1A15.472,15.472,0,0,1,11830.52,4510.841Z" transform="translate(-16046.392 -9692.344)" fill="#ffbf9d" opacity="0.5"/>
      <path id="Path_113374" data-name="Path 113374" d="M11828.134,4510.841h-183.168a12.822,12.822,0,0,1-12.958-14.03l22.442-294.1a15.452,15.452,0,0,1,15.124-14.03h183.159a12.833,12.833,0,0,1,13,12.677v1.354l-22.432,294.1a15.451,15.451,0,0,1-15.169,14.03Z" transform="translate(-16046.712 -9692.344)" fill="#5ab4f9"/>
      <path id="Path_113375" data-name="Path 113375" d="M11828.134,4510.841h-183.168a12.822,12.822,0,0,1-12.958-14.03l22.442-294.1a15.452,15.452,0,0,1,15.124-14.03h183.159a12.833,12.833,0,0,1,13,12.677v1.354l-22.432,294.1a15.451,15.451,0,0,1-15.169,14.03Z" transform="translate(-16046.712 -9692.344)" fill="#ffbf9d" opacity="0.7"/>
      <path id="Path_113376" data-name="Path 113376" d="M11644.786,4505.188a8.561,8.561,0,0,1-8.687-8.425,9.128,9.128,0,0,1,0-.925l22.138-290.2a10.275,10.275,0,0,1,10.07-9.35h183.159a8.535,8.535,0,0,1,8.673,8.413v.936l-22.139,290.2a10.285,10.285,0,0,1-10.062,9.35Z" transform="translate(-16046.183 -9691.371)" fill="#344154"/>
      <path id="Path_113377" data-name="Path 113377" d="M11820.538,4240.826h-131.075a5.077,5.077,0,0,1-5.143-5.007,5.008,5.008,0,0,1,0-.542h0a6.1,6.1,0,0,1,5.966-5.538h131.076a5.064,5.064,0,0,1,5.141,4.985c0,.18,0,.361,0,.553h0A6.1,6.1,0,0,1,11820.538,4240.826Z" transform="translate(-16040.02 -9687.095)" fill="#5ab4f9" opacity="0.2"/>
      <path id="Path_113378" data-name="Path 113378" d="M11758.045,4194.059h-21.17a1.264,1.264,0,0,1-1.275-1.241.515.515,0,0,1,0-.123h0a1.488,1.488,0,0,1,1.466-1.364h21.181a1.242,1.242,0,0,1,1.252,1.241v.124h0A1.486,1.486,0,0,1,11758.045,4194.059Z" transform="translate(-16033.464 -9692.004)" fill="#5ab4f9" opacity="0.3"/>
      <path id="Path_113379" data-name="Path 113379" d="M11689.905,4236.389a13.975,13.975,0,0,0-14.166-15.338h133.083a13.993,13.993,0,0,1,14.222,13.782,14.521,14.521,0,0,1,0,1.557Z" transform="translate(-16041.114 -9688.206)" fill="#6595bf"/>
      <path id="Path_113380" data-name="Path 113380" d="M11681.089,4221.05a16.826,16.826,0,0,0-16.522,15.338l-13.635,178.726a16.837,16.837,0,0,1-16.511,15.338H11767.5a16.917,16.917,0,0,0,16.522-15.338l13.636-178.726a16.841,16.841,0,0,1,16.511-15.338Z" transform="translate(-16046.396 -9688.205)" fill="#fed6a8"/>
      <path id="Path_113381" data-name="Path 113381" d="M11754.989,4393.12a13.986,13.986,0,0,0,12.609,15.271,14.279,14.279,0,0,0,1.557.067h-133.083a13.961,13.961,0,0,1-14.164-15.338Z" transform="translate(-16048.003 -9666.212)" fill="#6595bf"/>
      <path id="Path_113382" data-name="Path 113382" d="M11671.714,4391.338c.508-6.53-1.546-11.808-8.064-11.808h102.474c6.519,0,11.425,5.966,8.075,11.808Z" transform="translate(-16042.66 -9667.949)" fill="#aed3f2"/>
      <path id="Path_113383" data-name="Path 113383" d="M11754.982,4394.862a16.828,16.828,0,0,1,16.512-15.372h-133.082a16.839,16.839,0,0,0-16.512,15.339Z" transform="translate(-16047.996 -9667.954)" fill="#6595bf"/>
      <path id="Path_113384" data-name="Path 113384" d="M11813.437,4433.322h-152.762a3.7,3.7,0,0,1-3.744-3.642c0-.125,0-.26,0-.383h0a4.409,4.409,0,0,1,4.331-4.026h152.773a3.687,3.687,0,0,1,3.721,3.643c0,.124,0,.259,0,.384h0a4.444,4.444,0,0,1-4.317,4.025Z" transform="translate(-16043.52 -9662.103)" fill="#ffbf9d"/>
      <path id="Path_113385" data-name="Path 113385" d="M11736.461,4450.482h-77.1a3.688,3.688,0,0,1-3.745-3.62c0-.136,0-.271,0-.406h0a4.409,4.409,0,0,1,4.33-4.026h77.1a3.679,3.679,0,0,1,3.733,3.632v.395h0A4.443,4.443,0,0,1,11736.461,4450.482Z" transform="translate(-16043.687 -9659.909)" fill="#ffbf9d"/>
      <path id="Path_113386" data-name="Path 113386" d="M11778.563,4450.482h-31.229a3.689,3.689,0,0,1-3.745-3.62v-.406h0a4.409,4.409,0,0,1,4.331-4.026h31.23a3.687,3.687,0,0,1,3.732,3.655v.372h0a4.444,4.444,0,0,1-4.317,4.026Z" transform="translate(-16032.442 -9659.909)" fill="#ffbf9d"/>
      <path id="Path_113387" data-name="Path 113387" d="M11805.293,4382.767l-7.973,1.252a7.7,7.7,0,0,0-.915-2.087,4.505,4.505,0,0,0-1.475-1.184l-.474,6.124q6.3,1.726,8.322,3.632a7.768,7.768,0,0,1,2.358,6.5,9.313,9.313,0,0,1-1.355,4.24,11.527,11.527,0,0,1-2.863,3.214,11.76,11.76,0,0,1-3.542,1.884,18,18,0,0,1-4.511.688l-.3,3.992h-2.978l.3-3.993a19.084,19.084,0,0,1-4.974-1,9.369,9.369,0,0,1-3.226-2.03,8.7,8.7,0,0,1-1.951-2.785,12.052,12.052,0,0,1-.869-3.609l8.628-.992a7.518,7.518,0,0,0,.791,3.034,4.693,4.693,0,0,0,2.008,1.646l.563-7.478a37.45,37.45,0,0,1-5.908-2.053,7.291,7.291,0,0,1-2.889-2.786,7.638,7.638,0,0,1-.946-4.68,9,9,0,0,1,3.113-6.294,12.664,12.664,0,0,1,8.052-2.808l.157-2.1h3.091l-.157,2.1a12.116,12.116,0,0,1,7.082,2.256A8.283,8.283,0,0,1,11805.293,4382.767Zm-13.453-2.12a4.289,4.289,0,0,0-1.964,1.127,2.486,2.486,0,0,0-.654,1.558,2.374,2.374,0,0,0,.419,1.623,3.587,3.587,0,0,0,1.781,1.128Zm1.5,20.854a5.4,5.4,0,0,0,2.739-1.331,3.392,3.392,0,0,0,.993-2.064,2.581,2.581,0,0,0-.564-1.838,5.632,5.632,0,0,0-2.649-1.556Z" transform="translate(-16027.932 -9668.772)" fill="#ffbf9d"/>
      <path id="Path_113388" data-name="Path 113388" d="M12148.162,4503.035H12038.2l.226-3.045h109.962Z" transform="translate(-16413.207 -9892.394)" fill="#5ab4f9"/>
      <g id="Group_59279" data-name="Group 59279" transform="translate(-4379.969 -5389.359)">
        <path id="Path_113389" data-name="Path 113389" d="M12069.3,4502.69h-31.015l-.789,9.35h31.126Z" transform="translate(-12033.326 -4502.69)" fill="#6595bf"/>
        <path id="Path_113390" data-name="Path 113390" d="M12068.1,4519.26h-31.128l-.678,9.338h31.016Z" transform="translate(-12033.479 -4500.572)" fill="#6595bf"/>
        <path id="Path_113391" data-name="Path 113391" d="M12066.8,4535.82h-31.014l-.79,9.35h31.015Z" transform="translate(-12033.646 -4498.455)" fill="#6595bf"/>
        <path id="Path_113392" data-name="Path 113392" d="M12065.491,4552.39h-31.015l-.678,9.338h31.015Z" transform="translate(-12033.799 -4496.337)" fill="#6595bf"/>
        <path id="Path_113393" data-name="Path 113393" d="M12037.5,4512.04h31.126l.678-9.35h-31.015" transform="translate(-12033.326 -4502.69)" fill="#6595bf"/>
        <path id="Path_113394" data-name="Path 113394" d="M12036.3,4528.6h31.016l.79-9.338h-31.128" transform="translate(-12033.479 -4500.572)" fill="#6595bf"/>
        <path id="Path_113395" data-name="Path 113395" d="M12035,4545.169h31.015l.789-9.35h-31.014" transform="translate(-12033.646 -4498.455)" fill="#6595bf"/>
        <path id="Path_113396" data-name="Path 113396" d="M12033.8,4561.728h31.015l.678-9.338h-31.015" transform="translate(-12033.799 -4496.337)" fill="#6595bf"/>
        <path id="Path_113397" data-name="Path 113397" d="M12071.8,4512.04h31.016l.789-9.35h-31.015" transform="translate(-12028.943 -4502.69)" fill="#6595bf"/>
        <path id="Path_113398" data-name="Path 113398" d="M12070.5,4528.6h31.127l.678-9.338h-31.015" transform="translate(-12029.109 -4500.572)" fill="#6595bf"/>
        <path id="Path_113399" data-name="Path 113399" d="M12069.3,4545.169h31.015l.79-9.35h-31.128" transform="translate(-12029.263 -4498.455)" fill="#6595bf"/>
        <path id="Path_113400" data-name="Path 113400" d="M12068,4561.728h31.127l.678-9.338h-31.016" transform="translate(-12029.429 -4496.337)" fill="#6595bf"/>
        <path id="Path_113401" data-name="Path 113401" d="M12071.8,4512.04h31.016l.789-9.35h-31.015" transform="translate(-12028.943 -4502.69)" fill="#6595bf"/>
        <path id="Path_113402" data-name="Path 113402" d="M12070.5,4528.6h31.127l.678-9.338h-31.015" transform="translate(-12029.109 -4500.572)" fill="#6595bf"/>
        <path id="Path_113403" data-name="Path 113403" d="M12069.3,4545.169h31.015l.79-9.35h-31.128" transform="translate(-12029.263 -4498.455)" fill="#6595bf"/>
        <path id="Path_113404" data-name="Path 113404" d="M12068,4561.728h31.127l.678-9.338h-31.016" transform="translate(-12029.429 -4496.337)" fill="#6595bf"/>
        <path id="Path_113405" data-name="Path 113405" d="M12107.4,4512.04h31.014l.789-9.35h-31.127" transform="translate(-12024.393 -4502.69)" fill="#8a8a8a"/>
        <path id="Path_113406" data-name="Path 113406" d="M12106.1,4528.6h31.129l.676-9.338h-31.016" transform="translate(-12024.559 -4500.572)" fill="#8a8a8a"/>
        <path id="Path_113407" data-name="Path 113407" d="M12104.9,4545.169h31.015l.678-9.35h-31.016" transform="translate(-12024.711 -4498.455)" fill="#8a8a8a"/>
        <path id="Path_113408" data-name="Path 113408" d="M12103.6,4561.728h31.016l.789-9.338h-31.128" transform="translate(-12024.878 -4496.337)" fill="#8a8a8a"/>
      </g>
      <path id="Path_113409" data-name="Path 113409" d="M12142.976,4572.006H12032.9l.225-3.056H12143.2Z" transform="translate(-16413.883 -9883.579)" fill="#5ab4f9"/>
      <path id="Path_113410" data-name="Path 113410" d="M12119.415,4452.22h22.894l-1.127,13.635H12118.4Z" transform="translate(-16402.955 -9898.5)" fill="#6595bf"/>
      <g id="Group_59280" data-name="Group 59280" transform="translate(-4368.442 -5421.787)">
        <path id="Path_113411" data-name="Path 113411" d="M11680.1,4267.513h-4.331l-.3,2.933h5.086l-.191,1.815h-7.343l1.128-10.951h7.32l-.191,1.827h-5.064l-.281,2.605h4.341Z" transform="translate(-11673.02 -4261.272)" fill="#a66d58"/>
        <path id="Path_113412" data-name="Path 113412" d="M11684.4,4266.276l1.623-2.437h2.322l-2.728,3.992,1.973,4.151h-2.321l-1.129-2.561-1.714,2.561H11680l2.854-4.151-1.9-3.992h2.336Z" transform="translate(-11672.128 -4260.949)" fill="#a66d58"/>
        <path id="Path_113413" data-name="Path 113413" d="M11691.216,4262l-.2,2h1.389l-.17,1.6h-1.388l-.428,4.061a.883.883,0,0,0,.111.643c.1.135.3.191.632.191a3.864,3.864,0,0,0,.655,0l-.183,1.646a4.87,4.87,0,0,1-1.329.191c-1.523,0-2.257-.767-2.1-2.255l.463-4.376h-1.128l.17-1.6h1.185l.215-2Z" transform="translate(-11671.164 -4261.184)" fill="#a66d58"/>
        <path id="Path_113414" data-name="Path 113414" d="M11697.39,4265.853a4.931,4.931,0,0,0-.778,0,1.776,1.776,0,0,0-1.7.834l-.552,5.324h-2.176l.846-8.143h2.064v.97a2.257,2.257,0,0,1,1.928-1.128,2.1,2.1,0,0,1,.665.1Z" transform="translate(-11670.571 -4260.965)" fill="#a66d58"/>
        <path id="Path_113415" data-name="Path 113415" d="M11701.646,4271.939a2.157,2.157,0,0,1-.136-.732,2.929,2.929,0,0,1-2.154.879,2.618,2.618,0,0,1-1.906-.687,2.009,2.009,0,0,1-.6-1.749,2.593,2.593,0,0,1,1.129-1.984,5.043,5.043,0,0,1,2.841-.7h1v-.462a1.214,1.214,0,0,0-.191-.9,1.026,1.026,0,0,0-.881-.338,1.4,1.4,0,0,0-.89.26,1.029,1.029,0,0,0-.384.722h-2.177a2.518,2.518,0,0,1,.575-1.309,3.392,3.392,0,0,1,1.331-.948,4.844,4.844,0,0,1,1.826-.338,3.252,3.252,0,0,1,2.257.756,2.44,2.44,0,0,1,.665,2.12l-.372,3.53a3.745,3.745,0,0,0,.136,1.759v.124Zm-1.637-1.511a2.158,2.158,0,0,0,.915-.214,1.7,1.7,0,0,0,.651-.575l.147-1.4h-.812c-1.127,0-1.7.372-1.849,1.127v.125a.764.764,0,0,0,.214.666,1.007,1.007,0,0,0,.791.293Z" transform="translate(-11669.977 -4260.973)" fill="#a66d58"/>
        <path id="Path_113416" data-name="Path 113416" d="M11707.8,4270.362a1.528,1.528,0,0,0,1.014-.337,1.271,1.271,0,0,0,.486-.88h2.041a3.213,3.213,0,0,1-.611,1.522,3.522,3.522,0,0,1-1.33,1.072,4.1,4.1,0,0,1-1.746.372,3.171,3.171,0,0,1-2.629-1.129,4.048,4.048,0,0,1-.687-3.067v-.146a4.848,4.848,0,0,1,1.32-3,3.855,3.855,0,0,1,2.854-1.128,3.118,3.118,0,0,1,2.357.869,2.778,2.778,0,0,1,.7,2.312h-1.965a1.391,1.391,0,0,0-.281-1.037,1.193,1.193,0,0,0-.947-.4,1.484,1.484,0,0,0-1.205.553,3.541,3.541,0,0,0-.576,1.8v.225a3.076,3.076,0,0,0,.191,1.805A1.126,1.126,0,0,0,11707.8,4270.362Z" transform="translate(-11669.026 -4260.975)" fill="#a66d58"/>
        <path id="Path_113417" data-name="Path 113417" d="M11715.119,4262l-.216,2h1.388l-.157,1.6h-1.4l-.428,4.061a.937.937,0,0,0,.112.643c.1.135.315.191.644.191a3.716,3.716,0,0,0,.643,0l-.169,1.646a4.957,4.957,0,0,1-1.343.192c-1.522,0-2.256-.768-2.086-2.256l.451-4.376h-1.128l.17-1.6h1.184l.215-2Z" transform="translate(-11668.111 -4261.184)" fill="#a66d58"/>
        <path id="Path_113418" data-name="Path 113418" d="M11715.9,4267.81a5.2,5.2,0,0,1,.688-2.155,3.986,3.986,0,0,1,1.5-1.466,4.144,4.144,0,0,1,2.086-.518,3.386,3.386,0,0,1,2.582,1,3.729,3.729,0,0,1,.881,2.741v.553a4.744,4.744,0,0,1-1.367,3.011,4.009,4.009,0,0,1-2.92,1.128,3.293,3.293,0,0,1-2.693-1.128,3.99,3.99,0,0,1-.721-3.068Zm2.154.158a2.857,2.857,0,0,0,.246,1.771,1.275,1.275,0,0,0,1.131.62,1.614,1.614,0,0,0,1.3-.61,3.713,3.713,0,0,0,.654-1.94,2.853,2.853,0,0,0-.26-1.759,1.309,1.309,0,0,0-1.129-.631,1.619,1.619,0,0,0-1.307.62,3.753,3.753,0,0,0-.645,1.93Z" transform="translate(-11667.543 -4260.971)" fill="#a66d58"/>
        <path id="Path_113419" data-name="Path 113419" d="M11727.1,4272.243l1.128-10.951h3.835a4.6,4.6,0,0,1,2.944.767,2.357,2.357,0,0,1,.8,2.256,2.705,2.705,0,0,1-1.815,2.312,2.012,2.012,0,0,1,1.24.857,2.35,2.35,0,0,1,.326,1.556,3.275,3.275,0,0,1-1.264,2.4,4.919,4.919,0,0,1-2.954.824Zm2.921-6.361h1.67c1.127,0,1.759-.473,1.849-1.365a1.124,1.124,0,0,0-.315-1.072,2.13,2.13,0,0,0-1.329-.326h-1.581Zm-.157,1.591-.316,2.954h1.939a1.947,1.947,0,0,0,1.274-.383,1.436,1.436,0,0,0,.564-1.049c.1-.993-.361-1.511-1.4-1.522Z" transform="translate(-11666.107 -4261.276)" fill="#a66d58"/>
        <path id="Path_113420" data-name="Path 113420" d="M11740.346,4271.939a2.111,2.111,0,0,1-.136-.732,2.928,2.928,0,0,1-2.142.879,2.633,2.633,0,0,1-1.921-.687,2.006,2.006,0,0,1-.6-1.748,2.588,2.588,0,0,1,1.129-1.985,5.048,5.048,0,0,1,2.853-.7h.992v-.462a1.251,1.251,0,0,0-.2-.9,1.025,1.025,0,0,0-.879-.339,1.366,1.366,0,0,0-.879.259.994.994,0,0,0-.4.723h-2.177a2.535,2.535,0,0,1,.576-1.309,3.405,3.405,0,0,1,1.331-.947,4.878,4.878,0,0,1,1.827-.338,3.249,3.249,0,0,1,2.256.756,2.4,2.4,0,0,1,.664,2.12l-.373,3.53a3.772,3.772,0,0,0,.136,1.76v.123Zm-1.636-1.511a2.149,2.149,0,0,0,.912-.214,1.64,1.64,0,0,0,.655-.575l.146-1.4h-.811c-1.129,0-1.7.372-1.851,1.127v.125a.764.764,0,0,0,.215.666,1,1,0,0,0,.79.293Z" transform="translate(-11665.03 -4260.973)" fill="#a66d58"/>
        <path id="Path_113421" data-name="Path 113421" d="M11745.826,4263.822v.947a3.137,3.137,0,0,1,2.445-1.127,2.126,2.126,0,0,1,1.85.756,3.256,3.256,0,0,1,.407,2.256l-.553,5.255h-2.165l.542-5.21a1.325,1.325,0,0,0-.192-1,1.264,1.264,0,0,0-.97-.3,1.692,1.692,0,0,0-1.455.778l-.609,5.74h-2.176l.856-8.143Z" transform="translate(-11664.082 -4260.977)" fill="#a66d58"/>
        <path id="Path_113422" data-name="Path 113422" d="M11754.2,4270.362a1.537,1.537,0,0,0,1.016-.337,1.268,1.268,0,0,0,.484-.879h2.041a3.213,3.213,0,0,1-.611,1.522,3.531,3.531,0,0,1-1.328,1.072,4.124,4.124,0,0,1-1.736.372,3.179,3.179,0,0,1-2.641-1.127,4.057,4.057,0,0,1-.686-3.068l0-.147a4.857,4.857,0,0,1,1.318-3,3.868,3.868,0,0,1,2.865-1.127,3.145,3.145,0,0,1,2.355.868,2.791,2.791,0,0,1,.691,2.312h-2.041a1.392,1.392,0,0,0-.283-1.037,1.125,1.125,0,0,0-.947-.4,1.487,1.487,0,0,0-1.205.553,3.555,3.555,0,0,0-.576,1.8v.226a3.076,3.076,0,0,0,.191,1.805,1.129,1.129,0,0,0,1.094.586Z" transform="translate(-11663.095 -4260.975)" fill="#a66d58"/>
        <path id="Path_113423" data-name="Path 113423" d="M11757.8,4267.81a5.246,5.246,0,0,1,.7-2.154,3.941,3.941,0,0,1,1.49-1.466,4.215,4.215,0,0,1,2.1-.519,3.385,3.385,0,0,1,2.581,1,3.679,3.679,0,0,1,.868,2.742v.552a4.682,4.682,0,0,1-1.354,3.012,4.034,4.034,0,0,1-2.931,1.127,3.257,3.257,0,0,1-2.684-1.128,3.99,3.99,0,0,1-.735-3.068Zm2.165.158a2.783,2.783,0,0,0,.248,1.771,1.278,1.278,0,0,0,1.184.62,1.625,1.625,0,0,0,1.3-.609,3.59,3.59,0,0,0,.643-1.939,2.849,2.849,0,0,0-.26-1.761,1.266,1.266,0,0,0-1.183-.631,1.624,1.624,0,0,0-1.3.62,3.677,3.677,0,0,0-.54,1.93Z" transform="translate(-11662.186 -4260.971)" fill="#a66d58"/>
      </g>
    </g>
    <g id="freepik--Character--inject-1" transform="translate(-11641.953 1725.091)">
      <path id="Path_113424" data-name="Path 113424" d="M11550.443,4316.5l4.116,1.648a9.25,9.25,0,0,1,3.82,2.864l1.888,2.389a4.186,4.186,0,0,1-.137,5.354l-2,2.274a4.209,4.209,0,0,1-5.924.387h0l-1.933-1.706s-5.912-4.149-7.652-9.642l1.137-1.137a7.825,7.825,0,0,1,6.685-2.433Z" transform="translate(376.67 226.742)" fill="#ffb573"/>
      <path id="Path_113425" data-name="Path 113425" d="M11563.742,4283.183l-1.341.886-1.489,1.023c-.989.705-1.989,1.432-2.955,2.172-1.944,1.512-3.832,3.07-5.583,4.729a45.9,45.9,0,0,0-8.8,10.711c-.285.477-.535.954-.773,1.443l-.182.364a2.309,2.309,0,0,1,.113-.466,1.637,1.637,0,0,0,0-.569c-.1-.33-.111.523.149,1.365a34.813,34.813,0,0,0,2.719,6.3c2.34,4.479,5.273,9.1,8.048,13.644l.067.125a4,4,0,0,1-5.878,5.23,75.476,75.476,0,0,1-6.493-5.684,78.145,78.145,0,0,1-5.934-6.47,39.315,39.315,0,0,1-5.218-8.106,20.73,20.73,0,0,1-1.069-2.8,13.635,13.635,0,0,1-.592-3.833,11.335,11.335,0,0,1,.718-4.058l.216-.58c.284-.784.6-1.546.933-2.274a52.857,52.857,0,0,1,10.847-15.565,68.014,68.014,0,0,1,6.82-6.105c1.206-.932,2.423-1.842,3.686-2.695.636-.432,1.273-.864,1.933-1.273l1.012-.614,1.137-.659a7.959,7.959,0,0,1,8.37,13.507Z" transform="translate(374.74 220.172)" fill="#ffb573"/>
      <path id="Path_113426" data-name="Path 113426" d="M11562.4,4265.54c-6.64,0-13.916,2.877-23.24,14.439,0,6.9,14.564,16.077,14.564,16.077S11577.522,4265.483,11562.4,4265.54Z" transform="translate(376.197 219.771)" fill="#5ab4f9"/>
      <path id="Path_113427" data-name="Path 113427" d="M11516.574,4506.7a1.727,1.727,0,0,1-.352-.058c-1.376-.488-2.671-3.989-2.751-5.945a.282.282,0,0,1,.171-.295.329.329,0,0,1,.352,0c.147.125,3.57,2.934,3.729,4.821a1.342,1.342,0,0,1-.307,1.023A1.135,1.135,0,0,1,11516.574,4506.7Zm-2.376-5.241c.307,1.854,1.365,4.264,2.274,4.548a.431.431,0,0,0,.487-.182.749.749,0,0,0,.16-.546c-.126-1.138-1.808-2.82-2.923-3.82Z" transform="translate(372.678 251.93)" fill="#344154"/>
      <path id="Path_113428" data-name="Path 113428" d="M11518.732,4502.587a11.085,11.085,0,0,1-5.1-1.569.322.322,0,0,1,.1-.58c.182,0,4.468-1.137,6.082-.182a1.306,1.306,0,0,1,.648.854,1.058,1.058,0,0,1-.407,1.137,2.461,2.461,0,0,1-1.32.34Zm-4.06-1.717c1.671.842,4.253,1.41,5.015.887.113-.079.216-.193.147-.5a.657.657,0,0,0-.353-.455C11518.539,4500.223,11516.14,4500.574,11514.673,4500.87Z" transform="translate(372.68 251.866)" fill="#344154"/>
      <path id="Path_113429" data-name="Path 113429" d="M11503.358,4501.451a53.891,53.891,0,0,0,8.481-12.04s10.552,2.592,8.482,5.685c-3.764,5.515-5.594,16.85-.751,22.921,2.763,3.468-1.6,4.048-4.548,2.558-4.548-2.353-4.4-3.24-6.821-7.14-2.047-3.332-2.854-4.639-5.686-6.071C11500.175,4506.1,11501.313,4503.781,11503.358,4501.451Z" transform="translate(371 250.433)" fill="#5ab4f9"/>
      <path id="Path_113430" data-name="Path 113430" d="M11591.853,4325.82s-15.281,74.584-26.491,106.5c-11.756,33.449-44.216,85.079-45.479,87.3-4.615-1.239-8.731-2.854-11.472-5.525,0,0,15.235-56,30.084-92.322,5.685-75.836,18.065-95.892,18.065-95.892Z" transform="translate(371.985 228.027)" fill="#344154"/>
      <path id="Path_113431" data-name="Path 113431" d="M11561.4,4360.955c-.694,14.428-1.138,34.268-.489,58.417,4.674-15.054,9.756-35.462,14.03-53.778C11572.085,4361.785,11567.65,4359.909,11561.4,4360.955Z" transform="translate(379.132 232.8)" fill="#5ab4f9" opacity="0.2"/>
      <path id="Path_113432" data-name="Path 113432" d="M11562.1,4245.38c1.6,6.492,3.172,17.055.614,22.739,0,0,9.573.432,21.807,10.233,5.765-8.459-.91-10.119-.91-10.119-5.081-1.137-4.832-7.958-4.82-12.791Z" transform="translate(379.338 217.01)" fill="#ffb573"/>
      <path id="Path_113433" data-name="Path 113433" d="M11560.294,4268.987c-4.775-.523-1.478-9.6,1-8.709,6.275,2.274,20.352-.25,24.707,2.149s3.252,7.322,3.252,7.322S11565.411,4269.556,11560.294,4268.987Z" transform="translate(378.757 219.042)" fill="#5ab4f9"/>
      <path id="Path_113434" data-name="Path 113434" d="M11560.294,4268.987c-4.775-.523-1.478-9.6,1-8.709,6.275,2.274,20.352-.25,24.707,2.149s3.252,7.322,3.252,7.322S11565.411,4269.556,11560.294,4268.987Z" transform="translate(378.757 219.042)" fill="#ffbf9d" opacity="0.7"/>
      <path id="Path_113435" data-name="Path 113435" d="M11584.509,4235.523c.158.864.739,1.489,1.308,1.387s.9-.887.75-1.751-.739-1.49-1.308-1.387A1.345,1.345,0,0,0,11584.509,4235.523Z" transform="translate(382.399 215.418)" fill="#344154"/>
      <path id="Path_113436" data-name="Path 113436" d="M11584.9,4233.967l1.979-.966S11586.151,4234.819,11584.9,4233.967Z" transform="translate(382.461 215.314)" fill="#344154"/>
      <path id="Path_113437" data-name="Path 113437" d="M11586.011,4229.3a.584.584,0,0,0,0-.387.524.524,0,0,0-.638-.364,5.147,5.147,0,0,0-3.568,3.093.532.532,0,0,0,.329.661.524.524,0,0,0,.66-.33,4.037,4.037,0,0,1,2.854-2.422.6.6,0,0,0,.363-.252Z" transform="translate(382.034 214.703)" fill="#344154"/>
      <path id="Path_113438" data-name="Path 113438" d="M11585.3,4237.17a23.6,23.6,0,0,0,3.716,5.263,3.833,3.833,0,0,1-3.068.91Z" transform="translate(382.516 215.886)" fill="#ed893e"/>
      <path id="Path_113439" data-name="Path 113439" d="M11558.353,4237.136c2.536,10.551,3.411,15.065,9.63,19.6,9.4,6.822,21.6,1.432,22.159-9.642.547-9.982-3.684-25.548-14.667-27.98S11555.851,4226.585,11558.353,4237.136Z" transform="translate(378.767 213.362)" fill="#ffb573"/>
      <path id="Path_113440" data-name="Path 113440" d="M11580.178,4239.782c6.208-8.209,10.233-14.849,7.2-22.114-2.558-6.071-9.642-4.3-10.63-1.262-18.828-1.6-25.593,5.218-21.7,16.5,2.478,7.2-7.141,3.411-4.8,12.6,1.785,7-4.548,9.675-1.33,13.7,4.639,5.81,14.212-1.762,25.139,2.592C11583.021,4265.363,11596.437,4259.963,11580.178,4239.782Z" transform="translate(377.406 212.66)" fill="#344154"/>
      <path id="Path_113441" data-name="Path 113441" d="M11575.494,4238.854a6.994,6.994,0,0,0,4.719,3.24c2.469.364,3.32-2.41,2.275-4.979-.91-2.274-3.285-5.287-5.617-4.457S11574.131,4236.637,11575.494,4238.854Z" transform="translate(381.066 215.248)" fill="#ffb573"/>
      <path id="Path_113442" data-name="Path 113442" d="M11579.361,4512.413a10.337,10.337,0,0,1-5.378-2.354.328.328,0,0,1-.093-.329.31.31,0,0,1,.274-.227c.183,0,4.548-.49,6.049.715a1.273,1.273,0,0,1,.512.943,1.034,1.034,0,0,1-.568,1.137A2.163,2.163,0,0,1,11579.361,4512.413Zm-4.331-2.342c1.547,1.081,4.014,2.023,4.843,1.615.126-.068.239-.171.217-.478a.713.713,0,0,0-.284-.5C11579,4510,11576.531,4509.979,11575.03,4510.07Z" transform="translate(380.952 253.172)" fill="#344154"/>
      <path id="Path_113443" data-name="Path 113443" d="M11574.139,4510.665a.373.373,0,0,1-.262-.137.326.326,0,0,1,0-.353c.092-.159,2.275-4,4.129-4.468a1.27,1.27,0,0,1,1.068.147,1.038,1.038,0,0,1,.547,1.138c-.25,1.444-3.5,3.3-5.4,3.695Zm4.24-4.366h-.227c-1.07.273-2.514,2.217-3.32,3.479,1.773-.614,3.99-2.046,4.15-2.956a.464.464,0,0,0-.262-.466.716.716,0,0,0-.262-.057Z" transform="translate(380.944 252.657)" fill="#344154"/>
      <path id="Path_113444" data-name="Path 113444" d="M11589.459,4517.7c-9.209-.716-15.417-7.038-14.78-13.735.352-3.695-11.45-4.025-11.45-4.025,1.864,11.449-.478,13.086-1.25,16.042s-.579,6.23,1.864,6.287c2.922.08,4.286-.478,7.959-.341,4.252.17,8.846.33,16.406.341C11591.164,4522.281,11593.553,4518.018,11589.459,4517.7Z" transform="translate(379.268 251.875)" fill="#5ab4f9"/>
      <path id="Path_113445" data-name="Path 113445" d="M11601.066,4325.82s-.807,56.5-5.264,93.617-19.783,109.933-19.783,109.933a25.776,25.776,0,0,1-12.245-.114s-4.843-56.848,3.285-111.843c-5.969-57.609-9.709-91.594-9.709-91.594Z" transform="translate(378.688 228.027)" fill="#344154"/>
      <path id="Path_113446" data-name="Path 113446" d="M11604.283,4281.892c-.193,4.366,6.7,14.462-1.808,20.306,1.592,3.559,2.934,27.651-.284,31.949-4.7,3.411-30.107,2.786-51.164,0-.9-8.709,3.9-26.753-1.979-54.881a11.207,11.207,0,0,1,8.686-13.281,8.138,8.138,0,0,1,1.138-.181c1.773-.17,3.649-.33,5.571-.421a142.087,142.087,0,0,1,20.159,0c2.172.2,4.423.477,6.572.784a15.213,15.213,0,0,1,13.107,15.725Z" transform="translate(377.518 219.701)" fill="#5ab4f9"/>
      <g id="Group_59281" data-name="Group 59281" transform="translate(11926.391 4484.742)" opacity="0.3">
        <path id="Path_113447" data-name="Path 113447" d="M11549.588,4277.681l-.467.261h0a.3.3,0,1,0,.17.558h.1l.522-.284c2.274.83,4.7,2.717,6.095,2.911-2.273-1.99-3.877-3.411-5.685-3.161.534-.318,1.057-.637,1.58-.978,2.069.773,4.32,2.5,5.6,2.672-2.092-1.842-3.593-3.161-5.241-2.911l1.137-.784.636-.466c1.877.807,3.854,2.524,5.037,2.763-1.888-1.865-3.218-3.183-4.811-2.922.5-.375.989-.75,1.467-1.137,1.717.75,3.537,2.274,4.616,2.535-1.728-1.716-2.945-2.921-4.412-2.694l1.229-1.023.295-.25c1.513.8,3.014,2.365,4,2.649-1.433-1.717-2.433-2.911-3.934-2.717.386-.33.772-.671,1.137-1.023,1.4.739,2.774,2.183,3.684,2.444-1.318-1.581-2.273-2.672-3.615-2.5l1.205-1.137c1.217.751,2.376,2.115,3.184,2.4-1.137-1.5-1.864-2.535-3.1-2.479l.636-.637.364-.375c1.137.693,2.194,1.956,2.934,2.217-1-1.375-1.717-2.342-2.854-2.274.33-.341.659-.693.979-1.046,1.023.558,1.989,1.614,2.671,1.819-.9-1.137-1.534-1.979-2.626-1.865l.183-.193.682-.8a27.7,27.7,0,0,0,2.433,1.649c-.818-1.058-1.4-1.8-2.376-1.717.262-.318.522-.66.751-1a.1.1,0,0,0,0-.136h0a.09.09,0,0,0-.126,0h0q-.341.477-.716.921a2.274,2.274,0,0,0-.421-1.5h-.387a16.412,16.412,0,0,1,.624,1.683c-.2.238-.42.466-.624.693l-.147.159c.217-.83-.217-1.546-.875-2.456h-.217c.183.705.717,1.672.933,2.6l-.909.921c.3-1.046-.432-1.967-1.443-3.274,0,.784.955,2.137,1.319,3.411l-.319.318-.625.591c.284-1.137-.488-2.126-1.592-3.525,0,.842,1.035,2.274,1.433,3.672l-1.138.989c.239-1.137-.522-2.274-1.558-3.751,0,.9.921,2.49,1.3,3.979l-.9.762c.263-1.228-.557-2.433-1.683-4.082,0,.978,1,2.706,1.4,4.32l-.238.193c-.41.341-.831.67-1.25,1,.329-1.262-.456-2.683-1.535-4.616-.08,1.046.853,3.093,1.138,4.9-.478.364-.955.705-1.444,1.058.547-1.433-.341-3.036-1.568-5.264-.1,1.137.966,3.479,1.273,5.469l-.432.3-1.354.875c.625-1.444-.137-3.149-1.25-5.469l-.159.239c.08,1.364.875,3.547,1.046,5.446-.5.318-1.023.614-1.534.9.591-1.205.25-2.569-.478-4.275a9.428,9.428,0,0,0-.4,1.478,19.132,19.132,0,0,1,.649,2.967Z" transform="translate(-11548.864 -4264.98)" fill="#344154"/>
        <path id="Path_113448" data-name="Path 113448" d="M11576.595,4269.861c-1.717-1.137-3.411-3.1-4.548-3.525,1.558,2.138,2.672,3.65,4.286,3.65-.558.284-1.137.58-1.638.887-1.569-1.012-3.116-2.854-4.15-3.241,1.433,1.967,2.456,3.411,3.934,3.411-.466.261-.92.535-1.376.807l-.329.2c-1.376-1.023-2.6-2.809-3.537-3.251,1.138,1.933,1.944,3.263,3.411,3.309-.442.262-.875.546-1.308.83-1.25-.944-2.388-2.592-3.24-2.99,1.046,1.762,1.773,2.99,3.173,3.036l-1.365.921c-1.137-.932-2.012-2.467-2.763-2.876.842,1.649,1.433,2.809,2.672,2.944l-.739.523-.41.307c-1-.853-1.864-2.274-2.558-2.649.784,1.523,1.33,2.581,2.467,2.717l-1.137.864c-.933-.705-1.717-1.9-2.365-2.206.716,1.3,1.205,2.194,2.274,2.274l-.205.159-.807.683c-.842-.66-1.558-1.739-2.148-2.024.648,1.137,1.137,2,2.08,2.081-.306.273-.613.568-.909.875a.081.081,0,0,0-.024.057.079.079,0,0,0,.024.057h0a.091.091,0,0,0,.125,0h0a7.112,7.112,0,0,1,.853-.8c-.284.773.125,1.558.671,2.626a23.356,23.356,0,0,0-.468-2.8c.24-.2.479-.386.729-.58l.171-.136c-.387.875,0,1.751.682,2.979a28.743,28.743,0,0,0-.513-3.1c.353-.273.694-.523,1.058-.773-.455.978.113,2.013.909,3.411.08-.773-.613-2.274-.762-3.57l.364-.262.705-.478c-.455,1.058.148,2.172,1.012,3.729.08-.841-.659-2.444-.83-3.854l1.239-.8c-.421,1.081.147,2.274.933,3.946.136-.887-.513-2.6-.648-4.127l1.011-.614c-.455,1.137.159,2.49,1.024,4.3.147-.966-.569-2.842-.705-4.548l.262-.147,1.4-.8c-.523,1.194,0,2.718.772,4.81.25-1.023-.341-3.195-.364-5.025.534-.284,1.057-.558,1.6-.819-.773,1.33-.159,3.047.716,5.446.273-1.137-.409-3.582-.4-5.594l.467-.228,1.488-.659c-.887,1.387-.329,3.3.467,5.946.364-1.228-.228-3.911-.08-6.106.546-.228,1.137-.432,1.66-.637-1.069,1.512-.456,3.616.421,6.549.409-1.33-.25-4.287-.08-6.663l.512-.182h0a.283.283,0,0,0,.168-.143.288.288,0,0,0,.014-.22h0a.306.306,0,0,0-.375-.182l-.558.2a36,36,0,0,1-3.773-2.763h-.911c1.479,1.762,2.7,2.945,4.207,2.968-.579.216-1.137.466-1.716.716-1.922-1.137-3.866-3.149-5.105-3.536,1.773,2.16,3.047,3.7,4.719,3.706l-1.273.591Z" transform="translate(-11546.767 -4265.039)" fill="#344154"/>
        <path id="Path_113449" data-name="Path 113449" d="M11564.179,4288.993c-1.25-1.365-2.126-2.274-3.354-2.126l.568-.693.319-.409a29.936,29.936,0,0,0,3.161,1.865c-1.138-1.251-1.968-2.138-3.1-1.956.295-.375.579-.75.863-1.137,1.137.432,2.161,1.375,2.865,1.5-1.035-1.058-1.751-1.8-2.832-1.558l.159-.216c.2-.284.4-.568.591-.864.842.5,1.717.955,2.614,1.375-.943-.966-1.592-1.637-2.558-1.444a8.87,8.87,0,0,0,.636-1.137.1.1,0,0,0-.047-.125.094.094,0,0,0-.125.045h0a8.794,8.794,0,0,1-.615.989c.069-.819-.532-1.467-1.353-2.353a20.313,20.313,0,0,0,1.205,2.581l-.546.75-.137.171c.147-.944-.523-1.672-1.443-2.683a25.116,25.116,0,0,0,1.32,2.865l-.809,1.023c.171-1.081-.648-1.91-1.808-3.1a26.342,26.342,0,0,0,1.7,3.241l-.285.353-.558.647c.159-1.137-.716-2.046-1.968-3.32.148.83,1.285,2.183,1.831,3.49l-.978,1.137c.113-1.137-.762-2.172-1.968-3.559.113.9,1.205,2.376,1.74,3.809l-.808.864c.125-1.251-.83-2.354-2.138-3.866.113.967,1.3,2.581,1.877,4.127l-.217.228c-.364.387-.751.762-1.137,1.137.193-1.285-.739-2.6-2.024-4.411,0,1.046,1.137,2.979,1.694,4.741-.432.409-.875.819-1.319,1.206.387-1.478-.67-2.967-2.148-5.048,0,1.137,1.354,3.343,1.877,5.287l-.4.341c-.41.353-.831.693-1.25,1.035.488-1.581-.569-3.263-2.035-5.605,0,1.273,1.262,3.706,1.705,5.855q-.694.545-1.433,1.058a4.034,4.034,0,0,0-.432-3.2c.137,1.354.25,2.672.341,3.969l.159-.114c2.33.58,4.969,2.172,6.378,2.206-2.455-1.728-4.229-2.956-5.969-2.5.5-.375.989-.762,1.467-1.137,2.148.535,4.548,2,5.867,2.035-2.274-1.6-3.923-2.751-5.537-2.274.364-.307.716-.6,1.069-.921l.579-.535c1.955.6,4.116,2.092,5.31,2.183-2.069-1.637-3.547-2.8-5.105-2.365.456-.421.9-.853,1.342-1.3,1.785.557,3.774,1.921,4.866,2.012-1.909-1.512-3.263-2.581-4.7-2.183l1.137-1.137.262-.284c1.593.625,3.264,2.013,4.275,2.195-1.614-1.546-2.74-2.626-4.207-2.274l1.023-1.137c1.467.58,3,1.853,3.934,2.013-1.478-1.421-2.513-2.4-3.866-2.081.364-.409.717-.83,1.058-1.25C11562.02,4287.549,11563.27,4288.777,11564.179,4288.993Z" transform="translate(-11548.563 -4262.888)" fill="#344154"/>
        <path id="Path_113450" data-name="Path 113450" d="M11581.6,4288.032c-.818.363-1.922,1.83-3.138,2.763l-1.057-.522c1.239-.239,2.012-1.467,3.081-3.16-.9.386-2.092,1.989-3.411,3l-.272-.147c-.478-.238-.944-.5-1.41-.75,1.284-.193,2.273-1.479,3.627-3.241-1,.341-2.5,2.013-4.036,3.013-.522-.295-1.034-.591-1.547-.909,1.523-.057,2.649-1.512,4.207-3.535-1.137.386-2.808,2.273-4.548,3.342l-.442-.272-1.342-.9c1.638,0,2.945-1.489,4.753-3.581-1.229.341-3.173,2.273-5.095,3.342q-.751-.511-1.433-1.057c1.843.091,3.286-1.559,5.3-3.878-1.354.364-3.491,2.513-5.594,3.649l-.421-.341h0a.308.308,0,0,0-.421,0,.285.285,0,0,0,0,.408l.467.364c.137,2.4-.625,5.39-.25,6.753.933-2.865,1.6-4.923.659-6.446.5.363,1.012.716,1.523,1.058.113,2.274-.579,4.957-.228,6.208.864-2.649,1.478-4.548.58-5.969l1.137.75.682.409c0,2.035-.8,4.548-.546,5.685.966-2.456,1.648-4.207.784-5.56.534.307,1.138.6,1.626.9,0,1.876-.728,4.161-.5,5.241.888-2.274,1.513-3.877.716-5.128l1.433.729.341.17c-.125,1.694-.966,3.706-.842,4.719,1.012-1.99,1.706-3.411.933-4.685l1.4.647c-.125,1.569-.9,3.411-.772,4.354.92-1.842,1.558-3.115.853-4.309.5.228,1,.443,1.512.647-.2,1.41-1,3.024-.943,3.878.943-1.6,1.592-2.718,1.046-3.832l.842.341.478.182c-.183,1.308-.909,2.786-.864,3.57.864-1.467,1.467-2.5.966-3.535.443.17.888.341,1.342.488-.091,1.138-.682,2.468-.591,3.184.705-1.3,1.137-2.205.659-3.16l.25.091c.33.1.659.216,1,.307a25.438,25.438,0,0,0-.546,2.9c.637-1.137,1.137-2,.625-2.876a8.808,8.808,0,0,0,1.228.295.093.093,0,0,0,.035-.182h0c-.387-.08-.762-.183-1.137-.3.8-.182,1.239-.932,1.842-1.979-.568.251-1.285,1.262-2.1,1.9l-.874-.295-.205-.079c.944-.137,1.443-.989,2.138-2.172-.648.284-1.433,1.41-2.354,2.092-.4-.147-.808-.3-1.205-.467,1.069-.147,1.638-1.137,2.422-2.626-.694.353-1.58,1.728-2.593,2.558l-.421-.17-.785-.341c1.137-.171,1.751-1.285,2.6-2.843-.75.375-1.705,1.854-2.8,2.763-.455-.192-.9-.4-1.341-.613C11579.9,4290.716,11580.577,4289.59,11581.6,4288.032Z" transform="translate(-11546.201 -4262.779)" fill="#344154"/>
        <path id="Path_113451" data-name="Path 113451" d="M11575.848,4300.886c.875.443,1.762.841,2.684,1.205-.99-.9-1.7-1.523-2.639-1.285a10.69,10.69,0,0,0,.57-1.136.1.1,0,0,0-.047-.126.093.093,0,0,0-.125.046h0c-.172.353-.354.693-.547,1.035,0-.819-.637-1.432-1.5-2.274a22.261,22.261,0,0,0,1.354,2.49l-.488.784-.125.182c.08-.955-.625-1.637-1.615-2.581a27.07,27.07,0,0,0,1.49,2.763l-.729,1.081c.1-1.081-.771-1.876-2-2.979.182.762,1.318,1.944,1.887,3.126l-.262.364c-.158.228-.34.455-.512.682.092-1.137-.842-2-2.172-3.183.205.819,1.422,2.092,2.047,3.411-.295.4-.6.785-.91,1.137,0-1.137-.887-2.115-2.182-3.411.17.875,1.354,2.274,1.967,3.684l-.75.921c0-1.262-.967-2.274-2.365-3.729.17.955,1.455,2.49,2.137,4l-.2.239c-.354.409-.705.807-1.07,1.193.113-1.285-.908-2.558-2.273-4.275.09,1.046,1.375,2.9,1.99,4.627-.41.432-.818.864-1.24,1.285.285-1.49-.863-2.922-2.467-4.9.113,1.137,1.568,3.251,2.207,5.162l-.365.364-1.193,1.137c.387-1.6-.773-3.218-2.377-5.458,0,1.274,1.49,3.627,2.07,5.685-.443.4-.9.784-1.365,1.137.512-1.773-.75-3.559-2.547-6.048,0,1.4,1.639,3.968,2.275,6.276l-.434.341h0a.285.285,0,0,0,0,.408.3.3,0,0,0,.211.088.3.3,0,0,0,.211-.087h0l.455-.375c2.365.421,5.105,1.853,6.516,1.8-2.57-1.569-4.412-2.695-6.117-2.126.467-.4.934-.819,1.387-1.239,2.172.4,4.684,1.706,5.98,1.66-2.377-1.455-4.094-2.49-5.686-1.944.342-.33.682-.648,1.012-.989l.559-.569c1.979.478,4.229,1.819,5.422,1.842-2.172-1.5-3.707-2.569-5.242-2.035.432-.455.842-.91,1.25-1.376,1.832.432,3.889,1.672,4.992,1.694-2-1.387-3.412-2.365-4.822-1.887.354-.4.7-.807,1.035-1.216l.238-.307c1.639.523,3.412,1.808,4.412,1.921-1.717-1.444-2.9-2.444-4.344-1.99l.955-1.205c1.5.477,3.1,1.648,4.047,1.751-1.568-1.319-2.66-2.274-3.99-1.831.33-.432.66-.875.979-1.319,1.33.523,2.717,1.671,3.559,1.808-1.342-1.274-2.275-2.172-3.492-1.9.184-.239.354-.489.523-.728s.193-.3.295-.432c1.217.478,2.49,1.535,3.275,1.66-1.24-1.137-2.1-2-3.219-1.751q.41-.592.785-1.137c1.137.364,2.275,1.239,2.957,1.319-1.139-.989-1.865-1.683-2.924-1.376l.148-.228Z" transform="translate(-11547.041 -4260.477)" fill="#344154"/>
        <path id="Path_113452" data-name="Path 113452" d="M11580.51,4313.51a9.343,9.343,0,0,1,.75-.887c-.17.8.318,1.524,1,2.525a24.111,24.111,0,0,0-.8-2.729l.646-.659.148-.159c-.273.921.273,1.739,1.045,2.865a26.916,26.916,0,0,0-.887-3.012l.943-.9c-.318,1.035.365,1.99,1.342,3.332,0-.785-.887-2.183-1.205-3.411l.342-.295.635-.569c-.328,1.137.41,2.138,1.457,3.582,0-.853-.943-2.354-1.3-3.718.375-.33.752-.637,1.137-.955-.283,1.137.434,2.274,1.41,3.809,0-.9-.83-2.536-1.137-4.025l.934-.728c-.318,1.216.467,2.444,1.533,4.139,0-.978-.908-2.751-1.25-4.366l.25-.193,1.285-.944c-.375,1.239.352,2.683,1.365,4.662.113-1.046-.74-3.127-.979-4.935.488-.341.979-.682,1.477-1.012-.6,1.41.229,3.047,1.389,5.321.135-1.137-.854-3.513-1.139-5.515l.434-.273c.465-.284.932-.569,1.4-.83-.717,1.478.08,3.3,1.137,5.833.217-1.262-.693-3.854-.818-6.038.512-.295,1.035-.58,1.568-.841-.875,1.626,0,3.638,1.229,6.446.238-1.375-.773-4.229-.9-6.606l.479-.238h0a.285.285,0,0,0,.137-.376h0a.291.291,0,0,0-.17-.151.3.3,0,0,0-.227.015h0l-.523.273c-2.273-.91-4.6-2.888-5.99-3.127,2.182,2.069,3.752,3.559,5.537,3.411-.547.284-1.08.6-1.615.909-2.047-.842-4.229-2.649-5.5-2.865,2.023,1.921,3.479,3.286,5.139,3.093l-1.137.75-.66.444c-1.842-.887-3.764-2.672-4.924-2.945,1.809,1.933,3.092,3.3,4.7,3.093-.512.353-1.012.716-1.512,1.137-1.693-.807-3.41-2.444-4.547-2.695,1.67,1.774,2.854,3.024,4.318,2.854-.42.318-.852.637-1.262.967l-.307.25c-1.477-.853-2.922-2.479-3.9-2.8,1.363,1.774,2.273,2.99,3.832,2.854l-1.2.978c-1.363-.773-2.693-2.274-3.592-2.569,1.262,1.626,2.137,2.751,3.523,2.637a14.142,14.142,0,0,0-1.238,1.138c-1.137-.8-2.273-2.206-3.092-2.513,1.033,1.535,1.771,2.6,3.012,2.592l-.67.6-.375.364c-1.137-.739-2.115-2.035-2.854-2.274.965,1.41,1.637,2.4,2.785,2.388-.352.33-.693.66-1.023,1-1-.58-1.934-1.672-2.615-1.9.865,1.137,1.467,2.023,2.57,1.956l-.182.182c-.24.25-.49.512-.717.773-.92-.545-1.762-1.535-2.377-1.739.785,1.081,1.33,1.842,2.275,1.808a9.388,9.388,0,0,0-.8.967.077.077,0,0,0-.029.062.078.078,0,0,0,.029.063h0a.091.091,0,0,0,.113,0h0Z" transform="translate(-11544.769 -4260.413)" fill="#344154"/>
        <path id="Path_113453" data-name="Path 113453" d="M11569.04,4327.4l1.33-1.3c1.8.558,3.774,1.921,4.877,2.013-1.909-1.512-3.263-2.581-4.7-2.195l1.137-1.137.263-.284c1.592.625,3.252,2.012,4.274,2.194-1.614-1.558-2.74-2.626-4.218-2.274.352-.375.693-.762,1.034-1.137,1.467.58,3,1.853,3.935,2.012-1.489-1.421-2.524-2.411-3.866-2.081l1.057-1.251c1.3.6,2.6,1.831,3.411,2.023-1.25-1.353-2.138-2.274-3.411-2.114l.568-.693.318-.409c1.138.557,2.4,1.683,3.173,1.865-1.137-1.262-1.968-2.138-3.1-1.956.295-.375.579-.75.853-1.137,1.137.432,2.161,1.375,2.864,1.5-1.023-1.058-1.739-1.8-2.82-1.558l.159-.216c.193-.284.4-.568.591-.864a27.158,27.158,0,0,0,2.6,1.365c-.933-.955-1.592-1.626-2.558-1.444.228-.353.442-.716.636-1.081a.092.092,0,0,0,0-.125.078.078,0,0,0-.062-.031.079.079,0,0,0-.062.03h0q-.286.513-.614.989c0-.819-.534-1.466-1.354-2.353a24.916,24.916,0,0,0,1.137,2.581l-.534.75-.137.17c.148-.944-.522-1.672-1.455-2.683a30.668,30.668,0,0,0,1.319,2.854c-.263.353-.523.693-.8,1.023.171-1.068-.648-1.91-1.808-3.093.137.773,1.138,2.023,1.694,3.241-.1.114-.192.239-.284.353l-.557.647c.158-1.137-.717-2.046-1.968-3.32.147.83,1.284,2.172,1.831,3.491l-.979,1.137c.113-1.137-.762-2.172-1.968-3.559.1.887,1.138,2.376,1.728,3.809l-.807.864c.125-1.262-.818-2.354-2.126-3.866.113.967,1.295,2.581,1.876,4.127l-.217.228-1.137,1.137c.193-1.285-.75-2.615-2.035-4.411,0,1.046,1.193,2.979,1.694,4.741l-1.308,1.206c.375-1.478-.671-2.967-2.161-5.048,0,1.137,1.365,3.343,1.888,5.287l-.4.341c-.41.353-.83.693-1.25,1.023.488-1.569-.568-3.251-2.035-5.594,0,1.262,1.228,3.65,1.683,5.776h.875c.353-.3.705-.591,1.046-.9l.591-.535a36.557,36.557,0,0,1,3.934,1.75h.864C11571.882,4327.96,11570.518,4326.994,11569.04,4327.4Z" transform="translate(-11546.715 -4258.093)" fill="#344154"/>
        <path id="Path_113454" data-name="Path 113454" d="M11563,4322.91c0,1.137.854,3,1.457,4.9l.863.068C11565.275,4326.423,11564.25,4324.911,11563,4322.91Z" transform="translate(-11546.928 -4257.113)" fill="#344154"/>
        <path id="Path_113455" data-name="Path 113455" d="M11567,4327.43l1.717.1a2.96,2.96,0,0,0-1.718-.1Z" transform="translate(-11546.382 -4256.506)" fill="#344154"/>
        <path id="Path_113456" data-name="Path 113456" d="M11597.95,4326.721l.092-.2-.41-.148-.2-.068a1.79,1.79,0,0,0,.863-.409c.1-.3.205-.614.3-.967a13.434,13.434,0,0,1-1.376,1.3l-1.239-.444c1.069-.159,1.638-1.137,2.422-2.637-.694.353-1.58,1.728-2.593,2.569l-.421-.17-.785-.341c1.138-.182,1.751-1.284,2.6-2.854-.751.387-1.706,1.865-2.8,2.774l-1.342-.614c1.137-.239,1.842-1.364,2.82-2.921-.818.363-1.922,1.842-3.138,2.774l-1.057-.523c1.238-.25,2.012-1.478,3.081-3.172-.9.4-2.092,2-3.411,3l-.273-.137-1.41-.762c1.285-.193,2.274-1.478,3.628-3.229-1,.341-2.5,2.012-4.036,3-.523-.284-1.035-.591-1.547-.9,1.523-.068,2.649-1.512,4.207-3.536-1.137.375-2.808,2.274-4.548,3.343l-.443-.273c-.455-.3-.9-.591-1.341-.91,1.638,0,2.944-1.489,4.752-3.57-1.228.341-3.172,2.274-5.094,3.343l-1.443-1.069c1.853.091,3.3-1.558,5.31-3.877-1.354.375-3.491,2.513-5.594,3.649l-.421-.33h0a.308.308,0,0,0-.421,0,.3.3,0,0,0,0,.421l.466.352c.137,2.4-.625,5.4-.249,6.753.933-2.854,1.6-4.912.659-6.447.5.375,1.012.728,1.523,1.069.113,2.206-.58,4.957-.228,6.208.863-2.661,1.478-4.548.579-5.969.4.25.785.512,1.138.75l.682.409c0,2.035-.8,4.548-.547,5.685.966-2.467,1.649-4.207.785-5.571.534.318,1.137.614,1.626.9,0,1.876-.728,4.172-.5,5.241.887-2.274,1.512-3.866.716-5.116l1.433.716.341.17c-.126,1.706-.966,3.707-.842,4.73,1.012-2,1.705-3.411.933-4.684l1.4.647c-.113,1.523-.842,3.286-.785,4.253h.057c.9-1.774,1.5-3.025.807-4.207l1.513.659c-.171,1.137-.716,2.411-.887,3.309l.306-.057c.728-1.273,1.138-2.274.682-3.206l.831.33.488.193a19.222,19.222,0,0,1-.637,2.365l.523-.159a2.374,2.374,0,0,0,.217-2.172l1.341.489a7.641,7.641,0,0,1-.218,1.137l.5-.3a1.615,1.615,0,0,0-.216-.83l.249.079Z" transform="translate(-11544.246 -4258.185)" fill="#344154"/>
        <path id="Path_113457" data-name="Path 113457" d="M11558.42,4305.044h0a.32.32,0,0,0,.2-.364.3.3,0,0,0-.364-.205l-.567.17c-2.012-1.307-3.979-3.695-5.3-4.2,1.751,2.444,3.014,4.2,4.811,4.343-.591.182-1.138.386-1.763.6a46.456,46.456,0,0,1-3.807-3.183v.773c1.137,1.478,2.126,2.467,3.41,2.558-.442.159-.875.33-1.308.512l-.739.307a13.976,13.976,0,0,1-1.376-1.136v.943a2.623,2.623,0,0,0,1.137.364l-1.137.535v.478l1.534-.66c-.853,1.273-.341,3.036.364,5.48.353-1.137-.182-3.6,0-5.617l.478-.193,1.523-.558c-.979,1.33-.546,3.274.08,5.958.443-1.193,0-3.911.307-6.083.568-.193,1.137-.375,1.705-.535-1.137,1.444-.682,3.57,0,6.572.488-1.308,0-4.3.352-6.663Z" transform="translate(-11548.488 -4260.189)" fill="#344154"/>
        <path id="Path_113458" data-name="Path 113458" d="M11551.4,4311.03a1.451,1.451,0,0,0,.112.409,10.9,10.9,0,0,0,0-2.979A18.926,18.926,0,0,1,11551.4,4311.03Z" transform="translate(-11548.517 -4259.092)" fill="#344154"/>
        <path id="Path_113459" data-name="Path 113459" d="M11555.576,4326.442l-.421-.671c.921-1.819,2.763-3.695,3.06-4.854-1.979,1.762-3.411,3.013-3.207,4.616-.341-.523-.694-1.023-1.046-1.535.853-1.672,2.536-3.411,2.82-4.446-1.818,1.614-3.1,2.763-2.968,4.241l-.944-1.3-.228-.307c.875-1.455,2.536-2.865,2.889-3.832-1.808,1.319-3.06,2.274-2.945,3.764l-.954-1.216c.817-1.342,2.341-2.638,2.66-3.525-1.66,1.216-2.809,2.058-2.717,3.411l-.705-.842v.478l.409.5a2.858,2.858,0,0,0-.432-.069v.5l.659-.16.717.955a2.475,2.475,0,0,0-1.41,0v.705a10.238,10.238,0,0,1,1.659-.443l.183.238.92,1.319a4.044,4.044,0,0,0-2.774.375v.625a27.142,27.142,0,0,1,3.047-.614c.33.5.648,1,.955,1.512-1.138-.5-2.274-.125-3.923.58v.455h.25a33.521,33.521,0,0,1,3.83-.762l.274.444.488.875.637.079A6.82,6.82,0,0,1,11555.576,4326.442Z" transform="translate(-11548.601 -4257.871)" fill="#344154"/>
        <path id="Path_113460" data-name="Path 113460" d="M11551.1,4316.331v.535a4.16,4.16,0,0,0,.8-1.035Z" transform="translate(-11548.558 -4258.083)" fill="#344154"/>
        <path id="Path_113461" data-name="Path 113461" d="M11556.9,4326.983l1.011.114a15.517,15.517,0,0,0,2.058-3.707,17.166,17.166,0,0,0-3.069,3.593Z" transform="translate(-11547.765 -4257.048)" fill="#344154"/>
        <path id="Path_113462" data-name="Path 113462" d="M11555.947,4327.105c.944-1.921,2.615-3.9,2.854-5.105-1.979,1.979-3.41,3.411-3.229,5.06Z" transform="translate(-11547.947 -4257.238)" fill="#344154"/>
        <path id="Path_113463" data-name="Path 113463" d="M11550.908,4318.255a4.619,4.619,0,0,1-.058.9,18.327,18.327,0,0,0,2.184-2.514,9.552,9.552,0,0,0-2.127,1.616Z" transform="translate(-11548.594 -4257.972)" fill="#344154"/>
      </g>
      <path id="Path_113464" data-name="Path 113464" d="M11620.41,4294.252l5.025-5.333,6.97,9.812s-5.878,4.161-11.506,4l-.648-1.444a7.862,7.862,0,0,1,.161-7.038Z" transform="translate(387.2 222.973)" fill="#ffb573"/>
      <path id="Path_113465" data-name="Path 113465" d="M11632.872,4289.6l1.968,3.7a3.477,3.477,0,0,1-1.421,4.7l-1.638.9-6.97-9.812,3.99-1.137A3.411,3.411,0,0,1,11632.872,4289.6Z" transform="translate(387.927 222.816)" fill="#ffb573"/>
      <path id="Path_113466" data-name="Path 113466" d="M11598.908,4277.592l.432,2.172.479,2.274c.34,1.535.67,3.081,1.057,4.548.738,3.047,1.625,6.037,2.568,8.925a60.006,60.006,0,0,0,3.412,8.083,22.009,22.009,0,0,0,4.16,5.8l-2.41-1.137c-.705-.091-.842.125-.467.114a5.431,5.431,0,0,0,1.717-.5,28.8,28.8,0,0,0,4.846-2.831c1.693-1.137,3.408-2.479,5.1-3.854s3.41-2.842,5.07-4.2l.182-.137a4,4,0,0,1,6.1,4.923,64.963,64.963,0,0,1-3.811,6.309,61.992,61.992,0,0,1-4.637,5.869,34.825,34.825,0,0,1-6.129,5.434,20,20,0,0,1-4.549,2.274,14.05,14.05,0,0,1-3.205.705,13.042,13.042,0,0,1-4.047-.295,6.182,6.182,0,0,1-2.148-.99l-.273-.2a33.133,33.133,0,0,1-8.652-9.653,54.227,54.227,0,0,1-2.8-5.116q-1.239-2.593-2.273-5.162a92.68,92.68,0,0,1-3.344-10.392c-.443-1.751-.863-3.491-1.217-5.253-.172-.886-.352-1.762-.5-2.66s-.285-1.739-.434-2.809a7.959,7.959,0,0,1,15.691-2.615Z" transform="translate(382.212 220.499)" fill="#ffb573"/>
      <path id="Path_113467" data-name="Path 113467" d="M11588.41,4266.287c6.618.682,11.9,5.071,15.6,19.044-2.843,3.934-20.75,12.563-20.75,12.563S11573.288,4264.729,11588.41,4266.287Z" transform="translate(381.795 219.866)" fill="#5ab4f9"/>
    </g>
  </g>
</svg>
