<svg xmlns="http://www.w3.org/2000/svg" width="190" height="372.623" viewBox="0 0 190 372.623">
  <g id="freepik--Character--inject-1" transform="translate(-545.409 -2713.147)">
    <path id="Path_132846" data-name="Path 132846" d="M717.654,3207.286l-10.185,1.076-3.759-21.686,10.185-1.076Z" transform="translate(-37.35 -133.641)" fill="#ffc3bd"/>
    <path id="Path_132847" data-name="Path 132847" d="M777.719,3210.019H767.541l-2.521-22.109H775.2Z" transform="translate(-51.816 -134.294)" fill="#ffc3bd"/>
    <path id="Path_132848" data-name="Path 132848" d="M390.419,3004.54h12.393a.876.876,0,0,1,.863.653l2.017,8.484a1.354,1.354,0,0,1-1.49,1.664c-3.988-.057-6.876-.272-11.927-.272-3.056,0-12.408.294-16.679.294s-4.882-3.959-3.056-4.3c7.832-1.614,13.753-3.83,16.244-5.952a2.531,2.531,0,0,1,1.635-.566Z" transform="translate(324.48 70.08)" fill="#344154"/>
    <path id="Path_132849" data-name="Path 132849" d="M331.525,3001.945,342.5,3000.8a.89.89,0,0,1,.94.559l3.041,8.19a1.306,1.306,0,0,1-.055,1.06,1.446,1.446,0,0,1-.839.712,1.219,1.219,0,0,1-.321.072c-4,.365-9.765.76-14.777,1.3-5.853.617-6.831,2.094-13.753,1.929-4.187-.086-5.249-4.073-3.492-4.4,8.007-1.434,9.543-2.582,15.862-7.265A4.734,4.734,0,0,1,331.525,3001.945Z" transform="translate(338.433 71.141)" fill="#344154"/>
    <path id="Path_132850" data-name="Path 132850" d="M319.325,2610.492c-3.415,2.646-6.785,4.948-10.261,7.308s-7.022,4.582-10.7,6.677-7.4,4.145-11.346,5.988a85.458,85.458,0,0,1-12.515,4.934c-1.138.33-2.246.617-3.53.9a35.46,35.46,0,0,1-3.82.573c-2.292.244-4.439.33-6.586.438-4.286.179-8.542.172-12.691.144-8.4-.086-16.71-.466-25.076-1.14l-.122-7.171c8.206-.982,16.45-1.843,24.61-2.7,4.08-.43,8.152-.882,12.118-1.377,1.987-.251,3.95-.552,5.761-.868.764-.136,1.528-.3,2.292-.51s1.582-.487,2.437-.8a85.341,85.341,0,0,0,10.139-4.654c3.377-1.814,6.747-3.772,10.063-5.845s6.624-4.231,9.933-6.454,6.533-4.511,9.612-6.705Z" transform="translate(359.611 184.726)" fill="#ffc3bd"/>
    <path id="Path_132851" data-name="Path 132851" d="M351,2598.141c-1.459,9.021-21.7,22.819-21.7,22.819l-14.517-16.91A234.482,234.482,0,0,1,335,2586C341.507,2580.988,352.585,2588.317,351,2598.141Z" transform="translate(337.88 188.93)" fill="#5ab4f9"/>
    <path id="Path_132852" data-name="Path 132852" d="M224.433,2640.475l-5.769-3.865-.634,12.191s3.194,0,4.424-2.2Z" transform="translate(360.708 174.155)" fill="#ffc3bd"/>
    <path id="Path_132853" data-name="Path 132853" d="M582.654,2844.29l-1.184,11.947,5.769,3.8.642-12.2Z" transform="translate(-8.509 -37.096)" fill="#ffc3bd"/>
    <path id="Path_132854" data-name="Path 132854" d="M703.73,3186.686l1.925,11.18,10.185-1.076-1.925-11.18Z" transform="translate(-37.355 -133.644)" fill="#344154" opacity="0.2"/>
    <path id="Path_132855" data-name="Path 132855" d="M775.2,3187.91H765.02l1.307,11.409H776.5Z" transform="translate(-51.816 -134.294)" fill="#344154" opacity="0.2"/>
    <path id="Path_132856" data-name="Path 132856" d="M389.044,2585.622a5.463,5.463,0,0,1,4.4,6.5,1.094,1.094,0,0,1-.038.15,212.5,212.5,0,0,0-4.974,26.1c-.963,7.393-1.528,14.457-1.895,20.862-.848,14.995-.5,26.433-.97,30.313l-54.248-3.521c-5.509-40.532.94-66.414,4.584-76.912a9.551,9.551,0,0,1,7.931-6.225c2.086-.251,4.584-.509,7.205-.653.917,0,1.857-.086,2.8-.107a215.817,215.817,0,0,1,23.09,1.435c1.452.157,2.919.365,4.347.573C384.054,2584.654,386.8,2585.185,389.044,2585.622Z" transform="translate(334.482 189.566)" fill="#344154"/>
    <path id="Path_132857" data-name="Path 132857" d="M383.713,2550.05c-1.979,6.87-4.378,19.535.458,24.526-12.576,7.946-20.63,19.119-22.922,16.7-1.215-1.277-1.727-16.035-.145-18.208,8.4-1.32,8.642-7.085,7.6-12.593Z" transform="translate(327.184 198.64)" fill="#ffc3bd"/>
    <path id="Path_132858" data-name="Path 132858" d="M383.191,2580.27s-20.507,8.519-23.181,27.552c5.639-6.139,18.116-12.815,18.116-12.815l-5.5-1.478a58.759,58.759,0,0,1,10.811-2.732c-.611-2.639,2.644-7.888,2.644-7.888Z" transform="translate(327.208 190.092)" fill="#5ab4f9"/>
    <path id="Path_132859" data-name="Path 132859" d="M362.823,2579.84s2.72,10.879-4.722,27.861c-1.154-6.454-6.021-17.326-6.021-17.326l5.02,1.269s-.252-2.187-4.317-5.106c1.528-2.725,6.25-5.938,6.25-5.938Z" transform="translate(329.079 190.214)" fill="#5ab4f9"/>
    <path id="Path_132860" data-name="Path 132860" d="M380.258,2556l-8.878,6.16a20.245,20.245,0,0,1,.474,3.88c3.194-.215,7.786-3.191,8.343-6.282A9.641,9.641,0,0,0,380.258,2556Z" transform="translate(324.526 196.958)" fill="#344154" opacity="0.2"/>
    <path id="Path_132861" data-name="Path 132861" d="M355.261,2522.3c-4.959.193-7.694,8.218-2.667,14.888S361.939,2522.033,355.261,2522.3Z" transform="translate(329.589 206.491)" fill="#344154"/>
    <path id="Path_132862" data-name="Path 132862" d="M380.2,2527.283c.581,9.459,1.436,14.967-3,20.345-6.67,8.111-19.575,5.214-23.174-3.894-3.224-8.2-3.66-22.289,5.669-27.122a14.542,14.542,0,0,1,13.43-.047,12.845,12.845,0,0,1,7.069,10.718Z" transform="translate(329.11 208.57)" fill="#ffc3bd"/>
    <path id="Path_132863" data-name="Path 132863" d="M380.142,2530.451c-7.641-4.575-10.338-10.614-10.918-13.625-2.965.653-17.68,7.007-22.2,0s1.223-11.13,9.635-6.813c-3.744-6.2-.336-9.237,11.461-9.517s10.185,6.139,10.185,6.139,8.909-3.643,12.072,2.776C394,2516.761,387.255,2529.339,380.142,2530.451Z" transform="translate(330.648 212.66)" fill="#344154"/>
    <path id="Path_132864" data-name="Path 132864" d="M385.78,2505.193c.107,0,4.454.982,9.467-3.743-.894,4.03-8.672,6.72-8.672,6.72Z" transform="translate(321.128 212.388)" fill="#344154"/>
    <path id="Path_132865" data-name="Path 132865" d="M390.737,2525.913c-4.684-1.52-10.368,5.02-8.275,12.908S397.063,2527.942,390.737,2525.913Z" transform="translate(322.016 205.531)" fill="#344154"/>
    <path id="Path_132866" data-name="Path 132866" d="M394.033,2541.147a8.935,8.935,0,0,1-3.9,5.816c-2.758,1.807-5.249-.251-5.4-3.241-.145-2.69,1.123-6.87,4.325-7.487A4.16,4.16,0,0,1,394.033,2541.147Z" transform="translate(321.379 202.574)" fill="#ffc3bd"/>
    <path id="Path_132867" data-name="Path 132867" d="M342.679,2806.68c2.437-27.911,20.37-105.211,20.37-105.211l-35.681-2.309S313.614,2775.893,312.56,2805c-1.1,30.284,11.881,97.573,11.881,97.573l17.077-1.836S340.2,2834.719,342.679,2806.68Z" transform="translate(338.42 156.462)" fill="#5ab4f9"/>
    <path id="Path_132868" data-name="Path 132868" d="M342.679,2806.68c2.437-27.911,20.37-105.211,20.37-105.211l-35.681-2.309S313.614,2775.893,312.56,2805c-1.1,30.284,11.881,97.573,11.881,97.573l17.077-1.836S340.2,2834.719,342.679,2806.68Z" transform="translate(338.42 156.462)" fill="#6595bf" stroke="#5e6178" stroke-miterlimit="10" stroke-width="0" opacity="0.5"/>
    <path id="Path_132869" data-name="Path 132869" d="M359.128,2738.88c-7.2,8.605-7.32,38.926-4.538,61.351,2.644-16.172,6.815-36.646,10.49-53.785Z" transform="translate(328.884 145.227)" fill="#344154" opacity="0.2"/>
    <path id="Path_132870" data-name="Path 132870" d="M357.14,2700.88s3.82,81.753,8.145,109.406c4.7,30.306,16.641,96.6,16.641,96.6h18.658s-3.056-62.391-5.524-92.173c-2.8-33.913-2.865-111.492-2.865-111.492Z" transform="translate(327.885 155.976)" fill="#5ab4f9"/>
    <path id="Path_132871" data-name="Path 132871" d="M357.14,2700.88s3.82,81.753,8.145,109.406c4.7,30.306,16.641,96.6,16.641,96.6h18.658s-3.056-62.391-5.524-92.173c-2.8-33.913-2.865-111.492-2.865-111.492Z" transform="translate(327.885 155.976)" fill="#6595bf" stroke="#5e6178" stroke-miterlimit="10" stroke-width="0" opacity="0.5"/>
    <path id="Path_132872" data-name="Path 132872" d="M756.86,3198.677H778.8v-6.146l-24.526-.4Z" transform="translate(-49.28 -135.488)" fill="#5ab4f9"/>
    <path id="Path_132873" data-name="Path 132873" d="M697.136,3194.662l20.4-2.18-.749-6.182-22.838,2.094Z" transform="translate(-35.048 -133.839)" fill="#5ab4f9"/>
    <g id="Group_62344" data-name="Group 62344" transform="translate(680.316 2734.842)">
      <path id="Path_132874" data-name="Path 132874" d="M368.914,2537.685c.1.767-.252,1.434-.764,1.5s-1.031-.517-1.146-1.284.26-1.435.764-1.492S368.814,2536.925,368.914,2537.685Z" transform="translate(-354.753 -2532.342)" fill="#344154"/>
      <path id="Path_132875" data-name="Path 132875" d="M356.9,2539.138c.1.767-.26,1.434-.764,1.5s-1.039-.517-1.131-1.284.252-1.434.764-1.485S356.778,2538.37,356.9,2539.138Z" transform="translate(-351.924 -2532.754)" fill="#344154"/>
      <path id="Path_132876" data-name="Path 132876" d="M360.406,2539.72a26.612,26.612,0,0,1-3.056,6.97,5.015,5.015,0,0,0,3.988.244Z" transform="translate(-352.48 -2533.28)" fill="#ed847e"/>
      <path id="Path_132877" data-name="Path 132877" d="M371.434,2532.963a.478.478,0,0,1-.481-.115,3.962,3.962,0,0,0-3.263-1.14.5.5,0,0,1-.6-.316.4.4,0,0,1,0-.1.408.408,0,0,1,.061-.327.461.461,0,0,1,.291-.189h.038a4.913,4.913,0,0,1,4.126,1.435.432.432,0,0,1,0,.631h0a.486.486,0,0,1-.168.122Z" transform="translate(-354.775 -2530.739)" fill="#344154"/>
      <path id="Path_132878" data-name="Path 132878" d="M368.059,2552.269h0a7.3,7.3,0,0,0,5.272-4.066.223.223,0,0,0,0-.183.246.246,0,0,0-.141-.126.281.281,0,0,0-.344.151,6.926,6.926,0,0,1-4.875,3.744.258.258,0,0,0-.2.293A.275.275,0,0,0,368.059,2552.269Z" transform="translate(-354.938 -2535.588)" fill="#344154"/>
      <path id="Path_132879" data-name="Path 132879" d="M351.6,2534.726a.4.4,0,0,1-.29,0,.473.473,0,0,1-.28-.227.427.427,0,0,1-.025-.347,4.667,4.667,0,0,1,3.11-2.919.5.5,0,0,1,.36.044.45.45,0,0,1,.221.271h0a.434.434,0,0,1-.321.538h0a3.711,3.711,0,0,0-2.445,2.3.412.412,0,0,1-.329.344Z" transform="translate(-350.977 -2530.875)" fill="#344154"/>
    </g>
    <path id="Path_132880" data-name="Path 132880" d="M391.071,3005.932a3.208,3.208,0,0,1-1.948-.5,1.3,1.3,0,0,1-.5-1.14.713.713,0,0,1,.42-.645c1.115-.545,4.4,1.355,4.768,1.571a.217.217,0,0,1,.111.229.23.23,0,0,1-.188.18,12.778,12.778,0,0,1-2.659.3Zm-1.528-1.979a.652.652,0,0,0-.306.058.255.255,0,0,0-.153.258.881.881,0,0,0,.329.824c.558.438,1.887.509,3.66.172a10.26,10.26,0,0,0-3.515-1.312Z" transform="translate(320.459 70.36)" fill="#5ab4f9"/>
    <path id="Path_132881" data-name="Path 132881" d="M394.324,3004.7a.177.177,0,0,1-.122,0c-1.047-.538-3.056-2.632-2.865-3.686a.753.753,0,0,1,.764-.595,1.324,1.324,0,0,1,1.024.286c1.222.9,1.429,3.665,1.429,3.78a.19.19,0,0,1-.107.2.187.187,0,0,1-.122.014Zm-2.017-3.873h-.092c-.321,0-.344.172-.359.229-.13.631,1.223,2.209,2.208,2.955a5.177,5.177,0,0,0-1.215-2.991.923.923,0,0,0-.542-.186Z" transform="translate(319.82 71.251)" fill="#5ab4f9"/>
    <path id="Path_132882" data-name="Path 132882" d="M334.406,3003.753h0c-1.582.48-4.439,1.147-5.654.358a1.226,1.226,0,0,1-.573-1.047.7.7,0,0,1,.313-.638c1.146-.753,5.455.717,5.929.9a.252.252,0,0,1,.16.215.226.226,0,0,1-.176.208Zm-5.6-.975h0a.3.3,0,0,0-.122.265.8.8,0,0,0,.382.681c.68.458,2.353.373,4.546-.215-1.765-.516-4.1-1.076-4.806-.717Z" transform="translate(334.719 70.739)" fill="#5ab4f9"/>
    <path id="Path_132883" data-name="Path 132883" d="M335.072,3002.772a.291.291,0,0,1-.191,0c-1.284-.373-3.943-2.151-3.881-3.263,0-.266.16-.6.8-.717a1.827,1.827,0,0,1,1.383.237c1.406.861,1.987,3.435,2.009,3.435a.227.227,0,0,1-.069.215Zm-3.423-3.435c-.16.079-.176.172-.176.222,0,.653,1.811,2.08,3.14,2.654a5.233,5.233,0,0,0-1.7-2.783,1.3,1.3,0,0,0-1-.186.9.9,0,0,0-.267.086Z" transform="translate(334.053 71.719)" fill="#5ab4f9"/>
    <path id="Path_132884" data-name="Path 132884" d="M401.421,2605.794c-.252,3.736-.718,7.207-1.215,10.757s-1.138,7.1-1.857,10.649a119.093,119.093,0,0,1-6.258,21.278l-1.223,2.667-.306.66-.069.172-.122.251-.367.717a11.648,11.648,0,0,1-1.681,2.295,14.982,14.982,0,0,1-3.66,2.869,23.169,23.169,0,0,1-3.507,1.592,48.39,48.39,0,0,1-12.515,2.459,111.744,111.744,0,0,1-23.273-.817l.283-7.171L351,2653.6c1.8-.193,3.6-.459,5.348-.717,3.561-.488,7.09-1.04,10.452-1.772a41.417,41.417,0,0,0,8.993-2.8,4.886,4.886,0,0,0,1.964-1.434c0-.172-.351.552.1-.6l.764-2.209a136.786,136.786,0,0,0,4.516-19.305c.588-3.32,1.07-6.677,1.528-10.04s.871-6.792,1.223-10.04Z" transform="translate(330.662 183.185)" fill="#ffc3bd"/>
    <path id="Path_132885" data-name="Path 132885" d="M412.026,2594.006c4.974,7.831.726,32.472.726,32.472l-26.1-4.583s-1.421-14.105,3.56-24.935C395.614,2585.214,405.975,2584.5,412.026,2594.006Z" transform="translate(320.966 188.06)" fill="#5ab4f9"/>
    <path id="Path_132886" data-name="Path 132886" d="M311.826,2676.9l-13.845-60.455a12.816,12.816,0,0,0-12.11-9.323H232.83a12.869,12.869,0,0,1,12.11,9.323l13.837,60.455a12.87,12.87,0,0,0,12.11,9.323h53.056A12.871,12.871,0,0,1,311.826,2676.9Z" transform="translate(357.216 182.498)" fill="#344154"/>
    <path id="Path_132887" data-name="Path 132887" d="M311.826,2676.9l-13.845-60.455a12.816,12.816,0,0,0-12.11-9.323H232.83a12.869,12.869,0,0,1,12.11,9.323l13.837,60.455a12.87,12.87,0,0,0,12.11,9.323h53.056A12.871,12.871,0,0,1,311.826,2676.9Z" transform="translate(357.216 182.498)" fill="#5ab4f9" opacity="0.7"/>
    <path id="Path_900479" data-name="Path 900479" d="M0,0,14.25.083l.007,1.222L.007,1.222Z" transform="translate(567.994 2876.508) rotate(-84.86)" fill="#5ab4f9"/>
    <path id="Path_900480" data-name="Path 900480" d="M0,0,5.97.036l.007,1.222L.007,1.222Z" transform="matrix(0.092, -0.996, 0.996, 0.092, 566.022, 2889.404)" fill="#5ab4f9"/>
    <path id="Path_132888" data-name="Path 132888" d="M225.2,2607.08h53.041a10.893,10.893,0,0,0-10.872,9.323L253.6,2756.9a10.9,10.9,0,0,1-10.88,9.323h-33.1a8.726,8.726,0,0,1-9.123-8.247,8.838,8.838,0,0,1,.053-1.1L214.306,2616.4a10.91,10.91,0,0,1,10.9-9.323Z" transform="translate(364.844 182.509)" fill="#5ab4f9"/>
    <path id="Path_132889" data-name="Path 132889" d="M227.511,2816a8.035,8.035,0,0,0,1.876,6.2,9.11,9.11,0,0,0,6,3.126,10.835,10.835,0,0,0,1.184.051H183.517a8.7,8.7,0,0,1-9.108-8.233,7.788,7.788,0,0,1,.061-1.119Z" transform="translate(371 123.412)" fill="#344154"/>
    <path id="Path_132890" data-name="Path 132890" d="M227.511,2816a8.035,8.035,0,0,0,1.876,6.2,9.11,9.11,0,0,0,6,3.126,10.835,10.835,0,0,0,1.184.051H183.517a8.7,8.7,0,0,1-9.108-8.233,7.788,7.788,0,0,1,.061-1.119Z" transform="translate(371 123.412)" fill="#5ab4f9" opacity="0.7"/>
    <g id="Group_62345" data-name="Group 62345" transform="translate(573.374 2801.235)" opacity="0.5">
      <path id="Path_132891" data-name="Path 132891" d="M264.348,2627.393H228.391a1.9,1.9,0,0,1-1.971-1.807v-.23h0a2.39,2.39,0,0,1,2.369-2.037H264.7a1.9,1.9,0,0,1,1.979,1.807v.229h0A2.38,2.38,0,0,1,264.348,2627.393Z" transform="translate(-214.646 -2623.319)" fill="#6595bf" stroke="#5e6178" stroke-miterlimit="10" stroke-width="0"/>
      <path id="Path_132892" data-name="Path 132892" d="M262.885,2642.783H226.974a2.019,2.019,0,0,1-1.394-.508,1.778,1.778,0,0,1-.6-1.285v-.244h0a2.383,2.383,0,0,1,2.369-2.037h35.911a1.9,1.9,0,0,1,1.994,1.793v.244h0A2.383,2.383,0,0,1,262.885,2642.783Z" transform="translate(-214.306 -2627.673)" fill="#6595bf" stroke="#5e6178" stroke-miterlimit="10" stroke-width="0"/>
      <path id="Path_132893" data-name="Path 132893" d="M252.705,2658.16H225.589a1.9,1.9,0,0,1-1.979-1.807v-.229h0a2.389,2.389,0,0,1,2.369-2.043h27.093a1.9,1.9,0,0,1,1.987,1.8,1.343,1.343,0,0,1,0,.244h0a2.381,2.381,0,0,1-2.353,2.037Z" transform="translate(-213.983 -2632.02)" fill="#6595bf" stroke="#5e6178" stroke-miterlimit="10" stroke-width="0"/>
      <path id="Path_132894" data-name="Path 132894" d="M233.385,2673.606h-9.169a1.9,1.9,0,0,1-1.987-1.8v-.229h0a2.39,2.39,0,0,1,2.369-2.037h9.169a1.9,1.9,0,0,1,1.979,1.807v.229h0a2.39,2.39,0,0,1-2.361,2.03Z" transform="translate(-213.657 -2636.393)" fill="#6595bf" stroke="#5e6178" stroke-miterlimit="10" stroke-width="0"/>
      <path id="Path_132895" data-name="Path 132895" d="M258.692,2688.893H222.781a1.9,1.9,0,0,1-1.971-1.807v-.23h0a2.39,2.39,0,0,1,2.369-2.037h35.911a1.905,1.905,0,0,1,1.994,1.793v.244h0A2.377,2.377,0,0,1,258.692,2688.893Z" transform="translate(-213.322 -2640.715)" fill="#6595bf" stroke="#5e6178" stroke-miterlimit="10" stroke-width="0"/>
      <path id="Path_132896" data-name="Path 132896" d="M243.175,2704.27H221.384a1.912,1.912,0,0,1-1.994-1.8v-.237h0a2.4,2.4,0,0,1,2.369-2.044h21.783a1.909,1.909,0,0,1,1.987,1.822v.222h0A2.389,2.389,0,0,1,243.175,2704.27Z" transform="translate(-212.987 -2645.063)" fill="#6595bf" stroke="#5e6178" stroke-miterlimit="10" stroke-width="0"/>
      <path id="Path_132897" data-name="Path 132897" d="M255.9,2719.63H219.99a2.017,2.017,0,0,1-1.387-.523,1.775,1.775,0,0,1-.584-1.292,1.17,1.17,0,0,1,0-.229h0a2.4,2.4,0,0,1,2.369-2.036h35.865a1.917,1.917,0,0,1,1.987,1.821v.215h0a2.4,2.4,0,0,1-2.338,2.044Z" transform="translate(-212.662 -2649.408)" fill="#6595bf" stroke="#5e6178" stroke-miterlimit="10" stroke-width="0"/>
      <path id="Path_132898" data-name="Path 132898" d="M245.7,2735H218.6a1.9,1.9,0,0,1-1.987-1.793,1.27,1.27,0,0,1,0-.244h0a2.382,2.382,0,0,1,2.361-2.037h27.093a2.023,2.023,0,0,1,1.394.508,1.779,1.779,0,0,1,.6,1.285v.244h0A2.383,2.383,0,0,1,245.7,2735Z" transform="translate(-212.332 -2653.758)" fill="#6595bf" stroke="#5e6178" stroke-miterlimit="10" stroke-width="0"/>
      <path id="Path_132899" data-name="Path 132899" d="M226.415,2750.39h-9.169a1.91,1.91,0,0,1-1.987-1.822c0-.072,0-.143,0-.215h0a2.39,2.39,0,0,1,2.376-2.044H226.8a1.9,1.9,0,0,1,1.987,1.8,1.351,1.351,0,0,1,0,.244h0A2.391,2.391,0,0,1,226.415,2750.39Z" transform="translate(-212.013 -2658.109)" fill="#6595bf" stroke="#5e6178" stroke-miterlimit="10" stroke-width="0"/>
      <path id="Path_132900" data-name="Path 132900" d="M251.7,2765.741H215.785a1.9,1.9,0,0,1-1.987-1.8,1.349,1.349,0,0,1,0-.244h0a2.4,2.4,0,0,1,2.369-2.036h35.911a2.01,2.01,0,0,1,1.387.518,1.769,1.769,0,0,1,.585,1.289,1.14,1.14,0,0,1,0,.229h0a2.4,2.4,0,0,1-2.353,2.044Z" transform="translate(-211.667 -2662.451)" fill="#6595bf" stroke="#5e6178" stroke-miterlimit="10" stroke-width="0"/>
      <path id="Path_132901" data-name="Path 132901" d="M236.168,2781.113H214.385a1.9,1.9,0,0,1-1.987-1.793,1.264,1.264,0,0,1,0-.244h0a2.382,2.382,0,0,1,2.361-2.037h21.783a1.9,1.9,0,0,1,1.987,1.793,1.269,1.269,0,0,1,0,.244h0A2.375,2.375,0,0,1,236.168,2781.113Z" transform="translate(-211.336 -2666.802)" fill="#6595bf" stroke="#5e6178" stroke-miterlimit="10" stroke-width="0"/>
      <path id="Path_132902" data-name="Path 132902" d="M248.907,2796.546H213a1.9,1.9,0,0,1-1.987-1.8v-.244h0a2.377,2.377,0,0,1,2.369-2.023h35.911a1.9,1.9,0,0,1,1.979,1.807,1.016,1.016,0,0,1,0,.215h0A2.381,2.381,0,0,1,248.907,2796.546Z" transform="translate(-211.01 -2671.169)" fill="#6595bf" stroke="#5e6178" stroke-miterlimit="10" stroke-width="0"/>
    </g>
    <path id="Path_132903" data-name="Path 132903" d="M346.333,2672.094l-7.793-6.354-3.66,11.7s7.916,4.031,10.651.33Z" transform="translate(333.137 165.916)" fill="#ffc3bd"/>
    <path id="Path_132904" data-name="Path 132904" d="M698.787,2877.76l-2.537,9.811,7.373,2.345,3.645-11.7Z" transform="translate(-35.59 -46.563)" fill="#ffc3bd"/>
  </g>
</svg>
