<svg id="Group_1111583" data-name="Group 1111583" xmlns="http://www.w3.org/2000/svg" width="217.5" height="536.066" viewBox="0 0 217.5 536.066">
  <g id="Group_58782" data-name="Group 58782">
    <g id="Group_58778" data-name="Group 58778">
      <rect id="Rectangle_9129" data-name="Rectangle 9129" width="216.792" height="247.426" transform="translate(0.225 0.605)" fill="#fafafa"/>
      <path id="Path_111407" data-name="Path 111407" d="M13774.7,9622.052v-17.963c0-11.669,0-28.771-.084-50.473,0-43.389-.1-105.192-.156-178.976l.326.325h-216.779l.367-.367v247.412l-.311-.31,157.248.169h44.08l-43.883.084-157.443.156h-.326V9374.021h217.5v.325c-.07,73.867-.127,135.757-.17,179.2,0,21.675,0,38.733-.084,50.4v16.973A3.6,3.6,0,0,0,13774.7,9622.052Z" transform="translate(-13557.74 -9374.021)" fill="#344154"/>
    </g>
    <g id="Group_58781" data-name="Group 58781" transform="translate(17.58 20.387)">
      <rect id="Rectangle_9130" data-name="Rectangle 9130" width="175.618" height="140.893" fill="#839eb6"/>
      <g id="Group_58780" data-name="Group 58780" transform="translate(12.276 17.849)">
        <g id="Group_58779" data-name="Group 58779">
          <rect id="Rectangle_9131" data-name="Rectangle 9131" width="5.757" height="1.665" transform="translate(0 97.999)" fill="#344154"/>
          <rect id="Rectangle_9132" data-name="Rectangle 9132" width="7.366" height="1.665" transform="translate(12.98 106.873)" fill="#344154"/>
          <rect id="Rectangle_9133" data-name="Rectangle 9133" width="7.366" height="1.665" transform="translate(38.662 106.873)" fill="#344154"/>
          <rect id="Rectangle_9134" data-name="Rectangle 9134" width="7.366" height="1.665" transform="translate(64.343 106.873)" fill="#344154"/>
          <rect id="Rectangle_9135" data-name="Rectangle 9135" width="7.366" height="1.665" transform="translate(90.024 106.873)" fill="#344154"/>
          <rect id="Rectangle_9136" data-name="Rectangle 9136" width="7.366" height="1.665" transform="translate(115.705 106.873)" fill="#344154"/>
          <rect id="Rectangle_9137" data-name="Rectangle 9137" width="7.366" height="1.665" transform="translate(141.245 106.873)" fill="#344154"/>
          <rect id="Rectangle_9138" data-name="Rectangle 9138" width="5.757" height="1.665" transform="translate(0 75.816)" fill="#344154"/>
          <rect id="Rectangle_9139" data-name="Rectangle 9139" width="5.757" height="1.665" transform="translate(0 34.063)" fill="#344154"/>
          <rect id="Rectangle_9140" data-name="Rectangle 9140" width="5.757" height="1.665" transform="translate(0 13.081)" fill="#344154"/>
          <rect id="Rectangle_9141" data-name="Rectangle 9141" width="5.757" height="1.665" transform="translate(0.281 54.933)" fill="#344154"/>
          <path id="Path_111408" data-name="Path 111408" d="M13724.922,9500.783a5.3,5.3,0,0,1-.623,0h-1.807l-6.984.07-25.639.112-84.662.113h-20.418v-.353c0-28.221.1-53.183.127-71.061,0-8.89.084-16.015.113-20.982v-7.056a2.009,2.009,0,0,1,0-.508,1.937,1.937,0,0,1,0,.51c0,.352,0,.831,0,1.409v5.645c0,4.966,0,12.093.113,20.982,0,17.864,0,42.768.127,71.061l-.367-.366h20.051l84.662.1,25.639.127h8.793A3.445,3.445,0,0,1,13724.922,9500.783Z" transform="translate(-13576.479 -9401.12)" fill="#344154"/>
          <path id="Path_111409" data-name="Path 111409" d="M13724.855,9440.746c0,.213-30.395.367-67.887.367s-67.9-.156-67.9-.367,30.393-.365,67.9-.365S13724.855,9440.549,13724.855,9440.746Z" transform="translate(-13574.722 -9384.982)" fill="#344154"/>
          <path id="Path_111410" data-name="Path 111410" d="M13724.855,9425.957c0,.2-30.395.366-67.887.366s-67.9-.169-67.9-.366,30.393-.366,67.9-.366S13724.855,9425.746,13724.855,9425.957Z" transform="translate(-13574.722 -9391.062)" fill="#344154"/>
          <path id="Path_111411" data-name="Path 111411" d="M13724.855,9411.107c0,.2-30.395.366-67.887.366s-67.9-.17-67.9-.366,30.393-.367,67.9-.367S13724.855,9410.867,13724.855,9411.107Z" transform="translate(-13574.722 -9397.165)" fill="#344154"/>
          <path id="Path_111412" data-name="Path 111412" d="M13724.855,9455.548c0,.2-30.395.366-67.887.366s-67.9-.169-67.9-.366,30.393-.366,67.9-.366S13724.855,9455.336,13724.855,9455.548Z" transform="translate(-13574.722 -9378.898)" fill="#344154"/>
          <path id="Path_111413" data-name="Path 111413" d="M13590,9495.828v-18.514l11.541-17.92,7.846,6.012,16.07-24.99,9.482,6.689,13.193-23.043,10.723,8.734,16.086-30.576,17.314,34.174,14.01-17.1,16.5-4.713v81.248Z" transform="translate(-13574.338 -9400.668)" fill="#5e6178"/>
        </g>
        <path id="Path_111414" data-name="Path 111414" d="M13724.449,9406.432h-4.5l-12.7.1h.168l-13.545,17.738-.084.113h-34.09l.3-.17c-4.473,7.436-9.285,15.521-14.266,23.762l-14.027,23.3-.268.451-.311-.424-18.344-25.3h.492l-16.8,26.117-4.7,7.211c-.521.8-.945,1.412-1.242,1.891a2.812,2.812,0,0,1-.465.623l.381-.678,1.17-1.92,4.572-7.309,16.58-26.26.24-.367.254.352,18.471,25.23h-.594c4.445-7.395,9.145-15.211,14-23.311s9.877-16.311,14.293-23.748l.113-.168h34.146l-.227.111,13.674-17.637v-.084h.1l12.7.1h4.205A.738.738,0,0,0,13724.449,9406.432Z" transform="translate(-13574.314 -9399.093)" fill="#5ab4f9"/>
        <path id="Path_111415" data-name="Path 111415" d="M13611.064,9438.866a1.313,1.313,0,1,1-1.311-1.254,1.285,1.285,0,0,1,1.309,1.254Z" transform="translate(-13566.758 -9386.12)" fill="#5ab4f9"/>
        <path id="Path_111416" data-name="Path 111416" d="M13638.766,9423.1a1.314,1.314,0,1,1-1.3-1.255A1.287,1.287,0,0,1,13638.766,9423.1Z" transform="translate(-13555.372 -9392.603)" fill="#5ab4f9"/>
        <path id="Path_111417" data-name="Path 111417" d="M13660.363,9419.216a1.311,1.311,0,1,1-1.311-1.254A1.284,1.284,0,0,1,13660.363,9419.216Z" transform="translate(-13546.493 -9394.197)" fill="#5ab4f9"/>
      </g>
    </g>
    <path id="Path_111418" data-name="Path 111418" d="M13737.221,9503.267c0,.213-37.055.381-82.758.381s-82.773-.17-82.773-.381,37.055-.366,82.773-.366S13737.221,9503.041,13737.221,9503.267Z" transform="translate(-13552.008 -9321.047)" fill="#344154"/>
    <path id="Path_111419" data-name="Path 111419" d="M13737.221,9509.617c0,.2-37.055.366-82.758.366s-82.773-.169-82.773-.366,37.055-.366,82.773-.366S13737.221,9509.406,13737.221,9509.617Z" transform="translate(-13552.008 -9318.438)" fill="#344154"/>
    <path id="Path_111420" data-name="Path 111420" d="M13737.221,9515.957c0,.2-37.055.366-82.758.366s-82.773-.17-82.773-.366,37.055-.367,82.773-.367S13737.221,9515.76,13737.221,9515.957Z" transform="translate(-13552.008 -9315.831)" fill="#344154"/>
    <path id="Path_111421" data-name="Path 111421" d="M13737.221,9522.3c0,.213-37.055.367-82.758.367s-82.773-.156-82.773-.367,37.055-.366,82.773-.366S13737.221,9522.1,13737.221,9522.3Z" transform="translate(-13552.008 -9313.225)" fill="#344154"/>
  </g>
  <g id="Group_58795" data-name="Group 58795" transform="translate(37.049 151.464)">
    <g id="Group_58786" data-name="Group 58786" transform="translate(17.836)">
      <g id="Group_58785" data-name="Group 58785">
        <path id="Path_111422" data-name="Path 111422" d="M13641.063,9534.257c-4.529-7.6-5.857-17.737-7.057-26.514-.535-4.12-1.51-10,1.412-12.6s3.387-7.056,6.955-9.186a10.982,10.982,0,0,1,11.8.1" transform="translate(-13598.328 -9480.163)" fill="#344154"/>
        <g id="Group_58784" data-name="Group 58784" transform="translate(39.824)">
          <g id="Group_58783" data-name="Group 58783">
            <path id="Path_111423" data-name="Path 111423" d="M13626.447,9559.979h0a12.218,12.218,0,0,0,13.15-11.711c.254-6.646.48-13.379.48-13.379s10.074-.943,10.809-10.92.395-33,.395-33h0a34.753,34.753,0,0,0-35.137,2.258l.623,35.105v18.893C13616.852,9553.559,13620.1,9559.5,13626.447,9559.979Z" transform="translate(-13610.977 -9478.946)" fill="#ffbf9d"/>
            <path id="Path_111424" data-name="Path 111424" d="M13640.127,9514.207a5.106,5.106,0,0,0-6.814-1.41,5.781,5.781,0,0,0-1.934,7.238,7.692,7.692,0,0,0,4.895,3.709,3.838,3.838,0,0,1,3.008,4.121c-.3,2.5-4.461,3.445-6.338,5.518-2.922,3.219-9.342,4.586-13.674,5.1s-3.725.549-6.193-2.949a13.288,13.288,0,0,1-2.428-8.1l-.465-22.068a31.735,31.735,0,0,1,.508-7.916,10.636,10.636,0,0,1,4.234-6.549c2.426-1.594,5.5-1.719,8.254-2.623,3.457-1.115,6.393-3.4,9.623-5.066s7.2-2.639,10.441-1c2.33,1.158,3.895,3.486,6.168,4.783,3.217,1.834,7.6,1.412,9.172,6.152a7.936,7.936,0,0,1,0,5.08c-2.187,6.449-10.174,9.045-15.932,6.266-.113,1.086.959,3.527-.184,6.971-.365,1.1-.508,2.822-2.229,2.822" transform="translate(-13610.124 -9481.363)" fill="#344154"/>
          </g>
          <path id="Path_111425" data-name="Path 111425" d="M13628.685,9510.463a1.692,1.692,0,0,1-1.256.48,2.342,2.342,0,0,1-1.863-2.271,2.5,2.5,0,0,1,1.707-2.484c.832-.309,1.412-.154,1.412-.268s-.551-.453-1.58-.24a3.049,3.049,0,0,0-1.568.9,2.951,2.951,0,0,0-.732,2.119,2.82,2.82,0,0,0,2.6,2.822,1.49,1.49,0,0,0,1.115-.566A1.039,1.039,0,0,0,13628.685,9510.463Z" transform="translate(-13600.517 -9471.397)" fill="#ff9a6c"/>
          <path id="Path_111426" data-name="Path 111426" d="M13648.617,9488.354a3.412,3.412,0,0,0-.832-.846,6.626,6.626,0,0,0-3.033-1.186,8.743,8.743,0,0,0-4.773.732,10.81,10.81,0,0,0-4.4,3.938,22.138,22.138,0,0,0-3.105,10.09,26.66,26.66,0,0,0-.268,4.359,24.519,24.519,0,0,0,.787-4.232,23.942,23.942,0,0,1,3.189-9.75,10.642,10.642,0,0,1,4.078-3.74,8.174,8.174,0,0,1,8.355.635Z" transform="translate(-13630.891 -9479.355)" fill="#5e6178"/>
          <path id="Path_111427" data-name="Path 111427" d="M13634.4,9499.19h.381a3.028,3.028,0,0,0,.988-.452,3.645,3.645,0,0,0,1.158-1.3,3.3,3.3,0,0,0,.309-2.313,3.8,3.8,0,0,0-1.605-2.329,5.549,5.549,0,0,0-3.162-.621,4.372,4.372,0,0,1-3.02-.763,21.894,21.894,0,0,1-2.43-2.623,12.516,12.516,0,0,0-6.219-3.586,13.069,13.069,0,0,0-5.842-.125,11.32,11.32,0,0,0-3.684,1.409,4.215,4.215,0,0,0-1.145.877,17.545,17.545,0,0,1,4.912-1.779,13.491,13.491,0,0,1,5.645.269,12.128,12.128,0,0,1,5.828,3.427,19.887,19.887,0,0,0,2.553,2.71,4.169,4.169,0,0,0,1.721.775,8.011,8.011,0,0,0,1.736.085,5.015,5.015,0,0,1,2.824.466,3.16,3.16,0,0,1,.295,5.192,8.341,8.341,0,0,1-1.244.678Z" transform="translate(-13588.455 -9479.948)" fill="#5e6178"/>
          <path id="Path_111428" data-name="Path 111428" d="M13630.2,9523.725a14.263,14.263,0,0,1-1.312-.8,8.244,8.244,0,0,1-2.723-3.034,7.556,7.556,0,0,1-.451-5.84,7.42,7.42,0,0,1,1.807-2.991,14.071,14.071,0,0,1,3.117-2.288c1.172-.678,2.357-1.312,3.43-2.046a11.683,11.683,0,0,0,2.82-2.6,12.134,12.134,0,0,0,2.344-5.911,11.065,11.065,0,0,0-.34-4.234,5.37,5.37,0,0,0-.395-1.086c-.113-.238-.184-.365-.2-.352a15.111,15.111,0,0,1,.412,5.645,11.912,11.912,0,0,1-2.361,5.56,11.114,11.114,0,0,1-2.623,2.427c-1.045.705-2.217,1.312-3.4,2a15.13,15.13,0,0,0-3.275,2.414,8.136,8.136,0,0,0-1.934,3.3,7.969,7.969,0,0,0,3.668,9.329A3.69,3.69,0,0,0,13630.2,9523.725Z" transform="translate(-13611.066 -9476.771)" fill="#5e6178"/>
          <path id="Path_111429" data-name="Path 111429" d="M13626.673,9509.344a4.337,4.337,0,0,0,1.283.3,18.557,18.557,0,0,0,3.6.1,22.081,22.081,0,0,0,11.117-3.823,17.577,17.577,0,0,0,7.309-9.186,7.639,7.639,0,0,0,.143-3.612,2.814,2.814,0,0,0-.494-1.228,8.907,8.907,0,0,1-.154,4.7,17.978,17.978,0,0,1-7.213,8.721,23.293,23.293,0,0,1-10.752,3.922C13628.509,9509.557,13626.673,9509.2,13626.673,9509.344Z" transform="translate(-13624.75 -9477.036)" fill="#5e6178"/>
        </g>
        <path id="Path_111430" data-name="Path 111430" d="M13683.6,9501.233a17.588,17.588,0,0,0-13.758-6.223,12.7,12.7,0,0,0-11.527,8.932c-.959,3.8.2,7.761.691,11.655s0,8.466-3.146,10.724c-1.92,1.411-4.389,1.65-6.689,2.2s-4.742,1.707-5.531,3.937c-.9,2.554.945,5.461,3.43,6.533a12.564,12.564,0,0,0,7.986.113,6.684,6.684,0,0,0,2.963,8,8.861,8.861,0,0,0,8.863-.382,13.2,13.2,0,0,0,5.4-7.322c1.709,2.992,6.2,3.627,9.074,1.722a9.522,9.522,0,0,0,3.67-9.13,17.739,17.739,0,0,0-4.6-9.115,23.019,23.019,0,0,1-3.2-4.092,5.184,5.184,0,0,1-.211-4.98,3.021,3.021,0,0,1,4.447-.892" transform="translate(-13643.403 -9475.755)" fill="#344154"/>
      </g>
      <path id="Path_111431" data-name="Path 111431" d="M13643.529,9510.863a3.378,3.378,0,0,0,2.992,0,7.189,7.189,0,0,0,4.346-5.646,7.394,7.394,0,0,0-.467-4.047,7.629,7.629,0,0,0-1.918-2.711,5.106,5.106,0,0,0-2.627-1.41,25.059,25.059,0,0,1,2.258,1.832,7.4,7.4,0,0,1,2.033,6.281,7.053,7.053,0,0,1-3.824,5.3A6.96,6.96,0,0,1,13643.529,9510.863Z" transform="translate(-13609.402 -9474.915)" fill="#5ab4f9"/>
      <path id="Path_111432" data-name="Path 111432" d="M13616.2,9523.682a4.69,4.69,0,0,0,2.285-.226,12.14,12.14,0,0,0,4.855-2.626,11.918,11.918,0,0,0,3.219-4.5,4.67,4.67,0,0,0,.506-2.229,14.049,14.049,0,0,0-.975,2,14.446,14.446,0,0,1-3.23,4.233,14.253,14.253,0,0,1-4.529,2.68A16.561,16.561,0,0,0,13616.2,9523.682Z" transform="translate(-13546.937 -9467.909)" fill="#ff9a6c"/>
      <path id="Path_111433" data-name="Path 111433" d="M13647.8,9536.936a2.488,2.488,0,0,0,.494-.07,5.185,5.185,0,0,0,1.3-.579,7.054,7.054,0,0,0,2.824-4.317,9.112,9.112,0,0,0,.127-3.627,14.665,14.665,0,0,0-1.326-3.924c-1.258-2.638-3.232-5.135-4.7-8.028a14.19,14.19,0,0,1-1.412-4.445,8.566,8.566,0,0,1,5.547-9.242,9.156,9.156,0,0,1,4.938-.309c1.172.238,1.764.577,1.793.507s-.127-.113-.41-.269a6.68,6.68,0,0,0-1.312-.523,8.872,8.872,0,0,0-10.707,5.35,9.188,9.188,0,0,0-.566,4.585,14.922,14.922,0,0,0,1.535,4.67c1.525,3.006,3.516,5.476,4.758,8a10.67,10.67,0,0,1,1.3,7.14,7.063,7.063,0,0,1-2.5,4.232A13.929,13.929,0,0,1,13647.8,9536.936Z" transform="translate(-13616.924 -9472.978)" fill="#5e6178"/>
      <path id="Path_111434" data-name="Path 111434" d="M13644.379,9544.64a1.746,1.746,0,0,0,.621,0,7.133,7.133,0,0,0,1.779-.324,10.066,10.066,0,0,0,5.207-4.05,15.389,15.389,0,0,0,2.229-9.512,94.354,94.354,0,0,0-1.918-11.812,27.932,27.932,0,0,1-.426-6.065,15.841,15.841,0,0,1,1.285-5.462,9.875,9.875,0,0,1,7.055-5.842,14.622,14.622,0,0,1,6.42,0c1.512.339,2.3.679,2.33.606a2.708,2.708,0,0,0-.549-.284,11.063,11.063,0,0,0-1.711-.589,13.956,13.956,0,0,0-6.6-.257,10.651,10.651,0,0,0-4.23,1.892,10.846,10.846,0,0,0-3.289,4.233,16.274,16.274,0,0,0-1.41,5.645,27.461,27.461,0,0,0,.42,6.236,105.663,105.663,0,0,1,1.959,11.74,15.076,15.076,0,0,1-1.984,9.185,10.123,10.123,0,0,1-4.857,4.066,16.194,16.194,0,0,1-2.328.591Z" transform="translate(-13628.596 -9473.386)" fill="#5e6178"/>
    </g>
    <path id="Path_111435" data-name="Path 111435" d="M14033.162,9776.721l21.166,16.565-8.889,14.646-25.539-18.851Z" transform="translate(-14002.507 -9660.033)" fill="#ffbf9d"/>
    <path id="Path_111436" data-name="Path 111436" d="M13587.183,9528.79s-.113-1.764,4.529-2.017,5.15-.184,5.15-.184a11.791,11.791,0,0,0,2.217-4.234,12.838,12.838,0,0,0-1-4.358l-4.686-.437,1.27-3.188,3.316.24,9.328,1.114,3.711,16.34,25.482,47.553a12.278,12.278,0,0,1-4.867,17.879h0c-6.59,3.188-15.408-3.57-17.85-10.47l-14.111-52.887-4.965-3.88-7.057-1.3" transform="translate(-13499.66 -9467.796)" fill="#ffbf9d"/>
    <path id="Path_111437" data-name="Path 111437" d="M13690.6,9816.293l-34.684-199.549h0c-.084-.3-.154-.58-.225-.861h0c-5.9-23.4-15-30.9-15-30.9l-53.07,3.33c-4.516,8.113-5.094,27.572-5.094,27.572-.621,2.385,11.219,195.738,11.219,195.738l17.75-.492,9.625-182.928,51.658,188.9Z" transform="translate(-13545.083 -9438.773)" fill="#ffbf9d"/>
    <g id="Group_58790" data-name="Group 58790" transform="translate(127.452 377.505)">
      <g id="Group_58788" data-name="Group 58788" transform="translate(0.227)">
        <path id="Path_111438" data-name="Path 111438" d="M13591.633,9750.707V9748.9l-18.26.521.156,5.955h1.129c5.021.127,25.555.309,28.883-.734C13607.154,9753.514,13591.633,9750.707,13591.633,9750.707Z" transform="translate(-13573.373 -9748.9)" fill="#5ab4f9"/>
        <g id="Group_58787" data-name="Group 58787" transform="translate(0.029 1.488)" opacity="0.6">
          <path id="Path_111439" data-name="Path 111439" d="M13597.061,9754.633a5.858,5.858,0,0,0-2.428-3.541,6.519,6.519,0,0,0-4.232-1.113l.141,4.711Z" transform="translate(-13590.4 -9749.955)" fill="#fff"/>
        </g>
      </g>
      <g id="Group_58789" data-name="Group 58789" transform="translate(0.329 3.43)" opacity="0.6">
        <path id="Path_111440" data-name="Path 111440" d="M13599.143,9751.33s5.447,1.313,4.8,2.16-21.4,1.41-30.576.889V9754l24.213-.451S13598.154,9751.4,13599.143,9751.33Z" transform="translate(-13573.363 -9751.33)" fill="#fff"/>
      </g>
      <path id="Path_111441" data-name="Path 111441" d="M13573.441,9753.439a.83.83,0,0,0,.311,0l.9,0h3.3c2.822,0,6.66,0,10.922-.1s8.115-.3,10.908-.452l3.3-.227h1.2a1.1,1.1,0,0,0-.311,0h-.9l-3.3.141c-2.822.127-6.645.283-10.908.4s-8.113.156-10.908.17h-4.516Z" transform="translate(-13573.439 -9747.357)" fill="#344154"/>
      <path id="Path_111442" data-name="Path 111442" d="M13576.748,9753.855a5.56,5.56,0,0,1,.566-1.411,8.109,8.109,0,0,1,1.086-1.214,2.5,2.5,0,0,0-1.271,1.1A2.148,2.148,0,0,0,13576.748,9753.855Z" transform="translate(-13552.194 -9747.942)" fill="#344154"/>
      <path id="Path_111443" data-name="Path 111443" d="M13581.144,9751.806a3.661,3.661,0,0,0,.551-.663c.254-.394.422-.732.365-.762s-.295.269-.549.663A2.916,2.916,0,0,0,13581.144,9751.806Z" transform="translate(-13562.091 -9748.291)" fill="#344154"/>
      <path id="Path_111444" data-name="Path 111444" d="M13582.008,9751.2a2.8,2.8,0,0,0,.635-.408c.311-.27.508-.523.48-.564s-.326.139-.637.408A1.783,1.783,0,0,0,13582.008,9751.2Z" transform="translate(-13564.367 -9748.359)" fill="#344154"/>
      <path id="Path_111445" data-name="Path 111445" d="M13582.159,9749.84a4.592,4.592,0,0,0,1.893-.029c0-.07-.426-.1-.947-.1A2.357,2.357,0,0,0,13582.159,9749.84Z" transform="translate(-13565.507 -9748.568)" fill="#344154"/>
      <path id="Path_111446" data-name="Path 111446" d="M13582.269,9749a2.037,2.037,0,0,0,1.059.254,1.989,1.989,0,0,0,1.1-.17,6.72,6.72,0,0,0-1.086,0,5.164,5.164,0,0,0-1.076-.084Z" transform="translate(-13566.04 -9748.858)" fill="#344154"/>
      <path id="Path_111447" data-name="Path 111447" d="M13578.9,9750.787a4.024,4.024,0,0,0,1.156,0,7.04,7.04,0,0,0,1.244-.282,3.32,3.32,0,0,0,.7-.3.63.63,0,0,0,.281-.338.424.424,0,0,0-.2-.437,2.244,2.244,0,0,0-2.625.649,1.778,1.778,0,0,0-.369.748c0,.184,0,.282,0,.282a2.826,2.826,0,0,1,.494-.932,2.2,2.2,0,0,1,.988-.635,1.912,1.912,0,0,1,1.41,0c.184.127.113.325-.084.452a4.6,4.6,0,0,1-.648.269,8.536,8.536,0,0,1-1.2.326C13579.318,9750.744,13578.9,9750.744,13578.9,9750.787Z" transform="translate(-13559.138 -9748.755)" fill="#344154"/>
      <path id="Path_111448" data-name="Path 111448" d="M13582.571,9750.975a1.018,1.018,0,0,0,.113-.762,1.657,1.657,0,0,0-.34-.773,1.191,1.191,0,0,0-.986-.539.446.446,0,0,0-.352.521,1.324,1.324,0,0,0,.211.48,3.574,3.574,0,0,0,.578.637,1.558,1.558,0,0,0,.676.42,5.44,5.44,0,0,1-.562-.52,3.474,3.474,0,0,1-.51-.637c-.168-.225-.295-.635,0-.691s.594.227.777.438a1.555,1.555,0,0,1,.352.691A4.846,4.846,0,0,1,13582.571,9750.975Z" transform="translate(-13562.532 -9748.9)" fill="#344154"/>
      <path id="Path_111449" data-name="Path 111449" d="M13590.37,9749.982h1.41a6.1,6.1,0,0,1,2.965,1.044,5.545,5.545,0,0,1,1.9,2.357c.3.719.342,1.2.383,1.2a.993.993,0,0,0,0-.34,4,4,0,0,0-.227-.917,5.363,5.363,0,0,0-1.92-2.469,5.9,5.9,0,0,0-3.09-1.031,4.863,4.863,0,0,0-.99,0,1.433,1.433,0,0,0-.432.157Z" transform="translate(-13590.084 -9748.53)" fill="#344154"/>
      <path id="Path_111450" data-name="Path 111450" d="M13585.03,9752.089a12.067,12.067,0,0,0,2.666.17,10.98,10.98,0,0,0,2.654-.27h-2.654A14.357,14.357,0,0,0,13585.03,9752.089Z" transform="translate(-13575.855 -9747.63)" fill="#344154"/>
      <path id="Path_111451" data-name="Path 111451" d="M13590.918,9752.122s.1.227.227.479.211.466.268.466.084-.269-.07-.55S13590.918,9752.08,13590.918,9752.122Z" transform="translate(-13585.271 -9747.578)" fill="#344154"/>
      <path id="Path_111452" data-name="Path 111452" d="M13591.793,9751a1.216,1.216,0,0,0,.281.4c.2.184.381.268.424.225s-.084-.211-.27-.379A1.261,1.261,0,0,0,13591.793,9751Z" transform="translate(-13587.557 -9748.036)" fill="#344154"/>
      <path id="Path_111453" data-name="Path 111453" d="M13592.963,9750.6c0,.07.254,0,.521.141s.467.2.51.17-.113-.283-.437-.367A.679.679,0,0,0,13592.963,9750.6Z" transform="translate(-13590.703 -9748.239)" fill="#344154"/>
      <path id="Path_111454" data-name="Path 111454" d="M13594.311,9750.369a.512.512,0,0,0,.24.2.531.531,0,0,0,.311,0,.389.389,0,0,0-.24-.184C13594.465,9750.34,13594.311,9750.326,13594.311,9750.369Z" transform="translate(-13593.462 -9748.308)" fill="#344154"/>
    </g>
    <g id="Group_58791" data-name="Group 58791" transform="translate(0 65.609)">
      <path id="Path_111455" data-name="Path 111455" d="M13702.162,9528.57a35.009,35.009,0,0,0-14.111,5.531c-16.775,10.879-44.842,33.865-42.514,44.547,1.977,9.072,23.875,20.08,23.875,20.08l14.209-17.1-8.719-4.982,21.434-14.25Z" transform="translate(-13645.401 -9527.568)" fill="#344154"/>
      <path id="Path_111456" data-name="Path 111456" d="M13596,9563.5l.691,2.553,2.471,11.781.605,17.285c-12.7,16.4-12.926,30.2-12.926,30.2l64.3,7.508c0-12.7-4.643-28.687-4.643-28.687-3.711-6.322-3.541-25.2-2.822-25.891,4.008-3.98,4.98-6.9,1.777-11.994,0,0,19.938,20.939,21.984,22.816,7.055,6.463,13.814,4.656,16.932,1.848,8.807-7.846-.225-17.992-.225-17.992l-33.582-38.477a16.758,16.758,0,0,0-8.721-5.32,72.391,72.391,0,0,0-7.2-1.27l-22.422.184a37.844,37.844,0,0,0-6.674.818,16.005,16.005,0,0,0-9.793,12.133C13593.742,9550.635,13596,9563.5,13596,9563.5Z" transform="translate(-13548.833 -9527.861)" fill="#344154"/>
      <path id="Path_111457" data-name="Path 111457" d="M13649.635,9542.2a8.271,8.271,0,0,0-.143,1.862c0,1.2,0,2.936.129,5.08a133.406,133.406,0,0,0,2.217,16.623c.408,2.2.859,4.3,1.326,6.265h0c.2,5,.395,9.313.564,12.39.084,1.411.17,2.625.227,3.6a5.376,5.376,0,0,0,.17,1.284,4.813,4.813,0,0,0,0-1.3v-3.6c0-3.075-.156-7.394-.311-12.389v-.07c-.437-1.947-.875-4.063-1.285-6.251-1.227-6.406-2.045-12.262-2.426-16.522-.184-2.131-.283-3.854-.354-5.052a9.875,9.875,0,0,0-.117-1.92Z" transform="translate(-13603.176 -9521.967)" fill="#5e6178"/>
      <path id="Path_111458" data-name="Path 111458" d="M13675.814,9554.451a130.886,130.886,0,0,0-11.725,7.677,137.829,137.829,0,0,0-11.289,8.269,130.216,130.216,0,0,0,11.74-7.677,135.681,135.681,0,0,0,11.271-8.271Z" transform="translate(-13629.495 -9516.932)" fill="#5e6178"/>
      <path id="Path_111459" data-name="Path 111459" d="M13615.72,9536.59s-.141,0-.34.24a9.346,9.346,0,0,0-.8.875,10.136,10.136,0,0,0-1.734,3.993,13.136,13.136,0,0,0,.365,6.434,25.87,25.87,0,0,0,3.609,7.056,24,24,0,0,0,2.654,3.119c.932.944,1.934,1.735,2.822,2.524,1.777,1.595,3.3,3.118,4.572,4.4s2.271,2.355,2.963,3.1a7.7,7.7,0,0,0,1.129,1.113,5.984,5.984,0,0,0-.92-1.3c-.619-.8-1.564-1.934-2.82-3.274s-2.738-2.906-4.5-4.543c-.889-.832-1.863-1.623-2.822-2.539a25.735,25.735,0,0,1-2.568-3.035,27.1,27.1,0,0,1-3.555-6.784,13.208,13.208,0,0,1-.51-6.154A11.319,11.319,0,0,1,13615.72,9536.59Z" transform="translate(-13527.917 -9524.272)" fill="#5e6178"/>
      <path id="Path_111460" data-name="Path 111460" d="M14033.69,9792.047l-.705-8.636H13989.1l.283,6.745Z" transform="translate(-13938.407 -9722.892)" fill="#5e6178"/>
      <path id="Path_111461" data-name="Path 111461" d="M13592.6,9559.36" transform="translate(-13461.335 -9514.913)" fill="none" stroke="#7a9198" stroke-miterlimit="10" stroke-width="0.05" opacity="0"/>
      <path id="Path_111462" data-name="Path 111462" d="M13588.254,9558.6a33.709,33.709,0,0,1,2.443,2.54,11.682,11.682,0,0,1-.623,15.325,34.55,34.55,0,0,1-2.637,2.328,1.831,1.831,0,0,0,.9-.367,9.618,9.618,0,0,0,2.1-1.607,11.573,11.573,0,0,0,.65-16,10.333,10.333,0,0,0-1.961-1.776C13588.537,9558.7,13588.254,9558.561,13588.254,9558.6Z" transform="translate(-13455.438 -9515.228)" fill="#5e6178"/>
    </g>
    <g id="Group_58792" data-name="Group 58792" transform="translate(43.78 372.299)">
      <path id="Path_111463" data-name="Path 111463" d="M14014.438,9958.363l-4.937,11.571,22.293-.268.424-11.8Z" transform="translate(-14009.5 -9957.87)" fill="#5ab4f9"/>
      <path id="Path_111464" data-name="Path 111464" d="M13659.965,9752.239a21.1,21.1,0,0,1-3.1.17h-7.537l-7.508-.156a27.022,27.022,0,0,1-3.117-.155,20.785,20.785,0,0,1,3.117-.156h7.521l7.521.156a24.769,24.769,0,0,1,3.1.141Z" transform="translate(-13637.53 -9742.447)" fill="#344154"/>
      <path id="Path_111465" data-name="Path 111465" d="M13645.888,9745.38a15.615,15.615,0,0,1,.084,4.7,15.886,15.886,0,0,1-.605,4.654,15.475,15.475,0,0,1-.086-4.7A15.707,15.707,0,0,1,13645.888,9745.38Z" transform="translate(-13632.765 -9745.141)" fill="#344154"/>
      <path id="Path_111466" data-name="Path 111466" d="M14009.7,9967.425l22.293-.748.141-2.116-21.307.185-1.127,2.427" transform="translate(-14009.7 -9955.121)" fill="#fff" opacity="0.6"/>
    </g>
    <g id="Group_58794" data-name="Group 58794" transform="translate(32.917 132.872)">
      <path id="Path_111467" data-name="Path 111467" d="M13582.759,9594.537c-16.75,52.844,4.84,116.99-.34,178.567-.508,6.053-2.963,13.292,2.7,16.735a9.331,9.331,0,0,0,5.109,1.241c4.516-.141,8.3-2.5,12.332-4.106a36.554,36.554,0,0,1,24.27-.933c5.334,1.666,10.641,4.6,16.172,3.769,7.352-1.114,12.105-8.382,18.865-11.458,6.336-2.821,13.645-1.806,20.6-1.976h.213a15.621,15.621,0,0,0,14.422-19.756c-10.119-37.024-43.631-157.273-58.475-179.2l-44.365-1.891C13590.237,9580.427,13585.017,9587.849,13582.759,9594.537Z" transform="translate(-13576.271 -9575.529)" fill="#5ab4f9"/>
      <path id="Path_111468" data-name="Path 111468" d="M13632.27,9606.66a19.766,19.766,0,0,0,2.412,3.035,68.871,68.871,0,0,0,6.549,6.7,44.733,44.733,0,0,0,7.732,5.32,16.765,16.765,0,0,0,3.527,1.621c.156-.252-5.277-2.82-10.779-7.506-2.723-2.369-4.967-4.781-6.646-6.49A19.832,19.832,0,0,0,13632.27,9606.66Z" transform="translate(-13610.121 -9562.734)" fill="#344154"/>
      <g id="Group_58793" data-name="Group 58793" transform="translate(41.622 63.879)" opacity="0.1">
        <path id="Path_111469" data-name="Path 111469" d="M13614.242,9620.8a188.913,188.913,0,0,1,7.434,113.109c-.787,3.217-1.605,6.9.242,9.664,2.369,3.584,8.141,3.344,11.4.523s4.559-7.24,5.377-11.473c6.1-31.521-4.939-63.2-16.85-93.016" transform="translate(-13614.242 -9620.801)" fill="#5ab4f9"/>
      </g>
    </g>
  </g>
</svg>
