<svg xmlns="http://www.w3.org/2000/svg" xmlns:xlink="http://www.w3.org/1999/xlink" width="113" height="113" viewBox="0 0 113 113">
  <defs>
    <filter id="Path_896985" x="0" y="0" width="113" height="113" filterUnits="userSpaceOnUse">
      <feOffset dy="3" input="SourceAlpha"/>
      <feGaussianBlur stdDeviation="3" result="blur"/>
      <feFlood flood-opacity="0.161"/>
      <feComposite operator="in" in2="blur"/>
      <feComposite in="SourceGraphic"/>
    </filter>
  </defs>
  <g id="Group_1111744" data-name="Group 1111744" transform="translate(-1163.051 -4873)">
    <g id="Group_1111319" data-name="Group 1111319" transform="translate(1172.051 4879)">
      <g id="Group_1109827" data-name="Group 1109827" transform="translate(0)">
        <g id="Group_1098742" data-name="Group 1098742" transform="translate(0 0)">
          <g transform="matrix(1, 0, 0, 1, -9, -6)" filter="url(#Path_896985)">
            <g id="Path_896985-2" data-name="Path 896985" transform="translate(9 6)" fill="#fd9826" opacity="0.859">
              <path d="M 47.49993515014648 93.5 C 41.28932189941406 93.5 35.26528167724609 92.28397369384766 29.59514808654785 89.88571929931641 C 24.1176815032959 87.56894683837891 19.1981086730957 84.25197601318359 14.97306823730469 80.02693176269531 C 10.74802875518799 75.80189514160156 7.431055068969727 70.88231658935547 5.11428165435791 65.40485382080078 C 2.716028451919556 59.73471832275391 1.500001788139343 53.71067810058594 1.500001788139343 47.50006484985352 C 1.500001788139343 41.28932189941406 2.716028451919556 35.26528167724609 5.11428165435791 29.59514617919922 C 7.431055068969727 24.11767959594727 10.74802875518799 19.19810676574707 14.97306823730469 14.97306632995605 C 19.1981086730957 10.74802684783936 24.1176815032959 7.431053161621094 29.59514808654785 5.114280223846436 C 35.26528167724609 2.716026782989502 41.28932189941406 1.5 47.49993515014648 1.5 C 53.71054840087891 1.5 59.73458862304688 2.716026782989502 65.40472412109375 5.114280223846436 C 70.88218688964844 7.431053161621094 75.80176544189453 10.74802684783936 80.02680206298828 14.97306632995605 C 84.25183868408203 19.19810676574707 87.56881713867188 24.11767959594727 89.88558959960938 29.59514617919922 C 92.28384399414062 35.26528167724609 93.49987030029297 41.28932189941406 93.49987030029297 47.49993515014648 C 93.49987030029297 53.71067810058594 92.28384399414062 59.73471832275391 89.88558959960938 65.40485382080078 C 87.56881713867188 70.88231658935547 84.25183868408203 75.80189514160156 80.02680206298828 80.02693176269531 C 75.80176544189453 84.25197601318359 70.88218688964844 87.56894683837891 65.40472412109375 89.88571929931641 C 59.73458862304688 92.28397369384766 53.71054840087891 93.5 47.49993515014648 93.5 Z" stroke="none"/>
              <path d="M 47.49993515014648 3 C 41.49116516113281 3 35.66371917724609 4.176155090332031 30.17947387695312 6.495796203613281 C 24.88081359863281 8.7369384765625 20.12149047851562 11.94596862792969 16.03372192382812 16.03372192382812 C 11.94596862792969 20.12149047851562 8.7369384765625 24.88081359863281 6.495796203613281 30.17947387695312 C 4.1761474609375 35.66372299194336 3 41.49116897583008 3 47.50006103515625 C 3 53.50883102416992 4.1761474609375 59.33627700805664 6.495796203613281 64.82052612304688 C 8.7369384765625 70.11918640136719 11.94596862792969 74.87850952148438 16.03372192382812 78.96627807617188 C 20.12149047851562 83.05403137207031 24.88081359863281 86.2630615234375 30.17947387695312 88.50419616699219 C 35.66371917724609 90.82384490966797 41.49116516113281 92 47.49993515014648 92 C 53.50870513916016 92 59.33615112304688 90.82384490966797 64.82039642333984 88.50419616699219 C 70.11905670166016 86.2630615234375 74.87837982177734 83.05403137207031 78.96614837646484 78.96627807617188 C 83.05390167236328 74.87850952148438 86.26293182373047 70.11918640136719 88.50407409667969 64.82052612304688 C 90.82372283935547 59.33627700805664 91.99987030029297 53.50883102416992 91.99987030029297 47.49993896484375 C 91.99987030029297 41.49116897583008 90.82372283935547 35.66372299194336 88.50407409667969 30.17947387695312 C 86.26293182373047 24.88081359863281 83.05390167236328 20.12149047851562 78.96614837646484 16.03372192382812 C 74.87837982177734 11.94596862792969 70.11905670166016 8.7369384765625 64.82039642333984 6.495796203613281 C 59.33615112304688 4.176155090332031 53.50870513916016 3 47.49993515014648 3 M 47.49993515014648 0 C 73.73342895507812 0 94.99987030029297 21.26644897460938 94.99987030029297 47.49993896484375 L 94.99987030029297 47.50006103515625 C 94.99987030029297 73.73355102539062 73.73342895507812 95 47.49993515014648 95 C 21.26644134521484 95 0 73.73355102539062 0 47.50006103515625 L 0 47.49993896484375 C 0 21.26644897460938 21.26644134521484 0 47.49993515014648 0 Z" stroke="none" fill="#fff"/>
            </g>
          </g>
          <g id="Rectangle_400907" data-name="Rectangle 400907" transform="translate(0)" fill="none" stroke="#fff" stroke-width="3">
            <rect width="95" height="95" rx="47.5" stroke="none"/>
            <rect x="1.5" y="1.5" width="92" height="92" rx="46" fill="none"/>
          </g>
        </g>
      </g>
    </g>
    <g id="Group_1111743" data-name="Group 1111743" transform="translate(1192.051 4899)">
      <path id="Path_900776" data-name="Path 900776" d="M69.88,56.451H36.4V11.524A3.524,3.524,0,0,0,32.881,8H66.356a3.524,3.524,0,0,1,3.524,3.524Z" transform="translate(-28.476 -7.119)" fill="#ececec"/>
      <g id="Group_1111741" data-name="Group 1111741" transform="translate(0.881 0.881)">
        <path id="Path_900777" data-name="Path 900777" d="M72,391.047h37a3.524,3.524,0,0,0,3.524-3.524V384H79.047v3.524a3.524,3.524,0,0,1-3.524,3.524Z" transform="translate(-64.953 -342.596)" fill="#fea82f"/>
        <path id="Path_900778" data-name="Path 900778" d="M15.047,18.571H8V11.524A3.524,3.524,0,0,1,11.524,8h0a3.524,3.524,0,0,1,3.524,3.524Z" transform="translate(-8 -8)" fill="#fea82f"/>
      </g>
      <path id="Path_900779" data-name="Path 900779" d="M326.166,155.672a8.811,8.811,0,0,0,0,16.81Z" transform="translate(-284.763 -138.53)" fill="#b6c1ce"/>
      <ellipse id="Ellipse_12806" data-name="Ellipse 12806" cx="8.706" cy="8.987" rx="8.706" ry="8.987" transform="translate(36.296 13.828)" fill="#fea82f"/>
      <path id="Path_900780" data-name="Path 900780" d="M336.809,207.928A8.81,8.81,0,0,1,328.044,200c-.028.29-.044.583-.044.881a8.809,8.809,0,1,0,17.619,0c0-.3-.016-.591-.044-.881A8.81,8.81,0,0,1,336.809,207.928Z" transform="translate(-291.882 -177.977)" fill="#ff8031"/>
      <g id="Group_1111742" data-name="Group 1111742" transform="translate(0.908 4.279)">
        <rect id="Rectangle_404645" data-name="Rectangle 404645" width="10.672" height="6.74" transform="translate(0 42.69)" fill="#92e0c0"/>
        <rect id="Rectangle_404646" data-name="Rectangle 404646" width="24.715" height="9.549" transform="translate(11.234 0)" fill="#92e0c0"/>
      </g>
      <rect id="Rectangle_404647" data-name="Rectangle 404647" width="6.74" height="2.809" transform="translate(0.909 8.773)" fill="#ff8031"/>
      <rect id="Rectangle_404648" data-name="Rectangle 404648" width="10.672" height="2.809" transform="translate(0.909 50.901)" fill="#48c397"/>
      <path id="Path_900781" data-name="Path 900781" d="M32.881,181.951l-.854-6.83a3.443,3.443,0,0,1-.027-.437V167.2a3.443,3.443,0,0,1,.027-.437l.734-5.868a2.337,2.337,0,0,1,.715-1.53l5.038-6.479a1.532,1.532,0,0,1,1.4-.881h0a1.775,1.775,0,0,1,1.775,1.775v.3a1.775,1.775,0,0,1-.33,1.032l-3.418,4.785a3.515,3.515,0,0,0-.656,2.047v5.086a3.534,3.534,0,0,0,.372,1.576l1.39,2.779h0l3.858-3.858a1.867,1.867,0,0,1,1.321-.547h0a1.869,1.869,0,0,1,1.868,1.868h0a1.867,1.867,0,0,1-.547,1.321l-6.5,6.5v5.286Z" transform="translate(-28.476 -135.262)" fill="#f9e0a6"/>
      <path id="Path_900782" data-name="Path 900782" d="M104,43.452h26.428V32H104Zm1.762-9.69h22.9V41.69h-22.9Z" transform="translate(-92.548 -28.476)"/>
      <rect id="Rectangle_404649" data-name="Rectangle 404649" width="17.413" height="1.685" transform="translate(16.075 27.309)"/>
      <rect id="Rectangle_404650" data-name="Rectangle 404650" width="5.055" height="2.247" transform="translate(17.76 20.007)"/>
      <rect id="Rectangle_404651" data-name="Rectangle 404651" width="5.617" height="2.247" transform="translate(26.185 20.007)"/>
      <rect id="Rectangle_404652" data-name="Rectangle 404652" width="5.055" height="1.685" transform="translate(17.76 23.939)"/>
      <rect id="Rectangle_404653" data-name="Rectangle 404653" width="5.617" height="1.685" transform="translate(26.185 23.939)"/>
      <rect id="Rectangle_404654" data-name="Rectangle 404654" width="14.043" height="1.685" transform="translate(23.938 34.611)"/>
      <rect id="Rectangle_404655" data-name="Rectangle 404655" width="5.617" height="1.685" transform="translate(32.364 37.981)"/>
      <rect id="Rectangle_404656" data-name="Rectangle 404656" width="5.055" height="1.685" transform="translate(23.938 37.981)"/>
      <path id="Path_900783" data-name="Path 900783" d="M386.643,155.524a.882.882,0,0,1,.881.881h1.762a2.639,2.639,0,0,0-1.762-2.481V152h-1.762v1.924a2.636,2.636,0,0,0,.881,5.123.881.881,0,1,1-.881.881H384a2.639,2.639,0,0,0,1.762,2.481v1.924h1.762v-1.924a2.636,2.636,0,0,0-.881-5.123.881.881,0,0,1,0-1.762Z" transform="translate(-341.716 -135.262)"/>
      <rect id="Rectangle_404657" data-name="Rectangle 404657" width="1.685" height="1.685" transform="translate(49.215 22.253)"/>
      <rect id="Rectangle_404658" data-name="Rectangle 404658" width="2.247" height="1.685" transform="translate(38.543 22.253)"/>
      <path id="Path_900784" data-name="Path 900784" d="M53.033,28.217A9.677,9.677,0,0,0,42.284,13.589V4.4A4.41,4.41,0,0,0,37.88,0H4.4A4.41,4.41,0,0,0,0,4.4v7.928H7.047V18.9L3.48,23.483a3.255,3.255,0,0,0-.951,2.035L1.8,31.387a4.535,4.535,0,0,0-.034.546v7.49a4.523,4.523,0,0,0,.034.546l.729,5.84H0v8.809H12.333v-4.4H44.927a4.41,4.41,0,0,0,4.4-4.4V41.4H42.284V32.219a9.64,9.64,0,0,0,9.505-2.474L50.542,28.5A7.913,7.913,0,1,1,51.56,27.25ZM1.762,10.571V4.4a2.643,2.643,0,1,1,5.286,0v6.166Zm1.782,29.18a2.742,2.742,0,0,1-.02-.329v-7.49a2.716,2.716,0,0,1,.02-.328l.733-5.868a1.549,1.549,0,0,1,.385-.947l5.191-6.631.082-.126a.655.655,0,0,1,.623-.415.9.9,0,0,1,.894.894v.3a.892.892,0,0,1-.166.52L7.868,24.117a4.372,4.372,0,0,0-.821,2.559v5.086a4.446,4.446,0,0,0,.464,1.97l.753,1.5H7.928V37h2.127l4.116-4.116a.988.988,0,0,1,1.686.7.98.98,0,0,1-.289.7L8.809,41.039v4.769H4.3Zm7.027,13.1H1.762V47.57h8.809Zm37-7.047a2.646,2.646,0,0,1-2.643,2.643H14.974a4.381,4.381,0,0,0,.883-2.643V43.165H47.57ZM35.237,22.9a9.694,9.694,0,0,0,5.286,8.621V41.4H14.095v4.4a2.639,2.639,0,0,1-1.762,2.481V45.808H10.571v-4.04l6.242-6.242a2.75,2.75,0,0,0-1.944-4.694,2.768,2.768,0,0,0-1.944.805L9.932,34.631l-.844-1.686a2.662,2.662,0,0,1-.278-1.182V26.676A2.629,2.629,0,0,1,9.3,25.14l3.418-4.785a2.637,2.637,0,0,0,.494-1.543v-.3a2.659,2.659,0,0,0-2.656-2.655,2.362,2.362,0,0,0-1.749.752V4.4a4.359,4.359,0,0,0-.9-2.643H37.88A2.646,2.646,0,0,1,40.523,4.4v9.879A9.694,9.694,0,0,0,35.237,22.9Z"/>
    </g>
  </g>
</svg>
