<svg xmlns="http://www.w3.org/2000/svg" xmlns:xlink="http://www.w3.org/1999/xlink" width="113" height="113" viewBox="0 0 113 113">
  <defs>
    <filter id="Path_896985" x="0" y="0" width="113" height="113" filterUnits="userSpaceOnUse">
      <feOffset dy="3" input="SourceAlpha"/>
      <feGaussianBlur stdDeviation="3" result="blur"/>
      <feFlood flood-opacity="0.161"/>
      <feComposite operator="in" in2="blur"/>
      <feComposite in="SourceGraphic"/>
    </filter>
  </defs>
  <g id="Group_1111755" data-name="Group 1111755" transform="translate(-1058.051 -8162)">
    <g id="Group_1111319" data-name="Group 1111319" transform="translate(1067.051 8168)">
      <g id="Group_1109827" data-name="Group 1109827">
        <g id="Group_1098742" data-name="Group 1098742">
          <g transform="matrix(1, 0, 0, 1, -9, -6)" filter="url(#Path_896985)">
            <g id="Path_896985-2" data-name="Path 896985" transform="translate(9 6)" fill="#fd9826" opacity="0.859">
              <path d="M 47.49993515014648 93.5 C 41.28932189941406 93.5 35.26528167724609 92.28396606445312 29.59514808654785 89.88571929931641 C 24.1176815032959 87.56893920898438 19.1981086730957 84.25196838378906 14.97306823730469 80.02693176269531 C 10.74802875518799 75.80188751220703 7.431055068969727 70.88231658935547 5.11428165435791 65.40484619140625 C 2.716028451919556 59.73471450805664 1.500001788139343 53.71067428588867 1.500001788139343 47.50006103515625 C 1.500001788139343 41.2893180847168 2.716028451919556 35.26527786254883 5.11428165435791 29.59514236450195 C 7.431055068969727 24.11768913269043 10.74802875518799 19.1981029510498 14.97306823730469 14.97306251525879 C 19.1981086730957 10.74802303314209 24.1176815032959 7.431049346923828 29.59514808654785 5.114289283752441 C 35.26528167724609 2.716022968292236 41.28932189941406 1.499996185302734 47.49993515014648 1.499996185302734 C 53.71054840087891 1.499996185302734 59.73458862304688 2.716022968292236 65.40472412109375 5.114289283752441 C 70.88218688964844 7.431049346923828 75.80176544189453 10.74802303314209 80.02680206298828 14.97306251525879 C 84.25183868408203 19.1981029510498 87.56881713867188 24.11768913269043 89.88558959960938 29.59514236450195 C 92.28384399414062 35.26527786254883 93.49987030029297 41.2893180847168 93.49987030029297 47.49993133544922 C 93.49987030029297 53.71067428588867 92.28384399414062 59.73471450805664 89.88558959960938 65.40484619140625 C 87.56881713867188 70.88231658935547 84.25183868408203 75.80188751220703 80.02680206298828 80.02693176269531 C 75.80176544189453 84.25196838378906 70.88218688964844 87.56893920898438 65.40472412109375 89.88571929931641 C 59.73458862304688 92.28396606445312 53.71054840087891 93.5 47.49993515014648 93.5 Z" stroke="none"/>
              <path d="M 47.49993515014648 2.999992370605469 C 41.49116516113281 2.999992370605469 35.66371917724609 4.1761474609375 30.17947387695312 6.495796203613281 C 24.88081359863281 8.736930847167969 20.12149047851562 11.94596862792969 16.03372192382812 16.03372192382812 C 11.94596862792969 20.12149047851562 8.7369384765625 24.88081359863281 6.495796203613281 30.17947387695312 C 4.1761474609375 35.66371917724609 3 41.49116516113281 3 47.50005722045898 C 3 53.50882720947266 4.1761474609375 59.33627319335938 6.495796203613281 64.82051849365234 C 8.7369384765625 70.11917877197266 11.94596862792969 74.87850189208984 16.03372192382812 78.96627044677734 C 20.12149047851562 83.05402374267578 24.88081359863281 86.2630615234375 30.17947387695312 88.50419616699219 C 35.66371917724609 90.82384490966797 41.49116516113281 92 47.49993515014648 92 C 53.50870513916016 92 59.33615112304688 90.82384490966797 64.82039642333984 88.50419616699219 C 70.11905670166016 86.2630615234375 74.87837982177734 83.05402374267578 78.96614837646484 78.96627044677734 C 83.05390167236328 74.87850189208984 86.26293182373047 70.11917877197266 88.50407409667969 64.82051849365234 C 90.82372283935547 59.33627319335938 91.99987030029297 53.50882720947266 91.99987030029297 47.49993515014648 C 91.99987030029297 41.49116516113281 90.82372283935547 35.66371917724609 88.50407409667969 30.17947387695312 C 86.26293182373047 24.88081359863281 83.05390167236328 20.12149047851562 78.96614837646484 16.03372192382812 C 74.87837982177734 11.94596862792969 70.11905670166016 8.736930847167969 64.82039642333984 6.495796203613281 C 59.33615112304688 4.1761474609375 53.50870513916016 2.999992370605469 47.49993515014648 2.999992370605469 M 47.49993515014648 -7.62939453125e-06 C 73.73342895507812 -7.62939453125e-06 94.99987030029297 21.26644134521484 94.99987030029297 47.49993515014648 L 94.99987030029297 47.50005722045898 C 94.99987030029297 73.73355102539062 73.73342895507812 95 47.49993515014648 95 C 21.26644134521484 95 0 73.73355102539062 0 47.50005722045898 L 0 47.49993515014648 C 0 21.26644134521484 21.26644134521484 -7.62939453125e-06 47.49993515014648 -7.62939453125e-06 Z" stroke="none" fill="#fff"/>
            </g>
          </g>
          <g id="Rectangle_400907" data-name="Rectangle 400907" transform="translate(0)" fill="none" stroke="#fff" stroke-width="3">
            <rect width="95" height="95" rx="47.5" stroke="none"/>
            <rect x="1.5" y="1.5" width="92" height="92" rx="46" fill="none"/>
          </g>
        </g>
      </g>
    </g>
    <g id="Group_1111754" data-name="Group 1111754" transform="translate(1084.051 8186)">
      <path id="Path_900802" data-name="Path 900802" d="M14,7V19l-1-.52-1.58-1.39a.326.326,0,0,0-.45,0l-2.95,2.6a.348.348,0,0,1-.45,0l-2.95-2.6a.326.326,0,0,0-.45,0l-2.6,2.29A.341.341,0,0,1,1,19.13V7A6,6,0,0,1,7,1h3s4,2,4,6Z" fill="#b9c9d6"/>
      <path id="Path_900803" data-name="Path 900803" d="M19,59h-.18A6.172,6.172,0,0,1,13,52.75V7.25A6.172,6.172,0,0,0,7.18,1H41a6,6,0,0,1,6,6V52L23,59Z" fill="#d5e4ef"/>
      <path id="Path_900804" data-name="Path 900804" d="M59,49.64V53a6,6,0,0,1-6,6H19a6,6,0,0,0,6-6V49.65a.342.342,0,0,1,.57-.26l2.6,2.3a.348.348,0,0,0,.45,0l2.95-2.6a.326.326,0,0,1,.45,0l2.95,2.6a.348.348,0,0,0,.45,0l2.95-2.6a.326.326,0,0,1,.45,0l2.94,2.6a.362.362,0,0,0,.46,0l2.94-2.6a.326.326,0,0,1,.45,0L47,50.32l1.56,1.37a.348.348,0,0,0,.45,0l2.95-2.6a.326.326,0,0,1,.45,0l2.96,2.6a.348.348,0,0,0,.45,0l2.61-2.3a.341.341,0,0,1,.57.25Z" fill="#b9c9d6"/>
      <g id="Group_1111753" data-name="Group 1111753">
        <path id="Path_900805" data-name="Path 900805" d="M59.2,48.417a1.335,1.335,0,0,0-1.435.223L55.6,50.557l-2.506-2.2a1.317,1.317,0,0,0-1.79-.015l-2.515,2.217L48,49.865V7a7.009,7.009,0,0,0-7-7H7A7.009,7.009,0,0,0,0,7V19.13a1.34,1.34,0,0,0,2.231,1l2.164-1.9,2.531,2.23a1.337,1.337,0,0,0,.863.316,1.378,1.378,0,0,0,.892-.331L11.2,18.224l.8.709V52.75A7.193,7.193,0,0,0,18.82,60H46a1,1,0,1,0,0-2H23.9A6.98,6.98,0,0,0,26,53V51.1l1.525,1.35a1.351,1.351,0,0,0,1.756-.015l2.519-2.21,2.53,2.23a1.351,1.351,0,0,0,1.756-.015L38.6,50.225l2.52,2.23a1.377,1.377,0,0,0,1.767-.016l2.5-2.213,2.533,2.232a1.356,1.356,0,0,0,1.753-.018l2.515-2.216,2.54,2.231a1.349,1.349,0,0,0,1.755-.015L58,51.1V53a5.006,5.006,0,0,1-5,5H50a1,1,0,0,0,0,2h3a7.009,7.009,0,0,0,7-7V49.64a1.341,1.341,0,0,0-.8-1.223ZM10.309,16.34,7.8,18.556l-2.5-2.2a1.316,1.316,0,0,0-1.79-.015L2,17.669V7A5.006,5.006,0,0,1,7,2h.149A5.173,5.173,0,0,1,12,7.25v9.043A1.3,1.3,0,0,0,10.309,16.34Zm34.189,32L41.99,50.559l-2.491-2.2a1.317,1.317,0,0,0-1.79-.015L35.2,50.556l-2.5-2.2a1.314,1.314,0,0,0-1.789-.015L28.4,50.555l-2.16-1.908a1.342,1.342,0,0,0-2.24,1V53a5.006,5.006,0,0,1-5,5h-.149A5.173,5.173,0,0,1,14,52.75V7.25A7.377,7.377,0,0,0,11.8,2H41a5.006,5.006,0,0,1,5,5V48.174a1.289,1.289,0,0,0-1.5.167Z" fill="#272727"/>
        <path id="Path_900806" data-name="Path 900806" d="M42,6H18a1,1,0,0,0,0,2H42a1,1,0,0,0,0-2Z" fill="#272727"/>
        <path id="Path_900807" data-name="Path 900807" d="M42,26H18a1,1,0,0,0,0,2H42a1,1,0,0,0,0-2Z" fill="#272727"/>
        <path id="Path_900808" data-name="Path 900808" d="M29,35H18a1,1,0,0,0,0,2H29a1,1,0,0,0,0-2Z" fill="#272727"/>
        <path id="Path_900809" data-name="Path 900809" d="M29,40H18a1,1,0,0,0,0,2H29a1,1,0,0,0,0-2Z" fill="#272727"/>
        <path id="Path_900810" data-name="Path 900810" d="M42,11H30a1,1,0,0,0,0,2H42a1,1,0,0,0,0-2Z" fill="#272727"/>
        <path id="Path_900811" data-name="Path 900811" d="M25,13h1a1,1,0,0,0,0-2H25a1,1,0,0,0,0,2Z" fill="#272727"/>
        <path id="Path_900812" data-name="Path 900812" d="M25,18h1a1,1,0,0,0,0-2H25a1,1,0,0,0,0,2Z" fill="#272727"/>
        <path id="Path_900813" data-name="Path 900813" d="M25,23h1a1,1,0,0,0,0-2H25a1,1,0,0,0,0,2Z" fill="#272727"/>
        <path id="Path_900814" data-name="Path 900814" d="M42,16H30a1,1,0,0,0,0,2H42a1,1,0,0,0,0-2Z" fill="#272727"/>
        <path id="Path_900815" data-name="Path 900815" d="M42,21H30a1,1,0,0,0,0,2H42a1,1,0,0,0,0-2Z" fill="#272727"/>
        <path id="Path_900816" data-name="Path 900816" d="M39,37.211v-3.1a3.243,3.243,0,0,1,1.73.823A1,1,0,1,0,42.2,33.57a5.348,5.348,0,0,0-3.2-1.5V31a1,1,0,1,0-2,0v1.069c-2.309.316-4,1.709-4,3.431,0,2.077,2.056,2.8,4,3.289v3.1a3.243,3.243,0,0,1-1.73-.823A1,1,0,0,0,33.8,42.43a5.348,5.348,0,0,0,3.2,1.5V45a1,1,0,0,0,2,0V43.931c2.309-.316,4-1.709,4-3.431C43,38.423,40.944,37.7,39,37.211ZM35,35.5c0-.561.812-1.168,2-1.4v2.621c-1.083-.294-2-.659-2-1.221Zm4,6.4V39.278c1.083.3,2,.66,2,1.222S40.188,41.668,39,41.9Z" fill="#272727"/>
      </g>
    </g>
  </g>
</svg>
