<svg xmlns="http://www.w3.org/2000/svg" width="105" height="90" viewBox="0 0 105 90">
  <g id="Group_1111618" data-name="Group 1111618" transform="translate(-841.102 -4099)">
    <rect id="Rectangle_404642" data-name="Rectangle 404642" width="105" height="90" transform="translate(841.102 4099)" fill="none"/>
    <g id="computer" transform="translate(849.102 4100)">
      <path id="Path_900501" data-name="Path 900501" d="M84.764,17.819V57.292H3V17.819A2.828,2.828,0,0,1,5.819,15H81.944A2.828,2.828,0,0,1,84.764,17.819Z" transform="translate(0.41 5.326)" fill="#57a4ff"/>
      <path id="Path_900502" data-name="Path 900502" d="M84.764,17.819V57.292H3V51.653H62.208A16.917,16.917,0,0,0,79.125,34.736V17.819A2.828,2.828,0,0,0,76.305,15h5.639A2.828,2.828,0,0,1,84.764,17.819Z" transform="translate(0.41 5.326)" fill="#2488ff"/>
      <path id="Path_900503" data-name="Path 900503" d="M53,27h5.639V46.736H53Z" transform="translate(20.896 10.243)" fill="#ff7956"/>
      <path id="Path_900504" data-name="Path 900504" d="M45,29h5.639V45.917H45Z" transform="translate(17.618 11.062)" fill="#ffde55"/>
      <path id="Path_900505" data-name="Path 900505" d="M53.833,62.639H20L24.229,57H49.6Z" transform="translate(7.375 22.534)" fill="#c6c5ca"/>
      <path id="Path_900506" data-name="Path 900506" d="M37,33h5.639V44.278H37Z" transform="translate(14.34 12.701)" fill="#00ddc2"/>
      <path id="Path_900507" data-name="Path 900507" d="M42.15,8.075a12.637,12.637,0,0,1,2.537,7.612A11.648,11.648,0,0,1,44.6,17.1H32V3A12.676,12.676,0,0,1,42.15,8.075Z" transform="translate(12.292 0.41)" fill="#ff7956"/>
      <path id="Path_900508" data-name="Path 900508" d="M26.975,24.907A12.685,12.685,0,0,1,35.687,3V17.1h12.6a11.886,11.886,0,0,1-.648,2.819,12.678,12.678,0,0,1-20.666,4.99Z" transform="translate(8.604 0.41)" fill="#ffde55"/>
      <path id="Path_900509" data-name="Path 900509" d="M48.29,17.024a11.886,11.886,0,0,1-.648,2.819A12.684,12.684,0,0,1,23,15.615a13.1,13.1,0,0,1,.169-2.115,12.949,12.949,0,0,0,.564,2.115,12.458,12.458,0,0,0,3.242,4.99,12.666,12.666,0,0,0,20.06-3.581Z" transform="translate(8.604 4.712)" fill="#2488ff"/>
      <path id="Path_900510" data-name="Path 900510" d="M44.736,59.458H25L26.41,51H43.326Z" transform="translate(9.423 20.076)" fill="#57a4ff"/>
      <path id="Path_900511" data-name="Path 900511" d="M84.764,45v5.639a2.828,2.828,0,0,1-2.819,2.819H5.819A2.828,2.828,0,0,1,3,50.639V45Z" transform="translate(0.41 17.618)" fill="#c6c5ca"/>
      <path id="Path_900512" data-name="Path 900512" d="M26,51H42.917v4.229H26Z" transform="translate(9.833 20.076)" fill="#2488ff"/>
      <path id="Path_900513" data-name="Path 900513" d="M14.049,26.049H21.1A7.049,7.049,0,1,1,14.049,19Z" transform="translate(2.049 6.965)" fill="#ffde55"/>
      <path id="Path_900514" data-name="Path 900514" d="M37,33h5.639V44.278H37Z" transform="translate(14.34 12.701)" fill="#00d7df"/>
      <path id="Path_900515" data-name="Path 900515" d="M53,27h5.639v2.819H53Z" transform="translate(20.896 10.243)" fill="#ff5023"/>
      <path id="Path_900516" data-name="Path 900516" d="M45,29h5.639v2.819H45Z" transform="translate(17.618 11.062)" fill="#ebbf00"/>
      <path id="Path_900517" data-name="Path 900517" d="M37,33h5.639v2.819H37Z" transform="translate(14.34 12.701)" fill="#009698"/>
      <path id="Path_900518" data-name="Path 900518" d="M82.354,18.917H58.107a14.379,14.379,0,0,0,.282-2.819,14.046,14.046,0,0,0-2.044-7.274l5.329-4H72.486V2H61.208a1.387,1.387,0,0,0-.846.282L54.653,6.567a14.037,14.037,0,0,0-20.723,0L28.221,2.282A1.387,1.387,0,0,0,27.375,2H16.1V4.819H26.91l5.329,4A14.046,14.046,0,0,0,30.194,16.1a14.379,14.379,0,0,0,.282,2.819H6.229A4.242,4.242,0,0,0,2,23.146V68.257a4.242,4.242,0,0,0,4.229,4.229H34.423v5.639H30.194a1.429,1.429,0,0,0-1.128.564l-4.229,5.639a1.41,1.41,0,0,0,1.128,2.256H62.618a1.41,1.41,0,0,0,1.128-2.256l-4.229-5.639a1.429,1.429,0,0,0-1.128-.564H54.16V72.486H82.354a4.242,4.242,0,0,0,4.229-4.229V23.146a4.242,4.242,0,0,0-4.229-4.229ZM45.7,4.918a11.247,11.247,0,0,1,6.682,3.341l-3.3,2.481L50.776,13l3.3-2.481A11.2,11.2,0,0,1,55.569,16.1H45.7Zm-11.193,5.6L37.807,13,39.5,10.74,36.2,8.259a11.247,11.247,0,0,1,6.682-3.341V17.507a1.41,1.41,0,0,0,1.41,1.41H55.2a11.271,11.271,0,1,1-20.695-8.4ZM57.684,80.944,59.8,83.764H28.785L30.9,80.944ZM37.243,78.125V72.486h14.1v5.639Zm46.521-9.868a1.41,1.41,0,0,1-1.41,1.41H6.229a1.41,1.41,0,0,1-1.41-1.41V64.028H83.764Zm0-7.049H4.819V23.146a1.41,1.41,0,0,1,1.41-1.41H31.378a14.086,14.086,0,0,0,25.826,0H82.354a1.41,1.41,0,0,1,1.41,1.41Z" transform="translate(0 0)"/>
      <path id="Path_900519" data-name="Path 900519" d="M54,2h5.639V4.819H54Z" transform="translate(21.305 0)"/>
      <path id="Path_900520" data-name="Path 900520" d="M44,6h2.819V8.819H44Z" transform="translate(17.208 1.639)"/>
      <path id="Path_900521" data-name="Path 900521" d="M48,6H62.1V8.819H48Z" transform="translate(18.847 1.639)"/>
      <path id="Path_900522" data-name="Path 900522" d="M44,10H55.278v2.819H44Z" transform="translate(17.208 3.278)"/>
      <path id="Path_900523" data-name="Path 900523" d="M54,10h5.639v2.819H54Z" transform="translate(21.305 3.278)"/>
      <path id="Path_900524" data-name="Path 900524" d="M6,2h5.639V4.819H6Z" transform="translate(1.639 0)"/>
      <path id="Path_900525" data-name="Path 900525" d="M18,6h2.819V8.819H18Z" transform="translate(6.555 1.639)"/>
      <path id="Path_900526" data-name="Path 900526" d="M6,6H20.1V8.819H6Z" transform="translate(1.639 1.639)"/>
      <path id="Path_900527" data-name="Path 900527" d="M12,10H23.278v2.819H12Z" transform="translate(4.097 3.278)"/>
      <path id="Path_900528" data-name="Path 900528" d="M6,10h5.639v2.819H6Z" transform="translate(1.639 3.278)"/>
      <path id="Path_900529" data-name="Path 900529" d="M6,32h7.049v2.819H6Z" transform="translate(1.639 12.292)"/>
      <path id="Path_900530" data-name="Path 900530" d="M13,32H39.785v2.819H13Z" transform="translate(4.507 12.292)"/>
      <path id="Path_900531" data-name="Path 900531" d="M6,36H28.555v2.819H6Z" transform="translate(1.639 13.93)"/>
      <path id="Path_900532" data-name="Path 900532" d="M24,36H35.278v2.819H24Z" transform="translate(9.014 13.93)"/>
      <path id="Path_900533" data-name="Path 900533" d="M6,40H20.1v2.819H6Z" transform="translate(1.639 15.569)"/>
      <path id="Path_900534" data-name="Path 900534" d="M18,40H37.736v2.819H18Z" transform="translate(6.555 15.569)"/>
      <path id="Path_900535" data-name="Path 900535" d="M37.41,46.1h5.639a1.41,1.41,0,0,0,1.41-1.41V33.41A1.41,1.41,0,0,0,43.049,32H37.41A1.41,1.41,0,0,0,36,33.41V44.687A1.41,1.41,0,0,0,37.41,46.1Zm1.41-11.278h2.819v8.458H38.819Z" transform="translate(13.93 12.292)"/>
      <path id="Path_900536" data-name="Path 900536" d="M51.049,28H45.41A1.41,1.41,0,0,0,44,29.41V46.326a1.41,1.41,0,0,0,1.41,1.41h5.639a1.41,1.41,0,0,0,1.41-1.41V29.41A1.41,1.41,0,0,0,51.049,28Zm-1.41,16.917H46.819v-14.1h2.819Z" transform="translate(17.208 10.653)"/>
      <path id="Path_900537" data-name="Path 900537" d="M59.049,26H53.41A1.41,1.41,0,0,0,52,27.41V47.146a1.41,1.41,0,0,0,1.41,1.41h5.639a1.41,1.41,0,0,0,1.41-1.41V27.41A1.41,1.41,0,0,0,59.049,26Zm-1.41,19.736H54.819V28.819h2.819Z" transform="translate(20.486 9.833)"/>
      <path id="Path_900538" data-name="Path 900538" d="M14.458,34.917a8.467,8.467,0,0,0,8.458-8.458,1.41,1.41,0,0,0-1.41-1.41H15.868V19.41A1.41,1.41,0,0,0,14.458,18a8.458,8.458,0,1,0,0,16.917ZM13.049,21v5.461a1.41,1.41,0,0,0,1.41,1.41h5.46A5.639,5.639,0,1,1,13.049,21Z" transform="translate(1.639 6.555)"/>
      <path id="Path_900539" data-name="Path 900539" d="M20,24h2.819v2.819H20Z" transform="translate(7.375 9.014)"/>
      <path id="Path_900540" data-name="Path 900540" d="M24,24H35.278v2.819H24Z" transform="translate(9.014 9.014)"/>
      <path id="Path_900541" data-name="Path 900541" d="M20,28H36.917v2.819H20Z" transform="translate(7.375 10.653)"/>
      <path id="Path_900542" data-name="Path 900542" d="M44.317,34.137l2.422-4.859h7.587a1.41,1.41,0,0,0,1.084-.507l6.626-7.951h4.978V18H61.375a1.41,1.41,0,0,0-1.084.508l-6.626,7.951h-7.8a1.41,1.41,0,0,0-1.269.78L42.177,32.1H36v2.819h7.049a1.41,1.41,0,0,0,1.269-.78Z" transform="translate(13.93 6.555)"/>
    </g>
  </g>
</svg>
