<svg xmlns="http://www.w3.org/2000/svg" xmlns:xlink="http://www.w3.org/1999/xlink" width="190" height="190" viewBox="0 0 190 190">
  <defs>
    <filter id="Path_896985" x="0" y="0" width="190" height="190" filterUnits="userSpaceOnUse">
      <feOffset dy="3" input="SourceAlpha"/>
      <feGaussianBlur stdDeviation="3" result="blur"/>
      <feFlood flood-opacity="0.161"/>
      <feComposite operator="in" in2="blur"/>
      <feComposite in="SourceGraphic"/>
    </filter>
  </defs>
  <g id="Group_1111793" data-name="Group 1111793" transform="translate(6008 6714)">
    <g id="Group_1111319" data-name="Group 1111319" transform="translate(-5999 -6708)">
      <g id="Group_1109827" data-name="Group 1109827" transform="translate(0 0)">
        <g id="Group_1098742" data-name="Group 1098742">
          <g transform="matrix(1, 0, 0, 1, -9, -6)" filter="url(#Path_896985)">
            <g id="Path_896985-2" data-name="Path 896985" transform="translate(9 6)" fill="#fd9826" opacity="0.859">
              <path d="M 85.99993133544922 170.4999694824219 C 80.26572418212891 170.4999694824219 74.53559112548828 169.9223785400391 68.96865844726562 168.7832183837891 C 63.54397583007812 167.6731414794922 58.20809173583984 166.0167999267578 53.10920333862305 163.8601684570312 C 48.10256958007812 161.7425231933594 43.27352142333984 159.1214141845703 38.75624847412109 156.0695953369141 C 34.28152084350586 153.0465240478516 30.07361221313477 149.5746917724609 26.24945449829102 145.7505340576172 C 22.42529487609863 141.9263763427734 18.95345497131348 137.7184906005859 15.93036270141602 133.2437286376953 C 12.87856769561768 128.7264556884766 10.25743103027344 123.8974380493164 8.139817237854004 118.8908004760742 C 5.983158588409424 113.7919387817383 4.326817512512207 108.4560546875 3.216749429702759 103.0313720703125 C 2.077590465545654 97.46443939208984 1.499999523162842 91.73428344726562 1.499999523162842 86.00009918212891 C 1.499999523162842 80.26568603515625 2.077590465545654 74.53553009033203 3.216749429702759 68.96862030029297 C 4.326817512512207 63.54393768310547 5.983158588409424 58.20805358886719 8.139817237854004 53.10916519165039 C 10.25743103027344 48.10253143310547 12.87856769561768 43.27350616455078 15.93036270141602 38.75623321533203 C 18.95345497131348 34.2815055847168 22.42529487609863 30.07362174987793 26.24945449829102 26.24943923950195 C 30.07361221313477 22.42527961730957 34.28152084350586 18.95343971252441 38.75624847412109 15.93037128448486 C 43.27352142333984 12.87855339050293 48.10256958007812 10.25743961334229 53.10920333862305 8.139802932739258 C 58.20809173583984 5.983166694641113 63.54397583007812 4.326825618743896 68.96865844726562 3.216757535934448 C 74.53559112548828 2.077598333358765 80.26572418212891 1.500007510185242 85.99993133544922 1.500007510185242 C 91.73413848876953 1.500007510185242 97.46427154541016 2.077598333358765 103.0312042236328 3.216757535934448 C 108.4558868408203 4.326825618743896 113.7917709350586 5.983166694641113 118.8906555175781 8.139802932739258 C 123.8972930908203 10.25743961334229 128.7263336181641 12.87855339050293 133.2436065673828 15.93037128448486 C 137.7183380126953 18.95343971252441 141.9262542724609 22.42527961730957 145.7504119873047 26.24943923950195 C 149.5745697021484 30.07362174987793 153.0464019775391 34.2815055847168 156.0695037841797 38.75623321533203 C 159.1212921142578 43.27350616455078 161.742431640625 48.10253143310547 163.8600463867188 53.10916519165039 C 166.0167083740234 58.20805358886719 167.6730499267578 63.54393768310547 168.7831115722656 68.96862030029297 C 169.9222717285156 74.53553009033203 170.4998626708984 80.26568603515625 170.4998626708984 85.99987030029297 C 170.4998626708984 91.73428344726562 169.9222717285156 97.46443939208984 168.7831115722656 103.0313720703125 C 167.6730499267578 108.4560546875 166.0167083740234 113.7919387817383 163.8600463867188 118.8908004760742 C 161.742431640625 123.8974380493164 159.1212921142578 128.7264556884766 156.0695037841797 133.2437286376953 C 153.0464019775391 137.7184906005859 149.5745697021484 141.9263763427734 145.7504119873047 145.7505340576172 C 141.9262542724609 149.5746917724609 137.7183380126953 153.0465240478516 133.2436065673828 156.0695953369141 C 128.7263336181641 159.1214141845703 123.8972930908203 161.7425231933594 118.8906555175781 163.8601684570312 C 113.7917709350586 166.0167999267578 108.4558868408203 167.6731414794922 103.0312042236328 168.7832183837891 C 97.46427154541016 169.9223785400391 91.73413848876953 170.4999694824219 85.99993133544922 170.4999694824219 Z" stroke="none"/>
              <path d="M 85.99993133544922 3.000015258789062 C 80.36652374267578 3.000015258789062 74.737548828125 3.567367553710938 69.26936340332031 4.686325073242188 C 63.94169616699219 5.776504516601562 58.70121765136719 7.403244018554688 53.69352722167969 9.521316528320312 C 48.77610015869141 11.60122680664062 44.03298187255859 14.17572021484375 39.59597778320312 17.17329406738281 C 35.20033264160156 20.1429443359375 31.06678771972656 23.55343627929688 27.31011962890625 27.31010437011719 C 23.55345153808594 31.06674194335938 20.14292907714844 35.2003173828125 17.17330932617188 39.59593200683594 C 14.17572021484375 44.032958984375 11.60121154785156 48.77605438232422 9.521316528320312 53.6934814453125 C 7.403244018554688 58.701171875 5.776504516601562 63.94162750244141 4.686309814453125 69.26931762695312 C 3.567352294921875 74.73751068115234 3 80.36646270751953 3 86.00010681152344 C 3 91.63350677490234 3.567352294921875 97.26245880126953 4.686309814453125 102.7306518554688 C 5.776504516601562 108.0583190917969 7.403244018554688 113.2987976074219 9.521316528320312 118.3064575195312 C 11.60121154785156 123.2239151000977 14.17572021484375 127.9670104980469 17.17330932617188 132.4040069580078 C 20.14292907714844 136.7996520996094 23.55345153808594 140.9331970214844 27.31011962890625 144.6898651123047 C 31.06678771972656 148.446533203125 35.20033264160156 151.8570251464844 39.59597778320312 154.8266754150391 C 44.03298187255859 157.8242492675781 48.77610015869141 160.3987426757812 53.69352722167969 162.4786529541016 C 58.70121765136719 164.5967254638672 63.94169616699219 166.2234649658203 69.26936340332031 167.3136444091797 C 74.737548828125 168.4326019287109 80.36652374267578 168.9999542236328 85.99993133544922 168.9999542236328 C 91.63333892822266 168.9999542236328 97.26231384277344 168.4326019287109 102.7304992675781 167.3136444091797 C 108.0581665039062 166.2234649658203 113.2986450195312 164.5967254638672 118.3063354492188 162.4786529541016 C 123.2237701416016 160.3987426757812 127.9668884277344 157.8242492675781 132.4038848876953 154.8266754150391 C 136.7995300292969 151.8570251464844 140.9330749511719 148.446533203125 144.6897430419922 144.6898651123047 C 148.4464111328125 140.9331970214844 151.85693359375 136.7996520996094 154.8265533447266 132.4040069580078 C 157.8241424560547 127.9670104980469 160.3986511230469 123.2239151000977 162.4785461425781 118.3064575195312 C 164.5966186523438 113.2987976074219 166.2233581542969 108.0583190917969 167.3135528564453 102.7306518554688 C 168.4324951171875 97.26245880126953 168.9998626708984 91.63350677490234 168.9998626708984 85.99986267089844 C 168.9998626708984 80.36646270751953 168.4324951171875 74.73751068115234 167.3135528564453 69.26931762695312 C 166.2233581542969 63.94162750244141 164.5966186523438 58.701171875 162.4785461425781 53.6934814453125 C 160.3986511230469 48.77605438232422 157.8241424560547 44.032958984375 154.8265533447266 39.59593200683594 C 151.85693359375 35.2003173828125 148.4464111328125 31.06674194335938 144.6897430419922 27.31010437011719 C 140.9330749511719 23.55343627929688 136.7995300292969 20.1429443359375 132.4038848876953 17.17329406738281 C 127.9668884277344 14.17572021484375 123.2237701416016 11.60122680664062 118.3063354492188 9.521316528320312 C 113.2986450195312 7.403244018554688 108.0581665039062 5.776504516601562 102.7304992675781 4.686325073242188 C 97.26231384277344 3.567367553710938 91.63333892822266 3.000015258789062 85.99993133544922 3.000015258789062 M 85.99993133544922 1.52587890625e-05 C 133.4963836669922 1.52587890625e-05 171.9998626708984 38.50343322753906 171.9998626708984 85.99986267089844 L 171.9998626708984 86.00010681152344 C 171.9998626708984 133.4965057373047 133.4963836669922 171.9999542236328 85.99993133544922 171.9999542236328 C 38.50347900390625 171.9999542236328 0 133.4965057373047 0 86.00010681152344 L 0 85.99986267089844 C 0 38.50343322753906 38.50347900390625 1.52587890625e-05 85.99993133544922 1.52587890625e-05 Z" stroke="none" fill="#fff"/>
            </g>
          </g>
        </g>
      </g>
    </g>
    <g id="Group_1111792" data-name="Group 1111792" transform="translate(1.794 -2.158)">
      <g id="Group_1111637" data-name="Group 1111637" transform="translate(-5963.794 -6670.842)">
        <g id="Group_1111635" data-name="Group 1111635" transform="translate(1.484 1.484)">
          <path id="Path_900569" data-name="Path 900569" d="M133.225,7.5v5.174l-14.693.995-15.6-.995V7.5Z" transform="translate(-85.83 -7.5)" fill="#7ca1b1"/>
          <path id="Path_900570" data-name="Path 900570" d="M225.308,7.5v5.172l-6.334.4V8.735A1.236,1.236,0,0,0,217.737,7.5h7.571Z" transform="translate(-177.912 -7.5)" fill="#678d98"/>
          <path id="Path_900571" data-name="Path 900571" d="M81.019,39.631V119.28a5.991,5.991,0,0,1-5.991,5.991H22.516a5.992,5.992,0,0,1-5.993-5.991V39.631a5.992,5.992,0,0,1,5.993-5.991h3.162l23.095,1.523,22.56-1.523h3.694A5.991,5.991,0,0,1,81.019,39.631Z" transform="translate(-16.523 -28.466)" fill="#5986cb"/>
          <path id="Path_900572" data-name="Path 900572" d="M303.133,39.628v79.649a5.991,5.991,0,0,1-5.991,5.991h-3.7a5.991,5.991,0,0,0,5.991-5.991V39.628c0-6.2-5.3-5.991-5.3-5.991h3.008A5.991,5.991,0,0,1,303.133,39.628Z" transform="translate(-238.637 -28.463)" fill="#4278c3"/>
          <path id="Path_900573" data-name="Path 900573" d="M99.318,36.648V112.21a3.008,3.008,0,0,1-3.008,3.008H49.815a3.007,3.007,0,0,1-3.008-3.008V36.648a3.008,3.008,0,0,1,3.008-3.008H96.31A3.01,3.01,0,0,1,99.318,36.648Z" transform="translate(-40.813 -28.466)" fill="#c8effe"/>
          <path id="Path_900574" data-name="Path 900574" d="M278.414,36.648V112.21a3.008,3.008,0,0,1-3.008,3.008H270.1a3.007,3.007,0,0,0,3.008-3.008V36.648A3.008,3.008,0,0,0,270.1,33.64h5.308A3.01,3.01,0,0,1,278.414,36.648Z" transform="translate(-219.908 -28.466)" fill="#99e6fc"/>
          <path id="Path_900575" data-name="Path 900575" d="M85.9,108.658h37.94V114.6H85.9Z" transform="translate(-72.172 -88.636)" fill="#7ca1b1"/>
          <path id="Path_900576" data-name="Path 900576" d="M257.99,156.524l-38.979-10.444a2.07,2.07,0,0,0-2.535,1.463l-15.1,56.37a2.07,2.07,0,0,0,1.463,2.535l38.979,10.444a2.07,2.07,0,0,0,2.535-1.463l15.1-56.37A2.069,2.069,0,0,0,257.99,156.524Z" transform="translate(-164.729 -118.594)" fill="#99e6fc"/>
          <path id="Path_900577" data-name="Path 900577" d="M234.78,116.327l-15.1,56.37a2.07,2.07,0,0,1-2.534,1.464l-38.98-10.445a2.072,2.072,0,0,1-1.464-2.536l15.1-56.37a2.071,2.071,0,0,1,2.536-1.464l38.98,10.445A2.069,2.069,0,0,1,234.78,116.327Z" transform="translate(-144.939 -84.32)" fill="#eaf6ff"/>
          <path id="Path_900578" data-name="Path 900578" d="M373.651,152.182l-15.1,56.371a2.071,2.071,0,0,1-2.534,1.465l-6.246-1.674a2.072,2.072,0,0,0,2.535-1.465l15.1-56.369a2.068,2.068,0,0,0-1.445-2.53l6.227,1.669A2.066,2.066,0,0,1,373.651,152.182Z" transform="translate(-283.81 -120.176)" fill="#c8effe"/>
          <circle id="Ellipse_12799" data-name="Ellipse 12799" cx="14.59" cy="14.59" r="14.59" transform="translate(43.661 49.361)" fill="#46cc8d"/>
          <path id="Path_900579" data-name="Path 900579" d="M0,0H29.179V11.706H0Z" transform="translate(52.881 27.626) rotate(15.009)" fill="#5986cb"/>
        </g>
        <g id="Group_1111636" data-name="Group 1111636">
          <path id="Path_900580" data-name="Path 900580" d="M79.886,183.617h8.278a1.484,1.484,0,1,0,0-2.969H79.886a1.484,1.484,0,1,0,0,2.969Z" transform="translate(-64.671 -144.893)"/>
          <path id="Path_900581" data-name="Path 900581" d="M88.164,378.611H79.886a1.484,1.484,0,1,0,0,2.969h8.278a1.484,1.484,0,1,0,0-2.969Z" transform="translate(-64.671 -303.674)"/>
          <path id="Path_900582" data-name="Path 900582" d="M106.313,39.636a3.531,3.531,0,0,0-2.158-1.656l-3.238-.868.867-3.237a3.6,3.6,0,0,0-2.512-4.353l-22.783-6.1V12.65a7.485,7.485,0,0,0-7.476-7.476H59.389V1.484A1.484,1.484,0,0,0,57.9,0H27.612a1.484,1.484,0,0,0-1.484,1.484V5.174H16.5A7.485,7.485,0,0,0,9.026,12.65V77.125a1.484,1.484,0,1,0,2.969,0V12.65a4.515,4.515,0,0,1,3.226-4.321,4.481,4.481,0,0,0-.2,1.338V85.229a4.5,4.5,0,0,0,4.493,4.493h27.01a3.529,3.529,0,0,0,1.711,1.049l21.946,5.88a4.524,4.524,0,0,1-1.164.153H16.5A4.512,4.512,0,0,1,11.995,92.3V84.118a1.484,1.484,0,0,0-2.969,0V92.3A7.485,7.485,0,0,0,16.5,99.774H69.014a7.438,7.438,0,0,0,5.145-2.055l13.052,3.5A3.553,3.553,0,0,0,91.564,98.7l15.1-56.37a3.53,3.53,0,0,0-.355-2.7Zm-7.454-6.974a.584.584,0,0,1,.058.445l-15.1,56.37a.586.586,0,0,1-.716.415L44.117,79.447a.586.586,0,0,1-.414-.717l15.1-56.37a.615.615,0,0,1,.717-.414L98.5,32.391a.58.58,0,0,1,.354.272Zm-44.09-6.7H25.726V22.991H55.565ZM29.1,2.969H56.42v2.2H29.1Zm4,5.174H52.419v1.3a3.417,3.417,0,0,1-3.413,3.413H36.51A3.417,3.417,0,0,1,33.1,9.44ZM17.987,85.229V9.667a1.526,1.526,0,0,1,1.524-1.524H30.128v1.3a6.389,6.389,0,0,0,6.382,6.382h12.5A6.389,6.389,0,0,0,55.388,9.44v-1.3H66.005a1.526,1.526,0,0,1,1.524,1.524V15.7a1.484,1.484,0,0,0,2.969,0V9.667a4.475,4.475,0,0,0-.2-1.338,4.515,4.515,0,0,1,3.226,4.321v9.973L60.293,19.078a3.583,3.583,0,0,0-3.454.944h-32.6a1.484,1.484,0,0,0-1.484,1.484v5.938a1.484,1.484,0,0,0,1.484,1.484H53.974L49.52,45.55H24.242a1.484,1.484,0,0,0,0,2.969H48.724l-1.829,6.826H24.242a1.484,1.484,0,0,0,0,2.969H46.1L44.27,65.141H24.242a1.484,1.484,0,1,0,0,2.969H43.475l-2.64,9.851a3.559,3.559,0,0,0,2.514,4.354l3.237.868-.867,3.236c-.03.111-.053.223-.072.335H19.511a1.526,1.526,0,0,1-1.524-1.524ZM103.8,41.565,88.7,97.935a.585.585,0,0,1-.716.414L49,87.9a.586.586,0,0,1-.414-.716l.867-3.236L82.329,92.76a3.552,3.552,0,0,0,4.352-2.514l13.469-50.265,3.238.868a.592.592,0,0,1,.413.716Z" transform="translate(-9.026 0)"/>
          <path id="Path_900583" data-name="Path 900583" d="M260.823,259.682a1.5,1.5,0,0,0-2.1-.7l-13.109,7.569-4.056-7.025a1.484,1.484,0,1,0-2.571,1.484l4.8,8.311a1.515,1.515,0,0,0,2.028.543l12.8-7.389a13.1,13.1,0,1,1-4.2-6.846,1.484,1.484,0,0,0,1.936-2.251,16.076,16.076,0,1,0-2.439,26.116C260.563,275.656,263.935,266.9,260.823,259.682Z" transform="translate(-186.137 -200.143)"/>
          <path id="Path_900584" data-name="Path 900584" d="M261.1,153.048a1.486,1.486,0,0,0,.9.692l28.185,7.552a1.515,1.515,0,0,0,1.818-1.05l3.03-11.307a1.5,1.5,0,0,0-1.05-1.818L265.8,139.565a1.485,1.485,0,0,0-1.818,1.05l-3.03,11.307a1.485,1.485,0,0,0,.148,1.126Zm5.365-10.231,25.317,6.784-2.261,8.439L264.2,151.256Z" transform="translate(-211.049 -111.901)"/>
        </g>
      </g>
    </g>
  </g>
</svg>
