<svg xmlns="http://www.w3.org/2000/svg" xmlns:xlink="http://www.w3.org/1999/xlink" width="190" height="190" viewBox="0 0 190 190">
  <defs>
    <filter id="Path_896985" x="0" y="0" width="190" height="190" filterUnits="userSpaceOnUse">
      <feOffset dy="3" input="SourceAlpha"/>
      <feGaussianBlur stdDeviation="3" result="blur"/>
      <feFlood flood-opacity="0.161"/>
      <feComposite operator="in" in2="blur"/>
      <feComposite in="SourceGraphic"/>
    </filter>
  </defs>
  <g id="Group_1111794" data-name="Group 1111794" transform="translate(5693.465 6714.072)">
    <g id="Group_1111319" data-name="Group 1111319" transform="translate(-5684.465 -6708.072)">
      <g id="Group_1109827" data-name="Group 1109827" transform="translate(0 0)">
        <g id="Group_1098742" data-name="Group 1098742">
          <g transform="matrix(1, 0, 0, 1, -9, -6)" filter="url(#Path_896985)">
            <g id="Path_896985-2" data-name="Path 896985" transform="translate(9 6)" fill="#fd9826" opacity="0.859">
              <path d="M 85.99993133544922 170.4999694824219 C 80.26572418212891 170.4999694824219 74.53559112548828 169.9223785400391 68.96865844726562 168.7832183837891 C 63.54397583007812 167.6731414794922 58.20809173583984 166.0167999267578 53.10920333862305 163.8601684570312 C 48.10256958007812 161.7425231933594 43.27352142333984 159.1214141845703 38.75624847412109 156.0695953369141 C 34.28152084350586 153.0465240478516 30.07361221313477 149.5746917724609 26.24945449829102 145.7505340576172 C 22.42529487609863 141.9263763427734 18.95345497131348 137.7184906005859 15.93036270141602 133.2437286376953 C 12.87856769561768 128.7264556884766 10.25743103027344 123.8974380493164 8.139817237854004 118.8908004760742 C 5.983158588409424 113.7919387817383 4.326817512512207 108.4560546875 3.216749429702759 103.0313720703125 C 2.077590465545654 97.46443939208984 1.499999523162842 91.73428344726562 1.499999523162842 86.00009918212891 C 1.499999523162842 80.26568603515625 2.077590465545654 74.53553009033203 3.216749429702759 68.96862030029297 C 4.326817512512207 63.54393768310547 5.983158588409424 58.20805358886719 8.139817237854004 53.10916519165039 C 10.25743103027344 48.10253143310547 12.87856769561768 43.27350616455078 15.93036270141602 38.75623321533203 C 18.95345497131348 34.2815055847168 22.42529487609863 30.07362174987793 26.24945449829102 26.24943923950195 C 30.07361221313477 22.42527961730957 34.28152084350586 18.95343971252441 38.75624847412109 15.93037128448486 C 43.27352142333984 12.87855339050293 48.10256958007812 10.25743961334229 53.10920333862305 8.139802932739258 C 58.20809173583984 5.983166694641113 63.54397583007812 4.326825618743896 68.96865844726562 3.216757535934448 C 74.53559112548828 2.077598333358765 80.26572418212891 1.500007510185242 85.99993133544922 1.500007510185242 C 91.73413848876953 1.500007510185242 97.46427154541016 2.077598333358765 103.0312042236328 3.216757535934448 C 108.4558868408203 4.326825618743896 113.7917709350586 5.983166694641113 118.8906555175781 8.139802932739258 C 123.8972930908203 10.25743961334229 128.7263336181641 12.87855339050293 133.2436065673828 15.93037128448486 C 137.7183380126953 18.95343971252441 141.9262542724609 22.42527961730957 145.7504119873047 26.24943923950195 C 149.5745697021484 30.07362174987793 153.0464019775391 34.2815055847168 156.0695037841797 38.75623321533203 C 159.1212921142578 43.27350616455078 161.742431640625 48.10253143310547 163.8600463867188 53.10916519165039 C 166.0167083740234 58.20805358886719 167.6730499267578 63.54393768310547 168.7831115722656 68.96862030029297 C 169.9222717285156 74.53553009033203 170.4998626708984 80.26568603515625 170.4998626708984 85.99987030029297 C 170.4998626708984 91.73428344726562 169.9222717285156 97.46443939208984 168.7831115722656 103.0313720703125 C 167.6730499267578 108.4560546875 166.0167083740234 113.7919387817383 163.8600463867188 118.8908004760742 C 161.742431640625 123.8974380493164 159.1212921142578 128.7264556884766 156.0695037841797 133.2437286376953 C 153.0464019775391 137.7184906005859 149.5745697021484 141.9263763427734 145.7504119873047 145.7505340576172 C 141.9262542724609 149.5746917724609 137.7183380126953 153.0465240478516 133.2436065673828 156.0695953369141 C 128.7263336181641 159.1214141845703 123.8972930908203 161.7425231933594 118.8906555175781 163.8601684570312 C 113.7917709350586 166.0167999267578 108.4558868408203 167.6731414794922 103.0312042236328 168.7832183837891 C 97.46427154541016 169.9223785400391 91.73413848876953 170.4999694824219 85.99993133544922 170.4999694824219 Z" stroke="none"/>
              <path d="M 85.99993133544922 3.000015258789062 C 80.36652374267578 3.000015258789062 74.737548828125 3.567367553710938 69.26936340332031 4.686325073242188 C 63.94169616699219 5.776504516601562 58.70121765136719 7.403244018554688 53.69352722167969 9.521316528320312 C 48.77610015869141 11.60122680664062 44.03298187255859 14.17572021484375 39.59597778320312 17.17329406738281 C 35.20033264160156 20.1429443359375 31.06678771972656 23.55343627929688 27.31011962890625 27.31010437011719 C 23.55345153808594 31.06674194335938 20.14292907714844 35.2003173828125 17.17330932617188 39.59593200683594 C 14.17572021484375 44.032958984375 11.60121154785156 48.77605438232422 9.521316528320312 53.6934814453125 C 7.403244018554688 58.701171875 5.776504516601562 63.94162750244141 4.686309814453125 69.26931762695312 C 3.567352294921875 74.73751068115234 3 80.36646270751953 3 86.00010681152344 C 3 91.63350677490234 3.567352294921875 97.26245880126953 4.686309814453125 102.7306518554688 C 5.776504516601562 108.0583190917969 7.403244018554688 113.2987976074219 9.521316528320312 118.3064575195312 C 11.60121154785156 123.2239151000977 14.17572021484375 127.9670104980469 17.17330932617188 132.4040069580078 C 20.14292907714844 136.7996520996094 23.55345153808594 140.9331970214844 27.31011962890625 144.6898651123047 C 31.06678771972656 148.446533203125 35.20033264160156 151.8570251464844 39.59597778320312 154.8266754150391 C 44.03298187255859 157.8242492675781 48.77610015869141 160.3987426757812 53.69352722167969 162.4786529541016 C 58.70121765136719 164.5967254638672 63.94169616699219 166.2234649658203 69.26936340332031 167.3136444091797 C 74.737548828125 168.4326019287109 80.36652374267578 168.9999542236328 85.99993133544922 168.9999542236328 C 91.63333892822266 168.9999542236328 97.26231384277344 168.4326019287109 102.7304992675781 167.3136444091797 C 108.0581665039062 166.2234649658203 113.2986450195312 164.5967254638672 118.3063354492188 162.4786529541016 C 123.2237701416016 160.3987426757812 127.9668884277344 157.8242492675781 132.4038848876953 154.8266754150391 C 136.7995300292969 151.8570251464844 140.9330749511719 148.446533203125 144.6897430419922 144.6898651123047 C 148.4464111328125 140.9331970214844 151.85693359375 136.7996520996094 154.8265533447266 132.4040069580078 C 157.8241424560547 127.9670104980469 160.3986511230469 123.2239151000977 162.4785461425781 118.3064575195312 C 164.5966186523438 113.2987976074219 166.2233581542969 108.0583190917969 167.3135528564453 102.7306518554688 C 168.4324951171875 97.26245880126953 168.9998626708984 91.63350677490234 168.9998626708984 85.99986267089844 C 168.9998626708984 80.36646270751953 168.4324951171875 74.73751068115234 167.3135528564453 69.26931762695312 C 166.2233581542969 63.94162750244141 164.5966186523438 58.701171875 162.4785461425781 53.6934814453125 C 160.3986511230469 48.77605438232422 157.8241424560547 44.032958984375 154.8265533447266 39.59593200683594 C 151.85693359375 35.2003173828125 148.4464111328125 31.06674194335938 144.6897430419922 27.31010437011719 C 140.9330749511719 23.55343627929688 136.7995300292969 20.1429443359375 132.4038848876953 17.17329406738281 C 127.9668884277344 14.17572021484375 123.2237701416016 11.60122680664062 118.3063354492188 9.521316528320312 C 113.2986450195312 7.403244018554688 108.0581665039062 5.776504516601562 102.7304992675781 4.686325073242188 C 97.26231384277344 3.567367553710938 91.63333892822266 3.000015258789062 85.99993133544922 3.000015258789062 M 85.99993133544922 1.52587890625e-05 C 133.4963836669922 1.52587890625e-05 171.9998626708984 38.50343322753906 171.9998626708984 85.99986267089844 L 171.9998626708984 86.00010681152344 C 171.9998626708984 133.4965057373047 133.4963836669922 171.9999542236328 85.99993133544922 171.9999542236328 C 38.50347900390625 171.9999542236328 0 133.4965057373047 0 86.00010681152344 L 0 85.99986267089844 C 0 38.50343322753906 38.50347900390625 1.52587890625e-05 85.99993133544922 1.52587890625e-05 Z" stroke="none" fill="#fff"/>
            </g>
          </g>
        </g>
      </g>
    </g>
    <g id="Group_1111640" data-name="Group 1111640" transform="translate(-5641.125 -6670.842)">
      <g id="Group_1111639" data-name="Group 1111639" transform="translate(1.811 1.771)">
        <path id="Path_900585" data-name="Path 900585" d="M70.3,289.247H97.692V274.373h27.392V259.5H152.5v44.6H70.3Z" transform="translate(-69.459 -210.601)" fill="#b1cdc8" fill-rule="evenodd"/>
        <path id="Path_900586" data-name="Path 900586" d="M177.1,291.8v37.285h-75v-7.561h27.415V306.651h27.392V291.8Z" transform="translate(-94.06 -235.589)" fill="#7baca2" fill-rule="evenodd"/>
        <path id="Path_900587" data-name="Path 900587" d="M312.569,67.7V86.014H291.9c0-.408,12.225-3.622,6.248-10.866-3.735-4.55-.543-7.448,5.863-7.448Z" transform="translate(-240.892 -62.222)" fill="#f7ec13" fill-rule="evenodd"/>
        <path id="Path_900588" data-name="Path 900588" d="M386.383,43.5a3.275,3.275,0,0,1,3.26,3.26V92.4H383.1V46.76A3.31,3.31,0,0,1,386.383,43.5Z" transform="translate(-311.446 -43.5)" fill="#f47d6c" fill-rule="evenodd"/>
        <path id="Path_900589" data-name="Path 900589" d="M171.227,64.4a9.327,9.327,0,1,1-9.327,9.327A9.343,9.343,0,0,1,171.227,64.4Z" transform="translate(-140.322 -59.669)" fill="#ddbe63" fill-rule="evenodd"/>
        <path id="Path_900590" data-name="Path 900590" d="M171.227,64.4a9.289,9.289,0,0,1,5.7,1.947,9.33,9.33,0,0,1-14.9,8.987,9.238,9.238,0,0,1-.136-1.607A9.343,9.343,0,0,1,171.227,64.4Z" transform="translate(-140.322 -59.669)" fill="#fedc97" fill-rule="evenodd"/>
        <path id="Path_900591" data-name="Path 900591" d="M88.66,163.26v27.483H78.472V159.819L83.7,140.282,75.62,142.07l-1.7,6.339c-1.245,4.641-8.421,2.717-7.2-1.924l2.852-10.617,16.3-3.667,15.756,5.116,4.233,8.331h7.108c4.8,0,4.8,7.448,0,7.448H101.45l-3.305-6.248-2.332,8.671,12.677,6.656v13.719H98.3V168.24Z" transform="translate(-66.584 -112.12)" fill="#f15f4b" fill-rule="evenodd"/>
        <path id="Path_900592" data-name="Path 900592" d="M129.287,236.908v27.506H119.1V233.467l1.63-6.067,15.734,1.766,12.677,6.656V249.54h-10.21v-7.652Z" transform="translate(-107.211 -185.768)" fill="#b92025" fill-rule="evenodd"/>
        <path id="Path_900593" data-name="Path 900593" d="M160.19,156.7a3.69,3.69,0,1,1-3.69,3.69A3.691,3.691,0,0,1,160.19,156.7Z" transform="translate(-136.144 -131.073)" fill="#f69688" fill-rule="evenodd"/>
        <path id="Path_900594" data-name="Path 900594" d="M386.4,319.9h1.449a2.213,2.213,0,0,1,2.2,2.2v7.425a2.213,2.213,0,0,1-2.2,2.2H386.4a2.2,2.2,0,0,1-2.2-2.2V322.1A2.213,2.213,0,0,1,386.4,319.9Z" transform="translate(-312.297 -257.327)" fill="#b1cdc8" fill-rule="evenodd"/>
        <path id="Path_900595" data-name="Path 900595" d="M386.4,381h1.449a2.2,2.2,0,0,1,2.2,2.2v2.422a2.213,2.213,0,0,1-2.2,2.2H386.4a2.2,2.2,0,0,1-2.2-2.2V383.2A2.213,2.213,0,0,1,386.4,381Z" transform="translate(-312.297 -304.596)" fill="#b1cdc8" fill-rule="evenodd"/>
      </g>
      <path id="Path_900596" data-name="Path 900596" d="M76.2,77.542,88.29,78.877,90.214,71.7a1.812,1.812,0,0,1,3.35-.362l2.785,5.3h10.436a1.913,1.913,0,0,0,1.63-2.785,1.638,1.638,0,0,0-1.63-1.041H99.677a1.8,1.8,0,0,1-1.607-1l-3.894-7.652L79.62,59.431,64.882,62.759,62.3,72.29a1.641,1.641,0,0,0,.589,1.856,1.911,1.911,0,0,0,3.1-.883l1.7-6.316a1.76,1.76,0,0,1,1.358-1.29l7.946-1.766a1.807,1.807,0,0,1,2.264,2.2Zm12.9,5.071L75.273,81.073,74.118,85.4v28.887h6.565V88.589a1.823,1.823,0,0,1,2.649-1.607l9.531,4.913A1.793,1.793,0,0,1,93.95,93.57V99.41h6.565V88.589Zm1.222,16.8V94.679l-6.022-3.1v22.706h2.535V101.221a1.816,1.816,0,0,1,1.811-1.811ZM70.474,114.284V85.148a1.563,1.563,0,0,1,.091-.566L75,68.034l-4.1.906-1.4,5.275c-1.177,4.369-6.044,4.935-8.761,2.83a5.15,5.15,0,0,1-1.947-5.7l2.852-10.617a1.822,1.822,0,0,1,1.471-1.313L79.3,55.764a1.911,1.911,0,0,1,.951.045l.906.294a11.137,11.137,0,1,1,15.462,5.184,1.852,1.852,0,0,1,.453.566l3.735,7.335h5.977c4.392,0,6.316,4.347,5,7.72a5.152,5.152,0,0,1-5,3.35H95.263a1.747,1.747,0,0,1-1.585-.973l-1.132-2.151L91.8,79.941l11.387,5.977a1.815,1.815,0,0,1,.973,1.607V99.433h10.1V86.371a1.816,1.816,0,0,1,1.811-1.811h14.217V63.076H111.427a1.816,1.816,0,0,1-1.811-1.811c0-1.268.77-1.585,1.992-2.105a18.271,18.271,0,0,0,4.324-2.377c1.426-1.177,2.286-2.875.34-5.229-1.766-2.151-2.739-4.754-1.358-7.063,1.562-2.6,5.365-3.328,8.625-3.328h6.746v-.407a5.082,5.082,0,0,1,10.165,0V84.582h3.034a1.816,1.816,0,0,1,1.811,1.811v44.6a1.816,1.816,0,0,1-1.811,1.811H61.237a1.816,1.816,0,0,1-1.811-1.811V116.117a1.816,1.816,0,0,1,1.811-1.811h9.236ZM96.6,46.187a7.508,7.508,0,1,0,0,10.617,7.529,7.529,0,0,0,0-10.617Zm38.734-6.927a1.459,1.459,0,0,0-1.449,1.449V84.537h2.9V40.709A1.459,1.459,0,0,0,135.333,39.26Zm-5.071,20.171V44.739h-6.746c-1.834,0-4.777.34-5.524,1.585-.475.792.362,2.083,1.041,2.92,3.713,4.505,2.06,7.878-.7,10.21h11.93ZM88.63,117.906H63.048v11.251h78.6V88.182H117.856v13.062a1.816,1.816,0,0,1-1.811,1.811H90.463v13.062A1.847,1.847,0,0,1,88.63,117.906Z" transform="translate(-58.585 -35.678)" fill="#191919"/>
    </g>
  </g>
</svg>
