<svg xmlns="http://www.w3.org/2000/svg" xmlns:xlink="http://www.w3.org/1999/xlink" width="113" height="113" viewBox="0 0 113 113">
  <defs>
    <filter id="Path_896985" x="0" y="0" width="113" height="113" filterUnits="userSpaceOnUse">
      <feOffset dy="3" input="SourceAlpha"/>
      <feGaussianBlur stdDeviation="3" result="blur"/>
      <feFlood flood-opacity="0.161"/>
      <feComposite operator="in" in2="blur"/>
      <feComposite in="SourceGraphic"/>
    </filter>
  </defs>
  <g id="Group_1111351" data-name="Group 1111351" transform="translate(-327.795 -4434.804)">
    <g id="Group_1111323" data-name="Group 1111323" transform="translate(-418.98 588.804)">
      <g id="Group_1109827" data-name="Group 1109827" transform="translate(755.775 3852)">
        <g id="Group_1098742" data-name="Group 1098742">
          <g transform="matrix(1, 0, 0, 1, -9, -6)" filter="url(#Path_896985)">
            <g id="Path_896985-2" data-name="Path 896985" transform="translate(9 6)" fill="#f3f0ea" opacity="0.859">
              <path d="M 47.49993515014648 93.5 C 41.28932189941406 93.5 35.26528167724609 92.28397369384766 29.59514808654785 89.88571929931641 C 24.1176815032959 87.56894683837891 19.1981086730957 84.25197601318359 14.97306823730469 80.02693176269531 C 10.74802875518799 75.80189514160156 7.431055068969727 70.88231658935547 5.11428165435791 65.40485382080078 C 2.716028451919556 59.73471832275391 1.500001788139343 53.71067810058594 1.500001788139343 47.50006484985352 C 1.500001788139343 41.28932189941406 2.716028451919556 35.26528167724609 5.11428165435791 29.59514617919922 C 7.431055068969727 24.11767959594727 10.74802875518799 19.19810676574707 14.97306823730469 14.97306632995605 C 19.1981086730957 10.74802684783936 24.1176815032959 7.431053161621094 29.59514808654785 5.114280223846436 C 35.26528167724609 2.716026782989502 41.28932189941406 1.5 47.49993515014648 1.5 C 53.71054840087891 1.5 59.73458862304688 2.716026782989502 65.40472412109375 5.114280223846436 C 70.88218688964844 7.431053161621094 75.80176544189453 10.74802684783936 80.02680206298828 14.97306632995605 C 84.25183868408203 19.19810676574707 87.56881713867188 24.11767959594727 89.88558959960938 29.59514617919922 C 92.28384399414062 35.26528167724609 93.49987030029297 41.28932189941406 93.49987030029297 47.49993515014648 C 93.49987030029297 53.71067810058594 92.28384399414062 59.73471832275391 89.88558959960938 65.40485382080078 C 87.56881713867188 70.88231658935547 84.25183868408203 75.80189514160156 80.02680206298828 80.02693176269531 C 75.80176544189453 84.25197601318359 70.88218688964844 87.56894683837891 65.40472412109375 89.88571929931641 C 59.73458862304688 92.28397369384766 53.71054840087891 93.5 47.49993515014648 93.5 Z" stroke="none"/>
              <path d="M 47.49993515014648 3 C 41.49116516113281 3 35.66371917724609 4.176155090332031 30.17947387695312 6.495796203613281 C 24.88081359863281 8.7369384765625 20.12149047851562 11.94596862792969 16.03372192382812 16.03372192382812 C 11.94596862792969 20.12149047851562 8.7369384765625 24.88081359863281 6.495796203613281 30.17947387695312 C 4.1761474609375 35.66372299194336 3 41.49116897583008 3 47.50006103515625 C 3 53.50883102416992 4.1761474609375 59.33627700805664 6.495796203613281 64.82052612304688 C 8.7369384765625 70.11918640136719 11.94596862792969 74.87850952148438 16.03372192382812 78.96627807617188 C 20.12149047851562 83.05403137207031 24.88081359863281 86.2630615234375 30.17947387695312 88.50419616699219 C 35.66371917724609 90.82384490966797 41.49116516113281 92 47.49993515014648 92 C 53.50870513916016 92 59.33615112304688 90.82384490966797 64.82039642333984 88.50419616699219 C 70.11905670166016 86.2630615234375 74.87837982177734 83.05403137207031 78.96614837646484 78.96627807617188 C 83.05390167236328 74.87850952148438 86.26293182373047 70.11918640136719 88.50407409667969 64.82052612304688 C 90.82372283935547 59.33627700805664 91.99987030029297 53.50883102416992 91.99987030029297 47.49993896484375 C 91.99987030029297 41.49116897583008 90.82372283935547 35.66372299194336 88.50407409667969 30.17947387695312 C 86.26293182373047 24.88081359863281 83.05390167236328 20.12149047851562 78.96614837646484 16.03372192382812 C 74.87837982177734 11.94596862792969 70.11905670166016 8.7369384765625 64.82039642333984 6.495796203613281 C 59.33615112304688 4.176155090332031 53.50870513916016 3 47.49993515014648 3 M 47.49993515014648 0 C 73.73342895507812 0 94.99987030029297 21.26644897460938 94.99987030029297 47.49993896484375 L 94.99987030029297 47.50006103515625 C 94.99987030029297 73.73355102539062 73.73342895507812 95 47.49993515014648 95 C 21.26644134521484 95 0 73.73355102539062 0 47.50006103515625 L 0 47.49993896484375 C 0 21.26644897460938 21.26644134521484 0 47.49993515014648 0 Z" stroke="none" fill="#fff"/>
            </g>
          </g>
          <g id="Rectangle_400907" data-name="Rectangle 400907" transform="translate(0 0)" fill="none" stroke="#fff" stroke-width="3">
            <rect width="95" height="95" rx="47.5" stroke="none"/>
            <rect x="1.5" y="1.5" width="92" height="92" rx="46" fill="none"/>
          </g>
        </g>
      </g>
    </g>
    <g id="Group_1111448" data-name="Group 1111448" transform="translate(-62.95 -5824.585)">
      <g id="Group_76764" data-name="Group 76764" transform="translate(426.663 10273.577) rotate(20)">
        <g id="Group_74769" data-name="Group 74769">
          <g id="Group_74760" data-name="Group 74760">
            <g id="Group_74747" data-name="Group 74747">
              <g id="Group_74746" data-name="Group 74746">
                <g id="Group_74745" data-name="Group 74745">
                  <g id="Group_74744" data-name="Group 74744">
                    <g id="Group_74728" data-name="Group 74728">
                      <g id="Group_74727" data-name="Group 74727">
                        <g id="Group_74726" data-name="Group 74726">
                          <g id="Group_74725" data-name="Group 74725">
                            <path id="Path_110751" data-name="Path 110751" d="M692.676,213.343a30.668,30.668,0,1,1-35.106-25.464A30.668,30.668,0,0,1,692.676,213.343Z" transform="translate(-631.717 -187.493)" fill="#d9a171"/>
                          </g>
                        </g>
                      </g>
                    </g>
                    <g id="Group_74731" data-name="Group 74731" transform="translate(0 0.386)" opacity="0.1">
                      <g id="Group_74730" data-name="Group 74730">
                        <g id="Group_74729" data-name="Group 74729">
                          <path id="Path_110752" data-name="Path 110752" d="M657.57,187.623A30.662,30.662,0,0,0,632.1,222.729s21.433-2.437,25.189-11.82S657.57,187.623,657.57,187.623Z" transform="translate(-631.717 -187.623)" fill="#fff"/>
                        </g>
                      </g>
                    </g>
                    <g id="Group_74734" data-name="Group 74734" transform="translate(6.799 6.95)">
                      <g id="Group_74733" data-name="Group 74733">
                        <g id="Group_74732" data-name="Group 74732">
                          <path id="Path_110753" data-name="Path 110753" d="M680.34,209.479a23.313,23.313,0,1,1-26.688-19.36A23.312,23.312,0,0,1,680.34,209.479Z" transform="translate(-634 -189.827)" fill="#636363"/>
                        </g>
                      </g>
                    </g>
                    <g id="Group_74740" data-name="Group 74740" transform="translate(8.223 8.071)">
                      <g id="Group_74739" data-name="Group 74739">
                        <g id="Group_74738" data-name="Group 74738">
                          <path id="Path_110755" data-name="Path 110755" d="M680.2,209.59a23,23,0,1,1-26.33-19.1A23,23,0,0,1,680.2,209.59Z" transform="translate(-634.478 -190.203)" fill="#8e8e8e"/>
                        </g>
                      </g>
                    </g>
                  </g>
                </g>
              </g>
            </g>
            <g id="Group_74759" data-name="Group 74759" transform="translate(21.191 16.195)">
              <g id="Group_74751" data-name="Group 74751" transform="translate(1.102)">
                <g id="Group_74750" data-name="Group 74750">
                  <g id="Group_74749" data-name="Group 74749">
                    <g id="Group_74748" data-name="Group 74748">
                      <path id="Path_110757" data-name="Path 110757" d="M648.727,205.7l-.927-5.812.03-.006a12.086,12.086,0,0,1,3.217.313,9.764,9.764,0,0,1,1.591.682l.051-.191.563-2.234.128-.515-1.209-.923-.461.3a11.07,11.07,0,0,0-4.4-.545l-.51-3.2-1.123-.643.128.8-1.364.217.518,3.256c-4.423,1.147-6.149,4.048-5.681,6.986.637,4,4.23,4.492,7.548,4.76l.918,5.758a11.154,11.154,0,0,1-6.107-1.272l-.834,3.116a12.765,12.765,0,0,0,7.435,1.266l.384,2.413-1.12.2,1.245.584,2.359-.375-.512-3.226c4.447-1.18,6.2-4.057,5.734-6.994C655.692,206.418,652.046,205.966,648.727,205.7Zm-2.458-.229c-1.749-.223-3.086-.661-3.307-2.044-.2-1.266.5-2.44,2.49-3.083Zm1.531-5.588Zm2.291,14.4-.81-5.1c1.805.215,3.179.676,3.4,2.085C652.88,212.5,652.144,213.624,650.091,214.277Z" transform="translate(-639.201 -192.93)" fill="#d9a171"/>
                    </g>
                  </g>
                </g>
              </g>
              <g id="Group_74755" data-name="Group 74755" transform="translate(1.102)" opacity="0.3">
                <g id="Group_74754" data-name="Group 74754">
                  <g id="Group_74753" data-name="Group 74753">
                    <g id="Group_74752" data-name="Group 74752">
                      <path id="Path_110758" data-name="Path 110758" d="M648.727,205.7l-.927-5.812.03-.006a12.086,12.086,0,0,1,3.217.313,9.764,9.764,0,0,1,1.591.682l.051-.191.563-2.234.128-.515-1.209-.923-.461.3a11.07,11.07,0,0,0-4.4-.545l-.51-3.2-1.123-.643.128.8-1.364.217.518,3.256c-4.423,1.147-6.149,4.048-5.681,6.986.637,4,4.23,4.492,7.548,4.76l.918,5.758a11.154,11.154,0,0,1-6.107-1.272l-.834,3.116a12.765,12.765,0,0,0,7.435,1.266l.384,2.413-1.12.2,1.245.584,2.359-.375-.512-3.226c4.447-1.18,6.2-4.057,5.734-6.994C655.692,206.418,652.046,205.966,648.727,205.7Zm-2.458-.229c-1.749-.223-3.086-.661-3.307-2.044-.2-1.266.5-2.44,2.49-3.083Zm1.531-5.588Zm2.291,14.4-.81-5.1c1.805.215,3.179.676,3.4,2.085C652.88,212.5,652.144,213.624,650.091,214.277Z" transform="translate(-639.201 -192.93)" fill="#d9a171"/>
                    </g>
                  </g>
                </g>
              </g>
              <g id="Group_74758" data-name="Group 74758" transform="translate(0 0.006)">
                <g id="Group_74757" data-name="Group 74757">
                  <g id="Group_74756" data-name="Group 74756">
                    <path id="Path_110759" data-name="Path 110759" d="M650.223,216.778l.512,3.223-2.36.378-.509-3.2a12.78,12.78,0,0,1-7.435-1.269l.831-3.113a11.2,11.2,0,0,0,6.11,1.269l-.918-5.758c-3.321-.268-6.911-.76-7.549-4.763-.467-2.937,1.255-5.839,5.678-6.986l-.519-3.253,2.362-.378.51,3.2a12.476,12.476,0,0,1,6.125.828l-.718,3.1a12.093,12.093,0,0,0-4.912-.813l.927,5.818c3.321.268,6.965.724,7.6,4.725C656.427,212.718,654.67,215.6,650.223,216.778ZM645.9,204.827l-.816-5.124c-1.993.64-2.693,1.814-2.491,3.083C642.814,204.168,644.152,204.6,645.9,204.827Zm6.414,5.8c-.223-1.409-1.6-1.871-3.4-2.085l.81,5.1C651.775,212.986,652.513,211.866,652.313,210.627Z" transform="translate(-638.831 -192.932)" fill="#d9a171"/>
                  </g>
                </g>
              </g>
            </g>
          </g>
          <g id="Group_74764" data-name="Group 74764" transform="translate(21.821 23.296)">
            <g id="Group_74763" data-name="Group 74763">
              <g id="Group_74762" data-name="Group 74762">
                <g id="Group_74761" data-name="Group 74761">
                  <path id="Path_110760" data-name="Path 110760" d="M640.837,200.933a1.959,1.959,0,0,1-.775-.56,3.6,3.6,0,0,1-.53-4.328,1.935,1.935,0,0,1,.617-.73c.03.027-.22.292-.473.8a3.855,3.855,0,0,0-.382,2.151,3.9,3.9,0,0,0,.888,2C640.554,200.7,640.861,200.9,640.837,200.933Z" transform="translate(-639.043 -195.314)" fill="#fff"/>
                </g>
              </g>
            </g>
          </g>
          <g id="Group_74768" data-name="Group 74768" transform="translate(27.016 17.383)">
            <g id="Group_74767" data-name="Group 74767">
              <g id="Group_74766" data-name="Group 74766">
                <g id="Group_74765" data-name="Group 74765">
                  <path id="Path_110761" data-name="Path 110761" d="M641.125,195.224a4.026,4.026,0,1,1-.036-.965A2.092,2.092,0,0,1,641.125,195.224Z" transform="translate(-640.786 -193.329)" fill="#fff"/>
                </g>
              </g>
            </g>
          </g>
        </g>
      </g>
      <g id="Group_76765" data-name="Group 76765" transform="translate(856.713 12883.24) rotate(180)">
        <path id="Path_9870" data-name="Path 9870" d="M392.694,2570.351a1.442,1.442,0,0,1-1.443-1.441v-17.927a1.443,1.443,0,0,1,1.443-1.441h3.474l-7.66-9.041-7.663,9.041h3.474a1.443,1.443,0,0,1,1.441,1.441v17.927a1.441,1.441,0,1,1-2.883,0v-16.485h-5.144a1.441,1.441,0,0,1-1.1-2.373l10.774-12.713a1.44,1.44,0,0,1,1.1-.51h0a1.44,1.44,0,0,1,1.1.51l10.77,12.713a1.442,1.442,0,0,1-1.1,2.373h-5.142v16.485A1.442,1.442,0,0,1,392.694,2570.351Z" transform="translate(0 0)" fill="#344154"/>
      </g>
    </g>
  </g>
</svg>
