<svg id="Group_1111595" data-name="Group 1111595" xmlns="http://www.w3.org/2000/svg" width="505" height="294.994" viewBox="0 0 505 294.994">
  <g id="Group_58741" data-name="Group 58741" transform="translate(12.904 248.479)">
    <path id="Path_111347" data-name="Path 111347" d="M13295.394,9741.79c-.836-.747-2.711-2.987-1.263-5.655a5.014,5.014,0,0,1,2.667-1.89,10.735,10.735,0,0,0,2.936-1.494c1.584-1.352,2.024-3.593,3.078-5.4a6.762,6.762,0,0,1,5.856-3.511c2.733.127,5.02,2.36,6.05,4.908s1.068,5.371,1.091,8.12c0,1.494-.06,3.234-1.173,4.258s-2.577.963-3.975.919l-14.939-.464" transform="translate(-13284.638 -9700.706)" fill="#aed3f2"/>
    <path id="Path_111348" data-name="Path 111348" d="M13320.892,9692.87H13281.6l7.074,42.2a4.716,4.716,0,0,0,3.354,3.733l.143.038a1.959,1.959,0,0,1,.351.1,5.661,5.661,0,0,0,.8.09h17.709a4.5,4.5,0,0,0,.957-.1,4.731,4.731,0,0,0,3.974-4.123l3.414-29.08.157-1.15h0l1.352-11.519Zm-7.417,26.892h-4.026l.4-12.251h4.677Zm1.441-12.251h3.862l-1.441,12.251h-3.466Zm-11.519,25.823-.246-10.637h5.8l-.352,10.637Zm-6.282-10.637h5.646l.247,10.637h-5.064Zm.44,10.637h-4.729c-.456-2.867-1.038-6.6-1.673-10.637h5.572Zm-.664-13.572-.957-12.251h6.477l.284,12.251Zm6.192,0-.284-12.251h6.663l-.41,12.251Zm-.351-15.187-.262-11.347h7.47l-.373,11.347Zm-.389,0h-6.633l-.882-11.347h7.254Zm-7.021,0h-7.022c-.246-1.568-.485-3.055-.694-4.385-.747-4.586-1.008-6.312-1.165-6.962h8Zm.224,2.936.956,12.251h-5.8c-.2-1.248-.4-2.5-.59-3.734-.456-2.892-.911-5.782-1.345-8.486Zm-5.229,12.251h-3.795l-2.055-12.251h3.915c.611,3.817,1.284,8.03,1.956,12.28Zm.463,2.936c.575,3.682,1.143,7.313,1.666,10.637h-3.646l-1.785-10.637Zm18.227,10.637.359-10.637h3.877l-.911,10.637Zm.956-28.759.381-11.347h5.416l-.971,11.347Zm-23.9-11.347c.157.821.874,5.281,1.83,11.347h-3.944l-1.9-11.347Zm29.67,40.105h-3.032l.9-10.637h3.376Zm3.376-28.759h-3.951l.964-11.347h4.317Z" transform="translate(-13281.601 -9692.87)" fill="#839eb6"/>
  </g>
  <g id="Group_58753" data-name="Group 58753" transform="translate(435.007 177.717)">
    <g id="Group_58751" data-name="Group 58751">
      <path id="Path_111355" data-name="Path 111355" d="M14035.1,9810.8l-1.494,117.277h67.454V9812.4Z" transform="translate(-14033.602 -9810.8)" fill="#aed3f2"/>
      <path id="Path_111356" data-name="Path 111356" d="M14084.1,9811.98l-.6,116.4h30.179V9812.7Z" transform="translate(-14046.225 -9811.099)" fill="#839eb6"/>
      <g id="Group_58746" data-name="Group 58746" transform="translate(3.586 2.114)">
        <path id="Path_111357" data-name="Path 111357" d="M14038.4,9813.63v23.986h31.971v-22.851Z" transform="translate(-14038.4 -9813.63)" fill="#839eb6"/>
        <g id="Group_58745" data-name="Group 58745" transform="translate(11.055 6.275)">
          <path id="Path_111358" data-name="Path 111358" d="M14053.2,9822.352v3.548h9.785v-3.869Z" transform="translate(-14053.2 -9822.03)" fill="#aed3f2"/>
          <rect id="Rectangle_9095" data-name="Rectangle 9095" width="10.099" height="1.449" transform="translate(0 6.843)" fill="#aed3f2"/>
        </g>
      </g>
      <g id="Group_58748" data-name="Group 58748" transform="translate(3.586 86.173)">
        <path id="Path_111359" data-name="Path 111359" d="M14038.4,9926.16v23.985h31.971v-22.857Z" transform="translate(-14038.4 -9926.16)" fill="#839eb6"/>
        <g id="Group_58747" data-name="Group 58747" transform="translate(11.055 6.274)">
          <path id="Path_111360" data-name="Path 111360" d="M14053.2,9934.881v3.549h9.785v-3.87Z" transform="translate(-14053.2 -9934.56)" fill="#aed3f2"/>
          <rect id="Rectangle_9096" data-name="Rectangle 9096" width="10.099" height="1.449" transform="translate(0 6.843)" fill="#aed3f2"/>
        </g>
      </g>
      <g id="Group_58750" data-name="Group 58750" transform="translate(3.586 29.155)">
        <path id="Path_111361" data-name="Path 111361" d="M14038.4,9849.83v23.986h31.971v-22.852Z" transform="translate(-14038.4 -9849.83)" fill="#839eb6"/>
        <g id="Group_58749" data-name="Group 58749" transform="translate(11.055 6.275)">
          <path id="Path_111362" data-name="Path 111362" d="M14053.2,9858.552v3.548h9.785v-3.869Z" transform="translate(-14053.2 -9858.23)" fill="#aed3f2"/>
          <rect id="Rectangle_9097" data-name="Rectangle 9097" width="10.099" height="1.449" transform="translate(0 6.842)" fill="#aed3f2"/>
        </g>
      </g>
    </g>
    <g id="Group_58752" data-name="Group 58752" transform="translate(3.213 57.877)">
      <rect id="Rectangle_9098" data-name="Rectangle 9098" width="31.964" height="23.986" fill="#839eb6"/>
      <path id="Path_111363" data-name="Path 111363" d="M14052.9,9902.648v3.332h9.188v-3.631Z" transform="translate(-14041.695 -9891.84)" fill="#aed3f2"/>
      <rect id="Rectangle_9099" data-name="Rectangle 9099" width="9.494" height="1.36" transform="translate(11.205 16.941)" fill="#aed3f2"/>
    </g>
  </g>
  <path id="Path_111364" data-name="Path 111364" d="M13599.74,9753.725c0,.1-113.06.193-252.485.193s-252.515-.09-252.515-.193,113.035-.194,252.515-.194S13599.74,9753.611,13599.74,9753.725Z" transform="translate(-13094.74 -9459.738)" fill="#344154"/>
  <g id="Group_1111597" data-name="Group 1111597" transform="translate(115.102 3.765)">
    <rect id="Rectangle_9089" data-name="Rectangle 9089" width="225.966" height="149.888" transform="translate(14.059)" fill="#839eb6"/>
    <g id="Group_58769" data-name="Group 58769" transform="translate(0 3.545)">
      <g id="Group_58754" data-name="Group 58754">
        <rect id="Rectangle_9100" data-name="Rectangle 9100" width="234.011" height="153.495" transform="translate(0.115 0.21)" fill="#fafafa"/>
        <path id="Path_111365" data-name="Path 111365" d="M13511.457,9540.705c0-1.48-.069-59.875-.183-153.486l.183.175-233.992.053h0l.228-.228v153.486l-.211-.21,234.011.21-234.011.211h-.21V9387h.246l233.992.043h.185v.184C13511.457,9480.831,13511.457,9539.233,13511.457,9540.705Z" transform="translate(-13277.271 -9387)" fill="#344154"/>
      </g>
      <g id="Group_58757" data-name="Group 58757" transform="translate(17.525 59.061)">
        <g id="Group_58755" data-name="Group 58755" transform="translate(53.974 25.92)">
          <path id="Path_111366" data-name="Path 111366" d="M13359.083,9484.079l23.014.316c-.176,12.254-10.5,22.261-23.014,22.261h-.132Z" transform="translate(-13358.951 -9484.079)" fill="#5e6178"/>
          <path id="Path_111367" data-name="Path 111367" d="M13398.321,9517.183a2.132,2.132,0,0,1-.5,0h-1.4l-5.146.063h-.062v-.053l-7.589-9.567-6.127-7.809.122.063-6.776-.07h-1.89a3.485,3.485,0,0,1-.676-.052q.337-.018.674,0l1.892-.043,6.776-.062h.069v.063l6.128,7.772,7.527,9.629-.105-.052,5.147.062h1.4A2.256,2.256,0,0,1,13398.321,9517.183Z" transform="translate(-13360.111 -9486.02)" fill="#344154"/>
          <path id="Path_111368" data-name="Path 111368" d="M13409.879,9522.686c0,.1-3.335.174-7.45.174s-7.449-.078-7.449-.174,3.335-.176,7.449-.176S13409.879,9522.588,13409.879,9522.686Z" transform="translate(-13363.438 -9488.87)" fill="#344154"/>
          <path id="Path_111369" data-name="Path 111369" d="M13409.879,9525.835c0,.1-3.335.175-7.45.175s-7.449-.078-7.449-.175,3.335-.176,7.449-.176S13409.879,9525.737,13409.879,9525.835Z" transform="translate(-13363.438 -9489.262)" fill="#344154"/>
        </g>
        <g id="Group_58756" data-name="Group 58756">
          <path id="Path_111370" data-name="Path 111370" d="M13351.724,9477.124l-.324,22.575c-12.5-.175-22.7-10.312-22.7-22.575s10.391-22.584,23.021-22.584,23.022,10.188,23.022,22.584Z" transform="translate(-13301.207 -9454.479)" fill="#5ab4f9"/>
          <path id="Path_111371" data-name="Path 111371" d="M13341.742,9469.894a1.4,1.4,0,0,1-.393.1l-1.146.183-4.131.578H13336l-.051-.052-5.516-5.366c-2.625-2.626-5.033-4.963-6.748-6.687l-2.014-2.057a6.089,6.089,0,0,1-.707-.788,5.705,5.705,0,0,1,.8.692l2.092,1.978c1.75,1.68,4.166,4.018,6.818,6.616l5.471,5.411-.123-.045,4.16-.454,1.145-.105A1.518,1.518,0,0,1,13341.742,9469.894Z" transform="translate(-13300.242 -9454.636)" fill="#344154"/>
          <path id="Path_111372" data-name="Path 111372" d="M13312.18,9454.645q-7.437.366-14.882,0c0-.095,3.336-.174,7.441-.174S13312.18,9454.548,13312.18,9454.645Z" transform="translate(-13297.29 -9454.469)" fill="#344154"/>
          <path id="Path_111373" data-name="Path 111373" d="M13312.182,9457.8c0,.1-3.336.175-7.449.175s-7.441-.078-7.441-.175q7.436-.369,14.883,0Z" transform="translate(-13297.291 -9454.861)" fill="#344154"/>
        </g>
      </g>
      <g id="Group_58762" data-name="Group 58762" transform="translate(131.21 23.092)">
        <g id="Group_58761" data-name="Group 58761" transform="translate(0)">
          <g id="Group_58760" data-name="Group 58760">
            <path id="Path_111374" data-name="Path 111374" d="M13444.526,9427.386l-.087-14.007a17.89,17.89,0,0,0-11.581,4.509,16.632,16.632,0,0,0-5.575,14.53,17.755,17.755,0,0,0,.332,2.04.09.09,0,0,0,0,.051v0l16.9-3.808Z" transform="translate(-13427.162 -9413.379)" fill="#5ab4f9"/>
            <g id="Group_58758" data-name="Group 58758" opacity="0.3">
              <path id="Path_111375" data-name="Path 111375" d="M13444.526,9427.386l-.087-14.007a17.89,17.89,0,0,0-11.581,4.509,16.632,16.632,0,0,0-5.575,14.53,17.755,17.755,0,0,0,.332,2.04.09.09,0,0,0,0,.051v0l16.9-3.808Z" transform="translate(-13427.162 -9413.379)" fill="#fff"/>
            </g>
            <path id="Path_111376" data-name="Path 111376" d="M13464.675,9423.075a16.637,16.637,0,0,0-13.647-9.551l-.534-.044h-1.453l.1,14.006v3.3l16.912,3.685h0a16.3,16.3,0,0,0,.376-3.642,18.16,18.16,0,0,0-1.752-7.754Z" transform="translate(-13429.889 -9413.393)" fill="#5ab4f9"/>
            <g id="Group_58759" data-name="Group 58759" transform="translate(19.151 0.088)" opacity="0.3">
              <path id="Path_111377" data-name="Path 111377" d="M13464.675,9423.075a16.637,16.637,0,0,0-13.647-9.551l-.534-.044h-1.453l.1,14.006v3.3l16.912,3.685h0a16.3,16.3,0,0,0,.376-3.642,18.16,18.16,0,0,0-1.752-7.754Z" transform="translate(-13449.04 -9413.48)" fill="#5ab4f9"/>
            </g>
          </g>
          <path id="Path_111378" data-name="Path 111378" d="M13445.592,9435.14l-16.912,3.807a17.332,17.332,0,0,0,33.842-.113l-16.912-3.693" transform="translate(-13427.351 -9416.093)" fill="#5ab4f9"/>
        </g>
        <path id="Path_111379" data-name="Path 111379" d="M13517.643,9432.227c0,.123-8.755.227-19.521.227s-19.529-.1-19.529-.227,8.754-.227,19.529-.227S13517.643,9432.1,13517.643,9432.227Z" transform="translate(-13433.572 -9415.7)" fill="#344154"/>
        <path id="Path_111380" data-name="Path 111380" d="M13517.643,9427.136c0,.133-8.755.229-19.521.229s-19.529-.1-19.529-.229,8.754-.227,19.529-.227S13517.643,9426.987,13517.643,9427.136Z" transform="translate(-13433.572 -9415.065)" fill="#344154"/>
        <path id="Path_111381" data-name="Path 111381" d="M13517.643,9422.058c0,.122-8.755.228-19.521.228s-19.529-.105-19.529-.228,8.754-.229,19.529-.229S13517.643,9421.979,13517.643,9422.058Z" transform="translate(-13433.572 -9414.432)" fill="#344154"/>
        <path id="Path_111382" data-name="Path 111382" d="M13517.643,9436.967c0,.123-8.755.229-19.521.229s-19.529-.105-19.529-.229,8.754-.228,19.529-.228S13517.643,9436.826,13517.643,9436.967Z" transform="translate(-13433.572 -9416.29)" fill="#344154"/>
        <path id="Path_111383" data-name="Path 111383" d="M13505.582,9442.107c0,.121-6.006.227-13.411.227s-13.411-.105-13.411-.227,6.006-.228,13.411-.228S13505.582,9441.985,13505.582,9442.107Z" transform="translate(-13433.593 -9416.933)" fill="#344154"/>
      </g>
      <g id="Group_58768" data-name="Group 58768" transform="translate(133.397 80.48)">
        <rect id="Rectangle_9101" data-name="Rectangle 9101" width="4.018" height="44.915" transform="translate(1.873)" fill="#5ab4f9"/>
        <rect id="Rectangle_9102" data-name="Rectangle 9102" width="4.018" height="29.657" transform="translate(9.664 15.249)" fill="#5ab4f9"/>
        <rect id="Rectangle_9103" data-name="Rectangle 9103" width="4.018" height="39.558" transform="translate(17.367 5.576)" fill="#5ab4f9"/>
        <rect id="Rectangle_9104" data-name="Rectangle 9104" width="4.018" height="43.182" transform="translate(25.158 1.734)" fill="#5ab4f9"/>
        <rect id="Rectangle_9105" data-name="Rectangle 9105" width="4.018" height="28.747" transform="translate(32.948 16.159)" fill="#5ab4f9"/>
        <rect id="Rectangle_9106" data-name="Rectangle 9106" width="4.018" height="23.11" transform="translate(40.739 21.797)" fill="#5ab4f9"/>
        <rect id="Rectangle_9107" data-name="Rectangle 9107" width="4.018" height="40.302" transform="translate(48.442 4.605)" fill="#5ab4f9"/>
        <rect id="Rectangle_9108" data-name="Rectangle 9108" width="4.018" height="33.036" transform="translate(56.234 11.87)" fill="#5ab4f9"/>
        <rect id="Rectangle_9109" data-name="Rectangle 9109" width="4.018" height="38.84" transform="translate(64.024 6.067)" fill="#5ab4f9"/>
        <rect id="Rectangle_9110" data-name="Rectangle 9110" width="4.018" height="26.462" transform="translate(71.727 18.444)" fill="#5ab4f9"/>
        <rect id="Rectangle_9111" data-name="Rectangle 9111" width="4.018" height="31.496" transform="translate(79.518 13.411)" fill="#5ab4f9"/>
        <path id="Path_111384" data-name="Path 111384" d="M13514.869,9533.8c0,.087-19.073.166-42.6.166s-42.6-.078-42.6-.166,19.074-.167,42.6-.167S13514.869,9533.709,13514.869,9533.8Z" transform="translate(-13429.662 -9485.757)" fill="#344154"/>
        <path id="Path_111385" data-name="Path 111385" d="M13437.552,9537.836a26.652,26.652,0,0,1-5.971,0A26.652,26.652,0,0,1,13437.552,9537.836Z" transform="translate(-13429.9 -9486.259)" fill="#344154"/>
        <path id="Path_111386" data-name="Path 111386" d="M13448.684,9538.036a38.094,38.094,0,0,1-7.134,0,40.664,40.664,0,0,1,7.134,0Z" transform="translate(-13431.142 -9486.285)" fill="#344154"/>
        <path id="Path_111387" data-name="Path 111387" d="M13458.283,9538.036a38.094,38.094,0,0,1-7.134,0,40.664,40.664,0,0,1,7.134,0Z" transform="translate(-13432.338 -9486.285)" fill="#344154"/>
        <path id="Path_111388" data-name="Path 111388" d="M13467.982,9538.036a38.084,38.084,0,0,1-7.133,0,40.653,40.653,0,0,1,7.133,0Z" transform="translate(-13433.548 -9486.285)" fill="#344154"/>
        <path id="Path_111389" data-name="Path 111389" d="M13477.586,9538.036a38.094,38.094,0,0,1-7.134,0,40.675,40.675,0,0,1,7.135,0Z" transform="translate(-13434.746 -9486.285)" fill="#344154"/>
        <path id="Path_111390" data-name="Path 111390" d="M13487.286,9538.036a38.1,38.1,0,0,1-7.135,0,40.675,40.675,0,0,1,7.135,0Z" transform="translate(-13435.955 -9486.285)" fill="#344154"/>
        <path id="Path_111391" data-name="Path 111391" d="M13496.883,9538.036a38.084,38.084,0,0,1-7.133,0,40.653,40.653,0,0,1,7.133,0Z" transform="translate(-13437.149 -9486.285)" fill="#344154"/>
        <path id="Path_111392" data-name="Path 111392" d="M13506.483,9538.036a38.1,38.1,0,0,1-7.135,0,40.675,40.675,0,0,1,7.135,0Z" transform="translate(-13438.345 -9486.285)" fill="#344154"/>
        <path id="Path_111393" data-name="Path 111393" d="M13516.184,9538.036a38.115,38.115,0,0,1-7.136,0,40.6,40.6,0,0,1,7.137,0Z" transform="translate(-13439.554 -9486.285)" fill="#344154"/>
        <path id="Path_111394" data-name="Path 111394" d="M13525.784,9538.036a38.094,38.094,0,0,1-7.134,0,40.642,40.642,0,0,1,7.132,0Z" transform="translate(-13440.753 -9486.285)" fill="#344154"/>
        <g id="Group_58763" data-name="Group 58763" transform="translate(9.664 15.249)" opacity="0.3">
          <rect id="Rectangle_9112" data-name="Rectangle 9112" width="4.018" height="29.657" transform="translate(0)" fill="#fff"/>
        </g>
        <g id="Group_58764" data-name="Group 58764" transform="translate(25.158 1.734)" opacity="0.3">
          <rect id="Rectangle_9113" data-name="Rectangle 9113" width="4.018" height="43.182" transform="translate(0)" fill="#fff"/>
        </g>
        <g id="Group_58765" data-name="Group 58765" transform="translate(40.739 21.797)" opacity="0.3">
          <rect id="Rectangle_9114" data-name="Rectangle 9114" width="4.018" height="23.11" transform="translate(0)" fill="#fff"/>
        </g>
        <g id="Group_58766" data-name="Group 58766" transform="translate(56.234 11.87)" opacity="0.3">
          <rect id="Rectangle_9115" data-name="Rectangle 9115" width="4.018" height="33.036" transform="translate(0)" fill="#fff"/>
        </g>
        <g id="Group_58767" data-name="Group 58767" transform="translate(71.727 18.444)" opacity="0.3">
          <rect id="Rectangle_9116" data-name="Rectangle 9116" width="4.018" height="26.462" transform="translate(0)" fill="#fff"/>
        </g>
      </g>
      <path id="Path_111395" data-name="Path 111395" d="M13308.795,9419.649a3.878,3.878,0,1,1-3.869-3.87,3.878,3.878,0,0,1,3.869,3.87Z" transform="translate(-13280.23 -9390.587)" fill="#5ab4f9"/>
      <path id="Path_111396" data-name="Path 111396" d="M13377.7,9416.688c0,.122-13.052.228-29.149.228s-29.148-.105-29.148-.228,13.042-.229,29.148-.229S13377.7,9416.557,13377.7,9416.688Z" transform="translate(-13282.521 -9390.671)" fill="#5ab4f9"/>
      <path id="Path_111397" data-name="Path 111397" d="M13342.834,9422.027a3.569,3.569,0,0,1-.876.1c-.576,0-1.417.053-2.459.07-2.083,0-4.954.061-8.123.061s-6.049,0-8.124-.061a23.96,23.96,0,0,1-2.468-.07,3.564,3.564,0,0,1-.876-.1,3.77,3.77,0,0,1,.876-.09c.586,0,1.427-.051,2.468-.068,2.075,0,4.946-.07,8.124-.07s6.04,0,8.123.07c1.043,0,1.883.043,2.459.07A3.665,3.665,0,0,1,13342.834,9422.027Z" transform="translate(-13282.583 -9391.336)" fill="#5ab4f9"/>
    </g>
  </g>
  <g id="Group_58777" data-name="Group 58777" transform="translate(27.819 124.604)">
    <g id="Group_58770" data-name="Group 58770">
      <rect id="Rectangle_9117" data-name="Rectangle 9117" width="121.812" height="139.025" transform="translate(0.103 0.382)" fill="#fafafa"/>
      <path id="Path_111398" data-name="Path 111398" d="M13253.89,9542.088v-10.1c0-6.564,0-16.168-.051-28.365,0-24.378-.062-59.107-.1-100.56l.2.2h-121.8l.226-.227v139.024l-.191-.191,88.354.1,24.71.051h-24.587l-88.476.105h-.191V9402.682h122.249v.2c0,41.513-.079,76.285-.1,100.691,0,12.188-.044,21.765-.053,28.321v9.37A2.148,2.148,0,0,1,13253.89,9542.088Z" transform="translate(-13131.983 -9402.682)" fill="#344154"/>
    </g>
    <g id="Group_58773" data-name="Group 58773" transform="translate(14.929 68.169)">
      <path id="Path_111399" data-name="Path 111399" d="M13245.658,9484.176c0,.086-1.348-.671-3.918-1.489a25.249,25.249,0,0,0-11.23-.87,24.4,24.4,0,0,0-7.41,2.376,34.836,34.836,0,0,0-7.287,5.224c-2.385,2.108-4.762,4.5-7.5,6.713a25.879,25.879,0,0,1-9.576,5.181,14.421,14.421,0,0,1-5.582.331,17.814,17.814,0,0,1-5.225-1.594,93.5,93.5,0,0,1-8.705-5.153,27.019,27.019,0,0,0-8.15-3.657,24.086,24.086,0,0,0-7.758-.592,25.04,25.04,0,0,0-10.709,3.482c-2.3,1.4-3.377,2.465-3.482,2.386a5.1,5.1,0,0,1,.777-.766,19.066,19.066,0,0,1,2.488-1.9,24.384,24.384,0,0,1,18.8-3.283,27.464,27.464,0,0,1,8.393,3.665,92.13,92.13,0,0,0,8.621,5.077,14.786,14.786,0,0,0,10.211,1.192,25.227,25.227,0,0,0,9.264-5.006c2.689-2.159,5.068-4.545,7.5-6.651a35.062,35.062,0,0,1,7.479-5.285,24.855,24.855,0,0,1,7.635-2.343,24.588,24.588,0,0,1,11.422,1.1,20.186,20.186,0,0,1,2.873,1.237A6.354,6.354,0,0,1,13245.658,9484.176Z" transform="translate(-13149.129 -9480.979)" fill="#5ab4f9"/>
      <g id="Group_58771" data-name="Group 58771" transform="translate(5.286 5.417)">
        <rect id="Rectangle_9118" data-name="Rectangle 9118" width="10.352" height="28.009" transform="translate(13.407 16.455)" fill="#5ab4f9"/>
        <rect id="Rectangle_9119" data-name="Rectangle 9119" width="10.352" height="28.009" transform="translate(57.375 16.455)" fill="#5ab4f9"/>
        <rect id="Rectangle_9120" data-name="Rectangle 9120" width="10.352" height="44.455" transform="translate(72.003)" fill="#5ab4f9"/>
        <rect id="Rectangle_9121" data-name="Rectangle 9121" width="10.352" height="9.429" transform="translate(0 35.644)" fill="#5ab4f9"/>
        <rect id="Rectangle_9122" data-name="Rectangle 9122" width="10.361" height="15.358" transform="translate(28.035 29.097)" fill="#5ab4f9"/>
        <rect id="Rectangle_9123" data-name="Rectangle 9123" width="10.352" height="18.884" transform="translate(42.662 25.571)" fill="#5ab4f9"/>
      </g>
      <g id="Group_58772" data-name="Group 58772" transform="translate(5.408 52.762)">
        <path id="Path_111400" data-name="Path 111400" d="M13181.337,9542c0,.228-2.507.419-5.6.419s-5.6-.191-5.6-.419,2.507-.418,5.6-.418S13181.337,9541.771,13181.337,9542Z" transform="translate(-13157.255 -9541.579)" fill="#344154"/>
        <path id="Path_111401" data-name="Path 111401" d="M13166.537,9542c0,.228-2.508.419-5.6.419s-5.6-.191-5.6-.419,2.506-.418,5.6-.418S13166.537,9541.771,13166.537,9542Z" transform="translate(-13155.342 -9541.579)" fill="#344154"/>
        <path id="Path_111402" data-name="Path 111402" d="M13250.221,9542c0,.228-2.83.419-6.322.419s-6.328-.191-6.328-.419,2.83-.418,6.328-.418S13250.221,9541.771,13250.221,9542Z" transform="translate(-13165.978 -9541.579)" fill="#344154"/>
        <ellipse id="Ellipse_4206" data-name="Ellipse 4206" cx="6.321" cy="0.418" rx="6.321" ry="0.418" transform="translate(56.243 0.001)" fill="#344154"/>
        <path id="Path_111403" data-name="Path 111403" d="M13214.437,9542c0,.235-2.508.419-5.6.419s-5.6-.182-5.6-.419,2.508-.418,5.6-.418S13214.437,9541.771,13214.437,9542Z" transform="translate(-13161.537 -9541.579)" fill="#344154"/>
        <path id="Path_111404" data-name="Path 111404" d="M13197.137,9542c0,.235-2.5.419-5.588.419s-5.6-.182-5.6-.419,2.506-.418,5.6-.418S13197.137,9541.771,13197.137,9542Z" transform="translate(-13159.301 -9541.579)" fill="#344154"/>
      </g>
    </g>
    <g id="Group_58776" data-name="Group 58776" transform="translate(19.954 20.65)">
      <rect id="Rectangle_9124" data-name="Rectangle 9124" width="84.635" height="35.148" fill="#839eb6"/>
      <g id="Group_58774" data-name="Group 58774" transform="translate(9.681 7.166)">
        <path id="Path_111405" data-name="Path 111405" d="M13173.926,9438.574a3.946,3.946,0,1,1-1.159-2.792A3.955,3.955,0,0,1,13173.926,9438.574Z" transform="translate(-13166.02 -9434.63)" fill="#344154"/>
        <rect id="Rectangle_9125" data-name="Rectangle 9125" width="27.495" height="1.524" transform="translate(11.911 1.21)" fill="#344154"/>
        <rect id="Rectangle_9126" data-name="Rectangle 9126" width="53.484" height="1.524" transform="translate(11.911 4.684)" fill="#fff"/>
      </g>
      <g id="Group_58775" data-name="Group 58775" transform="translate(9.681 19.293)">
        <path id="Path_111406" data-name="Path 111406" d="M13173.926,9452.5a3.948,3.948,0,1,1-1.159-2.792,3.953,3.953,0,0,1,1.159,2.792Z" transform="translate(-13166.02 -9448.559)" fill="#5ab4f9"/>
        <rect id="Rectangle_9127" data-name="Rectangle 9127" width="14.035" height="1.524" transform="translate(11.911 1.22)" fill="#5ab4f9"/>
        <rect id="Rectangle_9128" data-name="Rectangle 9128" width="53.484" height="1.524" transform="translate(11.911 4.685)" fill="#fff"/>
      </g>
    </g>
  </g>
  <g id="Group_58782" data-name="Group 58782" transform="translate(356.679)">
    <g id="Group_58778" data-name="Group 58778">
      <rect id="Rectangle_9129" data-name="Rectangle 9129" width="114.767" height="130.984" transform="translate(0.119 0.32)" fill="#fafafa"/>
      <path id="Path_111407" data-name="Path 111407" d="M13672.6,9505.326v-9.51c0-6.178,0-15.23-.045-26.719,0-22.971-.053-55.688-.082-94.748l.172.172h-114.76l.193-.194V9505.3l-.164-.165,83.246.09h23.336l-23.232.044-83.348.083h-.172V9374.021h115.141v.172c-.037,39.105-.068,71.868-.09,94.867,0,11.475,0,20.506-.045,26.684v8.984A1.917,1.917,0,0,0,13672.6,9505.326Z" transform="translate(-13557.742 -9374.021)" fill="#344154"/>
    </g>
    <g id="Group_58781" data-name="Group 58781" transform="translate(9.307 10.793)">
      <rect id="Rectangle_9130" data-name="Rectangle 9130" width="92.97" height="74.587" fill="#839eb6"/>
      <g id="Group_58780" data-name="Group 58780" transform="translate(6.499 9.449)">
        <g id="Group_58779" data-name="Group 58779">
          <rect id="Rectangle_9131" data-name="Rectangle 9131" width="3.048" height="0.881" transform="translate(0 51.879)" fill="#344154"/>
          <rect id="Rectangle_9132" data-name="Rectangle 9132" width="3.899" height="0.881" transform="translate(6.872 56.577)" fill="#344154"/>
          <rect id="Rectangle_9133" data-name="Rectangle 9133" width="3.899" height="0.881" transform="translate(20.467 56.577)" fill="#344154"/>
          <rect id="Rectangle_9134" data-name="Rectangle 9134" width="3.899" height="0.881" transform="translate(34.062 56.577)" fill="#344154"/>
          <rect id="Rectangle_9135" data-name="Rectangle 9135" width="3.899" height="0.881" transform="translate(47.658 56.577)" fill="#344154"/>
          <rect id="Rectangle_9136" data-name="Rectangle 9136" width="3.899" height="0.881" transform="translate(61.253 56.577)" fill="#344154"/>
          <rect id="Rectangle_9137" data-name="Rectangle 9137" width="3.899" height="0.881" transform="translate(74.773 56.577)" fill="#344154"/>
          <rect id="Rectangle_9138" data-name="Rectangle 9138" width="3.048" height="0.881" transform="translate(0 40.136)" fill="#344154"/>
          <rect id="Rectangle_9139" data-name="Rectangle 9139" width="3.048" height="0.881" transform="translate(0 18.033)" fill="#344154"/>
          <rect id="Rectangle_9140" data-name="Rectangle 9140" width="3.048" height="0.881" transform="translate(0 6.925)" fill="#344154"/>
          <rect id="Rectangle_9141" data-name="Rectangle 9141" width="3.048" height="0.881" transform="translate(0.149 29.081)" fill="#344154"/>
          <path id="Path_111408" data-name="Path 111408" d="M13658.975,9453.879a2.643,2.643,0,0,1-.329,0l-.956,0-3.7.038-13.572.06-44.819.061h-10.809v-.187c0-14.939.053-28.154.067-37.619,0-4.705.044-8.478.06-11.107v-3.734a1.038,1.038,0,0,1,0-.27,1.082,1.082,0,0,1,0,.27c0,.187,0,.44,0,.746v2.988c0,2.629,0,6.4.06,11.107,0,9.457,0,22.642.067,37.619l-.194-.193h10.615l44.819.052,13.572.067h4.654a1.835,1.835,0,0,1,.464.1Z" transform="translate(-13580.393 -9401.119)" fill="#344154"/>
          <path id="Path_111409" data-name="Path 111409" d="M13660.952,9440.574c0,.112-16.09.193-35.937.193s-35.945-.082-35.945-.193,16.09-.194,35.945-.194S13660.952,9440.47,13660.952,9440.574Z" transform="translate(-13581.474 -9411.053)" fill="#344154"/>
          <path id="Path_111410" data-name="Path 111410" d="M13660.952,9425.783c0,.105-16.09.2-35.937.2s-35.945-.09-35.945-.2,16.09-.193,35.945-.193S13660.952,9425.672,13660.952,9425.783Z" transform="translate(-13581.474 -9407.311)" fill="#344154"/>
          <path id="Path_111411" data-name="Path 111411" d="M13660.952,9410.935c0,.1-16.09.193-35.937.193s-35.945-.089-35.945-.193,16.09-.194,35.945-.194S13660.952,9410.808,13660.952,9410.935Z" transform="translate(-13581.474 -9403.554)" fill="#344154"/>
          <path id="Path_111412" data-name="Path 111412" d="M13660.952,9455.375c0,.1-16.09.193-35.937.193s-35.945-.09-35.945-.193,16.09-.194,35.945-.194S13660.952,9455.262,13660.952,9455.375Z" transform="translate(-13581.474 -9414.798)" fill="#344154"/>
          <path id="Path_111413" data-name="Path 111413" d="M13590,9451.774v-9.8l6.11-9.487,4.152,3.182,8.508-13.229,5.02,3.541,6.984-12.2,5.677,4.624,8.516-16.187,9.166,18.092,7.417-9.054,8.732-2.494v43.011Z" transform="translate(-13581.711 -9401.397)" fill="#5e6178"/>
        </g>
        <path id="Path_111414" data-name="Path 111414" d="M13661.205,9406.252h-2.383l-6.723.053h.089l-7.171,9.391-.044.059h-18.047l.157-.089c-2.368,3.937-4.915,8.217-7.553,12.579l-7.425,12.332-.143.24-.164-.225-9.711-13.393h.261l-8.9,13.826-2.487,3.817c-.276.426-.5.747-.657,1a1.471,1.471,0,0,1-.247.328l.2-.358.619-1.017,2.421-3.869,8.777-13.9.127-.194.134.188,9.778,13.355h-.313c2.353-3.914,4.841-8.053,7.41-12.34s5.229-8.635,7.566-12.572l.06-.089h18.077l-.12.06,7.239-9.338v-.044h.052l6.724.053h2.226A.388.388,0,0,0,13661.205,9406.252Z" transform="translate(-13581.726 -9402.367)" fill="#5ab4f9"/>
        <path id="Path_111415" data-name="Path 111415" d="M13609.829,9438.275a.694.694,0,1,1-.693-.664A.68.68,0,0,1,13609.829,9438.275Z" transform="translate(-13586.375 -9410.353)" fill="#5ab4f9"/>
        <path id="Path_111416" data-name="Path 111416" d="M13637.529,9422.506a.694.694,0,1,1-.687-.665A.68.68,0,0,1,13637.529,9422.506Z" transform="translate(-13593.383 -9406.362)" fill="#5ab4f9"/>
        <path id="Path_111417" data-name="Path 111417" d="M13659.132,9418.625a.695.695,0,1,1-.694-.664.68.68,0,0,1,.693.664Z" transform="translate(-13598.85 -9405.381)" fill="#5ab4f9"/>
      </g>
    </g>
    <path id="Path_111418" data-name="Path 111418" d="M13659.321,9503.095c0,.112-19.616.2-43.812.2s-43.818-.09-43.818-.2,19.615-.194,43.818-.194S13659.321,9502.975,13659.321,9503.095Z" transform="translate(-13561.272 -9406.63)" fill="#344154"/>
    <path id="Path_111419" data-name="Path 111419" d="M13659.321,9509.443c0,.105-19.616.2-43.812.2s-43.818-.09-43.818-.2,19.615-.193,43.818-.193S13659.321,9509.332,13659.321,9509.443Z" transform="translate(-13561.272 -9408.236)" fill="#344154"/>
    <path id="Path_111420" data-name="Path 111420" d="M13659.321,9515.783c0,.105-19.616.2-43.812.2s-43.818-.09-43.818-.2,19.615-.193,43.818-.193S13659.321,9515.68,13659.321,9515.783Z" transform="translate(-13561.272 -9409.84)" fill="#344154"/>
    <path id="Path_111421" data-name="Path 111421" d="M13659.321,9522.125c0,.112-19.616.193-43.812.193s-43.818-.082-43.818-.193,19.615-.194,43.818-.194S13659.321,9522.02,13659.321,9522.125Z" transform="translate(-13561.272 -9411.444)" fill="#344154"/>
  </g>
  <g id="Group_58795" data-name="Group 58795" transform="translate(336.139 90.486)">
    <g id="Group_58786" data-name="Group 58786" transform="translate(9.443)">
      <g id="Group_58785" data-name="Group 58785">
        <path id="Path_111422" data-name="Path 111422" d="M13637.467,9510.74c-2.4-4.025-3.1-9.39-3.736-14.036-.283-2.181-.8-5.3.748-6.67s1.793-3.735,3.682-4.862a5.811,5.811,0,0,1,6.244.052" transform="translate(-13614.843 -9482.104)" fill="#344154"/>
        <g id="Group_58784" data-name="Group 58784" transform="translate(21.081)">
          <g id="Group_58783" data-name="Group 58783">
            <path id="Path_111423" data-name="Path 111423" d="M13621.6,9525.748h0a6.467,6.467,0,0,0,6.962-6.2c.135-3.519.254-7.082.254-7.082s5.333-.5,5.723-5.782.209-17.472.209-17.472h0a18.4,18.4,0,0,0-18.6,1.2l.329,18.584v10C13616.521,9522.35,13618.239,9525.494,13621.6,9525.748Z" transform="translate(-13613.41 -9482.851)" fill="#ffbf9d"/>
            <path id="Path_111424" data-name="Path 111424" d="M13626.01,9498.75a2.7,2.7,0,0,0-3.607-.746,3.062,3.062,0,0,0-1.024,3.832,4.076,4.076,0,0,0,2.592,1.963,2.031,2.031,0,0,1,1.592,2.182c-.157,1.322-2.361,1.824-3.355,2.922-1.546,1.7-4.944,2.428-7.238,2.7s-1.972.291-3.279-1.562a7.023,7.023,0,0,1-1.284-4.287l-.247-11.683a16.79,16.79,0,0,1,.27-4.19,5.628,5.628,0,0,1,2.241-3.467c1.284-.844,2.913-.91,4.369-1.389,1.83-.591,3.385-1.8,5.095-2.682s3.81-1.4,5.528-.531c1.232.613,2.062,1.846,3.265,2.532,1.7.972,4.025.747,4.855,3.257a4.2,4.2,0,0,1,0,2.689c-1.158,3.414-5.386,4.788-8.434,3.316a8.408,8.408,0,0,1-.1,3.691c-.193.582-.269,1.494-1.18,1.494" transform="translate(-13610.126 -9481.363)" fill="#344154"/>
          </g>
          <path id="Path_111425" data-name="Path 111425" d="M13626.856,9508.18a.9.9,0,0,1-.664.254,1.239,1.239,0,0,1-.986-1.2,1.324,1.324,0,0,1,.9-1.315c.441-.163.747-.081.747-.142s-.291-.238-.837-.127a1.624,1.624,0,0,0-.83.478,1.567,1.567,0,0,0-.387,1.121,1.493,1.493,0,0,0,1.374,1.494.791.791,0,0,0,.59-.3A.548.548,0,0,0,13626.856,9508.18Z" transform="translate(-13611.943 -9487.498)" fill="#ff9a6c"/>
          <path id="Path_111426" data-name="Path 111426" d="M13640.892,9487.363a1.847,1.847,0,0,0-.441-.448,3.523,3.523,0,0,0-1.605-.627,4.625,4.625,0,0,0-2.526.388,5.727,5.727,0,0,0-2.329,2.084,11.724,11.724,0,0,0-1.644,5.342,14.139,14.139,0,0,0-.143,2.309,12.973,12.973,0,0,0,.417-2.242,12.679,12.679,0,0,1,1.688-5.16,5.647,5.647,0,0,1,2.159-1.98,4.333,4.333,0,0,1,4.424.336Z" transform="translate(-13631.507 -9482.6)" fill="#5e6178"/>
          <path id="Path_111427" data-name="Path 111427" d="M13622.98,9492.422h.2a1.6,1.6,0,0,0,.523-.24,1.922,1.922,0,0,0,.611-.687,1.737,1.737,0,0,0,.164-1.226,2.006,2.006,0,0,0-.85-1.232,2.939,2.939,0,0,0-1.674-.328,2.319,2.319,0,0,1-1.6-.4,11.846,11.846,0,0,1-1.285-1.389,6.629,6.629,0,0,0-3.293-1.9,6.929,6.929,0,0,0-3.092-.066,5.987,5.987,0,0,0-1.951.746,2.246,2.246,0,0,0-.605.465,9.293,9.293,0,0,1,2.6-.942,7.129,7.129,0,0,1,2.988.143,6.407,6.407,0,0,1,3.084,1.813,10.5,10.5,0,0,0,1.352,1.435,2.2,2.2,0,0,0,.912.411,4.308,4.308,0,0,0,.918.045,2.663,2.663,0,0,1,1.5.246,1.674,1.674,0,0,1,.156,2.749,4.4,4.4,0,0,1-.66.358Z" transform="translate(-13598.655 -9482.234)" fill="#5e6178"/>
          <path id="Path_111428" data-name="Path 111428" d="M13627.635,9509.048a7.849,7.849,0,0,1-.7-.426,4.4,4.4,0,0,1-1.441-1.606,4,4,0,0,1-.238-3.092,3.939,3.939,0,0,1,.957-1.584,7.438,7.438,0,0,1,1.65-1.211c.619-.358,1.246-.694,1.814-1.083a6.161,6.161,0,0,0,1.494-1.375,6.437,6.437,0,0,0,1.24-3.13,5.826,5.826,0,0,0-.18-2.241,2.9,2.9,0,0,0-.209-.575c-.061-.126-.1-.193-.105-.186a7.984,7.984,0,0,1,.219,2.987,6.3,6.3,0,0,1-1.25,2.944,5.909,5.909,0,0,1-1.389,1.284c-.553.373-1.172.694-1.8,1.061a8.027,8.027,0,0,0-1.732,1.278,4.292,4.292,0,0,0-1.023,1.747,4.215,4.215,0,0,0,1.941,4.938A1.951,1.951,0,0,0,13627.635,9509.048Z" transform="translate(-13617.504 -9484.19)" fill="#5e6178"/>
          <path id="Path_111429" data-name="Path 111429" d="M13626.676,9501.131a2.325,2.325,0,0,0,.68.156,9.712,9.712,0,0,0,1.906.053,11.7,11.7,0,0,0,5.885-2.024,9.314,9.314,0,0,0,3.869-4.862,4.036,4.036,0,0,0,.074-1.912,1.469,1.469,0,0,0-.262-.65,4.721,4.721,0,0,1-.08,2.488,9.525,9.525,0,0,1-3.818,4.616,12.329,12.329,0,0,1-5.693,2.076C13627.646,9501.242,13626.676,9501.056,13626.676,9501.131Z" transform="translate(-13625.657 -9484.027)" fill="#5e6178"/>
        </g>
        <path id="Path_111430" data-name="Path 111430" d="M13664.684,9498.3a9.309,9.309,0,0,0-7.283-3.294,6.721,6.721,0,0,0-6.1,4.729c-.508,2.01.1,4.107.366,6.17s0,4.481-1.666,5.676a9.413,9.413,0,0,1-3.541,1.166,3.842,3.842,0,0,0-2.928,2.084,2.969,2.969,0,0,0,1.814,3.458,6.645,6.645,0,0,0,4.229.06,3.54,3.54,0,0,0,1.568,4.236,4.692,4.692,0,0,0,4.691-.2,6.983,6.983,0,0,0,2.859-3.876,3.492,3.492,0,0,0,4.8.911,5.04,5.04,0,0,0,1.943-4.833,9.4,9.4,0,0,0-2.437-4.825,12.168,12.168,0,0,1-1.7-2.167,2.743,2.743,0,0,1-.112-2.636,1.6,1.6,0,0,1,2.354-.473" transform="translate(-13643.406 -9484.815)" fill="#344154"/>
      </g>
      <path id="Path_111431" data-name="Path 111431" d="M13643.529,9504.363a1.792,1.792,0,0,0,1.584,0,3.8,3.8,0,0,0,2.3-2.988,3.923,3.923,0,0,0-.247-2.143,4.054,4.054,0,0,0-1.015-1.436,2.712,2.712,0,0,0-1.392-.746,13.545,13.545,0,0,1,1.2.97,3.916,3.916,0,0,1,1.075,3.325,3.733,3.733,0,0,1-2.024,2.809A3.675,3.675,0,0,1,13643.529,9504.363Z" transform="translate(-13625.464 -9485.332)" fill="#5ab4f9"/>
      <path id="Path_111432" data-name="Path 111432" d="M13616.2,9519.172a2.475,2.475,0,0,0,1.21-.12,6.426,6.426,0,0,0,2.57-1.39,6.3,6.3,0,0,0,1.7-2.383,2.476,2.476,0,0,0,.269-1.181,7.338,7.338,0,0,0-.517,1.061,7.331,7.331,0,0,1-4.107,3.66A8.681,8.681,0,0,0,13616.2,9519.172Z" transform="translate(-13579.533 -9489.646)" fill="#ff9a6c"/>
      <path id="Path_111433" data-name="Path 111433" d="M13646.161,9520.385a1.327,1.327,0,0,0,.262-.037,2.718,2.718,0,0,0,.686-.307,3.726,3.726,0,0,0,1.5-2.285,4.8,4.8,0,0,0,.067-1.92,7.745,7.745,0,0,0-.7-2.078c-.665-1.4-1.711-2.718-2.488-4.25a7.471,7.471,0,0,1-.747-2.354,4.534,4.534,0,0,1,2.936-4.893,4.851,4.851,0,0,1,2.614-.163c.62.126.934.306.948.269s-.066-.06-.216-.143a3.624,3.624,0,0,0-.7-.277,4.7,4.7,0,0,0-5.668,2.832,4.851,4.851,0,0,0-.3,2.428,7.916,7.916,0,0,0,.813,2.473c.808,1.591,1.861,2.9,2.519,4.235a5.642,5.642,0,0,1,.688,3.779,3.735,3.735,0,0,1-1.322,2.241A7.343,7.343,0,0,1,13646.161,9520.385Z" transform="translate(-13629.813 -9486.526)" fill="#5e6178"/>
      <path id="Path_111434" data-name="Path 111434" d="M13644.379,9523.994a.932.932,0,0,0,.329,0,3.779,3.779,0,0,0,.942-.171,5.325,5.325,0,0,0,2.756-2.145,8.139,8.139,0,0,0,1.18-5.035,49.969,49.969,0,0,0-1.015-6.253,14.743,14.743,0,0,1-.226-3.211,8.378,8.378,0,0,1,.681-2.892,5.225,5.225,0,0,1,3.734-3.092,7.734,7.734,0,0,1,3.4,0c.8.179,1.218.358,1.233.32a1.486,1.486,0,0,0-.29-.15,5.865,5.865,0,0,0-.905-.312,7.375,7.375,0,0,0-3.5-.136,5.639,5.639,0,0,0-2.24,1,5.745,5.745,0,0,0-1.741,2.241,8.579,8.579,0,0,0-.746,2.988,14.5,14.5,0,0,0,.222,3.3,55.741,55.741,0,0,1,1.038,6.215,7.988,7.988,0,0,1-1.052,4.862,5.355,5.355,0,0,1-2.57,2.152A8.612,8.612,0,0,1,13644.379,9523.994Z" transform="translate(-13636.024 -9486.273)" fill="#5e6178"/>
    </g>
    <path id="Path_111435" data-name="Path 111435" d="M14026.923,9776.72l11.205,8.771-4.705,7.753-13.521-9.979Z" transform="translate(-14010.694 -9714.946)" fill="#ffbf9d"/>
    <path id="Path_111436" data-name="Path 111436" d="M13587.185,9522s-.06-.934,2.4-1.067,2.727-.1,2.727-.1a6.234,6.234,0,0,0,1.173-2.242,6.81,6.81,0,0,0-.529-2.308l-2.481-.23.673-1.688,1.755.127,4.938.59,1.964,8.65,13.49,25.174a6.5,6.5,0,0,1-2.576,9.465h0c-3.488,1.688-8.157-1.89-9.449-5.542l-7.47-28-2.63-2.054-3.734-.687" transform="translate(-13540.851 -9489.715)" fill="#ffbf9d"/>
    <path id="Path_111437" data-name="Path 111437" d="M13639.725,9707.434l-18.361-105.639h0c-.044-.157-.082-.307-.119-.456h0c-3.122-12.385-7.94-16.359-7.94-16.359l-28.095,1.763c-2.391,4.3-2.7,14.6-2.7,14.6-.329,1.263,5.938,103.622,5.938,103.622l9.4-.261,5.095-96.84,27.348,100Z" transform="translate(-13562.69 -9507.579)" fill="#ffbf9d"/>
    <g id="Group_58790" data-name="Group 58790" transform="translate(67.472 199.846)">
      <g id="Group_58788" data-name="Group 58788" transform="translate(0.12)">
        <path id="Path_111438" data-name="Path 111438" d="M13583.044,9749.855v-.956l-9.666.276.082,3.152h.6c2.659.067,13.528.164,15.291-.389C13591.261,9751.343,13583.044,9749.855,13583.044,9749.855Z" transform="translate(-13573.378 -9748.899)" fill="#5ab4f9"/>
        <g id="Group_58787" data-name="Group 58787" transform="translate(0.015 0.788)" opacity="0.6">
          <path id="Path_111439" data-name="Path 111439" d="M13593.926,9752.431a3.1,3.1,0,0,0-1.285-1.874,3.445,3.445,0,0,0-2.24-.59l.074,2.494Z" transform="translate(-13590.4 -9749.954)" fill="#fff"/>
        </g>
      </g>
      <g id="Group_58789" data-name="Group 58789" transform="translate(0.175 1.816)" opacity="0.6">
        <path id="Path_111440" data-name="Path 111440" d="M13587.012,9751.33s2.883.694,2.539,1.143-11.33.748-16.186.471v-.2l12.818-.239S13586.488,9751.367,13587.012,9751.33Z" transform="translate(-13573.365 -9751.33)" fill="#fff"/>
      </g>
      <path id="Path_111441" data-name="Path 111441" d="M13573.441,9753.068a.441.441,0,0,0,.164,0h2.226c1.494,0,3.526,0,5.782-.053s4.295-.156,5.774-.239l1.748-.119h.635a.577.577,0,0,0-.164,0h-.478l-1.748.074c-1.494.067-3.519.149-5.774.21s-4.3.082-5.775.089h-2.39Z" transform="translate(-13573.441 -9749.849)" fill="#344154"/>
      <path id="Path_111442" data-name="Path 111442" d="M13576.739,9752.619a2.948,2.948,0,0,1,.3-.747,4.329,4.329,0,0,1,.575-.643,1.32,1.32,0,0,0-.673.583A1.134,1.134,0,0,0,13576.739,9752.619Z" transform="translate(-13563.741 -9749.489)" fill="#344154"/>
      <path id="Path_111443" data-name="Path 111443" d="M13581.143,9751.134a1.947,1.947,0,0,0,.291-.351c.133-.209.223-.389.193-.4s-.156.143-.291.352A1.515,1.515,0,0,0,13581.143,9751.134Z" transform="translate(-13571.057 -9749.272)" fill="#344154"/>
      <path id="Path_111444" data-name="Path 111444" d="M13582.008,9750.734a1.455,1.455,0,0,0,.336-.217c.164-.142.27-.276.254-.3s-.172.074-.336.217A.93.93,0,0,0,13582.008,9750.734Z" transform="translate(-13572.67 -9749.232)" fill="#344154"/>
      <path id="Path_111445" data-name="Path 111445" d="M13582.159,9749.775a1.291,1.291,0,0,0,.5.045,1.266,1.266,0,0,0,.5-.06c0-.038-.225-.053-.5-.053a1.247,1.247,0,0,0-.5.068Z" transform="translate(-13573.345 -9749.104)" fill="#344154"/>
      <path id="Path_111446" data-name="Path 111446" d="M13582.271,9749a1.077,1.077,0,0,0,.561.134,1.052,1.052,0,0,0,.583-.089,3.535,3.535,0,0,0-.575,0,2.7,2.7,0,0,0-.568-.044Z" transform="translate(-13573.68 -9748.925)" fill="#344154"/>
      <path id="Path_111447" data-name="Path 111447" d="M13578.9,9750.064a2.151,2.151,0,0,0,.613,0,3.682,3.682,0,0,0,.657-.149,1.766,1.766,0,0,0,.373-.157.332.332,0,0,0,.148-.18.222.222,0,0,0-.1-.23,1.188,1.188,0,0,0-1.39.344.957.957,0,0,0-.194.4c0,.1,0,.149,0,.149a1.474,1.474,0,0,1,.261-.492,1.175,1.175,0,0,1,.523-.337,1.017,1.017,0,0,1,.747,0c.1.067.06.173-.045.239a2.393,2.393,0,0,1-.343.143,4.546,4.546,0,0,1-.635.173C13579.122,9750.042,13578.9,9750.042,13578.9,9750.064Z" transform="translate(-13568.439 -9748.988)" fill="#344154"/>
      <path id="Path_111448" data-name="Path 111448" d="M13581.83,9750a.54.54,0,0,0,.061-.4.871.871,0,0,0-.181-.41.631.631,0,0,0-.522-.285.236.236,0,0,0-.186.276.717.717,0,0,0,.111.255,1.923,1.923,0,0,0,.307.336.818.818,0,0,0,.357.224,2.92,2.92,0,0,1-.3-.276,1.824,1.824,0,0,1-.27-.336c-.09-.119-.156-.336,0-.366s.314.12.411.231a.817.817,0,0,1,.186.366A2.573,2.573,0,0,1,13581.83,9750Z" transform="translate(-13571.223 -9748.899)" fill="#344154"/>
      <path id="Path_111449" data-name="Path 111449" d="M13590.37,9749.9h.747a3.215,3.215,0,0,1,1.569.552,2.932,2.932,0,0,1,1.007,1.248c.157.381.18.635.2.635a.5.5,0,0,0,0-.18,2.077,2.077,0,0,0-.12-.485,2.83,2.83,0,0,0-1.016-1.307,3.131,3.131,0,0,0-1.637-.547,2.678,2.678,0,0,0-.523,0A.78.78,0,0,0,13590.37,9749.9Z" transform="translate(-13590.22 -9749.128)" fill="#344154"/>
      <path id="Path_111450" data-name="Path 111450" d="M13585.029,9752.042a6.379,6.379,0,0,0,1.41.09,5.82,5.82,0,0,0,1.406-.143h-1.4A7.562,7.562,0,0,0,13585.029,9752.042Z" transform="translate(-13580.173 -9749.682)" fill="#344154"/>
      <path id="Path_111451" data-name="Path 111451" d="M13590.918,9752.119s.053.119.119.254.113.246.143.246.045-.143-.037-.291S13590.918,9752.1,13590.918,9752.119Z" transform="translate(-13587.93 -9749.713)" fill="#344154"/>
      <path id="Path_111452" data-name="Path 111452" d="M13591.8,9751a.645.645,0,0,0,.149.209c.105.1.2.143.225.12s-.045-.112-.143-.2A.67.67,0,0,0,13591.8,9751Z" transform="translate(-13589.555 -9749.431)" fill="#344154"/>
      <path id="Path_111453" data-name="Path 111453" d="M13592.965,9750.555c0,.037.133,0,.275.074s.246.1.27.09-.061-.149-.23-.194A.355.355,0,0,0,13592.965,9750.555Z" transform="translate(-13591.769 -9749.307)" fill="#344154"/>
      <path id="Path_111454" data-name="Path 111454" d="M13594.313,9750.355a.276.276,0,0,0,.127.1.269.269,0,0,0,.164,0,.208.208,0,0,0-.127-.1C13594.395,9750.34,13594.313,9750.333,13594.313,9750.355Z" transform="translate(-13593.864 -9749.265)" fill="#344154"/>
    </g>
    <g id="Group_58791" data-name="Group 58791" transform="translate(0 34.733)">
      <path id="Path_111455" data-name="Path 111455" d="M13675.449,9528.57a18.522,18.522,0,0,0-7.471,2.928c-8.881,5.76-23.738,17.928-22.506,23.583,1.047,4.8,12.639,10.63,12.639,10.63l7.523-9.054-4.617-2.637,11.348-7.544Z" transform="translate(-13645.4 -9528.04)" fill="#344154"/>
      <path id="Path_111456" data-name="Path 111456" d="M13591.688,9546.729l.366,1.352,1.308,6.237.321,9.15c-6.724,8.68-6.843,15.985-6.843,15.985l34.04,3.975c0-6.723-2.457-15.187-2.457-15.187-1.965-3.347-1.875-13.341-1.494-13.707,2.121-2.106,2.637-3.652.94-6.35,0,0,10.556,11.086,11.639,12.079,3.734,3.421,7.313,2.465,8.964.979,4.661-4.153-.12-9.524-.12-9.524l-17.777-20.37a8.877,8.877,0,0,0-4.616-2.815,38.431,38.431,0,0,0-3.81-.673l-11.869.1a20.2,20.2,0,0,0-3.533.434,8.477,8.477,0,0,0-5.186,6.424C13590.494,9539.917,13591.688,9546.729,13591.688,9546.729Z" transform="translate(-13566.72 -9527.86)" fill="#344154"/>
      <path id="Path_111457" data-name="Path 111457" d="M13649.566,9542.2a4.4,4.4,0,0,0-.076.986c0,.635,0,1.554.068,2.688a70.636,70.636,0,0,0,1.172,8.8c.217,1.164.457,2.277.7,3.316h0c.105,2.645.209,4.93.3,6.559.045.747.09,1.39.121,1.9a2.745,2.745,0,0,0,.09.68,2.45,2.45,0,0,0,0-.687v-1.905c0-1.627-.082-3.914-.164-6.559v-.037c-.23-1.03-.463-2.15-.68-3.309-.648-3.391-1.082-6.492-1.283-8.747-.1-1.128-.15-2.04-.187-2.675a5.2,5.2,0,0,0-.062-1.016Z" transform="translate(-13624.972 -9531.488)" fill="#5e6178"/>
      <path id="Path_111458" data-name="Path 111458" d="M13664.983,9554.45a69.466,69.466,0,0,0-6.208,4.063,73.149,73.149,0,0,0-5.976,4.378,69.008,69.008,0,0,0,6.215-4.063,72.144,72.144,0,0,0,5.968-4.379Z" transform="translate(-13640.462 -9534.588)" fill="#5e6178"/>
      <path id="Path_111459" data-name="Path 111459" d="M13614.254,9536.59s-.074,0-.18.127a5.034,5.034,0,0,0-.427.463,5.376,5.376,0,0,0-.918,2.114,6.946,6.946,0,0,0,.193,3.406,13.689,13.689,0,0,0,1.911,3.734,12.813,12.813,0,0,0,1.4,1.652c.494.5,1.024.918,1.5,1.336.94.844,1.748,1.65,2.42,2.331s1.2,1.247,1.568,1.644a4.1,4.1,0,0,0,.6.589,3.216,3.216,0,0,0-.486-.687c-.328-.426-.829-1.023-1.493-1.733s-1.449-1.538-2.384-2.4c-.47-.441-.986-.859-1.493-1.345a13.677,13.677,0,0,1-1.36-1.606,14.363,14.363,0,0,1-1.882-3.592,6.981,6.981,0,0,1-.27-3.258A5.994,5.994,0,0,1,13614.254,9536.59Z" transform="translate(-13567.771 -9530.069)" fill="#5e6178"/>
      <path id="Path_111460" data-name="Path 111460" d="M14012.706,9787.982l-.373-4.572H13989.1l.15,3.57Z" transform="translate(-13962.265 -9751.372)" fill="#5e6178"/>
      <path id="Path_111461" data-name="Path 111461" d="M13592.6,9559.36" transform="translate(-13523.109 -9535.83)" fill="none" stroke="#7a9198" stroke-miterlimit="10" stroke-width="0.05" opacity="0"/>
      <path id="Path_111462" data-name="Path 111462" d="M13587.868,9558.6a17.887,17.887,0,0,1,1.293,1.345,6.185,6.185,0,0,1-.329,8.113,18.59,18.59,0,0,1-1.4,1.231.971.971,0,0,0,.477-.194,5.123,5.123,0,0,0,1.113-.851,6.128,6.128,0,0,0,.344-8.472,5.436,5.436,0,0,0-1.039-.94C13588.018,9558.65,13587.868,9558.576,13587.868,9558.6Z" transform="translate(-13517.557 -9535.637)" fill="#5e6178"/>
    </g>
    <g id="Group_58792" data-name="Group 58792" transform="translate(23.177 197.09)">
      <path id="Path_111463" data-name="Path 111463" d="M14012.114,9958.132l-2.614,6.125,11.8-.142.225-6.245Z" transform="translate(-14009.5 -9957.87)" fill="#5ab4f9"/>
      <path id="Path_111464" data-name="Path 111464" d="M13649.958,9752.1a11.137,11.137,0,0,1-1.644.09h-3.989l-3.974-.082a14.342,14.342,0,0,1-1.651-.083,10.975,10.975,0,0,1,1.651-.082h3.981l3.981.082a13.4,13.4,0,0,1,1.644.074Z" transform="translate(-13638.081 -9746.911)" fill="#344154"/>
      <path id="Path_111465" data-name="Path 111465" d="M13645.537,9745.38a8.241,8.241,0,0,1,.045,2.488,8.4,8.4,0,0,1-.32,2.464,8.171,8.171,0,0,1-.045-2.487A8.284,8.284,0,0,1,13645.537,9745.38Z" transform="translate(-13638.59 -9745.253)" fill="#344154"/>
      <path id="Path_111466" data-name="Path 111466" d="M14009.7,9966.076l11.8-.4.075-1.12-11.279.1-.6,1.285" transform="translate(-14009.701 -9959.563)" fill="#fff" opacity="0.6"/>
    </g>
    <g id="Group_58794" data-name="Group 58794" transform="translate(17.426 70.341)">
      <path id="Path_111467" data-name="Path 111467" d="M13579.707,9585.592c-8.867,27.975,2.563,61.934-.18,94.531-.27,3.205-1.568,7.037,1.428,8.859a4.933,4.933,0,0,0,2.7.658c2.391-.075,4.393-1.322,6.529-2.174a19.344,19.344,0,0,1,12.848-.494c2.824.881,5.633,2.436,8.561,1.994,3.893-.59,6.41-4.437,9.988-6.064,3.354-1.494,7.223-.957,10.9-1.047h.113a8.269,8.269,0,0,0,7.635-10.459c-5.357-19.6-23.1-83.258-30.957-94.866l-23.484-1C13583.666,9578.122,13580.9,9582.051,13579.707,9585.592Z" transform="translate(-13576.272 -9575.529)" fill="#5ab4f9"/>
      <path id="Path_111468" data-name="Path 111468" d="M13632.269,9606.66a10.434,10.434,0,0,0,1.276,1.606,36.467,36.467,0,0,0,3.467,3.547,23.638,23.638,0,0,0,4.094,2.816,8.857,8.857,0,0,0,1.867.859,62.847,62.847,0,0,1-5.706-3.974c-1.441-1.255-2.629-2.532-3.519-3.436a10.441,10.441,0,0,0-1.479-1.421Z" transform="translate(-13620.543 -9583.405)" fill="#344154"/>
      <g id="Group_58793" data-name="Group 58793" transform="translate(22.035 33.817)" opacity="0.1">
        <path id="Path_111469" data-name="Path 111469" d="M13614.243,9620.8a100.015,100.015,0,0,1,3.936,59.879c-.417,1.7-.851,3.652.128,5.116,1.254,1.9,4.31,1.771,6.035.276s2.413-3.832,2.846-6.072c3.228-16.687-2.614-33.458-8.919-49.242" transform="translate(-13614.243 -9620.8)" fill="#5ab4f9"/>
      </g>
    </g>
  </g>
  <g id="Group_58826" data-name="Group 58826" transform="translate(150.068 124.604)">
    <g id="Group_58802" data-name="Group 58802" transform="translate(80.608 50.341)">
      <g id="Group_58799" data-name="Group 58799">
        <g id="Group_58797" data-name="Group 58797">
          <g id="Group_58796" data-name="Group 58796">
            <rect id="Rectangle_9142" data-name="Rectangle 9142" width="44.513" height="2.166" transform="translate(0 29.118)" fill="#344154"/>
            <path id="Path_111470" data-name="Path 111470" d="M13779.388,9838.373l8.366-31.283h-34.81l-7.544,31.283Z" transform="translate(-13728.003 -9807.09)" fill="#344154"/>
          </g>
          <path id="Path_111471" data-name="Path 111471" d="M13748.1,9836.494h31.075l7.171-27.475H13755.2Z" transform="translate(-13728.611 -9807.578)" fill="#aed3f2"/>
        </g>
        <path id="Path_111472" data-name="Path 111472" d="M13408.326,9598.332h-31.217l.522-1.972h31.21Z" transform="translate(-13351.114 -9594.918)" fill="#aed3f2"/>
        <g id="Group_58798" data-name="Group 58798" transform="translate(53.194 2.092)">
          <path id="Path_111473" data-name="Path 111473" d="M13382.957,9597.574a.328.328,0,1,1-.334-.344A.343.343,0,0,1,13382.957,9597.574Z" transform="translate(-13382.301 -9597.23)" fill="#fafafa"/>
          <path id="Path_111474" data-name="Path 111474" d="M13381.388,9597.574a.344.344,0,1,1-.344-.344.352.352,0,0,1,.345.344Z" transform="translate(-13379.537 -9597.23)" fill="#fafafa"/>
          <path id="Path_111475" data-name="Path 111475" d="M13379.766,9597.574a.351.351,0,0,1-.344.343.344.344,0,0,1,0-.687A.351.351,0,0,1,13379.766,9597.574Z" transform="translate(-13376.719 -9597.23)" fill="#fafafa"/>
        </g>
      </g>
      <g id="Group_58801" data-name="Group 58801" transform="translate(28.236 8.456)">
        <path id="Path_111476" data-name="Path 111476" d="M13407.339,9613.44l-3.421,3.906a4.821,4.821,0,0,1-2.1-3.929c0-2.734,2.51-4.975,5.535-4.968a5.274,5.274,0,0,1,5.5,5.013Z" transform="translate(-13401.819 -9606.434)" fill="#5ab4f9"/>
        <path id="Path_111477" data-name="Path 111477" d="M13404.813,9615.971a8.409,8.409,0,0,0-.979.978c-.613.657-1.494,1.614-2.525,2.779l-.119.134.15.112a5.916,5.916,0,0,0,5.758.566,5.685,5.685,0,0,0,2.375-1.911,4.852,4.852,0,0,0,.875-2.562v-.179h-4.1a8.9,8.9,0,0,0-1.441.067,9.015,9.015,0,0,0,1.494.119c.941.045,2.24.09,3.869.135l-.164-.172a4.683,4.683,0,0,1-.852,2.359,5.372,5.372,0,0,1-2.24,1.771,5.684,5.684,0,0,1-5.416-.479v.239c.994-1.157,1.809-2.136,2.375-2.831A9.11,9.11,0,0,0,13404.813,9615.971Z" transform="translate(-13398.844 -9608.313)" fill="#344154"/>
        <path id="Path_111478" data-name="Path 111478" d="M13406.219,9611.073a.32.32,0,0,1-.313.306.3.3,0,0,1-.219-.092.31.31,0,0,1-.088-.221.307.307,0,0,1,.307-.307.314.314,0,0,1,.314.313Z" transform="translate(-13398.01 -9607.018)" fill="#344154"/>
        <path id="Path_111479" data-name="Path 111479" d="M13403.762,9608.1a17.318,17.318,0,0,0-3.7-.21h-.566l-.061.053a14.839,14.839,0,0,0-2.137,2.391,14.33,14.33,0,0,0,2.406-2.114l-.135.053h.492A18.1,18.1,0,0,0,13403.762,9608.1Z" transform="translate(-13389.352 -9606.286)" fill="#344154"/>
        <path id="Path_111480" data-name="Path 111480" d="M13394.329,9611.479a10.445,10.445,0,0,0,.358-1.442c.21-.947.5-2.338.845-4.033v-.187h-.194l-7.724-.066-.193.156h0v.18l-.038.18-.066.366c-.053.247-.1.485-.143.747-.09.479-.172.948-.261,1.412-.173.918-.329,1.807-.486,2.637l-.037.209h.209c2.324,0,4.273,0,5.633-.06l1.562-.044a2.087,2.087,0,0,0,.529,0,3.827,3.827,0,0,0-.6-.053l-1.6-.053c-1.367-.037-3.271-.082-5.528-.1l.173.21c.164-.83.336-1.711.516-2.63q.135-.694.27-1.411c.044-.24.089-.479.142-.747l.067-.366.037-.187v-.172h0c.172-.143-.231.188-.187.157h7.724l-.157-.187c-.291,1.643-.516,2.988-.672,3.975A14.177,14.177,0,0,0,13394.329,9611.479Z" transform="translate(-13372.973 -9605.75)" fill="#344154"/>
        <g id="Group_58800" data-name="Group 58800" transform="translate(8.038 8.882)">
          <path id="Path_111481" data-name="Path 111481" d="M13405.621,9619.4a.312.312,0,0,1-.313.313.319.319,0,0,1-.307-.312.3.3,0,0,1,.093-.219.311.311,0,0,1,.527.219Z" transform="translate(-13405.001 -9618.008)" fill="#344154"/>
          <path id="Path_111482" data-name="Path 111482" d="M13403.5,9619.052a10.232,10.232,0,0,0-2.809-.2,1.4,1.4,0,1,0,0,.389,10.629,10.629,0,0,0,2.809-.187Z" transform="translate(-13397.579 -9617.641)" fill="#344154"/>
        </g>
        <path id="Path_111483" data-name="Path 111483" d="M13394.494,9621.33a6.153,6.153,0,0,0,.338-1.031c.2-.687.492-1.7.844-2.988l.043-.18h-.186c-2.107-.037-4.908-.066-7.971-.082.172-.127-.23.18-.187.15h0v.246l-.066.27-.135.522c-.09.351-.178.694-.26,1.03l-.494,1.958-.059.231h.23c2.361,0,4.377,0,5.781-.061l1.629-.044a1.872,1.872,0,0,0,.561-.053,3.981,3.981,0,0,0-.627-.044l-1.668-.061c-1.41,0-3.375-.082-5.676-.1l.18.223c.164-.619.336-1.277.508-1.949q.135-.507.27-1.031l.133-.522.068-.269v-.246h0l-.187.142h7.963l-.135-.187c-.3,1.225-.521,2.24-.68,2.943A7.412,7.412,0,0,0,13394.494,9621.33Z" transform="translate(-13373.138 -9608.601)" fill="#344154"/>
        <path id="Path_111484" data-name="Path 111484" d="M13394.082,9608.23a8.915,8.915,0,0,0-2.639-.209,9.4,9.4,0,0,0-2.645.186,9.084,9.084,0,0,0,2.645.2,9.23,9.23,0,0,0,2.637-.179Z" transform="translate(-13373.323 -9606.318)" fill="#344154"/>
        <path id="Path_111485" data-name="Path 111485" d="M13394.219,9609.389a9.08,9.08,0,0,0-2.658-.21,8.923,8.923,0,0,0-2.66.188,18.662,18.662,0,0,0,5.318,0Z" transform="translate(-13373.534 -9606.61)" fill="#344154"/>
        <path id="Path_111486" data-name="Path 111486" d="M13394.232,9610.5a8.947,8.947,0,0,0-2.569-.2,8.729,8.729,0,0,0-2.563.179,16.691,16.691,0,0,0,5.133,0Z" transform="translate(-13373.697 -9606.896)" fill="#344154"/>
        <path id="Path_111487" data-name="Path 111487" d="M13394.035,9619.361a8.057,8.057,0,0,0-2.518-.209,8.657,8.657,0,0,0-2.518.188,8.24,8.24,0,0,0,2.518.2A8.39,8.39,0,0,0,13394.035,9619.361Z" transform="translate(-13373.426 -9609.136)" fill="#344154"/>
        <path id="Path_111488" data-name="Path 111488" d="M13393.7,9620.654a12.02,12.02,0,0,0-4.3,0,12.02,12.02,0,0,0,4.3,0Z" transform="translate(-13373.394 -9609.472)" fill="#344154"/>
      </g>
    </g>
    <path id="Path_111489" data-name="Path 111489" d="M13873.083,9848.83v4.108h-2.689v83.072h-5.527v-83.072h-29.208v83.072h-5.527v-83.072h-126.914v83.05h-5.527v-83.05h-2.39v-4.108Z" transform="translate(-13695.3 -9767.31)" fill="#344154"/>
    <ellipse id="Ellipse_4207" data-name="Ellipse 4207" cx="0.194" cy="0.097" rx="0.194" ry="0.097" transform="translate(110.286 113.133)" fill="#5e6178"/>
    <g id="Group_58824" data-name="Group 58824" transform="translate(33.687)">
      <g id="Group_58806" data-name="Group 58806" transform="translate(4.588 7.684)">
        <path id="Path_111491" data-name="Path 111491" d="M13456.625,9569.023l20.587-20.916.448-2.241c.082-.41.172-.873.254-1.4a5.676,5.676,0,0,0,0-1.845,8.354,8.354,0,0,0-.635-2.2c-.344-.605.209-1.338.747-1.084s1.568,1.9,1.784,4.153,2.145-.747,2.861-1.815,3.107-4.317,3.608-4.354c.747-.06.911.747.172,1.793s-2.764,4.407-2.2,4.766h0a2.7,2.7,0,0,1,2.846,1.412c.522,1,1.1,2.413.627,3.07a37.959,37.959,0,0,1-3.287,3.474l-.687.6s-17.815,25.815-21.663,26.652c-2.413.522-39.747,3.615-39.747,3.615l-2.815-10.286Z" transform="translate(-13419.529 -9537.325)" fill="#b78876"/>
        <g id="Group_58803" data-name="Group 58803" transform="translate(64.517 9.11)">
          <path id="Path_111492" data-name="Path 111492" d="M13423.266,9550.984l-1.9,1.83a2.319,2.319,0,0,1-.747.523.687.687,0,0,1-.948-.9,2.242,2.242,0,0,1,.44-.68l1.853-2.241" transform="translate(-13419.462 -9549.521)" fill="#b78876"/>
          <path id="Path_111493" data-name="Path 111493" d="M13422.125,9549.539c-.045-.037-.4.32-.941.919l-.939,1.068a3.4,3.4,0,0,0-.531.71,1.03,1.03,0,0,0,.053,1.061.942.942,0,0,0,1.045.239,2.041,2.041,0,0,0,.748-.53c.344-.344.672-.687.994-1.017a4.485,4.485,0,0,0,.85-1c-.037-.045-.432.27-1.037.807l-1.053.957a1.9,1.9,0,0,1-.629.418.545.545,0,0,1-.611-.119.646.646,0,0,1,0-.65,3.619,3.619,0,0,1,.457-.643l.879-1.121A4.582,4.582,0,0,0,13422.125,9549.539Z" transform="translate(-13419.591 -9549.524)" fill="#aa6550"/>
        </g>
        <g id="Group_58804" data-name="Group 58804" transform="translate(63.17 7.792)">
          <path id="Path_111494" data-name="Path 111494" d="M13425.047,9549.205l-1.905,1.83a2.367,2.367,0,0,1-.747.53.791.791,0,0,1-.836-.134.81.81,0,0,1-.112-.748,2.268,2.268,0,0,1,.44-.672l1.853-2.241" transform="translate(-13421.241 -9547.76)" fill="#b78876"/>
          <path id="Path_111495" data-name="Path 111495" d="M13423.922,9547.759c-.045-.037-.4.321-.941.919-.306.344-.62.694-.94,1.068a3.412,3.412,0,0,0-.532.746,1.016,1.016,0,0,0,.055,1.054.93.93,0,0,0,1.046.239,2.106,2.106,0,0,0,.746-.523l.994-1.016c.561-.583.89-.964.852-1.008a4.538,4.538,0,0,0-1.038.814l-1.054.948a1.792,1.792,0,0,1-.627.426.559.559,0,0,1-.613-.12.648.648,0,0,1,0-.649,3.667,3.667,0,0,1,.455-.65c.307-.381.6-.747.881-1.12a4.616,4.616,0,0,0,.717-1.127Z" transform="translate(-13421.386 -9547.756)" fill="#aa6550"/>
        </g>
        <g id="Group_58805" data-name="Group 58805" transform="translate(61.679 6.689)">
          <path id="Path_111496" data-name="Path 111496" d="M13427.061,9547.737l-1.9,1.83a2.23,2.23,0,0,1-.748.53.686.686,0,0,1-.939-.9,2.078,2.078,0,0,1,.439-.674c.613-.747,1.233-1.494,1.845-2.241" transform="translate(-13423.258 -9546.28)" fill="#b78876"/>
          <path id="Path_111497" data-name="Path 111497" d="M13425.923,9546.3a5.913,5.913,0,0,0-.94.919l-.941,1.061a3.527,3.527,0,0,0-.523.748.987.987,0,0,0,.052,1.053.92.92,0,0,0,1.039.24,2.131,2.131,0,0,0,.747-.523l1-1.017a4.445,4.445,0,0,0,.844-1.009,4.817,4.817,0,0,0-1.039.809l-1.052.955a1.842,1.842,0,0,1-.62.426.583.583,0,0,1-.62-.12.626.626,0,0,1,0-.649,3.43,3.43,0,0,1,.456-.65l.873-1.12A4.292,4.292,0,0,0,13425.923,9546.3Z" transform="translate(-13423.39 -9546.285)" fill="#aa6550"/>
        </g>
        <path id="Path_111498" data-name="Path 111498" d="M13429.6,9551.418c0-.061-.471-.156-1.157.053l.217.187a3.241,3.241,0,0,0,.052-1.308,3.358,3.358,0,0,0-.746-1.591c-.292-.343-.538-.478-.568-.44a6.707,6.707,0,0,1,.9,2.1,4.02,4.02,0,0,1,0,1.181l-.043.3.261-.112A10.144,10.144,0,0,0,13429.6,9551.418Z" transform="translate(-13367.109 -9540.105)" fill="#aa6550"/>
      </g>
      <g id="Group_58808" data-name="Group 58808" transform="translate(10.028)">
        <g id="Group_58807" data-name="Group 58807">
          <path id="Path_111499" data-name="Path 111499" d="M13472.625,9536.584l-.09,28.654,11.205.53.447-6.865s5.394.821,6.522-3.234c.746-2.592.537-22.619.537-22.619Z" transform="translate(-13467.936 -9528.56)" fill="#b78876"/>
          <path id="Path_111500" data-name="Path 111500" d="M13494.314,9534.359c-.829,1.711-4.772,4.849-4.772,4.849l-1.785,4.772c-1.547-1.217-3.623-1.143-4.019,1.576-.284,1.965,2.158,2.361,2.158,2.361a34.317,34.317,0,0,1-4.481,6.678c-2.241,2.5-3.5,2.742-5.932,2.787h-2.682s-5.483-4.586-4.4-16.658,11.951-8.545,14.529-11.562C13487.144,9524.253,13497.079,9528.638,13494.314,9534.359Z" transform="translate(-13468.261 -9527.038)" fill="#344154"/>
        </g>
        <path id="Path_111501" data-name="Path 111501" d="M13469.112,9552.38a3.954,3.954,0,0,0,1.321-.067,6.862,6.862,0,0,0,3.206-1.643,17.493,17.493,0,0,0,3.233-4.281c1.046-1.7,2.188-3.734,4.108-5.02s4.229-1.568,6.192-1.972a11.716,11.716,0,0,0,5-1.9,5.392,5.392,0,0,0,2-2.988,2.975,2.975,0,0,0,.054-1.321,4.138,4.138,0,0,1-.112,1.314,5.4,5.4,0,0,1-2.01,2.892,11.629,11.629,0,0,1-4.959,1.844c-1.958.4-4.259.658-6.254,1.98s-3.1,3.369-4.138,5.079a17.564,17.564,0,0,1-3.189,4.273,6.9,6.9,0,0,1-3.138,1.665,5.416,5.416,0,0,1-.972.119Z" transform="translate(-13468.381 -9528.595)" fill="#5e6178"/>
        <path id="Path_111502" data-name="Path 111502" d="M13469.22,9542.02l.575-.173a8.541,8.541,0,0,1,1.688-.372,3.742,3.742,0,0,1,2.585.574,2.125,2.125,0,0,1,.9,1.359,1.9,1.9,0,0,1-.522,1.711,1.494,1.494,0,0,1-.905.358,1.9,1.9,0,0,1-.992-.269,3.088,3.088,0,0,1-1.353-1.726,4.281,4.281,0,0,1,3.6-5.609,7.458,7.458,0,0,1,2.779.366,19.718,19.718,0,0,0,2.876.688,11.588,11.588,0,0,0,3.049,0,10.119,10.119,0,0,0,2.943-.813,3.539,3.539,0,0,0,2.008-2.122,2.771,2.771,0,0,0-.679-2.7,2.4,2.4,0,0,0-2.63-.389,1.966,1.966,0,0,0-.972.92,2.189,2.189,0,0,0-.208,1.285,2.934,2.934,0,0,0,1.308,2.047,4.217,4.217,0,0,0,2.24.612,6.557,6.557,0,0,0,2.091-.321,7.4,7.4,0,0,0,3.078-1.9,7.772,7.772,0,0,0,1.568-2.241,7.991,7.991,0,0,0,.561-1.645c.067-.388.09-.6.09-.6s-.045.2-.12.59a8.536,8.536,0,0,1-.582,1.621,7.944,7.944,0,0,1-1.577,2.241,7.521,7.521,0,0,1-3.048,1.853,6.365,6.365,0,0,1-2.061.307,4.055,4.055,0,0,1-2.138-.6,2.8,2.8,0,0,1-1.247-1.957,1.937,1.937,0,0,1,1.105-2.055,2.241,2.241,0,0,1,2.465.367,2.621,2.621,0,0,1,.636,2.561,3.359,3.359,0,0,1-1.928,2.017,10.017,10.017,0,0,1-2.891.807,11.861,11.861,0,0,1-2.988,0,19.861,19.861,0,0,1-2.853-.688,7.547,7.547,0,0,0-2.84-.366,4.482,4.482,0,0,0-2.487,1.113,4.414,4.414,0,0,0-1.226,4.684,3.224,3.224,0,0,0,1.421,1.794,1.953,1.953,0,0,0,1.052.275,1.544,1.544,0,0,0,.979-.387,2.015,2.015,0,0,0,.546-1.809,2.242,2.242,0,0,0-.948-1.412,3.734,3.734,0,0,0-2.645-.567,8.348,8.348,0,0,0-1.687.4Z" transform="translate(-13469.086 -9528.057)" fill="#5e6178"/>
      </g>
      <g id="Group_58812" data-name="Group 58812" transform="translate(13.814 150.123)">
        <g id="Group_58810" data-name="Group 58810">
          <path id="Path_111503" data-name="Path 111503" d="M13489.243,9739.595l3.652-4.691-8.732-6.895-5.416,6.8.516.464c2.3,2.039,11.862,10.2,13.856,10.98C13495.367,9747.125,13489.243,9739.595,13489.243,9739.595Z" transform="translate(-13478.702 -9728.009)" fill="#5ab4f9"/>
          <g id="Group_58809" data-name="Group 58809" transform="translate(0 6.627)" opacity="0.4">
            <path id="Path_111504" data-name="Path 111504" d="M13492.2,9745.649s2.01,2.8,1.345,2.988-10.63-7.709-14.724-11.571l.173-.187,11.563,9.277S13491.677,9745.269,13492.2,9745.649Z" transform="translate(-13478.82 -9736.88)" fill="#fff"/>
          </g>
          <path id="Path_111505" data-name="Path 111505" d="M13478.832,9736.71a1.553,1.553,0,0,0,.134.135l.411.366,1.494,1.321c1.307,1.113,3.122,2.614,5.169,4.235s3.929,3.048,5.3,4.064l1.644,1.188.448.313a.849.849,0,0,0,.164.1,1.325,1.325,0,0,0-.149-.128l-.434-.336-1.613-1.225c-1.359-1.03-3.234-2.465-5.281-4.086s-3.869-3.114-5.185-4.2l-1.562-1.292-.426-.352Z" transform="translate(-13478.749 -9730.21)" fill="#344154"/>
          <path id="Path_111506" data-name="Path 111506" d="M13480.54,9749.218a4.509,4.509,0,0,1,.9-.523,4.9,4.9,0,0,1,1.015-.179,1.8,1.8,0,0,0-1.912.7Z" transform="translate(-13468.879 -9733.179)" fill="#344154"/>
          <path id="Path_111507" data-name="Path 111507" d="M13483.81,9744.871a1.358,1.358,0,0,0,.547-.119c.283-.1.507-.21.492-.247s-.254,0-.538.12A4.813,4.813,0,0,0,13483.81,9744.871Z" transform="translate(-13473.718 -9732.179)" fill="#344154"/>
          <path id="Path_111508" data-name="Path 111508" d="M13484.45,9743.713a1.207,1.207,0,0,0,.471,0c.254-.053.463-.061.463-.1s-.209-.053-.471-.037A.732.732,0,0,0,13484.45,9743.713Z" transform="translate(-13474.731 -9731.946)" fill="#344154"/>
          <path id="Path_111509" data-name="Path 111509" d="M13484.289,9742.178a2.417,2.417,0,0,0,.411.419c.253.2.47.343.492.313s-.164-.217-.41-.418S13484.363,9742.148,13484.289,9742.178Z" transform="translate(-13474.42 -9731.592)" fill="#344154"/>
          <path id="Path_111510" data-name="Path 111510" d="M13483.7,9741.24a1.127,1.127,0,0,0,.39.552,1.159,1.159,0,0,0,.582.345,5.01,5.01,0,0,0-.493-.448C13483.91,9741.441,13483.7,9741.217,13483.7,9741.24Z" transform="translate(-13473.46 -9731.356)" fill="#344154"/>
          <path id="Path_111511" data-name="Path 111511" d="M13481.214,9744.236a1.8,1.8,0,0,0,.561.44,4.493,4.493,0,0,0,.7.344,2.376,2.376,0,0,0,.456.127.4.4,0,0,0,.276-.068.274.274,0,0,0,.092-.29,1.309,1.309,0,0,0-1.5-.7,1.135,1.135,0,0,0-.477.23c-.1.075-.144.135-.135.135a2.072,2.072,0,0,1,.634-.276,1.4,1.4,0,0,1,.747.066,1.089,1.089,0,0,1,.628.574c.037.136-.074.218-.224.2a2.2,2.2,0,0,1-.418-.113,5.276,5.276,0,0,1-.7-.306C13481.438,9744.386,13481.214,9744.222,13481.214,9744.236Z" transform="translate(-13470.226 -9732.067)" fill="#344154"/>
          <path id="Path_111512" data-name="Path 111512" d="M13483.254,9743.965a.8.8,0,0,0,.375-.336,1.21,1.21,0,0,0,.172-.531.743.743,0,0,0-.24-.656.3.3,0,0,0-.381.119.925.925,0,0,0-.1.33,2.181,2.181,0,0,0,0,.553.951.951,0,0,0,.143.477,3.768,3.768,0,0,0-.045-.492,2.276,2.276,0,0,1,0-.516c0-.18.135-.441.291-.352a.623.623,0,0,1,.18.53,1.173,1.173,0,0,1-.127.494,1.827,1.827,0,0,1-.262.38Z" transform="translate(-13472.117 -9731.653)" fill="#344154"/>
          <path id="Path_111513" data-name="Path 111513" d="M13493.406,9733.7a4.391,4.391,0,0,1,.621.538,3.5,3.5,0,0,1,.85,3.63,7.2,7.2,0,0,1-.328.748.912.912,0,0,0,.145-.18,3.75,3.75,0,0,0,.275-.545,3.5,3.5,0,0,0,.143-2,3.374,3.374,0,0,0-1.5-2.1.69.69,0,0,0-.2-.091Z" transform="translate(-13491.233 -9729.448)" fill="#344154"/>
          <path id="Path_111514" data-name="Path 111514" d="M13493.685,9729.8a19.568,19.568,0,0,0-1.5,1.734,21.957,21.957,0,0,0-1.389,1.814,18.961,18.961,0,0,0,1.494-1.733A18.679,18.679,0,0,0,13493.685,9729.8Z" transform="translate(-13487.775 -9728.462)" fill="#344154"/>
          <path id="Path_111515" data-name="Path 111515" d="M13488.611,9740.389a9.2,9.2,0,0,0,2.531,2.04s-.574-.448-1.27-1.009A11.774,11.774,0,0,0,13488.611,9740.389Z" transform="translate(-13483.599 -9731.141)" fill="#344154"/>
          <path id="Path_111516" data-name="Path 111516" d="M13494.388,9738.58s-.053.157-.1.329-.1.321-.074.344.157-.1.21-.307S13494.462,9738.573,13494.388,9738.58Z" transform="translate(-13491.093 -9730.684)" fill="#344154"/>
          <path id="Path_111517" data-name="Path 111517" d="M13494.137,9736.82a.491.491,0,0,0,0,.3c.053.157.06.291.1.291s.053-.142.037-.306S13494.211,9736.813,13494.137,9736.82Z" transform="translate(-13490.842 -9730.238)" fill="#344154"/>
          <path id="Path_111518" data-name="Path 111518" d="M13494.579,9735.348s.1.127.187.269.135.291.173.291.06-.18-.061-.358S13494.579,9735.316,13494.579,9735.348Z" transform="translate(-13491.882 -9729.863)" fill="#344154"/>
          <path id="Path_111519" data-name="Path 111519" d="M13495.583,9734.419v.194a.138.138,0,0,0,.15.119c.029-.014,0-.1,0-.187S13495.583,9734.4,13495.583,9734.419Z" transform="translate(-13493.409 -9729.63)" fill="#344154"/>
        </g>
        <g id="Group_58811" data-name="Group 58811" transform="translate(2.324 3.422)" opacity="0.3">
          <path id="Path_111520" data-name="Path 111520" d="M13853.7,9945.855l8.814,6.752.821-1.068-9.263-6.289Z" transform="translate(-13853.701 -9945.25)" fill="#5ab4f9"/>
        </g>
      </g>
      <g id="Group_58816" data-name="Group 58816" transform="translate(53.112 160.432)">
        <g id="Group_58814" data-name="Group 58814">
          <path id="Path_111521" data-name="Path 111521" d="M13431.936,9747.785v-5.938l-11.131-.037-.066,8.688.694.053c3.07.179,15.619.7,17.674.089C13441.348,9749.952,13431.936,9747.785,13431.936,9747.785Z" transform="translate(-13420.506 -9741.81)" fill="#5ab4f9"/>
          <g id="Group_58813" data-name="Group 58813" transform="translate(0.157 7.201)" opacity="0.4">
            <path id="Path_111522" data-name="Path 111522" d="M13436.6,9751.45s3.316.971,2.9,1.494-13.125.485-18.728,0v-.246l14.82.187S13436,9751.473,13436.6,9751.45Z" transform="translate(-13420.771 -9751.45)" fill="#fff"/>
          </g>
          <path id="Path_111523" data-name="Path 111523" d="M13420.759,9753.1a.612.612,0,0,0,.193,0l.546.036,2.024.09c1.711.074,4.071.134,6.679.149s4.975,0,6.723-.082l2.018-.074h.747a.648.648,0,0,0-.194,0h-.553l-2.024.037c-1.711,0-4.071.053-6.679,0s-4.968-.061-6.67-.1l-2.024-.053h-.553A.773.773,0,0,0,13420.759,9753.1Z" transform="translate(-13420.759 -9744.663)" fill="#344154"/>
          <path id="Path_111524" data-name="Path 111524" d="M13424.568,9753.011a5.292,5.292,0,0,1,.381-.964,5.093,5.093,0,0,1,.7-.747,1.807,1.807,0,0,0-1.076,1.711Z" transform="translate(-13409.555 -9744.211)" fill="#344154"/>
          <path id="Path_111525" data-name="Path 111525" d="M13429.6,9751.035a2.441,2.441,0,0,0,.351-.426c.164-.254.269-.478.239-.5s-.187.172-.351.426A1.817,1.817,0,0,0,13429.6,9751.035Z" transform="translate(-13417.876 -9743.909)" fill="#344154"/>
          <path id="Path_111526" data-name="Path 111526" d="M13430.656,9750.488a1.735,1.735,0,0,0,.4-.261c.194-.171.329-.329.307-.358s-.2.089-.4.261A1.253,1.253,0,0,0,13430.656,9750.488Z" transform="translate(-13419.825 -9743.848)" fill="#344154"/>
          <path id="Path_111527" data-name="Path 111527" d="M13430.751,9749.269a1.267,1.267,0,0,0,.574.081,1.372,1.372,0,0,0,.583-.058,1.24,1.24,0,0,0-.575-.074,1.306,1.306,0,0,0-.582.05Z" transform="translate(-13420.441 -9743.681)" fill="#344154"/>
          <path id="Path_111528" data-name="Path 111528" d="M13430.84,9748.3a1.606,1.606,0,0,0,1.315.1,3.8,3.8,0,0,0-.658-.044A3.367,3.367,0,0,0,13430.84,9748.3Z" transform="translate(-13420.755 -9743.452)" fill="#344154"/>
          <path id="Path_111529" data-name="Path 111529" d="M13427.073,9749.715a2.225,2.225,0,0,0,.746,0,5.449,5.449,0,0,0,.749-.164,2.575,2.575,0,0,0,.433-.18.388.388,0,0,0,.179-.224.275.275,0,0,0-.112-.284,1.31,1.31,0,0,0-1.621.374,1.276,1.276,0,0,0-.23.478.435.435,0,0,0,0,.194,2,2,0,0,1,.329-.612,1.255,1.255,0,0,1,.613-.389,1.092,1.092,0,0,1,.851.061c.112.082.066.216-.06.291a2.452,2.452,0,0,1-.4.172,4.936,4.936,0,0,1-.746.188A4.2,4.2,0,0,0,13427.073,9749.715Z" transform="translate(-13414.972 -9743.56)" fill="#344154"/>
          <path id="Path_111530" data-name="Path 111530" d="M13430.405,9749.629a.744.744,0,0,0,.082-.5,1.165,1.165,0,0,0-.194-.523.746.746,0,0,0-.59-.366.286.286,0,0,0-.182.117.278.278,0,0,0-.042.213.841.841,0,0,0,.12.319,2.162,2.162,0,0,0,.337.434c.223.225.4.307.41.291s-.143-.127-.344-.358a2.678,2.678,0,0,1-.3-.426c-.1-.157-.156-.427,0-.456s.359.164.464.306a1.124,1.124,0,0,1,.2.464,4.772,4.772,0,0,1,.037.486Z" transform="translate(-13418.079 -9743.437)" fill="#344154"/>
          <path id="Path_111531" data-name="Path 111531" d="M13440.427,9748.959h.814a3.49,3.49,0,0,1,2.905,2.331,7.971,7.971,0,0,1,.21.8.6.6,0,0,0,0-.226,3.1,3.1,0,0,0-.114-.6,3.409,3.409,0,0,0-2.988-2.413,3.045,3.045,0,0,0-.611,0A.531.531,0,0,0,13440.427,9748.959Z" transform="translate(-13440.128 -9743.589)" fill="#344154"/>
          <path id="Path_111532" data-name="Path 111532" d="M13444.262,9742.83a36.634,36.634,0,0,0-.083,4.572,18.423,18.423,0,0,0,.1-2.286,20.289,20.289,0,0,0-.022-2.286Z" transform="translate(-13442.842 -9742.068)" fill="#344154"/>
          <path id="Path_111533" data-name="Path 111533" d="M13434.251,9751.9a6.245,6.245,0,0,0,1.621.172,6.51,6.51,0,0,0,1.628-.127h-1.628C13434.99,9751.942,13434.251,9751.859,13434.251,9751.9Z" transform="translate(-13428.647 -9744.36)" fill="#344154"/>
          <path id="Path_111534" data-name="Path 111534" d="M13441.071,9751.879s.053.156.127.321.112.321.157.313.053-.172,0-.366S13441.071,9751.856,13441.071,9751.879Z" transform="translate(-13437.635 -9744.356)" fill="#344154"/>
          <path id="Path_111535" data-name="Path 111535" d="M13442.032,9750.508a.762.762,0,0,0,.157.261c.112.119.231.187.261.164s-.044-.142-.164-.261S13442.106,9750.478,13442.032,9750.508Z" transform="translate(-13439.417 -9744.009)" fill="#344154"/>
          <path id="Path_111536" data-name="Path 111536" d="M13443.353,9749.856c0,.037.156.037.321.09s.276.149.306.127-.06-.18-.269-.254S13443.353,9749.819,13443.353,9749.856Z" transform="translate(-13441.933 -9743.828)" fill="#344154"/>
          <path id="Path_111537" data-name="Path 111537" d="M13444.848,9749.57a.338.338,0,0,0,.143.127.315.315,0,0,0,.193,0c.016,0-.053-.09-.143-.127S13444.848,9749.533,13444.848,9749.57Z" transform="translate(-13444.249 -9743.767)" fill="#344154"/>
        </g>
        <g id="Group_58815" data-name="Group 58815" transform="translate(0.224 3.541)" opacity="0.3">
          <path id="Path_111538" data-name="Path 111538" d="M13801.8,9960.606l11.205.015v-1.344l-11.205-.067Z" transform="translate(-13801.8 -9959.21)" fill="#5ab4f9"/>
        </g>
      </g>
      <g id="Group_58818" data-name="Group 58818" transform="translate(37.052 58.984)">
        <path id="Path_111539" data-name="Path 111539" d="M13417.42,9610.878l4.482,13.446c1.2,3.622,4.369,4.242,8.217,4.242h24.785V9623l-22.648-3.234-5.424-13.767Z" transform="translate(-13417.42 -9606)" fill="#b78876"/>
        <g id="Group_58817" data-name="Group 58817" transform="translate(37.536 10.954)">
          <path id="Path_111540" data-name="Path 111540" d="M13399.872,9625.539l1.964-.934s2.121-4.1,2.607-3.937.635,1.374-.217,3.257l2.607-.746s5.669,2.614,5.416,2.987a1.308,1.308,0,0,1-1.951.562c-1.232-.629-2.845-1.375-2.845-1.375l-3.056.873,3.937.5,3.735,3.368a1.808,1.808,0,0,1-2.241-.059l-9.621,2.068-2.988.172v-5.565Z" transform="translate(-13397.22 -9620.664)" fill="#b78876"/>
          <path id="Path_111541" data-name="Path 111541" d="M13405.793,9632.521a6.316,6.316,0,0,1-.568-.635,3.244,3.244,0,0,0-.7-.537,2.779,2.779,0,0,0-1.038-.27,14.722,14.722,0,0,1-2.884-.492,13.935,13.935,0,0,1,2.921.192,2.8,2.8,0,0,1,1.144.33,2.677,2.677,0,0,1,.747.642,1.85,1.85,0,0,1,.38.77Z" transform="translate(-13393.28 -9623.172)" fill="#aa6550"/>
          <path id="Path_111542" data-name="Path 111542" d="M13405.73,9633.442a.449.449,0,0,0-.338-.254c-.268-.06-.746-.1-1.164-.149a10.406,10.406,0,0,1-1.687-.172,3.321,3.321,0,0,1,1.717-.128,5.18,5.18,0,0,1,1.211.247.483.483,0,0,1,.291.3A.121.121,0,0,1,13405.73,9633.442Z" transform="translate(-13394.711 -9623.704)" fill="#aa6550"/>
        </g>
      </g>
      <g id="Group_58821" data-name="Group 58821" transform="translate(0 33.736)">
        <g id="Group_58820" data-name="Group 58820">
          <path id="Path_111543" data-name="Path 111543" d="M13486.611,9599.4l1.9,6.462,12.1-5.476c-.44-1.352-2.442-7.38-6.267-16.935a16.438,16.438,0,0,0-12.542-10.114,71.826,71.826,0,0,0-11.585-1.135c-6.791.074-16.778,4.318-18.115,10.974-1.031,5.072,0,14.036,0,24.927l.881,20.812,34.772,1.181Z" transform="translate(-13451.65 -9572.201)" fill="#5ab4f9"/>
          <g id="Group_58819" data-name="Group 58819" transform="translate(0.45 30.697)" opacity="0.3">
            <path id="Path_111544" data-name="Path 111544" d="M13482.1,9613.68c4.229.867,8.568,0,12.886-.262,2.614-.156,5.513-.434,7.574,1.174,1.644,1.27,2.3,3.414,2.778,5.438,1.8,7.7,2.129,12.871,2.532,20.773l-20.915,1.271Z" transform="translate(-13482.102 -9613.295)" fill="#5ab4f9"/>
          </g>
        </g>
        <path id="Path_111545" data-name="Path 111545" d="M13473.62,9578.378a4.577,4.577,0,0,0-2.929,1.9,6.724,6.724,0,0,0-1.194,3.622,22.4,22.4,0,0,0,.366,4.766,80.245,80.245,0,0,0,1.941,8.523c.284,1.045.523,1.9.7,2.562a5.544,5.544,0,0,1,.225.947,5.267,5.267,0,0,1-.338-.917c-.193-.592-.47-1.5-.791-2.533a64.971,64.971,0,0,1-2.039-8.538,21.785,21.785,0,0,1-.346-4.833,6.811,6.811,0,0,1,1.3-3.735,4.77,4.77,0,0,1,2.137-1.6,3.38,3.38,0,0,1,.748-.158A1.053,1.053,0,0,1,13473.62,9578.378Z" transform="translate(-13437.763 -9573.763)" fill="#344154"/>
        <path id="Path_111546" data-name="Path 111546" d="M13464.406,9607.72a11.348,11.348,0,0,1-1.705.979c-1.076.56-2.576,1.3-4.264,2.062s-3.242,1.4-4.379,1.83a11.791,11.791,0,0,1-1.859.635,13.431,13.431,0,0,1,1.783-.829c1.107-.486,2.646-1.151,4.326-1.905s3.2-1.494,4.295-1.987a14.6,14.6,0,0,1,1.8-.784Z" transform="translate(-13415.851 -9581.188)" fill="#344154"/>
      </g>
      <g id="Group_58823" data-name="Group 58823" transform="translate(14.941 90.634)">
        <path id="Path_111547" data-name="Path 111547" d="M13475.285,9651.82a12.385,12.385,0,0,1,5.08,16.568l-30.261,51.96-13.962-8.434,23.5-46.911-17.031-11.114" transform="translate(-13436.143 -9649.243)" fill="#344154"/>
        <g id="Group_58822" data-name="Group 58822" transform="translate(2.317)">
          <path id="Path_111548" data-name="Path 111548" d="M13422.479,9648.37l41.548,1.494a12.4,12.4,0,0,1,11.951,12.578l-1.725,59.334-17.472-.037.582-56.1-34.884-.919Z" transform="translate(-13422.479 -9648.37)" fill="#344154"/>
          <path id="Path_111549" data-name="Path 111549" d="M13447.979,9674.16a3.081,3.081,0,0,0-.053.553c0,.4-.037.92-.066,1.576-.053,1.367-.1,3.348-.156,5.789-.105,4.893-.172,11.653-.211,19.115s-.074,14.193-.1,19.123v7.365a.278.278,0,1,0,.053,0q0-.589.066-1.568c.053-1.367.1-3.346.156-5.8.105-4.893.174-11.653.211-19.115s.074-14.192.1-19.115v-7.373A2.914,2.914,0,0,0,13447.979,9674.16Z" transform="translate(-13413.096 -9654.896)" fill="#5e6178"/>
        </g>
      </g>
    </g>
    <g id="Group_58825" data-name="Group 58825" transform="translate(23.784 53.008)">
      <path id="Path_111550" data-name="Path 111550" d="M13456.158,9598h12.572a9.157,9.157,0,0,1,9.157,9.158v43.849H13503a6.34,6.34,0,0,1,6.342,6.349h-57.331a5.226,5.226,0,0,1-5.013-5.228V9607.2a9.159,9.159,0,0,1,9.159-9.2Z" transform="translate(-13447 -9598)" fill="#5e6178"/>
      <path id="Path_111551" data-name="Path 111551" d="M13493.935,9599.9c-.1,0-.194,12.886-.194,28.773s.09,28.781.194,28.781.194-12.885.194-28.781S13494.084,9599.9,13493.935,9599.9Z" transform="translate(-13466.699 -9598.48)" fill="#344154"/>
      <path id="Path_111552" data-name="Path 111552" d="M13482.426,9723.42v-46h4.086v46c2.487,4.915,8.359,8.217,15.5,10.965h-36.431C13472.939,9731.405,13479.662,9729.1,13482.426,9723.42Z" transform="translate(-13453.547 -9618.095)" fill="#5e6178"/>
    </g>
  </g>
</svg>
