<svg xmlns="http://www.w3.org/2000/svg" xmlns:xlink="http://www.w3.org/1999/xlink" width="190" height="190" viewBox="0 0 190 190">
  <defs>
    <filter id="Path_896985" x="0" y="0" width="190" height="190" filterUnits="userSpaceOnUse">
      <feOffset dy="3" input="SourceAlpha"/>
      <feGaussianBlur stdDeviation="3" result="blur"/>
      <feFlood flood-opacity="0.161"/>
      <feComposite operator="in" in2="blur"/>
      <feComposite in="SourceGraphic"/>
    </filter>
  </defs>
  <g id="Group_1111788" data-name="Group 1111788" transform="translate(-271.051 -4563)">
    <g id="Group_1111318" data-name="Group 1111318" transform="translate(280.051 4569)">
      <g id="Group_1109826" data-name="Group 1109826" transform="translate(0 0)">
        <g id="Group_1098742" data-name="Group 1098742">
          <g transform="matrix(1, 0, 0, 1, -9, -6)" filter="url(#Path_896985)">
            <g id="Path_896985-2" data-name="Path 896985" transform="translate(9 6)" fill="#fd9826" opacity="0.859">
              <path d="M 85.99988555908203 170.5 C 80.26570129394531 170.5 74.53554534912109 169.9224090576172 68.96861267089844 168.7832489013672 C 63.54393005371094 167.6731872558594 58.20804595947266 166.016845703125 53.10918045043945 163.8601989746094 C 48.10252380371094 161.7425689697266 43.27349853515625 159.1214294433594 38.75624847412109 156.0696411132812 C 34.28149795532227 153.0465698242188 30.07361221313477 149.5747222900391 26.24943161010742 145.7505645751953 C 22.42527198791504 141.9263916015625 18.95343017578125 137.718505859375 15.93036270141602 133.2437438964844 C 12.87856769561768 128.7265014648438 10.25743103027344 123.8974761962891 8.13979434967041 118.8908157348633 C 5.983158111572266 113.7919540405273 4.326817512512207 108.4560699462891 3.21674919128418 103.0313873291016 C 2.077589988708496 97.46445465087891 1.499999165534973 91.73429870605469 1.499999165534973 86.00011444091797 C 1.499999165534973 80.26570129394531 2.077589988708496 74.53554534912109 3.21674919128418 68.96861267089844 C 4.326817512512207 63.54393005371094 5.983158111572266 58.20804595947266 8.13979434967041 53.10918045043945 C 10.25743103027344 48.10252380371094 12.87856769561768 43.27349853515625 15.93036270141602 38.75624847412109 C 18.95343017578125 34.28150177001953 22.42527198791504 30.0736141204834 26.24943161010742 26.24943161010742 C 30.07361221313477 22.42527198791504 34.28149795532227 18.95343208312988 38.75624847412109 15.93036365509033 C 43.27349853515625 12.87856864929199 48.10252380371094 10.25743198394775 53.10918045043945 8.139795303344727 C 58.20804595947266 5.983159065246582 63.54393005371094 4.326817989349365 68.96861267089844 3.216749906539917 C 74.53554534912109 2.077590942382812 80.26570129394531 1.5 85.99988555908203 1.5 C 91.73406982421875 1.5 97.46422576904297 2.077590942382812 103.0311584472656 3.216749906539917 C 108.4558410644531 4.326817989349365 113.7917251586914 5.983159065246582 118.8905868530273 8.139795303344727 C 123.8972473144531 10.25743198394775 128.7262725830078 12.87856864929199 133.2435150146484 15.93036365509033 C 137.7182769775391 18.95343208312988 141.9261627197266 22.42527198791504 145.7503356933594 26.24943161010742 C 149.5744934082031 30.0736141204834 153.0463409423828 34.28150177001953 156.0694122314453 38.75624847412109 C 159.1212005615234 43.27349853515625 161.7423400878906 48.10252380371094 163.8599700927734 53.10918045043945 C 166.0166168212891 58.20804595947266 167.6729583740234 63.54393005371094 168.7830200195312 68.96861267089844 C 169.9221801757812 74.53554534912109 170.4997711181641 80.26570129394531 170.4997711181641 85.99988555908203 C 170.4997711181641 91.73429870605469 169.9221801757812 97.46445465087891 168.7830200195312 103.0313873291016 C 167.6729583740234 108.4560699462891 166.0166168212891 113.7919540405273 163.8599700927734 118.8908157348633 C 161.7423400878906 123.8974761962891 159.1212005615234 128.7265014648438 156.0694122314453 133.2437438964844 C 153.0463409423828 137.718505859375 149.5744934082031 141.9263916015625 145.7503356933594 145.7505645751953 C 141.9261627197266 149.5747222900391 137.7182769775391 153.0465698242188 133.2435150146484 156.0696411132812 C 128.7262725830078 159.1214294433594 123.8972473144531 161.7425689697266 118.8905868530273 163.8601989746094 C 113.7917251586914 166.016845703125 108.4558410644531 167.6731872558594 103.0311584472656 168.7832489013672 C 97.46422576904297 169.9224090576172 91.73406982421875 170.5 85.99988555908203 170.5 Z" stroke="none"/>
              <path d="M 85.99988555908203 3 C 80.36647796630859 3 74.73752593994141 3.567352294921875 69.26934051513672 4.686309814453125 C 63.941650390625 5.776504516601562 58.70119476318359 7.403244018554688 53.69350433349609 9.521316528320312 C 48.77607727050781 11.60121154785156 44.032958984375 14.17572021484375 39.59596252441406 17.17327880859375 C 35.2003173828125 20.14292907714844 31.0667724609375 23.55342102050781 27.31010437011719 27.31008911132812 C 23.55343627929688 31.06675720214844 20.14292907714844 35.20030212402344 17.17329406738281 39.595947265625 C 14.17572021484375 44.03295135498047 11.60121154785156 48.77606964111328 9.521316528320312 53.69349670410156 C 7.403244018554688 58.70118713378906 5.776504516601562 63.94164276123047 4.686309814453125 69.26933288574219 C 3.567367553710938 74.73752593994141 3 80.36647796630859 3 86.00009155273438 C 3 91.63349914550781 3.567367553710938 97.26247406005859 4.686309814453125 102.7306442260742 C 5.776504516601562 108.0583343505859 7.403244018554688 113.2988128662109 9.521316528320312 118.3065032958984 C 11.60121154785156 123.2239303588867 14.17572021484375 127.9670257568359 17.17329406738281 132.404052734375 C 20.14292907714844 136.7996826171875 23.55343627929688 140.9332427978516 27.31010437011719 144.6899108886719 C 31.0667724609375 148.4465484619141 35.2003173828125 151.8570709228516 39.59596252441406 154.8266906738281 C 44.032958984375 157.8242797851562 48.77607727050781 160.3987884521484 53.69350433349609 162.4786834716797 C 58.70119476318359 164.5967559814453 63.941650390625 166.2234954833984 69.26934051513672 167.3136901855469 C 74.73752593994141 168.4326477050781 80.36647796630859 169 85.99988555908203 169 C 91.63329315185547 169 97.26224517822266 168.4326477050781 102.7304306030273 167.3136901855469 C 108.0581207275391 166.2234954833984 113.2985763549805 164.5967559814453 118.306266784668 162.4786834716797 C 123.2236938476562 160.3987884521484 127.9668121337891 157.8242797851562 132.40380859375 154.8266906738281 C 136.7994537353516 151.8570709228516 140.9329986572266 148.4465484619141 144.6896667480469 144.6899108886719 C 148.4463348388672 140.9332427978516 151.8568420410156 136.7996826171875 154.8264770507812 132.404052734375 C 157.8240509033203 127.9670257568359 160.3985595703125 123.2239303588867 162.4784545898438 118.3065032958984 C 164.5965270996094 113.2988128662109 166.2232666015625 108.0583343505859 167.3134613037109 102.7306442260742 C 168.4324035644531 97.26247406005859 168.9997711181641 91.63349914550781 168.9997711181641 85.9998779296875 C 168.9997711181641 80.36647796630859 168.4324035644531 74.73752593994141 167.3134613037109 69.26933288574219 C 166.2232666015625 63.94164276123047 164.5965270996094 58.70118713378906 162.4784545898438 53.69349670410156 C 160.3985595703125 48.77606964111328 157.8240509033203 44.03295135498047 154.8264770507812 39.595947265625 C 151.8568420410156 35.20030212402344 148.4463348388672 31.06675720214844 144.6896667480469 27.31008911132812 C 140.9329986572266 23.55342102050781 136.7994537353516 20.14292907714844 132.40380859375 17.17327880859375 C 127.9668121337891 14.17572021484375 123.2236938476562 11.60121154785156 118.306266784668 9.521316528320312 C 113.2985763549805 7.403244018554688 108.0581207275391 5.776504516601562 102.7304306030273 4.686309814453125 C 97.26224517822266 3.567352294921875 91.63329315185547 3 85.99988555908203 3 M 85.99988555908203 0 C 133.4963073730469 0 171.9997711181641 38.50344848632812 171.9997711181641 85.9998779296875 L 171.9997711181641 86.00009155273438 C 171.9997711181641 133.4965515136719 133.4963073730469 172 85.99988555908203 172 C 38.50346374511719 172 0 133.4965515136719 0 86.00009155273438 L 0 85.9998779296875 C 0 38.50344848632812 38.50346374511719 0 85.99988555908203 0 Z" stroke="none" fill="#fff"/>
            </g>
          </g>
        </g>
      </g>
    </g>
    <g id="Group_1111633" data-name="Group 1111633" transform="translate(310.83 4599.779)">
      <g id="Group_1111631" data-name="Group 1111631" transform="translate(1.811 1.811)">
        <g id="Group_1111619" data-name="Group 1111619" transform="translate(21.726 101.389)">
          <path id="Path_900543" data-name="Path 900543" d="M79.179,59.811v3.621a1.816,1.816,0,0,1-1.811,1.811H15.811A1.816,1.816,0,0,1,14,63.432V59.811A1.816,1.816,0,0,1,15.811,58H77.368A1.816,1.816,0,0,1,79.179,59.811Z" transform="translate(-14 -58)" fill="#969faa"/>
        </g>
        <g id="Group_1111620" data-name="Group 1111620" transform="translate(28.968 90.526)">
          <path id="Path_900544" data-name="Path 900544" d="M68.695,62.863H18S25.242,57.432,25.242,52H61.453C61.453,57.432,68.695,62.863,68.695,62.863Z" transform="translate(-18 -52)" fill="#aab2bd"/>
        </g>
        <g id="Group_1111621" data-name="Group 1111621" transform="translate(0 76.042)">
          <path id="Path_900545" data-name="Path 900545" d="M110.632,44v9.053a5.424,5.424,0,0,1-5.432,5.432H7.432A5.424,5.424,0,0,1,2,53.053V44Z" transform="translate(-2 -44)" fill="#ccd1d9"/>
        </g>
        <g id="Group_1111622" data-name="Group 1111622" transform="translate(0 10.863)">
          <path id="Path_900546" data-name="Path 900546" d="M110.632,73.179H2V13.432A5.431,5.431,0,0,1,7.432,8H105.2a5.431,5.431,0,0,1,5.432,5.432Z" transform="translate(-2 -8)" fill="#69d6f4"/>
        </g>
        <g id="Group_1111623" data-name="Group 1111623" transform="translate(7.242 18.105)">
          <path id="Path_900547" data-name="Path 900547" d="M47.642,62.695H7.811A1.811,1.811,0,0,1,6,60.884V13.811A1.811,1.811,0,0,1,7.811,12H47.642a1.811,1.811,0,0,1,1.811,1.811V60.884A1.811,1.811,0,0,1,47.642,62.695Z" transform="translate(-6 -12)" fill="#f0d0b4"/>
        </g>
        <g id="Group_1111624" data-name="Group 1111624" transform="translate(57.937 18.105)">
          <path id="Path_900548" data-name="Path 900548" d="M75.642,62.695H35.811A1.811,1.811,0,0,1,34,60.884V13.811A1.811,1.811,0,0,1,35.811,12H75.642a1.811,1.811,0,0,1,1.811,1.811V60.884A1.811,1.811,0,0,1,75.642,62.695Z" transform="translate(-34 -12)" fill="#f0d0b4"/>
        </g>
        <g id="Group_1111625" data-name="Group 1111625" transform="translate(14.484 28.968)">
          <path id="Path_900549" data-name="Path 900549" d="M38.968,18V32.484H10V18a18.105,18.105,0,0,0,28.968,0Z" transform="translate(-10 -18)" fill="#ff826e"/>
        </g>
        <g id="Group_1111626" data-name="Group 1111626" transform="translate(14.484 50.695)">
          <path id="Path_900550" data-name="Path 900550" d="M10,30H20.863V40.863H10Z" transform="translate(-10 -30)" fill="#e6e9ed"/>
        </g>
        <g id="Group_1111627" data-name="Group 1111627" transform="translate(65.179 50.695)">
          <path id="Path_900551" data-name="Path 900551" d="M38,30H48.863V40.863H38Z" transform="translate(-38 -30)" fill="#e6e9ed"/>
        </g>
        <g id="Group_1111628" data-name="Group 1111628" transform="translate(65.179 28.968)">
          <path id="Path_900552" data-name="Path 900552" d="M66.968,18V32.484H38V18a18.105,18.105,0,0,0,28.968,0Z" transform="translate(-38 -18)" fill="#ff826e"/>
        </g>
        <g id="Group_1111629" data-name="Group 1111629" transform="translate(10.863)">
          <path id="Path_900553" data-name="Path 900553" d="M40.589,30.968A18.105,18.105,0,0,1,8,20.105a17.89,17.89,0,0,1,1.521-7.242,18.091,18.091,0,0,1,33.169,0,17.89,17.89,0,0,1,1.521,7.242A18.089,18.089,0,0,1,40.589,30.968Z" transform="translate(-8 -2)" fill="#fcd770"/>
        </g>
        <g id="Group_1111630" data-name="Group 1111630" transform="translate(61.558)">
          <path id="Path_900554" data-name="Path 900554" d="M72.211,20.105a18.105,18.105,0,0,1-36.211,0,17.89,17.89,0,0,1,1.521-7.242,18.091,18.091,0,0,1,33.169,0A17.89,17.89,0,0,1,72.211,20.105Z" transform="translate(-36 -2)" fill="#fcd770"/>
        </g>
      </g>
      <g id="Group_1111632" data-name="Group 1111632" transform="translate(0 0)">
        <path id="Path_900555" data-name="Path 900555" d="M45.621,30.347h3.621a7.239,7.239,0,0,0,4.785-12.674A7.239,7.239,0,0,0,49.242,5H45.621A3.625,3.625,0,0,0,42,8.621V26.726A3.625,3.625,0,0,0,45.621,30.347Zm0-21.726h3.621a3.621,3.621,0,0,1,0,7.242H45.621Zm0,10.863h3.621a3.621,3.621,0,0,1,0,7.242H45.621Z" transform="translate(32.232 2.242)"/>
        <path id="Path_900556" data-name="Path 900556" d="M17.621,23.105h7.242v7.242h3.621V12.242a7.242,7.242,0,0,0-14.484,0V30.347h3.621ZM21.242,8.621a3.625,3.625,0,0,1,3.621,3.621v7.242H17.621V12.242A3.625,3.625,0,0,1,21.242,8.621Z" transform="translate(9.537 2.242)"/>
        <path id="Path_900557" data-name="Path 900557" d="M106.011,11.863h-5.819a19.88,19.88,0,0,0-35.436,0H49.495a19.879,19.879,0,0,0-35.434,0H8.242A7.249,7.249,0,0,0,1,19.105v68.8a7.249,7.249,0,0,0,7.242,7.242H36.87c-1,2.917-4.032,5.87-5.718,7.242H26.347a3.625,3.625,0,0,0-3.621,3.621v3.621a3.625,3.625,0,0,0,3.621,3.621H87.905a3.625,3.625,0,0,0,3.621-3.621v-3.621a3.625,3.625,0,0,0-3.621-3.621H83.1c-1.687-1.372-4.715-4.325-5.718-7.242h28.628a7.249,7.249,0,0,0,7.242-7.242v-68.8A7.249,7.249,0,0,0,106.011,11.863Zm-3.621,10.863V69.8H62.558V22.726h.092a19.786,19.786,0,0,0,3.529,9.6V48.074H98.768V32.331a19.78,19.78,0,0,0,3.529-9.6ZM69.8,36.267a19.878,19.878,0,0,0,25.347,0v8.185H69.8ZM82.474,4.621A16.295,16.295,0,1,1,66.179,20.916,16.315,16.315,0,0,1,82.474,4.621ZM51.695,22.726V69.8H11.863V22.726h.092a19.786,19.786,0,0,0,3.529,9.6V48.074H48.074V32.331a19.78,19.78,0,0,0,3.529-9.6ZM19.105,36.267a19.878,19.878,0,0,0,25.347,0v8.185H19.105ZM31.779,4.621A16.295,16.295,0,1,1,15.484,20.916,16.315,16.315,0,0,1,31.779,4.621ZM8.242,15.484h4.392a19.926,19.926,0,0,0-.681,3.621h-.091a3.625,3.625,0,0,0-3.621,3.621V69.8a3.625,3.625,0,0,0,3.621,3.621H51.695A3.625,3.625,0,0,0,55.316,69.8V22.726a3.625,3.625,0,0,0-3.621-3.621H51.6a19.593,19.593,0,0,0-.681-3.621H63.329a19.927,19.927,0,0,0-.681,3.621h-.091a3.625,3.625,0,0,0-3.621,3.621V69.8a3.625,3.625,0,0,0,3.621,3.621h39.832a3.625,3.625,0,0,0,3.621-3.621V22.726a3.625,3.625,0,0,0-3.621-3.621H102.3a19.592,19.592,0,0,0-.681-3.621h4.394a3.625,3.625,0,0,1,3.621,3.621V77.042H4.621V19.105A3.625,3.625,0,0,1,8.242,15.484Zm79.665,94.147H26.347v-3.621H87.905Zm-10.086-7.242H36.432a16.435,16.435,0,0,0,4.184-7.242h33.02a16.435,16.435,0,0,0,4.184,7.242Zm28.19-10.863H8.242a3.625,3.625,0,0,1-3.621-3.621V80.663H109.632v7.242A3.625,3.625,0,0,1,106.011,91.526Z" transform="translate(-1 -1)"/>
        <path id="Path_900558" data-name="Path 900558" d="M9,43.484H23.484V29H9Zm3.621-10.863h7.242v7.242H12.621Z" transform="translate(5.484 21.695)"/>
        <path id="Path_900559" data-name="Path 900559" d="M19,29h3.621v3.621H19Z" transform="translate(13.589 21.695)"/>
        <path id="Path_900560" data-name="Path 900560" d="M23,29h7.242v3.621H23Z" transform="translate(16.832 21.695)"/>
        <path id="Path_900561" data-name="Path 900561" d="M19,33H33.484v3.621H19Z" transform="translate(13.589 24.937)"/>
        <path id="Path_900562" data-name="Path 900562" d="M37,43.484H51.484V29H37Zm3.621-10.863h7.242v7.242H40.621Z" transform="translate(28.179 21.695)"/>
        <path id="Path_900563" data-name="Path 900563" d="M47,29h3.621v3.621H47Z" transform="translate(36.284 21.695)"/>
        <path id="Path_900564" data-name="Path 900564" d="M51,29h7.242v3.621H51Z" transform="translate(39.526 21.695)"/>
        <path id="Path_900565" data-name="Path 900565" d="M47,33H61.484v3.621H47Z" transform="translate(36.284 24.937)"/>
        <path id="Path_900566" data-name="Path 900566" d="M55,47h3.621v3.621H55Z" transform="translate(42.768 36.284)"/>
        <path id="Path_900567" data-name="Path 900567" d="M51,47h3.621v3.621H51Z" transform="translate(39.526 36.284)"/>
        <path id="Path_900568" data-name="Path 900568" d="M47,47h3.621v3.621H47Z" transform="translate(36.284 36.284)"/>
      </g>
    </g>
  </g>
</svg>
