<svg xmlns="http://www.w3.org/2000/svg" xmlns:xlink="http://www.w3.org/1999/xlink" width="190" height="190" viewBox="0 0 190 190">
  <defs>
    <filter id="Path_896985" x="0" y="0" width="190" height="190" filterUnits="userSpaceOnUse">
      <feOffset dy="3" input="SourceAlpha"/>
      <feGaussianBlur stdDeviation="3" result="blur"/>
      <feFlood flood-opacity="0.161"/>
      <feComposite operator="in" in2="blur"/>
      <feComposite in="SourceGraphic"/>
    </filter>
  </defs>
  <g id="Group_1111795" data-name="Group 1111795" transform="translate(5378.465 6714.072)">
    <g id="Group_1111319" data-name="Group 1111319" transform="translate(-5369.465 -6708.072)">
      <g id="Group_1109827" data-name="Group 1109827" transform="translate(0 0)">
        <g id="Group_1098742" data-name="Group 1098742">
          <g transform="matrix(1, 0, 0, 1, -9, -6)" filter="url(#Path_896985)">
            <g id="Path_896985-2" data-name="Path 896985" transform="translate(9 6)" fill="#fd9826" opacity="0.859">
              <path d="M 85.99993133544922 170.4999694824219 C 80.26572418212891 170.4999694824219 74.53559112548828 169.9223785400391 68.96865844726562 168.7832183837891 C 63.54397583007812 167.6731414794922 58.20809173583984 166.0167999267578 53.10920333862305 163.8601684570312 C 48.10256958007812 161.7425231933594 43.27352142333984 159.1214141845703 38.75624847412109 156.0695953369141 C 34.28152084350586 153.0465240478516 30.07361221313477 149.5746917724609 26.24945449829102 145.7505340576172 C 22.42529487609863 141.9263763427734 18.95345497131348 137.7184906005859 15.93036270141602 133.2437286376953 C 12.87856769561768 128.7264556884766 10.25743103027344 123.8974380493164 8.139817237854004 118.8908004760742 C 5.983158588409424 113.7919387817383 4.326817512512207 108.4560546875 3.216749429702759 103.0313720703125 C 2.077590465545654 97.46443939208984 1.499999523162842 91.73428344726562 1.499999523162842 86.00009918212891 C 1.499999523162842 80.26568603515625 2.077590465545654 74.53553009033203 3.216749429702759 68.96862030029297 C 4.326817512512207 63.54393768310547 5.983158588409424 58.20805358886719 8.139817237854004 53.10916519165039 C 10.25743103027344 48.10253143310547 12.87856769561768 43.27350616455078 15.93036270141602 38.75623321533203 C 18.95345497131348 34.2815055847168 22.42529487609863 30.07362174987793 26.24945449829102 26.24943923950195 C 30.07361221313477 22.42527961730957 34.28152084350586 18.95343971252441 38.75624847412109 15.93037128448486 C 43.27352142333984 12.87855339050293 48.10256958007812 10.25743961334229 53.10920333862305 8.139802932739258 C 58.20809173583984 5.983166694641113 63.54397583007812 4.326825618743896 68.96865844726562 3.216757535934448 C 74.53559112548828 2.077598333358765 80.26572418212891 1.500007510185242 85.99993133544922 1.500007510185242 C 91.73413848876953 1.500007510185242 97.46427154541016 2.077598333358765 103.0312042236328 3.216757535934448 C 108.4558868408203 4.326825618743896 113.7917709350586 5.983166694641113 118.8906555175781 8.139802932739258 C 123.8972930908203 10.25743961334229 128.7263336181641 12.87855339050293 133.2436065673828 15.93037128448486 C 137.7183380126953 18.95343971252441 141.9262542724609 22.42527961730957 145.7504119873047 26.24943923950195 C 149.5745697021484 30.07362174987793 153.0464019775391 34.2815055847168 156.0695037841797 38.75623321533203 C 159.1212921142578 43.27350616455078 161.742431640625 48.10253143310547 163.8600463867188 53.10916519165039 C 166.0167083740234 58.20805358886719 167.6730499267578 63.54393768310547 168.7831115722656 68.96862030029297 C 169.9222717285156 74.53553009033203 170.4998626708984 80.26568603515625 170.4998626708984 85.99987030029297 C 170.4998626708984 91.73428344726562 169.9222717285156 97.46443939208984 168.7831115722656 103.0313720703125 C 167.6730499267578 108.4560546875 166.0167083740234 113.7919387817383 163.8600463867188 118.8908004760742 C 161.742431640625 123.8974380493164 159.1212921142578 128.7264556884766 156.0695037841797 133.2437286376953 C 153.0464019775391 137.7184906005859 149.5745697021484 141.9263763427734 145.7504119873047 145.7505340576172 C 141.9262542724609 149.5746917724609 137.7183380126953 153.0465240478516 133.2436065673828 156.0695953369141 C 128.7263336181641 159.1214141845703 123.8972930908203 161.7425231933594 118.8906555175781 163.8601684570312 C 113.7917709350586 166.0167999267578 108.4558868408203 167.6731414794922 103.0312042236328 168.7832183837891 C 97.46427154541016 169.9223785400391 91.73413848876953 170.4999694824219 85.99993133544922 170.4999694824219 Z" stroke="none"/>
              <path d="M 85.99993133544922 3.000015258789062 C 80.36652374267578 3.000015258789062 74.737548828125 3.567367553710938 69.26936340332031 4.686325073242188 C 63.94169616699219 5.776504516601562 58.70121765136719 7.403244018554688 53.69352722167969 9.521316528320312 C 48.77610015869141 11.60122680664062 44.03298187255859 14.17572021484375 39.59597778320312 17.17329406738281 C 35.20033264160156 20.1429443359375 31.06678771972656 23.55343627929688 27.31011962890625 27.31010437011719 C 23.55345153808594 31.06674194335938 20.14292907714844 35.2003173828125 17.17330932617188 39.59593200683594 C 14.17572021484375 44.032958984375 11.60121154785156 48.77605438232422 9.521316528320312 53.6934814453125 C 7.403244018554688 58.701171875 5.776504516601562 63.94162750244141 4.686309814453125 69.26931762695312 C 3.567352294921875 74.73751068115234 3 80.36646270751953 3 86.00010681152344 C 3 91.63350677490234 3.567352294921875 97.26245880126953 4.686309814453125 102.7306518554688 C 5.776504516601562 108.0583190917969 7.403244018554688 113.2987976074219 9.521316528320312 118.3064575195312 C 11.60121154785156 123.2239151000977 14.17572021484375 127.9670104980469 17.17330932617188 132.4040069580078 C 20.14292907714844 136.7996520996094 23.55345153808594 140.9331970214844 27.31011962890625 144.6898651123047 C 31.06678771972656 148.446533203125 35.20033264160156 151.8570251464844 39.59597778320312 154.8266754150391 C 44.03298187255859 157.8242492675781 48.77610015869141 160.3987426757812 53.69352722167969 162.4786529541016 C 58.70121765136719 164.5967254638672 63.94169616699219 166.2234649658203 69.26936340332031 167.3136444091797 C 74.737548828125 168.4326019287109 80.36652374267578 168.9999542236328 85.99993133544922 168.9999542236328 C 91.63333892822266 168.9999542236328 97.26231384277344 168.4326019287109 102.7304992675781 167.3136444091797 C 108.0581665039062 166.2234649658203 113.2986450195312 164.5967254638672 118.3063354492188 162.4786529541016 C 123.2237701416016 160.3987426757812 127.9668884277344 157.8242492675781 132.4038848876953 154.8266754150391 C 136.7995300292969 151.8570251464844 140.9330749511719 148.446533203125 144.6897430419922 144.6898651123047 C 148.4464111328125 140.9331970214844 151.85693359375 136.7996520996094 154.8265533447266 132.4040069580078 C 157.8241424560547 127.9670104980469 160.3986511230469 123.2239151000977 162.4785461425781 118.3064575195312 C 164.5966186523438 113.2987976074219 166.2233581542969 108.0583190917969 167.3135528564453 102.7306518554688 C 168.4324951171875 97.26245880126953 168.9998626708984 91.63350677490234 168.9998626708984 85.99986267089844 C 168.9998626708984 80.36646270751953 168.4324951171875 74.73751068115234 167.3135528564453 69.26931762695312 C 166.2233581542969 63.94162750244141 164.5966186523438 58.701171875 162.4785461425781 53.6934814453125 C 160.3986511230469 48.77605438232422 157.8241424560547 44.032958984375 154.8265533447266 39.59593200683594 C 151.85693359375 35.2003173828125 148.4464111328125 31.06674194335938 144.6897430419922 27.31010437011719 C 140.9330749511719 23.55343627929688 136.7995300292969 20.1429443359375 132.4038848876953 17.17329406738281 C 127.9668884277344 14.17572021484375 123.2237701416016 11.60122680664062 118.3063354492188 9.521316528320312 C 113.2986450195312 7.403244018554688 108.0581665039062 5.776504516601562 102.7304992675781 4.686325073242188 C 97.26231384277344 3.567367553710938 91.63333892822266 3.000015258789062 85.99993133544922 3.000015258789062 M 85.99993133544922 1.52587890625e-05 C 133.4963836669922 1.52587890625e-05 171.9998626708984 38.50343322753906 171.9998626708984 85.99986267089844 L 171.9998626708984 86.00010681152344 C 171.9998626708984 133.4965057373047 133.4963836669922 171.9999542236328 85.99993133544922 171.9999542236328 C 38.50347900390625 171.9999542236328 0 133.4965057373047 0 86.00010681152344 L 0 85.99986267089844 C 0 38.50343322753906 38.50347900390625 1.52587890625e-05 85.99993133544922 1.52587890625e-05 Z" stroke="none" fill="#fff"/>
            </g>
          </g>
        </g>
      </g>
    </g>
    <g id="Group_1111665" data-name="Group 1111665" transform="translate(-5328.034 -6670.842)">
      <path id="Path_900597" data-name="Path 900597" d="M285.446,308.66l-10.392-10.392a28.1,28.1,0,0,1-4.7,4.7l10.392,10.392Z" transform="translate(-222.721 -239.665)" fill="#8abbd5"/>
      <path id="Path_900598" data-name="Path 900598" d="M283.05,321.426,272.8,311.173a28.1,28.1,0,0,1-2.44,2.162l10.392,10.392Z" transform="translate(-222.722 -250.034)" fill="#6cabca"/>
      <g id="Group_1111643" data-name="Group 1111643" transform="translate(57.305 68.274)">
        <g id="Group_1111642" data-name="Group 1111642" transform="translate(0 0)">
          <path id="Path_900599" data-name="Path 900599" d="M328.106,348.111a2.132,2.132,0,0,0-3.016,0L320.2,353a2.132,2.132,0,0,0,0,3.016l3.527,3.527,7.908-7.908Z" transform="translate(-319.574 -347.487)" fill="#d8ecfe"/>
        </g>
        <path id="Path_900600" data-name="Path 900600" d="M325.194,355.53a2.132,2.132,0,0,1,0-3.016l3.658-3.658-.746-.746a2.132,2.132,0,0,0-3.016,0L320.2,353a2.132,2.132,0,0,0,0,3.016l3.527,3.527,2.742-2.742Z" transform="translate(-319.574 -347.486)" fill="#c4e2ff"/>
      </g>
      <g id="Group_1111644" data-name="Group 1111644" transform="translate(61.457 72.425)">
        <path id="Path_900601" data-name="Path 900601" d="M366.467,390.995l-3.385,3.385a3.2,3.2,0,0,1-4.523,0l-17.853-17.853,7.908-7.908,17.853,17.853A3.2,3.2,0,0,1,366.467,390.995Z" transform="translate(-340.706 -368.618)" fill="#2ed1e2"/>
      </g>
      <g id="Group_1111645" data-name="Group 1111645" transform="translate(61.457 72.425)">
        <path id="Path_900602" data-name="Path 900602" d="M349.053,375.136l3.039-3.039-3.479-3.479-7.908,7.908,17.853,17.853a3.2,3.2,0,0,0,4.523,0l1.217-1.217-15.247-15.247A1.965,1.965,0,0,1,349.053,375.136Z" transform="translate(-340.706 -368.618)" fill="#03bed7"/>
      </g>
      <path id="Path_900603" data-name="Path 900603" d="M96.1,95.021H83.162a.983.983,0,0,0-.695.288l-7.052,7.052a.982.982,0,0,1-1.677-.695V96a.982.982,0,0,0-.982-.982H65.217a.982.982,0,0,1-.982-.982V69.718a27.951,27.951,0,0,0-22.366,36.806H57.2a.589.589,0,0,1,.417.173l5.243,5.243a.589.589,0,0,1,.173.417V124.8A27.946,27.946,0,0,0,96.194,97.361C96.194,96.572,96.16,95.793,96.1,95.021Z" transform="translate(-37.889 -56.02)" fill="#00f2a6"/>
      <path id="Path_900604" data-name="Path 900604" d="M115.831,121.539h-6.509a.983.983,0,0,0-.695.288l-7.052,7.052a.982.982,0,0,1-1.677-.695v-5.662a.982.982,0,0,0-.982-.982H91.377a.983.983,0,0,1-.982-.982V102.72a21.546,21.546,0,0,0-15.466,30.322h8.43a.589.589,0,0,1,.417.173l5.243,5.243a.589.589,0,0,1,.173.417v5.9a21.549,21.549,0,0,0,26.766-20.895A21.8,21.8,0,0,0,115.831,121.539Z" transform="translate(-64.05 -82.538)" fill="#d8ecfe"/>
      <g id="Group_1111646" data-name="Group 1111646" transform="translate(8.837 20.182)">
        <path id="Path_900605" data-name="Path 900605" d="M83.2,133.042A21.544,21.544,0,0,1,90.4,106.206V102.72A21.546,21.546,0,0,0,74.93,133.042Z" transform="translate(-72.887 -102.72)" fill="#b3dafe"/>
      </g>
      <g id="Group_1111651" data-name="Group 1111651" transform="translate(26.345 1.474)">
        <g id="Group_1111647" data-name="Group 1111647" transform="translate(0)">
          <path id="Path_900606" data-name="Path 900606" d="M198.544,7.5H162.981a.982.982,0,0,0-.982.982V44.045a.982.982,0,0,0,.982.982h7.539a.982.982,0,0,1,.982.982v5.662a.983.983,0,0,0,1.677.695l7.052-7.052a.982.982,0,0,1,.695-.288h17.618a.982.982,0,0,0,.982-.982V8.482A.982.982,0,0,0,198.544,7.5Z" transform="translate(-161.999 -7.5)" fill="#2ed1e2"/>
        </g>
        <g id="Group_1111649" data-name="Group 1111649" transform="translate(0)">
          <g id="Group_1111648" data-name="Group 1111648">
            <path id="Path_900607" data-name="Path 900607" d="M168.679,44.045V8.482a.983.983,0,0,1,.982-.982h-6.68a.982.982,0,0,0-.982.982V44.045a.982.982,0,0,0,.982.982h6.68A.982.982,0,0,1,168.679,44.045Z" transform="translate(-161.999 -7.5)" fill="#03bed7"/>
          </g>
        </g>
        <g id="Group_1111650" data-name="Group 1111650" transform="translate(16.02 6.189)">
          <path id="Path_900608" data-name="Path 900608" d="M249.087,103.605h-5.552V89.082h5.121a.431.431,0,0,1,.431.431Z" transform="translate(-243.535 -79.242)" fill="#fff"/>
          <path id="Path_900609" data-name="Path 900609" d="M248.656,44.552h-4.689a.431.431,0,0,1-.431-.431V39.431a.431.431,0,0,1,.431-.431h4.69a.431.431,0,0,1,.431.431v4.689A.432.432,0,0,1,248.656,44.552Z" transform="translate(-243.535 -39)" fill="#fff"/>
        </g>
      </g>
      <g id="Group_1111652" data-name="Group 1111652" transform="translate(64.615 44.774)">
        <path id="Path_900610" data-name="Path 900610" d="M370.687,242.38h-13.32a.589.589,0,0,1-.589-.589V228.47a.589.589,0,0,1,.589-.589h13.32a.589.589,0,0,1,.589.589v13.32A.589.589,0,0,1,370.687,242.38Z" transform="translate(-356.777 -227.881)" fill="#00f2a6"/>
      </g>
      <g id="Group_1111653" data-name="Group 1111653" transform="translate(64.615 44.774)">
        <path id="Path_900611" data-name="Path 900611" d="M361.733,241.791V228.47a.589.589,0,0,1,.589-.589h-4.956a.589.589,0,0,0-.589.589v13.32a.589.589,0,0,0,.589.589h4.956A.589.589,0,0,1,361.733,241.791Z" transform="translate(-356.777 -227.881)" fill="#05e39c"/>
      </g>
      <g id="Group_1111654" data-name="Group 1111654" transform="translate(33.057 76.118)">
        <path id="Path_900612" data-name="Path 900612" d="M205.594,397.432h-8.843a.589.589,0,0,1-.589-.589V388a.589.589,0,0,1,.589-.589h8.843a.589.589,0,0,1,.589.589v8.843A.589.589,0,0,1,205.594,397.432Z" transform="translate(-196.162 -387.41)" fill="#fe646f"/>
      </g>
      <g id="Group_1111655" data-name="Group 1111655" transform="translate(33.057 76.118)">
        <path id="Path_900613" data-name="Path 900613" d="M200.453,396.842V388a.589.589,0,0,1,.589-.589h-4.291a.589.589,0,0,0-.589.589v8.843a.589.589,0,0,0,.589.589h4.291A.589.589,0,0,1,200.453,396.842Z" transform="translate(-196.162 -387.41)" fill="#fd4755"/>
      </g>
      <g id="Group_1111656" data-name="Group 1111656" transform="translate(6.305 4.715)">
        <path id="Path_900614" data-name="Path 900614" d="M67.955,32.544H60.589A.589.589,0,0,1,60,31.955V24.589A.589.589,0,0,1,60.589,24h7.366a.589.589,0,0,1,.589.589v7.366A.59.59,0,0,1,67.955,32.544Z" transform="translate(-60 -24)" fill="#ffe177"/>
      </g>
      <g id="Group_1111657" data-name="Group 1111657" transform="translate(6.305 4.715)">
        <path id="Path_900615" data-name="Path 900615" d="M63.891,31.955V24.589A.589.589,0,0,1,64.48,24H60.589a.589.589,0,0,0-.589.589v7.366a.589.589,0,0,0,.589.589H64.48A.59.59,0,0,1,63.891,31.955Z" transform="translate(-60 -24)" fill="#ffc344"/>
      </g>
      <g id="Group_1111660" data-name="Group 1111660" transform="translate(1.474 50.504)">
        <g id="Group_1111658" data-name="Group 1111658" transform="translate(0)">
          <path id="Path_900616" data-name="Path 900616" d="M53.248,257.047H36a.589.589,0,0,0-.589.589v28.406a.589.589,0,0,0,.589.589H58.491a.589.589,0,0,0,.589-.589V262.879a.589.589,0,0,0-.173-.417l-5.243-5.243A.589.589,0,0,0,53.248,257.047Z" transform="translate(-35.412 -257.047)" fill="#ffe177"/>
        </g>
        <g id="Group_1111659" data-name="Group 1111659" transform="translate(0)">
          <path id="Path_900617" data-name="Path 900617" d="M42.011,286.042V257.636a.589.589,0,0,1,.589-.589H36a.589.589,0,0,0-.589.589v28.406a.589.589,0,0,0,.589.589h6.6A.589.589,0,0,1,42.011,286.042Z" transform="translate(-35.412 -257.047)" fill="#ffc344"/>
        </g>
      </g>
      <g id="Group_1111663" data-name="Group 1111663" transform="translate(70.159 14.069)">
        <g id="Group_1111661" data-name="Group 1111661" transform="translate(0)">
          <path id="Path_900618" data-name="Path 900618" d="M397.73,71.607H385.582a.589.589,0,0,0-.589.589V92.26a.589.589,0,0,0,.589.589H401.4a.589.589,0,0,0,.589-.589v-16.4a.589.589,0,0,0-.173-.417l-3.667-3.667a.588.588,0,0,0-.417-.173Z" transform="translate(-384.993 -71.607)" fill="#d8ecfe"/>
        </g>
        <g id="Group_1111662" data-name="Group 1111662" transform="translate(0 0)">
          <path id="Path_900619" data-name="Path 900619" d="M390.6,92.26V72.2a.589.589,0,0,1,.589-.589h-5.6a.589.589,0,0,0-.589.589V92.26a.589.589,0,0,0,.589.589h5.6A.59.59,0,0,1,390.6,92.26Z" transform="translate(-384.993 -71.607)" fill="#c4e2ff"/>
        </g>
      </g>
      <g id="Group_1111664" data-name="Group 1111664">
        <path id="Path_900620" data-name="Path 900620" d="M116.172,89.237l-6.98-6.98a1.474,1.474,0,1,0-2.084,2.084l6.98,6.98a1.725,1.725,0,0,1,0,2.439L110.7,97.145a1.725,1.725,0,0,1-2.439,0L91.453,80.333l5.824-5.824,4.969,4.969a1.474,1.474,0,1,0,2.084-2.084l-9.538-9.538A3.61,3.61,0,0,0,90.82,67.1l-8.639-8.639A29.245,29.245,0,0,0,87.69,41.341c0-.29-.006-.578-.014-.865H90.8a2.459,2.459,0,0,0,2.456-2.456V24.167a1.474,1.474,0,0,0-2.947,0V37.528H73.184a2.441,2.441,0,0,0-1.737.719L65.234,44.46V39.984a2.459,2.459,0,0,0-2.456-2.456H55.731V2.947H90.311V17.29a1.474,1.474,0,0,0,2.947,0V2.456A2.459,2.459,0,0,0,90.8,0H55.24a2.459,2.459,0,0,0-2.456,2.456v10A29.406,29.406,0,0,0,29.9,49.034a2.064,2.064,0,0,0-1.99,2.059V79.5a2.065,2.065,0,0,0,2.063,2.063H40.307a1.474,1.474,0,1,0,0-2.947H30.859V51.978h16L51.58,56.7V78.616h-4.4a1.474,1.474,0,0,0,0,2.947h5.28A2.065,2.065,0,0,0,54.527,79.5V70.506A29.361,29.361,0,0,0,75.4,65.238l8.637,8.637a3.606,3.606,0,0,0,.763,3.973L106.18,99.229a4.672,4.672,0,0,0,6.607,0l3.385-3.385a4.672,4.672,0,0,0,0-6.607ZM52.784,15.458V19A23.008,23.008,0,0,0,36.6,49.031H32.967A26.463,26.463,0,0,1,52.784,15.458Zm-4.1,34.176a2.05,2.05,0,0,0-1.459-.6H39.756A20.056,20.056,0,0,1,52.784,22.049v15.97a2.459,2.459,0,0,0,2.456,2.456h7.048v5.171a2.455,2.455,0,0,0,4.192,1.737l6.908-6.908h4.938c.013.287.021.575.021.865A20.055,20.055,0,0,1,54.527,61.046v-4.71a2.049,2.049,0,0,0-.6-1.459Zm5.847,17.9v-3.49a23.008,23.008,0,0,0,26.766-22.7c0-.29-.007-.578-.018-.865h3.451c.01.287.016.576.016.865a26.456,26.456,0,0,1-30.216,26.19Zm23.192-4.142a29.663,29.663,0,0,0,2.614-2.614L88.553,69l-2.614,2.614Zm9.165,12.375a.659.659,0,0,1,0-.932l4.892-4.892a.659.659,0,0,1,.932,0l2.485,2.485-5.824,5.824Z" transform="translate(-27.912 0)"/>
        <path id="Path_900621" data-name="Path 900621" d="M242.628,40a1.907,1.907,0,0,0,1.9-1.9V33.4a1.907,1.907,0,0,0-1.9-1.9h-4.69a1.907,1.907,0,0,0-1.9,1.9v4.689a1.907,1.907,0,0,0,1.9,1.9Zm-3.647-5.552h2.6v2.6h-2.6Z" transform="translate(-195.143 -25.311)"/>
        <path id="Path_900622" data-name="Path 900622" d="M227.481,96.1a1.474,1.474,0,0,0,0,2.947h9.389a1.474,1.474,0,0,0,0-2.947h-.445V83.486a1.907,1.907,0,0,0-1.9-1.9h-7.1a1.474,1.474,0,0,0,0,2.947h.509V96.1Zm3.392-11.576h2.6V96.1h-2.6Z" transform="translate(-187.034 -65.552)"/>
        <path id="Path_900623" data-name="Path 900623" d="M351.34,220.381a2.065,2.065,0,0,0-2.063,2.063v13.32a2.065,2.065,0,0,0,2.063,2.063h13.32a2.065,2.065,0,0,0,2.063-2.063v-13.32a2.065,2.065,0,0,0-2.063-2.063Zm12.436,14.5H352.224V223.328h11.552Z" transform="translate(-286.136 -177.081)"/>
        <path id="Path_900624" data-name="Path 900624" d="M199.568,379.911h-8.843a2.065,2.065,0,0,0-2.063,2.063v8.843a2.065,2.065,0,0,0,2.063,2.063h8.843a2.065,2.065,0,0,0,2.063-2.063v-8.843A2.065,2.065,0,0,0,199.568,379.911Zm-.884,10.022h-7.074v-7.074h7.074Z" transform="translate(-157.078 -305.267)"/>
        <path id="Path_900625" data-name="Path 900625" d="M54.563,27.991h7.365a2.065,2.065,0,0,0,2.063-2.063V18.563A2.065,2.065,0,0,0,61.928,16.5H54.563A2.065,2.065,0,0,0,52.5,18.563v7.365A2.065,2.065,0,0,0,54.563,27.991Zm.884-8.544h5.6v5.6h-5.6Z" transform="translate(-47.669 -13.258)"/>
        <path id="Path_900626" data-name="Path 900626" d="M65.524,361.511h9.467a1.474,1.474,0,1,0,0-2.947H65.524a1.474,1.474,0,1,0,0,2.947Z" transform="translate(-56.95 -288.114)"/>
        <path id="Path_900627" data-name="Path 900627" d="M65.524,327.782h9.467a1.474,1.474,0,0,0,0-2.947H65.524a1.474,1.474,0,0,0,0,2.947Z" transform="translate(-56.95 -261.012)"/>
        <path id="Path_900628" data-name="Path 900628" d="M65.524,294.052h5.365a1.474,1.474,0,1,0,0-2.947H65.524a1.474,1.474,0,1,0,0,2.947Z" transform="translate(-56.95 -233.909)"/>
        <path id="Path_900629" data-name="Path 900629" d="M379.555,88.3H395.37a2.065,2.065,0,0,0,2.063-2.063v-16.4a2.049,2.049,0,0,0-.6-1.459l-3.667-3.667a2.05,2.05,0,0,0-1.459-.6H379.555a2.065,2.065,0,0,0-2.063,2.063V86.233A2.066,2.066,0,0,0,379.555,88.3Zm.884-21.243h10.9l3.149,3.149V85.349H380.439Z" transform="translate(-308.807 -51.511)"/>
        <path id="Path_900630" data-name="Path 900630" d="M411.713,142.383h-6.8a1.474,1.474,0,0,0,0,2.947h6.8a1.474,1.474,0,1,0,0-2.947Z" transform="translate(-329.658 -114.408)"/>
        <path id="Path_900631" data-name="Path 900631" d="M411.713,118.165h-6.8a1.474,1.474,0,0,0,0,2.947h6.8a1.474,1.474,0,1,0,0-2.947Z" transform="translate(-329.658 -94.948)"/>
        <path id="Path_900632" data-name="Path 900632" d="M404.915,96.894h3.852a1.474,1.474,0,1,0,0-2.947h-3.852a1.474,1.474,0,1,0,0,2.947Z" transform="translate(-329.658 -75.488)"/>
      </g>
    </g>
  </g>
</svg>
