<svg xmlns="http://www.w3.org/2000/svg" width="398.707" height="528.465" viewBox="0 0 398.707 528.465">
  <g id="Group_1111463" data-name="Group 1111463" transform="translate(-180.051 -6667.03)">
    <rect id="Rectangle_404562" data-name="Rectangle 404562" width="301" height="172" rx="9" transform="translate(277.051 7023)" fill="#fed6a8"/>
    <rect id="Rectangle_404561" data-name="Rectangle 404561" width="248" height="362" rx="9" transform="translate(180.051 6691)" fill="#feead4"/>
    <g id="Group_58980" data-name="Group 58980" transform="translate(351.716 6676.393)">
      <path id="Path_102787" data-name="Path 102787" d="M1979,4394.12l-2.981-15.082h46.96l-2.609,15.082Z" transform="translate(-1976.016 -4379.039)" fill="#d9a171"/>
    </g>
    <g id="Group_59029" data-name="Group 59029" transform="translate(392.842 6676.393)" opacity="0.3">
      <path id="Path_102814" data-name="Path 102814" d="M2022.507,4379.039l-2.59,15.082h3.225l2.609-15.082h-4.107" transform="translate(-2019.917 -4379.039)" fill="#d9a171"/>
    </g>
    <g id="Group_1111462" data-name="Group 1111462" transform="translate(9446.051 11534)">
      <g id="Group_58972" data-name="Group 58972" transform="translate(-9097.886 -4857.201)">
        <rect id="Rectangle_5480" data-name="Rectangle 5480" width="230.593" height="315.977" fill="#5e6178"/>
      </g>
      <g id="Group_58973" data-name="Group 58973" transform="translate(-9078.685 -4844.43)">
        <path id="Path_102783" data-name="Path 102783" d="M2102.623,4703.255H1900.345V4418.842h202.277v284.413Z" transform="translate(-1900.345 -4418.842)" fill="#e1e1e1"/>
      </g>
      <g id="Group_58974" data-name="Group 58974" transform="translate(-9080.058 -4848.191)">
        <path id="Path_102784" data-name="Path 102784" d="M2099.357,4697.785H1898.9v-282.9h200.455v282.9Z" transform="translate(-1898.902 -4414.887)" fill="#ececec"/>
      </g>
      <g id="Group_58978" data-name="Group 58978" transform="translate(-9084.048 -4847.722)">
        <g id="Group_58975" data-name="Group 58975" transform="translate(0.247 0.248)">
          <path id="Path_102785" data-name="Path 102785" d="M2077.623,4675.8l-23.088,18.8H1894.966V4415.641h202.278V4659.9Z" transform="translate(-1894.966 -4415.641)" fill="#fafafa"/>
        </g>
        <g id="Group_58977" data-name="Group 58977">
          <g id="Group_58976" data-name="Group 58976">
            <path id="Path_102786" data-name="Path 102786" d="M2077.61,4675.793s.409-.35,1.232-1.027l3.7-3.023,14.639-11.916-.029.06c-.024-40.122-.077-129.277-.146-244.259l.225.224-200.512.023h-1.766l.247-.247c-.018,104.877-.035,201.628-.049,278.965l-.2-.2,159.569.112-.053.021,17.338-14.066q2.893-2.337,4.345-3.51c.968-.778,1.458-1.159,1.458-1.159s-.473.4-1.431,1.193l-4.317,3.543-17.288,14.128-.022.019h-.031c-30.775.021-86.73.061-159.569.114h-.2v-.2c-.013-77.337-.03-174.088-.048-278.965v-.248h2.013l200.512.024h.223v.223c-.068,114.982-.12,204.137-.144,244.259v.04l-.03.023c-6.479,5.229-11.391,9.2-14.687,11.856l-3.724,2.994C2078.037,4675.465,2077.61,4675.793,2077.61,4675.793Z" transform="translate(-1894.706 -4415.38)" fill="#344154"/>
          </g>
        </g>
      </g>
      <g id="Group_58979" data-name="Group 58979" transform="translate(-9023.982 -4866.97)">
        <path id="Rectangle_5481" data-name="Rectangle 5481" d="M14.757,0H68.632A14.154,14.154,0,0,1,82.786,14.154V28.38a0,0,0,0,1,0,0H0a0,0,0,0,1,0,0V14.757A14.757,14.757,0,0,1,14.757,0Z" fill="#d9a171"/>
      </g>
      <g id="Group_58990" data-name="Group 58990" transform="translate(-9062.645 -4803.03)">
        <g id="Group_58981" data-name="Group 58981">
          <path id="Path_102788" data-name="Path 102788" d="M1951.294,4496.46h-34.078v-34.079h34.078Zm-33.128-.951h32.177v-32.177h-32.177Z" transform="translate(-1917.216 -4462.381)" fill="#d9a171"/>
        </g>
        <g id="Group_58983" data-name="Group 58983" transform="translate(48.543 7.982)">
          <g id="Group_58982" data-name="Group 58982">
            <path id="Path_102789" data-name="Path 102789" d="M2074.222,4471.023c0,.136-23.72.247-52.975.247s-52.981-.111-52.981-.247,23.716-.248,52.981-.248S2074.222,4470.887,2074.222,4471.023Z" transform="translate(-1968.267 -4470.775)" fill="#344154"/>
          </g>
        </g>
        <g id="Group_58985" data-name="Group 58985" transform="translate(48.543 15.064)">
          <g id="Group_58984" data-name="Group 58984">
            <path id="Path_102790" data-name="Path 102790" d="M2074.222,4478.471c0,.137-23.72.247-52.975.247s-52.981-.11-52.981-.247,23.716-.248,52.981-.248S2074.222,4478.334,2074.222,4478.471Z" transform="translate(-1968.267 -4478.223)" fill="#344154"/>
          </g>
        </g>
        <g id="Group_58987" data-name="Group 58987" transform="translate(48.543 22.145)">
          <g id="Group_58986" data-name="Group 58986">
            <path id="Path_102791" data-name="Path 102791" d="M2074.222,4485.917c0,.138-23.72.249-52.975.249s-52.981-.111-52.981-.249,23.716-.247,52.981-.247S2074.222,4485.782,2074.222,4485.917Z" transform="translate(-1968.267 -4485.671)" fill="#344154"/>
          </g>
        </g>
        <g id="Group_58989" data-name="Group 58989" transform="translate(48.543 29.226)">
          <g id="Group_58988" data-name="Group 58988">
            <path id="Path_102792" data-name="Path 102792" d="M2074.222,4493.365c0,.137-23.72.247-52.975.247s-52.981-.11-52.981-.247,23.716-.248,52.981-.248S2074.222,4493.229,2074.222,4493.365Z" transform="translate(-1968.267 -4493.118)" fill="#344154"/>
          </g>
        </g>
      </g>
      <g id="Group_59001" data-name="Group 59001" transform="translate(-9062.645 -4750.51)">
        <g id="Group_58991" data-name="Group 58991">
          <path id="Path_102793" data-name="Path 102793" d="M1951.294,4551.693h-34.078v-34.079h34.078Zm-33.128-.952h32.177v-32.176h-32.177Z" transform="translate(-1917.216 -4517.615)" fill="#d9a171"/>
        </g>
        <g id="Group_58992" data-name="Group 58992" transform="translate(6.777 2.158)">
          <path id="Path_102794" data-name="Path 102794" d="M1924.343,4535.468l4.524-4.861,7.54,6.033,17.258-16.755,4.135,4.873-21.728,21.432Z" transform="translate(-1924.343 -4519.885)" fill="#d9a171"/>
        </g>
        <g id="Group_58994" data-name="Group 58994" transform="translate(48.543 7.982)">
          <g id="Group_58993" data-name="Group 58993">
            <path id="Path_102795" data-name="Path 102795" d="M2074.222,4526.256c0,.137-23.72.248-52.975.248s-52.981-.11-52.981-.248,23.716-.247,52.981-.247S2074.222,4526.119,2074.222,4526.256Z" transform="translate(-1968.267 -4526.009)" fill="#344154"/>
          </g>
        </g>
        <g id="Group_58996" data-name="Group 58996" transform="translate(48.543 15.063)">
          <g id="Group_58995" data-name="Group 58995">
            <path id="Path_102796" data-name="Path 102796" d="M2074.222,4533.7c0,.136-23.72.249-52.975.249s-52.981-.112-52.981-.249,23.716-.248,52.981-.248S2074.222,4533.567,2074.222,4533.7Z" transform="translate(-1968.267 -4533.456)" fill="#344154"/>
          </g>
        </g>
        <g id="Group_58998" data-name="Group 58998" transform="translate(48.543 22.144)">
          <g id="Group_58997" data-name="Group 58997">
            <path id="Path_102797" data-name="Path 102797" d="M2074.222,4541.151c0,.136-23.72.247-52.975.247s-52.981-.111-52.981-.247,23.716-.248,52.981-.248S2074.222,4541.015,2074.222,4541.151Z" transform="translate(-1968.267 -4540.903)" fill="#344154"/>
          </g>
        </g>
        <g id="Group_59000" data-name="Group 59000" transform="translate(48.543 29.226)">
          <g id="Group_58999" data-name="Group 58999">
            <path id="Path_102798" data-name="Path 102798" d="M2074.222,4548.6c0,.136-23.72.247-52.975.247s-52.981-.111-52.981-.247,23.716-.25,52.981-.25S2074.222,4548.461,2074.222,4548.6Z" transform="translate(-1968.267 -4548.35)" fill="#344154"/>
          </g>
        </g>
      </g>
      <g id="Group_59012" data-name="Group 59012" transform="translate(-9062.645 -4699.688)">
        <g id="Group_59002" data-name="Group 59002">
          <path id="Path_102799" data-name="Path 102799" d="M1951.294,4605.141h-34.078v-34.078h34.078Zm-33.128-.951h32.177v-32.176h-32.177Z" transform="translate(-1917.216 -4571.063)" fill="#d9a171"/>
        </g>
        <g id="Group_59003" data-name="Group 59003" transform="translate(6.777 2.158)">
          <path id="Path_102800" data-name="Path 102800" d="M1924.343,4588.915l4.524-4.859,7.54,6.032,17.258-16.755,4.135,4.873-21.728,21.432Z" transform="translate(-1924.343 -4573.333)" fill="#d9a171"/>
        </g>
        <g id="Group_59005" data-name="Group 59005" transform="translate(48.543 7.983)">
          <g id="Group_59004" data-name="Group 59004">
            <path id="Path_102801" data-name="Path 102801" d="M2074.222,4579.7c0,.136-23.72.248-52.975.248s-52.981-.112-52.981-.248,23.716-.247,52.981-.247S2074.222,4579.568,2074.222,4579.7Z" transform="translate(-1968.267 -4579.458)" fill="#344154"/>
          </g>
        </g>
        <g id="Group_59007" data-name="Group 59007" transform="translate(48.543 15.063)">
          <g id="Group_59006" data-name="Group 59006">
            <path id="Path_102802" data-name="Path 102802" d="M2074.222,4587.151c0,.137-23.72.248-52.975.248s-52.981-.111-52.981-.248,23.716-.248,52.981-.248S2074.222,4587.015,2074.222,4587.151Z" transform="translate(-1968.267 -4586.904)" fill="#344154"/>
          </g>
        </g>
        <g id="Group_59009" data-name="Group 59009" transform="translate(48.543 22.145)">
          <g id="Group_59008" data-name="Group 59008">
            <path id="Path_102803" data-name="Path 102803" d="M2074.222,4594.6c0,.136-23.72.247-52.975.247s-52.981-.11-52.981-.247,23.716-.249,52.981-.249S2074.222,4594.463,2074.222,4594.6Z" transform="translate(-1968.267 -4594.351)" fill="#344154"/>
          </g>
        </g>
        <g id="Group_59011" data-name="Group 59011" transform="translate(48.543 29.227)">
          <g id="Group_59010" data-name="Group 59010">
            <path id="Path_102804" data-name="Path 102804" d="M2074.222,4602.046c0,.138-23.72.248-52.975.248s-52.981-.11-52.981-.248,23.716-.247,52.981-.247S2074.222,4601.91,2074.222,4602.046Z" transform="translate(-1968.267 -4601.799)" fill="#344154"/>
          </g>
        </g>
      </g>
      <g id="Group_59023" data-name="Group 59023" transform="translate(-9062.645 -4650.618)">
        <g id="Group_59013" data-name="Group 59013">
          <path id="Path_102805" data-name="Path 102805" d="M1951.294,4656.746h-34.078v-34.077h34.078Zm-33.128-.95h32.177V4623.62h-32.177Z" transform="translate(-1917.216 -4622.668)" fill="#d9a171"/>
        </g>
        <g id="Group_59014" data-name="Group 59014" transform="translate(6.777 2.158)">
          <path id="Path_102806" data-name="Path 102806" d="M1924.343,4640.521l4.524-4.859,7.54,6.033,17.258-16.756,4.135,4.874-21.728,21.433Z" transform="translate(-1924.343 -4624.938)" fill="#d9a171"/>
        </g>
        <g id="Group_59016" data-name="Group 59016" transform="translate(48.543 7.982)">
          <g id="Group_59015" data-name="Group 59015">
            <path id="Path_102807" data-name="Path 102807" d="M2074.222,4631.31c0,.136-23.72.248-52.975.248s-52.981-.111-52.981-.248,23.716-.248,52.981-.248S2074.222,4631.173,2074.222,4631.31Z" transform="translate(-1968.267 -4631.062)" fill="#344154"/>
          </g>
        </g>
        <g id="Group_59018" data-name="Group 59018" transform="translate(48.543 15.063)">
          <g id="Group_59017" data-name="Group 59017">
            <path id="Path_102808" data-name="Path 102808" d="M2074.222,4638.757c0,.136-23.72.246-52.975.246s-52.981-.109-52.981-.246,23.716-.249,52.981-.249S2074.222,4638.62,2074.222,4638.757Z" transform="translate(-1968.267 -4638.508)" fill="#344154"/>
          </g>
        </g>
        <g id="Group_59020" data-name="Group 59020" transform="translate(48.543 22.145)">
          <g id="Group_59019" data-name="Group 59019">
            <path id="Path_102809" data-name="Path 102809" d="M2074.222,4646.205c0,.136-23.72.248-52.975.248s-52.981-.112-52.981-.248,23.716-.247,52.981-.247S2074.222,4646.068,2074.222,4646.205Z" transform="translate(-1968.267 -4645.958)" fill="#344154"/>
          </g>
        </g>
        <g id="Group_59022" data-name="Group 59022" transform="translate(48.543 29.226)">
          <g id="Group_59021" data-name="Group 59021">
            <path id="Path_102810" data-name="Path 102810" d="M2074.222,4653.652c0,.136-23.72.248-52.975.248s-52.981-.111-52.981-.248,23.716-.249,52.981-.249S2074.222,4653.516,2074.222,4653.652Z" transform="translate(-1968.267 -4653.404)" fill="#344154"/>
          </g>
        </g>
      </g>
      <g id="Group_59024" data-name="Group 59024" transform="translate(-8940.064 -4614.695)">
        <path id="Path_102811" data-name="Path 102811" d="M2068.3,4660.447l-22.176,45.927h15.833Z" transform="translate(-2046.128 -4660.447)" fill="#e1e1e1"/>
      </g>
      <g id="Group_59028" data-name="Group 59028" transform="translate(-8924.232 -4614.741)">
        <g id="Group_59025" data-name="Group 59025" transform="translate(0.001 0.304)">
          <path id="Path_102812" data-name="Path 102812" d="M2062.78,4706.646l6.343-45.928,36.366,11.224Z" transform="translate(-2062.78 -4660.718)" fill="#fafafa"/>
        </g>
        <g id="Group_59027" data-name="Group 59027">
          <g id="Group_59026" data-name="Group 59026">
            <path id="Path_102813" data-name="Path 102813" d="M2062.78,4706.631l12.228-10.065,30.327-24.826.082.418c-4.51-1.391-9.216-2.841-14.041-4.327-7.871-2.436-15.421-4.771-22.323-6.9l.3-.191c-1.9,13.341-3.529,24.769-4.686,32.892-1.147,7.9-1.738,11.975-1.888,13a2.019,2.019,0,0,1,.02-.2l.081-.636c.077-.6.187-1.431.327-2.5.294-2.231.717-5.438,1.249-9.467,1.095-8.187,2.636-19.706,4.435-33.152l.036-.272.263.08,22.332,6.877,14.037,4.337.435.135-.354.285-30.694,24.757-8.963,7.2-2.39,1.917-.613.487A2.241,2.241,0,0,1,2062.78,4706.631Z" transform="translate(-2062.779 -4660.4)" fill="#344154"/>
          </g>
        </g>
      </g>
      <path id="Path_132035" data-name="Path 132035" d="M487.053,4048.751a2.233,2.233,0,0,1,2.251,2.214v1.194a19.155,19.155,0,0,1,8.118,2.878,2.819,2.819,0,0,1,1.57,2.521,2.879,2.879,0,0,1-2.879,2.88h-.055a3.023,3.023,0,0,1-1.57-.476,19.376,19.376,0,0,0-5.382-2.306v10.064c7.965,1.991,11.373,5.185,11.373,10.764,0,5.767-4.485,9.589-11.158,10.217v3.176a2.233,2.233,0,0,1-2.216,2.251h-.036a2.278,2.278,0,0,1-2.3-2.251h0v-3.257A22.592,22.592,0,0,1,474,4084.539a2.891,2.891,0,1,1,3.167-4.826,18.657,18.657,0,0,0,7.759,3.516v-10.324c-7.651-1.991-11.212-4.87-11.212-10.763,0-5.606,4.485-9.481,11.006-10.011V4051a2.278,2.278,0,0,1,2.3-2.251Zm-2.1,17.868v-9.276c-3.355.313-5.032,2.1-5.032,4.4S480.917,4065.308,484.954,4066.618Zm4.134,7.282v9.535c3.355-.367,5.194-2.045,5.194-4.556C494.283,4076.574,493.126,4075.156,489.089,4073.9Z" transform="translate(-9408.789 -8725.915)" fill="#ebebeb"/>
      <g id="Group_76765" data-name="Group 76765" transform="translate(-8980.76 -4564.509)">
        <path id="Path_9870" data-name="Path 9870" d="M391.328,2567.559a1.322,1.322,0,0,1-1.323-1.321V2549.8a1.323,1.323,0,0,1,1.323-1.321h3.185l-7.022-8.288-7.025,8.288h3.185a1.323,1.323,0,0,1,1.321,1.321v16.434a1.321,1.321,0,1,1-2.643,0v-15.112h-4.715a1.321,1.321,0,0,1-1.008-2.176l9.876-11.654a1.32,1.32,0,0,1,1.008-.468h0a1.32,1.32,0,0,1,1.008.468l9.873,11.654a1.322,1.322,0,0,1-1.01,2.176h-4.714v15.112A1.322,1.322,0,0,1,391.328,2567.559Z" transform="translate(-376.293 -2536.828)" fill="#344154"/>
      </g>
    </g>
    <g id="Group_1111461" data-name="Group 1111461" transform="translate(9378.728 11495.356)">
      <g id="Group_59049" data-name="Group 59049" transform="translate(-9036.481 -4791.989)">
        <g id="Group_59047" data-name="Group 59047" transform="translate(29.136)">
          <path id="Path_102822" data-name="Path 102822" d="M1926.643,4500.227l7.616-8.181,12.694,10.156,29.056-28.21,6.961,8.2-36.581,36.084Z" transform="translate(-1926.643 -4473.992)" fill="#d9a171"/>
        </g>
        <g id="Group_59048" data-name="Group 59048" transform="translate(0 28.462)">
          <path id="Path_102823" data-name="Path 102823" d="M1973.37,4491.771l-11.046,7.09c-.5-4.367-3.832-8.695-3.661-6.5s.02,13.574.02,13.574l-19.7,41.448c-2.678,6.568-8.1,10.7-12.153,11.67l-18.388,5.466,7.188,24.31,25.556-8.474a22.041,22.041,0,0,0,14.006-14.047l17.616-53.667a83.233,83.233,0,0,0,2.848-10.573C1976.411,4497.592,1973.37,4491.771,1973.37,4491.771Z" transform="translate(-1908.443 -4491.771)" fill="#ffbf9d"/>
        </g>
      </g>
      <g id="Group_1111460" data-name="Group 1111460" transform="translate(-9164.771 -4779.124)">
        <g id="Group_59045" data-name="Group 59045" transform="translate(39.19)">
          <g id="Group_59036" data-name="Group 59036" transform="translate(24.782 21.243)">
            <g id="Group_59035" data-name="Group 59035">
              <g id="Group_59034" data-name="Group 59034">
                <g id="Group_59033" data-name="Group 59033">
                  <g id="Group_59032" data-name="Group 59032">
                    <g id="Group_59031" data-name="Group 59031">
                      <path id="Path_102815" data-name="Path 102815" d="M1880.4,4581.019h0a14.4,14.4,0,0,0,15.49-13.809c.3-7.839.565-15.764.565-15.764s11.879-1.113,12.74-12.87.469-38.9.469-38.9h0a40.963,40.963,0,0,0-41.4,2.663l.732,41.375v22.261C1869.077,4573.444,1872.958,4580.446,1880.4,4581.019Z" transform="translate(-1868.267 -4495.298)" fill="#ffbf9d"/>
                    </g>
                  </g>
                </g>
              </g>
            </g>
          </g>
          <g id="Group_59037" data-name="Group 59037" transform="translate(18.676 11.385)">
            <path id="Path_102816" data-name="Path 102816" d="M1899.773,4527.924c-2.026-2.513-5.325-3.513-8.032-1.754a6.833,6.833,0,0,0-2.276,8.543,8.987,8.987,0,0,0,5.767,4.361,4.518,4.518,0,0,1,3.535,4.863,15.056,15.056,0,0,1-4.127,8.186c-3.447,3.8-8.516,5.847-13.609,6.447-5.006.593-10.742-.45-13.656-4.566-2.119-2.994-2.273-6.91-2.349-10.579q-.27-13-.538-26a37.275,37.275,0,0,1,.592-9.329,12.523,12.523,0,0,1,4.921-7.715c2.859-1.883,6.482-2.043,9.74-3.095,4.071-1.318,7.529-4.02,11.339-5.967s8.478-3.115,12.3-1.194c2.745,1.376,4.586,4.117,7.255,5.633,3.8,2.163,8.977,1.671,10.823,7.261a9.474,9.474,0,0,1-.064,5.978c-2.577,7.605-12,10.672-18.781,7.385-.133,1.288,1.135,4.156-.222,8.226-.434,1.3-.587,3.282-2.62,3.319" transform="translate(-1864.452 -4489.14)" fill="#344154"/>
          </g>
          <g id="Group_59038" data-name="Group 59038" transform="translate(1.589)">
            <path id="Path_102817" data-name="Path 102817" d="M1873.745,4508c1.669-3.8,3.357-7.68,3.778-11.812s-.63-8.625-3.706-11.412a11.131,11.131,0,0,0-7.75-2.742,13.1,13.1,0,0,0-11.813,9.36,14.112,14.112,0,0,0,4.751,14.462,15.3,15.3,0,0,0,15.231,1.985" transform="translate(-1853.779 -4482.028)" fill="#344154"/>
          </g>
          <g id="Group_59040" data-name="Group 59040" transform="translate(18.293 21.681)">
            <g id="Group_59039" data-name="Group 59039">
              <path id="Path_102818" data-name="Path 102818" d="M1869.785,4495.573c.222-.007.032,2.092-1.734,3.795-1.748,1.727-3.848,1.868-3.838,1.646-.057-.239,1.721-.71,3.255-2.238C1869.036,4497.278,1869.548,4495.512,1869.785,4495.573Z" transform="translate(-1864.213 -4495.572)" fill="#d9a171"/>
            </g>
          </g>
          <g id="Group_59042" data-name="Group 59042" transform="translate(6.613 13.864)">
            <g id="Group_59041" data-name="Group 59041">
              <path id="Path_102819" data-name="Path 102819" d="M1870.3,4501.379a11.009,11.009,0,0,1-3.192,2.336,9.189,9.189,0,0,1-4.207,1.19,5.853,5.853,0,0,1-4.907-2.2,6.536,6.536,0,0,1-.869-5.317,10.331,10.331,0,0,1,1.977-3.892,12.226,12.226,0,0,1,2.783-2.805,37.2,37.2,0,0,1-2.307,3.152,10.573,10.573,0,0,0-1.7,3.711,5.932,5.932,0,0,0,.792,4.656,5.2,5.2,0,0,0,4.232,1.929,9.305,9.305,0,0,0,3.946-.951C1868.989,4502.151,1870.224,4501.255,1870.3,4501.379Z" transform="translate(-1856.918 -4490.689)" fill="#344154"/>
            </g>
          </g>
          <g id="Group_59044" data-name="Group 59044" transform="translate(0 25.934)">
            <g id="Group_59043" data-name="Group 59043">
              <path id="Path_102820" data-name="Path 102820" d="M1852.8,4510.125a5.2,5.2,0,0,1,.572,1.306,13.472,13.472,0,0,0,1.732,3.349,4.854,4.854,0,0,0,4.6,2.116,6.314,6.314,0,0,0,4.429-4.46c.764-2.283.818-4.678,1.2-6.829a10.54,10.54,0,0,1,2.244-5.385,5.786,5.786,0,0,1,3.423-1.954,2.267,2.267,0,0,1,1.439.123c-.006.082-.52-.022-1.378.2a5.828,5.828,0,0,0-3.037,2.015,10.4,10.4,0,0,0-1.935,5.128,40.8,40.8,0,0,1-1.172,6.976,6.993,6.993,0,0,1-5.084,4.946,4.7,4.7,0,0,1-3.188-.615,6.635,6.635,0,0,1-2.025-1.908,11.519,11.519,0,0,1-1.566-3.6A4.431,4.431,0,0,1,1852.8,4510.125Z" transform="translate(-1852.786 -4498.228)" fill="#344154"/>
            </g>
          </g>
        </g>
        <g id="Group_59046" data-name="Group 59046" transform="translate(30.765 136.596)">
          <path id="Path_102821" data-name="Path 102821" d="M1850.186,4567.354s-5.992,43.9,0,49.461,11.762,3.718,11.762,3.718l11.409-9.543,2.246-43.636Z" transform="translate(-1847.523 -4567.354)" fill="#ffbf9d"/>
        </g>
        <g id="Group_59121" data-name="Group 59121" transform="translate(79.29 456.635)">
          <g id="Group_59120" data-name="Group 59120">
            <g id="Group_59056" data-name="Group 59056" transform="translate(0.122)">
              <g id="Group_59052" data-name="Group 59052">
                <g id="Group_59051" data-name="Group 59051">
                  <g id="Group_59050" data-name="Group 59050">
                    <path id="Path_102824" data-name="Path 102824" d="M1901.212,4779.559l-.275-12.291-23.026.369.211,17.984,1.43.07c6.358.251,32.352.829,36.58-.528C1920.847,4783.651,1901.212,4779.559,1901.212,4779.559Z" transform="translate(-1877.911 -4767.268)" fill="#d9a171"/>
                  </g>
                </g>
              </g>
              <g id="Group_59055" data-name="Group 59055" transform="translate(0.131 11.556)" opacity="0.5">
                <g id="Group_59054" data-name="Group 59054">
                  <g id="Group_59053" data-name="Group 59053">
                    <path id="Path_102825" data-name="Path 102825" d="M1886.418,4780.971a7.988,7.988,0,0,0-3.016-4.866,7.773,7.773,0,0,0-5.409-1.586l.1,6.433Z" transform="translate(-1877.993 -4774.486)" fill="#fff"/>
                  </g>
                </g>
              </g>
            </g>
            <g id="Group_59059" data-name="Group 59059" transform="translate(0.333 14.632)" opacity="0.4">
              <g id="Group_59058" data-name="Group 59058">
                <g id="Group_59057" data-name="Group 59057">
                  <path id="Path_102826" data-name="Path 102826" d="M1910.731,4776.407s6.889,1.868,6.052,3.01-27.128,1.547-38.74.711l.029-.516,30.669-.208S1909.391,4776.485,1910.731,4776.407Z" transform="translate(-1878.043 -4776.407)" fill="#fff"/>
                </g>
              </g>
            </g>
            <g id="Group_59063" data-name="Group 59063" transform="translate(0 17.249)">
              <g id="Group_59062" data-name="Group 59062">
                <g id="Group_59061" data-name="Group 59061">
                  <g id="Group_59060" data-name="Group 59060">
                    <path id="Path_102827" data-name="Path 102827" d="M1877.835,4778.624a2.118,2.118,0,0,0,.4.038c.341.014.716.03,1.137.051,1.138.029,2.538.069,4.188.115,3.538.073,8.425.107,13.822.029s10.284-.257,13.818-.435c1.649-.093,3.047-.175,4.182-.238.422-.032.8-.059,1.137-.084a1.916,1.916,0,0,0,.395-.049,2.053,2.053,0,0,0-.4-.008l-1.138.033c-1.137.039-2.535.091-4.185.148-3.535.126-8.417.274-13.813.354s-10.279.073-13.816.052l-4.188-.028c-.422,0-.8,0-1.14,0A2.368,2.368,0,0,0,1877.835,4778.624Z" transform="translate(-1877.835 -4778.042)" fill="#344154"/>
                  </g>
                </g>
              </g>
            </g>
            <g id="Group_59067" data-name="Group 59067" transform="translate(30.986 14.346)">
              <g id="Group_59066" data-name="Group 59066">
                <g id="Group_59065" data-name="Group 59065">
                  <g id="Group_59064" data-name="Group 59064">
                    <path id="Path_102828" data-name="Path 102828" d="M1897.235,4779.869a6.079,6.079,0,0,1,2.153-3.633,3.718,3.718,0,0,0-2.153,3.633Z" transform="translate(-1897.19 -4776.229)" fill="#344154"/>
                  </g>
                </g>
              </g>
            </g>
            <g id="Group_59071" data-name="Group 59071" transform="translate(24.171 12.706)">
              <g id="Group_59070" data-name="Group 59070">
                <g id="Group_59069" data-name="Group 59069">
                  <g id="Group_59068" data-name="Group 59068">
                    <path id="Path_102829" data-name="Path 102829" d="M1892.945,4777.143c.065.042.386-.36.712-.9s.541-1,.475-1.04-.384.362-.712.9S1892.879,4777.1,1892.945,4777.143Z" transform="translate(-1892.933 -4775.204)" fill="#344154"/>
                  </g>
                </g>
              </g>
            </g>
            <g id="Group_59075" data-name="Group 59075" transform="translate(22.298 12.366)">
              <g id="Group_59074" data-name="Group 59074">
                <g id="Group_59073" data-name="Group 59073">
                  <g id="Group_59072" data-name="Group 59072">
                    <path id="Path_102830" data-name="Path 102830" d="M1891.769,4776.312c.053.057.413-.191.8-.553s.666-.7.613-.76-.412.192-.8.556S1891.718,4776.256,1891.769,4776.312Z" transform="translate(-1891.763 -4774.991)" fill="#344154"/>
                  </g>
                </g>
              </g>
            </g>
            <g id="Group_59079" data-name="Group 59079" transform="translate(21.092 11.387)">
              <g id="Group_59078" data-name="Group 59078">
                <g id="Group_59077" data-name="Group 59077">
                  <g id="Group_59076" data-name="Group 59076">
                    <path id="Path_102831" data-name="Path 102831" d="M1891.01,4774.525a5.189,5.189,0,0,0,2.406-.009,5.3,5.3,0,0,0-2.406.009Z" transform="translate(-1891.01 -4774.382)" fill="#344154"/>
                  </g>
                </g>
              </g>
            </g>
            <g id="Group_59083" data-name="Group 59083" transform="translate(20.664 9.981)">
              <g id="Group_59082" data-name="Group 59082">
                <g id="Group_59081" data-name="Group 59081">
                  <g id="Group_59080" data-name="Group 59080">
                    <path id="Path_102832" data-name="Path 102832" d="M1890.743,4773.526a3.375,3.375,0,0,0,2.728.163,7.328,7.328,0,0,0-1.366-.071A7.454,7.454,0,0,0,1890.743,4773.526Z" transform="translate(-1890.742 -4773.502)" fill="#344154"/>
                  </g>
                </g>
              </g>
            </g>
            <g id="Group_59087" data-name="Group 59087" transform="translate(24.934 10.508)">
              <g id="Group_59086" data-name="Group 59086">
                <g id="Group_59085" data-name="Group 59085">
                  <g id="Group_59084" data-name="Group 59084">
                    <path id="Path_102833" data-name="Path 102833" d="M1893.41,4775.946a4.313,4.313,0,0,0,1.478-.033,8.475,8.475,0,0,0,1.571-.37,4.32,4.32,0,0,0,.9-.386.79.79,0,0,0,.358-.465.579.579,0,0,0-.233-.587,2.711,2.711,0,0,0-3.343.844,2.643,2.643,0,0,0-.467,1c-.056.254-.05.4-.032.4a4.141,4.141,0,0,1,.653-1.271,2.684,2.684,0,0,1,1.252-.841,2.286,2.286,0,0,1,1.765.093c.237.17.151.448-.109.608a4.356,4.356,0,0,1-.825.367,10.317,10.317,0,0,1-1.517.42C1893.973,4775.892,1893.408,4775.9,1893.41,4775.946Z" transform="translate(-1893.41 -4773.832)" fill="#344154"/>
                  </g>
                </g>
              </g>
            </g>
            <g id="Group_59091" data-name="Group 59091" transform="translate(23.352 9.848)">
              <g id="Group_59090" data-name="Group 59090">
                <g id="Group_59089" data-name="Group 59089">
                  <g id="Group_59088" data-name="Group 59088">
                    <path id="Path_102834" data-name="Path 102834" d="M1894.388,4776.26a1.458,1.458,0,0,0,.155-1.029,2.431,2.431,0,0,0-.421-1.075,1.488,1.488,0,0,0-1.245-.734.59.59,0,0,0-.445.689,1.613,1.613,0,0,0,.261.657,4.5,4.5,0,0,0,.714.885,2.153,2.153,0,0,0,.855.587c.026-.037-.3-.261-.714-.723a5.142,5.142,0,0,1-.632-.879c-.209-.31-.356-.869.014-.942.37-.041.752.321.984.615a2.428,2.428,0,0,1,.433.956A5.41,5.41,0,0,1,1894.388,4776.26Z" transform="translate(-1892.421 -4773.42)" fill="#344154"/>
                  </g>
                </g>
              </g>
            </g>
            <g id="Group_59095" data-name="Group 59095" transform="translate(0.373 11.349)">
              <g id="Group_59094" data-name="Group 59094">
                <g id="Group_59093" data-name="Group 59093">
                  <g id="Group_59092" data-name="Group 59092">
                    <path id="Path_102835" data-name="Path 102835" d="M1878.068,4774.53c.006.051.658-.073,1.7.034a7.211,7.211,0,0,1,6.1,4.714c.366.982.411,1.645.462,1.637a1.321,1.321,0,0,0-.006-.466,6.032,6.032,0,0,0-.271-1.237,7,7,0,0,0-6.273-4.846,6.279,6.279,0,0,0-1.267.051A1.322,1.322,0,0,0,1878.068,4774.53Z" transform="translate(-1878.068 -4774.357)" fill="#344154"/>
                  </g>
                </g>
              </g>
            </g>
            <g id="Group_59099" data-name="Group 59099" transform="translate(2.485 1.903)">
              <g id="Group_59098" data-name="Group 59098">
                <g id="Group_59097" data-name="Group 59097">
                  <g id="Group_59096" data-name="Group 59096">
                    <path id="Path_102836" data-name="Path 102836" d="M1879.514,4768.457a80.47,80.47,0,0,0,.026,9.465,80.536,80.536,0,0,0-.026-9.465Z" transform="translate(-1879.387 -4768.457)" fill="#344154"/>
                  </g>
                </g>
              </g>
            </g>
            <g id="Group_59103" data-name="Group 59103" transform="translate(11.543 15.682)">
              <g id="Group_59102" data-name="Group 59102">
                <g id="Group_59101" data-name="Group 59101">
                  <g id="Group_59100" data-name="Group 59100">
                    <path id="Path_102837" data-name="Path 102837" d="M1885.045,4777.132a18.821,18.821,0,0,0,6.729-.04c-.01-.082-1.511.033-3.365.042S1885.053,4777.05,1885.045,4777.132Z" transform="translate(-1885.045 -4777.063)" fill="#344154"/>
                  </g>
                </g>
              </g>
            </g>
            <g id="Group_59107" data-name="Group 59107" transform="translate(7.019 15.804)">
              <g id="Group_59106" data-name="Group 59106">
                <g id="Group_59105" data-name="Group 59105">
                  <g id="Group_59104" data-name="Group 59104">
                    <path id="Path_102838" data-name="Path 102838" d="M1882.229,4777.149c-.055.056.129.317.287.659s.247.646.327.642.112-.366-.074-.761S1882.278,4777.093,1882.229,4777.149Z" transform="translate(-1882.219 -4777.14)" fill="#344154"/>
                  </g>
                </g>
              </g>
            </g>
            <g id="Group_59111" data-name="Group 59111" transform="translate(5.285 13.711)">
              <g id="Group_59110" data-name="Group 59110">
                <g id="Group_59109" data-name="Group 59109">
                  <g id="Group_59108" data-name="Group 59108">
                    <path id="Path_102839" data-name="Path 102839" d="M1881.147,4775.843c-.054.055.1.294.34.53s.482.387.536.332-.1-.292-.339-.529S1881.2,4775.791,1881.147,4775.843Z" transform="translate(-1881.136 -4775.832)" fill="#344154"/>
                  </g>
                </g>
              </g>
            </g>
            <g id="Group_59115" data-name="Group 59115" transform="translate(2.845 12.655)">
              <g id="Group_59114" data-name="Group 59114">
                <g id="Group_59113" data-name="Group 59113">
                  <g id="Group_59112" data-name="Group 59112">
                    <path id="Path_102840" data-name="Path 102840" d="M1879.613,4775.31c.018.078.323.071.664.184s.586.292.645.237-.137-.37-.56-.5S1879.589,4775.241,1879.613,4775.31Z" transform="translate(-1879.612 -4775.173)" fill="#344154"/>
                  </g>
                </g>
              </g>
            </g>
            <g id="Group_59119" data-name="Group 59119" transform="translate(1.104 12.308)">
              <g id="Group_59118" data-name="Group 59118">
                <g id="Group_59117" data-name="Group 59117">
                  <g id="Group_59116" data-name="Group 59116">
                    <path id="Path_102841" data-name="Path 102841" d="M1878.528,4775.011c-.028.072.107.188.3.259s.37.069.4,0-.107-.188-.3-.262S1878.555,4774.938,1878.528,4775.011Z" transform="translate(-1878.525 -4774.955)" fill="#344154"/>
                  </g>
                </g>
              </g>
            </g>
          </g>
        </g>
        <g id="Group_59193" data-name="Group 59193" transform="translate(0 440.759)">
          <g id="Group_59192" data-name="Group 59192">
            <g id="Group_59128" data-name="Group 59128">
              <g id="Group_59124" data-name="Group 59124">
                <g id="Group_59123" data-name="Group 59123">
                  <g id="Group_59122" data-name="Group 59122">
                    <path id="Path_102842" data-name="Path 102842" d="M1849.763,4781.586l7.807-9.5-17.7-14.741-11.57,13.774,1.039.983c4.656,4.339,23.984,21.731,28.073,23.459C1861.978,4797.494,1849.763,4781.586,1849.763,4781.586Z" transform="translate(-1828.305 -4757.35)" fill="#d9a171"/>
                  </g>
                </g>
              </g>
              <g id="Group_59127" data-name="Group 59127" transform="translate(0.229 8.594)" opacity="0.5">
                <g id="Group_59126" data-name="Group 59126">
                  <g id="Group_59125" data-name="Group 59125">
                    <path id="Path_102843" data-name="Path 102843" d="M1834.751,4773.1a7.994,7.994,0,0,0,.885-5.655,7.766,7.766,0,0,0-3.066-4.731l-4.123,4.942Z" transform="translate(-1828.448 -4762.718)" fill="#fff"/>
                  </g>
                </g>
              </g>
            </g>
            <g id="Group_59131" data-name="Group 59131" transform="translate(0 13.401)" opacity="0.4">
              <g id="Group_59130" data-name="Group 59130">
                <g id="Group_59129" data-name="Group 59129">
                  <path id="Path_102844" data-name="Path 102844" d="M1855.514,4784.591s4,5.91,2.622,6.229-21.573-16.52-29.831-24.724l.358-.374,23.386,19.844S1854.447,4783.777,1855.514,4784.591Z" transform="translate(-1828.305 -4765.722)" fill="#fff"/>
                </g>
              </g>
            </g>
            <g id="Group_59135" data-name="Group 59135" transform="translate(0.089 13.158)">
              <g id="Group_59134" data-name="Group 59134">
                <g id="Group_59133" data-name="Group 59133">
                  <g id="Group_59132" data-name="Group 59132">
                    <path id="Path_102845" data-name="Path 102845" d="M1828.361,4765.57a2.252,2.252,0,0,0,.277.288c.248.233.52.492.829.778q1.263,1.151,3.1,2.82c2.633,2.363,6.315,5.578,10.457,9.039s7.964,6.51,10.758,8.683q1.967,1.506,3.325,2.548c.341.25.642.473.917.676a2.651,2.651,0,0,0,.33.22,2.056,2.056,0,0,0-.3-.266l-.883-.719q-1.334-1.067-3.271-2.615c-2.76-2.21-6.557-5.283-10.7-8.74s-7.839-6.65-10.507-8.974q-1.865-1.624-3.156-2.752c-.32-.272-.605-.517-.865-.739A2.162,2.162,0,0,0,1828.361,4765.57Z" transform="translate(-1828.361 -4765.569)" fill="#344154"/>
                  </g>
                </g>
              </g>
            </g>
            <g id="Group_59139" data-name="Group 59139" transform="translate(23.506 32.001)">
              <g id="Group_59138" data-name="Group 59138">
                <g id="Group_59137" data-name="Group 59137">
                  <g id="Group_59136" data-name="Group 59136">
                    <path id="Path_102846" data-name="Path 102846" d="M1842.992,4778.855a6.086,6.086,0,0,1,4-1.352,3.729,3.729,0,0,0-4,1.352Z" transform="translate(-1842.988 -4777.34)" fill="#344154"/>
                  </g>
                </g>
              </g>
            </g>
            <g id="Group_59143" data-name="Group 59143" transform="translate(20.5 25.798)">
              <g id="Group_59142" data-name="Group 59142">
                <g id="Group_59141" data-name="Group 59141">
                  <g id="Group_59140" data-name="Group 59140">
                    <path id="Path_102847" data-name="Path 102847" d="M1841.111,4774.182c.023.076.527-.023,1.123-.213s1.063-.406,1.039-.48a2.466,2.466,0,0,0-1.124.215C1841.551,4773.895,1841.087,4774.109,1841.111,4774.182Z" transform="translate(-1841.11 -4773.465)" fill="#344154"/>
                  </g>
                </g>
              </g>
            </g>
            <g id="Group_59147" data-name="Group 59147" transform="translate(19.699 24.385)">
              <g id="Group_59146" data-name="Group 59146">
                <g id="Group_59145" data-name="Group 59145">
                  <g id="Group_59144" data-name="Group 59144">
                    <path id="Path_102848" data-name="Path 102848" d="M1840.61,4772.76c0,.079.439.125.972.1s.962-.1.959-.173-.437-.123-.97-.1S1840.609,4772.685,1840.61,4772.76Z" transform="translate(-1840.61 -4772.582)" fill="#344154"/>
                  </g>
                </g>
              </g>
            </g>
            <g id="Group_59151" data-name="Group 59151" transform="translate(20.182 22.133)">
              <g id="Group_59150" data-name="Group 59150">
                <g id="Group_59149" data-name="Group 59149">
                  <g id="Group_59148" data-name="Group 59148">
                    <path id="Path_102849" data-name="Path 102849" d="M1840.917,4771.182c-.051.06.319.457.825.888s.955.733,1.005.675-.318-.455-.825-.887S1840.967,4771.125,1840.917,4771.182Z" transform="translate(-1840.912 -4771.175)" fill="#344154"/>
                  </g>
                </g>
              </g>
            </g>
            <g id="Group_59155" data-name="Group 59155" transform="translate(20.849 20.701)">
              <g id="Group_59154" data-name="Group 59154">
                <g id="Group_59153" data-name="Group 59153">
                  <g id="Group_59152" data-name="Group 59152">
                    <path id="Path_102850" data-name="Path 102850" d="M1841.337,4770.285a2.351,2.351,0,0,0,.78,1.157,2.319,2.319,0,0,0,1.182.745c.04-.068-.456-.423-.988-.944S1841.4,4770.241,1841.337,4770.285Z" transform="translate(-1841.328 -4770.282)" fill="#344154"/>
                  </g>
                </g>
              </g>
            </g>
            <g id="Group_59159" data-name="Group 59159" transform="translate(22.299 25.124)">
              <g id="Group_59158" data-name="Group 59158">
                <g id="Group_59157" data-name="Group 59157">
                  <g id="Group_59156" data-name="Group 59156">
                    <path id="Path_102851" data-name="Path 102851" d="M1842.322,4773.4a4.358,4.358,0,0,0,1.143.94,8.866,8.866,0,0,0,1.431.741,4.395,4.395,0,0,0,.932.292.793.793,0,0,0,.574-.118.585.585,0,0,0,.207-.6,2.711,2.711,0,0,0-3.086-1.538,2.625,2.625,0,0,0-1,.449c-.206.158-.3.272-.285.281a4.254,4.254,0,0,1,1.325-.535,2.663,2.663,0,0,1,1.5.177,2.292,2.292,0,0,1,1.277,1.221c.07.286-.178.438-.479.391a4.358,4.358,0,0,1-.866-.259,10.222,10.222,0,0,1-1.425-.672C1842.784,4773.719,1842.351,4773.357,1842.322,4773.4Z" transform="translate(-1842.234 -4773.045)" fill="#344154"/>
                  </g>
                </g>
              </g>
            </g>
            <g id="Group_59163" data-name="Group 59163" transform="translate(22.267 22.563)">
              <g id="Group_59162" data-name="Group 59162">
                <g id="Group_59161" data-name="Group 59161">
                  <g id="Group_59160" data-name="Group 59160">
                    <path id="Path_102852" data-name="Path 102852" d="M1842.581,4774.658c.005.025.415-.126.79-.682a2.427,2.427,0,0,0,.381-1.088,1.48,1.48,0,0,0-.463-1.366.585.585,0,0,0-.787.23,1.606,1.606,0,0,0-.231.669,4.5,4.5,0,0,0-.037,1.135,2.109,2.109,0,0,0,.268,1c.042-.011-.058-.393-.071-1.015a5.167,5.167,0,0,1,.093-1.077c.045-.369.3-.891.625-.706a1.321,1.321,0,0,1,.346,1.107,2.4,2.4,0,0,1-.294,1.007A5.628,5.628,0,0,1,1842.581,4774.658Z" transform="translate(-1842.214 -4771.445)" fill="#344154"/>
                  </g>
                </g>
              </g>
            </g>
            <g id="Group_59167" data-name="Group 59167" transform="translate(4.485 8.619)">
              <g id="Group_59166" data-name="Group 59166">
                <g id="Group_59165" data-name="Group 59165">
                  <g id="Group_59164" data-name="Group 59164">
                    <path id="Path_102853" data-name="Path 102853" d="M1831.107,4762.736c-.029.044.547.375,1.268,1.134a7.212,7.212,0,0,1,1.553,7.557c-.362.982-.76,1.515-.717,1.541.014.012.126-.11.3-.356a6.2,6.2,0,0,0,.6-1.114,7,7,0,0,0-1.6-7.766,6.035,6.035,0,0,0-.995-.786A1.3,1.3,0,0,0,1831.107,4762.736Z" transform="translate(-1831.106 -4762.734)" fill="#344154"/>
                  </g>
                </g>
              </g>
            </g>
            <g id="Group_59171" data-name="Group 59171" transform="translate(6.301 2.789)">
              <g id="Group_59170" data-name="Group 59170">
                <g id="Group_59169" data-name="Group 59169">
                  <g id="Group_59168" data-name="Group 59168">
                    <path id="Path_102854" data-name="Path 102854" d="M1838.4,4759.094a39.845,39.845,0,0,0-3.182,3.5,40.827,40.827,0,0,0-2.972,3.687,80.5,80.5,0,0,0,6.154-7.19Z" transform="translate(-1832.241 -4759.093)" fill="#344154"/>
                  </g>
                </g>
              </g>
            </g>
            <g id="Group_59175" data-name="Group 59175" transform="translate(10.194 19.107)">
              <g id="Group_59174" data-name="Group 59174">
                <g id="Group_59173" data-name="Group 59173">
                  <g id="Group_59172" data-name="Group 59172">
                    <path id="Path_102855" data-name="Path 102855" d="M1834.675,4769.288a18.816,18.816,0,0,0,5.127,4.36c.045-.067-1.169-.958-2.579-2.162S1834.732,4769.233,1834.675,4769.288Z" transform="translate(-1834.673 -4769.286)" fill="#344154"/>
                  </g>
                </g>
              </g>
            </g>
            <g id="Group_59179" data-name="Group 59179" transform="translate(6.334 16.214)">
              <g id="Group_59178" data-name="Group 59178">
                <g id="Group_59177" data-name="Group 59177">
                  <g id="Group_59176" data-name="Group 59176">
                    <path id="Path_102856" data-name="Path 102856" d="M1832.661,4767.478c-.079.008-.109.325-.213.688s-.233.649-.17.7.325-.205.439-.624S1832.734,4767.468,1832.661,4767.478Z" transform="translate(-1832.262 -4767.478)" fill="#344154"/>
                  </g>
                </g>
              </g>
            </g>
            <g id="Group_59183" data-name="Group 59183" transform="translate(6.686 13.499)">
              <g id="Group_59182" data-name="Group 59182">
                <g id="Group_59181" data-name="Group 59181">
                  <g id="Group_59180" data-name="Group 59180">
                    <path id="Path_102857" data-name="Path 102857" d="M1832.578,4765.782c-.077.008-.117.286-.088.625s.113.6.19.6.117-.285.088-.625S1832.655,4765.775,1832.578,4765.782Z" transform="translate(-1832.481 -4765.782)" fill="#344154"/>
                  </g>
                </g>
              </g>
            </g>
            <g id="Group_59187" data-name="Group 59187" transform="translate(5.529 11.178)">
              <g id="Group_59186" data-name="Group 59186">
                <g id="Group_59185" data-name="Group 59185">
                  <g id="Group_59184" data-name="Group 59184">
                    <path id="Path_102858" data-name="Path 102858" d="M1831.762,4764.352c-.037.072.2.265.382.574s.256.6.336.6.135-.368-.1-.749S1831.791,4764.282,1831.762,4764.352Z" transform="translate(-1831.759 -4764.333)" fill="#344154"/>
                  </g>
                </g>
              </g>
            </g>
            <g id="Group_59191" data-name="Group 59191" transform="translate(4.458 9.73)">
              <g id="Group_59190" data-name="Group 59190">
                <g id="Group_59189" data-name="Group 59189">
                  <g id="Group_59188" data-name="Group 59188">
                    <path id="Path_102859" data-name="Path 102859" d="M1831.127,4763.435c-.067.037-.042.212.058.392s.234.294.3.257.042-.212-.058-.392S1831.194,4763.4,1831.127,4763.435Z" transform="translate(-1831.089 -4763.428)" fill="#344154"/>
                  </g>
                </g>
              </g>
            </g>
          </g>
        </g>
        <g id="Group_59206" data-name="Group 59206" transform="translate(1.937 194.534)">
          <g id="Group_59194" data-name="Group 59194" transform="translate(0 11.789)">
            <path id="Path_102860" data-name="Path 102860" d="M1896.954,4612.346s-7.665,32.438-5.5,38.856,16.216,10.127,16.216,10.127l-.476,88.827-77.681,96.021,28.687,23.47s84.094-96.2,91.507-113.621-4.725-145.118-4.725-145.118Z" transform="translate(-1829.516 -4610.909)" fill="#344154"/>
          </g>
          <g id="Group_59195" data-name="Group 59195" transform="translate(42.213)">
            <path id="Path_102861" data-name="Path 102861" d="M1920.787,4603.545l3.8,269.792-39.52.2-19.832-219.729h0c-4.193-4-10.089-10.855-9.277-26.139l.964-17.755Z" transform="translate(-1855.884 -4603.545)" fill="#344154"/>
          </g>
          <g id="Group_59197" data-name="Group 59197" transform="translate(65.446 54.603)">
            <g id="Group_59196" data-name="Group 59196">
              <path id="Path_102862" data-name="Path 102862" d="M1870.4,4749.106a1.54,1.54,0,0,1,.227-.4c.2-.3.451-.664.75-1.105l2.937-4.157c2.626-3.635,6.3-8.721,10.722-14.841l-.067.2c-.86-9.363-1.9-20.72-3.029-32.965-1.433-16.045-2.6-30.583-3.279-41.12-.349-5.266-.579-9.534-.706-12.481-.048-1.413-.087-2.54-.115-3.4a6.329,6.329,0,0,1,.016-1.187,6.259,6.259,0,0,1,.151,1.178c.068.854.16,1.98.274,3.386.235,3.036.565,7.27.968,12.462.834,10.519,2.089,25.046,3.522,41.09,1.077,12.286,2.175,23.625,2.885,33.035l.008.106-.075.1c-4.519,6.052-8.274,11.078-10.957,14.668l-3.088,4.046c-.333.418-.605.761-.832,1.047C1870.519,4749,1870.413,4749.116,1870.4,4749.106Z" transform="translate(-1870.397 -4637.653)" fill="#5e6178"/>
            </g>
          </g>
          <g id="Group_59199" data-name="Group 59199" transform="translate(56.908 50.229)">
            <g id="Group_59198" data-name="Group 59198">
              <path id="Path_102863" data-name="Path 102863" d="M1885.733,4639.294c-.035.222-4.744-.351-10.463-1.556s-10.263-2.565-10.206-2.784,4.676.775,10.377,1.967S1885.772,4639.062,1885.733,4639.294Z" transform="translate(-1865.064 -4634.921)" fill="#5e6178"/>
            </g>
          </g>
          <g id="Group_59201" data-name="Group 59201" transform="translate(82.994 143.03)">
            <g id="Group_59200" data-name="Group 59200">
              <path id="Path_102864" data-name="Path 102864" d="M1903.01,4696.575c-.106.254-4.538-2.338-10.671-2.78-6.13-.528-10.915,1.333-10.979,1.064a9.048,9.048,0,0,1,3.08-1.206,24.259,24.259,0,0,1,15.719,1.247A8.953,8.953,0,0,1,1903.01,4696.575Z" transform="translate(-1881.358 -4692.89)" fill="#5e6178"/>
            </g>
          </g>
          <g id="Group_59203" data-name="Group 59203" transform="translate(68.264 159.217)">
            <g id="Group_59202" data-name="Group 59202">
              <path id="Path_102865" data-name="Path 102865" d="M1922.477,4703c.182.139-10.934,15.06-24.826,33.319s-25.309,32.958-25.491,32.821,10.93-15.059,24.827-33.324S1922.293,4702.863,1922.477,4703Z" transform="translate(-1872.158 -4703.001)" fill="#5e6178"/>
            </g>
          </g>
          <g id="Group_59205" data-name="Group 59205" transform="translate(93.324 17.942)">
            <g id="Group_59204" data-name="Group 59204">
              <path id="Path_102866" data-name="Path 102866" d="M1907.718,4616.852a6.608,6.608,0,0,1-2.223,2.934,11,11,0,0,1-16.109-1.7,6.623,6.623,0,0,1-1.562-3.333,34.863,34.863,0,0,0,2.021,2.961,10.976,10.976,0,0,0,15.278,1.611A34.752,34.752,0,0,0,1907.718,4616.852Z" transform="translate(-1887.811 -4614.752)" fill="#5e6178"/>
            </g>
          </g>
        </g>
        <g id="Group_59207" data-name="Group 59207" transform="translate(50.441 27.701)">
          <path id="Path_102867" data-name="Path 102867" d="M1870.545,4547.4a34.463,34.463,0,0,1-1.87-48.063" transform="translate(-1859.813 -4499.332)" fill="#344154"/>
        </g>
        <g id="Group_59237" data-name="Group 59237" transform="translate(28.613 82.699)">
          <g id="Group_59218" data-name="Group 59218">
            <g id="Group_59208" data-name="Group 59208" transform="translate(0 18.233)">
              <path id="Path_102868" data-name="Path 102868" d="M1856.543,4545.076s-8.585,9.7-10.364,46.792c0,0,24.451,4.639,24.9,3.3S1856.543,4545.076,1856.543,4545.076Z" transform="translate(-1846.179 -4545.076)" fill="#d9a171"/>
            </g>
            <g id="Group_59209" data-name="Group 59209" transform="translate(0 18.233)" opacity="0.3">
              <path id="Path_102869" data-name="Path 102869" d="M1856.543,4545.076s-8.585,9.7-10.364,46.792c0,0,24.451,4.639,24.9,3.3S1856.543,4545.076,1856.543,4545.076Z" transform="translate(-1846.179 -4545.076)" fill="#d9a171"/>
            </g>
            <g id="Group_59215" data-name="Group 59215" transform="translate(7.679)">
              <g id="Group_59214" data-name="Group 59214">
                <g id="Group_59213" data-name="Group 59213">
                  <g id="Group_59210" data-name="Group 59210" transform="translate(9.598 65.027)">
                    <path id="Path_102870" data-name="Path 102870" d="M1856.971,4574.306" transform="translate(-1856.971 -4574.306)" fill="#5e6178"/>
                  </g>
                  <g id="Group_59211" data-name="Group 59211">
                    <path id="Path_102871" data-name="Path 102871" d="M1857.621,4659.953h75.063l-1.212-11.725s-8.578-44.611-8.515-45.2l1.351-2.839a28.3,28.3,0,0,0,.329-23.608h0l36.755-12.568-9-30.329c-16.678,2.817-41.889,5.958-41.889,5.958l-3.754.315s-26.024,1.357-26.58,1.424c-10.888,1.316-23.554,2.15-28.183,13.8-2.475,6.231-.123,15.583,3.917,25.224l9.623,29.611c3.842,16.275-2.289,15.5-5.654,31.884C1859.365,4644.382,1857.572,4657.679,1857.621,4659.953Z" transform="translate(-1850.975 -4533.684)" fill="#d9a171"/>
                  </g>
                  <g id="Group_59212" data-name="Group 59212" opacity="0.3">
                    <path id="Path_102872" data-name="Path 102872" d="M1857.621,4659.953h75.063l-1.212-11.725s-8.578-44.611-8.515-45.2l1.351-2.839a28.3,28.3,0,0,0,.329-23.608h0l36.755-12.568-9-30.329c-16.678,2.817-41.889,5.958-41.889,5.958l-3.754.315s-26.024,1.357-26.58,1.424c-10.888,1.316-23.554,2.15-28.183,13.8-2.475,6.231-.123,15.583,3.917,25.224l9.623,29.611c3.842,16.275-2.289,15.5-5.654,31.884C1859.365,4644.382,1857.572,4657.679,1857.621,4659.953Z" transform="translate(-1850.975 -4533.684)" fill="#d9a171"/>
                  </g>
                </g>
              </g>
            </g>
            <g id="Group_59217" data-name="Group 59217" transform="translate(75.553 30.807)">
              <g id="Group_59216" data-name="Group 59216">
                <path id="Path_102873" data-name="Path 102873" d="M1935.572,4552.942a7.28,7.28,0,0,1-1.631.686c-1.067.391-2.617.928-4.54,1.574-3.844,1.3-9.179,3.02-15.071,4.9s-11.16,3.755-14.9,5.3c-1.876.756-3.369,1.434-4.411,1.878a7.422,7.422,0,0,1-1.646.646,7.28,7.28,0,0,1,1.5-.937c1-.537,2.463-1.3,4.322-2.129a142.231,142.231,0,0,1,14.876-5.553c5.9-1.888,11.259-3.515,15.15-4.67,1.945-.578,3.523-1.029,4.62-1.323A7.248,7.248,0,0,1,1935.572,4552.942Z" transform="translate(-1893.373 -4552.93)" fill="#344154"/>
              </g>
            </g>
          </g>
          <g id="Group_59220" data-name="Group 59220" transform="translate(14.258 14.256)">
            <g id="Group_59219" data-name="Group 59219">
              <path id="Path_102874" data-name="Path 102874" d="M1954.216,4543.009c0,.228-22.193.415-49.563.415s-49.568-.187-49.568-.415,22.188-.417,49.568-.417S1954.216,4542.776,1954.216,4543.009Z" transform="translate(-1855.085 -4542.592)" fill="#fafafa"/>
            </g>
          </g>
          <g id="Group_59222" data-name="Group 59222" transform="translate(5.361 28.998)">
            <g id="Group_59221" data-name="Group 59221">
              <path id="Path_102875" data-name="Path 102875" d="M1959.844,4552.217c0,.23-24.7.416-55.155.416s-55.161-.186-55.161-.416,24.693-.417,55.161-.417S1959.844,4551.988,1959.844,4552.217Z" transform="translate(-1849.527 -4551.8)" fill="#fafafa"/>
            </g>
          </g>
          <g id="Group_59224" data-name="Group 59224" transform="translate(2.312 45.774)">
            <g id="Group_59223" data-name="Group 59223">
              <path id="Path_102876" data-name="Path 102876" d="M1856.815,4562.695c0,.232-2.057.419-4.6.419s-4.6-.187-4.6-.419,2.057-.417,4.6-.417S1856.815,4562.466,1856.815,4562.695Z" transform="translate(-1847.623 -4562.278)" fill="#fafafa"/>
            </g>
          </g>
          <g id="Group_59226" data-name="Group 59226" transform="translate(11.504 46.282)">
            <g id="Group_59225" data-name="Group 59225">
              <path id="Path_102877" data-name="Path 102877" d="M1925.51,4563.015c0,.23-16.151.416-36.071.416s-36.074-.186-36.074-.416,16.148-.417,36.074-.417S1925.51,4562.784,1925.51,4563.015Z" transform="translate(-1853.365 -4562.598)" fill="#fafafa"/>
            </g>
          </g>
          <g id="Group_59228" data-name="Group 59228" transform="translate(17.309 63.566)">
            <g id="Group_59227" data-name="Group 59227">
              <path id="Path_102878" data-name="Path 102878" d="M1921.742,4573.81c0,.23-14.5.417-32.375.417s-32.376-.187-32.376-.417,14.493-.417,32.376-.417S1921.742,4573.582,1921.742,4573.81Z" transform="translate(-1856.991 -4573.393)" fill="#fafafa"/>
            </g>
          </g>
          <g id="Group_59230" data-name="Group 59230" transform="translate(22.901 79.58)">
            <g id="Group_59229" data-name="Group 59229">
              <path id="Path_102879" data-name="Path 102879" d="M1919.174,4583.812c0,.232-13.14.418-29.344.418s-29.346-.186-29.346-.418,13.135-.416,29.346-.416S1919.174,4583.583,1919.174,4583.812Z" transform="translate(-1860.484 -4583.396)" fill="#fafafa"/>
            </g>
          </g>
          <g id="Group_59232" data-name="Group 59232" transform="translate(21.375 92.543)">
            <g id="Group_59231" data-name="Group 59231">
              <path id="Path_102880" data-name="Path 102880" d="M1922.315,4591.91c0,.229-14.056.417-31.39.417s-31.393-.187-31.393-.417,14.053-.417,31.393-.417S1922.315,4591.681,1922.315,4591.91Z" transform="translate(-1859.531 -4591.494)" fill="#fafafa"/>
            </g>
          </g>
          <g id="Group_59234" data-name="Group 59234" transform="translate(16.8 109.065)">
            <g id="Group_59233" data-name="Group 59233">
              <path id="Path_102881" data-name="Path 102881" d="M1928.1,4602.231c0,.23-15.99.416-35.711.416s-35.714-.186-35.714-.416,15.987-.417,35.714-.417S1928.1,4602,1928.1,4602.231Z" transform="translate(-1856.673 -4601.814)" fill="#fafafa"/>
            </g>
          </g>
          <g id="Group_59236" data-name="Group 59236" transform="translate(8.508 36.183)">
            <g id="Group_59235" data-name="Group 59235">
              <path id="Path_102882" data-name="Path 102882" d="M1864.767,4595.054a6.1,6.1,0,0,1-.663-1.475q-.661-1.715-1.579-4.1c-1.321-3.463-3.181-8.235-5.115-13.556s-3.538-10.2-4.547-13.778c-.5-1.79-.879-3.246-1.093-4.263a6,6,0,0,1-.262-1.6,58.942,58.942,0,0,1,1.919,5.686c1.149,3.521,2.827,8.354,4.768,13.667s3.7,10.12,4.884,13.642c.594,1.76,1.046,3.193,1.332,4.191A6.167,6.167,0,0,1,1864.767,4595.054Z" transform="translate(-1851.493 -4556.289)" fill="#344154"/>
            </g>
          </g>
        </g>
      </g>
    </g>
  </g>
</svg>
