<svg xmlns="http://www.w3.org/2000/svg" width="87" height="87" viewBox="0 0 87 87">
  <g id="Group_1111717" data-name="Group 1111717" transform="translate(-455.051 -11883)">
    <g id="Group_1111716" data-name="Group 1111716" transform="translate(414.48 11891)">
      <g id="Group_1111687" data-name="Group 1111687" transform="translate(62.531 5.539)">
        <path id="Path_900669" data-name="Path 900669" d="M121.2,39.825A21.777,21.777,0,1,0,142.98,61.6,21.778,21.778,0,0,0,121.2,39.825Zm0,39.059A17.281,17.281,0,1,1,138.484,61.6,17.3,17.3,0,0,1,121.2,78.884Z" transform="translate(-99.425 -39.825)" fill="#e278b1"/>
      </g>
      <g id="Group_1111688" data-name="Group 1111688" transform="translate(62.531 21.696)">
        <path id="Path_900670" data-name="Path 900670" d="M103.921,161.613a17.206,17.206,0,0,1,.939-5.62h-4.7a21.892,21.892,0,0,0,0,11.24h4.7A17.206,17.206,0,0,1,103.921,161.613Z" transform="translate(-99.425 -155.993)" fill="#dd5ca2"/>
      </g>
      <g id="Group_1111689" data-name="Group 1111689" transform="translate(78.689 5.539)">
        <path id="Path_900671" data-name="Path 900671" d="M215.593,40.559v4.7a17.288,17.288,0,0,1,11.24,0v-4.7a21.891,21.891,0,0,0-11.24,0Z" transform="translate(-215.593 -39.825)" fill="#dd5ca2"/>
      </g>
      <g id="Group_1111690" data-name="Group 1111690" transform="translate(100.651 21.696)">
        <path id="Path_900672" data-name="Path 900672" d="M374.438,161.613a17.206,17.206,0,0,1-.939,5.62h4.7a21.893,21.893,0,0,0,0-11.24h-4.7A17.207,17.207,0,0,1,374.438,161.613Z" transform="translate(-373.499 -155.993)" fill="#dd5ca2"/>
      </g>
      <g id="Group_1111691" data-name="Group 1111691" transform="translate(71.523 14.531)">
        <path id="Path_900673" data-name="Path 900673" d="M176.86,104.476a12.785,12.785,0,1,0,12.785,12.785A12.8,12.8,0,0,0,176.86,104.476Zm0,21.075a8.289,8.289,0,1,1,8.29-8.289A8.3,8.3,0,0,1,176.86,125.551Z" transform="translate(-164.075 -104.476)" fill="#ffe07d"/>
      </g>
      <g id="Group_1111692" data-name="Group 1111692" transform="translate(80.515 23.523)">
        <circle id="Ellipse_12802" data-name="Ellipse 12802" cx="3.793" cy="3.793" r="3.793" transform="translate(0)" fill="#e278b1"/>
      </g>
      <g id="Group_1111693" data-name="Group 1111693" transform="translate(82.061 1.043)">
        <path id="Path_900674" data-name="Path 900674" d="M242.928,20.988h-1.686a1.405,1.405,0,0,1-1.405-1.405V8.905A1.405,1.405,0,0,1,241.242,7.5h1.686a1.405,1.405,0,0,1,1.405,1.405V19.583A1.405,1.405,0,0,1,242.928,20.988Z" transform="translate(-239.837 -7.5)" fill="#c3247d"/>
      </g>
      <g id="Group_1111694" data-name="Group 1111694" transform="translate(58.035 25.068)">
        <path id="Path_900675" data-name="Path 900675" d="M80.588,181.642v1.686a1.405,1.405,0,0,1-1.405,1.405H68.505a1.405,1.405,0,0,1-1.405-1.405v-1.686a1.405,1.405,0,0,1,1.405-1.405H79.183A1.405,1.405,0,0,1,80.588,181.642Z" transform="translate(-67.1 -180.237)" fill="#c3247d"/>
      </g>
      <g id="Group_1111695" data-name="Group 1111695" transform="translate(97.094 25.068)">
        <path id="Path_900676" data-name="Path 900676" d="M347.926,183.328v-1.686a1.405,1.405,0,0,1,1.405-1.405h10.678a1.405,1.405,0,0,1,1.405,1.405v1.686a1.405,1.405,0,0,1-1.405,1.405H349.331A1.405,1.405,0,0,1,347.926,183.328Z" transform="translate(-347.926 -180.237)" fill="#c3247d"/>
      </g>
      <g id="Group_1111701" data-name="Group 1111701" transform="translate(90.21 44.036)">
        <g id="Group_1111696" data-name="Group 1111696" transform="translate(16.298 20.794)">
          <path id="Path_900677" data-name="Path 900677" d="M415.606,466.114h4.5v5.339h-4.5Z" transform="translate(-415.606 -466.114)" fill="#f1d0a5"/>
        </g>
        <g id="Group_1111697" data-name="Group 1111697" transform="translate(5.199)">
          <circle id="Ellipse_12803" data-name="Ellipse 12803" cx="5.198" cy="5.198" r="5.198" fill="#f1d0a5"/>
        </g>
        <g id="Group_1111698" data-name="Group 1111698" transform="translate(5.797 0.599)">
          <path id="Path_900678" data-name="Path 900678" d="M347.13,320.915a5.2,5.2,0,0,1-7.022,7.022,5.2,5.2,0,1,0,7.022-7.022Z" transform="translate(-340.108 -320.915)" fill="#f1b986"/>
        </g>
        <g id="Group_1111699" data-name="Group 1111699" transform="translate(0 10.397)">
          <path id="Path_900679" data-name="Path 900679" d="M313.6,391.362h-9.554a5.62,5.62,0,0,0-5.62,5.62v4.777h4.5V407.1h11.8v-5.339h4.5v-4.777A5.62,5.62,0,0,0,313.6,391.362Z" transform="translate(-298.426 -391.362)" fill="#a2f4c1"/>
        </g>
        <g id="Group_1111700" data-name="Group 1111700" transform="translate(0 10.397)">
          <path id="Path_900680" data-name="Path 900680" d="M306.014,407.1V394.172a8.667,8.667,0,0,0-.468-2.81h-1.5a5.62,5.62,0,0,0-5.62,5.62v4.777h4.5V407.1Z" transform="translate(-298.427 -391.362)" fill="#78d0b1"/>
        </g>
      </g>
      <g id="Group_1111707" data-name="Group 1111707" transform="translate(57.614 44.036)">
        <g id="Group_1111702" data-name="Group 1111702" transform="translate(0 20.794)">
          <path id="Path_900681" data-name="Path 900681" d="M0,0H4.5V5.339H0Z" transform="translate(4.496 5.339) rotate(180)" fill="#f1d0a5"/>
        </g>
        <g id="Group_1111703" data-name="Group 1111703" transform="translate(5.198)">
          <circle id="Ellipse_12804" data-name="Ellipse 12804" cx="5.198" cy="5.198" r="5.198" fill="#f1d0a5"/>
        </g>
        <g id="Group_1111704" data-name="Group 1111704" transform="translate(5.797 0.599)">
          <path id="Path_900682" data-name="Path 900682" d="M105.75,327.937a5.2,5.2,0,0,0,7.022-7.022,5.2,5.2,0,1,1-7.022,7.022Z" transform="translate(-105.75 -320.915)" fill="#f1b986"/>
        </g>
        <g id="Group_1111705" data-name="Group 1111705" transform="translate(0 10.397)">
          <path id="Path_900683" data-name="Path 900683" d="M69.689,391.362h9.554a5.62,5.62,0,0,1,5.62,5.62v4.777h-4.5V407.1h-11.8v-5.339h-4.5v-4.777A5.62,5.62,0,0,1,69.689,391.362Z" transform="translate(-64.069 -391.362)" fill="#ffe07d"/>
        </g>
        <g id="Group_1111706" data-name="Group 1111706" transform="translate(13.207 10.397)">
          <path id="Path_900684" data-name="Path 900684" d="M159.024,407.1V394.172a8.667,8.667,0,0,1,.468-2.81h1.5a5.62,5.62,0,0,1,5.62,5.62v4.777h-4.5V407.1Z" transform="translate(-159.024 -391.362)" fill="#ffd064"/>
        </g>
      </g>
      <g id="Group_1111714" data-name="Group 1111714" transform="translate(73.912 41.226)">
        <g id="Group_1111708" data-name="Group 1111708" transform="translate(16.298 20.794)">
          <path id="Path_900685" data-name="Path 900685" d="M298.427,445.911h4.5v8.149h-4.5Z" transform="translate(-298.427 -445.911)" fill="#f1d0a5"/>
        </g>
        <g id="Group_1111709" data-name="Group 1111709" transform="translate(0 20.794)">
          <path id="Path_900686" data-name="Path 900686" d="M0,0H4.5V8.149H0Z" transform="translate(4.496 8.149) rotate(180)" fill="#f1d0a5"/>
        </g>
        <g id="Group_1111710" data-name="Group 1111710" transform="translate(5.198)">
          <circle id="Ellipse_12805" data-name="Ellipse 12805" cx="5.198" cy="5.198" r="5.198" fill="#f1d0a5"/>
        </g>
        <g id="Group_1111711" data-name="Group 1111711" transform="translate(5.797 0.599)">
          <path id="Path_900687" data-name="Path 900687" d="M229.951,300.712a5.2,5.2,0,0,1-7.022,7.022,5.2,5.2,0,1,0,7.022-7.022Z" transform="translate(-222.929 -300.712)" fill="#f1b986"/>
        </g>
        <g id="Group_1111712" data-name="Group 1111712" transform="translate(0 10.397)">
          <path id="Path_900688" data-name="Path 900688" d="M196.423,371.159h-9.554a5.62,5.62,0,0,0-5.62,5.62v4.777h4.5V389.7h11.8v-8.149h4.5v-4.777A5.62,5.62,0,0,0,196.423,371.159Z" transform="translate(-181.249 -371.159)" fill="#80b4fb"/>
        </g>
        <g id="Group_1111713" data-name="Group 1111713" transform="translate(4.496 10.714)">
          <path id="Path_900689" data-name="Path 900689" d="M226.112,373.437a23.451,23.451,0,0,1-12.539,12.756v5.473h11.8v-8.149h4.5V378.74A5.621,5.621,0,0,0,226.112,373.437Z" transform="translate(-213.573 -373.437)" fill="#61a2f9"/>
        </g>
      </g>
      <g id="Group_1111715" data-name="Group 1111715" transform="translate(56.571 0)">
        <path id="Path_900690" data-name="Path 900690" d="M198.233,147.965a9.333,9.333,0,1,0-9.333-9.333A9.343,9.343,0,0,0,198.233,147.965Zm0-16.579a7.246,7.246,0,1,1-7.246,7.246A7.255,7.255,0,0,1,198.233,131.386Z" transform="translate(-170.495 -111.316)"/>
        <path id="Path_900691" data-name="Path 900691" d="M226.063,171.3a4.837,4.837,0,1,0-4.837-4.837,4.842,4.842,0,0,0,4.837,4.837Zm0-7.587a2.75,2.75,0,1,1-2.75,2.75,2.753,2.753,0,0,1,2.75-2.75Z" transform="translate(-198.325 -139.147)"/>
        <path id="Path_900692" data-name="Path 900692" d="M112.047,60.053a6.671,6.671,0,0,0-6.664-6.664h-.124A6.237,6.237,0,0,0,100.884,43c.144-.153.287-.307.428-.464a22.621,22.621,0,0,0,5.581-11.929h2.284a2.451,2.451,0,0,0,2.448-2.448V26.473a2.451,2.451,0,0,0-2.448-2.448h-2.285A22.83,22.83,0,0,0,87.6,4.734V2.448A2.451,2.451,0,0,0,85.152,0H83.466a2.451,2.451,0,0,0-2.448,2.448V4.734A22.83,22.83,0,0,0,61.725,24.025H59.44a2.451,2.451,0,0,0-2.448,2.448V28.16a2.451,2.451,0,0,0,2.448,2.448h2.284a22.62,22.62,0,0,0,5.581,11.929c.141.157.284.311.428.464a6.237,6.237,0,0,0-4.375,10.39h-.124a6.671,6.671,0,0,0-6.664,6.664V70.169a1.043,1.043,0,0,0,1.043,1.043H64.7a1.043,1.043,0,0,0,0-2.086H63.153V62.02a1.043,1.043,0,1,0-2.086,0v1.766h-2.41V60.053a4.583,4.583,0,0,1,4.577-4.577h9.554c.106,0,.212.005.317.012a6.644,6.644,0,0,0-.236,1.755V69.125h-3.3a1.043,1.043,0,0,0,0,2.086H98.619a1.043,1.043,0,0,0,0-2.086h-2.87V57.243a6.65,6.65,0,0,0-.236-1.755c.105-.007.21-.012.317-.012h9.554a4.583,4.583,0,0,1,4.577,4.577v3.733h-2.41V62.02a1.043,1.043,0,1,0-2.086,0v7.106h-1.978a1.043,1.043,0,0,0,0,2.086H111a1.043,1.043,0,0,0,1.043-1.043Zm-50.98,5.819v3.253H58.657V65.872Zm43.7-16.638a4.16,4.16,0,0,1-4.145,4.155H100.6a4.155,4.155,0,1,1,4.166-4.155Zm-14.25-2.126a6.2,6.2,0,0,0-.224-2.471,18.365,18.365,0,0,0,12.046-14.029h2.449A20.668,20.668,0,0,1,90.512,47.108Zm-6.2-31.534A11.742,11.742,0,1,1,72.567,27.319v-.005A11.755,11.755,0,0,1,84.309,15.574ZM87.6,13.126V11.417a16.236,16.236,0,0,1,12.609,12.608H98.5a2.441,2.441,0,0,0-.731.112,13.875,13.875,0,0,0-10.28-10.28A2.435,2.435,0,0,0,87.6,13.126Zm-.476,27.73A13.873,13.873,0,0,0,97.768,30.5a2.44,2.44,0,0,0,.731.112h1.712A16.189,16.189,0,0,1,89.351,42.751a6.284,6.284,0,0,0-2.227-1.895Zm-5.631,0a6.283,6.283,0,0,0-2.227,1.895A16.19,16.19,0,0,1,68.406,30.607h1.713a2.439,2.439,0,0,0,.731-.112A13.873,13.873,0,0,0,81.493,40.856Zm-1.34,5.568a4.155,4.155,0,1,1,4.155,4.155A4.16,4.16,0,0,1,80.153,46.424Zm29.386-19.951v1.686a.362.362,0,0,1-.362.362H98.5a.362.362,0,0,1-.362-.362V26.473a.362.362,0,0,1,.362-.362h10.678A.362.362,0,0,1,109.539,26.473Zm-4.757-2.448h-2.446A18.326,18.326,0,0,0,87.6,9.29V6.845a20.8,20.8,0,0,1,17.182,17.18ZM83.466,2.086h1.686a.362.362,0,0,1,.362.362v7.7s0,0,0,.007v2.966a.362.362,0,0,1-.362.362H83.466a.362.362,0,0,1-.362-.362V2.448a.362.362,0,0,1,.362-.362ZM81.018,6.845V9.292a18.269,18.269,0,0,0-8,3.6A1.043,1.043,0,1,0,74.3,14.534a16.188,16.188,0,0,1,6.713-3.118v1.71a2.44,2.44,0,0,0,.112.731,13.875,13.875,0,0,0-10.28,10.28,2.439,2.439,0,0,0-.731-.112h-1.71a16.23,16.23,0,0,1,2.732-6.2A1.043,1.043,0,0,0,69.449,16.6a18.318,18.318,0,0,0-3.166,7.42H63.836A20.8,20.8,0,0,1,81.018,6.845ZM59.079,28.159V26.473a.362.362,0,0,1,.362-.362H70.118a.362.362,0,0,1,.362.362v1.686a.362.362,0,0,1-.362.362H59.44a.362.362,0,0,1-.362-.362Zm4.756,2.448h2.449A18.365,18.365,0,0,0,78.329,44.637a6.2,6.2,0,0,0-.224,2.471A20.668,20.668,0,0,1,63.835,30.608Zm.021,18.627a4.155,4.155,0,1,1,4.166,4.155H68A4.16,4.16,0,0,1,63.855,49.234Zm8.933,4.155h-.125a6.228,6.228,0,0,0,1.4-5.67,22.7,22.7,0,0,0,4.807,1.766,6.279,6.279,0,0,0,.784,1.094h-.125A6.661,6.661,0,0,0,74.02,53.5a6.688,6.688,0,0,0-1.231-.114Zm4.576,15.736h-2.41V63.063h2.41Zm2.086-9.916a1.043,1.043,0,1,0-2.086,0v1.767h-2.41V57.243a4.582,4.582,0,0,1,4.577-4.577h9.554a4.582,4.582,0,0,1,4.577,4.577v3.734h-2.41V59.21a1.043,1.043,0,1,0-2.086,0v9.916H79.451V59.21Zm14.212,9.916h-2.41V63.063h2.41ZM94.6,53.5a6.661,6.661,0,0,0-5.512-2.924h-.125a6.273,6.273,0,0,0,.784-1.094,22.693,22.693,0,0,0,4.807-1.766,6.228,6.228,0,0,0,1.4,5.67h-.125A6.687,6.687,0,0,0,94.6,53.5Zm12.953,15.622V65.872h2.409v3.253Z" transform="translate(-56.571 0)"/>
      </g>
    </g>
    <rect id="Rectangle_404643" data-name="Rectangle 404643" width="87" height="87" transform="translate(455.051 11883)" fill="none"/>
  </g>
</svg>
