<svg xmlns="http://www.w3.org/2000/svg" xmlns:xlink="http://www.w3.org/1999/xlink" width="102.914" height="102.914" viewBox="0 0 102.914 102.914">
  <defs>
    <filter id="Path_896985" x="0" y="0" width="102.914" height="102.914" filterUnits="userSpaceOnUse">
      <feOffset dy="3" input="SourceAlpha"/>
      <feGaussianBlur stdDeviation="3" result="blur"/>
      <feFlood flood-opacity="0.161"/>
      <feComposite operator="in" in2="blur"/>
      <feComposite in="SourceGraphic"/>
    </filter>
  </defs>
  <g id="Group_1111686" data-name="Group 1111686" transform="translate(-615.051 -7007)">
    <g id="Group_1111451" data-name="Group 1111451" transform="translate(-131.725 3161)">
      <g id="Group_1109827" data-name="Group 1109827" transform="translate(755.775 3852)">
        <g id="Group_1098742" data-name="Group 1098742" transform="translate(0 0)">
          <g transform="matrix(1, 0, 0, 1, -9, -6)" filter="url(#Path_896985)">
            <g id="Path_896985-2" data-name="Path 896985" transform="translate(9 6)" fill="#8454ee" opacity="0.859">
              <path d="M 42.45709609985352 83.414306640625 C 36.92726135253906 83.414306640625 31.56363677978516 82.33161163330078 26.51521301269531 80.19630432128906 C 21.63824844360352 78.13352966308594 17.25796699523926 75.18016815185547 13.49606037139893 71.41825866699219 C 9.734143257141113 67.65634155273438 6.780778408050537 63.27606964111328 4.718001842498779 58.39910507202148 C 2.582696199417114 53.35066986083984 1.500002026557922 47.9870491027832 1.500002026557922 42.45721054077148 C 1.500002026557922 36.9272575378418 2.582696199417114 31.56363487243652 4.718001842498779 26.51521301269531 C 6.780778408050537 21.63824653625488 9.734143257141113 17.25796508789062 13.49606037139893 13.49605941772461 C 17.25796699523926 9.73414134979248 21.63824844360352 6.780776977539062 26.51521301269531 4.718000411987305 C 31.56363677978516 2.582694530487061 36.92726135253906 1.500000357627869 42.45709609985352 1.500000357627869 C 47.98693084716797 1.500000357627869 53.35055541992188 2.582694530487061 58.39899063110352 4.718000411987305 C 63.27595520019531 6.780776977539062 67.65622711181641 9.73414134979248 71.41814422607422 13.49605941772461 C 75.18004608154297 17.25796508789062 78.13341522216797 21.63824653625488 80.19618988037109 26.51521301269531 C 82.33149719238281 31.56363487243652 83.41419219970703 36.9272575378418 83.41419219970703 42.45709609985352 C 83.41419219970703 47.9870491027832 82.33149719238281 53.35066986083984 80.19618988037109 58.39910507202148 C 78.13341522216797 63.27606964111328 75.18004608154297 67.65634155273438 71.41814422607422 71.41825866699219 C 67.65622711181641 75.18016815185547 63.27595520019531 78.13352966308594 58.39899063110352 80.19630432128906 C 53.35055541992188 82.33161163330078 47.98693084716797 83.414306640625 42.45709609985352 83.414306640625 Z" stroke="none"/>
              <path d="M 42.45709609985352 2.999992370605469 C 37.12909698486328 2.999992370605469 31.96207046508789 4.042823791503906 27.09953689575195 6.099502563476562 C 22.40136337280273 8.086647033691406 18.18135070800781 10.93207550048828 14.55670928955078 14.55671691894531 C 10.93208312988281 18.18135070800781 8.086654663085938 22.4013671875 6.099510192871094 27.09952545166016 C 4.042831420898438 31.96207427978516 3 37.12910079956055 3 42.45720672607422 C 3 47.78520584106445 4.042831420898438 52.95223236083984 6.099510192871094 57.81476593017578 C 8.086654663085938 62.512939453125 10.93208312988281 66.73295593261719 14.55670928955078 70.35758972167969 C 18.18135070800781 73.98222351074219 22.40136337280273 76.82764434814453 27.09953689575195 78.81479644775391 C 31.96207046508789 80.87147521972656 37.12909698486328 81.91429901123047 42.45709609985352 81.91429901123047 C 47.78509521484375 81.91429901123047 52.95212554931641 80.87147521972656 57.81465530395508 78.81479644775391 C 62.5128288269043 76.82764434814453 66.73284149169922 73.98222351074219 70.35748291015625 70.35758972167969 C 73.98210906982422 66.73295593261719 76.82753753662109 62.512939453125 78.81468200683594 57.81476593017578 C 80.87136077880859 52.95223236083984 81.91419219970703 47.78520584106445 81.91419219970703 42.45709991455078 C 81.91419219970703 37.12910079956055 80.87136077880859 31.96207427978516 78.81468200683594 27.09952545166016 C 76.82753753662109 22.4013671875 73.98210906982422 18.18135070800781 70.35748291015625 14.55671691894531 C 66.73284149169922 10.93207550048828 62.5128288269043 8.086647033691406 57.81465530395508 6.099502563476562 C 52.95212554931641 4.042823791503906 47.78509521484375 2.999992370605469 42.45709609985352 2.999992370605469 M 42.45709609985352 -7.62939453125e-06 C 65.90550994873047 -7.62939453125e-06 84.91419219970703 19.00868988037109 84.91419219970703 42.45709991455078 L 84.91419219970703 42.45720672607422 C 84.91419219970703 65.90562438964844 65.90550994873047 84.91429901123047 42.45709609985352 84.91429901123047 C 19.00868225097656 84.91429901123047 0 65.90562438964844 0 42.45720672607422 L 0 42.45709991455078 C 0 19.00868988037109 19.00868225097656 -7.62939453125e-06 42.45709609985352 -7.62939453125e-06 Z" stroke="none" fill="#fff"/>
            </g>
          </g>
          <g id="Rectangle_400907" data-name="Rectangle 400907" transform="translate(0)" fill="none" stroke="#fff" stroke-width="3">
            <rect width="84.914" height="84.914" rx="42.457" stroke="none"/>
            <rect x="1.5" y="1.5" width="81.914" height="81.914" rx="40.957" fill="none"/>
          </g>
        </g>
      </g>
    </g>
    <g id="Group_1111685" data-name="Group 1111685" transform="translate(637.051 7012.488)">
      <g id="Group_1111675" data-name="Group 1111675" transform="translate(8.598 56.818)">
        <g id="Group_1111673" data-name="Group 1111673" transform="translate(34.662)">
          <path id="Path_900645" data-name="Path 900645" d="M391.527,378.683h-1.238v-6.369h-6.042v6.369h-1.238a1.133,1.133,0,0,0-.82,1.914l4.259,4.47a1.134,1.134,0,0,0,1.64,0l4.259-4.47A1.133,1.133,0,0,0,391.527,378.683Z" transform="translate(-381.874 -372.314)" fill="#fb3a82"/>
          <path id="Path_900646" data-name="Path 900646" d="M402.824,372.315h6.042v3.541h-6.042Z" transform="translate(-400.451 -372.315)" fill="#fb1466"/>
        </g>
        <g id="Group_1111674" data-name="Group 1111674">
          <path id="Path_900647" data-name="Path 900647" d="M85.552,378.683H84.314v-6.369H78.272v6.369H77.034a1.133,1.133,0,0,0-.82,1.914l4.259,4.47a1.134,1.134,0,0,0,1.64,0l4.259-4.47A1.133,1.133,0,0,0,85.552,378.683Z" transform="translate(-75.899 -372.314)" fill="#fb3a82"/>
          <path id="Path_900648" data-name="Path 900648" d="M96.85,372.315h6.042v3.541H96.85Z" transform="translate(-94.477 -372.315)" fill="#fb1466"/>
        </g>
      </g>
      <g id="Group_1111682" data-name="Group 1111682" transform="translate(0.85 17.362)">
        <g id="Group_1111680" data-name="Group 1111680" transform="translate(4.646 10.226)">
          <g id="Group_1111677" data-name="Group 1111677">
            <path id="Path_900649" data-name="Path 900649" d="M100.169,115.416v28.239a1.133,1.133,0,0,1-1.133,1.134H49.647a1.133,1.133,0,0,1-1.133-1.134V115.416a1.133,1.133,0,0,1,1.133-1.133h49.39A1.133,1.133,0,0,1,100.169,115.416Z" transform="translate(-48.514 -114.283)" fill="#a9eddc"/>
            <path id="Path_900650" data-name="Path 900650" d="M68.311,118.083a5.108,5.108,0,0,1-1.979,4.779,5.124,5.124,0,0,1-3.661,3.663,5.145,5.145,0,0,1-2.117,1.635,5.09,5.09,0,0,1-1.959.39,5.033,5.033,0,0,1-.7-.049,5.109,5.109,0,0,1-5.17,0,5.1,5.1,0,0,1-2.66-.341,5.158,5.158,0,0,1-1.55-1V115.416a1.133,1.133,0,0,1,1.133-1.133H68.866a5.062,5.062,0,0,1,.148,1.214A5.128,5.128,0,0,1,68.311,118.083Z" transform="translate(-48.514 -114.283)" fill="#64e0c4"/>
            <path id="Path_900651" data-name="Path 900651" d="M469.011,115.418v28.238a1.133,1.133,0,0,1-1.133,1.134h-3.4a1.133,1.133,0,0,0,1.133-1.134V115.418a1.133,1.133,0,0,0-1.133-1.134h3.4A1.133,1.133,0,0,1,469.011,115.418Z" transform="translate(-417.355 -114.284)" fill="#64e0c4"/>
            <g id="Group_1111676" data-name="Group 1111676" transform="translate(3.399 3.4)">
              <path id="Path_900652" data-name="Path 900652" d="M123.377,144.866v17.96a.569.569,0,0,1-.51.563,4.645,4.645,0,0,0-4.107,4.106.566.566,0,0,1-.562.509H79.089a.567.567,0,0,1-.568-.566V149.479a.568.568,0,0,1,.51-.563,4.646,4.646,0,0,0,4.107-4.106.567.567,0,0,1,.562-.51h39.11a.567.567,0,0,1,.567.566Z" transform="translate(-78.521 -144.3)" fill="#27d1b3"/>
              <path id="Path_900653" data-name="Path 900653" d="M94.919,144.7a5.108,5.108,0,0,1-1.979,4.779,5.124,5.124,0,0,1-3.661,3.663,5.145,5.145,0,0,1-2.117,1.635,5.09,5.09,0,0,1-1.959.39,5.033,5.033,0,0,1-.7-.049,5.109,5.109,0,0,1-5.17,0,5.035,5.035,0,0,1-.7.049h-.108v-5.686a.568.568,0,0,1,.51-.563,4.646,4.646,0,0,0,4.107-4.106.567.567,0,0,1,.562-.51H95.13c-.065.137-.135.27-.211.4Z" transform="translate(-78.522 -144.299)" fill="#20b69f"/>
            </g>
          </g>
          <g id="Group_1111679" data-name="Group 1111679" transform="translate(6.794 6.945)">
            <circle id="Ellipse_12800" data-name="Ellipse 12800" cx="7.127" cy="7.127" r="7.127" transform="translate(11.907 1.181)" fill="#c8f2e7"/>
            <g id="Group_1111678" data-name="Group 1111678">
              <path id="Path_900654" data-name="Path 900654" d="M413.736,179.376h-1.521a1.134,1.134,0,0,1-1.134-1.134v-1.521a1.134,1.134,0,0,1,1.134-1.134h1.521a1.134,1.134,0,0,1,1.133,1.134v1.521A1.134,1.134,0,0,1,413.736,179.376Z" transform="translate(-376.803 -175.588)" fill="#c8f2e7"/>
              <path id="Path_900655" data-name="Path 900655" d="M109.625,288.824h1.521a1.134,1.134,0,0,1,1.134,1.134v1.521a1.134,1.134,0,0,1-1.134,1.134h-1.521a1.134,1.134,0,0,1-1.134-1.134v-1.521A1.133,1.133,0,0,1,109.625,288.824Z" transform="translate(-108.491 -275.996)" fill="#c8f2e7"/>
            </g>
          </g>
        </g>
        <g id="Group_1111681" data-name="Group 1111681" transform="translate(0 0)">
          <path id="Path_900656" data-name="Path 900656" d="M30.381,35.452a2.848,2.848,0,0,0-.914-2.094,2.855,2.855,0,0,0-1.6-3.869A2.856,2.856,0,0,0,24.9,26.528a2.855,2.855,0,0,0-3.869-1.6,2.855,2.855,0,0,0-4.188,0,2.855,2.855,0,0,0-3.869,1.6,2.856,2.856,0,0,0-2.961,2.961,2.855,2.855,0,0,0-1.6,3.869,2.855,2.855,0,0,0,0,4.188,2.855,2.855,0,0,0,1.6,3.869,2.856,2.856,0,0,0,2.961,2.961,2.855,2.855,0,0,0,3.869,1.6,2.855,2.855,0,0,0,4.188,0,2.855,2.855,0,0,0,3.869-1.6,2.856,2.856,0,0,0,2.961-2.961,2.855,2.855,0,0,0,1.6-3.869A2.849,2.849,0,0,0,30.381,35.452Z" transform="translate(-7.5 -24.012)" fill="#fcb44d"/>
          <path id="Path_900657" data-name="Path 900657" d="M107.56,37.551a2.855,2.855,0,0,1-1.6,3.868A2.856,2.856,0,0,1,103,44.381a2.855,2.855,0,0,1-3.869,1.6,2.855,2.855,0,0,1-3.557.51,2.876,2.876,0,0,0,.628-.51,2.855,2.855,0,0,0,3.869-1.6,2.856,2.856,0,0,0,2.961-2.962,2.855,2.855,0,0,0,1.6-3.868,2.856,2.856,0,0,0,0-4.188,2.855,2.855,0,0,0-1.6-3.868,2.856,2.856,0,0,0-2.961-2.962,2.855,2.855,0,0,0-3.869-1.6,2.872,2.872,0,0,0-.628-.51,2.855,2.855,0,0,1,3.557.51,2.855,2.855,0,0,1,3.869,1.6,2.856,2.856,0,0,1,2.961,2.962,2.855,2.855,0,0,1,1.6,3.868,2.856,2.856,0,0,1,0,4.188Z" transform="translate(-85.592 -24.016)" fill="#fb9927"/>
          <circle id="Ellipse_12801" data-name="Ellipse 12801" cx="7.349" cy="7.349" r="7.349" transform="translate(4.091 4.091)" fill="#ffeed3"/>
        </g>
      </g>
      <g id="Group_1111684" data-name="Group 1111684" transform="translate(0 16.512)">
        <path id="Path_900658" data-name="Path 900658" d="M237.3,362.041v-8.5h-6.041v8.5H230.02a1.133,1.133,0,0,0-.82,1.914l4.26,4.469a1.133,1.133,0,0,0,1.64,0l4.26-4.469a1.133,1.133,0,0,0-.82-1.914Z" transform="translate(-202.956 -315.365)" fill="#fb3a82"/>
        <g id="Group_1111683" data-name="Group 1111683" transform="translate(0)">
          <path id="Path_900659" data-name="Path 900659" d="M56.018,26.738H23.951c-.051-.076-.1-.151-.162-.224a3.7,3.7,0,0,0-1.751-4.226A3.7,3.7,0,0,0,18.8,19.054,3.7,3.7,0,0,0,14.577,17.3,3.7,3.7,0,0,0,10,17.3a3.7,3.7,0,0,0-4.226,1.751,3.7,3.7,0,0,0-3.235,3.235A3.7,3.7,0,0,0,.791,26.515a3.7,3.7,0,0,0,0,4.575,3.7,3.7,0,0,0,1.751,4.226,3.688,3.688,0,0,0,2.1,2.908s0,.009,0,.013V56.96a1.985,1.985,0,0,0,1.983,1.983h3.493v3.4H9.733A1.982,1.982,0,0,0,8.3,65.688l4.26,4.469a1.982,1.982,0,0,0,2.87,0l4.259-4.469a1.982,1.982,0,0,0-1.435-3.35h-.389v-3.4h9.59v3.4h-.389a1.982,1.982,0,0,0-1.435,3.35l4.26,4.469a1.982,1.982,0,0,0,2.87,0l4.26-4.469a1.982,1.982,0,0,0-1.435-3.35h-.389v-3.4h3.72a.85.85,0,1,0,0-1.7h-3.72v-1.7H48.572a1.416,1.416,0,0,0,1.407-1.267,3.811,3.811,0,0,1,3.355-3.354A1.416,1.416,0,0,0,54.6,49.514V31.555a1.418,1.418,0,0,0-1.417-1.416H24.329A3.7,3.7,0,0,0,24.58,28.8c0-.122-.007-.244-.019-.365H56.018a.284.284,0,0,1,.284.284V56.96a.284.284,0,0,1-.284.284H42.726a.85.85,0,0,0,0,1.7h2.058v3.4h-.389a1.982,1.982,0,0,0-1.435,3.35l4.26,4.469a1.982,1.982,0,0,0,2.87,0l4.26-4.469a1.982,1.982,0,0,0-1.435-3.35h-.389v-3.4h3.493A1.985,1.985,0,0,0,58,56.96V28.721a1.986,1.986,0,0,0-1.983-1.983ZM3.662,33.968A2.006,2.006,0,0,1,2.536,31.25a.85.85,0,0,0-.194-.977,2.006,2.006,0,0,1,0-2.942.85.85,0,0,0,.194-.977,2.006,2.006,0,0,1,1.126-2.718.85.85,0,0,0,.553-.828A2.006,2.006,0,0,1,6.3,20.727a.847.847,0,0,0,.828-.553,2.006,2.006,0,0,1,2.718-1.126.85.85,0,0,0,.977-.194,2.006,2.006,0,0,1,2.942,0,.85.85,0,0,0,.977.194,2.006,2.006,0,0,1,2.718,1.126.848.848,0,0,0,.828.553,2.006,2.006,0,0,1,2.081,2.081.85.85,0,0,0,.553.828,2.006,2.006,0,0,1,1.126,2.718.85.85,0,0,0,.194.977,2.006,2.006,0,0,1,0,2.942.85.85,0,0,0-.194.977,2.006,2.006,0,0,1-1.126,2.718.85.85,0,0,0-.553.828,2.006,2.006,0,0,1-2.081,2.081.846.846,0,0,0-.828.553,2.006,2.006,0,0,1-2.718,1.126.85.85,0,0,0-.977.194,2.006,2.006,0,0,1-2.942,0,.849.849,0,0,0-.977-.194A2.006,2.006,0,0,1,7.123,37.43a.848.848,0,0,0-.828-.553A2.006,2.006,0,0,1,4.215,34.8a.849.849,0,0,0-.553-.828ZM17.013,64.037h1.239a.283.283,0,0,1,.2.478L14.2,68.985a.283.283,0,0,1-.41,0l-4.26-4.469a.283.283,0,0,1,.2-.478h1.239a.85.85,0,0,0,.85-.85V58.943h4.342v4.245A.85.85,0,0,0,17.013,64.037Zm18.57,0a.283.283,0,0,1,.2.478l-4.26,4.469a.283.283,0,0,1-.41,0l-4.26-4.469a.283.283,0,0,1,.2-.478H28.3a.85.85,0,0,0,.85-.85V55.542h4.342v7.646a.85.85,0,0,0,.85.85ZM52.9,49.265a5.526,5.526,0,0,0-4.579,4.578H9.745V48.305a.85.85,0,1,0-1.7,0v5.821a1.418,1.418,0,0,0,1.417,1.416h17.99v1.7H6.629a.284.284,0,0,1-.284-.284V39.31a3.7,3.7,0,0,0,1.242.847,3.662,3.662,0,0,0,.459.152v4.183a.85.85,0,1,0,1.7,0v-4.13c.087-.018.173-.037.258-.06a3.693,3.693,0,0,0,3.332.639v3.047a.85.85,0,1,0,1.7,0V40.394A3.69,3.69,0,0,0,18.8,38.55a3.7,3.7,0,0,0,3.235-3.235,3.686,3.686,0,0,0,1.875-3.478H52.9ZM51.675,64.037h1.239a.283.283,0,0,1,.2.478l-4.26,4.469a.283.283,0,0,1-.41,0l-4.26-4.469a.283.283,0,0,1,.2-.478h1.239a.85.85,0,0,0,.85-.85V58.943h4.342v4.245A.85.85,0,0,0,51.675,64.037Z" transform="translate(0 -16.512)"/>
          <path id="Path_900660" data-name="Path 900660" d="M214.071,194.466a7.976,7.976,0,1,0-7.976-7.976A7.985,7.985,0,0,0,214.071,194.466Zm0-14.253a6.277,6.277,0,1,1-6.277,6.277A6.284,6.284,0,0,1,214.071,180.213Z" transform="translate(-182.748 -160.162)"/>
          <path id="Path_900661" data-name="Path 900661" d="M250.966,213.127h.052v1.093h-.85a.85.85,0,1,0,0,1.7h.85v.19a.85.85,0,1,0,1.7,0v-.19h.052a2.246,2.246,0,0,0,0-4.492h-.052v-1.093h.85a.85.85,0,0,0,0-1.7h-.85v-.19a.85.85,0,1,0-1.7,0v.19h-.052a2.246,2.246,0,0,0,0,4.492Zm1.8,0a.547.547,0,0,1,0,1.093h-.052v-1.093Zm-1.8-2.793h.052v1.093h-.052a.547.547,0,1,1,0-1.093Z" transform="translate(-220.544 -185.949)"/>
          <path id="Path_900662" data-name="Path 900662" d="M405.566,173.576h1.521a1.985,1.985,0,0,0,1.983-1.983v-1.521a1.985,1.985,0,0,0-1.983-1.983h-1.521a1.985,1.985,0,0,0-1.983,1.983v1.521A1.985,1.985,0,0,0,405.566,173.576Zm-.284-3.5a.284.284,0,0,1,.284-.284h1.521a.284.284,0,0,1,.284.284v1.521a.284.284,0,0,1-.284.284h-1.521a.284.284,0,0,1-.284-.284Z" transform="translate(-357.864 -150.918)"/>
          <path id="Path_900663" data-name="Path 900663" d="M421.15,231.3a.85.85,0,0,0-.85.85v5.179a.85.85,0,1,0,1.7,0v-5.179A.85.85,0,0,0,421.15,231.3Z" transform="translate(-372.687 -206.965)"/>
          <path id="Path_900664" data-name="Path 900664" d="M104.5,281.323h-1.521a1.985,1.985,0,0,0-1.983,1.983v1.521a1.985,1.985,0,0,0,1.983,1.983H104.5a1.985,1.985,0,0,0,1.983-1.983v-1.521A1.985,1.985,0,0,0,104.5,281.323Zm.284,3.5a.284.284,0,0,1-.284.284h-1.521a.284.284,0,0,1-.284-.284v-1.521a.284.284,0,0,1,.284-.284H104.5a.284.284,0,0,1,.284.284Z" transform="translate(-89.551 -251.324)"/>
          <path id="Path_900665" data-name="Path 900665" d="M84.746,102.1a.85.85,0,0,0,0-1.7h-.015a.845.845,0,0,0-.844.845.854.854,0,0,0,.851.854Z" transform="translate(-74.387 -90.9)"/>
          <path id="Path_900666" data-name="Path 900666" d="M118.945,136.3a.85.85,0,1,0,0-1.7h-.011a.845.845,0,0,0-.844.85A.854.854,0,0,0,118.945,136.3Z" transform="translate(-104.712 -121.223)"/>
          <path id="Path_900667" data-name="Path 900667" d="M87.839,106.891a.85.85,0,0,0,1.2-.091l3.047-3.546a.85.85,0,0,0-1.289-1.107l-3.047,3.546A.849.849,0,0,0,87.839,106.891Z" transform="translate(-77.626 -92.184)"/>
          <path id="Path_900668" data-name="Path 900668" d="M44.315,69.025a8.2,8.2,0,0,0,7.033-12.413.85.85,0,0,0-1.457.875,6.5,6.5,0,1,1-2.426-2.345.85.85,0,0,0,.825-1.485,8.2,8.2,0,1,0-3.975,15.369Z" transform="translate(-32.025 -48.537)"/>
        </g>
      </g>
    </g>
  </g>
</svg>
