<svg xmlns="http://www.w3.org/2000/svg" width="87" height="87" viewBox="0 0 87 87">
  <g id="Group_1111730" data-name="Group 1111730" transform="translate(-967.051 -11883)">
    <rect id="Rectangle_404644" data-name="Rectangle 404644" width="87" height="87" transform="translate(967.051 11883)" fill="none"/>
    <g id="Group_1111729" data-name="Group 1111729" transform="translate(976.051 11892)">
      <g id="Group_1111727" data-name="Group 1111727" transform="translate(5.54 1.108)">
        <g id="Group_1111718" data-name="Group 1111718">
          <path id="Path_900693" data-name="Path 900693" d="M97.617,33.485v6.648l-2.508.627A26.459,26.459,0,0,1,90.2,52.609l1.332,2.22-4.7,4.7L84.609,58.2a26.485,26.485,0,0,1-8.668,4.235l2.839-5.68v-2.67h0a19.945,19.945,0,1,0-19.947,0v2.669l2.827,5.652-.03.015A26.477,26.477,0,0,1,53.008,58.2l-2.22,1.332-4.7-4.7,1.332-2.22A26.459,26.459,0,0,1,42.508,40.76L40,40.133V33.485l2.508-.627A26.459,26.459,0,0,1,47.42,21.008l-1.332-2.22,4.7-4.7,2.22,1.332a26.459,26.459,0,0,1,11.849-4.911L65.485,8h6.648l.627,2.508A26.459,26.459,0,0,1,84.609,15.42l2.22-1.332,4.7,4.7L90.2,21.008a26.459,26.459,0,0,1,4.911,11.849Z" transform="translate(-40 -8)" fill="#fcd770"/>
        </g>
        <g id="Group_1111719" data-name="Group 1111719" transform="translate(24.377 59.834)">
          <path id="Path_900694" data-name="Path 900694" d="M224.864,440l-2.828,5.657a1.793,1.793,0,0,1-3.208,0L216,440Z" transform="translate(-216 -440)" fill="#969faa"/>
        </g>
        <g id="Group_1111720" data-name="Group 1111720" transform="translate(18.836 48.753)">
          <path id="Path_900695" data-name="Path 900695" d="M195.945,360l-2.839,5.68-2.7,5.4H181.54l-2.713-5.428L176,360h19.945Z" transform="translate(-176 -360)" fill="#ccd1d9"/>
        </g>
        <g id="Group_1111721" data-name="Group 1111721" transform="translate(32.133 33.241)">
          <path id="Path_900696" data-name="Path 900696" d="M278.648,260.842v2.67H272V248h6.648Z" transform="translate(-272 -248)" fill="#b4dd7f"/>
        </g>
        <g id="Group_1111722" data-name="Group 1111722" transform="translate(18.836 33.241)">
          <path id="Path_900697" data-name="Path 900697" d="M182.648,248v15.512H176V248h6.648Z" transform="translate(-176 -248)" fill="#b4dd7f"/>
        </g>
        <g id="Group_1111723" data-name="Group 1111723" transform="translate(25.485 33.241)">
          <path id="Path_900698" data-name="Path 900698" d="M230.648,248v15.512H224V248h6.648Z" transform="translate(-224 -248)" fill="#fcd770"/>
        </g>
        <g id="Group_1111724" data-name="Group 1111724" transform="translate(35.457 22.161)">
          <path id="Path_900699" data-name="Path 900699" d="M300.432,168v11.08H296V168Z" transform="translate(-296 -168)" fill="#ff826e"/>
        </g>
        <g id="Group_1111725" data-name="Group 1111725" transform="translate(26.593 24.377)">
          <path id="Path_900700" data-name="Path 900700" d="M232,184h4.432v8.864H232Z" transform="translate(-232 -184)" fill="#ff826e"/>
        </g>
        <g id="Group_1111726" data-name="Group 1111726" transform="translate(17.728 26.593)">
          <path id="Path_900701" data-name="Path 900701" d="M172.432,200v6.648H168V200Z" transform="translate(-168 -200)" fill="#ff826e"/>
        </g>
      </g>
      <g id="Group_1111728" data-name="Group 1111728" transform="translate(0 0)">
        <path id="Path_900702" data-name="Path 900702" d="M89.193,34.766l2.641-.66V25.728l-2.641-.66a27.713,27.713,0,0,0-4.561-11.007l1.4-2.336L80.109,5.8,77.773,7.2A27.712,27.712,0,0,0,66.766,2.641L66.106,0H57.728l-.66,2.641A27.712,27.712,0,0,0,46.061,7.2L43.725,5.8,37.8,11.725l1.4,2.336a27.713,27.713,0,0,0-4.561,11.007L32,25.728v8.378l2.641.66A27.713,27.713,0,0,0,39.2,45.773l-1.4,2.336,5.924,5.924,2.336-1.4a27.477,27.477,0,0,0,7.95,3.838l5.312,10.624a2.9,2.9,0,0,0,5.189,0l5.312-10.624a27.479,27.479,0,0,0,7.95-3.839l2.336,1.4,5.924-5.924-1.4-2.336a27.712,27.712,0,0,0,4.561-11.007ZM54.161,33.241H51.945V28.809h2.216Zm3.324,2.216v13.3H53.053v-13.3Zm5.54-2.216H60.809V26.593h2.216ZM59.7,35.457h4.432v13.3H59.7Zm6.648,0h4.432v13.3H66.349Zm5.54-2.216H69.673V24.377h2.216ZM73,35.457h3.324V33.241H74.105V22.161H67.457v11.08H65.241V24.377H58.593v8.864H56.377V26.593H49.728v6.648H47.512v2.216h3.324v9.692a18.836,18.836,0,1,1,22.161,0ZM70.1,50.969l-4.432,8.864H58.169l-4.432-8.864ZM62.529,66.1a.685.685,0,0,1-1.225,0L59.277,62.05h5.279Zm17.236-14.86-2.112-1.267-.595.44a25.358,25.358,0,0,1-5.821,3.225L73,50.123v-2.3a21.052,21.052,0,1,0-22.161,0v2.3L52.6,53.641a25.35,25.35,0,0,1-5.821-3.225l-.595-.44-2.112,1.267-3.478-3.478,1.267-2.112-.44-.595A25.468,25.468,0,0,1,36.712,33.7l-.109-.732-2.387-.6V27.458l2.388-.6.109-.732a25.468,25.468,0,0,1,4.705-11.354l.44-.595-1.267-2.112,3.478-3.478L46.18,9.858l.595-.44a25.468,25.468,0,0,1,11.354-4.7l.732-.109.6-2.387h4.918l.6,2.388.732.109a25.465,25.465,0,0,1,11.354,4.7l.595.44,2.112-1.267,3.477,3.478L81.976,14.18l.44.595a25.468,25.468,0,0,1,4.705,11.354l.109.732,2.388.6v4.918l-2.388.6-.109.732a25.468,25.468,0,0,1-4.705,11.354l-.44.595,1.267,2.112Z" transform="translate(-27.568 0)"/>
        <path id="Path_900703" data-name="Path 900703" d="M0,0H23.687V2.216H0Z" transform="translate(21.943 22.177) rotate(-10.782)"/>
        <path id="Path_900704" data-name="Path 900704" d="M3.324,372.432H5.54a1.109,1.109,0,0,1,1.108,1.108H8.864a3.328,3.328,0,0,0-3.324-3.324V368H3.324v2.216a3.324,3.324,0,1,0,0,6.648H5.54a1.108,1.108,0,0,1,0,2.216H3.324a1.109,1.109,0,0,1-1.108-1.108H0A3.328,3.328,0,0,0,3.324,381.3v2.216H5.54V381.3a3.324,3.324,0,1,0,0-6.648H3.324a1.108,1.108,0,1,1,0-2.216Z" transform="translate(0 -317.031)"/>
        <path id="Path_900705" data-name="Path 900705" d="M437.54,374.648h-2.216a1.108,1.108,0,1,1,0-2.216h2.216a1.109,1.109,0,0,1,1.108,1.108h2.216a3.328,3.328,0,0,0-3.324-3.324V368h-2.216v2.216a3.324,3.324,0,1,0,0,6.648h2.216a1.108,1.108,0,0,1,0,2.216h-2.216a1.109,1.109,0,0,1-1.108-1.108H432a3.328,3.328,0,0,0,3.324,3.324v2.216h2.216V381.3a3.324,3.324,0,0,0,0-6.648Z" transform="translate(-372.166 -317.031)"/>
      </g>
    </g>
  </g>
</svg>
