<svg xmlns="http://www.w3.org/2000/svg" xmlns:xlink="http://www.w3.org/1999/xlink" width="113" height="113" viewBox="0 0 113 113">
  <defs>
    <filter id="Path_896985" x="0" y="0" width="113" height="113" filterUnits="userSpaceOnUse">
      <feOffset dy="3" input="SourceAlpha"/>
      <feGaussianBlur stdDeviation="3" result="blur"/>
      <feFlood flood-opacity="0.161"/>
      <feComposite operator="in" in2="blur"/>
      <feComposite in="SourceGraphic"/>
    </filter>
  </defs>
  <g id="Group_1111738" data-name="Group 1111738" transform="translate(-324.051 -4873)">
    <g id="Group_1111318" data-name="Group 1111318" transform="translate(333.051 4879)">
      <g id="Group_1109826" data-name="Group 1109826" transform="translate(0)">
        <g id="Group_1098742" data-name="Group 1098742" transform="translate(0 0)">
          <g transform="matrix(1, 0, 0, 1, -9, -6)" filter="url(#Path_896985)">
            <g id="Path_896985-2" data-name="Path 896985" transform="translate(9 6)" fill="#fd9826" opacity="0.859">
              <path d="M 47.49993515014648 93.5 C 41.28932189941406 93.5 35.26528167724609 92.28397369384766 29.59514808654785 89.88571929931641 C 24.1176815032959 87.56894683837891 19.1981086730957 84.25197601318359 14.97306823730469 80.02693176269531 C 10.74802875518799 75.80189514160156 7.431055068969727 70.88231658935547 5.11428165435791 65.40485382080078 C 2.716028451919556 59.73471832275391 1.500001788139343 53.71067810058594 1.500001788139343 47.50006484985352 C 1.500001788139343 41.28932189941406 2.716028451919556 35.26528167724609 5.11428165435791 29.59514617919922 C 7.431055068969727 24.11767959594727 10.74802875518799 19.19810676574707 14.97306823730469 14.97306632995605 C 19.1981086730957 10.74802684783936 24.1176815032959 7.431053161621094 29.59514808654785 5.114280223846436 C 35.26528167724609 2.716026782989502 41.28932189941406 1.5 47.49993515014648 1.5 C 53.71054840087891 1.5 59.73458862304688 2.716026782989502 65.40472412109375 5.114280223846436 C 70.88218688964844 7.431053161621094 75.80176544189453 10.74802684783936 80.02680206298828 14.97306632995605 C 84.25183868408203 19.19810676574707 87.56881713867188 24.11767959594727 89.88558959960938 29.59514617919922 C 92.28384399414062 35.26528167724609 93.49987030029297 41.28932189941406 93.49987030029297 47.49993515014648 C 93.49987030029297 53.71067810058594 92.28384399414062 59.73471832275391 89.88558959960938 65.40485382080078 C 87.56881713867188 70.88231658935547 84.25183868408203 75.80189514160156 80.02680206298828 80.02693176269531 C 75.80176544189453 84.25197601318359 70.88218688964844 87.56894683837891 65.40472412109375 89.88571929931641 C 59.73458862304688 92.28397369384766 53.71054840087891 93.5 47.49993515014648 93.5 Z" stroke="none"/>
              <path d="M 47.49993515014648 3 C 41.49116516113281 3 35.66371917724609 4.176155090332031 30.17947387695312 6.495796203613281 C 24.88081359863281 8.7369384765625 20.12149047851562 11.94596862792969 16.03372192382812 16.03372192382812 C 11.94596862792969 20.12149047851562 8.7369384765625 24.88081359863281 6.495796203613281 30.17947387695312 C 4.1761474609375 35.66372299194336 3 41.49116897583008 3 47.50006103515625 C 3 53.50883102416992 4.1761474609375 59.33627700805664 6.495796203613281 64.82052612304688 C 8.7369384765625 70.11918640136719 11.94596862792969 74.87850952148438 16.03372192382812 78.96627807617188 C 20.12149047851562 83.05403137207031 24.88081359863281 86.2630615234375 30.17947387695312 88.50419616699219 C 35.66371917724609 90.82384490966797 41.49116516113281 92 47.49993515014648 92 C 53.50870513916016 92 59.33615112304688 90.82384490966797 64.82039642333984 88.50419616699219 C 70.11905670166016 86.2630615234375 74.87837982177734 83.05403137207031 78.96614837646484 78.96627807617188 C 83.05390167236328 74.87850952148438 86.26293182373047 70.11918640136719 88.50407409667969 64.82052612304688 C 90.82372283935547 59.33627700805664 91.99987030029297 53.50883102416992 91.99987030029297 47.49993896484375 C 91.99987030029297 41.49116897583008 90.82372283935547 35.66372299194336 88.50407409667969 30.17947387695312 C 86.26293182373047 24.88081359863281 83.05390167236328 20.12149047851562 78.96614837646484 16.03372192382812 C 74.87837982177734 11.94596862792969 70.11905670166016 8.7369384765625 64.82039642333984 6.495796203613281 C 59.33615112304688 4.176155090332031 53.50870513916016 3 47.49993515014648 3 M 47.49993515014648 0 C 73.73342895507812 0 94.99987030029297 21.26644897460938 94.99987030029297 47.49993896484375 L 94.99987030029297 47.50006103515625 C 94.99987030029297 73.73355102539062 73.73342895507812 95 47.49993515014648 95 C 21.26644134521484 95 0 73.73355102539062 0 47.50006103515625 L 0 47.49993896484375 C 0 21.26644897460938 21.26644134521484 0 47.49993515014648 0 Z" stroke="none" fill="#fff"/>
            </g>
          </g>
          <g id="Rectangle_400907" data-name="Rectangle 400907" transform="translate(0)" fill="none" stroke="#fff" stroke-width="3">
            <rect width="95" height="95" rx="47.5" stroke="none"/>
            <rect x="1.5" y="1.5" width="92" height="92" rx="46" fill="none"/>
          </g>
        </g>
      </g>
    </g>
    <g id="Group_1111737" data-name="Group 1111737" transform="translate(346.051 4814.5)">
      <path id="Path_900706" data-name="Path 900706" d="M448.485,98H444.5v41.971h3.985a3.985,3.985,0,0,0,3.985-3.985v-34A3.985,3.985,0,0,0,448.485,98Z" transform="translate(-385.462 -6.504)" fill="#ff9a6b"/>
      <path id="Path_900707" data-name="Path 900707" d="M69.527,135.986V115.931l-3.985-6.973,3.985-6.973A3.985,3.985,0,0,0,65.542,98H11.485A3.985,3.985,0,0,0,7.5,101.985v34a3.985,3.985,0,0,0,3.985,3.985H65.542A3.985,3.985,0,0,0,69.527,135.986Z" transform="translate(-6.504 -6.504)" fill="#ffb58a"/>
      <path id="Path_900708" data-name="Path 900708" d="M349.719,128l-3.121,3.063L343.477,128H337.5v13.946h5.977l3.121-3.063,3.121,3.063H355.7V128Z" transform="translate(-292.673 -32.519)" fill="#ffe88c"/>
      <path id="Path_900709" data-name="Path 900709" d="M225.469,162,217.5,145l7.969-17h3.985v34Z" transform="translate(-188.612 -32.519)" fill="#fff7cc"/>
      <path id="Path_900710" data-name="Path 900710" d="M37.5,128H69.377v34H37.5Z" transform="translate(-32.519 -32.519)" fill="#fff"/>
      <path id="Path_900711" data-name="Path 900711" d="M205.485,308H201.5l6.11,6.11h3.985A6.11,6.11,0,0,0,205.485,308Z" transform="translate(-174.737 -188.612)" fill="#4856cf"/>
      <path id="Path_900712" data-name="Path 900712" d="M85.3,308H73.61a6.11,6.11,0,0,0-6.11,6.11H91.408A6.11,6.11,0,0,0,85.3,308Z" transform="translate(-58.535 -188.612)" fill="#5e70f2"/>
      <path id="Path_900713" data-name="Path 900713" d="M172.5,158v15.938a7.969,7.969,0,0,0,0-15.938Z" transform="translate(-149.589 -58.535)" fill="#4856cf"/>
      <path id="Path_900714" data-name="Path 900714" d="M124.454,165.969c0-4.4-1.784-7.969-3.985-7.969a7.969,7.969,0,0,0,0,15.938C122.67,173.938,124.454,170.37,124.454,165.969Z" transform="translate(-97.558 -58.535)" fill="#5e70f2"/>
      <path id="Path_900715" data-name="Path 900715" d="M388.743,128H382.5v3.985l1.561,2.988-1.561,2.988v3.985h6.243v-3.985l-1.561-2.988,1.561-2.988Z" transform="translate(-331.696 -32.519)" fill="#ffd45e"/>
      <path id="Path_900716" data-name="Path 900716" d="M382.5,158h6.243v5.977H382.5Z" transform="translate(-331.696 -58.535)" fill="#ffbe3b"/>
      <path id="Path_900717" data-name="Path 900717" d="M63.023,90.5H4.981A4.986,4.986,0,0,0,0,95.481v34a4.986,4.986,0,0,0,4.981,4.981H63.023A4.986,4.986,0,0,0,68,129.483v-34A4.986,4.986,0,0,0,63.023,90.5Zm2.988,38.983a2.992,2.992,0,0,1-2.988,2.988H4.981a2.992,2.992,0,0,1-2.988-2.988v-34a2.992,2.992,0,0,1,2.988-2.988H63.023a2.992,2.992,0,0,1,2.988,2.988Z"/>
      <path id="Path_900718" data-name="Path 900718" d="M66.858,120.5H31a1,1,0,0,0-1,1v9.961a1,1,0,1,0,1.992,0v-8.965H65.861V154.5H31.992v-19.06a1,1,0,1,0-1.992,0V155.5a1,1,0,0,0,1,1H66.858a1,1,0,0,0,1-1v-34A1,1,0,0,0,66.858,120.5Z" transform="translate(-26.015 -26.015)"/>
      <path id="Path_900719" data-name="Path 900719" d="M113.965,168.431A8.965,8.965,0,1,0,105,159.465,8.975,8.975,0,0,0,113.965,168.431Zm0-15.938a6.973,6.973,0,1,1-6.973,6.973A6.981,6.981,0,0,1,113.965,152.492Z" transform="translate(-91.054 -52.031)"/>
      <path id="Path_900720" data-name="Path 900720" d="M60,307.606a1,1,0,0,0,1,1H88.888a1,1,0,0,0,1-1,7.114,7.114,0,0,0-7.106-7.106H67.106A7.114,7.114,0,0,0,60,307.606Zm7.106-5.114H82.779a5.122,5.122,0,0,1,5.016,4.117H62.09A5.122,5.122,0,0,1,67.106,302.492Z" transform="translate(-52.031 -182.108)"/>
      <path id="Path_900721" data-name="Path 900721" d="M349.192,315.5H331a1,1,0,0,0,0,1.992h18.2a1,1,0,0,0,0-1.992Z" transform="translate(-286.169 -195.116)"/>
      <path id="Path_900722" data-name="Path 900722" d="M349.192,345.5H331a1,1,0,1,0,0,1.992h18.2a1,1,0,0,0,0-1.992Z" transform="translate(-286.169 -221.131)"/>
      <path id="Path_900723" data-name="Path 900723" d="M349.192,375.5H331a1,1,0,1,0,0,1.992h18.2a1,1,0,0,0,0-1.992Z" transform="translate(-286.169 -247.146)"/>
      <path id="Path_900724" data-name="Path 900724" d="M349.192,120.5H331a1,1,0,0,0-1,1v13.946a1,1,0,0,0,1,1h18.2a1,1,0,0,0,1-1V121.5A1,1,0,0,0,349.192,120.5Zm-6.973,9.961h-4.25v-3.985h4.25Zm-4.25,1.992h4.25v1.992h-4.25Zm4.25-7.969h-4.25v-1.992h4.25Zm-10.227-1.992h3.985v11.954h-3.985Zm16.2,11.954h-3.985V122.492H348.2Z" transform="translate(-286.169 -26.015)"/>
    </g>
  </g>
</svg>
