<svg xmlns="http://www.w3.org/2000/svg" xmlns:xlink="http://www.w3.org/1999/xlink" width="113" height="113" viewBox="0 0 113 113">
  <defs>
    <filter id="Path_896985" x="0" y="0" width="113" height="113" filterUnits="userSpaceOnUse">
      <feOffset dy="3" input="SourceAlpha"/>
      <feGaussianBlur stdDeviation="3" result="blur"/>
      <feFlood flood-opacity="0.161"/>
      <feComposite operator="in" in2="blur"/>
      <feComposite in="SourceGraphic"/>
    </filter>
  </defs>
  <g id="Group_1111740" data-name="Group 1111740" transform="translate(-744.051 -4873)">
    <g id="Group_1111319" data-name="Group 1111319" transform="translate(753.051 4879)">
      <g id="Group_1109827" data-name="Group 1109827" transform="translate(0)">
        <g id="Group_1098742" data-name="Group 1098742" transform="translate(0 0)">
          <g transform="matrix(1, 0, 0, 1, -9, -6)" filter="url(#Path_896985)">
            <g id="Path_896985-2" data-name="Path 896985" transform="translate(9 6)" fill="#fd9826" opacity="0.859">
              <path d="M 47.49993515014648 93.5 C 41.28932189941406 93.5 35.26528167724609 92.28397369384766 29.59514808654785 89.88571929931641 C 24.1176815032959 87.56894683837891 19.1981086730957 84.25197601318359 14.97306823730469 80.02693176269531 C 10.74802875518799 75.80189514160156 7.431055068969727 70.88231658935547 5.11428165435791 65.40485382080078 C 2.716028451919556 59.73471832275391 1.500001788139343 53.71067810058594 1.500001788139343 47.50006484985352 C 1.500001788139343 41.28932189941406 2.716028451919556 35.26528167724609 5.11428165435791 29.59514617919922 C 7.431055068969727 24.11767959594727 10.74802875518799 19.19810676574707 14.97306823730469 14.97306632995605 C 19.1981086730957 10.74802684783936 24.1176815032959 7.431053161621094 29.59514808654785 5.114280223846436 C 35.26528167724609 2.716026782989502 41.28932189941406 1.5 47.49993515014648 1.5 C 53.71054840087891 1.5 59.73458862304688 2.716026782989502 65.40472412109375 5.114280223846436 C 70.88218688964844 7.431053161621094 75.80176544189453 10.74802684783936 80.02680206298828 14.97306632995605 C 84.25183868408203 19.19810676574707 87.56881713867188 24.11767959594727 89.88558959960938 29.59514617919922 C 92.28384399414062 35.26528167724609 93.49987030029297 41.28932189941406 93.49987030029297 47.49993515014648 C 93.49987030029297 53.71067810058594 92.28384399414062 59.73471832275391 89.88558959960938 65.40485382080078 C 87.56881713867188 70.88231658935547 84.25183868408203 75.80189514160156 80.02680206298828 80.02693176269531 C 75.80176544189453 84.25197601318359 70.88218688964844 87.56894683837891 65.40472412109375 89.88571929931641 C 59.73458862304688 92.28397369384766 53.71054840087891 93.5 47.49993515014648 93.5 Z" stroke="none"/>
              <path d="M 47.49993515014648 3 C 41.49116516113281 3 35.66371917724609 4.176155090332031 30.17947387695312 6.495796203613281 C 24.88081359863281 8.7369384765625 20.12149047851562 11.94596862792969 16.03372192382812 16.03372192382812 C 11.94596862792969 20.12149047851562 8.7369384765625 24.88081359863281 6.495796203613281 30.17947387695312 C 4.1761474609375 35.66372299194336 3 41.49116897583008 3 47.50006103515625 C 3 53.50883102416992 4.1761474609375 59.33627700805664 6.495796203613281 64.82052612304688 C 8.7369384765625 70.11918640136719 11.94596862792969 74.87850952148438 16.03372192382812 78.96627807617188 C 20.12149047851562 83.05403137207031 24.88081359863281 86.2630615234375 30.17947387695312 88.50419616699219 C 35.66371917724609 90.82384490966797 41.49116516113281 92 47.49993515014648 92 C 53.50870513916016 92 59.33615112304688 90.82384490966797 64.82039642333984 88.50419616699219 C 70.11905670166016 86.2630615234375 74.87837982177734 83.05403137207031 78.96614837646484 78.96627807617188 C 83.05390167236328 74.87850952148438 86.26293182373047 70.11918640136719 88.50407409667969 64.82052612304688 C 90.82372283935547 59.33627700805664 91.99987030029297 53.50883102416992 91.99987030029297 47.49993896484375 C 91.99987030029297 41.49116897583008 90.82372283935547 35.66372299194336 88.50407409667969 30.17947387695312 C 86.26293182373047 24.88081359863281 83.05390167236328 20.12149047851562 78.96614837646484 16.03372192382812 C 74.87837982177734 11.94596862792969 70.11905670166016 8.7369384765625 64.82039642333984 6.495796203613281 C 59.33615112304688 4.176155090332031 53.50870513916016 3 47.49993515014648 3 M 47.49993515014648 0 C 73.73342895507812 0 94.99987030029297 21.26644897460938 94.99987030029297 47.49993896484375 L 94.99987030029297 47.50006103515625 C 94.99987030029297 73.73355102539062 73.73342895507812 95 47.49993515014648 95 C 21.26644134521484 95 0 73.73355102539062 0 47.50006103515625 L 0 47.49993896484375 C 0 21.26644897460938 21.26644134521484 0 47.49993515014648 0 Z" stroke="none" fill="#fff"/>
            </g>
          </g>
          <g id="Rectangle_400907" data-name="Rectangle 400907" transform="translate(0)" fill="none" stroke="#fff" stroke-width="3">
            <rect width="95" height="95" rx="47.5" stroke="none"/>
            <rect x="1.5" y="1.5" width="92" height="92" rx="46" fill="none"/>
          </g>
        </g>
      </g>
    </g>
    <g id="_28-Cash_register" data-name="28-Cash register" transform="translate(772.051 4898)">
      <path id="Path_900725" data-name="Path 900725" d="M26.938,34v2.719H7V34H26.938Z" transform="translate(-0.656 -3.187)" fill="#a8b7d4"/>
      <path id="Path_900726" data-name="Path 900726" d="M7,31H9.719v2.719H7Z" transform="translate(-0.656 -2.906)" fill="#5c6979"/>
      <path id="Path_900727" data-name="Path 900727" d="M26,31h2.719v2.719H26Z" transform="translate(-2.437 -2.906)" fill="#5c6979"/>
      <g id="Group_1111739" data-name="Group 1111739" transform="translate(30.813 30.813)">
        <path id="Path_900728" data-name="Path 900728" d="M39.438,42v3.625H34L34.3,42Z" transform="translate(-34 -34.75)" fill="#edf4fa"/>
        <path id="Path_900729" data-name="Path 900729" d="M40,42h4.531v3.625H40Z" transform="translate(-34.563 -34.75)" fill="#edf4fa"/>
        <path id="Path_900730" data-name="Path 900730" d="M45,42h4.531v3.625H45Z" transform="translate(-35.031 -34.75)" fill="#edf4fa"/>
        <path id="Path_900731" data-name="Path 900731" d="M55.138,42l.3,3.625H50V42Z" transform="translate(-35.5 -34.75)" fill="#edf4fa"/>
        <path id="Path_900732" data-name="Path 900732" d="M54.83,38l.308,3.625H50V38Z" transform="translate(-35.5 -34.375)" fill="#edf4fa"/>
        <path id="Path_900733" data-name="Path 900733" d="M45,38h4.531v3.625H45Z" transform="translate(-35.031 -34.375)" fill="#edf4fa"/>
        <path id="Path_900734" data-name="Path 900734" d="M40,38h4.531v3.625H40Z" transform="translate(-34.563 -34.375)" fill="#edf4fa"/>
        <path id="Path_900735" data-name="Path 900735" d="M39.468,38v3.625H34.33L34.638,38Z" transform="translate(-34.031 -34.375)" fill="#edf4fa"/>
        <path id="Path_900736" data-name="Path 900736" d="M39.5,34v3.625H34.67l.3-3.625Z" transform="translate(-34.063 -34)" fill="#edf4fa"/>
        <path id="Path_900737" data-name="Path 900737" d="M40,34h4.531v3.625H40Z" transform="translate(-34.563 -34)" fill="#edf4fa"/>
        <path id="Path_900738" data-name="Path 900738" d="M45,34h4.531v3.625H45Z" transform="translate(-35.031 -34)" fill="#edf4fa"/>
        <path id="Path_900739" data-name="Path 900739" d="M54.531,34l.3,3.625H50V34Z" transform="translate(-35.5 -34)" fill="#edf4fa"/>
      </g>
      <path id="Path_900740" data-name="Path 900740" d="M48.25,26.625v1.813H41V23h7.25Z" transform="translate(-3.844 -2.156)" fill="#bd6f08"/>
      <path id="Path_900741" data-name="Path 900741" d="M33.719,18.219H53.656V3.719H33.719ZM56.375,2.813V19.125a1.818,1.818,0,0,1-1.812,1.813H32.813A1.818,1.818,0,0,1,31,19.125V2.813A1.818,1.818,0,0,1,32.813,1h21.75A1.818,1.818,0,0,1,56.375,2.813Z" transform="translate(-2.906 -0.094)" fill="#ffad39"/>
      <path id="Path_900742" data-name="Path 900742" d="M34,4H53.938V18.5H34Z" transform="translate(-3.187 -0.375)" fill="#edf4fa"/>
      <path id="Path_900743" data-name="Path 900743" d="M19,55H42.563v3.625H19Z" transform="translate(-1.781 -5.156)" fill="#e03e3e"/>
      <path id="Path_900744" data-name="Path 900744" d="M57.188,51.335V58.25a3.625,3.625,0,0,1-3.625,3.625H4.625A3.625,3.625,0,0,1,1,58.25V51.335c0-.118,0-.227.009-.335H57.178c.009.109.009.217.009.335ZM40.875,58.25V54.625H17.313V58.25Z" transform="translate(-0.094 -4.781)" fill="#fc9e20"/>
      <path id="Path_900745" data-name="Path 900745" d="M50.546,40.594l-.308-3.625-.3-3.625H31.813l-.3,3.625-.308,3.625-.3,3.625H50.845Zm6.6,7.821c.009.118.027.227.036.335H1.01c.009-.109.027-.218.036-.335L3.52,28.586A1.819,1.819,0,0,1,5.324,27H9.157v3.625H6.438v5.437H26.376V30.625H23.657V27H37.251v1.813H44.5V27h8.365a1.819,1.819,0,0,1,1.8,1.586Z" transform="translate(-0.095 -2.531)" fill="#febd55"/>
      <path id="Path_900746" data-name="Path 900746" d="M43.969,15.781a7.25,7.25,0,0,1-7.25-7.25V4H34V18.5H53.938V15.781Z" transform="translate(-3.187 -0.375)" fill="#c1cfe8"/>
      <path id="Path_900747" data-name="Path 900747" d="M44.625,24.813H48.25V23H41v5.438h1.813V26.625A1.812,1.812,0,0,1,44.625,24.813Z" transform="translate(-3.844 -2.156)" fill="#9e5d07"/>
      <path id="Path_900748" data-name="Path 900748" d="M55.375,58.25H10.969a3.625,3.625,0,0,1-3.625-3.625V51H1.009C1,51.109,1,51.217,1,51.335V58.25a3.625,3.625,0,0,0,3.625,3.625H53.563a3.625,3.625,0,0,0,3.625-3.625V56.438A1.813,1.813,0,0,1,55.375,58.25Z" transform="translate(-0.094 -4.781)" fill="#e68c15"/>
      <path id="Path_900749" data-name="Path 900749" d="M7.974,41.2a3.625,3.625,0,0,1,3.613-3.324H24.563a.906.906,0,0,0,.906-.906v-.906H6.438V30.625H9.157V27H5.324a1.819,1.819,0,0,0-1.8,1.586L1.046,48.415c-.009.118-.027.227-.036.335H7.345Z" transform="translate(-0.095 -2.531)" fill="#fc9e20"/>
      <path id="Path_900750" data-name="Path 900750" d="M40.156,27v1.813h7.25l-1.281,1.281a1.812,1.812,0,0,1-1.281.531H33.359a1.359,1.359,0,0,1,0-2.719h4.078V27Z" transform="translate(-3 -2.531)" fill="#fc9e20"/>
      <path id="Path_900751" data-name="Path 900751" d="M19,55v3.625h2.719v-.906a.906.906,0,0,1,.906-.906H38.938a.906.906,0,0,1,.906.906v.906h2.719V55Z" transform="translate(-1.781 -5.156)" fill="#a81e29"/>
      <path id="Path_900752" data-name="Path 900752" d="M9.719,31v2.719H7v-.906h.906a.906.906,0,0,0,.906-.906V31Z" transform="translate(-0.656 -2.906)" fill="#393d48"/>
      <path id="Path_900753" data-name="Path 900753" d="M26,31v2.719h2.719v-.906h-.906a.906.906,0,0,1-.906-.906V31Z" transform="translate(-2.437 -2.906)" fill="#393d48"/>
      <path id="Path_900754" data-name="Path 900754" d="M7,34v2.719H26.938V34h-.906a1.813,1.813,0,0,1-1.812,1.813H9.719A1.813,1.813,0,0,1,7.906,34Z" transform="translate(-0.656 -3.187)" fill="#8394b2"/>
      <path id="Path_900755" data-name="Path 900755" d="M24.5,25.781v6.344H10V14l1.813,1.813L13.625,14l1.813,1.813L17.25,14l1.813,1.813L20.875,14l1.813,1.813L24.5,14Z" transform="translate(-0.937 -1.312)" fill="#edf4fa"/>
      <path id="Path_900756" data-name="Path 900756" d="M10,32H24.5v1.813H10Z" transform="translate(-0.937 -3)" fill="#d6e0eb"/>
      <path id="Path_900757" data-name="Path 900757" d="M32.719,21.75h6.344v4.531a.906.906,0,0,0,.906.906h7.25a.906.906,0,0,0,.906-.906V21.75h6.344a2.719,2.719,0,0,0,2.719-2.719V2.719A2.719,2.719,0,0,0,54.469,0H32.719A2.719,2.719,0,0,0,30,2.719V19.031A2.719,2.719,0,0,0,32.719,21.75Zm13.594,3.625H40.875V21.75h5.438ZM31.813,2.719a.906.906,0,0,1,.906-.906h21.75a.906.906,0,0,1,.906.906V19.031a.906.906,0,0,1-.906.906H32.719a.906.906,0,0,1-.906-.906Z" transform="translate(-2.812)"/>
      <path id="Path_900758" data-name="Path 900758" d="M57.951,48.208,55.472,28.382A2.719,2.719,0,0,0,52.775,26H46.219v1.813h6.556a.906.906,0,0,1,.9.794l2.479,19.824a4.7,4.7,0,0,1,.034.565v6.911a2.719,2.719,0,0,1-2.719,2.719H4.531a2.719,2.719,0,0,1-2.719-2.719V49a4.645,4.645,0,0,1,.034-.563L4.326,28.606a.906.906,0,0,1,.9-.794H7.25V26H5.225a2.719,2.719,0,0,0-2.7,2.382L.049,48.209A6.509,6.509,0,0,0,0,49v6.911a4.537,4.537,0,0,0,4.531,4.531H53.469A4.537,4.537,0,0,0,58,55.906V49a6.561,6.561,0,0,0-.049-.788Z" transform="translate(0 -2.437)"/>
      <path id="Path_900759" data-name="Path 900759" d="M28,26h9.969v1.813H28Z" transform="translate(-2.625 -2.437)"/>
      <path id="Path_900760" data-name="Path 900760" d="M6.906,28.406A.906.906,0,0,0,6,29.313V34.75a.906.906,0,0,0,.906.906H26.844a.906.906,0,0,0,.906-.906V29.313a.906.906,0,0,0-.906-.906H25.031v-14.5a.906.906,0,0,0-1.547-.641l-1.172,1.172-1.172-1.172a.906.906,0,0,0-1.281,0l-1.172,1.172-1.172-1.172a.906.906,0,0,0-1.281,0l-1.172,1.172-1.172-1.172a.906.906,0,0,0-1.281,0l-1.172,1.172-1.172-1.172a.906.906,0,0,0-1.547.641v14.5Zm.906,1.813h.906v.906H7.813Zm0,3.625v-.906H25.938v.906Zm18.125-3.625v.906h-.906v-.906ZM10.531,16.094l.266.266a.906.906,0,0,0,1.281,0l1.172-1.172,1.172,1.172a.906.906,0,0,0,1.281,0l1.172-1.172,1.172,1.172a.906.906,0,0,0,1.281,0L20.5,15.188l1.172,1.172a.906.906,0,0,0,1.281,0l.266-.266V31.125H10.531Z" transform="translate(-0.562 -1.219)"/>
      <path id="Path_900761" data-name="Path 900761" d="M52.937,33H34.812a.906.906,0,0,0-.906.831L33,44.706a.906.906,0,0,0,.906.981H53.843a.906.906,0,0,0,.906-.981l-.906-10.875A.906.906,0,0,0,52.937,33Zm-.682,3.625H49.312V34.813H52.1ZM40.25,38.438h2.719V40.25H40.25ZM38.437,40.25H35.193l.151-1.812h3.093Zm4.531-3.625H40.25V34.813h2.719Zm1.813-1.812H47.5v1.813H44.781Zm-1.812,7.25v1.813H40.25V42.063Zm1.813,0H47.5v1.813H44.781Zm0-1.812V38.438H47.5V40.25Zm4.531-1.812h3.093l.151,1.813H49.312ZM38.437,34.813v1.813H35.495l.151-1.812Zm-3.395,7.25h3.395v1.813H34.891Zm14.27,1.813V42.063h3.395l.151,1.813Z" transform="translate(-3.093 -3.094)"/>
      <path id="Path_900762" data-name="Path 900762" d="M7,50H55.938v1.813H7Z" transform="translate(-0.656 -4.687)"/>
      <path id="Path_900763" data-name="Path 900763" d="M3,50H4.813v1.813H3Z" transform="translate(-0.281 -4.687)"/>
      <path id="Path_900764" data-name="Path 900764" d="M33.906,19.313H53.844a.906.906,0,0,0,.906-.906V8.438H52.938V17.5H34.813V4.813H52.938V6.625H54.75V3.906A.906.906,0,0,0,53.844,3H33.906A.906.906,0,0,0,33,3.906v14.5A.906.906,0,0,0,33.906,19.313Z" transform="translate(-3.094 -0.281)"/>
      <path id="Path_900765" data-name="Path 900765" d="M18.906,54a.906.906,0,0,0-.906.906v3.625a.906.906,0,0,0,.906.906H42.469a.906.906,0,0,0,.906-.906V54.906A.906.906,0,0,0,42.469,54Zm22.656,3.625H19.813V55.813h21.75Z" transform="translate(-1.687 -5.062)"/>
      <path id="Path_900766" data-name="Path 900766" d="M13,18h1.813v1.813H13Z" transform="translate(-1.219 -1.687)"/>
      <path id="Path_900767" data-name="Path 900767" d="M17,18h1.813v1.813H17Z" transform="translate(-1.594 -1.687)"/>
      <path id="Path_900768" data-name="Path 900768" d="M13,21h1.813v1.813H13Z" transform="translate(-1.219 -1.969)"/>
      <path id="Path_900769" data-name="Path 900769" d="M17,21h1.813v1.813H17Z" transform="translate(-1.594 -1.969)"/>
      <path id="Path_900770" data-name="Path 900770" d="M13,25h9.063v1.813H13Z" transform="translate(-1.219 -2.344)"/>
      <path id="Path_900771" data-name="Path 900771" d="M13,29h9.063v1.813H13Z" transform="translate(-1.219 -2.719)"/>
      <path id="Path_900772" data-name="Path 900772" d="M37,7h1.813V8.813H37Z" transform="translate(-3.469 -0.656)"/>
      <path id="Path_900773" data-name="Path 900773" d="M41,7h1.813V8.813H41Z" transform="translate(-3.844 -0.656)"/>
      <path id="Path_900774" data-name="Path 900774" d="M37,10h1.813v1.813H37Z" transform="translate(-3.469 -0.937)"/>
      <path id="Path_900775" data-name="Path 900775" d="M41,10h1.813v1.813H41Z" transform="translate(-3.844 -0.937)"/>
    </g>
  </g>
</svg>
